<?xml version="1.0" encoding="utf-8"?>
<!-- Generator: Adobe Illustrator 18.1.1, SVG Export Plug-In . SVG Version: 6.00 Build 0)  -->
<svg version="1.1" xmlns="http://www.w3.org/2000/svg" xmlns:xlink="http://www.w3.org/1999/xlink" x="0px" y="0px"
	 viewBox="0 0 1920 1915" enable-background="new 0 0 1920 1915" xml:space="preserve">
<g id="Слой_1">
	<image overflow="visible" width="1920" height="1915" xlink:href="18-23.png" >
	</image>
</g>
<g id="Слой_2" opacity="0.5">
	<polygon fill="#FFFFFF" points="21,19.125 736,19.125 736,461.333 674,461.333 674,676 538,676 538,542 21,542 	"/>
</g>
<g id="Слой_3" opacity="0.5">
	<polygon fill="#FFFFFF" points="963.333,19.333 963.333,799 791,799 791,587 659.667,587 659.667,447.667 723.667,447.667 
		723.667,19.333 	"/>
</g>
<g id="Слой_4" opacity="0.5">
	<polygon fill="#FFFFFF" points="955.333,19.125 955.333,798.667 1128.667,798.667 1128.667,612.667 1272.667,612.667 
		1272.667,455.333 1398,455.333 1398,19.125 	"/>
</g>
<g id="Слой_5" opacity="0.5">
	<polygon fill="#FFFFFF" points="1898.5,19.5 1898.5,725.333 1236,725.333 1236,598.333 1259.333,598.333 1259.333,440.667 
		1385.667,440.667 1385.667,19.5 	"/>
</g>
<g id="Слой_6" opacity="0.5">
	<polygon fill="#FFFFFF" points="1236.333,711.333 1898.667,711.333 1898.667,1385.333 1380,1385.333 1380,1202.667 
		1236.333,1202.667 	"/>
</g>
<g id="Слой_7" opacity="0.5">
	<polygon fill="#FFFFFF" points="1898.25,1896.5 1898.25,1372 1396.667,1372 1396.667,1190.667 1236.667,1190.667 1236.667,1896.5 	
		"/>
</g>
<g id="Слой_8" opacity="0.5">
	<polygon fill="#FFFFFF" points="21,1897.167 21,1373.333 537.333,1373.333 537.333,1237.333 919.333,1237.333 919.333,1896.5 	"/>
</g>
<g id="Слой_9" opacity="0.5">
	<polygon fill="#FFFFFF" points="20.667,1385.333 551.333,1385.333 551.333,1249.333 683.333,1249.333 683.333,950 20.667,950 	"/>
</g>
<g id="Слой_10" opacity="0.5">
	<polygon fill="#FFFFFF" points="20,965.333 682,965.333 682,661.333 550.667,661.333 550.667,529.333 20,529.333 	"/>
</g>
</svg>
