<?xml version="1.0" encoding="utf-8"?>
<!-- Generator: Adobe Illustrator 18.1.1, SVG Export Plug-In . SVG Version: 6.00 Build 0)  -->
<svg version="1.1" id="Слой_1" xmlns="http://www.w3.org/2000/svg" xmlns:xlink="http://www.w3.org/1999/xlink" x="0px" y="0px"
	 viewBox="0 0 336.143 183.208" enable-background="new 0 0 336.143 183.208" xml:space="preserve">
<path fill="#FFFFFF" stroke="#E84734" stroke-width="2" stroke-miterlimit="10" d="M213.018,156.66
	c-6.413,0-194.926,0.536-201.32-0.005c-6.394-0.541-11.19-2.451-10.657-9.274S1.037,31.98,1,24.334
	C0.974,18.876,5.132,13.421,16.855,12.33S305.457,1.74,315.581,1.194c10.124-0.546,21.078-0.472,19.388,7.588
	c-8.068,38.474-17.977,138.046-17.946,140.237c0.082,5.738-7.46,6.823-13.854,6.823c-6.394,0-31.915,0.229-37.51,0.229
	c-18.515,0-32.668,21.506-38.27,26.129C226.714,182.756,231.857,156.66,213.018,156.66z"/>
</svg>
