<?xml version="1.0" encoding="utf-8"?>
<!-- Generator: Adobe Illustrator 18.1.1, SVG Export Plug-In . SVG Version: 6.00 Build 0)  -->
<svg version="1.1" id="Слой_1" xmlns="http://www.w3.org/2000/svg" xmlns:xlink="http://www.w3.org/1999/xlink" x="0px" y="0px"
	 viewBox="0 0 328.644 234.687" enable-background="new 0 0 328.644 234.687" xml:space="preserve">
<path fill="none" stroke="#E84734" stroke-width="2" stroke-miterlimit="10" d="M208.26,200.882
	c-6.269,0-190.552,0.689-196.802-0.006c-6.251-0.695-10.939-3.148-10.418-11.909S1.036,40.781,1,30.963
	C0.974,23.954,5.04,16.95,16.499,15.548S298.625,1.95,308.522,1.249c9.897-0.701,20.605-0.607,18.953,9.743
	c-7.887,49.404-17.574,177.263-17.543,180.077c0.08,7.369-7.293,8.761-13.543,8.761s-31.199,0.294-36.668,0.294
	c-18.1,0-31.935,27.616-37.411,33.552C221.649,234.391,226.677,200.882,208.26,200.882z"/>
</svg>
