<?xml version="1.0" encoding="utf-8"?>
<!-- Generator: Adobe Illustrator 18.1.1, SVG Export Plug-In . SVG Version: 6.00 Build 0)  -->
<svg version="1.1" id="Слой_1" xmlns="http://www.w3.org/2000/svg" xmlns:xlink="http://www.w3.org/1999/xlink" x="0px" y="0px"
	 viewBox="0 0 202.225 59.896" enable-background="new 0 0 202.225 59.896" xml:space="preserve">
<g>
	<path fill="#E84633" d="M0,59.53c0-7.468,0-38.88,0-49.447C0-0.092,7.348,0.65,13.92,0.37c1.592-0.068,43.291-0.415,165.92-0.263
		c15.611,0.019,25.943-2.272,21.243,13.344c-5.209,17.308-6.428,25.616-9.669,37.163c-1.642,5.849-9.463,4.655-15.948,4.426
		C82.422,51.758,12.34,49.802,10.479,49.7c-6.547-0.359-9.335,6.798-10.133,9.979C0.263,60.007,0,59.968,0,59.53z"/>
	<g>
		<path fill="#FFFFFF" d="M37.959,33.523c-0.666,0.774-4.362,1.526-4.362-0.988c0-2.514,0-3.18,0-12.335
			c0-9.154-8.058-9.505-9.262-9.505c-0.666,0-6.619-0.551-10.701,1.834c-1.547,3.116-0.709,6.124-0.709,6.124s4.083-2.45,8.66-2.45
			c4.577,0,5.737,2.879,5.737,4.599c0,1.719,0,2.106,0,2.106s-1.639-0.86-4.856-0.86c-7.22,0-11.69,3.18-11.69,9.262
			s3.997,8.574,9.283,8.574c5.286,0,7.414-3.18,7.435-3.417c0.021-0.236,0.329-0.328,0.365-0.193c0.09,0.332,0.559,3.61,4.19,3.61
			c3.632,0,4.728-1.053,4.728-1.053S38.432,36.918,37.959,33.523z M27.323,32.19c0,0-1.741,2.407-5.458,2.407
			c-3.718,0-4.663-1.741-4.663-3.675s1.375-4.169,6.253-4.169c2.299,0,3.868,0.795,3.868,0.795V32.19z"/>
		<path fill="#FFFFFF" d="M43.042,12.131v26.367c0,0,0.838,0.419,3.03,0.419s3.062-0.548,3.062-0.548V27.441c0,0,1.386,0,3.159,0
			s2.772,0.612,3.771,2.708s3.481,6.608,4.287,7.478c0.806,0.87,1.128,1.289,2.933,1.289c1.805,0,4.171-0.154,4.706-0.355
			c0.258-0.097,0.113-0.226,0-0.435s-3.11-4.126-4.609-6.978c-1.499-2.853-2.466-5.399-5.141-5.979
			c-0.245-0.095-0.24-0.405,0.016-0.467c0.461-0.113,2.335-0.633,3.374-2.249c0.58-0.903,1.316-2.747,1.687-4.246
			c0.371-1.499,1.805-1.998,3.191-1.998c0.661,0-0.371-4.738-0.935-4.996c-0.282-0.129-3.787-0.21-5.77,1.773
			s-2.337,4.851-2.724,6.253c-0.387,1.402-2.015,3.175-4.174,3.175c-2.16,0-3.723,0-3.723,0V12.147c0,0-0.983-0.467-3.046-0.467
			C44.073,11.679,43.042,12.131,43.042,12.131z"/>
		<path fill="#FFFFFF" d="M73.808,38.787V12.12c0,0,1.52-0.494,3.175-0.494s2.965,0.516,2.965,0.516v21.08h11.002V12.098
			c0,0,1.698-0.473,3.309-0.473c1.612,0,3.094,0.494,3.094,0.494v21.102h3.782V46.76c0,0-1.096,0.387-2.772,0.387
			c-1.676,0-2.879-0.451-2.879-0.451v-7.929L73.808,38.787z"/>
		<path fill="#FFFFFF" d="M128.9,32.77c-0.172,0.086-2.858,1.741-8.638,1.741c-5.78,0-8.402-2.751-8.789-7.199h17.664
			c0,0,0.688-1.805,0.688-4.899c0-1.784-0.086-11.719-11.131-11.719s-13.688,9.054-13.688,14.92c0,6.898,3.374,14.29,14.247,14.29
			c5.587,0,8.424-1.955,8.638-2.149c0.215-0.193,1.246-1.203,1.44-4.856C129.308,32.556,129.072,32.684,128.9,32.77z
			 M118.284,15.708c4.341,0,5.351,3.116,5.351,4.835c0,1.16-0.107,1.977-0.107,1.977h-12.055
			C111.773,18.996,113.944,15.708,118.284,15.708z"/>
		<path fill="#FFFFFF" d="M136.786,12.163c0,0,1.504-0.473,3.18-0.473c1.676,0,2.944,0.473,2.944,0.473v26.302
			c0,0-1.074,0.473-2.944,0.473c-1.87,0-3.18-0.451-3.18-0.451V12.163z"/>
		<path fill="#FFFFFF" d="M154.751,12.163c0,0,1.557-0.473,3.292-0.473c1.735,0,3.047,0.473,3.047,0.473v26.302
			c0,0-1.112,0.473-3.047,0.473c-1.935,0-3.292-0.451-3.292-0.451V12.163z"/>
		<path fill="#FFFFFF" d="M175.466,13.452c0,0,1.557-0.473,3.292-0.473c1.735,0,3.047,0.473,3.047,0.473v25.013
			c0,0-1.112,0.473-3.047,0.473c-1.935,0-3.292-0.451-3.292-0.451V13.452z"/>
		<path fill="#FFFFFF" d="M166.127,17.151c0-0.448,0.046-1.546,0.206-2.734c0.15-1.116,0.518-2.046,0.7-2.476
			c0.106-0.251,0.375-0.251,0.375-0.251h23.214c0,0,0.473,0.995,0.473,2.727s-0.451,2.946-0.451,2.946h-24.286
			C166.357,17.363,166.127,17.344,166.127,17.151z"/>
		<rect x="142.115" y="22.155" fill="#FFFFFF" width="14.204" height="5.329"/>
	</g>
</g>
</svg>
