<?xml version="1.0" encoding="utf-8"?>
<!-- Generator: Adobe Illustrator 18.1.1, SVG Export Plug-In . SVG Version: 6.00 Build 0)  -->
<svg version="1.1" id="Слой_1" xmlns="http://www.w3.org/2000/svg" xmlns:xlink="http://www.w3.org/1999/xlink" x="0px" y="0px"
	 viewBox="0 300.548 1280 898.903" enable-background="new 0 300.548 1280 898.903" xml:space="preserve">
<g enable-background="new    ">
	<g>
		<defs>
			<rect id="SVGID_1_" y="300.548" width="1280" height="898.903"/>
		</defs>
		<clipPath id="SVGID_2_">
			<use xlink:href="#SVGID_1_"  overflow="visible"/>
		</clipPath>
		<path clip-path="url(#SVGID_2_)" fill="#F58317" d="M201.662,454.918l-19.326-4.624l-2.952-17.197
			c-0.388-2.263-2.537-3.781-4.8-3.394l-16.388,2.813c-2.263,0.388-3.781,2.537-3.394,4.8l1.145,6.664l-13.194-3.158l-4.461-25.978
			c-2.365-13.783-11.418-23.346-20.607-21.767c-9.189,1.578-14.534,13.611-12.169,27.395l4.459,25.978l-7.591,4.918l-0.843-4.908
			c-0.388-2.263-2.537-3.781-4.8-3.394l-16.388,2.813c-2.263,0.388-3.781,2.537-3.394,4.8l2.651,15.441l-20.473,13.264
			c-1.394,0.905-2.117,2.553-1.836,4.193l2.813,16.388c0.222,1.286,1.031,2.393,2.191,2.99c1.161,0.597,2.531,0.617,3.707,0.052
			l49.577-23.845l1.88,10.957c0.899,5.238,2.681,11.925,5.088,18.785l-10.819,7.948c-1.268,0.933-1.902,2.501-1.636,4.053
			l2.109,12.291c0.226,1.318,1.071,2.445,2.271,3.032s2.611,0.559,3.787-0.072l13.324-7.137c2.455,4.215,5.096,7.868,7.846,10.469
			c0.951,0.899,2.269,1.298,3.56,1.077c1.29-0.222,2.399-1.039,2.996-2.201c1.726-3.368,2.998-7.695,3.907-12.485l14.942,2.285
			c0.447,0.068,0.895,0.062,1.33-0.012c0.849-0.146,1.644-0.553,2.263-1.185c0.937-0.953,1.356-2.299,1.131-3.616l-2.109-12.291
			c-0.266-1.552-1.386-2.821-2.894-3.276l-12.85-3.885c-0.02-7.269-0.569-14.169-1.468-19.406l-1.88-10.957l54.689,5.947
			c0.39,0.042,0.777,0.03,1.153-0.034c0.881-0.152,1.7-0.583,2.325-1.248c0.895-0.951,1.29-2.265,1.069-3.552l-2.813-16.388
			C204.508,456.618,203.278,455.304,201.662,454.918z M85.859,453.366l8.194-1.406l0.741,4.321l-7.591,4.918L85.859,453.366z
			 M114.129,470.637l-46.751,22.485l-1.416-8.254l45.544-29.508L114.129,470.637z M119.432,526.103l-0.699-4.073l6.922-5.086
			c0.669,1.594,1.374,3.16,2.101,4.702L119.432,526.103z M142.053,485.896c1.882,10.959,2.034,30.115-1.165,42.36
			c-7.097-10.477-13.342-28.589-15.223-39.548l-11.955-69.647c-1.61-9.381,1.514-17.129,5.381-17.794
			c3.867-0.663,9.397,5.601,11.007,14.982L142.053,485.896z M159.701,514.997l0.699,4.073l-9.333-1.428
			c0.17-1.696,0.314-3.408,0.413-5.134L159.701,514.997z M163.698,440.004l8.194-1.406l1.646,9.59l-8.797-2.105L163.698,440.004z
			 M198.478,470.621l-51.573-5.607l-2.623-15.277l52.78,12.631L198.478,470.621z"/>
	</g>
	<g>
		<defs>
			<rect id="SVGID_3_" y="300.548" width="1280" height="898.903"/>
		</defs>
		<clipPath id="SVGID_4_">
			<use xlink:href="#SVGID_3_"  overflow="visible"/>
		</clipPath>
		<path clip-path="url(#SVGID_4_)" fill="#F58317" d="M1048.013,1005.35l-19.326-4.624l-2.952-17.197
			c-0.39-2.263-2.537-3.781-4.8-3.394l-16.388,2.813c-2.263,0.388-3.781,2.537-3.394,4.8l1.145,6.664l-13.194-3.158l-4.459-25.978
			c-2.365-13.783-11.418-23.346-20.607-21.767c-9.189,1.578-14.534,13.611-12.167,27.395l4.459,25.978l-7.591,4.918l-0.843-4.908
			c-0.388-2.263-2.537-3.781-4.8-3.394l-16.388,2.813c-2.263,0.388-3.781,2.537-3.394,4.8l2.651,15.441l-20.473,13.264
			c-1.394,0.905-2.117,2.553-1.836,4.193l2.813,16.388c0.222,1.286,1.031,2.393,2.191,2.99c1.161,0.599,2.531,0.617,3.707,0.052
			l49.578-23.845l1.88,10.957c0.899,5.238,2.681,11.925,5.088,18.785l-10.819,7.948c-1.268,0.933-1.902,2.501-1.636,4.053
			l2.109,12.291c0.226,1.318,1.071,2.445,2.271,3.032c1.201,0.587,2.611,0.559,3.787-0.072l13.324-7.137
			c2.455,4.215,5.096,7.868,7.846,10.469c0.951,0.899,2.269,1.298,3.56,1.077c1.29-0.222,2.399-1.039,2.996-2.201
			c1.726-3.368,2.998-7.695,3.907-12.485l14.942,2.285c0.447,0.068,0.895,0.062,1.33-0.012c0.849-0.146,1.644-0.553,2.263-1.185
			c0.937-0.953,1.356-2.299,1.131-3.616l-2.109-12.291c-0.266-1.552-1.386-2.821-2.894-3.276l-12.85-3.885
			c-0.02-7.269-0.569-14.169-1.468-19.406l-1.88-10.957l54.689,5.947c0.39,0.044,0.777,0.03,1.153-0.034
			c0.881-0.152,1.7-0.583,2.325-1.248c0.895-0.951,1.29-2.265,1.069-3.552l-2.813-16.388
			C1050.86,1007.05,1049.629,1005.736,1048.013,1005.35z M932.21,1003.798l8.194-1.406l0.741,4.321l-7.591,4.918L932.21,1003.798z
			 M960.48,1021.069l-46.751,22.485l-1.416-8.254l45.546-29.508L960.48,1021.069z M965.783,1076.536l-0.699-4.073l6.922-5.086
			c0.669,1.594,1.374,3.16,2.101,4.702L965.783,1076.536z M988.404,1036.329c1.882,10.959,2.034,30.115-1.165,42.36
			c-7.097-10.477-13.342-28.589-15.223-39.548l-11.955-69.647c-1.61-9.381,1.514-17.131,5.381-17.794
			c3.867-0.663,9.397,5.601,11.007,14.982L988.404,1036.329z M1006.052,1065.429l0.699,4.073l-9.333-1.428
			c0.17-1.696,0.312-3.408,0.413-5.134L1006.052,1065.429z M1010.051,990.437l8.194-1.406l1.646,9.59l-8.797-2.105L1010.051,990.437
			z M1044.829,1021.053l-51.573-5.607l-2.623-15.277l52.78,12.631L1044.829,1021.053z"/>
	</g>
	<g>
		<defs>
			<rect id="SVGID_5_" y="300.548" width="1280" height="898.903"/>
		</defs>
		<clipPath id="SVGID_6_">
			<use xlink:href="#SVGID_5_"  overflow="visible"/>
		</clipPath>
		<path clip-path="url(#SVGID_6_)" fill="#F58317" d="M750.78,546.974l-19.326-4.624l-2.952-17.197
			c-0.388-2.263-2.537-3.781-4.8-3.394l-16.388,2.813c-2.263,0.388-3.781,2.537-3.394,4.8l1.145,6.664l-13.194-3.158l-4.459-25.978
			c-2.365-13.783-11.418-23.345-20.607-21.767s-14.534,13.611-12.167,27.395l4.459,25.978l-7.591,4.918l-0.843-4.908
			c-0.388-2.263-2.537-3.781-4.8-3.394l-16.388,2.813c-2.263,0.388-3.781,2.537-3.394,4.8l2.651,15.441l-20.473,13.264
			c-1.394,0.905-2.117,2.553-1.836,4.193l2.813,16.388c0.222,1.286,1.031,2.393,2.191,2.99c1.161,0.599,2.531,0.617,3.707,0.052
			l49.578-23.845l1.88,10.957c0.899,5.238,2.681,11.925,5.088,18.785l-10.819,7.948c-1.268,0.933-1.902,2.501-1.636,4.053
			l2.109,12.291c0.226,1.318,1.071,2.445,2.271,3.032c1.201,0.587,2.611,0.559,3.787-0.072l13.324-7.137
			c2.455,4.215,5.096,7.868,7.846,10.469c0.951,0.899,2.269,1.298,3.56,1.077c1.29-0.222,2.399-1.039,2.996-2.201
			c1.726-3.368,2.998-7.695,3.907-12.485l14.942,2.285c0.447,0.068,0.895,0.062,1.33-0.012c0.849-0.146,1.644-0.553,2.263-1.185
			c0.937-0.953,1.356-2.299,1.131-3.616l-2.109-12.291c-0.266-1.552-1.386-2.821-2.895-3.276l-12.85-3.885
			c-0.02-7.269-0.569-14.169-1.468-19.406l-1.88-10.957l54.689,5.947c0.39,0.044,0.777,0.03,1.153-0.034
			c0.881-0.152,1.7-0.583,2.325-1.248c0.895-0.951,1.29-2.265,1.069-3.552l-2.813-16.388
			C753.628,548.674,752.398,547.361,750.78,546.974z M634.977,545.422l8.194-1.406l0.741,4.321l-7.591,4.918L634.977,545.422z
			 M663.249,562.693l-46.751,22.485l-1.416-8.254l45.546-29.508L663.249,562.693z M668.55,618.159l-0.699-4.073l6.922-5.086
			c0.669,1.594,1.374,3.16,2.101,4.702L668.55,618.159z M691.173,577.952c1.882,10.959,2.034,30.115-1.165,42.36
			c-7.097-10.477-13.342-28.589-15.223-39.548l-11.955-69.647c-1.61-9.381,1.514-17.129,5.381-17.794
			c3.867-0.663,9.397,5.601,11.007,14.982L691.173,577.952z M708.819,607.052l0.699,4.073l-9.333-1.428
			c0.17-1.696,0.314-3.408,0.414-5.134L708.819,607.052z M712.818,532.06l8.194-1.406l1.646,9.59l-8.797-2.105L712.818,532.06z
			 M747.596,562.677l-51.573-5.607l-2.623-15.277l52.78,12.631L747.596,562.677z"/>
	</g>
	<g>
		<defs>
			<rect id="SVGID_7_" y="300.548" width="1280" height="898.903"/>
		</defs>
		<clipPath id="SVGID_8_">
			<use xlink:href="#SVGID_7_"  overflow="visible"/>
		</clipPath>
		<path clip-path="url(#SVGID_8_)" fill="#F58317" d="M169.601,856.059l-19.326-4.624l-2.952-17.197
			c-0.388-2.263-2.537-3.781-4.8-3.394l-16.388,2.813c-2.263,0.388-3.781,2.537-3.394,4.8l1.145,6.664l-13.194-3.158l-4.459-25.978
			c-2.365-13.783-11.418-23.346-20.607-21.767s-14.534,13.611-12.169,27.395l4.459,25.978l-7.591,4.918l-0.843-4.908
			c-0.388-2.263-2.537-3.781-4.8-3.394l-16.388,2.813c-2.263,0.388-3.781,2.537-3.394,4.8l2.651,15.441l-20.473,13.264
			c-1.394,0.905-2.117,2.553-1.836,4.193l2.813,16.388c0.222,1.286,1.031,2.393,2.191,2.99c1.161,0.599,2.531,0.617,3.707,0.052
			l49.577-23.845l1.88,10.957c0.899,5.238,2.681,11.925,5.088,18.785l-10.819,7.948c-1.268,0.933-1.902,2.501-1.636,4.053
			l2.109,12.291c0.226,1.318,1.071,2.445,2.271,3.032s2.611,0.559,3.787-0.072l13.324-7.137c2.455,4.215,5.096,7.868,7.846,10.469
			c0.951,0.899,2.269,1.298,3.56,1.077c1.29-0.222,2.399-1.039,2.996-2.201c1.726-3.368,2.998-7.695,3.907-12.485l14.942,2.285
			c0.447,0.068,0.895,0.062,1.33-0.012c0.849-0.146,1.644-0.553,2.263-1.185c0.937-0.953,1.356-2.299,1.131-3.616l-2.109-12.291
			c-0.266-1.552-1.386-2.821-2.894-3.276l-12.85-3.885c-0.02-7.269-0.569-14.169-1.468-19.406l-1.88-10.957l54.689,5.947
			c0.39,0.044,0.777,0.03,1.153-0.034c0.881-0.152,1.7-0.583,2.325-1.248c0.895-0.951,1.29-2.265,1.069-3.552l-2.813-16.388
			C172.448,857.759,171.217,856.446,169.601,856.059z M53.798,854.506l8.194-1.406l0.741,4.321l-7.591,4.918L53.798,854.506z
			 M82.068,871.777l-46.751,22.485l-1.416-8.254L79.447,856.5L82.068,871.777z M87.371,927.244l-0.699-4.073l6.922-5.086
			c0.669,1.594,1.374,3.16,2.101,4.702L87.371,927.244z M109.994,887.037c1.882,10.959,2.034,30.115-1.165,42.36
			c-7.097-10.477-13.342-28.589-15.223-39.548L81.65,820.202c-1.61-9.38,1.514-17.131,5.381-17.794s9.397,5.601,11.007,14.982
			L109.994,887.037z M127.64,916.137l0.699,4.073l-9.333-1.428c0.17-1.696,0.312-3.408,0.413-5.134L127.64,916.137z
			 M131.639,841.147l8.194-1.406l1.646,9.59l-8.797-2.105L131.639,841.147z M166.417,871.761l-51.573-5.607l-2.623-15.277
			l52.78,12.631L166.417,871.761z"/>
	</g>
	<g>
		<defs>
			<rect id="SVGID_9_" y="300.548" width="1280" height="898.903"/>
		</defs>
		<clipPath id="SVGID_10_">
			<use xlink:href="#SVGID_9_"  overflow="visible"/>
		</clipPath>
		<path clip-path="url(#SVGID_10_)" fill="#F58317" d="M341.074,254.521l-24.58,4.219l2.813,16.388l-28.801-20.361l-61.085,86.401
			l12.291-2.109l11.955,69.647l122.906-21.096l-11.955-69.647l12.291-2.109l-28.801-20.363L341.074,254.521z M326.094,265.527
			l8.194-1.406l4.219,24.582l-9.6-6.788L326.094,265.527z M293.49,272.147l56.435,39.899l-96.334,16.536L293.49,272.147z
			 M321.202,384.458l-16.388,2.813l-5.625-32.774l16.388-2.813L321.202,384.458z M362.17,377.427l-32.774,5.625l-7.031-40.968
			l-32.774,5.625l7.031,40.968l-32.774,5.625l-9.846-57.356l98.324-16.877L362.17,377.427z"/>
	</g>
	<g>
		<defs>
			<rect id="SVGID_11_" y="300.548" width="1280" height="898.903"/>
		</defs>
		<clipPath id="SVGID_12_">
			<use xlink:href="#SVGID_11_"  overflow="visible"/>
		</clipPath>
		<path clip-path="url(#SVGID_12_)" fill="#F58317" d="M677.619,886.889l-24.582,4.219l2.813,16.388l-28.801-20.361l-61.085,86.401
			l12.291-2.109l11.955,69.647l122.906-21.096L701.16,950.33l12.291-2.109l-28.801-20.361L677.619,886.889z M662.639,897.896
			l8.194-1.406l4.219,24.582l-9.6-6.788L662.639,897.896z M630.035,904.515l56.435,39.899l-96.334,16.536L630.035,904.515z
			 M657.747,1016.826l-16.388,2.813l-5.625-32.774l16.388-2.813L657.747,1016.826z M698.715,1009.795l-32.774,5.625l-7.031-40.968
			l-32.774,5.625l7.031,40.968l-32.774,5.625l-9.846-57.356l98.324-16.877L698.715,1009.795z"/>
	</g>
	<g>
		<defs>
			<rect id="SVGID_13_" y="300.548" width="1280" height="898.903"/>
		</defs>
		<clipPath id="SVGID_14_">
			<use xlink:href="#SVGID_13_"  overflow="visible"/>
		</clipPath>
		<path clip-path="url(#SVGID_14_)" fill="#F58317" d="M1111.837,359.295l-24.582,4.219l2.813,16.388l-28.801-20.361l-61.085,86.401
			l12.291-2.109l11.955,69.647l122.906-21.096l-11.955-69.647l12.291-2.109l-28.801-20.361L1111.837,359.295z M1096.855,370.301
			l8.194-1.406l4.219,24.582l-9.6-6.788L1096.855,370.301z M1064.251,376.921l56.435,39.899l-96.334,16.536L1064.251,376.921z
			 M1091.965,489.232l-16.388,2.813l-5.625-32.774l16.388-2.813L1091.965,489.232z M1132.933,482.201l-32.774,5.625l-7.031-40.968
			l-32.774,5.625l7.031,40.968l-32.774,5.625l-9.846-57.356l98.324-16.877L1132.933,482.201z"/>
	</g>
	<g>
		<defs>
			<rect id="SVGID_15_" y="300.548" width="1280" height="898.903"/>
		</defs>
		<clipPath id="SVGID_16_">
			<use xlink:href="#SVGID_15_"  overflow="visible"/>
		</clipPath>
		<g clip-path="url(#SVGID_16_)">
			<path fill="#F58317" d="M1019.807,212.919l16.887-23.885l-6.774-4.788l-16.887,23.885c-7.794-4.516-16.951-6.758-26.432-6.001
				l-4.946-28.815l-8.178,1.404l4.946,28.815c-9.191,2.447-17.075,7.615-22.918,14.472l-23.885-16.887l-4.788,6.774l23.885,16.887
				c-4.516,7.794-6.758,16.951-6.001,26.432l-28.815,4.946l1.404,8.178l28.815-4.946c2.447,9.191,7.615,17.075,14.472,22.918
				l-16.887,23.885l6.774,4.788l16.887-23.885c7.795,4.517,16.951,6.758,26.432,6.001l4.946,28.815l8.178-1.404l-4.946-28.815
				c9.191-2.447,17.075-7.615,22.918-14.472l23.885,16.887l4.788-6.774l-23.885-16.887c4.516-7.794,6.758-16.951,6.001-26.432
				l28.815-4.946l-1.404-8.178l-28.815,4.946C1031.833,226.649,1026.665,218.762,1019.807,212.919z M995.815,280.323
				c-18.036,3.096-35.229-9.059-38.325-27.095c-3.096-18.036,9.059-35.229,27.095-38.325c18.036-3.096,35.229,9.059,38.325,27.095
				C1026.006,260.034,1013.851,277.227,995.815,280.323z"/>
			
				<rect x="946.225" y="187.783" transform="matrix(0.5335 0.8458 -0.8458 0.5335 607.863 -718.2377)" fill="#F58317" width="17.632" height="8.298"/>
			
				<rect x="1021.146" y="294.517" transform="matrix(0.8459 -0.5334 0.5334 0.8459 -3.7674 593.6271)" fill="#F58317" width="8.298" height="17.631"/>
			
				<rect x="925.702" y="278.626" transform="matrix(0.8458 -0.5335 0.5335 0.8458 -6.7578 542.1695)" fill="#F58317" width="17.632" height="8.298"/>
			
				<rect x="1037.064" y="208.306" transform="matrix(-0.8458 0.5335 -0.5335 -0.8458 2043.8306 -165.8278)" fill="#F58317" width="17.633" height="8.298"/>
			
				<rect x="917.151" y="228.899" transform="matrix(0.9753 0.2209 -0.2209 0.9753 74.3547 -198.7883)" fill="#F58317" width="17.633" height="8.298"/>
			
				<rect x="1045.615" y="258.027" transform="matrix(-0.9753 -0.2209 0.2209 -0.9753 2024.901 750.7975)" fill="#F58317" width="17.633" height="8.298"/>
			
				<rect x="1000.619" y="174.548" transform="matrix(0.9753 0.2208 -0.2208 0.9753 65.2868 -217.331)" fill="#F58317" width="8.298" height="17.63"/>
			
				<rect x="966.823" y="307.697" transform="matrix(0.2209 -0.9753 0.9753 0.2209 455.9791 1194.4974)" fill="#F58317" width="17.633" height="8.298"/>
		</g>
	</g>
	<g>
		<defs>
			<rect id="SVGID_17_" y="300.548" width="1280" height="898.903"/>
		</defs>
		<clipPath id="SVGID_18_">
			<use xlink:href="#SVGID_17_"  overflow="visible"/>
		</clipPath>
		<g clip-path="url(#SVGID_18_)">
			<path fill="#F58317" d="M1253.133,612.943l16.887-23.885l-6.774-4.788l-16.887,23.885c-7.794-4.516-16.951-6.758-26.432-6.001
				l-4.946-28.815l-8.178,1.404l4.946,28.815c-9.191,2.447-17.075,7.615-22.918,14.472l-23.885-16.887l-4.788,6.774l23.885,16.887
				c-4.516,7.794-6.758,16.951-6.001,26.432l-28.815,4.946l1.404,8.178l28.815-4.946c2.447,9.191,7.615,17.075,14.472,22.918
				l-16.887,23.885l6.774,4.788l16.887-23.885c7.794,4.517,16.951,6.758,26.432,6.001l4.946,28.815l8.178-1.404l-4.946-28.815
				c9.191-2.447,17.075-7.615,22.918-14.472l23.885,16.887l4.788-6.774l-23.885-16.887c4.516-7.794,6.758-16.951,6.001-26.432
				l28.815-4.946l-1.404-8.178l-28.815,4.946C1265.158,626.67,1259.99,618.786,1253.133,612.943z M1229.14,680.345
				c-18.036,3.096-35.229-9.059-38.325-27.095c-3.096-18.036,9.059-35.229,27.095-38.325c18.036-3.096,35.229,9.059,38.325,27.095
				C1259.331,660.058,1247.176,677.251,1229.14,680.345z"/>
			
				<rect x="1179.538" y="587.799" transform="matrix(0.5335 0.8458 -0.8458 0.5335 1055.0365 -728.9662)" fill="#F58317" width="17.633" height="8.298"/>
			
				<rect x="1254.462" y="694.528" transform="matrix(0.8459 -0.5334 0.5334 0.8459 -181.1666 779.726)" fill="#F58317" width="8.298" height="17.631"/>
			
				<rect x="1159.021" y="678.662" transform="matrix(0.8458 -0.5335 0.5335 0.8458 -184.1994 728.3306)" fill="#F58317" width="17.633" height="8.298"/>
			
				<rect x="1270.396" y="608.314" transform="matrix(-0.8458 0.5335 -0.5335 -0.8458 2687.9194 448.0233)" fill="#F58317" width="17.633" height="8.298"/>
			
				<rect x="1150.485" y="628.919" transform="matrix(0.9753 0.2209 -0.2209 0.9753 168.4828 -240.4499)" fill="#F58317" width="17.633" height="8.298"/>
			
				<rect x="1278.932" y="658.053" transform="matrix(-0.9753 -0.2209 0.2209 -0.9753 2397.4053 1592.5076)" fill="#F58317" width="17.633" height="8.298"/>
			
				<rect x="1233.955" y="574.578" transform="matrix(0.9753 0.2208 -0.2208 0.9753 159.3743 -258.9791)" fill="#F58317" width="8.298" height="17.63"/>
			
				<rect x="1200.144" y="707.711" transform="matrix(0.2209 -0.9753 0.9753 0.2209 247.627 1733.7052)" fill="#F58317" width="17.633" height="8.298"/>
		</g>
	</g>
	<g>
		<defs>
			<rect id="SVGID_19_" y="300.548" width="1280" height="898.903"/>
		</defs>
		<clipPath id="SVGID_20_">
			<use xlink:href="#SVGID_19_"  overflow="visible"/>
		</clipPath>
		<g clip-path="url(#SVGID_20_)">
			<path fill="#F58317" d="M291.698,1169.916l16.887-23.885l-6.774-4.788l-16.887,23.885c-7.794-4.516-16.951-6.758-26.432-6.001
				l-4.946-28.815l-8.178,1.404l4.946,28.815c-9.191,2.447-17.075,7.615-22.918,14.472l-23.885-16.887l-4.788,6.774l23.885,16.887
				c-4.516,7.794-6.758,16.951-6.001,26.432l-28.815,4.946l1.404,8.178l28.815-4.946c2.447,9.191,7.615,17.075,14.472,22.918
				l-16.887,23.885l6.774,4.788l16.887-23.885c7.794,4.516,16.951,6.758,26.432,6.001l4.946,28.815l8.178-1.404l-4.946-28.815
				c9.191-2.447,17.075-7.615,22.918-14.472l23.885,16.887l4.788-6.774l-23.885-16.887c4.516-7.795,6.758-16.951,6.001-26.432
				l28.815-4.946l-1.404-8.178l-28.815,4.946C303.721,1183.643,298.556,1175.758,291.698,1169.916z M267.705,1237.319
				c-18.036,3.096-35.229-9.059-38.325-27.095s9.059-35.229,27.095-38.325c18.036-3.096,35.229,9.059,38.325,27.095
				C297.896,1217.03,285.741,1234.223,267.705,1237.319z"/>
			
				<rect x="218.12" y="1144.735" transform="matrix(0.5335 0.8458 -0.8458 0.5335 1077.5922 344.0119)" fill="#F58317" width="17.632" height="8.298"/>
			
				<rect x="293.052" y="1251.476" transform="matrix(0.8459 -0.5334 0.5334 0.8459 -626.4122 352.766)" fill="#F58317" width="8.298" height="17.631"/>
			
				<rect x="197.55" y="1235.618" transform="matrix(0.8458 -0.5335 0.5335 0.8458 -629.594 301.2681)" fill="#F58317" width="17.632" height="8.298"/>
			
				<rect x="308.997" y="1165.304" transform="matrix(-0.8458 0.5335 -0.5335 -0.8458 1210.5226 1989.0236)" fill="#F58317" width="17.632" height="8.298"/>
			
				<rect x="189.061" y="1185.911" transform="matrix(0.9753 0.2209 -0.2209 0.9753 267.7715 -14.3123)" fill="#F58317" width="17.633" height="8.298"/>
			
				<rect x="317.487" y="1215.006" transform="matrix(-0.9753 -0.2209 0.2209 -0.9753 375.2346 2480.2732)" fill="#F58317" width="17.633" height="8.298"/>
			
				<rect x="272.504" y="1131.574" transform="matrix(0.9753 0.2208 -0.2208 0.9753 258.6308 -32.9391)" fill="#F58317" width="8.298" height="17.63"/>
			
				<rect x="238.729" y="1264.674" transform="matrix(0.2209 -0.9753 0.9753 0.2209 -1044.616 1229.9711)" fill="#F58317" width="17.633" height="8.298"/>
		</g>
	</g>
	<g>
		<defs>
			<rect id="SVGID_21_" y="300.548" width="1280" height="898.903"/>
		</defs>
		<clipPath id="SVGID_22_">
			<use xlink:href="#SVGID_21_"  overflow="visible"/>
		</clipPath>
		<g clip-path="url(#SVGID_22_)">
			<path fill="#F58317" d="M311.861,725.923l16.887-23.885l-6.774-4.788l-16.887,23.885c-7.794-4.516-16.951-6.758-26.432-6.001
				l-4.946-28.815l-8.178,1.404l4.946,28.815c-9.191,2.447-17.075,7.615-22.918,14.472l-23.885-16.887l-4.788,6.774l23.885,16.887
				c-4.516,7.794-6.758,16.951-6.001,26.432l-28.815,4.946l1.404,8.178l28.815-4.946c2.447,9.191,7.615,17.075,14.472,22.918
				l-16.887,23.885l6.774,4.788l16.887-23.885c7.794,4.517,16.951,6.758,26.432,6.001l4.946,28.815l8.178-1.404l-4.946-28.815
				c9.191-2.447,17.075-7.615,22.918-14.472l23.885,16.887l4.788-6.774l-23.885-16.887c4.517-7.794,6.758-16.951,6.001-26.432
				l28.815-4.946l-1.404-8.178l-28.815,4.946C323.887,739.651,318.719,731.764,311.861,725.923z M287.869,793.325
				c-18.036,3.096-35.229-9.059-38.325-27.095c-3.096-18.036,9.059-35.229,27.095-38.325c18.036-3.096,35.229,9.059,38.325,27.095
				C318.06,773.036,305.905,790.229,287.869,793.325z"/>
			
				<rect x="238.291" y="700.757" transform="matrix(0.5335 0.8458 -0.8458 0.5335 711.4852 119.8353)" fill="#F58317" width="17.632" height="8.298"/>
			
				<rect x="313.219" y="807.497" transform="matrix(0.8459 -0.5334 0.5334 0.8459 -386.4929 295.0945)" fill="#F58317" width="8.298" height="17.631"/>
			
				<rect x="217.727" y="791.615" transform="matrix(0.8458 -0.5335 0.5335 0.8458 -389.6073 243.5676)" fill="#F58317" width="17.632" height="8.298"/>
			
				<rect x="329.147" y="721.32" transform="matrix(-0.8458 0.5335 -0.5335 -0.8458 1010.85 1158.7671)" fill="#F58317" width="17.632" height="8.298"/>
			
				<rect x="209.215" y="741.918" transform="matrix(0.9753 0.2209 -0.2209 0.9753 170.1917 -29.7327)" fill="#F58317" width="17.633" height="8.298"/>
			
				<rect x="337.659" y="771.013" transform="matrix(-0.9753 -0.2209 0.2209 -0.9753 513.1597 1607.7112)" fill="#F58317" width="17.633" height="8.298"/>
			
				<rect x="292.664" y="687.57" transform="matrix(0.9753 0.2208 -0.2208 0.9753 161.0905 -48.3494)" fill="#F58317" width="8.298" height="17.63"/>
			
				<rect x="258.891" y="820.689" transform="matrix(0.2209 -0.9753 0.9753 0.2209 -595.8911 903.7262)" fill="#F58317" width="17.633" height="8.298"/>
		</g>
	</g>
	<g>
		<defs>
			<rect id="SVGID_23_" y="300.548" width="1280" height="898.903"/>
		</defs>
		<clipPath id="SVGID_24_">
			<use xlink:href="#SVGID_23_"  overflow="visible"/>
		</clipPath>
		<g clip-path="url(#SVGID_24_)">
			<path fill="#F58317" d="M520.007,362.838c-8.957,1.538-16.935,5.385-23.449,10.813c-7.952-2.944-16.756-3.911-25.713-2.373
				c-27.153,4.66-45.385,30.449-40.724,57.602c2.331,13.575,9.942,24.922,20.367,32.291l69.529,49.158l49.158-69.531
				c7.369-10.423,10.763-23.659,8.434-37.235C572.949,376.41,547.16,358.176,520.007,362.838z M558.994,433.596l-41.959,59.348
				l-59.348-41.959c-8.16-5.769-13.583-14.37-15.275-24.218c-3.49-20.331,10.212-39.712,30.543-43.201
				c6.468-1.111,13.132-0.495,19.272,1.778l6.768,2.505l5.545-4.62c5.03-4.191,11.108-6.993,17.577-8.104
				c20.331-3.49,39.712,10.212,43.201,30.543C567.008,415.52,564.763,425.436,558.994,433.596z"/>
			<path fill="#F58317" d="M523.523,383.321c-5.102,0.875-9.7,2.994-13.661,6.296l-9.243,7.701l-11.28-4.177
				c-4.838-1.794-9.878-2.257-14.98-1.382c-15.813,2.715-26.47,17.788-23.755,33.601c1.314,7.659,5.533,14.349,11.878,18.837
				l52.562,37.161l37.161-52.56c4.487-6.348,6.232-14.061,4.918-21.721C554.409,391.266,539.336,380.607,523.523,383.321z
				 M545.418,424l-32.361,45.77l-45.774-32.361h0.002c-4.532-3.204-7.547-7.984-8.486-13.456
				c-1.94-11.296,5.673-22.061,16.967-24.001c3.644-0.625,7.237-0.294,10.685,0.983l15.793,5.847l12.94-10.777
				c2.823-2.353,6.103-3.865,9.744-4.491c11.296-1.94,22.061,5.673,24.001,16.967C549.869,413.954,548.62,419.465,545.418,424z"/>
		</g>
	</g>
	<g>
		<defs>
			<rect id="SVGID_25_" y="300.548" width="1280" height="898.903"/>
		</defs>
		<clipPath id="SVGID_26_">
			<use xlink:href="#SVGID_25_"  overflow="visible"/>
		</clipPath>
		<g clip-path="url(#SVGID_26_)">
			<path fill="#F58317" d="M1340.069,402.184c-8.957,1.538-16.935,5.385-23.449,10.813c-7.952-2.944-16.756-3.911-25.713-2.373
				c-27.153,4.66-45.385,30.449-40.724,57.602c2.331,13.575,9.942,24.922,20.367,32.291l69.529,49.158l49.158-69.529
				c7.369-10.423,10.763-23.659,8.432-37.235C1393.01,415.756,1367.222,397.524,1340.069,402.184z M1379.055,472.944l-41.959,59.348
				l-59.348-41.959c-8.16-5.769-13.583-14.37-15.275-24.218c-3.49-20.331,10.212-39.712,30.543-43.201
				c6.468-1.111,13.132-0.495,19.272,1.778l6.768,2.505l5.545-4.62c5.03-4.191,11.108-6.993,17.577-8.104
				c20.331-3.49,39.712,10.212,43.201,30.543C1387.071,454.866,1384.826,464.784,1379.055,472.944z"/>
			<path fill="#F58317" d="M1343.586,422.669c-5.102,0.875-9.7,2.994-13.661,6.296l-9.243,7.701l-11.278-4.177
				c-4.838-1.794-9.878-2.257-14.98-1.382c-15.813,2.715-26.47,17.788-23.755,33.601c1.314,7.659,5.533,14.348,11.877,18.837
				l52.562,37.161l37.161-52.56c4.487-6.348,6.232-14.061,4.918-21.721C1374.473,430.612,1359.397,419.955,1343.586,422.669z
				 M1365.48,463.348l-32.36,45.77l-45.774-32.361h0.002c-4.532-3.204-7.547-7.984-8.486-13.456
				c-1.94-11.296,5.673-22.061,16.969-24.001c3.643-0.625,7.237-0.294,10.685,0.983l15.793,5.847l12.94-10.777
				c2.823-2.353,6.103-3.865,9.744-4.491c11.296-1.94,22.061,5.673,24.001,16.967
				C1369.932,453.302,1368.682,458.813,1365.48,463.348z"/>
		</g>
	</g>
	<g>
		<defs>
			<rect id="SVGID_27_" y="300.548" width="1280" height="898.903"/>
		</defs>
		<clipPath id="SVGID_28_">
			<use xlink:href="#SVGID_27_"  overflow="visible"/>
		</clipPath>
		<g clip-path="url(#SVGID_28_)">
			<path fill="#F58317" d="M100.719,1031.367c-8.957,1.538-16.935,5.385-23.449,10.813c-7.952-2.944-16.756-3.911-25.713-2.373
				c-27.153,4.66-45.385,30.449-40.724,57.602c2.331,13.575,9.942,24.922,20.367,32.291l69.529,49.158l49.158-69.529
				c7.369-10.423,10.763-23.659,8.434-37.234C153.66,1044.938,127.872,1026.706,100.719,1031.367z M139.706,1102.126l-41.959,59.348
				l-59.348-41.959c-8.16-5.769-13.583-14.37-15.275-24.219c-3.49-20.331,10.212-39.712,30.543-43.201
				c6.468-1.111,13.132-0.495,19.272,1.778l6.768,2.505l5.545-4.62c5.03-4.191,11.108-6.994,17.577-8.104
				c20.331-3.49,39.712,10.212,43.201,30.543C147.72,1084.048,145.474,1093.966,139.706,1102.126z"/>
			<path fill="#F58317" d="M104.235,1051.85c-5.102,0.875-9.7,2.994-13.661,6.296l-9.243,7.701l-11.28-4.177
				c-4.838-1.794-9.878-2.257-14.98-1.382c-15.813,2.715-26.47,17.788-23.755,33.601c1.314,7.659,5.533,14.349,11.878,18.837
				l52.562,37.161l37.161-52.56c4.487-6.348,6.232-14.061,4.918-21.721C135.121,1059.794,120.048,1049.137,104.235,1051.85z
				 M126.13,1092.528l-32.361,45.77l-45.774-32.36h0.002c-4.532-3.204-7.547-7.984-8.486-13.456
				c-1.94-11.296,5.673-22.061,16.967-24.001c3.644-0.625,7.237-0.294,10.685,0.983l15.793,5.847l12.94-10.777
				c2.823-2.353,6.103-3.865,9.744-4.49c11.296-1.94,22.061,5.673,24.001,16.967C130.581,1082.482,129.332,1087.994,126.13,1092.528
				z"/>
		</g>
	</g>
	<g>
		<defs>
			<rect id="SVGID_29_" y="300.548" width="1280" height="898.903"/>
		</defs>
		<clipPath id="SVGID_30_">
			<use xlink:href="#SVGID_29_"  overflow="visible"/>
		</clipPath>
		<g clip-path="url(#SVGID_30_)">
			<path fill="#F58317" d="M855.919,810.624c-8.957,1.538-16.935,5.385-23.449,10.813c-7.952-2.944-16.756-3.911-25.713-2.373
				c-27.153,4.66-45.385,30.449-40.724,57.602c2.331,13.575,9.942,24.922,20.367,32.291l69.531,49.158l49.158-69.529
				c7.369-10.423,10.763-23.659,8.432-37.235C908.859,824.195,883.072,805.964,855.919,810.624z M894.906,881.384l-41.959,59.348
				L793.6,898.772c-8.16-5.769-13.583-14.37-15.275-24.218c-3.49-20.331,10.212-39.712,30.543-43.201
				c6.468-1.111,13.132-0.495,19.273,1.778l6.768,2.505l5.545-4.62c5.03-4.191,11.108-6.993,17.577-8.104
				c20.331-3.49,39.712,10.212,43.201,30.543C902.92,863.306,900.675,873.224,894.906,881.384z"/>
			<path fill="#F58317" d="M859.435,831.107c-5.102,0.875-9.7,2.994-13.661,6.296l-9.243,7.701l-11.28-4.177
				c-4.838-1.794-9.878-2.257-14.98-1.382c-15.813,2.715-26.47,17.788-23.755,33.601c1.314,7.659,5.533,14.349,11.878,18.837
				l52.562,37.161l37.161-52.56c4.487-6.348,6.232-14.061,4.918-21.721C890.322,839.051,875.248,828.394,859.435,831.107z
				 M881.328,871.785l-32.361,45.77l-45.774-32.361h0.002c-4.533-3.204-7.547-7.984-8.486-13.456
				c-1.94-11.296,5.673-22.061,16.967-24.001c3.644-0.625,7.237-0.294,10.685,0.983l15.793,5.847l12.94-10.777
				c2.823-2.353,6.103-3.865,9.744-4.49c11.296-1.94,22.061,5.673,24.001,16.967C885.781,861.74,884.533,867.251,881.328,871.785z"
				/>
		</g>
	</g>
	<g>
		<defs>
			<rect id="SVGID_31_" y="300.548" width="1280" height="898.903"/>
		</defs>
		<clipPath id="SVGID_32_">
			<use xlink:href="#SVGID_31_"  overflow="visible"/>
		</clipPath>
		<path clip-path="url(#SVGID_32_)" fill="#F58317" d="M286.608,495.966c0.102-1.366-0.286-2.651-1.302-3.658
			c-1.017-1.007-2.247-1.3-3.56-1.077c-18.517,3.178-31.006,20.843-27.828,39.36c1.998,11.636,12.207,20.006,23.687,20.06
			l0.731,4.261c-3.334,0.236-6.616-0.214-9.954-0.991c-0.797-0.707-1.864-1.029-3.01-0.833c-2.295,0.393-3.787,2.505-3.394,4.8
			l0.056,0.328l14.009,81.61c0.394,2.295,2.505,3.787,4.8,3.394l32.774-5.625c2.295-0.394,3.787-2.505,3.394-4.8l-14.009-81.61
			l-0.056-0.328c-0.394-2.295-2.505-3.787-4.8-3.394c-1.147,0.198-2.046,0.857-2.589,1.626c-2.725,1.818-5.833,3.364-9.055,4.253
			l-0.731-4.261c10.807-3.879,17.668-15.01,15.643-26.809c-0.929-5.407-4.095-10.094-8.809-12.996
			c-4.524-2.767-6.9-7.757-6.21-12.599L286.608,495.966z M295.823,558.492l12.293,71.613l-24.582,4.219l-12.293-71.613
			c4.159,0.635,8.368,0.587,12.629-0.144C288.13,561.838,292.116,560.479,295.823,558.492z M293.25,523.844
			c1.238,7.211-2.639,14.117-8.883,17.045l-1.322-7.703c-0.394-2.295-2.505-3.787-4.8-3.394c-2.295,0.393-3.787,2.505-3.394,4.8
			l1.322,7.703c-6.864-0.677-12.822-5.897-14.059-13.108c-2.109-12.291,4.832-23.941,16.044-28.397
			c0.741,6.284,4.433,12.061,10.108,15.641C290.925,518.169,292.715,520.73,293.25,523.844z"/>
	</g>
	<g>
		<defs>
			<rect id="SVGID_33_" y="300.548" width="1280" height="898.903"/>
		</defs>
		<clipPath id="SVGID_34_">
			<use xlink:href="#SVGID_33_"  overflow="visible"/>
		</clipPath>
		<path clip-path="url(#SVGID_34_)" fill="#F58317" d="M838.059,569.297c0.102-1.366-0.286-2.651-1.302-3.658
			c-1.017-1.007-2.247-1.3-3.56-1.077c-18.517,3.178-31.006,20.843-27.828,39.36c1.998,11.636,12.207,20.006,23.687,20.06
			l0.731,4.261c-3.334,0.236-6.616-0.214-9.954-0.991c-0.797-0.707-1.864-1.029-3.01-0.833c-2.295,0.393-3.787,2.505-3.394,4.8
			l0.056,0.328l14.009,81.61c0.393,2.295,2.505,3.787,4.8,3.394l32.774-5.625c2.295-0.393,3.787-2.505,3.394-4.8l-14.009-81.61
			l-0.056-0.328c-0.393-2.295-2.505-3.787-4.8-3.394c-1.147,0.198-2.045,0.857-2.589,1.626c-2.725,1.818-5.833,3.364-9.055,4.253
			l-0.731-4.261c10.807-3.879,17.668-15.01,15.643-26.809c-0.929-5.407-4.095-10.094-8.809-12.996
			c-4.525-2.767-6.9-7.757-6.212-12.599L838.059,569.297z M847.274,631.822l12.293,71.613l-24.582,4.219l-12.293-71.613
			c4.159,0.635,8.368,0.587,12.629-0.144C839.581,635.166,843.565,633.808,847.274,631.822z M844.701,597.174
			c1.238,7.211-2.639,14.117-8.883,17.045l-1.322-7.703c-0.393-2.295-2.505-3.787-4.8-3.394c-2.295,0.394-3.787,2.505-3.394,4.8
			l1.322,7.703c-6.864-0.677-12.822-5.897-14.059-13.108c-2.109-12.291,4.832-23.941,16.044-28.397
			c0.741,6.284,4.433,12.061,10.108,15.641C842.376,591.499,844.166,594.06,844.701,597.174z"/>
	</g>
	<g>
		<defs>
			<rect id="SVGID_35_" y="300.548" width="1280" height="898.903"/>
		</defs>
		<clipPath id="SVGID_36_">
			<use xlink:href="#SVGID_35_"  overflow="visible"/>
		</clipPath>
		<path clip-path="url(#SVGID_36_)" fill="#F58317" d="M1249.735,824.118c0.102-1.366-0.286-2.651-1.302-3.658
			c-1.017-1.007-2.247-1.3-3.56-1.077c-18.517,3.178-31.006,20.843-27.828,39.36c1.998,11.636,12.207,20.006,23.687,20.06
			l0.731,4.261c-3.334,0.236-6.616-0.214-9.954-0.991c-0.797-0.707-1.864-1.029-3.01-0.833c-2.293,0.393-3.787,2.505-3.394,4.8
			l0.056,0.328l14.009,81.61c0.394,2.295,2.505,3.787,4.8,3.394l32.774-5.625c2.295-0.393,3.787-2.505,3.394-4.8l-14.009-81.61
			l-0.056-0.328c-0.394-2.293-2.505-3.787-4.8-3.394c-1.147,0.198-2.046,0.857-2.589,1.626c-2.725,1.818-5.833,3.364-9.055,4.253
			l-0.731-4.261c10.807-3.879,17.668-15.01,15.643-26.809c-0.929-5.407-4.095-10.094-8.809-12.996
			c-4.524-2.767-6.9-7.757-6.21-12.599L1249.735,824.118z M1258.95,886.643l12.293,71.613l-24.582,4.219l-12.293-71.613
			c4.159,0.635,8.368,0.587,12.629-0.144C1251.257,889.989,1255.242,888.631,1258.95,886.643z M1256.377,851.996
			c1.239,7.211-2.637,14.117-8.883,17.045l-1.322-7.703c-0.394-2.295-2.505-3.787-4.8-3.394c-2.293,0.393-3.787,2.505-3.394,4.8
			l1.322,7.703c-6.864-0.677-12.822-5.897-14.059-13.108c-2.109-12.291,4.832-23.941,16.044-28.397
			c0.741,6.284,4.432,12.061,10.108,15.641C1254.054,846.32,1255.841,848.881,1256.377,851.996z"/>
	</g>
	<g>
		<defs>
			<rect id="SVGID_37_" y="300.548" width="1280" height="898.903"/>
		</defs>
		<clipPath id="SVGID_38_">
			<use xlink:href="#SVGID_37_"  overflow="visible"/>
		</clipPath>
		<path clip-path="url(#SVGID_38_)" fill="#F58317" d="M471.469,784.196c0.102-1.366-0.286-2.651-1.302-3.658
			c-1.017-1.007-2.247-1.3-3.56-1.077c-18.517,3.178-31.006,20.843-27.828,39.36c1.998,11.636,12.207,20.006,23.687,20.06
			l0.731,4.261c-3.334,0.236-6.616-0.214-9.954-0.991c-0.797-0.707-1.864-1.031-3.01-0.833c-2.295,0.393-3.787,2.505-3.394,4.8
			l0.056,0.328l14.009,81.61c0.394,2.295,2.505,3.787,4.8,3.394l32.774-5.625c2.295-0.393,3.787-2.505,3.394-4.8l-14.009-81.61
			l-0.056-0.328c-0.394-2.295-2.505-3.787-4.8-3.394c-1.147,0.198-2.046,0.857-2.589,1.626c-2.725,1.818-5.833,3.364-9.055,4.253
			l-0.731-4.261c10.807-3.879,17.668-15.01,15.643-26.809c-0.929-5.407-4.095-10.094-8.809-12.996
			c-4.524-2.767-6.9-7.757-6.21-12.599L471.469,784.196z M480.681,846.722l12.293,71.613l-24.582,4.219l-12.293-71.613
			c4.159,0.635,8.368,0.587,12.629-0.144C472.989,850.066,476.974,848.708,480.681,846.722z M478.109,812.072
			c1.238,7.211-2.639,14.117-8.883,17.045l-1.322-7.703c-0.394-2.295-2.505-3.787-4.8-3.394c-2.295,0.393-3.787,2.505-3.394,4.8
			l1.322,7.703c-6.864-0.677-12.822-5.897-14.059-13.108c-2.109-12.291,4.832-23.941,16.044-28.397
			c0.741,6.284,4.433,12.061,10.108,15.641C475.785,806.399,477.575,808.96,478.109,812.072z"/>
	</g>
	<g>
		<defs>
			<rect id="SVGID_39_" y="300.548" width="1280" height="898.903"/>
		</defs>
		<clipPath id="SVGID_40_">
			<use xlink:href="#SVGID_39_"  overflow="visible"/>
		</clipPath>
		<g clip-path="url(#SVGID_40_)">
			<path fill="#F58317" d="M703.04,227.536c-6.282,1.079-11.893,3.55-16.416,7.345c-8.615-4.988-18.412-8.048-28.649-8.663
				c0.687-2.273,0.921-4.684,0.489-7.197c-1.474-8.586-9.816-14.482-18.4-13.008c-8.586,1.474-14.482,9.816-13.008,18.4
				c0.431,2.513,1.454,4.708,2.86,6.622c-15.477,6.536-27.606,18.751-34.066,33.871l-19.626-13.877
				c-1.227-0.867-2.591-1.28-4.057-1.029l-15.705,2.695c-1.884,0.324-3.38,1.658-4.175,3.304c-0.549,1.82-0.435,3.739,0.899,5.236
				l41.144,50.063c3.717,10.355,10.05,19.616,18.398,26.805c1.262,1.077,2.837,1.454,4.303,1.203l88.784-15.239
				c1.466-0.252,3.032-1.167,3.656-2.567c3.845-6.48,6.29-13.583,7.619-20.924c19.504-4.425,32.267-23,28.889-42.682
				C742.524,237.789,723.141,224.086,703.04,227.536z M590.699,290.147l-23.435-28.527l4.606-0.791l20.609,14.57
				C591.35,280.119,590.675,284.979,590.699,290.147z M641.863,216.481c2.932-0.503,5.631,1.404,6.133,4.337
				c0.503,2.932-1.404,5.631-4.337,6.133c-2.932,0.501-5.631-1.404-6.133-4.337C637.023,219.683,638.93,216.984,641.863,216.481z
				 M701.712,313.99l-83.758,14.376c-8.246-7.854-13.921-18.306-15.861-29.612c-4.96-28.897,14.466-56.375,43.363-61.335
				c28.897-4.96,56.375,14.466,61.335,43.363C708.731,292.091,706.867,303.836,701.712,313.99z M718.148,289.182
				c0.054-3.458-0.312-6.844-0.887-10.196c-2.623-15.285-10.475-28.381-21.35-37.724c2.753-1.55,5.785-2.717,8.925-3.256
				c14.448-2.481,28.188,7.233,30.667,21.682C737.734,272.671,730.143,284.967,718.148,289.182z"/>
		</g>
	</g>
	<g>
		<defs>
			<rect id="SVGID_41_" y="300.548" width="1280" height="898.903"/>
		</defs>
		<clipPath id="SVGID_42_">
			<use xlink:href="#SVGID_41_"  overflow="visible"/>
		</clipPath>
		<g clip-path="url(#SVGID_42_)">
			<path fill="#F58317" d="M1256.626,1012.781c-6.282,1.079-11.893,3.55-16.416,7.345c-8.618-4.988-18.411-8.048-28.649-8.663
				c0.687-2.273,0.921-4.684,0.489-7.197c-1.474-8.586-9.816-14.482-18.4-13.008c-8.585,1.474-14.482,9.816-13.008,18.4
				c0.432,2.513,1.454,4.708,2.86,6.622c-15.477,6.536-27.606,18.751-34.066,33.871l-19.628-13.877
				c-1.226-0.867-2.591-1.281-4.057-1.029l-15.705,2.695c-1.884,0.324-3.38,1.658-4.175,3.304c-0.549,1.82-0.436,3.74,0.899,5.236
				l41.144,50.063c3.718,10.355,10.05,19.616,18.398,26.805c1.263,1.077,2.837,1.454,4.303,1.203l88.784-15.239
				c1.466-0.252,3.032-1.167,3.656-2.567c3.845-6.48,6.29-13.583,7.619-20.925c19.504-4.425,32.267-23,28.889-42.682
				C1296.11,1023.035,1276.728,1009.332,1256.626,1012.781z M1144.286,1075.393l-23.435-28.527l4.606-0.791l20.609,14.57
				C1144.937,1065.367,1144.262,1070.225,1144.286,1075.393z M1195.449,1001.727c2.932-0.503,5.631,1.404,6.133,4.337
				c0.503,2.932-1.404,5.631-4.337,6.133c-2.932,0.503-5.631-1.404-6.133-4.337
				C1190.609,1004.929,1192.517,1002.23,1195.449,1001.727z M1255.298,1099.236l-83.758,14.376
				c-8.246-7.854-13.921-18.306-15.861-29.612c-4.96-28.897,14.466-56.375,43.363-61.335c28.897-4.96,56.375,14.466,61.335,43.363
				C1262.318,1077.337,1260.454,1089.082,1255.298,1099.236z M1271.734,1074.428c0.054-3.458-0.312-6.844-0.887-10.196
				c-2.623-15.285-10.477-28.381-21.35-37.724c2.753-1.55,5.785-2.717,8.925-3.256c14.448-2.481,28.188,7.233,30.667,21.682
				C1291.32,1057.916,1283.729,1070.213,1271.734,1074.428z"/>
		</g>
	</g>
	<g>
		<defs>
			<rect id="SVGID_43_" y="300.548" width="1280" height="898.903"/>
		</defs>
		<clipPath id="SVGID_44_">
			<use xlink:href="#SVGID_43_"  overflow="visible"/>
		</clipPath>
		<g clip-path="url(#SVGID_44_)">
			<path fill="#F58317" d="M711.53,716.335c-6.282,1.079-11.894,3.55-16.416,7.345c-8.617-4.988-18.412-8.048-28.649-8.663
				c0.687-2.273,0.921-4.684,0.489-7.197c-1.474-8.586-9.816-14.482-18.4-13.008c-8.586,1.474-14.482,9.816-13.008,18.4
				c0.431,2.513,1.454,4.708,2.861,6.622c-15.477,6.536-27.606,18.751-34.066,33.871l-19.626-13.877
				c-1.227-0.867-2.591-1.28-4.057-1.029l-15.705,2.695c-1.884,0.324-3.38,1.658-4.175,3.304c-0.549,1.82-0.435,3.739,0.899,5.236
				l41.144,50.063c3.717,10.355,10.05,19.616,18.398,26.805c1.262,1.077,2.837,1.454,4.303,1.203l88.784-15.239
				c1.466-0.252,3.032-1.167,3.656-2.567c3.845-6.48,6.29-13.583,7.619-20.924c19.504-4.425,32.267-23,28.889-42.682
				C751.013,726.587,731.631,712.885,711.53,716.335z M599.189,778.947l-23.435-28.527l4.606-0.791l20.609,14.57
				C599.838,768.919,599.163,773.777,599.189,778.947z M650.35,705.279c2.932-0.503,5.631,1.404,6.133,4.337
				c0.503,2.932-1.404,5.631-4.337,6.133c-2.932,0.503-5.631-1.404-6.133-4.337C645.512,708.481,647.42,705.782,650.35,705.279z
				 M710.201,802.79l-83.758,14.376c-8.246-7.854-13.921-18.306-15.861-29.612c-4.96-28.897,14.466-56.375,43.363-61.335
				s56.375,14.466,61.335,43.363C717.221,780.89,715.357,792.634,710.201,802.79z M726.637,777.98
				c0.054-3.458-0.312-6.844-0.887-10.196c-2.623-15.285-10.475-28.381-21.35-37.724c2.753-1.55,5.785-2.717,8.925-3.256
				c14.448-2.481,28.188,7.233,30.667,21.682C746.221,761.468,738.633,773.765,726.637,777.98z"/>
		</g>
	</g>
	<g>
		<defs>
			<rect id="SVGID_45_" y="300.548" width="1280" height="898.903"/>
		</defs>
		<clipPath id="SVGID_46_">
			<use xlink:href="#SVGID_45_"  overflow="visible"/>
		</clipPath>
		<g clip-path="url(#SVGID_46_)">
			<path fill="#F58317" d="M109.494,587.672c-6.282,1.079-11.893,3.55-16.416,7.345c-8.617-4.988-18.412-8.048-28.649-8.663
				c0.687-2.273,0.921-4.684,0.489-7.197c-1.474-8.586-9.816-14.482-18.4-13.008c-8.586,1.474-14.482,9.816-13.008,18.4
				c0.431,2.513,1.454,4.708,2.861,6.622c-15.477,6.536-27.606,18.751-34.066,33.871l-19.626-13.877
				c-1.227-0.867-2.591-1.28-4.057-1.029l-15.705,2.695c-1.884,0.324-3.38,1.658-4.175,3.304c-0.549,1.82-0.435,3.739,0.899,5.236
				l41.144,50.063c3.717,10.355,10.05,19.616,18.398,26.805c1.262,1.077,2.837,1.454,4.303,1.203l88.784-15.239
				c1.466-0.252,3.032-1.167,3.656-2.567c3.845-6.48,6.29-13.583,7.619-20.924c19.504-4.425,32.267-23,28.889-42.682
				C148.978,597.924,129.596,584.22,109.494,587.672z M-2.847,650.284l-23.435-28.527l4.606-0.791l20.609,14.57
				C-2.195,640.256-2.87,645.114-2.847,650.284z M48.317,576.616c2.932-0.503,5.631,1.404,6.133,4.337
				c0.503,2.932-1.404,5.631-4.337,6.133c-2.932,0.503-5.631-1.404-6.133-4.337C43.477,579.818,45.385,577.119,48.317,576.616z
				 M108.166,674.125l-83.758,14.376c-8.246-7.854-13.921-18.306-15.861-29.612c-4.96-28.897,14.466-56.375,43.363-61.335
				c28.897-4.96,56.375,14.466,61.335,43.363C115.185,652.225,113.322,663.971,108.166,674.125z M124.602,649.317
				c0.054-3.458-0.312-6.844-0.887-10.196c-2.623-15.285-10.475-28.381-21.35-37.724c2.753-1.55,5.785-2.717,8.925-3.256
				c14.448-2.481,28.188,7.233,30.667,21.682C144.186,632.805,136.597,645.102,124.602,649.317z"/>
		</g>
	</g>
	<g>
		<defs>
			<rect id="SVGID_47_" y="300.548" width="1280" height="898.903"/>
		</defs>
		<clipPath id="SVGID_48_">
			<use xlink:href="#SVGID_47_"  overflow="visible"/>
		</clipPath>
		<g clip-path="url(#SVGID_48_)">
			<path fill="#F58317" d="M894.259,344.727c-19.89-0.939-30.161,13.591-33.921,23.811c-2.633-0.128-5.266-0.256-7.85-0.104l0,0l0,0
				c-15.937,0.124-27.578,3.284-33.869,5.523c-1.854-4.033-5.551-10.363-13.589-20.008c-17.97-21.867-56.417-0.761-58.011,0.092
				c-1.079,0.475-1.732,1.748-2.101,2.972c-0.37,1.225,0.154,2.585,0.863,3.334l4.542,6.182
				c-5.056,4.349-13.565,13.933-15.237,27.856c-1.133,8.607,2.661,15.501,9.868,18.615c7.868,3.582,18.529,1.462,23.859-4.676
				c3.132-3.729,9.001-5.026,11.264-3.674c1.982,1.4,0.451,6.015,0.082,7.239c-4.732,12.998-8.344,34.216-9.846,44.05
				c-2.165-0.789-3.488-1.722-3.769-1.674c-2.215-1.071-4.702-0.354-5.773,1.862c-1.071,2.215-0.354,4.702,1.862,5.773
				c0.33,0.234,14.94,7.591,36.489,11.434c0.611,0.186,1.225,0.37,2.117,0.507l0.282-0.048c12.233,1.962,26.574,2.693,41.793,0.08
				c21.136-3.628,43.795-13.609,64.188-35.099c1.73-1.748,1.578-4.333-0.17-6.063c-1.748-1.732-4.333-1.578-6.063,0.17
				c-0.749,0.709-1.498,1.418-2.245,2.125c-2.289-6.57-6.993-17.077-14.139-26.586c-5.631-7.447-8.112-15.146-6.776-20.887
				c0.925-3.06,2.841-5.419,6.031-7.127c1.642-0.571,2.255-0.388,2.867-0.202c3.206,1.772,5.405,9.516,6.178,14.027
				c0.194,1.127,0.669,2.205,1.66,2.906c0.991,0.701,2.215,1.071,3.342,0.877l26.492-4.546c2.255-0.388,3.937-2.417,3.55-4.67
				C927.606,386.875,922.33,346.001,894.259,344.727z M848.487,377.245c-0.587,5.034-2.663,13.222-9.66,14.714
				c-1.974,0.34-3.761,0.066-5.082-0.869c-3.254-2.053-5.252-6.932-6.444-10.499C832.56,379.109,839.557,377.616,848.487,377.245z
				 M748.537,405.137c-3.769-1.674-5.196-4.91-4.608-9.944c0.226-2.069,0.731-4.187,1.286-6.023l17.083,13.316
				C759.118,405.932,752.917,406.995,748.537,405.137z M804.774,465.695c0.376-9.638,3.204-37.107,26.46-40.229
				c24.148-2.984,36.909,20.647,40.664,28.997C848.031,467.555,824.108,468.47,804.774,465.695z M900.397,388.935
				c-1.153-5.024-3.965-12.956-9.714-16.03c-2.263-1.352-5.887-2.181-10.485-0.232c-5.629,2.707-9.508,7.145-10.893,12.605
				c-2.075,8.19,1.123,18.376,8.316,28.166c7.902,10.539,12.333,22.834,14.049,27.762c-4.025,3.592-8.148,6.622-12.367,9.087
				c-5.036-10.741-20.533-36.803-48.958-33.375c-26.122,3.324-33.467,29.826-33.997,47.035c-6.918-1.424-13.038-3.274-17.982-5.038
				c1.183-8.326,5.066-31.334,9.798-44.332c4.129-11.444-1.019-16.072-3.612-17.658c-4.197-2.471-10.212-2.02-15.323,0.31
				l-3.02-2.383l22.445-24.742c1.732-1.748,1.528-4.614-0.17-6.063c-1.748-1.732-4.614-1.528-6.063,0.17l-22.96,25.121
				l-10.429-8.364c4.339-6.838,9.774-10.671,9.774-10.671c1.031-0.757,1.732-1.748,1.82-2.924s-0.106-2.303-0.863-3.334
				l-3.833-5.435c9.71-4.279,32.328-12.802,42.968,0.168c11.348,13.719,12.501,18.743,12.647,19.59
				c-0.37,1.225,0.202,2.867,1.24,3.849c1.368,1.217,3.206,1.772,5.082,0.869c0,0,0.515-0.38,1.642-0.571
				c1.386,4.694,4.287,11.45,9.852,15.138c3.254,2.053,6.878,2.88,11.104,2.155c0.282-0.048,0.563-0.096,0.845-0.146
				c12.868-2.789,15.529-16.012,16.342-23.114c2.022-0.056,4.091,0.168,6.442,0.346c2.07,0.226,4.131-1.288,4.357-3.358
				c0.136-0.893,5.254-21.791,26.038-20.717c16.362,0.673,22.818,23.066,24.696,32.319l-18.883,3.242L900.397,388.935z"/>
			<circle fill="#F58317" cx="759.08" cy="378.665" r="2.573"/>
		</g>
	</g>
	<g>
		<defs>
			<rect id="SVGID_49_" y="300.548" width="1280" height="898.903"/>
		</defs>
		<clipPath id="SVGID_50_">
			<use xlink:href="#SVGID_49_"  overflow="visible"/>
		</clipPath>
		<g clip-path="url(#SVGID_50_)">
			<path fill="#F58317" d="M362.366,919.22c-19.89-0.939-30.161,13.591-33.921,23.811c-2.633-0.128-5.266-0.256-7.85-0.104l0,0l0,0
				c-15.937,0.124-27.578,3.284-33.869,5.523c-1.854-4.033-5.551-10.363-13.589-20.008c-17.97-21.867-56.417-0.761-58.011,0.092
				c-1.079,0.475-1.732,1.748-2.101,2.972c-0.37,1.225,0.154,2.585,0.863,3.334l4.542,6.182
				c-5.056,4.349-13.565,13.933-15.237,27.856c-1.133,8.607,2.661,15.501,9.868,18.615c7.868,3.582,18.529,1.462,23.859-4.676
				c3.132-3.729,9.001-5.026,11.264-3.673c1.982,1.4,0.451,6.015,0.082,7.239c-4.732,12.998-8.344,34.216-9.846,44.05
				c-2.165-0.789-3.488-1.722-3.769-1.674c-2.215-1.071-4.702-0.354-5.773,1.862s-0.354,4.702,1.862,5.773
				c0.33,0.234,14.94,7.591,36.489,11.434c0.611,0.186,1.225,0.37,2.117,0.507l0.282-0.048c12.233,1.962,26.574,2.693,41.793,0.08
				c21.136-3.628,43.795-13.609,64.188-35.099c1.732-1.748,1.578-4.333-0.17-6.063c-1.748-1.73-4.333-1.578-6.063,0.17
				c-0.749,0.709-1.498,1.418-2.245,2.125c-2.289-6.57-6.993-17.077-14.139-26.586c-5.631-7.447-8.112-15.146-6.776-20.886
				c0.925-3.06,2.841-5.419,6.031-7.127c1.642-0.571,2.255-0.388,2.867-0.202c3.206,1.772,5.405,9.516,6.178,14.027
				c0.194,1.127,0.669,2.205,1.66,2.906c0.991,0.701,2.215,1.071,3.342,0.877l26.492-4.546c2.255-0.388,3.937-2.417,3.55-4.67
				C395.713,961.368,390.438,920.494,362.366,919.22z M316.596,951.738c-0.587,5.034-2.663,13.224-9.66,14.714
				c-1.974,0.34-3.761,0.066-5.082-0.869c-3.254-2.054-5.252-6.932-6.444-10.499C300.667,953.602,307.665,952.109,316.596,951.738z
				 M216.644,979.63c-3.769-1.674-5.196-4.91-4.608-9.944c0.226-2.07,0.731-4.187,1.286-6.023l17.083,13.316
				C227.227,980.425,221.026,981.488,216.644,979.63z M272.881,1040.188c0.376-9.638,3.204-37.107,26.46-40.229
				c24.149-2.984,36.909,20.647,40.664,28.997C316.138,1042.048,292.215,1042.963,272.881,1040.188z M368.504,963.428
				c-1.153-5.024-3.965-12.956-9.714-16.03c-2.263-1.352-5.887-2.181-10.485-0.232c-5.629,2.707-9.508,7.145-10.893,12.605
				c-2.075,8.19,1.123,18.376,8.316,28.166c7.902,10.539,12.333,22.834,14.049,27.762c-4.025,3.592-8.148,6.622-12.367,9.085
				c-5.036-10.741-20.533-36.803-48.958-33.375c-26.122,3.324-33.467,29.826-33.996,47.035c-6.918-1.424-13.038-3.274-17.982-5.038
				c1.183-8.326,5.066-31.334,9.798-44.332c4.129-11.444-1.019-16.072-3.612-17.658c-4.197-2.471-10.212-2.019-15.323,0.31
				l-3.02-2.383l22.445-24.742c1.732-1.748,1.528-4.614-0.17-6.063c-1.748-1.732-4.614-1.528-6.063,0.17l-22.96,25.121
				l-10.429-8.364c4.339-6.838,9.774-10.671,9.774-10.671c1.031-0.757,1.732-1.748,1.82-2.924c0.088-1.177-0.106-2.303-0.863-3.334
				l-3.833-5.435c9.71-4.279,32.329-12.802,42.968,0.168c11.348,13.719,12.501,18.743,12.647,19.59
				c-0.37,1.225,0.202,2.867,1.241,3.849c1.368,1.217,3.206,1.772,5.082,0.869c0,0,0.515-0.38,1.642-0.571
				c1.386,4.694,4.287,11.45,9.852,15.138c3.254,2.054,6.878,2.88,11.104,2.155c0.282-0.048,0.563-0.096,0.845-0.146
				c12.868-2.789,15.529-16.012,16.342-23.114c2.022-0.056,4.091,0.168,6.442,0.346c2.069,0.226,4.131-1.288,4.357-3.358
				c0.136-0.893,5.254-21.791,26.038-20.717c16.362,0.673,22.818,23.066,24.696,32.319l-18.883,3.242L368.504,963.428z"/>
			<circle fill="#F58317" cx="227.187" cy="953.158" r="2.573"/>
		</g>
	</g>
	<g>
		<defs>
			<rect id="SVGID_51_" y="300.548" width="1280" height="898.903"/>
		</defs>
		<clipPath id="SVGID_52_">
			<use xlink:href="#SVGID_51_"  overflow="visible"/>
		</clipPath>
		<g clip-path="url(#SVGID_52_)">
			<path fill="#F58317" d="M1087.403,592.099l-51.423,1.32l-30.239-41.609c-1.069-1.472-2.88-2.209-4.674-1.902
				c-1.794,0.308-3.256,1.606-3.773,3.352l-14.632,49.312l-48.92,15.903c-1.73,0.563-2.99,2.057-3.252,3.859
				c-0.262,1.8,0.521,3.592,2.019,4.624l42.38,29.156l0.006,51.437c0,1.82,1.035,3.48,2.665,4.285
				c1.63,0.805,3.576,0.613,5.022-0.493l40.824-31.294l48.922,15.891c0.751,0.244,1.536,0.294,2.283,0.164
				c0.979-0.168,1.896-0.637,2.615-1.376c1.27-1.302,1.69-3.214,1.085-4.928l-17.147-48.497l30.231-41.619
				c1.069-1.472,1.211-3.424,0.362-5.034C1090.909,593.042,1089.223,592.051,1087.403,592.099z M1051.954,637.719
				c-0.925,1.272-1.163,2.918-0.639,4.403l14.758,41.737l-42.103-13.673c-0.749-0.242-1.534-0.294-2.285-0.164
				c-0.751,0.13-1.474,0.439-2.099,0.917l-35.133,26.931l-0.006-44.268c0-1.572-0.773-3.046-2.07-3.937l-36.469-25.091
				l42.101-13.685c1.496-0.487,2.659-1.678,3.104-3.186l12.593-42.436l26.026,35.81c0.925,1.272,2.417,2.008,3.989,1.97
				l44.254-1.137L1051.954,637.719z"/>
			<path fill="#F58317" d="M1010.203,590.465c-0.535-0.737-1.442-1.105-2.337-0.951c-0.895,0.154-1.628,0.803-1.886,1.676
				l-7.85,26.458l-26.244,8.532c-0.865,0.28-1.496,1.029-1.626,1.93c-0.13,0.901,0.262,1.796,1.009,2.311l22.734,15.643
				l0.004,27.598c0,0.909,0.515,1.74,1.332,2.143c0.815,0.404,1.79,0.306,2.511-0.246l21.903-16.794l26.248,8.526
				c0.375,0.122,0.767,0.148,1.143,0.084c0.014-0.002,0.024-0.004,0.038-0.006c1.3-0.224,2.173-1.46,1.952-2.759
				c-0.048-0.282-0.144-0.545-0.28-0.783l-9.059-25.623l16.216-22.329c0.535-0.735,0.603-1.712,0.182-2.515
				c-0.423-0.805-1.268-1.298-2.175-1.276l-27.586,0.711L1010.203,590.465z M1035.187,636.409c-0.461,0.635-0.581,1.46-0.32,2.199
				l8.006,22.638l-22.838-7.417c-0.378-0.122-0.769-0.148-1.145-0.082c-0.375,0.066-0.737,0.22-1.051,0.459l-19.057,14.608
				l-0.002-24.013c0-0.787-0.388-1.522-1.035-1.968l-19.782-13.611l22.834-7.423c0.747-0.244,1.328-0.837,1.552-1.592l6.832-23.018
				l14.117,19.424c0.461,0.637,1.208,1.005,1.994,0.985l24.003-0.617L1035.187,636.409z"/>
		</g>
	</g>
	<g>
		<defs>
			<rect id="SVGID_53_" y="300.548" width="1280" height="898.903"/>
		</defs>
		<clipPath id="SVGID_54_">
			<use xlink:href="#SVGID_53_"  overflow="visible"/>
		</clipPath>
		<g clip-path="url(#SVGID_54_)">
			<path fill="#F58317" d="M543.431,1069.22l-51.423,1.32l-30.239-41.609c-1.069-1.472-2.88-2.209-4.674-1.902
				c-1.794,0.308-3.256,1.606-3.773,3.352l-14.632,49.312l-48.92,15.903c-1.73,0.563-2.99,2.057-3.252,3.859
				c-0.262,1.8,0.521,3.592,2.02,4.624l42.378,29.154l0.006,51.437c0,1.82,1.035,3.48,2.665,4.285s3.576,0.613,5.022-0.493
				l40.824-31.294l48.922,15.891c0.751,0.244,1.536,0.294,2.283,0.164c0.979-0.168,1.896-0.637,2.615-1.376
				c1.27-1.302,1.69-3.214,1.085-4.928l-17.147-48.497l30.231-41.619c1.069-1.472,1.211-3.424,0.362-5.034
				C546.937,1070.161,545.249,1069.171,543.431,1069.22z M507.98,1114.839c-0.925,1.272-1.163,2.918-0.639,4.403l14.758,41.735
				l-42.103-13.673c-0.749-0.242-1.534-0.294-2.285-0.164c-0.751,0.13-1.474,0.439-2.099,0.917l-35.133,26.931l-0.006-44.268
				c0-1.572-0.773-3.046-2.069-3.937l-36.47-25.091l42.101-13.685c1.494-0.487,2.659-1.678,3.104-3.186l12.593-42.436l26.026,35.81
				c0.925,1.272,2.417,2.008,3.989,1.97l44.254-1.137L507.98,1114.839z"/>
			<path fill="#F58317" d="M466.229,1067.584c-0.535-0.737-1.442-1.105-2.337-0.951s-1.628,0.803-1.886,1.676l-7.85,26.458
				l-26.244,8.532c-0.865,0.28-1.496,1.029-1.626,1.93c-0.13,0.901,0.262,1.796,1.009,2.311l22.734,15.643l0.004,27.598
				c0,0.909,0.515,1.74,1.332,2.143c0.815,0.403,1.79,0.306,2.511-0.246l21.903-16.794l26.248,8.526
				c0.376,0.122,0.767,0.148,1.143,0.084c0.014-0.002,0.024-0.004,0.038-0.006c1.3-0.224,2.173-1.46,1.952-2.759
				c-0.048-0.282-0.144-0.545-0.28-0.783l-9.059-25.623l16.216-22.329c0.535-0.735,0.603-1.712,0.182-2.515
				c-0.422-0.803-1.268-1.298-2.175-1.276l-27.586,0.711L466.229,1067.584z M491.213,1113.53c-0.461,0.635-0.581,1.46-0.32,2.199
				l8.006,22.638l-22.838-7.417c-0.378-0.122-0.769-0.148-1.145-0.082c-0.378,0.064-0.737,0.22-1.051,0.459l-19.057,14.608
				l-0.002-24.013c0-0.787-0.388-1.522-1.035-1.968l-19.782-13.611l22.834-7.423c0.747-0.244,1.328-0.837,1.552-1.592l6.832-23.018
				l14.117,19.424c0.461,0.637,1.208,1.005,1.994,0.985l24.003-0.617L491.213,1113.53z"/>
		</g>
	</g>
	<g>
		<defs>
			<rect id="SVGID_55_" y="300.548" width="1280" height="898.903"/>
		</defs>
		<clipPath id="SVGID_56_">
			<use xlink:href="#SVGID_55_"  overflow="visible"/>
		</clipPath>
		<g clip-path="url(#SVGID_56_)">
			<path fill="#F58317" d="M1131.601,1174.955l-51.423,1.32l-30.239-41.609c-1.069-1.472-2.88-2.209-4.674-1.902
				c-1.794,0.307-3.256,1.606-3.773,3.352l-14.632,49.312l-48.92,15.903c-1.73,0.563-2.99,2.057-3.252,3.859
				c-0.262,1.8,0.521,3.592,2.02,4.624l42.378,29.154l0.006,51.437c0,1.82,1.035,3.48,2.665,4.285
				c1.63,0.805,3.576,0.613,5.022-0.493l40.824-31.294l48.922,15.891c0.751,0.244,1.536,0.294,2.283,0.164
				c0.979-0.168,1.896-0.637,2.615-1.376c1.27-1.302,1.69-3.214,1.085-4.928l-17.147-48.497l30.231-41.619
				c1.069-1.472,1.211-3.424,0.362-5.034C1135.107,1175.896,1133.421,1174.906,1131.601,1174.955z M1096.152,1220.574
				c-0.925,1.272-1.163,2.918-0.639,4.403l14.758,41.735l-42.103-13.673c-0.749-0.242-1.534-0.294-2.285-0.164
				c-0.751,0.13-1.474,0.439-2.099,0.917l-35.133,26.931l-0.006-44.268c0-1.572-0.773-3.046-2.07-3.937l-36.469-25.091
				l42.101-13.685c1.496-0.487,2.659-1.678,3.104-3.186l12.593-42.436l26.026,35.81c0.925,1.272,2.417,2.008,3.989,1.97
				l44.254-1.137L1096.152,1220.574z"/>
			<path fill="#F58317" d="M1054.401,1173.319c-0.535-0.737-1.442-1.105-2.337-0.951c-0.895,0.154-1.628,0.803-1.886,1.676
				l-7.85,26.458l-26.244,8.532c-0.865,0.28-1.496,1.029-1.626,1.93c-0.13,0.901,0.262,1.796,1.009,2.311l22.734,15.643
				l0.004,27.598c0,0.909,0.515,1.74,1.332,2.143c0.815,0.404,1.79,0.306,2.511-0.246l21.903-16.794l26.248,8.526
				c0.375,0.122,0.767,0.148,1.143,0.084c0.014-0.002,0.024-0.004,0.038-0.006c1.3-0.224,2.173-1.46,1.952-2.759
				c-0.048-0.282-0.144-0.545-0.28-0.783l-9.059-25.623l16.216-22.329c0.535-0.735,0.603-1.712,0.182-2.515
				c-0.423-0.805-1.268-1.298-2.175-1.276l-27.586,0.711L1054.401,1173.319z M1079.385,1219.265
				c-0.461,0.635-0.581,1.46-0.319,2.199l8.006,22.638l-22.838-7.417c-0.378-0.122-0.769-0.148-1.145-0.082
				c-0.378,0.064-0.737,0.22-1.051,0.459l-19.057,14.608l-0.002-24.013c0-0.787-0.387-1.522-1.035-1.968l-19.782-13.611
				l22.834-7.423c0.747-0.244,1.328-0.837,1.552-1.592l6.832-23.018l14.117,19.424c0.462,0.637,1.208,1.005,1.994,0.985
				l24.003-0.617L1079.385,1219.265z"/>
		</g>
	</g>
	<g>
		<defs>
			<rect id="SVGID_57_" y="300.548" width="1280" height="898.903"/>
		</defs>
		<clipPath id="SVGID_58_">
			<use xlink:href="#SVGID_57_"  overflow="visible"/>
		</clipPath>
		<path clip-path="url(#SVGID_58_)" fill="#F58317" d="M44.821,263.973c-1.94-11.296-12.704-18.907-24.001-16.967
			c-5.989,1.029-11.396,3.442-15.965,6.846l-17.513-5.318l-14.738,10.853c-5.443-1.686-11.344-2.159-17.335-1.131
			c-11.296,1.94-18.907,12.704-16.967,24.001c0.12,0.699,0.276,1.384,0.461,2.056l-18.623,13.715l12.659,73.744l79.861,24.25
			l67.204-49.494l-12.661-73.746l-22.131-6.72C45.023,265.369,44.941,264.672,44.821,263.973z M22.227,255.198
			c6.069-1.041,11.868,2.517,13.853,8.134l-20.405-6.196C17.732,256.253,19.924,255.593,22.227,255.198z M33.751,275.657
			c-1.822,2.103-4.353,3.616-7.305,4.121l-15.421,2.647l13.164-9.672L33.751,275.657z M3.783,266.56l10.471,3.18l-16.108,11.834
			C-1.414,276.058,0.589,270.871,3.783,266.56z M-10.297,262.283l5.759,1.75c-1.68,2.679-3.018,5.571-3.981,8.611
			c-1.922-2.545-4.149-4.824-6.624-6.79L-10.297,262.283z M-22.147,271.011c4.451,3.002,8.068,7.223,10.321,12.275l-19.133-5.785
			L-22.147,271.011z M-23.683,288.383l-15.421,2.647c-2.95,0.507-5.841-0.076-8.26-1.45l8.046-5.925L-23.683,288.383z
			 M-43.323,266.45c2.303-0.396,4.588-0.503,6.824-0.358l-17.171,12.647C-53.673,272.778-49.392,267.491-43.323,266.45z
			 M-29.748,370.112l-26.468-8.036l-9.496-55.326l26.462,8.002L-29.748,370.112z M-60.87,299.528l6.456-4.754
			c4.507,3.703,10.531,5.511,16.718,4.451l15.421-2.647l-14.097,10.357L-60.87,299.528z M5.849,380.92l-26.697-8.106l-9.504-55.372
			l26.691,8.072L5.849,380.92z M-26.428,309.943l13.214-9.708l-1.772,5.857l7.958,2.407l2.974-9.836l6.085,8.282l6.7-4.922
			l-3.624-4.932l15.695,4.746l-21.588,15.861L-26.428,309.943z M36.507,362.968l-22.465,16.544l-9.51-55.406l22.471-16.51
			L36.507,362.968z M66.269,341.051l-22.273,16.404l-9.502-55.362l22.279-16.368L66.269,341.051z M49.801,280.531l-20.625,15.152
			l-16.744-5.062l15.421-2.647c6.186-1.063,11.264-4.776,14.277-9.77L49.801,280.531z"/>
	</g>
	<g>
		<defs>
			<rect id="SVGID_59_" y="300.548" width="1280" height="898.903"/>
		</defs>
		<clipPath id="SVGID_60_">
			<use xlink:href="#SVGID_59_"  overflow="visible"/>
		</clipPath>
		<path clip-path="url(#SVGID_60_)" fill="#F58317" d="M1288.887,215.193c-1.94-11.296-12.704-18.907-24.001-16.967
			c-5.989,1.029-11.396,3.442-15.965,6.846l-17.513-5.318l-14.738,10.853c-5.443-1.686-11.344-2.159-17.335-1.131
			c-11.296,1.94-18.907,12.704-16.967,24.001c0.12,0.699,0.276,1.384,0.461,2.055l-18.623,13.715l12.659,73.744l79.86,24.25
			l67.204-49.494l-12.659-73.744l-22.131-6.72C1289.089,216.591,1289.007,215.894,1288.887,215.193z M1266.293,206.419
			c6.069-1.041,11.867,2.517,13.853,8.134l-20.405-6.196C1261.798,207.474,1263.99,206.815,1266.293,206.419z M1277.817,226.878
			c-1.822,2.103-4.353,3.616-7.305,4.121l-15.421,2.647l13.164-9.672L1277.817,226.878z M1247.849,217.779l10.471,3.18
			l-16.108,11.834C1242.651,227.28,1244.653,222.092,1247.849,217.779z M1233.768,213.503l5.759,1.75
			c-1.68,2.679-3.018,5.571-3.981,8.611c-1.922-2.545-4.149-4.824-6.624-6.79L1233.768,213.503z M1221.919,222.23
			c4.451,3.002,8.068,7.223,10.321,12.275l-19.133-5.785L1221.919,222.23z M1220.383,239.605l-15.421,2.647
			c-2.953,0.507-5.841-0.076-8.26-1.45l8.046-5.925L1220.383,239.605z M1200.743,217.67c2.303-0.396,4.588-0.503,6.824-0.358
			l-17.171,12.647C1190.393,224,1194.674,218.712,1200.743,217.67z M1214.318,321.333l-26.468-8.036l-9.496-55.326l26.462,8.002
			L1214.318,321.333z M1183.194,250.749l6.456-4.754c4.506,3.703,10.531,5.511,16.718,4.451l15.421-2.647l-14.097,10.357
			L1183.194,250.749z M1249.915,332.14l-26.698-8.106l-9.504-55.372l26.692,8.072L1249.915,332.14z M1217.638,261.163l13.214-9.708
			l-1.772,5.857l7.958,2.407l2.974-9.836l6.085,8.282l6.7-4.922l-3.624-4.932l15.695,4.746l-21.588,15.861L1217.638,261.163z
			 M1280.573,314.19l-22.467,16.544l-9.51-55.408l22.473-16.51L1280.573,314.19z M1310.335,292.271l-22.273,16.404l-9.502-55.362
			l22.279-16.368L1310.335,292.271z M1293.867,231.752l-20.625,15.152l-16.744-5.064l15.421-2.647
			c6.186-1.063,11.264-4.776,14.276-9.77L1293.867,231.752z"/>
	</g>
	<g>
		<defs>
			<rect id="SVGID_61_" y="300.548" width="1280" height="898.903"/>
		</defs>
		<clipPath id="SVGID_62_">
			<use xlink:href="#SVGID_61_"  overflow="visible"/>
		</clipPath>
		<path clip-path="url(#SVGID_62_)" fill="#F58317" d="M813.052,1081.891c-1.94-11.296-12.704-18.907-24.001-16.967
			c-5.989,1.029-11.396,3.442-15.965,6.846l-17.513-5.318l-14.738,10.853c-5.443-1.686-11.344-2.159-17.335-1.131
			c-11.296,1.94-18.907,12.704-16.967,24.001c0.12,0.699,0.276,1.384,0.461,2.055l-18.623,13.715l12.659,73.744l79.861,24.25
			l67.204-49.494l-12.659-73.744l-22.131-6.72C813.256,1083.289,813.172,1082.592,813.052,1081.891z M790.457,1073.118
			c6.069-1.041,11.867,2.517,13.853,8.134l-20.405-6.197C785.965,1074.172,788.156,1073.511,790.457,1073.118z M801.981,1093.577
			c-1.822,2.104-4.353,3.616-7.305,4.121l-15.421,2.647l13.164-9.672L801.981,1093.577z M772.016,1084.478l10.471,3.18
			l-16.108,11.834C766.816,1093.978,768.82,1088.791,772.016,1084.478z M757.933,1080.201l5.759,1.75
			c-1.68,2.679-3.018,5.571-3.981,8.611c-1.922-2.545-4.149-4.824-6.624-6.79L757.933,1080.201z M746.084,1088.928
			c4.451,3.002,8.068,7.223,10.321,12.275l-19.133-5.785L746.084,1088.928z M744.547,1106.303l-15.421,2.647
			c-2.95,0.507-5.841-0.076-8.26-1.45l8.046-5.925L744.547,1106.303z M724.909,1084.368c2.303-0.396,4.588-0.503,6.824-0.358
			l-17.171,12.647C714.558,1090.698,718.841,1085.411,724.909,1084.368z M738.485,1188.031l-26.468-8.036l-9.496-55.327
			l26.462,8.002L738.485,1188.031z M707.361,1117.448l6.456-4.754c4.507,3.703,10.531,5.511,16.718,4.451l15.421-2.647
			l-14.097,10.357L707.361,1117.448z M774.079,1198.838l-26.697-8.106l-9.504-55.372l26.691,8.072L774.079,1198.838z
			 M741.805,1127.861l13.214-9.708l-1.772,5.857l7.958,2.407l2.974-9.836l6.085,8.282l6.7-4.922l-3.624-4.932l15.695,4.746
			l-21.588,15.861L741.805,1127.861z M804.74,1180.888l-22.467,16.544l-9.51-55.408l22.471-16.51L804.74,1180.888z M834.5,1158.969
			l-22.273,16.404l-9.502-55.362l22.279-16.368L834.5,1158.969z M818.032,1098.451l-20.625,15.151l-16.744-5.064l15.421-2.647
			c6.186-1.063,11.264-4.776,14.277-9.77L818.032,1098.451z"/>
	</g>
	<g>
		<defs>
			<rect id="SVGID_63_" y="300.548" width="1280" height="898.903"/>
		</defs>
		<clipPath id="SVGID_64_">
			<use xlink:href="#SVGID_63_"  overflow="visible"/>
		</clipPath>
		<path clip-path="url(#SVGID_64_)" fill="#F58317" d="M1109.19,770.387c-1.94-11.296-12.704-18.907-24.001-16.967
			c-5.989,1.029-11.396,3.442-15.964,6.846l-17.513-5.318l-14.738,10.853c-5.443-1.686-11.344-2.159-17.335-1.131
			c-11.296,1.94-18.907,12.704-16.967,24.001c0.12,0.699,0.276,1.384,0.461,2.056l-18.623,13.715l12.659,73.744l79.861,24.25
			l67.204-49.494l-12.658-73.744l-22.131-6.72C1109.394,771.783,1109.312,771.086,1109.19,770.387z M1086.598,761.612
			c6.069-1.041,11.868,2.517,13.853,8.134l-20.405-6.196C1082.103,762.667,1084.295,762.007,1086.598,761.612z M1098.12,782.071
			c-1.822,2.103-4.353,3.616-7.305,4.121l-15.421,2.647l13.164-9.672L1098.12,782.071z M1068.155,772.974l10.471,3.18
			l-16.108,11.834C1062.957,782.472,1064.958,777.287,1068.155,772.974z M1054.074,768.697l5.759,1.75
			c-1.68,2.679-3.018,5.571-3.981,8.612c-1.922-2.545-4.149-4.824-6.624-6.79L1054.074,768.697z M1042.222,777.425
			c4.451,3.002,8.068,7.223,10.321,12.275l-19.133-5.785L1042.222,777.425z M1040.688,794.797l-15.421,2.647
			c-2.95,0.507-5.841-0.076-8.26-1.45l8.046-5.925L1040.688,794.797z M1021.048,772.864c2.303-0.396,4.589-0.503,6.824-0.358
			l-17.171,12.647C1010.697,779.194,1014.979,773.905,1021.048,772.864z M1034.623,876.526l-26.468-8.036l-9.496-55.326
			l26.462,8.002L1034.623,876.526z M1003.499,805.942l6.456-4.754c4.507,3.703,10.531,5.511,16.718,4.451l15.421-2.647
			l-14.097,10.357L1003.499,805.942z M1070.218,887.334l-26.697-8.106l-9.504-55.372l26.691,8.072L1070.218,887.334z
			 M1037.943,816.357l13.214-9.708l-1.772,5.857l7.958,2.407l2.974-9.836l6.085,8.282l6.7-4.922l-3.624-4.932l15.695,4.746
			l-21.588,15.861L1037.943,816.357z M1100.879,869.382l-22.467,16.544l-9.51-55.408l22.473-16.51L1100.879,869.382z
			 M1130.638,847.465l-22.273,16.404l-9.502-55.362l22.279-16.368L1130.638,847.465z M1114.17,786.945l-20.625,15.152l-16.744-5.064
			l15.421-2.647c6.186-1.063,11.264-4.776,14.276-9.77L1114.17,786.945z"/>
	</g>
	<g>
		<defs>
			<rect id="SVGID_65_" y="300.548" width="1280" height="898.903"/>
		</defs>
		<clipPath id="SVGID_66_">
			<use xlink:href="#SVGID_65_"  overflow="visible"/>
		</clipPath>
		<path clip-path="url(#SVGID_66_)" fill="#F58317" d="M510.291,576.516c-1.94-11.296-12.704-18.907-24.001-16.967
			c-5.989,1.029-11.396,3.442-15.965,6.846l-17.513-5.318l-14.738,10.853c-5.443-1.686-11.344-2.159-17.335-1.131
			c-11.296,1.94-18.907,12.704-16.967,24.001c0.12,0.699,0.276,1.384,0.461,2.056l-18.623,13.715l12.659,73.744l79.861,24.25
			l67.204-49.494l-12.659-73.744l-22.131-6.72C510.495,577.914,510.411,577.215,510.291,576.516z M487.697,567.74
			c6.069-1.041,11.867,2.517,13.853,8.134l-20.405-6.196C483.204,568.795,485.396,568.136,487.697,567.74z M499.221,588.201
			c-1.822,2.103-4.353,3.616-7.305,4.121l-15.421,2.647l13.164-9.672L499.221,588.201z M469.255,579.103l10.471,3.18l-16.108,11.834
			C464.056,588.601,466.059,583.415,469.255,579.103z M455.173,574.826l5.759,1.75c-1.68,2.679-3.018,5.571-3.981,8.611
			c-1.922-2.545-4.149-4.824-6.624-6.79L455.173,574.826z M443.323,583.553c4.451,3.002,8.068,7.223,10.321,12.275l-19.133-5.785
			L443.323,583.553z M441.789,600.926l-15.421,2.647c-2.95,0.507-5.841-0.076-8.26-1.45l8.046-5.925L441.789,600.926z
			 M422.149,578.993c2.303-0.396,4.588-0.503,6.824-0.358l-17.171,12.647C411.797,585.323,416.08,580.033,422.149,578.993z
			 M435.724,682.654l-26.468-8.036l-9.496-55.326l26.462,8.002L435.724,682.654z M404.6,612.07l6.456-4.754
			c4.506,3.703,10.531,5.511,16.718,4.451l15.421-2.647l-14.097,10.357L404.6,612.07z M471.319,693.463l-26.697-8.106l-9.504-55.372
			l26.691,8.072L471.319,693.463z M439.044,622.486l13.214-9.708l-1.772,5.857l7.958,2.407l2.974-9.836l6.085,8.282l6.7-4.922
			l-3.624-4.932l15.695,4.746l-21.588,15.861L439.044,622.486z M501.979,675.511l-22.467,16.544l-9.51-55.408l22.471-16.51
			L501.979,675.511z M531.739,653.594l-22.273,16.404l-9.502-55.362l22.279-16.368L531.739,653.594z M515.271,593.073
			l-20.625,15.152l-16.744-5.064l15.421-2.647c6.186-1.063,11.264-4.776,14.277-9.77L515.271,593.073z"/>
	</g>
</g>
</svg>
