<?xml version="1.0" encoding="utf-8"?>
<!-- Generator: Adobe Illustrator 18.1.1, SVG Export Plug-In . SVG Version: 6.00 Build 0)  -->
<svg version="1.1" id="Слой_1" xmlns="http://www.w3.org/2000/svg" xmlns:xlink="http://www.w3.org/1999/xlink" x="0px" y="0px"
	 viewBox="0 0 27.125 32" enable-background="new 0 0 27.125 32" xml:space="preserve">
<g>
	<path d="M26.5,14h-0.421V6.41H19.5V3.743c0-0.276-0.224-0.5-0.5-0.5s-0.5,0.224-0.5,0.5V6.41h-9V3.743c0-0.276-0.224-0.5-0.5-0.5
		s-0.5,0.224-0.5,0.5V6.41H0.813v22.347h25.267V15H26.5V14z M8.5,7.41v2.333c0,0.276,0.224,0.5,0.5,0.5s0.5-0.224,0.5-0.5V7.41h9
		v2.333c0,0.276,0.224,0.5,0.5,0.5s0.5-0.224,0.5-0.5V7.41h5.579V14H1.813V7.41H8.5z M25.079,27.757H1.813V15h23.267V27.757z"/>
	<rect x="5.479" y="18.243" width="1.333" height="1.333"/>
	<rect x="10.201" y="18.243" width="1.333" height="1.333"/>
	<rect x="14.924" y="18.243" width="1.333" height="1.333"/>
	<rect x="19.646" y="18.243" width="1.333" height="1.333"/>
	<rect x="5.479" y="22.326" width="1.333" height="1.333"/>
	<rect x="10.201" y="22.326" width="1.333" height="1.333"/>
	<rect x="14.924" y="22.326" width="1.333" height="1.333"/>
	<rect x="19.646" y="22.326" width="1.333" height="1.333"/>
</g>
</svg>
