<?xml version="1.0" encoding="utf-8"?>
<!-- Generator: Adobe Illustrator 18.1.1, SVG Export Plug-In . SVG Version: 6.00 Build 0)  -->
<svg version="1.1" id="Слой_1" xmlns="http://www.w3.org/2000/svg" xmlns:xlink="http://www.w3.org/1999/xlink" x="0px" y="0px"
	 viewBox="0 0 40 32" enable-background="new 0 0 40 32" xml:space="preserve">
<g>
	<path d="M32.689,17.577c-1.773,0-3.216,1.443-3.216,3.216c0,1.773,1.443,3.216,3.216,3.216c1.773,0,3.216-1.443,3.216-3.216
		C35.905,19.02,34.462,17.577,32.689,17.577z M32.689,23.241c-1.35,0-2.448-1.098-2.448-2.448c0-1.35,1.098-2.448,2.448-2.448
		s2.448,1.098,2.448,2.448C35.137,22.142,34.039,23.241,32.689,23.241z"/>
	<path d="M15.038,17.577c-1.773,0-3.216,1.443-3.216,3.216c0,1.773,1.443,3.216,3.216,3.216c1.773,0,3.216-1.443,3.216-3.216
		C18.254,19.02,16.811,17.577,15.038,17.577z M15.038,23.241c-1.35,0-2.448-1.098-2.448-2.448c0-1.35,1.098-2.448,2.448-2.448
		s2.448,1.098,2.448,2.448C17.486,22.142,16.388,23.241,15.038,23.241z"/>
	<polygon points="28.369,21.617 28.37,21.617 28.369,21.617 	"/>
	<polygon points="10.916,21.617 10.918,21.617 10.916,21.617 	"/>
	<path d="M38.991,16.876l-0.033-0.054l-3.092-5.376c-0.055-0.098-0.187-0.132-0.283-0.132h-7.51V8.388v0
		c0-0.002-0.001-0.004-0.001-0.006c-0.005-0.163-0.245-0.392-0.414-0.392H9.772h0h0c-0.145,0-0.31,0.212-0.31,0.397v12.404
		c0,0.207,0.18,0.492,0.31,0.492h1.144c0.157,0,0.301-0.158,0.301-0.332s-0.143-0.332-0.301-0.332h-0.79V8.988V8.656h17.282V20.62
		h-0.332h-7.93h0h0c-0.157,0-0.301,0.158-0.301,0.332s0.143,0.332,0.301,0.332h9.223c0.157,0,0.301-0.158,0.301-0.332
		s-0.143-0.332-0.301-0.332h-0.296v-8.309v-0.332h4.653v4.204c0,0.168,0.269,0.449,0.43,0.449h4.85l0.37,0.397v3.591h-0.332h-1.025
		h0h0c-0.157,0-0.3,0.158-0.3,0.332s0.143,0.332,0.301,0.332h1.635c0.145,0,0.387-0.308,0.387-0.492v-3.822v0
		C39.039,16.953,39.009,16.905,38.991,16.876z M37.402,15.967h-4.012v-3.656v-0.332h2.017l2.281,3.988H37.402z"/>
	<path d="M8.172,9.32H1.343c-0.212,0-0.384,0.287-0.384,0.498c0,0.212,0.172,0.499,0.384,0.499h6.829
		c0.212,0,0.384-0.287,0.384-0.499C8.556,9.607,8.384,9.32,8.172,9.32z"/>
	<path d="M8.172,11.314H2.34c-0.212,0-0.384,0.287-0.384,0.498c0,0.212,0.172,0.499,0.384,0.499h5.832
		c0.212,0,0.384-0.287,0.384-0.499C8.556,11.601,8.384,11.314,8.172,11.314z"/>
	<path d="M8.172,13.308H3.67c-0.212,0-0.384,0.287-0.384,0.498c0,0.212,0.172,0.499,0.384,0.499h4.503
		c0.212,0,0.384-0.287,0.384-0.499C8.556,13.595,8.384,13.308,8.172,13.308z"/>
	<path d="M8.172,15.302H4.999c-0.212,0-0.384,0.287-0.384,0.498c0,0.212,0.172,0.499,0.384,0.499h3.174
		c0.212,0,0.384-0.287,0.384-0.499C8.556,15.589,8.384,15.302,8.172,15.302z"/>
	<path d="M32.689,19.648c-0.631,0-1.144,0.513-1.144,1.144c0,0.631,0.513,1.144,1.144,1.144c0.631,0,1.144-0.513,1.144-1.144
		C33.833,20.162,33.32,19.648,32.689,19.648z M32.689,21.169c-0.208,0-0.376-0.169-0.376-0.377c0-0.207,0.169-0.376,0.376-0.376
		c0.207,0,0.376,0.169,0.376,0.376C33.065,21,32.896,21.169,32.689,21.169z"/>
	<path d="M15.038,19.648c-0.631,0-1.144,0.513-1.144,1.144c0,0.631,0.513,1.144,1.144,1.144s1.144-0.513,1.144-1.144
		C16.182,20.162,15.669,19.648,15.038,19.648z M15.038,21.169c-0.207,0-0.376-0.169-0.376-0.377c0-0.207,0.169-0.376,0.376-0.376
		c0.208,0,0.376,0.169,0.376,0.376C15.414,21,15.246,21.169,15.038,21.169z"/>
</g>
</svg>
