<?xml version="1.0" encoding="utf-8"?>
<!-- Generator: Adobe Illustrator 18.1.1, SVG Export Plug-In . SVG Version: 6.00 Build 0)  -->
<svg version="1.1" id="Слой_1" xmlns="http://www.w3.org/2000/svg" xmlns:xlink="http://www.w3.org/1999/xlink" x="0px" y="0px"
	 viewBox="0 0 30 32" enable-background="new 0 0 30 32" xml:space="preserve">
<g>
	<path fill="none" d="M17.788,15.622c0.78,0.317,1.628,0.496,2.518,0.496c0.027,0,0.053-0.004,0.08-0.004l0.146-0.492H17.788z"/>
	<path fill="none" d="M21.067,15.393c0,0.02-0.002,0.038-0.008,0.057c-0.003,0.01-0.075,0.255-0.188,0.639
		c3.499-0.295,6.26-3.285,6.26-6.925c0-3.834-3.062-6.954-6.826-6.954S13.48,5.33,13.48,9.164c0,2.558,1.367,4.792,3.392,6
		c2.269,0,3.947,0,3.967,0C20.965,15.164,21.067,15.267,21.067,15.393z"/>
	<path fill="none" d="M4.744,15.622l2.321,7.315h9.659c0.905,0,1.832-0.651,2.064-1.436l1.46-4.924
		c-1.276-0.01-2.473-0.357-3.513-0.955H4.744z"/>
	<path fill="none" d="M16.952,27.965c-0.507,0-0.914,0.407-0.914,0.915c0,0.507,0.407,0.914,0.914,0.914
		c0.507,0,0.914-0.407,0.914-0.914C17.866,28.372,17.46,27.965,16.952,27.965z"/>
	<path fill="none" d="M5.522,27.965c-0.508,0-0.914,0.407-0.914,0.915c0,0.507,0.406,0.914,0.914,0.914
		c0.507,0,0.914-0.407,0.914-0.914C6.437,28.372,6.03,27.965,5.522,27.965z"/>
	<path fill="#FFFFFF" d="M5.522,27.508c-0.755,0-1.372,0.617-1.372,1.372c0,0.755,0.617,1.371,1.372,1.371
		c0.755,0,1.371-0.616,1.371-1.371C6.894,28.126,6.277,27.508,5.522,27.508z M5.522,29.794c-0.508,0-0.914-0.407-0.914-0.914
		c0-0.508,0.406-0.915,0.914-0.915c0.507,0,0.914,0.407,0.914,0.915C6.437,29.388,6.03,29.794,5.522,29.794z"/>
	<path fill="#FFFFFF" d="M16.952,27.508c-0.755,0-1.371,0.617-1.371,1.372c0,0.755,0.616,1.371,1.371,1.371
		c0.755,0,1.371-0.616,1.371-1.371C18.323,28.126,17.707,27.508,16.952,27.508z M16.952,29.794c-0.507,0-0.914-0.407-0.914-0.914
		c0-0.508,0.407-0.915,0.914-0.915c0.507,0,0.914,0.407,0.914,0.915C17.866,29.388,17.46,29.794,16.952,29.794z"/>
	<path fill="#FFFFFF" d="M20.305,1.748c-4.018,0-7.287,3.327-7.287,7.416c0,2.467,1.195,4.651,3.022,6c-4.789,0-11.439,0-11.439,0
		l-0.457-1.443c-0.002-0.002-0.005-0.005-0.008-0.007c-0.123-0.371-0.313-0.701-0.614-0.936c-0.301-0.235-0.701-0.357-1.2-0.357
		H1.636c-0.126,0-0.229,0.101-0.229,0.228c0,0.127,0.102,0.229,0.229,0.229h0.686c0.423,0,0.71,0.099,0.921,0.265
		c0.21,0.163,0.353,0.404,0.457,0.715l2.894,9.122c-0.509,0.093-0.937,0.401-1.228,0.879c-0.348,0.57-0.528,1.355-0.528,2.279
		c0,0.119,0.108,0.228,0.229,0.228h12.344c0.121,0.002,0.229-0.108,0.229-0.228c0-0.121-0.107-0.23-0.229-0.229H5.315
		c0.03-0.751,0.177-1.391,0.436-1.814c0.279-0.458,0.643-0.689,1.107-0.7c0.012,0.001,0.023,0.001,0.035,0h9.83
		c1.115,0,2.204-0.742,2.508-1.765c0,0,0.975-3.293,1.501-5.071c3.819-0.227,6.86-3.451,6.86-7.394
		C27.593,5.075,24.324,1.748,20.305,1.748z M18.788,21.501c-0.232,0.784-1.159,1.436-2.064,1.436H7.065l-2.321-7.315h11.991
		c1.041,0.598,2.237,0.945,3.513,0.955L18.788,21.501z M20.871,16.089c-0.161,0.014-0.322,0.023-0.486,0.025
		c-0.027,0-0.053,0.004-0.08,0.004c-0.89,0-1.738-0.179-2.518-0.496c-0.318-0.129-0.623-0.283-0.916-0.457
		c-2.025-1.208-3.392-3.442-3.392-6c0-3.834,3.062-6.954,6.826-6.954s6.826,3.119,6.826,6.954
		C27.131,12.804,24.37,15.794,20.871,16.089z"/>
</g>
</svg>
