<?xml version="1.0" encoding="utf-8"?>
<!-- Generator: Adobe Illustrator 18.1.1, SVG Export Plug-In . SVG Version: 6.00 Build 0)  -->
<svg version="1.1" id="Слой_1" xmlns="http://www.w3.org/2000/svg" xmlns:xlink="http://www.w3.org/1999/xlink" x="0px" y="0px"
	 viewBox="0 0 15 32" enable-background="new 0 0 15 32" xml:space="preserve">
<path d="M13.494,11.202c-0.438-0.002-0.874-0.001-1.311-0.001c-0.881,0-1.763,0.001-2.645,0c-0.178,0-0.183-0.003-0.181-0.166
	c0.01-0.956,0.021-1.911,0.037-2.866c0.002-0.132,0.024-0.266,0.058-0.394c0.11-0.428,0.399-0.689,0.819-0.785
	c0.258-0.059,0.526-0.091,0.791-0.096c0.777-0.014,1.556-0.009,2.333-0.01c0.247-0.001,0.257,0.027,0.257-0.254
	c-0.002-0.919-0.001-1.837-0.001-2.756c0-0.518,0-1.037,0-1.556c-0.001-0.259,0.022-0.233-0.243-0.233c-1.2,0-2.4-0.003-3.601,0.002
	C9.476,2.089,9.142,2.101,8.811,2.133C8.229,2.19,7.654,2.286,7.099,2.484c-0.66,0.234-1.235,0.587-1.704,1.117
	C4.968,4.083,4.696,4.645,4.511,5.249C4.255,6.09,4.166,6.96,4.156,7.835c-0.013,1.037-0.005,2.074-0.005,3.111
	c0,0.264,0.015,0.257-0.252,0.256c-0.977,0-1.955,0-2.934,0c-0.044,0-0.089-0.001-0.133,0c-0.154,0.005-0.154,0.006-0.159,0.169
	c0,0.03,0,0.06,0,0.089c0,1.437,0,2.875,0,4.312C0.674,16.015,0.648,16,0.9,16c0.993,0,1.985-0.001,2.979,0
	c0.314,0,0.271-0.034,0.271,0.27c0.001,4.489,0.001,8.978,0.001,13.467c0,0.059-0.002,0.118-0.003,0.178c1.734,0,3.468,0,5.201,0
	c0.003-0.074,0.007-0.148,0.007-0.222c0.002-4.467,0.003-8.934,0.004-13.4c0-0.066,0.002-0.133,0.001-0.2
	c-0.001-0.065,0.03-0.094,0.095-0.092c0.052,0.002,0.104,0,0.155,0c0.711,0,1.422,0,2.133,0c0.4,0,0.801,0,1.2,0
	c0.233,0,0.219,0.018,0.238-0.206c0.025-0.287,0.061-0.574,0.092-0.86c0.055-0.507,0.11-1.015,0.165-1.522
	c0.042-0.382,0.081-0.765,0.122-1.147c0.031-0.294,0.065-0.588,0.094-0.882C13.671,11.212,13.662,11.203,13.494,11.202z"/>
</svg>
