<?xml version="1.0" encoding="utf-8"?>
<!-- Generator: Adobe Illustrator 18.1.1, SVG Export Plug-In . SVG Version: 6.00 Build 0)  -->
<svg version="1.1" id="Слой_1" xmlns="http://www.w3.org/2000/svg" xmlns:xlink="http://www.w3.org/1999/xlink" x="0px" y="0px"
	 viewBox="0 0 28 32" enable-background="new 0 0 28 32" xml:space="preserve">
<g>
	<path d="M21.041,3.005H7.793c-3.505,0-6.371,2.867-6.371,6.372v1.706h9.518c0.994-0.669,2.191-1.062,3.478-1.062
		c1.286,0,2.483,0.392,3.477,1.062h9.518V9.376C27.412,5.872,24.544,3.005,21.041,3.005z M23.935,9.192h-2.724V6.469h2.724V9.192z"
		/>
	<path d="M20.655,16.259c0,3.44-2.799,6.238-6.239,6.238c-3.439,0-6.238-2.798-6.238-6.238c0-0.987,0.236-1.919,0.648-2.75H1.422
		v9.114c0,3.504,2.866,6.372,6.371,6.372h13.248c3.503,0,6.371-2.868,6.371-6.372V13.51h-7.403
		C20.419,14.34,20.655,15.272,20.655,16.259z"/>
	<circle cx="14.416" cy="16.259" r="3.811"/>
</g>
</svg>
