<?xml version="1.0" encoding="utf-8"?>
<!-- Generator: Adobe Illustrator 18.1.1, SVG Export Plug-In . SVG Version: 6.00 Build 0)  -->
<svg version="1.1" id="Слой_1" xmlns="http://www.w3.org/2000/svg" xmlns:xlink="http://www.w3.org/1999/xlink" x="0px" y="0px"
	 viewBox="0 0 16.25 32" enable-background="new 0 0 16.25 32" xml:space="preserve">
<path d="M13.141,1.367h-0.173V1.32c0-0.048-0.039-0.086-0.086-0.086h-2.113c-0.047,0-0.085,0.039-0.085,0.086v0.047H3.487
	c-1.187,0-2.149,0.962-2.149,2.149V5.41h-0.03c-0.055,0-0.099,0.044-0.099,0.099v1.163c0,0.055,0.044,0.099,0.099,0.099h0.03V8.2
	h-0.03c-0.055,0-0.099,0.044-0.099,0.099v0.834c0,0.054,0.044,0.099,0.099,0.099h0.03v1.406h-0.03c-0.055,0-0.099,0.044-0.099,0.099
	v0.833c0,0.055,0.044,0.099,0.099,0.099h0.03v16.949c0,1.187,0.962,2.149,2.149,2.149h9.654c1.186,0,2.149-0.962,2.149-2.149V3.516
	C15.291,2.329,14.328,1.367,13.141,1.367z M8.329,2.55c0.147,0,0.266,0.119,0.266,0.266c0,0.147-0.119,0.266-0.266,0.266
	c-0.147,0-0.267-0.119-0.266-0.266C8.063,2.67,8.182,2.55,8.329,2.55z M7.373,3.596h1.933c0.179,0,0.323,0.117,0.323,0.295
	c0,0.179-0.145,0.295-0.323,0.295H7.373c-0.178,0-0.323-0.117-0.323-0.295C7.049,3.713,7.194,3.596,7.373,3.596z M8.34,29.891
	c-0.713,0-1.291-0.578-1.291-1.291S7.627,27.31,8.34,27.31c0.713,0,1.29,0.578,1.29,1.291S9.053,29.891,8.34,29.891z M14.452,26.927
	H2.343V5.368h12.108V26.927z"/>
</svg>
