<?xml version="1.0" encoding="utf-8"?>
<!-- Generator: Adobe Illustrator 18.1.1, SVG Export Plug-In . SVG Version: 6.00 Build 0)  -->
<svg version="1.1" id="Слой_1" xmlns="http://www.w3.org/2000/svg" xmlns:xlink="http://www.w3.org/1999/xlink" x="0px" y="0px"
	 viewBox="0 0 44.375 32" enable-background="new 0 0 44.375 32" xml:space="preserve">
<g>
	<path fill="none" d="M33.809,15.55v-0.157l-0.029-0.145l-0.045-0.136l-0.066-0.128l-0.083-0.116l-0.099-0.103l-0.103-0.091
		l-0.12-0.079l-0.124-0.074l-0.132-0.058l-0.128-0.05l-0.136-0.037l-0.128-0.029l-0.128-0.021l-0.116-0.008L32.23,14.31
		l-0.141-0.004h-0.132h-0.128H31.7l-0.12,0.008l-0.12,0.004l-0.116,0.008l-0.112,0.008l-0.112,0.017l-0.103,0.016l-0.103,0.021
		l-0.099,0.021l-0.099,0.029l-0.095,0.033l-0.091,0.037l-0.012,0.004l-0.004,0.017l-0.289,0.997l0.041,0.025l0.041-0.021L30.36,15.5
		l0.07-0.025l0.091-0.025l0.099-0.021l0.108-0.021l0.12-0.021l0.12-0.016l0.128-0.017l0.132-0.012l0.132-0.012l0.136-0.008h0.132
		h0.128h0.124l0.116,0.004v0.004l0.095,0.004l0.087,0.025l0.083,0.037l0.07,0.05l0.058,0.058l0.05,0.07l0.033,0.075l0.017,0.087
		h-0.004l-0.004,0.079l-0.012,0.083l-0.012,0.074l-0.002,0.008l-0.035-0.004l-0.066-0.004l-0.079-0.008h-0.091h-0.095l-0.099-0.008
		H31.89h-0.046l-0.058,0.008l-0.058,0.004l-0.066,0.004l-0.07,0.008l-0.07,0.004l-0.074,0.008l-0.07,0.008l-0.066,0.008
		l-0.062,0.008l-0.058,0.004l-0.054,0.008l-0.041,0.004l-0.033,0.004l-0.016,0.004h-0.008l-0.145,0.025l-0.141,0.037l-0.136,0.046
		l-0.132,0.058l-0.128,0.066l-0.124,0.083l-0.112,0.087l-0.107,0.099l-0.099,0.103l-0.087,0.116l-0.083,0.124l-0.062,0.136
		l-0.054,0.141l-0.037,0.149l-0.025,0.157l-0.012,0.161l0.004,0.091l0.008,0.091l0.012,0.099l0.016,0.095l0.021,0.091l0.033,0.095
		l0.037,0.095l0.054,0.087l0.058,0.087l0.066,0.079l0.083,0.079l0.095,0.066l0.107,0.066l0.12,0.054l0.137,0.041l0.149,0.037
		l0.116,0.017l0.112,0.012l0.116-0.004l0.12-0.008l0.12-0.017l0.116-0.021l0.116-0.033l0.116-0.033l0.103-0.041l0.108-0.05
		l0.099-0.05l0.087-0.058l0.087-0.058l0.074-0.058l0.065-0.065l-0.003,0.082v0.149l-0.008,0.169l-0.004,0.029h0.029h1.038
		l0.021-0.004l0.004-0.021l0.169-0.918l0.434-2.183L33.809,15.55z M32.321,16.923l-0.017,0.116l-0.021,0.12l-0.017,0.116
		l-0.012,0.045l-0.017,0.05l-0.021,0.05l-0.029,0.05l-0.037,0.054l-0.046,0.05l-0.05,0.054l-0.058,0.046l-0.066,0.049l-0.075,0.041
		L31.779,17.8l-0.091,0.033l-0.095,0.029l-0.107,0.021l-0.116,0.012l-0.124,0.004l-0.07-0.004l-0.07-0.012l-0.07-0.025l-0.062-0.041
		l-0.05-0.062l-0.033-0.083l-0.021-0.112l0.004-0.141l0.012-0.07l0.025-0.066l0.029-0.062l0.037-0.058l0.046-0.054l0.045-0.045
		l0.054-0.045l0.054-0.037l0.054-0.037l0.058-0.029l0.05-0.025l0.054-0.025l0.045-0.017l0.041-0.012l0.033-0.012l0.029-0.004
		l0.041-0.008l0.054-0.012l0.054-0.008l0.062-0.012l0.062-0.008l0.066-0.008l0.066-0.008l0.066-0.008l0.062-0.004h0.062l0.054,0.004
		l0.046,0.004l0.041,0.012l0.029,0.012l0.017,0.021l0.008,0.025L32.321,16.923z"/>
	<polygon fill="none" points="36.452,15.405 36.509,15.405 36.542,15.405 36.555,15.405 36.741,14.343 36.625,14.351 36.514,14.363 
		36.41,14.384 36.311,14.413 36.22,14.446 36.133,14.487 36.05,14.533 35.972,14.582 35.897,14.64 35.827,14.698 35.761,14.764 
		35.695,14.831 35.633,14.901 35.571,14.979 35.509,15.054 35.451,15.137 35.575,14.388 34.413,14.388 33.64,18.817 34.806,18.817 
		35.223,16.464 35.24,16.373 35.265,16.282 35.29,16.191 35.323,16.1 35.364,16.009 35.413,15.922 35.467,15.84 35.533,15.761 
		35.608,15.691 35.691,15.625 35.786,15.562 35.893,15.513 36.013,15.472 36.145,15.438 36.29,15.414 	"/>
	<path fill="none" d="M41.963,18.044l-0.058-0.099l-0.07-0.087l-0.087-0.07l-0.099-0.05l-0.108-0.033l-0.116-0.012l-0.116,0.012
		l-0.108,0.033l-0.099,0.05l-0.087,0.07l-0.07,0.087l-0.058,0.099l-0.033,0.112l-0.012,0.12l0.012,0.12l0.033,0.112l0.058,0.099
		l0.07,0.083l0.087,0.07l0.099,0.054l0.108,0.033l0.116,0.012l0.116-0.012l0.108-0.033l0.099-0.054l0.087-0.07l0.07-0.083
		l0.058-0.099l0.033-0.112l0.012-0.12l-0.012-0.12L41.963,18.044z M41.877,18.374l-0.025,0.091l-0.041,0.079l-0.054,0.07
		l-0.066,0.058l-0.079,0.045l-0.091,0.029l-0.095,0.008l-0.095-0.008l-0.091-0.029l-0.079-0.045l-0.066-0.058l-0.054-0.07L41,18.465
		l-0.025-0.091l-0.008-0.099l0.008-0.099L41,18.085l0.041-0.083l0.054-0.07l0.066-0.058l0.079-0.041l0.091-0.029l0.095-0.008
		l0.095,0.008l0.091,0.029l0.079,0.041l0.066,0.058l0.054,0.07l0.041,0.083l0.025,0.091l0.004,0.074l0.004,0.025L41.877,18.374z"/>
	<path fill="none" d="M41.641,18.093l-0.017-0.025l-0.021-0.025l-0.029-0.016l-0.033-0.012l-0.045-0.008l-0.05-0.004h-0.227v0.248
		v0.252h0.103v-0.207h0.103l0.124,0.207h0.083l-0.124-0.207h0.029l0.029-0.008l0.025-0.008l0.021-0.017l0.017-0.021l0.012-0.025
		l0.008-0.029l0.004-0.037l-0.004-0.029L41.641,18.093z M41.571,18.18l-0.008,0.021l-0.008,0.012l-0.017,0.012l-0.021,0.008
		l-0.025,0.008l-0.029,0.004l-0.037,0.008h-0.103V18.25v-0.161h0.124h0.025h0.021l0.021,0.004l0.021,0.004l0.012,0.008l0.012,0.008
		l0.008,0.017l0.004,0.021V18.18z"/>
	<path fill="none" d="M40.967,23.258v0.012l0.008,0.099L41,23.461l0.041,0.079l0.054,0.07l0.066,0.058l0.079,0.046l0.091,0.029
		l0.095,0.008l0.095-0.008l0.091-0.029l0.079-0.046l0.066-0.058l0.054-0.07l0.041-0.079l0.025-0.091l0.008-0.099v-0.012
		l-0.008-0.087v-0.004l-0.025-0.087l-0.041-0.079l-0.054-0.07l-0.066-0.058l-0.079-0.045l-0.091-0.029l-0.095-0.008l-0.095,0.008
		l-0.091,0.029l-0.079,0.045l-0.066,0.058l-0.054,0.07L41,23.08l-0.025,0.087v0.004L40.967,23.258z M41.219,23.258v-0.091v-0.145
		h0.227h0.05l0.045,0.008l0.033,0.008l0.029,0.016l0.021,0.021l0.017,0.025l0.008,0.029l0.004,0.037l-0.004,0.029l-0.008,0.025
		l-0.012,0.021l-0.017,0.017l-0.021,0.017l-0.025,0.008l-0.029,0.008h-0.029l0.124,0.207H41.55l-0.124-0.207h-0.103v0.207h-0.103
		V23.258z"/>
	<polygon fill="none" points="41.463,23.241 41.492,23.237 41.517,23.229 41.538,23.221 41.554,23.208 41.562,23.196 41.571,23.175 
		41.571,23.167 41.571,23.146 41.566,23.126 41.558,23.109 41.546,23.101 41.533,23.093 41.513,23.088 41.492,23.084 41.471,23.084 
		41.447,23.084 41.323,23.084 41.323,23.167 41.323,23.25 41.426,23.25 	"/>
	<path fill="none" d="M39.884,13.408l-0.289,1.625l-0.025-0.05l-0.033-0.05l-0.037-0.054l-0.041-0.054l-0.05-0.054l-0.054-0.054
		l-0.062-0.054l-0.066-0.05l-0.074-0.045l-0.083-0.046l-0.083-0.037l-0.095-0.033l-0.099-0.029l-0.107-0.021l-0.116-0.012
		l-0.12-0.004l-0.17,0.008l-0.165,0.025l-0.165,0.037l-0.165,0.058l-0.157,0.07l-0.157,0.091l-0.153,0.103l-0.145,0.12l-0.136,0.136
		l-0.128,0.149l-0.124,0.165l-0.108,0.186l-0.103,0.198l-0.087,0.211l-0.074,0.232l-0.062,0.244l-0.037,0.211l-0.021,0.211
		l-0.004,0.215l0.012,0.211l0.033,0.211l0.045,0.203l0.066,0.194l0.083,0.186l0.099,0.174l0.116,0.153l0.132,0.141l0.149,0.12
		l0.165,0.095l0.182,0.07l0.198,0.045l0.215,0.017h0.083l0.083-0.004l0.079-0.008l0.083-0.012l0.083-0.012l0.079-0.021l0.078-0.021
		l0.079-0.029l0.079-0.037l0.074-0.037l0.074-0.045l0.074-0.054l0.074-0.058l0.07-0.066l0.07-0.074l0.066-0.083v0.041l-0.083,0.459
		h1.145l0.934-5.409H39.884z M39.313,16.414l-0.012,0.12L39.28,16.65l-0.021,0.112l-0.029,0.112l-0.033,0.107l-0.041,0.103
		l-0.045,0.099l-0.054,0.095l-0.058,0.091l-0.062,0.083l-0.07,0.075l-0.078,0.07l-0.083,0.062l-0.087,0.05l-0.095,0.045
		l-0.099,0.029l-0.107,0.025l-0.116,0.008l-0.165-0.033l-0.136-0.091l-0.108-0.137l-0.083-0.169l-0.054-0.194l-0.029-0.203
		l-0.008-0.199l0.021-0.182l0.025-0.12l0.033-0.12l0.033-0.112l0.041-0.112l0.046-0.108l0.054-0.099l0.058-0.095l0.062-0.091
		l0.07-0.078l0.07-0.07l0.083-0.066l0.083-0.054l0.095-0.041l0.095-0.033l0.103-0.016l0.112-0.008l0.087,0.008l0.078,0.021
		l0.074,0.033l0.07,0.05l0.062,0.058l0.054,0.066l0.05,0.079l0.041,0.083l0.033,0.095l0.029,0.099l0.017,0.103l0.012,0.108
		l0.004,0.116V16.414z"/>
	<polygon fill="none" points="11.703,17.316 11.736,17.196 11.765,17.059 11.79,16.927 11.81,16.82 11.806,16.799 11.79,16.778 
		11.765,16.766 11.723,16.758 11.678,16.749 11.624,16.745 11.562,16.745 11.5,16.745 11.434,16.749 11.364,16.758 11.298,16.766 
		11.231,16.774 11.169,16.782 11.111,16.795 11.062,16.807 11.017,16.82 10.988,16.828 10.954,16.84 10.909,16.857 10.863,16.877 
		10.81,16.902 10.756,16.931 10.698,16.96 10.644,16.993 10.586,17.035 10.533,17.076 10.483,17.126 10.437,17.175 10.396,17.229 
		10.367,17.287 10.342,17.353 10.33,17.419 10.326,17.56 10.346,17.671 10.388,17.754 10.442,17.816 10.504,17.858 10.574,17.882 
		10.64,17.895 10.706,17.899 10.83,17.895 10.942,17.882 11.05,17.866 11.145,17.841 11.227,17.812 11.306,17.775 11.376,17.738 
		11.438,17.692 11.492,17.651 11.542,17.601 11.583,17.556 11.616,17.506 11.645,17.456 11.67,17.407 11.691,17.361 	"/>
	<polygon fill="none" points="21.706,15.984 21.702,15.885 21.693,15.794 21.677,15.711 21.648,15.633 21.619,15.562 21.577,15.5 
		21.536,15.443 21.486,15.393 21.433,15.352 21.371,15.314 21.309,15.281 21.243,15.257 21.176,15.24 21.106,15.228 21.032,15.219 
		20.953,15.223 20.879,15.236 20.808,15.252 20.738,15.277 20.668,15.31 20.606,15.347 20.544,15.393 20.49,15.443 20.436,15.5 
		20.387,15.562 20.341,15.629 20.304,15.699 20.267,15.773 20.238,15.856 20.213,15.939 20.196,16.026 20.184,16.088 21.697,16.088 
			"/>
	<polygon fill="#FFFFFF" points="18.844,16.464 18.861,16.332 18.885,16.179 18.891,16.15 18.137,16.15 18.178,16.82 18.824,16.82 
		18.824,16.803 	"/>
	<polygon fill="#FFFFFF" points="14.817,15.587 14.837,15.542 14.862,15.496 14.899,15.459 14.941,15.418 14.994,15.385 
		15.052,15.356 15.114,15.331 15.185,15.306 15.263,15.294 15.346,15.281 15.466,15.273 15.573,15.265 15.668,15.261 15.755,15.261 
		15.834,15.265 15.908,15.269 15.974,15.273 16.032,15.281 16.09,15.29 16.144,15.298 16.198,15.306 16.247,15.314 16.301,15.323 
		16.355,15.331 16.413,15.339 16.471,15.343 16.681,14.409 16.648,14.405 16.611,14.396 16.574,14.392 16.533,14.384 16.483,14.376 
		16.429,14.367 16.371,14.355 16.301,14.347 16.227,14.339 16.144,14.33 16.049,14.322 15.945,14.314 15.83,14.31 15.702,14.306 
		15.561,14.301 15.408,14.301 15.164,14.306 14.941,14.322 14.738,14.351 14.552,14.388 14.387,14.434 14.238,14.496 14.105,14.562 
		13.986,14.64 13.882,14.731 13.795,14.835 13.721,14.942 13.655,15.066 13.605,15.199 13.564,15.339 13.535,15.492 13.514,15.653 
		13.51,15.918 13.547,16.141 13.621,16.327 13.725,16.485 13.857,16.613 14.002,16.72 14.159,16.807 14.324,16.882 14.486,16.948 
		14.647,17.006 14.792,17.068 14.916,17.13 15.019,17.2 15.09,17.283 15.127,17.386 15.118,17.506 15.102,17.568 15.081,17.634 
		15.048,17.7 15.007,17.758 14.949,17.816 14.874,17.862 14.779,17.895 14.66,17.919 14.54,17.924 14.42,17.924 14.3,17.919 
		14.18,17.915 14.064,17.903 13.952,17.891 13.845,17.874 13.741,17.858 13.642,17.841 13.551,17.82 13.468,17.804 13.394,17.787 
		13.324,17.771 13.266,17.754 13.22,17.742 13.183,17.733 12.997,18.647 13.067,18.672 13.134,18.697 13.2,18.722 13.27,18.738 
		13.34,18.759 13.419,18.771 13.497,18.788 13.584,18.796 13.679,18.809 13.779,18.817 13.89,18.825 14.014,18.829 14.151,18.833 
		14.296,18.833 14.461,18.837 14.639,18.837 14.767,18.833 14.903,18.825 15.04,18.813 15.181,18.788 15.325,18.755 15.466,18.713 
		15.602,18.66 15.735,18.598 15.863,18.519 15.978,18.428 16.086,18.325 16.181,18.205 16.264,18.068 16.33,17.911 16.38,17.742 
		16.409,17.547 16.425,17.287 16.409,17.064 16.367,16.877 16.301,16.72 16.214,16.592 16.111,16.489 15.995,16.402 15.871,16.332 
		15.739,16.278 15.602,16.228 15.466,16.183 15.333,16.141 15.209,16.096 15.094,16.042 14.994,15.98 14.912,15.902 14.87,15.848 
		14.837,15.794 14.821,15.74 14.808,15.687 14.808,15.637 	"/>
	<polygon fill="#FFFFFF" points="18.493,13.454 18.585,13.454 18.596,13.387 17.451,13.387 16.661,17.899 16.648,18.002 
		16.636,18.097 16.636,18.188 16.64,18.275 16.653,18.354 16.673,18.424 16.702,18.494 16.743,18.552 16.797,18.606 16.868,18.656 
		16.946,18.697 17.041,18.734 17.153,18.763 17.285,18.788 17.43,18.804 17.595,18.817 17.91,18.817 17.98,18.809 18.046,18.8 
		18.108,18.792 18.162,18.784 18.212,18.775 18.261,18.767 18.303,18.759 18.344,18.747 18.381,18.734 18.418,18.722 18.451,18.709 
		18.48,18.697 18.509,18.68 18.538,18.664 18.567,18.647 18.596,18.627 18.741,17.858 18.733,17.862 18.708,17.87 18.671,17.882 
		18.617,17.899 18.551,17.915 18.476,17.928 18.393,17.936 18.303,17.94 18.203,17.932 18.112,17.915 18.03,17.891 17.955,17.862 
		17.901,17.816 17.86,17.762 17.839,17.692 17.843,17.609 18.24,15.302 18.968,15.323 19.117,14.388 18.426,14.388 18.473,14.111 
		18.364,14.111 	"/>
	<path fill="#FFFFFF" d="M20.027,16.902h2.683l0.021-0.252l0.062-0.347l0.029-0.314l-0.004-0.281l-0.033-0.248l-0.058-0.219
		l-0.083-0.19l-0.103-0.165l-0.124-0.141l-0.136-0.116l-0.149-0.099l-0.161-0.074l-0.165-0.062l-0.17-0.041l-0.169-0.029
		l-0.169-0.016l-0.161-0.004L20.8,14.318l-0.298,0.05l-0.269,0.075l-0.24,0.103l-0.207,0.124l-0.182,0.141l-0.161,0.157
		l-0.132,0.165l-0.116,0.174L19.1,15.488l-0.074,0.178l-0.062,0.178l-0.045,0.174l-0.027,0.132l-0.006,0.029l-0.025,0.153
		l-0.016,0.132l-0.021,0.339l0.001,0.016l0.012,0.289l0.045,0.277l0.07,0.244l0.099,0.219l0.12,0.19l0.141,0.17l0.161,0.141
		l0.174,0.12l0.186,0.103l0.194,0.079l0.203,0.062l0.207,0.05l0.207,0.029l0.207,0.021l0.203,0.004h0.137l0.128-0.004h0.112
		l0.107-0.004l0.095-0.008l0.087-0.008l0.083-0.008l0.074-0.012l0.07-0.013l0.066-0.016l0.066-0.021l0.062-0.021l0.062-0.025
		l0.066-0.025l0.066-0.033l0.066-0.033l0.165-1.017l-0.12,0.07l-0.116,0.066l-0.12,0.05L22.094,17.8l-0.112,0.037l-0.116,0.025
		l-0.112,0.021l-0.112,0.017l-0.112,0.008l-0.108,0.004h-0.112l-0.108-0.004l-0.107-0.008l-0.107-0.013l-0.103-0.012l-0.107-0.016
		l-0.083-0.017l-0.083-0.029l-0.083-0.037l-0.074-0.046l-0.074-0.05l-0.066-0.062l-0.062-0.062l-0.058-0.07l-0.05-0.07l-0.045-0.079
		l-0.033-0.074l-0.029-0.079l-0.017-0.079l-0.008-0.078l0.004-0.075L20.027,16.902z M20.196,16.026l0.017-0.087l0.025-0.083
		l0.029-0.083l0.037-0.074l0.037-0.07l0.045-0.066l0.05-0.062l0.054-0.058l0.054-0.05l0.062-0.045l0.062-0.037l0.07-0.033
		l0.07-0.025l0.07-0.017l0.074-0.012l0.079-0.004l0.074,0.008l0.07,0.012l0.066,0.017l0.066,0.025l0.062,0.033l0.062,0.037
		l0.054,0.041l0.05,0.05l0.041,0.058l0.041,0.062l0.029,0.07l0.029,0.079l0.017,0.083l0.008,0.091l0.004,0.099l-0.008,0.103h-1.513
		L20.196,16.026z"/>
	<polygon fill="#FFFFFF" points="41.558,18.114 41.546,18.106 41.533,18.097 41.513,18.093 41.492,18.089 41.471,18.089 
		41.447,18.089 41.323,18.089 41.323,18.25 41.323,18.254 41.426,18.254 41.463,18.246 41.492,18.242 41.517,18.234 41.538,18.226 
		41.554,18.213 41.562,18.201 41.571,18.18 41.571,18.151 41.566,18.13 	"/>
	<path fill="#FFFFFF" d="M41.877,18.176l-0.025-0.091l-0.041-0.083l-0.054-0.07l-0.066-0.058l-0.079-0.041l-0.091-0.029
		l-0.095-0.008l-0.095,0.008l-0.091,0.029l-0.079,0.041l-0.066,0.058l-0.054,0.07L41,18.085l-0.025,0.091l-0.008,0.099l0.008,0.099
		L41,18.465l0.041,0.079l0.054,0.07l0.066,0.058l0.079,0.045l0.091,0.029l0.095,0.008l0.095-0.008l0.091-0.029l0.079-0.045
		l0.066-0.058l0.054-0.07l0.041-0.079l0.025-0.091l0.008-0.099l-0.004-0.025L41.877,18.176z M41.649,18.188l-0.008,0.029
		l-0.012,0.025l-0.017,0.021l-0.021,0.017l-0.025,0.008l-0.029,0.008h-0.029l0.124,0.207H41.55l-0.124-0.207h-0.103v0.207h-0.103
		V18.25v-0.248h0.227l0.05,0.004l0.045,0.008l0.033,0.012l0.029,0.016l0.021,0.025l0.017,0.025l0.008,0.029l0.004,0.029
		L41.649,18.188z"/>
	<polygon fill="#FFFFFF" points="24.332,16.199 24.311,16.286 24.29,16.373 24.274,16.464 24.227,16.738 25.683,16.738 
		25.675,16.609 25.684,16.286 25.711,16.082 24.374,16.082 24.36,16.117 	"/>
	<polygon fill="#FFFFFF" points="39.296,16.079 39.28,15.976 39.251,15.877 39.218,15.782 39.176,15.699 39.127,15.62 
		39.073,15.554 39.011,15.496 38.941,15.447 38.866,15.414 38.788,15.393 38.701,15.385 38.589,15.393 38.486,15.409 38.391,15.443 
		38.296,15.484 38.213,15.538 38.13,15.604 38.06,15.674 37.99,15.753 37.928,15.844 37.87,15.939 37.816,16.038 37.77,16.146 
		37.729,16.257 37.696,16.369 37.663,16.489 37.638,16.609 37.618,16.791 37.626,16.989 37.655,17.192 37.708,17.386 37.791,17.556 
		37.899,17.692 38.035,17.783 38.201,17.816 38.316,17.808 38.424,17.783 38.523,17.754 38.618,17.709 38.705,17.659 38.788,17.597 
		38.866,17.527 38.937,17.452 38.999,17.37 39.056,17.279 39.11,17.183 39.156,17.084 39.197,16.981 39.23,16.873 39.259,16.762 
		39.28,16.65 39.301,16.534 39.313,16.414 39.313,16.303 39.309,16.187 	"/>
	<path fill="#FFFFFF" d="M11.649,18.494l-0.021,0.153L11.6,18.817h1.042l0.165-0.918l0.418-2.183l0.025-0.165v-0.157l-0.025-0.141
		l-0.041-0.132l-0.062-0.124l-0.083-0.112l-0.091-0.099l-0.103-0.091l-0.116-0.079l-0.124-0.07l-0.124-0.058l-0.128-0.05
		l-0.132-0.037l-0.128-0.029l-0.124-0.021l-0.116-0.008l-0.145-0.004l-0.145-0.004h-0.136h-0.132h-0.128l-0.124,0.004l-0.12,0.004
		l-0.116,0.008l-0.112,0.008l-0.107,0.017l-0.107,0.017l-0.099,0.021l-0.099,0.021l-0.099,0.029l-0.091,0.033l-0.091,0.037
		l-0.294,0.997l0.045-0.025l0.058-0.029l0.074-0.025l0.091-0.025l0.099-0.021l0.108-0.021l0.12-0.021l0.124-0.016l0.128-0.017
		l0.132-0.012l0.132-0.012l0.136-0.008l0.132-0.004h0.128l0.124,0.004l0.116,0.004l0.108,0.008l0.099,0.025l0.087,0.037l0.078,0.054
		l0.066,0.062l0.05,0.074l0.037,0.083l0.017,0.091l-0.008,0.079l-0.021,0.087l-0.025,0.075l-0.008,0.029h-0.012l-0.041-0.004
		l-0.058-0.004l-0.074-0.004h-0.091l-0.091-0.004l-0.099-0.004h-0.095h-0.046l-0.058,0.004l-0.062,0.004l-0.066,0.004l-0.066,0.008
		L11,16.009l-0.07,0.008l-0.07,0.008l-0.07,0.008l-0.062,0.008l-0.058,0.004l-0.05,0.008l-0.045,0.004l-0.029,0.004l-0.021,0.004
		h-0.008l-0.145,0.025l-0.141,0.037l-0.137,0.045l-0.132,0.058l-0.124,0.066l-0.12,0.079l-0.116,0.087l-0.103,0.095L9.4,16.662
		l-0.087,0.116l-0.074,0.12L9.172,17.03l-0.054,0.141l-0.041,0.145l-0.025,0.153L9.04,17.63v0.091l0.008,0.091l0.012,0.095
		l0.017,0.095l0.025,0.091l0.033,0.091l0.041,0.091l0.05,0.087l0.058,0.083l0.066,0.079l0.083,0.074l0.091,0.066l0.103,0.062
		l0.116,0.054l0.132,0.041l0.145,0.037l0.112,0.016l0.116,0.013l0.12-0.004l0.12-0.008l0.124-0.016l0.12-0.025l0.12-0.029
		l0.12-0.037l0.112-0.041l0.107-0.05l0.103-0.05l0.099-0.058l0.087-0.058l0.078-0.062l0.066-0.066l0.058-0.066l-0.017,0.062
		L11.649,18.494z M11.67,17.407l-0.025,0.05l-0.029,0.05l-0.033,0.049l-0.041,0.046l-0.05,0.05l-0.054,0.041l-0.062,0.045
		l-0.07,0.037l-0.079,0.037l-0.083,0.029l-0.095,0.025l-0.108,0.016l-0.112,0.012l-0.124,0.004l-0.066-0.004l-0.066-0.012
		l-0.07-0.025l-0.062-0.041l-0.054-0.062l-0.041-0.083l-0.021-0.112l0.004-0.141l0.012-0.066l0.025-0.066l0.029-0.058l0.041-0.054
		l0.046-0.05l0.05-0.05l0.054-0.041l0.058-0.041l0.054-0.033l0.058-0.029l0.054-0.029l0.054-0.025l0.045-0.021l0.045-0.016
		l0.033-0.012l0.029-0.008l0.045-0.012l0.05-0.012l0.058-0.012l0.062-0.008l0.066-0.008l0.066-0.008l0.07-0.008l0.066-0.004h0.062
		h0.062l0.054,0.004l0.045,0.008l0.041,0.008l0.025,0.012l0.016,0.021l0.004,0.021l-0.021,0.108l-0.025,0.132l-0.029,0.137
		l-0.033,0.12l-0.012,0.046L11.67,17.407z"/>
	<polygon fill="#FFFFFF" points="8.498,18.817 9.458,13.387 7.415,13.387 6.063,16.609 5.876,13.387 3.921,13.387 2.982,18.817 
		4.107,18.817 4.793,14.76 4.818,14.76 4.843,14.76 4.855,14.76 4.863,14.959 4.892,15.43 4.93,16.079 4.971,16.82 5.012,17.556 
		5.049,18.197 5.078,18.647 5.087,18.817 6.356,18.817 8.039,14.76 8.085,14.76 7.373,18.817 	"/>
	<polygon fill="#FFFFFF" points="32.304,16.774 32.275,16.762 32.234,16.749 32.188,16.745 32.134,16.741 32.072,16.741 
		32.01,16.745 31.944,16.753 31.878,16.762 31.812,16.77 31.75,16.778 31.688,16.791 31.634,16.799 31.58,16.811 31.539,16.82 
		31.51,16.824 31.477,16.836 31.436,16.848 31.39,16.865 31.336,16.89 31.287,16.915 31.229,16.944 31.175,16.981 31.121,17.018 
		31.067,17.064 31.022,17.109 30.976,17.163 30.939,17.221 30.91,17.283 30.885,17.349 30.873,17.419 30.869,17.56 30.89,17.671 
		30.923,17.754 30.972,17.816 31.034,17.858 31.105,17.882 31.175,17.895 31.245,17.899 31.369,17.895 31.485,17.882 31.593,17.862 
		31.688,17.833 31.779,17.8 31.857,17.762 31.932,17.721 31.998,17.671 32.056,17.626 32.105,17.572 32.151,17.523 32.188,17.469 
		32.217,17.419 32.238,17.37 32.254,17.32 32.267,17.274 32.283,17.159 32.304,17.039 32.321,16.923 32.329,16.82 32.321,16.795 	
		"/>
	<path fill="#FFFFFF" d="M42.762,15.087l-0.045-0.62l-0.078-0.612l-0.108-0.6l-0.136-0.591l-0.165-0.579l-0.194-0.571l-0.219-0.554
		l-0.248-0.542l-0.269-0.529L41,9.381l-0.318-0.5L40.338,8.4l-0.364-0.459L39.59,7.495l-0.409-0.426l-0.426-0.405l-0.447-0.385
		l-0.463-0.364l-0.48-0.343l-0.5-0.318L36.352,4.96l-0.529-0.269l-0.546-0.248l-0.558-0.219L34.148,4.03l-0.583-0.165l-0.591-0.136
		L32.366,3.62l-0.612-0.079l-0.625-0.045L30.497,3.48l-0.629,0.017l-0.624,0.045L28.632,3.62l-0.604,0.107l-0.591,0.136L26.854,4.03
		l-0.567,0.194l-0.558,0.219l-0.542,0.248L24.662,4.96L24.15,5.254l-0.496,0.318l-0.131,0.094l-0.348,0.249L22.71,6.279
		l-0.247,0.214l-0.445-0.386l-0.471-0.37l-0.489-0.349l-0.506-0.324l-0.522-0.299l-0.534-0.273l-0.553-0.253l-0.567-0.222
		L17.8,3.819l-0.594-0.168l-0.602-0.139L15.99,3.403l-0.624-0.08l-0.634-0.046l-0.64-0.017l-0.643,0.017l-0.636,0.047l-0.622,0.08
		l-0.619,0.11l-0.602,0.139l-0.594,0.169L9.795,4.02L9.226,4.244L8.672,4.496L8.133,4.77L7.611,5.069l-0.51,0.325L6.614,5.743
		l-0.471,0.37L5.688,6.505L5.256,6.917L4.838,7.352l-0.39,0.453L4.077,8.273l-0.35,0.49L3.405,9.27L3.101,9.79l-0.273,0.537
		L2.576,10.88l-0.223,0.564l-0.198,0.581l-0.168,0.59l-0.138,0.602l-0.109,0.611l-0.08,0.624l-0.046,0.63l-0.016,0.64l0.017,0.643
		L1.661,17l0.08,0.622l0.11,0.619l0.139,0.602l0.169,0.594l0.198,0.58l0.224,0.569l0.252,0.554l0.275,0.54l0.302,0.52l0.325,0.51
		l0.349,0.488l0.37,0.47l0.393,0.456l0.415,0.432l0.435,0.417l0.454,0.391l0.471,0.37l0.49,0.35l0.508,0.323l0.523,0.304
		l0.538,0.273l0.556,0.253l0.568,0.223l0.581,0.198l0.594,0.168l0.603,0.139l0.618,0.109l0.624,0.08l0.634,0.046l0.638,0.017
		l0.644-0.017l0.636-0.047l0.623-0.08l0.615-0.11l0.602-0.139l0.594-0.169l0.576-0.197l0.57-0.224l0.55-0.252l0.535-0.274
		l0.521-0.303l0.505-0.325l0.487-0.349l0.471-0.371l0.437-0.38l-0.196-0.17l-0.131-0.126l-0.389,0.338l-0.455,0.358l-0.47,0.337
		l-0.488,0.313l-0.503,0.292l-0.517,0.265l-0.53,0.243l-0.549,0.216l-0.555,0.191l-0.572,0.163l-0.581,0.134l-0.593,0.106
		l-0.6,0.077l-0.614,0.045l-0.623,0.016l-0.617-0.016l-0.612-0.044l-0.602-0.077l-0.597-0.105l-0.581-0.134l-0.572-0.162
		l-0.561-0.191l-0.548-0.214L8.87,26.59l-0.519-0.263l-0.505-0.293l-0.49-0.312l-0.472-0.337l-0.456-0.358l-0.438-0.377l-0.42-0.403
		L5.17,23.83l-0.378-0.439l-0.358-0.455l-0.337-0.47l-0.314-0.493l-0.292-0.502l-0.265-0.521l-0.244-0.535l-0.216-0.549l-0.191-0.56
		l-0.163-0.572l-0.134-0.58l-0.106-0.597l-0.077-0.6l-0.045-0.614l-0.016-0.621l0.016-0.618l0.044-0.609l0.077-0.601l0.105-0.589
		l0.134-0.58l0.162-0.568l0.191-0.561l0.215-0.543l0.244-0.534L3.485,10l0.294-0.502l0.312-0.49l0.336-0.471l0.358-0.452
		l0.376-0.438l0.403-0.419L5.982,6.83l0.439-0.378l0.455-0.358l0.47-0.337l0.492-0.313l0.503-0.288l0.521-0.265l0.535-0.244
		l0.549-0.216l0.56-0.191l0.573-0.163l0.58-0.134l0.597-0.106l0.6-0.077l0.614-0.045l0.621-0.017l0.619,0.016l0.612,0.044
		l0.601,0.077l0.593,0.105l0.581,0.134l0.572,0.162l0.558,0.191l0.547,0.215l0.533,0.244l0.516,0.264l0.503,0.288l0.487,0.312
		l0.472,0.337l0.455,0.357l0.285,0.248l0.108,0.1l0.46,0.441l0.282,0.309h-1.45L20.862,8.2h2.59l0.274,0.376l0.332,0.5h-3.78
		l-0.393,0.657h4.586l0.19,0.251l0.249,0.406h-5.463l-0.29,0.657h6.05l0.176,0.476l0.123,0.4h-6.643l-0.207,0.657h7.05l0.027,0.115
		l0.134,0.603l0.024,0.158h-7.309h-0.092l-0.128,0.657h0.109h7.529l0.05,0.38l0.022,0.291l0.019-0.042l0.062-0.128l0.062-0.12
		l0.07-0.116l0.074-0.108l0.074-0.103l0.083-0.099l0.083-0.091l0.087-0.087l0.095-0.083l0.095-0.079l0.099-0.07l0.103-0.066
		l0.112-0.062l0.112-0.054l0.116-0.05l0.12-0.046l0.128-0.041l0.128-0.033l0.132-0.029l0.141-0.025l0.141-0.021l0.149-0.016
		l0.149-0.008l0.157-0.004l0.132,0.004l0.128,0.008l0.124,0.012l0.124,0.017l0.116,0.017l0.112,0.025l0.107,0.021l0.099,0.025
		l0.095,0.025l0.083,0.025l0.078,0.025l0.066,0.025l0.058,0.021l0.05,0.017l0.037,0.016l0.025,0.008l-0.207,1.145l-0.054-0.029
		l-0.054-0.025l-0.058-0.029l-0.062-0.029L29.604,14.5l-0.07-0.025l-0.07-0.025l-0.074-0.025l-0.079-0.021l-0.079-0.016
		l-0.087-0.017l-0.087-0.012l-0.095-0.008l-0.095-0.008h-0.099h-0.103h-0.103l-0.108,0.008l-0.112,0.012l-0.116,0.021l-0.116,0.033
		l-0.116,0.045l-0.116,0.058l-0.116,0.074l-0.112,0.091l-0.108,0.107l-0.103,0.132l-0.099,0.153l-0.091,0.182l-0.087,0.207
		l-0.079,0.232l-0.066,0.265l-0.025,0.149l-0.017,0.145l-0.008,0.145l0.004,0.141l0.012,0.141l0.029,0.132l0.037,0.124l0.046,0.124
		l0.062,0.112l0.074,0.107l0.087,0.095l0.099,0.087l0.112,0.074l0.128,0.062l0.141,0.054l0.157,0.037l0.054,0.012l0.062,0.012
		l0.075,0.008l0.083,0.008l0.091,0.008h0.095h0.103l0.103-0.008l0.107-0.013l0.108-0.021l0.103-0.029l0.103-0.033l0.103-0.046
		l0.095-0.054l0.087-0.066l0.083-0.075l-0.186,1.104l-0.025,0.021l-0.025,0.025l-0.033,0.029l-0.037,0.025l-0.046,0.033
		l-0.058,0.029l-0.066,0.029l-0.074,0.025l-0.095,0.029l-0.107,0.021l-0.124,0.016L28.392,18.8l-0.161,0.008l-0.186,0.004
		l-0.211-0.004l-0.232-0.012l-0.19-0.021l-0.19-0.041l-0.19-0.062l-0.19-0.083L26.66,18.49l-0.174-0.124l-0.165-0.145l-0.153-0.166
		l-0.137-0.186l-0.116-0.207l-0.021-0.049h-1.815l-0.111,0.657h1.868l-0.099,0.461l-0.109,0.415h-6.888l0.207,0.657h6.47
		l-0.028,0.069l-0.215,0.587l-0.08,0.219h-5.831l0.31,0.657h5.203l-0.108,0.168l-0.288,0.448l-0.062,0.041h-4.286l0.418,0.657h3.426
		l-0.141,0.239l-0.358,0.469l-0.133,0.168h-2.169l0.583,0.657h0.975L22.6,24.228l-0.418,0.409l-0.045,0.043l0.131,0.128l0.196,0.171
		l0.247,0.215l0.463,0.364l0.48,0.343l0.496,0.318l0.513,0.298l0.525,0.269l0.542,0.248l0.558,0.219l0.567,0.194l0.583,0.166
		l0.591,0.136l0.604,0.107l0.612,0.078l0.624,0.045l0.629,0.017l0.633-0.017l0.625-0.045l0.612-0.078l0.608-0.107l0.591-0.136
		l0.583-0.166l0.571-0.194l0.558-0.219l0.546-0.248l0.529-0.269l0.513-0.298l0.5-0.318l0.48-0.343l0.463-0.364l0.447-0.385
		l0.426-0.409l0.409-0.426l0.385-0.447l0.364-0.463l0.343-0.48l0.318-0.5l0.298-0.513l0.269-0.529l0.248-0.546l0.219-0.558
		l0.194-0.571l0.165-0.583l0.136-0.591l0.108-0.608l0.078-0.612l0.045-0.624l0.017-0.633L42.762,15.087z M33.354,17.903
		l-0.169,0.918l-0.004,0.021l-0.021,0.004h-1.038h-0.029l0.004-0.029l0.008-0.169v-0.149l0.003-0.082l-0.065,0.065l-0.074,0.058
		l-0.087,0.058l-0.087,0.058l-0.099,0.05l-0.108,0.05l-0.103,0.041l-0.116,0.033l-0.116,0.033l-0.116,0.021l-0.12,0.017l-0.12,0.008
		l-0.116,0.004L30.671,18.9l-0.116-0.017l-0.149-0.037l-0.137-0.041l-0.12-0.054l-0.107-0.066l-0.095-0.066l-0.083-0.079
		l-0.066-0.079l-0.058-0.087l-0.054-0.087l-0.037-0.095l-0.033-0.095l-0.021-0.091l-0.016-0.095l-0.012-0.099l-0.008-0.091
		l-0.004-0.091l0.012-0.161l0.025-0.157l0.037-0.149l0.054-0.141l0.062-0.136l0.083-0.124l0.087-0.116l0.099-0.103l0.107-0.099
		l0.112-0.087l0.124-0.083l0.128-0.066l0.132-0.058l0.136-0.046l0.141-0.037l0.145-0.025h0.008l0.016-0.004l0.033-0.004l0.041-0.004
		l0.054-0.008l0.058-0.004l0.062-0.008l0.066-0.008l0.07-0.008l0.074-0.008l0.07-0.004l0.07-0.008l0.066-0.004l0.058-0.004
		l0.058-0.008h0.046h0.099l0.099,0.008h0.095h0.091l0.079,0.008l0.066,0.004l0.035,0.004l0.002-0.008l0.012-0.074l0.012-0.083
		l0.004-0.079h0.004l-0.017-0.087l-0.033-0.075l-0.05-0.07l-0.058-0.058l-0.07-0.05L32.18,15.36l-0.087-0.025l-0.095-0.004v-0.004
		l-0.116-0.004h-0.124H31.63h-0.132l-0.136,0.008l-0.132,0.012l-0.132,0.012l-0.128,0.017l-0.12,0.016l-0.12,0.021l-0.108,0.021
		l-0.099,0.021l-0.091,0.025L30.36,15.5l-0.054,0.029l-0.041,0.021l-0.041-0.025l0.289-0.997l0.004-0.017l0.012-0.004l0.091-0.037
		l0.095-0.033l0.099-0.029l0.099-0.021l0.103-0.021l0.103-0.016l0.112-0.017l0.112-0.008l0.116-0.008l0.12-0.004l0.12-0.008h0.128
		h0.128h0.132l0.141,0.004l0.141,0.008l0.116,0.008l0.128,0.021l0.128,0.029l0.136,0.037l0.128,0.05l0.132,0.058l0.124,0.074
		l0.12,0.079l0.103,0.091l0.099,0.103l0.083,0.116l0.066,0.128l0.045,0.136l0.029,0.145v0.157l-0.021,0.169L33.354,17.903z
		 M36.013,15.472l-0.12,0.041l-0.108,0.05l-0.095,0.062l-0.083,0.066l-0.074,0.07l-0.066,0.079l-0.054,0.083l-0.05,0.087
		L35.323,16.1l-0.033,0.091l-0.025,0.091l-0.025,0.091l-0.016,0.091l-0.418,2.353H33.64l0.773-4.429h1.162l-0.124,0.748l0.058-0.083
		l0.062-0.074l0.062-0.079l0.062-0.07l0.066-0.066l0.066-0.066l0.07-0.058l0.074-0.058l0.079-0.05l0.083-0.045l0.087-0.041
		l0.091-0.033l0.099-0.029l0.103-0.021l0.112-0.012l0.116-0.008l-0.186,1.063h-0.012h-0.033h-0.058l-0.161,0.008l-0.145,0.025
		L36.013,15.472z M40.074,18.817h-1.145l0.083-0.459v-0.041l-0.066,0.083l-0.07,0.074l-0.07,0.066l-0.074,0.058l-0.074,0.054
		l-0.074,0.045l-0.074,0.037l-0.079,0.037L38.349,18.8l-0.078,0.021l-0.079,0.021l-0.083,0.012l-0.083,0.012l-0.079,0.008
		l-0.083,0.004h-0.083l-0.215-0.017l-0.198-0.045l-0.182-0.07l-0.165-0.095l-0.149-0.12l-0.132-0.141l-0.116-0.153l-0.099-0.174
		l-0.083-0.186l-0.066-0.194l-0.045-0.203l-0.033-0.211l-0.012-0.211l0.004-0.215l0.021-0.211l0.037-0.211l0.062-0.244l0.074-0.232
		l0.087-0.211l0.103-0.198l0.108-0.186l0.124-0.165l0.128-0.149l0.136-0.136l0.145-0.12l0.153-0.103l0.157-0.091l0.157-0.07
		l0.165-0.058l0.165-0.037l0.165-0.025l0.17-0.008l0.12,0.004l0.116,0.012l0.107,0.021l0.099,0.029l0.095,0.033l0.083,0.037
		l0.083,0.046l0.074,0.045l0.066,0.05l0.062,0.054l0.054,0.054l0.05,0.054l0.041,0.054l0.037,0.054l0.033,0.05l0.025,0.05
		l0.289-1.625h1.125L40.074,18.817z M41.997,18.395l-0.033,0.112l-0.058,0.099l-0.07,0.083l-0.087,0.07l-0.099,0.054l-0.108,0.033
		l-0.116,0.012l-0.116-0.012l-0.108-0.033l-0.099-0.054l-0.087-0.07l-0.07-0.083l-0.058-0.099l-0.033-0.112l-0.012-0.12l0.012-0.12
		l0.033-0.112l0.058-0.099l0.07-0.087l0.087-0.07l0.099-0.05l0.108-0.033l0.116-0.012l0.116,0.012l0.108,0.033l0.099,0.05
		l0.087,0.07l0.07,0.087l0.058,0.099l0.033,0.112l0.012,0.12L41.997,18.395z"/>
	<polygon fill="#FFFFFF" points="24.227,16.738 24.274,16.464 24.29,16.373 24.311,16.286 24.332,16.199 24.36,16.117 
		24.374,16.082 24.394,16.034 24.435,15.955 24.484,15.881 24.542,15.811 24.608,15.749 24.683,15.687 24.774,15.637 24.873,15.591 
		24.989,15.554 25.117,15.521 25.258,15.5 25.419,15.488 25.431,15.488 25.448,15.492 25.469,15.496 25.489,15.496 25.51,15.5 
		25.527,15.505 25.539,15.509 25.543,15.509 25.547,15.492 25.56,15.443 25.576,15.368 25.597,15.277 25.626,15.17 25.655,15.054 
		25.692,14.938 25.729,14.822 25.762,14.744 25.804,14.665 25.845,14.587 25.886,14.516 25.923,14.454 25.952,14.405 25.973,14.376 
		25.981,14.363 25.977,14.363 25.961,14.359 25.94,14.355 25.911,14.351 25.882,14.351 25.849,14.347 25.82,14.343 25.791,14.343 
		25.663,14.351 25.547,14.363 25.44,14.384 25.34,14.409 25.245,14.442 25.158,14.483 25.08,14.525 25.006,14.574 24.935,14.628 
		24.869,14.69 24.807,14.752 24.745,14.822 24.683,14.893 24.625,14.971 24.563,15.054 24.501,15.137 24.65,14.388 23.463,14.388 
		22.69,18.817 23.856,18.817 23.877,18.817 23.969,18.271 24.079,17.614 	"/>
	<polygon fill="#FFFFFF" points="41.997,23.15 41.963,23.043 41.906,22.948 41.835,22.865 41.749,22.799 41.649,22.749 
		41.542,22.72 41.426,22.708 41.31,22.72 41.203,22.749 41.103,22.799 41.017,22.865 40.946,22.948 40.888,23.043 40.855,23.15 
		40.855,23.167 40.975,23.167 41,23.08 41.041,23.002 41.095,22.931 41.161,22.873 41.24,22.828 41.331,22.799 41.426,22.791 
		41.521,22.799 41.612,22.828 41.691,22.873 41.757,22.931 41.811,23.002 41.852,23.08 41.877,23.167 41.877,23.171 41.885,23.258 
		41.885,23.27 41.877,23.37 41.852,23.461 41.811,23.539 41.757,23.609 41.691,23.667 41.612,23.713 41.521,23.742 41.426,23.75 
		41.331,23.742 41.24,23.713 41.161,23.667 41.095,23.609 41.041,23.539 41,23.461 40.975,23.37 40.967,23.27 40.967,23.258 
		40.843,23.258 40.843,23.27 40.855,23.39 40.888,23.502 40.946,23.601 41.017,23.688 41.103,23.758 41.203,23.808 41.31,23.841 
		41.426,23.853 41.542,23.841 41.649,23.808 41.749,23.758 41.835,23.688 41.906,23.601 41.963,23.502 41.997,23.39 42.009,23.27 
		42.009,23.258 41.997,23.167 	"/>
	<polygon fill="#F9B41D" points="40.975,23.171 40.975,23.167 40.855,23.167 40.843,23.258 40.967,23.258 	"/>
	<path fill="#FFFFFF" d="M41.323,23.291h0.103l0.124,0.207h0.083l-0.124-0.207h0.029l0.029-0.008l0.025-0.008l0.021-0.017
		l0.017-0.017l0.012-0.021l0.008-0.025l0.004-0.029l-0.004-0.037l-0.008-0.029l-0.017-0.025l-0.021-0.021l-0.029-0.016l-0.033-0.008
		l-0.045-0.008h-0.05h-0.227v0.145v0.091v0.24h0.103V23.291z M41.323,23.167v-0.083h0.124h0.025h0.021l0.021,0.004l0.021,0.004
		l0.012,0.008l0.012,0.008l0.008,0.016l0.004,0.021v0.021v0.008l-0.008,0.021l-0.008,0.012l-0.017,0.012l-0.021,0.008l-0.025,0.008
		l-0.029,0.004l-0.037,0.008h-0.103V23.167z"/>
</g>
</svg>
