<?xml version="1.0" encoding="utf-8"?>
<!-- Generator: Adobe Illustrator 18.1.1, SVG Export Plug-In . SVG Version: 6.00 Build 0)  -->
<svg version="1.1" id="Слой_1" xmlns="http://www.w3.org/2000/svg" xmlns:xlink="http://www.w3.org/1999/xlink" x="0px" y="0px"
	 viewBox="0 0 28 32" enable-background="new 0 0 28 32" xml:space="preserve">
<g>
	<path d="M14,15.317c-2.622,0-4.738,2.138-4.738,4.76c0,2.622,2.116,4.738,4.738,4.738c2.601,0,4.738-2.115,4.738-4.738
		C18.738,17.454,16.6,15.317,14,15.317z M14,24.242c-2.291,0-4.143-1.873-4.143-4.165c0-2.314,1.851-4.187,4.143-4.187
		s4.143,1.873,4.143,4.187C18.143,22.368,16.292,24.242,14,24.242z"/>
	<path d="M3.841,15.273c0.948-0.375,1.829-0.771,2.777-1.168c0,0,0-0.022,0.022-0.022c0.397-0.198,0.661-0.419,0.749-0.727
		c0.088-0.331,0-0.617-0.11-1.014c-0.11-0.463-0.154-0.749-0.088-1.014c0.088-0.264,0.286-0.551,0.749-0.948
		c1.432-1.278,3.592-1.388,5.62-1.388c0.286,0,0.573,0,0.859,0h0.022c2.028,0,4.187,0.11,5.62,1.388
		c0.463,0.397,0.661,0.683,0.727,0.948c0.088,0.265,0.044,0.551-0.088,1.014c-0.088,0.397-0.199,0.683-0.088,1.014
		c0.088,0.308,0.353,0.529,0.749,0.727c0.022,0,0.022,0.022,0.022,0.022c0.948,0.397,1.829,0.793,2.777,1.168
		c0.661,0.264,1.3,0.154,1.696-0.242c0.397-0.419,0.573-1.014,0.617-1.697c0.154-3.328-2.402-7.691-8.352-8.55
		c-0.904-0.11-2.358-0.198-3.592-0.22c-0.044-0.022-0.066-0.022-0.088-0.022c-0.132,0-0.286,0-0.441,0s-0.309,0-0.441,0
		c-0.044,0-0.066,0-0.088,0.022c-1.234,0.022-2.688,0.11-3.591,0.22c-5.95,0.859-8.529,5.223-8.374,8.55
		c0.044,0.683,0.22,1.278,0.639,1.697C2.541,15.427,3.158,15.537,3.841,15.273z M9.946,5.378c0.881-0.132,2.38-0.22,3.614-0.242
		c0.022,0,0.044,0,0.066,0c0.111,0,0.242,0,0.375,0c0.111,0,0.242,0,0.353,0c0.022,0,0.044,0,0.066,0
		c1.256,0.022,2.755,0.11,3.636,0.242c5.663,0.815,7.977,4.936,7.823,7.933c-0.022,0.573-0.198,1.058-0.441,1.3
		c-0.242,0.242-0.551,0.331-1.058,0.11c-0.948-0.353-1.807-0.749-2.755-1.146c-0.331-0.198-0.419-0.286-0.463-0.397
		c-0.022-0.088,0-0.308,0.11-0.683c0.132-0.485,0.198-0.903,0.088-1.322c-0.11-0.419-0.419-0.793-0.904-1.234h-0.022
		c-1.63-1.454-3.945-1.542-5.994-1.542h-0.022c-0.286,0-0.573,0-0.859,0c-2.049,0-4.363,0.088-6.016,1.542
		c-0.485,0.441-0.793,0.815-0.904,1.234c-0.132,0.419-0.066,0.837,0.066,1.322c0.11,0.375,0.154,0.595,0.11,0.683
		c-0.022,0.11-0.11,0.198-0.463,0.397c-0.926,0.397-1.807,0.793-2.732,1.146c-0.529,0.22-0.815,0.132-1.08-0.11
		c-0.242-0.242-0.419-0.727-0.441-1.3C1.946,10.315,4.282,6.194,9.946,5.378z"/>
	<path d="M27.111,24.704l-1.873-6.699c-0.397-1.477-1.895-2.622-3.416-2.622H20.17l-0.771-3.68c-0.022-0.088-0.088-0.176-0.176-0.22
		c-1.454-0.683-3.195-0.727-4.782-0.727h-0.022c-0.286,0-0.573,0-0.859,0c-1.587,0-3.328,0.044-4.804,0.727
		c-0.066,0.044-0.132,0.132-0.154,0.22l-0.771,3.68H6.177c-1.542,0-3.019,1.146-3.438,2.622l-1.851,6.699
		c-0.22,0.727-0.088,1.432,0.286,1.939c0.375,0.507,1.036,0.816,1.785,0.816h4.077h1.102h11.723h2.226h2.953
		c0.749,0,1.388-0.309,1.785-0.816C27.2,26.136,27.332,25.431,27.111,24.704z M26.363,26.291c-0.265,0.353-0.727,0.573-1.323,0.573
		h-2.953h-2.226H8.139H7.037H2.96c-0.617,0-1.058-0.221-1.322-0.573c-0.265-0.353-0.353-0.837-0.198-1.432l1.873-6.699
		c0.331-1.19,1.631-2.182,2.865-2.182h1.896c0.132,0,0.264-0.088,0.286-0.242l0.793-3.768c1.3-0.551,2.886-0.639,4.407-0.639
		c0.286,0,0.573,0,0.859,0h0.022c1.521,0,3.108,0.088,4.407,0.639l0.793,3.768c0.022,0.154,0.132,0.242,0.286,0.242h1.895
		c1.212,0,2.534,0.992,2.865,2.182l1.873,6.699C26.715,25.454,26.627,25.938,26.363,26.291z"/>
</g>
</svg>
