<?xml version="1.0" encoding="utf-8"?>
<!-- Generator: Adobe Illustrator 18.1.1, SVG Export Plug-In . SVG Version: 6.00 Build 0)  -->
<svg version="1.1" id="Слой_1" xmlns="http://www.w3.org/2000/svg" xmlns:xlink="http://www.w3.org/1999/xlink" x="0px" y="0px"
	 viewBox="0 0 21.125 32" enable-background="new 0 0 21.125 32" xml:space="preserve">
<g>
	<path d="M19.822,19.514c-0.111-0.211-0.201-0.435-0.324-0.638c-0.186-0.308-0.419-0.584-0.664-0.846
		c-0.099-0.106-0.212-0.2-0.322-0.296c-0.141-0.124-0.277-0.256-0.43-0.365c-0.242-0.172-0.488-0.339-0.744-0.492
		c-0.27-0.162-0.552-0.301-0.848-0.404c-0.319-0.109-0.637-0.217-0.973-0.274c-0.213-0.036-0.427-0.077-0.641-0.116
		c-0.08-0.015-0.166-0.009-0.24-0.031c-0.151-0.046-0.307-0.051-0.461-0.078c-0.171-0.031-0.344-0.06-0.516-0.09
		c-0.266-0.046-0.516-0.136-0.76-0.242c-0.284-0.123-0.559-0.27-0.814-0.447c-0.149-0.103-0.301-0.203-0.433-0.333
		c-0.201-0.198-0.379-0.413-0.542-0.641c-0.056-0.076-0.102-0.159-0.152-0.24c-0.012-0.022-0.016-0.049-0.025-0.073
		c-0.008,0.027-0.018,0.053-0.024,0.08c-0.007,0.032-0.018,0.065-0.016,0.098c0.007,0.183-0.011,0.367,0.023,0.551
		c0.03,0.158,0.06,0.315,0.103,0.469c0.007,0.027,0.015,0.055,0.02,0.082c0.006,0.031-0.011,0.044-0.041,0.042
		c-0.029-0.001-0.064,0.01-0.088-0.002c-0.122-0.058-0.26,0.008-0.38-0.056c-0.206,0.003-0.405-0.051-0.606-0.087
		c-0.227-0.041-0.451-0.093-0.671-0.159c-0.308-0.092-0.612-0.201-0.904-0.338c-0.306-0.143-0.606-0.296-0.897-0.471
		c-0.37-0.222-0.715-0.473-1.034-0.758c-0.303-0.271-0.587-0.565-0.827-0.9c-0.213-0.296-0.405-0.603-0.57-0.927
		c-0.064-0.125-0.116-0.255-0.179-0.381c-0.105-0.214-0.183-0.44-0.263-0.663c-0.051-0.141-0.083-0.288-0.125-0.431
		C4.384,9.814,4.334,9.567,4.287,9.318C4.262,9.183,4.255,9.045,4.228,8.909c-0.014-0.076,0-0.157-0.005-0.236
		C4.219,8.598,4.196,8.523,4.198,8.447C4.205,8.21,4.177,7.972,4.221,7.734C4.245,7.612,4.228,7.485,4.25,7.36
		c0.033-0.181,0.056-0.365,0.089-0.547c0.034-0.185,0.088-0.365,0.138-0.545C4.545,6.021,4.641,5.782,4.75,5.549
		c0.106-0.231,0.221-0.456,0.36-0.67c0.198-0.306,0.417-0.596,0.669-0.86C5.922,3.869,6.085,3.74,6.245,3.606
		c0.238-0.198,0.497-0.363,0.772-0.502c0.108-0.055,0.218-0.108,0.331-0.152C7.513,2.887,7.676,2.819,7.851,2.78
		c0.189-0.042,0.372-0.108,0.567-0.115c0.07-0.049,0.152-0.017,0.226-0.031c0.075-0.014,0.149-0.03,0.227-0.029
		C9.239,2.61,9.607,2.594,9.973,2.661c0.13,0.024,0.264,0.036,0.393,0.065c0.174,0.039,0.348,0.076,0.518,0.128
		c0.272,0.083,0.542,0.177,0.8,0.298c0.366,0.171,0.725,0.357,1.06,0.585c0.193,0.131,0.379,0.271,0.567,0.411
		c0.229,0.172,0.418,0.387,0.641,0.565c0.063,0.05,0.104,0.126,0.162,0.184c0.143,0.144,0.274,0.299,0.401,0.458
		c0.187,0.234,0.363,0.475,0.524,0.729c0.202,0.318,0.387,0.644,0.54,0.988c0.157,0.355,0.29,0.717,0.395,1.092
		c0.071,0.254,0.131,0.509,0.174,0.769c0.012,0.076,0.006,0.157,0.03,0.225c0.027,0.073,0.016,0.143,0.025,0.213
		c0.01,0.076,0.027,0.151,0.027,0.226c0.003,0.319,0.001,0.639,0.002,0.958c0.001,0.116-0.02,0.231-0.036,0.343
		c-0.021,0.148-0.039,0.299-0.08,0.445c-0.039,0.14-0.062,0.284-0.098,0.425c-0.022,0.084-0.051,0.092-0.12,0.043
		c-0.171-0.119-0.354-0.214-0.55-0.283c-0.205-0.072-0.412-0.137-0.634-0.134c-0.015,0-0.032,0.005-0.043,0
		c-0.152-0.078-0.302,0.037-0.453,0.001c-0.071,0.044-0.157,0.03-0.232,0.059c-0.008,0.003-0.015,0.01-0.022,0.016
		c0.008,0.005,0.016,0.014,0.024,0.014c0.14,0,0.279,0.005,0.419,0.025c0.118,0.017,0.236,0.039,0.344,0.079
		c0.188,0.069,0.375,0.141,0.548,0.249c0.199,0.124,0.39,0.257,0.563,0.414c0.191,0.172,0.358,0.365,0.497,0.583
		c0.132,0.206,0.256,0.414,0.329,0.651c0.041,0.129,0.093,0.255,0.108,0.392c0.003,0.029,0.029,0.055,0.043,0.083
		c0.017-0.017,0.035-0.034,0.053-0.051c0.013-0.014,0.029-0.027,0.04-0.043c0.132-0.207,0.286-0.399,0.414-0.611
		c0.129-0.213,0.261-0.425,0.374-0.647c0.117-0.229,0.236-0.457,0.322-0.701c0.047-0.132,0.095-0.263,0.153-0.39
		c0.085-0.184,0.132-0.38,0.184-0.572c0.051-0.184,0.101-0.371,0.132-0.563c0.025-0.153,0.055-0.306,0.084-0.459
		c0.018-0.091,0.007-0.186,0.032-0.27c0.024-0.078,0.015-0.152,0.024-0.228c0.009-0.075,0.029-0.151,0.027-0.227
		c-0.011-0.37,0.025-0.741-0.022-1.112c-0.023-0.179-0.034-0.361-0.061-0.541c-0.025-0.168-0.051-0.336-0.092-0.501
		c-0.052-0.209-0.096-0.42-0.161-0.626c-0.11-0.352-0.246-0.694-0.398-1.031c-0.115-0.253-0.248-0.496-0.393-0.73
		c-0.27-0.435-0.574-0.846-0.923-1.221c-0.156-0.168-0.32-0.327-0.494-0.478c-0.211-0.183-0.425-0.359-0.649-0.526
		c-0.315-0.235-0.65-0.439-0.996-0.621c-0.17-0.089-0.347-0.166-0.521-0.245c-0.111-0.05-0.22-0.103-0.336-0.139
		c-0.383-0.12-0.76-0.264-1.159-0.334c-0.133-0.023-0.269-0.046-0.4-0.082c-0.08-0.023-0.166-0.01-0.239-0.034
		c-0.084-0.026-0.17,0.002-0.241-0.028c-0.089-0.039-0.173-0.011-0.258-0.025c-0.111,0-0.221,0-0.331,0
		c-0.024,0-0.049,0.006-0.053-0.029c-0.197,0-0.393,0-0.59,0c-0.004,0.035-0.029,0.029-0.053,0.029c-0.111,0-0.22,0-0.331,0
		c-0.144,0.01-0.291,0.009-0.433,0.034C9.372,0.989,9.198,1.01,9.027,1.044C8.916,1.066,8.804,1.08,8.694,1.109
		C8.477,1.164,8.259,1.221,8.046,1.288c-0.333,0.105-0.664,0.224-0.98,0.376c-0.27,0.129-0.541,0.26-0.802,0.409
		C5.984,2.232,5.72,2.414,5.454,2.594c-0.3,0.202-0.572,0.436-0.837,0.677c-0.3,0.271-0.58,0.563-0.833,0.881
		c-0.165,0.205-0.329,0.41-0.476,0.628C3.141,5.025,2.978,5.273,2.84,5.537C2.732,5.744,2.625,5.952,2.532,6.168
		C2.376,6.528,2.238,6.893,2.128,7.271C2.063,7.496,2.007,7.724,1.96,7.952C1.931,8.09,1.895,8.229,1.889,8.374
		C1.886,8.448,1.886,8.532,1.86,8.599C1.83,8.678,1.847,8.752,1.836,8.828C1.826,8.903,1.81,8.978,1.809,9.054
		c-0.003,0.329-0.001,0.659-0.002,0.988c0,0.135,0.048,0.267,0.029,0.403c0,0.005-0.002,0.012,0,0.014
		c0.046,0.05,0.022,0.111,0.03,0.168c0.007,0.056,0.021,0.111,0.028,0.168c0.012,0.085,0.009,0.174,0.033,0.255
		c0.034,0.117,0.052,0.238,0.086,0.355c0.047,0.166,0.091,0.333,0.139,0.499c0.034,0.117,0.082,0.229,0.121,0.343
		c0.071,0.203,0.146,0.404,0.242,0.596c0.124,0.247,0.245,0.497,0.386,0.735c0.133,0.224,0.278,0.441,0.443,0.645
		c0.155,0.191,0.31,0.381,0.48,0.559c0.093,0.098,0.202,0.182,0.299,0.276c0.163,0.157,0.342,0.295,0.521,0.434
		c0.297,0.229,0.613,0.429,0.941,0.608c0.275,0.15,0.556,0.289,0.847,0.409c0.111,0.046,0.222,0.099,0.337,0.136
		c0.333,0.107,0.66,0.233,1.001,0.317c0.168,0.041,0.335,0.088,0.504,0.126c0.111,0.025,0.223,0.039,0.334,0.06
		c0.116,0.022,0.235,0.026,0.351,0.057c0.077,0.02,0.16,0.025,0.24,0.031c0.081,0.005,0.164,0.025,0.241,0.024
		c0.2-0.002,0.396,0.043,0.596,0.035c0.277-0.011,0.555,0.024,0.832-0.025c0.122-0.022,0.248-0.012,0.374-0.027
		c0.194-0.023,0.384-0.059,0.576-0.093c0.166-0.029,0.329-0.071,0.492-0.119c0.148-0.043,0.297-0.086,0.448-0.117
		c0.176-0.036,0.355-0.052,0.532-0.088c0.07-0.014,0.147,0,0.22-0.004c0.071-0.005,0.142-0.027,0.212-0.025
		c0.257,0.007,0.515-0.023,0.773,0.023c0.122,0.022,0.248,0.011,0.374,0.027c0.194,0.023,0.384,0.062,0.576,0.091
		c0.202,0.03,0.4,0.075,0.592,0.132c0.285,0.084,0.571,0.176,0.841,0.303c0.314,0.148,0.628,0.297,0.922,0.484
		c0.439,0.279,0.837,0.609,1.211,0.969c0.07,0.067,0.125,0.148,0.193,0.217c0.188,0.192,0.354,0.401,0.465,0.647
		c0.04,0.088,0.094,0.13,0.19,0.114c0-0.059,0-0.118,0-0.177C19.795,19.607,19.842,19.552,19.822,19.514z"/>
	<path d="M17.028,22.015c-0.202-0.001-0.403-0.001-0.605,0c-0.1,0-0.174,0.045-0.189,0.139c-0.027,0.173-0.082,0.338-0.122,0.508
		c-0.052,0.22-0.109,0.438-0.165,0.656c-0.052,0.2-0.107,0.399-0.157,0.599c-0.063,0.256-0.12,0.513-0.183,0.769
		c-0.066,0.265-0.134,0.529-0.202,0.792c-0.026,0.095-0.057,0.188-0.087,0.282c-0.003,0.009-0.013,0.017-0.021,0.025
		c-0.003-0.008-0.007-0.017-0.01-0.026c-0.071-0.272-0.163-0.538-0.245-0.807c-0.098-0.318-0.199-0.635-0.298-0.952
		c-0.097-0.313-0.197-0.626-0.293-0.939c-0.075-0.241-0.153-0.482-0.227-0.724c-0.02-0.068-0.049-0.131-0.061-0.203
		c-0.016-0.093-0.057-0.119-0.148-0.12c-0.089-0.001-0.177,0.005-0.265-0.002c-0.073-0.005-0.108,0.027-0.127,0.09
		c-0.02,0.068-0.038,0.136-0.058,0.203c-0.094,0.304-0.19,0.608-0.283,0.913c-0.093,0.305-0.184,0.61-0.277,0.915
		c-0.067,0.22-0.13,0.441-0.201,0.659c-0.102,0.312-0.189,0.628-0.291,0.94c-0.004,0.011-0.016,0.02-0.025,0.029
		c-0.011-0.011-0.029-0.021-0.033-0.035c-0.041-0.154-0.08-0.309-0.119-0.464c-0.053-0.215-0.104-0.429-0.157-0.644
		c-0.066-0.26-0.132-0.519-0.198-0.779c-0.043-0.173-0.079-0.349-0.13-0.52c-0.075-0.247-0.128-0.501-0.194-0.75
		c-0.039-0.145-0.075-0.291-0.118-0.435c-0.033-0.113-0.046-0.12-0.161-0.12c-0.133-0.001-0.266,0-0.398,0
		c-0.143,0-0.285-0.002-0.428,0c-0.107,0.002-0.151,0.07-0.119,0.174c0.014,0.045,0.031,0.088,0.044,0.133
		c0.067,0.234,0.133,0.469,0.199,0.704c0.042,0.149,0.084,0.298,0.126,0.447c0.066,0.234,0.132,0.469,0.2,0.704
		c0.05,0.175,0.103,0.351,0.153,0.526c0.069,0.239,0.135,0.479,0.203,0.717c0.05,0.176,0.102,0.352,0.151,0.527
		c0.067,0.235,0.133,0.47,0.198,0.705c0.053,0.19,0.103,0.38,0.158,0.57c0.034,0.117,0.073,0.232,0.11,0.348
		c0.025,0.08,0.077,0.114,0.164,0.11c0.127-0.006,0.255-0.001,0.383-0.002c0.111-0.001,0.133-0.014,0.166-0.119
		c0.027-0.085,0.043-0.174,0.071-0.258c0.116-0.342,0.218-0.687,0.325-1.032c0.108-0.344,0.222-0.686,0.324-1.032
		c0.079-0.269,0.169-0.536,0.255-0.804c0.029-0.089,0.059-0.178,0.089-0.267c0.002-0.009,0.008-0.017,0.012-0.025
		c0.006,0.006,0.014,0.011,0.017,0.018c0.011,0.031,0.02,0.063,0.03,0.093c0.115,0.337,0.23,0.674,0.343,1.012
		c0.211,0.631,0.42,1.262,0.63,1.894c0.041,0.124,0.073,0.253,0.12,0.374c0.025,0.062,0.047,0.144,0.14,0.145
		c0.162,0.001,0.324,0,0.487,0c0.027,0,0.036-0.013,0.052-0.036c0.068-0.096,0.078-0.212,0.112-0.318
		c0.054-0.164,0.104-0.332,0.146-0.499c0.086-0.352,0.196-0.696,0.292-1.044c0.041-0.149,0.084-0.298,0.125-0.447
		c0.059-0.208,0.12-0.415,0.175-0.623c0.046-0.173,0.096-0.343,0.147-0.514c0.099-0.338,0.174-0.683,0.277-1.019
		c0.088-0.287,0.148-0.581,0.255-0.863c0.021-0.057,0.027-0.12,0.029-0.182C17.148,22.027,17.135,22.016,17.028,22.015z"/>
	<path d="M6.634,29.126c-0.211-0.064-0.422-0.12-0.628-0.202c-0.414-0.165-0.773-0.396-1.039-0.757
		c-0.087-0.118-0.157-0.247-0.206-0.385c-0.016-0.047,0.002-0.085,0.052-0.102c0.35-0.12,0.639-0.334,0.9-0.59
		c0.052-0.05,0.093-0.111,0.14-0.166c0.194-0.225,0.338-0.48,0.435-0.759c0.063-0.181,0.122-0.363,0.159-0.555
		c0.031-0.163,0.064-0.328,0.073-0.49c0.021-0.371,0.008-0.741-0.076-1.109c-0.055-0.24-0.125-0.472-0.227-0.694
		c-0.1-0.217-0.229-0.414-0.382-0.6c-0.13-0.159-0.283-0.287-0.445-0.408c-0.141-0.105-0.294-0.185-0.457-0.252
		c-0.275-0.113-0.562-0.166-0.855-0.185c-0.144-0.009-0.289,0.002-0.434,0.022c-0.118,0.017-0.234,0.034-0.349,0.064
		c-0.242,0.064-0.473,0.156-0.682,0.295c-0.214,0.142-0.405,0.306-0.568,0.508c-0.199,0.248-0.339,0.522-0.442,0.818
		c-0.052,0.147-0.109,0.292-0.119,0.449c-0.047,0.054-0.014,0.124-0.032,0.182c-0.041,0.124-0.036,0.254-0.053,0.381
		c-0.011,0.087-0.002,0.177-0.002,0.304c0.016,0.11-0.002,0.258,0.02,0.41c0.028,0.178,0.058,0.355,0.094,0.532
		c0.043,0.22,0.128,0.424,0.224,0.62c0.085,0.173,0.196,0.335,0.32,0.489c0.194,0.241,0.428,0.424,0.696,0.569
		c0.233,0.126,0.477,0.222,0.744,0.256c0.06,0.007,0.117,0.041,0.143,0.111c0.073,0.194,0.193,0.361,0.326,0.515
		c0.117,0.136,0.247,0.261,0.391,0.373c0.174,0.135,0.359,0.248,0.551,0.352c0.206,0.112,0.426,0.195,0.65,0.265
		c0.202,0.063,0.404,0.128,0.617,0.15c0.084,0.058,0.186,0.015,0.279,0.052c0.061,0.025,0.145,0.018,0.209-0.025
		c0.048-0.031,0.112-0.064,0.126-0.109c0.015-0.05,0.078-0.113,0.009-0.172C6.793,29.178,6.711,29.149,6.634,29.126z M4.262,27.095
		c-0.154,0.044-0.314,0.091-0.476,0.024c-0.393-0.041-0.648-0.285-0.857-0.589c-0.163-0.236-0.252-0.503-0.299-0.785
		c-0.024-0.136-0.039-0.274-0.063-0.409c-0.029-0.156-0.018-0.31-0.022-0.464c-0.005-0.157-0.016-0.317,0.004-0.471
		c0.039-0.308,0.079-0.617,0.199-0.91c0.073-0.179,0.152-0.349,0.292-0.484c0.102-0.096,0.197-0.195,0.32-0.27
		c0.187-0.116,0.381-0.161,0.596-0.166c0.253-0.005,0.48,0.064,0.682,0.211c0.142,0.104,0.259,0.232,0.356,0.38
		c0.147,0.224,0.232,0.472,0.293,0.729c0.033,0.138,0.044,0.283,0.067,0.423c0.031,0.185,0.011,0.369,0.023,0.516
		c0,0.11,0.006,0.184-0.001,0.258c-0.008,0.091,0.017,0.182-0.02,0.274c-0.032,0.079,0.016,0.174-0.037,0.254
		c-0.004,0.173-0.065,0.332-0.116,0.494c-0.069,0.216-0.174,0.406-0.321,0.579C4.713,26.886,4.508,27.025,4.262,27.095z"/>
	<path d="M19.487,22.015c-0.29-0.001-0.58-0.001-0.87,0c-0.088,0-0.13,0.039-0.142,0.126c-0.004,0.029-0.001,0.059-0.001,0.089
		c0,1.745,0,3.49,0,5.235c0,0.029-0.003,0.059,0.001,0.089c0.011,0.082,0.053,0.125,0.129,0.125c0.29,0.002,0.58,0.002,0.87,0
		c0.068,0,0.115-0.049,0.119-0.118c0.002-0.034,0.001-0.069,0.001-0.103c0-0.865,0-1.73,0-2.595c0-0.88,0-1.76,0-2.64
		c0-0.039,0.004-0.079-0.002-0.118C19.583,22.045,19.547,22.015,19.487,22.015z"/>
	<path d="M8.975,27.679c0.069,0,0.113-0.049,0.118-0.119c0.002-0.039,0.001-0.079,0.001-0.118c0-0.865,0-1.73,0-2.595
		c0-0.157,0-0.315,0-0.472c0-0.732,0-1.464-0.001-2.197c0-0.133-0.03-0.163-0.162-0.163c-0.261,0-0.521-0.001-0.782,0
		c-0.109,0-0.146,0.039-0.148,0.148c-0.001,0.02,0,0.039,0,0.059c0,1.75,0,3.5,0,5.25c0,0.029-0.002,0.059,0,0.088
		c0.004,0.069,0.049,0.118,0.119,0.118C8.405,27.68,8.69,27.68,8.975,27.679z"/>
	<path d="M11.271,29.165c-0.057-0.068-0.17-0.055-0.23,0.026c-0.104,0.142-0.203,0.288-0.307,0.429
		c-0.231,0.315-0.464,0.63-0.696,0.945c-0.007,0.009-0.012,0.02-0.019,0.03c-0.004-0.013-0.011-0.027-0.011-0.04
		c-0.001-0.417-0.001-0.835-0.001-1.252c0-0.034,0.001-0.069-0.001-0.103c-0.002-0.045-0.026-0.07-0.071-0.073
		c-0.034-0.002-0.069-0.004-0.103,0c-0.057,0.007-0.088,0.045-0.088,0.103c-0.001,0.29,0,0.58,0,0.87c0,0.28,0,0.56,0,0.84
		c0,0.029-0.002,0.059,0,0.088c0.003,0.044,0.029,0.07,0.074,0.071C9.871,31.1,9.925,31.095,9.979,31.1
		c0.043,0.004,0.065-0.019,0.084-0.047c0.126-0.173,0.252-0.347,0.375-0.521c0.188-0.263,0.373-0.528,0.56-0.791
		c0.007-0.01,0.021-0.016,0.032-0.024c0.003,0.014,0.01,0.027,0.01,0.041c0.001,0.388,0.001,0.776,0.001,1.164
		c0,0.034-0.001,0.068,0,0.103c0.001,0.046,0.028,0.069,0.072,0.073c0.029,0.002,0.058,0.001,0.088,0
		c0.057-0.001,0.095-0.033,0.102-0.089c0.004-0.029,0-0.059,0-0.089c0-0.54,0-1.081,0-1.621c0-0.02,0.004-0.04-0.001-0.059
		C11.295,29.215,11.288,29.185,11.271,29.165z"/>
	<path d="M12.958,30.069c-0.02-0.009-0.04-0.016-0.061-0.024c0.012-0.019,0.02-0.049,0.038-0.055
		c0.09-0.032,0.132-0.112,0.175-0.183c0.089-0.146,0.055-0.37-0.046-0.478c-0.117-0.125-0.262-0.185-0.415-0.196
		c-0.197-0.014-0.397-0.034-0.595,0.021c-0.097,0.027-0.1,0.022-0.1,0.12c-0.001,0.275,0,0.55,0,0.825
		c0,0.275-0.001,0.55,0.001,0.825c0,0.041-0.001,0.095,0.023,0.121c0.029,0.031,0.082,0.041,0.126,0.054
		c0.022,0.007,0.048,0.002,0.073,0.002c0.123,0,0.246,0.001,0.369,0.001c0.101,0,0.201,0.001,0.3-0.029
		c0.152-0.047,0.29-0.107,0.377-0.252c0.053-0.088,0.049-0.181,0.059-0.276C13.303,30.343,13.126,30.142,12.958,30.069z
		 M12.33,29.329c0.039,0.004,0.078,0,0.13,0c0.085-0.011,0.176,0.005,0.261,0.059c0.074,0.047,0.113,0.109,0.119,0.198
		c0.008,0.127-0.009,0.243-0.124,0.319c-0.071,0.048-0.157,0.061-0.24,0.071c-0.061,0.008-0.125-0.002-0.188-0.004
		c-0.003-0.062-0.01-0.124-0.011-0.186c-0.002-0.132,0-0.264-0.002-0.396C12.276,29.353,12.279,29.324,12.33,29.329z M12.889,30.767
		c-0.013,0.018-0.038,0.027-0.057,0.04c-0.111,0.076-0.235,0.098-0.367,0.089c-0.058-0.004-0.116-0.005-0.175-0.007
		c-0.004-0.062-0.011-0.124-0.012-0.186c-0.002-0.058-0.001-0.117-0.001-0.176c0-0.103,0.004-0.206-0.002-0.309
		c-0.003-0.057,0.02-0.063,0.068-0.063c0.143,0,0.286-0.003,0.422,0.06C12.947,30.3,13.025,30.58,12.889,30.767z"/>
	<path d="M15.375,30.097c0-0.246,0.001-0.491-0.001-0.737c0-0.067-0.007-0.134-0.012-0.202c-0.068-0.002-0.136-0.002-0.204-0.007
		c-0.048-0.003-0.08,0.012-0.107,0.055c-0.052,0.084-0.11,0.166-0.169,0.247c-0.198,0.274-0.398,0.546-0.597,0.82
		c-0.052,0.073-0.101,0.149-0.153,0.222c-0.007,0.009-0.025,0.012-0.039,0.013c-0.004,0-0.013-0.014-0.014-0.022
		c-0.002-0.029-0.001-0.059-0.001-0.089c0-0.363,0-0.727,0-1.09c0-0.161,0-0.161-0.166-0.156c-0.01,0-0.02,0-0.029,0
		c-0.03-0.001-0.043,0.014-0.041,0.044c0.001,0.02,0,0.039,0,0.059c0,0.569,0,1.139,0,1.709c0,0.02,0,0.039,0,0.059
		c0,0.047,0.027,0.068,0.07,0.075c0.106,0.018,0.17-0.03,0.225-0.117c0.073-0.117,0.156-0.227,0.237-0.339
		c0.147-0.205,0.293-0.41,0.442-0.614c0.089-0.124,0.181-0.246,0.274-0.368c0.009-0.012,0.028-0.018,0.042-0.027
		c0.002,0.014,0.007,0.028,0.007,0.042c0.001,0.417,0.001,0.835,0.001,1.252c0,0.034-0.004,0.069,0.002,0.103
		c0.003,0.021,0.02,0.054,0.034,0.056c0.056,0.006,0.115,0.01,0.168-0.003c0.047-0.011,0.033-0.064,0.033-0.102
		C15.375,30.686,15.375,30.392,15.375,30.097z"/>
	<path d="M8.681,30.174c-0.119-0.156-0.12-0.183,0.001-0.331C8.843,29.647,9,29.448,9.157,29.247
		c0.016-0.019,0.026-0.057,0.017-0.077c-0.008-0.02-0.042-0.039-0.067-0.043C9.01,29.112,8.923,29.13,8.865,29.22
		c-0.02,0.032-0.042,0.063-0.065,0.093c-0.155,0.195-0.311,0.39-0.467,0.585c-0.006,0.007-0.015,0.013-0.022,0.019
		c-0.006-0.011-0.016-0.022-0.016-0.034c-0.002-0.211-0.001-0.422-0.002-0.633c0-0.053-0.039-0.12-0.08-0.123
		c-0.057-0.004-0.117-0.003-0.173,0.009c-0.038,0.008-0.07,0.029-0.07,0.089c0.006,0.295,0.003,0.589,0.003,0.884
		s-0.001,0.589,0,0.884c0,0.086,0.017,0.103,0.098,0.105c0.039,0.001,0.078,0.001,0.117,0c0.061,0,0.097-0.029,0.105-0.087
		c0.004-0.029,0-0.059,0-0.088c0-0.231,0-0.461,0-0.692c0-0.014,0.007-0.027,0.011-0.041c0.011,0.007,0.025,0.011,0.032,0.021
		c0.038,0.054,0.072,0.111,0.111,0.164c0.137,0.189,0.288,0.37,0.41,0.568c0.085,0.14,0.193,0.171,0.338,0.157
		c0.041-0.004,0.079-0.005,0.099-0.044c0.018-0.035-0.005-0.062-0.026-0.091C9.071,30.703,8.879,30.436,8.681,30.174z"/>
	<path d="M14.536,14.139c-0.01,0-0.02,0.001-0.029,0c-0.216-0.026-0.396,0.184-0.399,0.392c-0.001,0.091,0.017,0.176,0.046,0.265
		c0.076,0.235,0.365,0.426,0.579,0.407c0.167-0.015,0.36-0.179,0.376-0.344c0.015-0.151-0.005-0.296-0.088-0.427
		C14.908,14.253,14.76,14.133,14.536,14.139z"/>
	<path d="M16.129,13.574c-0.059-0.026-0.115-0.041-0.161-0.005c-0.048,0.038-0.07,0.107-0.058,0.167
		c0.019,0.095,0.052,0.188,0.087,0.28c0.034,0.091,0.071,0.183,0.119,0.268c0.04,0.073,0.074,0.153,0.164,0.188
		c0.075,0.029,0.09,0.029,0.129-0.033c0.041-0.066,0.028-0.139,0.03-0.211c0.018-0.131-0.05-0.323-0.122-0.445
		C16.269,13.705,16.227,13.618,16.129,13.574z"/>
</g>
</svg>
