<?xml version="1.0" encoding="utf-8"?>
<!-- Generator: Adobe Illustrator 18.1.1, SVG Export Plug-In . SVG Version: 6.00 Build 0)  -->
<svg version="1.1" id="Слой_1" xmlns="http://www.w3.org/2000/svg" xmlns:xlink="http://www.w3.org/1999/xlink" x="0px" y="0px"
	 viewBox="0 0 23 32" enable-background="new 0 0 23 32" xml:space="preserve">
<g>
	<path d="M11.697,8.621c-0.412,0-0.812,0.042-1.199,0.125c-0.389,0.083-0.869,0.25-1.441,0.5l0.289,0.625
		c0.416-0.203,0.805-0.35,1.164-0.441c0.359-0.091,0.744-0.137,1.156-0.137c0.708,0,1.279,0.195,1.715,0.586
		c0.435,0.391,0.652,0.917,0.652,1.578c0,0.406-0.081,0.766-0.242,1.078c-0.162,0.313-0.43,0.628-0.805,0.945l-0.711,0.617
		c-0.526,0.464-0.887,0.898-1.082,1.305s-0.293,0.93-0.293,1.57v0.289h0.641v-0.109c0-0.505,0.04-0.885,0.121-1.141
		c0.08-0.255,0.211-0.499,0.391-0.73c0.18-0.231,0.436-0.488,0.77-0.77c0.291-0.245,0.557-0.473,0.797-0.684
		c0.239-0.211,0.443-0.43,0.613-0.656c0.169-0.227,0.301-0.473,0.395-0.738s0.141-0.575,0.141-0.93c0-0.896-0.273-1.6-0.82-2.113
		C13.4,8.878,12.65,8.621,11.697,8.621z"/>
	<path d="M11.267,18.832c-0.417,0-0.625,0.256-0.625,0.766c0,0.512,0.208,0.766,0.625,0.766c0.427,0,0.641-0.254,0.641-0.766
		C11.908,19.087,11.694,18.832,11.267,18.832z"/>
	<path d="M16.636,4.833h-9.77c-3.192,0-5.79,2.597-5.79,5.79v7.334c-0.012,0.916-0.031,8.959,3.002,9.21l0.031,0.001
		c0.347,0,0.399-0.323,0.449-0.636c0.207-1.295,0.657-2.78,2.308-2.78h9.77c3.192,0,5.79-2.598,5.79-5.79v-7.339
		C22.426,7.43,19.828,4.833,16.636,4.833z M21.676,17.961c0,2.779-2.261,5.04-5.04,5.04h-9.77c-2.432,0-2.889,2.427-3.036,3.337
		c-1.524-0.682-2.043-5.376-2.004-8.377v-7.339c0-2.779,2.261-5.04,5.04-5.04h9.77c2.779,0,5.04,2.261,5.04,5.04V17.961z"/>
</g>
</svg>
