<?xml version="1.0" encoding="utf-8"?>
<!-- Generator: Adobe Illustrator 18.1.1, SVG Export Plug-In . SVG Version: 6.00 Build 0)  -->
<svg version="1.1" id="Слой_1" xmlns="http://www.w3.org/2000/svg" xmlns:xlink="http://www.w3.org/1999/xlink" x="0px" y="0px"
	 viewBox="0 0 32.25 32" enable-background="new 0 0 32.25 32" xml:space="preserve">
<g>
	<path d="M15.078,14.382c1.03,0,1.868-0.838,1.868-1.868c0-1.03-0.838-1.867-1.868-1.867s-1.868,0.838-1.868,1.867
		C13.21,13.544,14.048,14.382,15.078,14.382z M15.078,11.593c0.517,0,0.922,0.404,0.922,0.921s-0.405,0.922-0.922,0.922
		s-0.922-0.405-0.922-0.922S14.561,11.593,15.078,11.593z"/>
	<path d="M25.539,4.37c-0.595,0-1.152,0.229-1.57,0.646c-0.417,0.418-0.647,0.975-0.647,1.57c0,0.595,0.23,1.152,0.647,1.569
		c0.417,0.417,0.975,0.647,1.57,0.647c0.595,0,1.153-0.23,1.57-0.647c0.865-0.865,0.865-2.273,0-3.14
		C26.691,4.6,26.134,4.37,25.539,4.37z M26.443,7.49c-0.242,0.242-0.563,0.374-0.904,0.374s-0.662-0.133-0.904-0.374
		c-0.242-0.241-0.374-0.562-0.374-0.904s0.133-0.662,0.374-0.904c0.237-0.237,0.558-0.367,0.904-0.367
		c0.346,0,0.667,0.13,0.904,0.367c0.242,0.242,0.374,0.563,0.374,0.904S26.684,7.249,26.443,7.49z"/>
	<path d="M30.617,1.519c-0.526-0.525-1.266-0.635-1.812-0.635l-11.484,0.24c-0.122,0.001-0.237,0.048-0.326,0.134L1.347,16.905
		c-0.219,0.218-0.339,0.511-0.339,0.823c0,0.312,0.121,0.605,0.339,0.823l12.226,12.226c0.218,0.218,0.511,0.339,0.823,0.339
		c0.312,0,0.605-0.12,0.823-0.339l15.635-15.645c0.09-0.085,0.143-0.201,0.148-0.328l0.24-11.499
		C31.242,2.546,31.026,1.927,30.617,1.519z M30.039,14.597L14.534,30.101c-0.088,0.088-0.211,0.088-0.299,0L2.01,17.886
		c-0.044-0.044-0.066-0.099-0.066-0.157c0-0.058,0.024-0.114,0.068-0.157L17.527,2.068L28.686,1.83
		c0.491,0.003,0.978,0.144,1.189,0.354c0.208,0.208,0.381,0.644,0.383,1.119L30.039,14.597z"/>
	<path d="M21.006,16.241H9.161c-0.03,0-0.059-0.009-0.088-0.007c-0.26,0.025-0.452,0.253-0.428,0.514
		c0.024,0.245,0.227,0.459,0.472,0.459c0.015,0,0.03,0.028,0.033,0.028H21.01c0.257,0,0.469-0.24,0.473-0.497
		c0.002-0.127-0.046-0.254-0.133-0.345C21.262,16.302,21.143,16.241,21.006,16.241z"/>
	<path d="M15.078,19.016c-1.03,0-1.868,0.838-1.868,1.867c0,1.03,0.838,1.868,1.868,1.868s1.868-0.838,1.868-1.868
		C16.945,19.853,16.107,19.016,15.078,19.016z M15.078,21.805c-0.517,0-0.922-0.405-0.922-0.922c0-0.517,0.405-0.922,0.922-0.922
		S16,20.366,16,20.883C16,21.4,15.595,21.805,15.078,21.805z"/>
</g>
</svg>
