<?xml version="1.0" encoding="utf-8"?>
<!-- Generator: Adobe Illustrator 18.1.1, SVG Export Plug-In . SVG Version: 6.00 Build 0)  -->
<svg version="1.1" id="Слой_1" xmlns="http://www.w3.org/2000/svg" xmlns:xlink="http://www.w3.org/1999/xlink" x="0px" y="0px"
	 viewBox="0 0 22.875 32" enable-background="new 0 0 22.875 32" xml:space="preserve">
<path d="M21.711,25.783l-8.307-8.308c1.12-1.271,1.805-2.933,1.805-4.756c0-3.976-3.234-7.21-7.21-7.21
	c-3.977,0-7.211,3.234-7.211,7.21c0,3.976,3.234,7.21,7.211,7.21c1.793,0,3.432-0.662,4.695-1.75l8.31,8.31L21.711,25.783z M8,18.93
	c-3.425,0-6.211-2.786-6.211-6.21S4.575,6.51,8,6.51c3.424,0,6.21,2.786,6.21,6.21S11.423,18.93,8,18.93z"/>
</svg>
