<?xml version="1.0" encoding="utf-8"?>
<!-- Generator: Adobe Illustrator 18.1.1, SVG Export Plug-In . SVG Version: 6.00 Build 0)  -->
<svg version="1.1" id="Слой_1" xmlns="http://www.w3.org/2000/svg" xmlns:xlink="http://www.w3.org/1999/xlink" x="0px" y="0px"
	 viewBox="0 0 46.75 32" enable-background="new 0 0 46.75 32" xml:space="preserve">
<g>
	<path d="M22.389,9.214c-1.1,0.004-2.2,0.004-3.3,0.001c-0.084,0-0.115,0.021-0.124,0.111c-0.01,0.1-0.064,0.196-0.076,0.297
		c-0.034,0.29-0.057,0.582-0.086,0.873c-0.004,0.038-0.015,0.076-0.029,0.112c-0.133,0.342-0.159,0.708-0.21,1.066
		c-0.033,0.234-0.146,0.461-0.09,0.707c-0.159,0.176-0.006,0.414-0.094,0.578c-0.105,0.196-0.069,0.405-0.143,0.602
		c-0.077,0.204-0.013,0.467-0.108,0.656c-0.113,0.225,0.002,0.471-0.142,0.687c-0.064,0.097,0.022,0.29-0.039,0.392
		c-0.091,0.151-0.021,0.293-0.053,0.434c-0.028,0.126-0.059,0.251-0.081,0.378c-0.039,0.22-0.117,0.436-0.088,0.665
		c-0.119,0.075-0.06,0.196-0.08,0.297c-0.019,0.1-0.063,0.196-0.079,0.297c-0.054,0.335-0.1,0.672-0.148,1.006
		c-0.034,0.233-0.061,0.48-0.119,0.701c-0.062,0.239,0,0.503-0.147,0.72c0.012,0.453-0.188,0.88-0.166,1.334
		c0.002,0.038-0.007,0.079-0.018,0.116c-0.073,0.25-0.149,0.499-0.146,0.764c0.003,0.246,0.002,0.249,0.229,0.249
		c0.495,0.001,0.99,0,1.485,0c0.522,0,1.045,0.002,1.567-0.001c0.201-0.001,0.262-0.055,0.265-0.256
		c0.003-0.214,0.081-0.413,0.104-0.624c0.02-0.179,0.015-0.378,0.078-0.54c0.051-0.132,0.053-0.254,0.071-0.384
		c0.018-0.127,0.079-0.253,0.074-0.378c-0.007-0.154,0.057-0.281,0.086-0.421c0.029-0.139-0.05-0.3,0.085-0.419
		c-0.005-0.318,0.125-0.613,0.158-0.922c0.042-0.393,0.078-0.786,0.177-1.167c0.054-0.208,0.035-0.431,0.098-0.62
		c0.045-0.134,0.04-0.258,0.063-0.385c0.026-0.14,0.054-0.28,0.082-0.42c0.026-0.126,0.079-0.253,0.078-0.378
		c-0.006-0.427,0.162-0.828,0.17-1.252c0.167-0.197,0.05-0.454,0.15-0.68c0.096-0.219,0.065-0.494,0.1-0.743
		c0.014-0.1,0.062-0.196,0.078-0.296c0.017-0.106-0.026-0.244,0.028-0.316c0.08-0.107,0.037-0.208,0.059-0.31
		c0.021-0.099,0.065-0.195,0.079-0.296c0.034-0.249,0.014-0.515,0.098-0.745c0.068-0.187,0.008-0.386,0.088-0.539
		c0.071-0.137,0.042-0.26,0.064-0.387c0.025-0.14,0.057-0.279,0.081-0.42C22.534,9.264,22.508,9.214,22.389,9.214z"/>
	<path d="M32.671,17.699c0.009-0.474-0.165-0.884-0.422-1.269c-0.211-0.315-0.452-0.594-0.746-0.845
		c-0.362-0.308-0.744-0.579-1.157-0.803c-0.571-0.31-1.163-0.58-1.732-0.898c-0.289-0.161-0.524-0.363-0.74-0.596
		c-0.208-0.225-0.196-0.672,0.014-0.895c0.144-0.154,0.306-0.278,0.501-0.379c0.481-0.251,1.005-0.252,1.518-0.315
		c0.094-0.012,0.198,0.076,0.295,0.072c0.456-0.021,0.898,0.064,1.332,0.177c0.295,0.076,0.597,0.139,0.877,0.269
		c0.101,0.047,0.207,0.085,0.311,0.126c0.038-0.122,0.08-0.242,0.111-0.366c0.013-0.051-0.005-0.111,0.004-0.164
		c0.057-0.388,0.115-0.777,0.178-1.164c0.012-0.074,0.054-0.144,0.067-0.219c0.039-0.232,0.064-0.467,0.113-0.697
		c0.01-0.046,0.059-0.072-0.001-0.119c-0.082-0.065-0.143-0.137-0.267-0.161c-0.125-0.025-0.285-0.026-0.372-0.084
		c-0.154-0.102-0.33-0.046-0.483-0.142c-0.123-0.076-0.301-0.066-0.455-0.092c-0.167-0.028-0.334-0.067-0.503-0.08
		c-0.177-0.014-0.357-0.001-0.536-0.004c-0.066-0.001-0.147,0.01-0.195-0.023c-0.178-0.123-0.371-0.025-0.554-0.059
		c-0.074,0.114-0.191,0.076-0.296,0.083c-0.319,0.02-0.635-0.009-0.959,0.069c-0.388,0.093-0.784,0.164-1.173,0.259
		c-0.25,0.061-0.492,0.164-0.711,0.272c-0.224,0.111-0.455,0.241-0.674,0.375c-0.266,0.163-0.471,0.386-0.716,0.562
		c-0.394,0.283-0.658,0.667-0.873,1.074c-0.183,0.346-0.365,0.716-0.341,1.136c-0.246,0.418,0.053,0.833,0.004,1.25
		c0.191,0.332,0.272,0.727,0.529,1.016c0.505,0.57,1.075,1.069,1.763,1.415c0.674,0.338,1.374,0.624,1.99,1.071
		c0.375,0.272,0.658,0.587,0.582,1.092c-0.04,0.268-0.209,0.471-0.403,0.637c-0.122,0.105-0.29,0.156-0.438,0.23
		c-0.141,0.07-0.314,0.068-0.439,0.131c-0.179,0.089-0.346,0.029-0.514,0.057c-0.167,0.028-0.334,0.073-0.502,0.077
		c-0.126,0.003-0.251-0.063-0.379-0.074c-0.229-0.019-0.469,0.016-0.688-0.037c-0.228-0.056-0.464-0.045-0.688-0.127
		c-0.239-0.087-0.5-0.121-0.734-0.218c-0.339-0.142-0.696-0.245-1.018-0.43c-0.064-0.037-0.134-0.032-0.136,0.071
		c-0.007,0.252-0.14,0.491-0.083,0.749c-0.179,0.179-0.039,0.427-0.149,0.641c-0.102,0.198-0.047,0.471-0.106,0.698
		c-0.046,0.178-0.061,0.358-0.104,0.534c-0.038,0.157-0.023,0.243,0.106,0.256c0.223,0.022,0.388,0.235,0.63,0.177
		c0.114,0.151,0.286,0.029,0.417,0.089c0.47,0.212,0.988,0.192,1.479,0.31c0.208,0.05,0.438-0.002,0.658,0.011
		c0.223,0.014,0.445,0.079,0.667,0.073c0.277-0.008,0.552-0.065,0.838-0.102c0.474,0.149,0.898-0.194,1.37-0.139
		c0.463-0.181,0.958-0.267,1.404-0.496c0.735-0.375,1.392-0.841,1.878-1.529c0.425-0.603,0.637-1.267,0.653-1.999
		C32.673,18.056,32.667,17.878,32.671,17.699z"/>
	<path d="M45.04,21.402c-0.053-0.187-0.061-0.38-0.123-0.567c-0.117-0.352-0.244-0.717-0.266-1.082
		c-0.029-0.49-0.282-0.929-0.267-1.421c-0.164-0.274-0.179-0.596-0.225-0.893c-0.054-0.335-0.23-0.65-0.182-1.001
		c-0.146-0.263-0.161-0.566-0.241-0.848c-0.081-0.286-0.093-0.592-0.179-0.877c-0.053-0.177-0.059-0.358-0.104-0.533
		c-0.075-0.299-0.162-0.597-0.214-0.901c-0.067-0.396-0.178-0.781-0.254-1.175c-0.014-0.074-0.074-0.142-0.077-0.214
		c-0.015-0.356-0.185-0.686-0.168-1.045c-0.172-0.098-0.035-0.296-0.149-0.438c-0.093-0.115-0.045-0.333-0.106-0.488
		c-0.061-0.154-0.065-0.306-0.079-0.464c-0.014-0.153-0.13-0.238-0.285-0.238c-0.509,0-1.018-0.008-1.527,0.002
		c-0.512,0.01-1.023-0.036-1.536,0.071c-0.348,0.072-0.939,0.372-1.135,0.737c-0.146,0.271-0.366,0.516-0.45,0.802
		c-0.098,0.337-0.246,0.642-0.393,0.953c-0.146,0.311-0.255,0.637-0.433,0.936c-0.149,0.25-0.2,0.545-0.335,0.811
		c-0.2,0.395-0.336,0.823-0.545,1.217c-0.042,0.079-0.1,0.154-0.124,0.238c-0.152,0.529-0.42,1.009-0.637,1.51
		c-0.162,0.374-0.387,0.725-0.505,1.11c-0.07,0.225-0.196,0.415-0.268,0.634c-0.072,0.216-0.179,0.42-0.276,0.628
		c-0.038,0.081-0.105,0.151-0.129,0.235c-0.151,0.515-0.435,0.973-0.609,1.482c-0.152,0.442-0.393,0.855-0.606,1.274
		c-0.047,0.094,0.032,0.232-0.108,0.285c0.024,0.04,0.043,0.083,0.074,0.115c0.013,0.013,0.053,0.002,0.08,0.002
		c1.128,0,2.256,0,3.383,0.001c0.097,0,0.142-0.012,0.196-0.129c0.236-0.522,0.392-1.075,0.636-1.593
		c0.114-0.242,0.089-0.258,0.312-0.258c1.031-0.001,2.063-0.001,3.094,0.001c0.077,0,0.155,0.021,0.23,0.04
		c0.25,0.062,0.51,0.091,0.744-0.014c0.14-0.062,0.189,0.019,0.226,0.085c0.056,0.097,0.107,0.221,0.095,0.327
		c-0.018,0.171,0.088,0.304,0.09,0.462c0.002,0.172,0.103,0.32,0.095,0.503c-0.005,0.139,0.126,0.28,0.145,0.427
		c0.017,0.128,0.053,0.154,0.171,0.152c0.495-0.006,0.99-0.002,1.485-0.002c0.509,0,1.018-0.001,1.527,0.001
		c0.077,0,0.157-0.012,0.124-0.102C45.122,21.91,45.109,21.648,45.04,21.402z M40.779,17.783c-0.247-0.006-0.495,0.144-0.742,0.144
		c-0.207,0-0.413,0-0.619,0c-0.453,0-0.907-0.145-1.36-0.147c-0.074,0-0.113-0.133-0.055-0.249c0.178-0.35,0.31-0.726,0.433-1.097
		c0.116-0.352,0.275-0.684,0.398-1.032c0.271-0.766,0.608-1.508,0.852-2.285c0.011-0.036,0.023-0.075,0.045-0.105
		c0.022-0.03,0.062-0.074,0.084-0.069c0.034,0.007,0.072,0.047,0.087,0.083c0.057,0.129,0.085,0.279,0.099,0.407
		c0.037,0.326,0.137,0.638,0.185,0.96c0.046,0.302,0.188,0.597,0.221,0.891c0.039,0.342,0.15,0.663,0.203,0.998
		c0.047,0.297,0.076,0.612,0.218,0.896c0.044,0.088-0.025,0.3,0.022,0.384C40.918,17.683,40.927,17.788,40.779,17.783z"/>
	<path d="M17.455,9.449c0.081-0.188,0.045-0.231-0.164-0.231c-1.045-0.001-2.09-0.001-3.136,0c-0.394,0-0.397-0.001-0.537,0.359
		c-0.069,0.178-0.113,0.366-0.181,0.544c-0.18,0.475-0.343,0.959-0.555,1.42c-0.283,0.613-0.511,1.248-0.747,1.877
		c-0.26,0.69-0.574,1.359-0.798,2.063c-0.1,0.314-0.27,0.605-0.368,0.919c-0.099,0.317-0.244,0.615-0.352,0.929
		c-0.072,0.21-0.144,0.436-0.268,0.631c-0.021,0.034-0.057,0.059-0.086,0.088c-0.014-0.034-0.033-0.068-0.042-0.103
		c-0.075-0.299-0.146-0.6-0.221-0.899c-0.097-0.389-0.315-0.723-0.498-1.072c-0.158-0.301-0.381-0.561-0.57-0.84
		c-0.324-0.476-0.676-0.923-1.091-1.318c-0.493-0.468-0.941-0.98-1.473-1.412c-0.359-0.292-0.738-0.552-1.103-0.834
		c-0.028-0.022-0.095-0.046-0.103-0.036c-0.029,0.037-0.049,0.086-0.056,0.132c-0.008,0.053-0.012,0.115,0.008,0.161
		c0.145,0.343,0.189,0.716,0.314,1.066c0.116,0.325,0.21,0.659,0.283,1.002c0.099,0.472,0.271,0.933,0.401,1.402
		c0.184,0.665,0.388,1.331,0.593,1.988c0.213,0.681,0.385,1.386,0.621,2.061c0.198,0.567,0.313,1.18,0.495,1.754
		c0.1,0.316,0.228,0.668,0.26,1.008c0.017,0.181,0.107,0.485,0.289,0.486c0.55,0.001,1.1,0.335,1.65,0.335c0.083,0,0.165,0,0.248,0
		c0.509,0,1.018-0.34,1.526-0.33c0.114,0.002,0.22-0.296,0.231-0.374c0.043-0.292,0.256-0.548,0.336-0.813
		c0.176-0.576,0.478-1.117,0.694-1.674c0.036-0.095,0.1-0.19,0.135-0.285c0.165-0.441,0.326-0.887,0.533-1.311
		c0.128-0.263,0.287-0.521,0.368-0.798c0.112-0.384,0.293-0.734,0.448-1.096c0.16-0.374,0.31-0.752,0.469-1.127
		c0.045-0.105,0.119-0.199,0.162-0.304c0.173-0.424,0.293-0.876,0.519-1.269c0.288-0.502,0.378-1.089,0.718-1.561
		c0.106-0.532,0.398-0.992,0.599-1.485C17.149,10.151,17.303,9.799,17.455,9.449z"/>
	<path d="M6.599,11.76c0.032,0.02,0.059,0.048,0.089,0.07c2.508,3.186,2.929,3.752,2.993,3.867c0.003,0.011,0.006,0.023,0.009,0.034
		c0.014-0.033,0.029-0.066,0.049-0.11c-0.019-0.043-0.038-0.087-0.057-0.131c-0.003,0.007-0.009,0.015-0.013,0.023
		c-0.014-0.021-0.028-0.042-0.042-0.063c0.009-0.014,0.015-0.028,0.014-0.041c-0.012-0.128,0.022-0.252-0.069-0.385
		c-0.071-0.104,0.035-0.29-0.094-0.41c0.032-0.31-0.111-0.584-0.17-0.876c-0.058-0.293-0.089-0.584-0.153-0.877
		c-0.091-0.417-0.181-0.826-0.27-1.242c-0.097-0.45-0.169-0.887-0.305-1.333c-0.074-0.243-0.15-0.112-0.331-0.294
		C7.946,9.69,7.585,9.927,7.16,9.927c-0.028,0-0.056,0-0.084,0c-0.838,0-1.676,0-2.513,0c-0.454,0-0.907,0-1.36,0
		c0.057,0.024,0.116,0.042,0.171,0.07c0.317,0.16,0.66,0.265,0.981,0.416c0.369,0.175,0.725,0.377,1.083,0.572
		C5.85,11.21,6.203,11.514,6.599,11.76z"/>
	<path d="M1.477,9.447C1.46,9.498,1.48,9.476,1.51,9.446C1.496,9.433,1.484,9.429,1.477,9.447z"/>
	<path d="M1.604,9.392C1.577,9.382,1.539,9.417,1.51,9.446c0.033,0.028,0.083,0.107,0.129,0.091c0.073-0.026,0.163,0.39,0.245,0.39
		c0.44,0,0.879,0,1.319,0c-0.26-0.112-0.53-0.199-0.796-0.279C2.139,9.566,1.868,9.492,1.604,9.392z"/>
</g>
</svg>
