<?xml version="1.0" encoding="utf-8"?>
<!-- Generator: Adobe Illustrator 18.1.1, SVG Export Plug-In . SVG Version: 6.00 Build 0)  -->
<svg version="1.1" id="Слой_1" xmlns="http://www.w3.org/2000/svg" xmlns:xlink="http://www.w3.org/1999/xlink" x="0px" y="0px"
	 viewBox="0 0 34.75 32" enable-background="new 0 0 34.75 32" xml:space="preserve">
<path d="M33.431,23.896c-0.05-0.131-0.101-0.262-0.15-0.393c-0.065-0.118-0.13-0.236-0.195-0.354l0.004,0
	c-0.109-0.164-0.218-0.329-0.327-0.493c-0.199-0.263-0.398-0.526-0.598-0.79c-0.909-0.917-1.818-1.834-2.728-2.751
	c-0.247-0.25-0.492-0.502-0.738-0.753c-0.042-0.047-0.085-0.093-0.127-0.14c-0.018-0.002-0.026-0.012-0.025-0.03
	c-0.064-0.085-0.129-0.171-0.193-0.256l0.005,0.003c-0.08-0.167-0.16-0.334-0.24-0.5c-0.008-0.107-0.016-0.214-0.023-0.321
	c0.077-0.467,0.3-0.863,0.602-1.219c0.651-0.859,1.302-1.719,1.952-2.578c0.032-0.031,0.064-0.061,0.098-0.092l-0.015,0.022
	c0.025-0.038,0.051-0.076,0.076-0.114l-0.024,0.006c0.139-0.184,0.277-0.367,0.416-0.551l-0.006,0.014
	c0.114-0.162,0.228-0.323,0.344-0.484c0.524-0.859,1.049-1.719,1.573-2.579c0.074-0.208,0.157-0.415,0.22-0.627
	c0.262-0.88,0.065-1.199-0.836-1.369c-1.686,0.006-3.37,0.012-5.056,0.018c-0.169,0.004-0.34,0.028-0.506,0.009
	c-0.532-0.061-0.94,0.116-1.219,0.579c-0.296,0.693-0.591,1.386-0.887,2.079c0.002,0.024-0.008,0.042-0.029,0.053l-0.022-0.008
	l0.021,0.011c-0.063,0.125-0.127,0.25-0.189,0.375l0.006-0.007c-0.089,0.181-0.178,0.362-0.266,0.544
	c-0.064,0.114-0.129,0.229-0.193,0.344l0.005-0.007c-0.146,0.256-0.292,0.512-0.438,0.768c-0.121,0.194-0.242,0.388-0.364,0.581
	l0.006-0.005c0,0.026-0.012,0.046-0.033,0.06c-0.013,0.022-0.026,0.045-0.039,0.068c-0.144,0.216-0.287,0.433-0.431,0.648
	c-0.161,0.238-0.301,0.496-0.49,0.708c-0.382,0.428-0.762,0.869-1.199,1.235c-0.398,0.335-0.773,0.248-1.002-0.22
	c-0.168-0.343-0.292-0.743-0.304-1.122c-0.029-1.034,0.01-2.07,0.022-3.106c0.014-0.955,0.028-1.909,0.042-2.864
	c-0.021-0.076-0.047-0.151-0.06-0.227c-0.104-0.612-0.456-0.991-1.063-1.121c-0.32-0.068-0.644-0.151-0.969-0.165
	c-1.01-0.042-2.02-0.055-3.031-0.079c-0.736,0.108-1.474,0.216-2.211,0.324c-0.104,0.064-0.208,0.127-0.312,0.19
	c-0.123,0.092-0.265,0.167-0.362,0.28c-0.112,0.13-0.185,0.295-0.276,0.445c0.159,0.057,0.318,0.115,0.478,0.172
	c0.919,0.27,1.35,0.915,1.413,1.841c0.045,1.016,0.105,2.032,0.124,3.048c0.008,0.427-0.074,0.855-0.116,1.283
	c-0.101,0.369-0.2,0.737-0.301,1.106c-0.288,0.536-0.665,0.584-1.229,0.158c-0.779-0.621-1.292-1.449-1.793-2.288
	c-0.159-0.263-0.319-0.526-0.478-0.789l0.003,0.004c-0.05-0.083-0.101-0.166-0.151-0.248c-0.115-0.202-0.23-0.405-0.347-0.607
	l0.006,0.004c-0.348-0.689-0.694-1.378-1.042-2.066C8.054,9.199,7.881,8.845,7.738,8.48C7.487,7.84,7.01,7.53,6.343,7.53
	c-1.481,0-2.963,0.021-4.444,0.036c-0.13,0.001-0.263,0.01-0.391,0.036c-0.644,0.129-0.826,0.454-0.61,1.083
	c0.059,0.173,0.129,0.342,0.193,0.513L1.103,9.22c0.25,0.535,0.5,1.069,0.75,1.604c0.173,0.353,0.347,0.706,0.519,1.059H2.368
	c0.033,0.061,0.067,0.123,0.102,0.185c0.325,0.627,0.649,1.254,0.974,1.881c0.059,0.107,0.116,0.214,0.175,0.322l-0.007-0.007
	c0.164,0.288,0.328,0.576,0.492,0.864l-0.02-0.005c0.025,0.034,0.051,0.067,0.075,0.101l-0.001-0.004
	c0.346,0.578,0.691,1.156,1.038,1.733L5.19,16.947c0.14,0.215,0.28,0.431,0.421,0.646c0.12,0.185,0.241,0.369,0.362,0.553
	c0.052,0.079,0.104,0.158,0.157,0.237c0.345,0.461,0.685,0.926,1.033,1.384c1.126,1.482,2.394,2.813,3.994,3.798
	c1.115,0.687,2.316,1.159,3.584,1.475c0.17,0.041,0.34,0.082,0.511,0.123l0.006-0.018c0.137,0.013,0.273,0.027,0.41,0.04
	c0.835,0.011,1.67,0.026,2.506,0.032c0.273,0.002,0.547-0.02,0.82-0.031c0.129-0.048,0.259-0.096,0.388-0.144
	c0.029-0.014,0.059-0.028,0.087-0.041c0.046-0.039,0.092-0.078,0.138-0.116c-0.002-0.018,0.007-0.028,0.024-0.03
	c0.072-0.141,0.144-0.281,0.217-0.422c0.008-0.043,0.015-0.086,0.022-0.128c0.013-0.751,0.037-1.503,0.299-2.217
	c0.09-0.244,0.202-0.49,0.357-0.696c0.383-0.512,0.867-0.56,1.401-0.175c0.262,0.228,0.525,0.456,0.788,0.683
	c0.084,0.089,0.167,0.178,0.251,0.268c0.02,0.019,0.038,0.038,0.057,0.058c0.362,0.407,0.726,0.813,1.088,1.221
	c0.093,0.091,0.19,0.179,0.278,0.275c0.594,0.649,1.271,1.175,2.111,1.47c0.632,0.184,1.275,0.087,1.915,0.082
	c1.114-0.008,2.229-0.015,3.343-0.041c0.271-0.006,0.545-0.064,0.81-0.132c0.416-0.107,0.727-0.352,0.87-0.775
	C33.437,24.181,33.434,24.038,33.431,23.896z"/>
</svg>
