<?xml version="1.0" encoding="utf-8"?>
<!-- Generator: Adobe Illustrator 18.1.1, SVG Export Plug-In . SVG Version: 6.00 Build 0)  -->
<svg version="1.1" id="Слой_1" xmlns="http://www.w3.org/2000/svg" xmlns:xlink="http://www.w3.org/1999/xlink" x="0px" y="0px"
	 viewBox="0 0 23.875 32" enable-background="new 0 0 23.875 32" xml:space="preserve">
<path d="M22.704,13.899c0-0.049,0.004-0.098,0-0.147c-0.028-0.405-0.163-0.77-0.459-1.051c-0.377-0.359-0.834-0.534-1.36-0.525
	c-0.314,0.006-0.628,0-0.942,0.001c-0.384,0.001-0.349-0.035-0.349,0.347c0,2.365,0.002,4.731-0.003,7.096
	c0,0.332-0.016,0.665-0.048,0.995c-0.089,0.917-0.559,1.565-1.403,1.941c-0.377,0.167-0.769,0.277-1.169,0.379
	c-0.927,0.238-1.843,0.518-2.764,0.78c-1.391,0.396-2.782,0.79-4.172,1.186c-0.752,0.214-1.501,0.436-2.253,0.649
	c-0.818,0.231-1.637,0.457-2.457,0.68c-0.093,0.025-0.194,0.032-0.29,0.029c-0.271-0.009-0.506-0.106-0.627-0.361
	c-0.137-0.291-0.061-0.716,0.159-0.898c0.141-0.117,0.299-0.228,0.467-0.299c0.667-0.281,1.34-0.547,2.012-0.818
	c0.635-0.256,1.271-0.51,1.907-0.765c0.417-0.167,0.834-0.338,1.253-0.502c0.437-0.171,0.879-0.328,1.315-0.502
	c0.808-0.323,1.612-0.659,2.42-0.982c0.526-0.211,1.061-0.4,1.585-0.615c0.27-0.11,0.542-0.232,0.783-0.393
	c0.396-0.265,0.682-0.644,0.917-1.055c0.21-0.369,0.356-0.763,0.356-1.196c0.001-4.279,0-8.558,0.003-12.838
	c0-0.241-0.063-0.464-0.14-0.686C17.341,4.05,17.1,3.88,16.813,3.834c-0.512-0.082-1.021-0.02-1.485,0.227
	c-0.536,0.285-1.058,0.595-1.588,0.892c-0.819,0.46-1.641,0.918-2.46,1.378c-0.546,0.307-1.091,0.617-1.637,0.926
	C9.047,7.594,8.453,7.936,7.855,8.27C7.05,8.719,6.243,9.158,5.44,9.607c-0.829,0.464-1.65,0.942-2.481,1.402
	c-0.456,0.253-0.816,0.594-1.112,1.023c-0.388,0.561-0.553,1.174-0.552,1.85c0.004,4.034,0.003,8.068,0.001,12.102
	c0,0.472,0.154,0.885,0.462,1.235c0.167,0.189,0.35,0.367,0.537,0.538c0.34,0.311,0.738,0.445,1.206,0.443
	c2.896-0.01,5.791-0.005,8.687-0.005c1.384,0,2.768,0,4.151,0c1.541,0,3.082-0.004,4.622,0.003c0.431,0.002,0.808-0.126,1.145-0.386
	c0.438-0.339,0.601-0.801,0.601-1.34C22.704,22.281,22.704,18.09,22.704,13.899z M11.731,11.708
	c0.226-0.282,0.495-0.527,0.822-0.699c0.228-0.12,0.46-0.206,0.724-0.203c0.504,0.007,0.852,0.313,0.902,0.814
	c0.035,0.348-0.019,0.681-0.161,1.002c-0.288,0.653-0.758,1.129-1.393,1.448c-0.255,0.128-0.53,0.148-0.802,0.098
	c-0.335-0.062-0.624-0.423-0.654-0.783c-0.007-0.087-0.001-0.176-0.001-0.264C11.174,12.579,11.404,12.119,11.731,11.708z"/>
</svg>
