<?xml version="1.0" encoding="utf-8"?>
<!-- Generator: Adobe Illustrator 18.1.1, SVG Export Plug-In . SVG Version: 6.00 Build 0)  -->
<svg version="1.1" id="Слой_1" xmlns="http://www.w3.org/2000/svg" xmlns:xlink="http://www.w3.org/1999/xlink" x="0px" y="0px"
	 viewBox="0 0 27.125 32" enable-background="new 0 0 27.125 32" xml:space="preserve">
<path d="M22.634,24.673c2.159-2.258,3.495-5.309,3.495-8.673c0-6.929-5.638-12.566-12.567-12.566S0.996,9.071,0.996,16
	s5.637,12.566,12.566,12.566c3.091,0,5.92-1.126,8.111-2.984l0.034,0.034l0.712-0.712c0.016-0.016,0.032-0.032,0.047-0.047
	l0.176-0.176L22.634,24.673z M13.562,27.243C7.363,27.243,2.319,22.199,2.319,16S7.363,4.757,13.562,4.757
	c6.2,0,11.244,5.044,11.244,11.243c0,2.998-1.187,5.72-3.107,7.738l-4.939-4.939c0.758-0.951,1.214-2.153,1.214-3.461
	c0-3.071-2.498-5.568-5.568-5.568s-5.568,2.498-5.568,5.568s2.498,5.568,5.568,5.568c1.286,0,2.469-0.443,3.413-1.178l4.919,4.919
	C18.79,26.267,16.288,27.243,13.562,27.243z M12.406,19.583c-2.341,0-4.246-1.905-4.246-4.246s1.905-4.246,4.246-4.246
	s4.246,1.905,4.246,4.246S14.747,19.583,12.406,19.583z"/>
</svg>
