<?xml version="1.0" encoding="utf-8"?>
<!-- Generator: Adobe Illustrator 18.1.1, SVG Export Plug-In . SVG Version: 6.00 Build 0)  -->
<svg version="1.1" xmlns="http://www.w3.org/2000/svg" xmlns:xlink="http://www.w3.org/1999/xlink" x="0px" y="0px"
	 viewBox="0 0 1920 1920" enable-background="new 0 0 1920 1920" xml:space="preserve">
<g id="Слой_1">
	<image overflow="visible" width="1920" height="1920" xlink:href="C:\Users\Valeriy\Desktop\Безымянный-2.png" >
	</image>
</g>
<g id="_x31_" opacity="0.5">
	<polygon fill="#EF4B4B" points="17,14 751.75,14.5 751.75,113.25 739.25,113.25 739,460.75 674.5,460.75 674,675.5 537.5,675.5 
		537,541.75 17,540.25 	"/>
</g>
<g id="_x32_" opacity="0.48">
	<polygon fill="#EF4B4B" points="967,15 967,800 792.5,800 792.5,586 659.5,586 659.5,447 725.5,447 725.5,15 	"/>
</g>
<g id="_x33_" opacity="0.5">
	<polygon fill="#EF4B4B" points="1405.333,453.333 1405.333,14.667 957.333,14.667 957.333,799.333 1256.667,799.333 1256.667,612 
		1279,612 1279,453 	"/>
</g>
<g id="_x34_" opacity="0.49">
	<polygon fill="#EF4B4B" points="1908.333,14.667 1908.333,1219.333 1808.667,1219.333 1808.667,1179.333 1240,1179.333 1241.5,598 
		1265.25,597.75 1264.504,438.833 1390,438.667 1390,14 	"/>
</g>
<g id="_x35_" opacity="0.51">
	<polygon fill="#EF4B4B" points="1242,1164.5 1908,1164.5 1908,1905.667 1241,1905.667 	"/>
</g>
<g id="_x36_" opacity="0.51">
	<polygon fill="#EF4B4B" points="17,1905.75 17,1377 537.5,1377 537.5,1241.5 922,1241.5 922,1905.75 	"/>
</g>
<g id="_x37_" opacity="0.5">
	<polygon fill="#EF4B4B" points="551.167,1391.667 551.167,1255.5 683,1255.5 683,952 16.5,952 16.5,1391.667 	"/>
</g>
<g id="_x38_" opacity="0.49">
	<polygon fill="#EF4B4B" points="683.667,967 683.667,659.667 551,659.667 551,528.333 17,528.333 17,967 	"/>
</g>
</svg>
