<?xml version="1.0" encoding="utf-8"?>
<!-- Generator: Adobe Illustrator 18.1.1, SVG Export Plug-In . SVG Version: 6.00 Build 0)  -->
<svg version="1.1" id="Слой_1" xmlns="http://www.w3.org/2000/svg" xmlns:xlink="http://www.w3.org/1999/xlink" x="0px" y="0px"
	 viewBox="0 0 86.274 88.547" enable-background="new 0 0 86.274 88.547" xml:space="preserve">
<g>
	<g>
		<path fill="#1E0F00" d="M53.124,75.789c-1.629,0-3.056-0.681-4.565-1.4c-1.631-0.777-3.317-1.581-5.421-1.581
			c-2.144,0-3.867,0.777-5.534,1.528c-1.527,0.688-2.969,1.338-4.594,1.338c-1.13,0-2.205-0.317-3.286-0.97
			c-7.356-4.441-17.135-11.986-17.135-26.171c0-13.744,4.479-20.714,13.313-20.714c4.969,0,10.28,2.278,13.794,3.786
			c1.401,0.601,2.99,1.282,3.441,1.282c0.454,0,2.021-0.64,3.403-1.205c3.465-1.416,8.702-3.555,13.63-3.555
			c8.969,0,13.516,6.865,13.516,20.405c0,14.437-9.958,21.957-17.449,26.357C55.209,75.495,54.19,75.789,53.124,75.789z
			 M43.137,70.808c2.557,0,4.536,0.943,6.282,1.776c1.356,0.646,2.527,1.205,3.705,1.205c0.7,0,1.387-0.204,2.101-0.623
			c7.066-4.151,16.461-11.222,16.461-24.633c0-12.385-3.767-18.405-11.516-18.405c-4.535,0-9.553,2.05-12.873,3.406
			c-2.177,0.89-3.351,1.354-4.16,1.354c-0.824,0-2.017-0.495-4.23-1.444C35.543,32,30.46,29.82,25.901,29.82
			c-7.612,0-11.313,6.122-11.313,18.714c0,13.025,8.641,19.913,16.168,24.458c0.761,0.46,1.498,0.683,2.252,0.683
			c1.195,0,2.39-0.538,3.772-1.161C38.554,71.714,40.564,70.808,43.137,70.808z"/>
	</g>
	<g>
		<path fill="#1E0F00" d="M42.386,31.232c-0.066,0-0.133-0.007-0.2-0.021c-0.1-0.02-9.914-2.191-7.253-16.329
			c0.052-0.274,0.215-0.515,0.452-0.663c0.236-0.147,0.523-0.19,0.793-0.117c0.063,0.017,6.31,1.814,5.334,10.618
			c-0.061,0.55-0.557,0.944-1.104,0.884c-0.549-0.062-0.944-0.556-0.884-1.104c0.551-4.966-1.507-7.112-2.835-7.966
			c-1.181,8.483,2.792,11.409,4.81,12.333c1.245-9.15,11.899-15.678,12.373-15.964c0.471-0.286,1.086-0.135,1.373,0.34
			c0.285,0.473,0.133,1.087-0.339,1.373c-0.112,0.067-11.242,6.896-11.52,15.647c-0.009,0.295-0.148,0.57-0.379,0.753
			C42.828,31.157,42.61,31.232,42.386,31.232z"/>
	</g>
	<g>
		<path fill="#1E0F00" d="M64.834,52.805c-0.125,0-0.252-0.023-0.375-0.073c-0.512-0.207-0.759-0.79-0.551-1.303
			c3.89-9.6-1.555-15.206-1.611-15.262c-0.39-0.391-0.39-1.024,0.001-1.414c0.39-0.392,1.024-0.39,1.414,0
			c0.265,0.266,6.431,6.612,2.049,17.428C65.603,52.57,65.229,52.805,64.834,52.805z"/>
	</g>
</g>
</svg>
