<?xml version="1.0" encoding="utf-8"?>
<!-- Generator: Adobe Illustrator 18.1.1, SVG Export Plug-In . SVG Version: 6.00 Build 0)  -->
<svg version="1.1" id="Слой_1" xmlns="http://www.w3.org/2000/svg" xmlns:xlink="http://www.w3.org/1999/xlink" x="0px" y="0px"
	 viewBox="0 0 43.303 65.125" enable-background="new 0 0 43.303 65.125" xml:space="preserve">
<path fill="none" stroke="#53A711" stroke-linecap="round" stroke-linejoin="round" stroke-miterlimit="10" d="M29.424,30.979
	l13.049,28.545c1.091,2.386-0.653,5.101-3.277,5.101H4.107c-2.624,0-4.368-2.715-3.277-5.101l13.049-28.545"/>
<rect x="12.458" y="10.942" fill="none" stroke="#53A711" stroke-linecap="round" stroke-linejoin="round" stroke-miterlimit="10" width="18.386" height="5.751"/>
<path fill="none" stroke="#53A711" stroke-linecap="round" stroke-linejoin="round" stroke-miterlimit="10" d="M29.424,30.979
	l13.049,28.545c1.091,2.386-0.653,5.101-3.277,5.101H4.107c-2.624,0-4.368-2.715-3.277-5.101l13.049-28.545L13.82,16.692h15.662
	L29.424,30.979z"/>
<circle fill="none" stroke="#F3470D" stroke-linecap="round" stroke-linejoin="round" stroke-miterlimit="10" cx="13.31" cy="53.105" r="2.554"/>
<circle fill="none" stroke="#F3470D" stroke-linecap="round" stroke-linejoin="round" stroke-miterlimit="10" cx="20.119" cy="44.593" r="1.532"/>
<circle fill="none" stroke="#F3470D" stroke-linecap="round" stroke-linejoin="round" stroke-miterlimit="10" cx="15.92" cy="38.237" r="0.738"/>
<circle fill="none" stroke="#F3470D" stroke-linecap="round" stroke-linejoin="round" stroke-miterlimit="10" cx="24.471" cy="36.106" r="2.465"/>
<circle fill="none" stroke="#F3470D" stroke-linecap="round" stroke-linejoin="round" stroke-miterlimit="10" cx="25.34" cy="59.575" r="2.781"/>
<circle fill="none" stroke="#F3470D" stroke-linecap="round" stroke-linejoin="round" stroke-miterlimit="10" cx="18.786" cy="56.538" r="0.88"/>
<circle fill="none" stroke="#F3470D" stroke-linecap="round" stroke-linejoin="round" stroke-miterlimit="10" cx="27.37" cy="46.737" r="1.065"/>
<circle fill="none" stroke="#F3470D" stroke-linecap="round" stroke-linejoin="round" stroke-miterlimit="10" cx="20.658" cy="24.987" r="0.993"/>
<circle fill="none" stroke="#F3470D" stroke-linecap="round" stroke-linejoin="round" stroke-miterlimit="10" cx="25.113" cy="21.44" r="1.192"/>
<circle fill="none" stroke="#F3470D" stroke-linecap="round" stroke-linejoin="round" stroke-miterlimit="10" cx="18.928" cy="6.402" r="1.021"/>
<circle fill="none" stroke="#F3470D" stroke-linecap="round" stroke-linejoin="round" stroke-miterlimit="10" cx="24.602" cy="3.451" r="2.951"/>
<circle fill="none" stroke="#F3470D" stroke-linecap="round" stroke-linejoin="round" stroke-miterlimit="10" cx="18.928" cy="1.521" r="1.021"/>
</svg>
