<?xml version="1.0" encoding="utf-8"?>
<!-- Generator: Adobe Illustrator 18.1.1, SVG Export Plug-In . SVG Version: 6.00 Build 0)  -->
<svg version="1.1" id="Слой_1" xmlns="http://www.w3.org/2000/svg" xmlns:xlink="http://www.w3.org/1999/xlink" x="0px" y="0px"
	 viewBox="0 0 52.087 63.625" enable-background="new 0 0 52.087 63.625" xml:space="preserve">
<path fill-rule="evenodd" clip-rule="evenodd" fill="none" stroke="#53A711" stroke-linecap="round" stroke-linejoin="round" stroke-miterlimit="10" d="
	M12.139,55.259c0,1.471,0.022,2.885-0.005,4.297c-0.035,1.842-1.289,3.232-3.129,3.523c-1.76,0.277-3.456-0.718-3.997-2.392
	c-0.147-0.454-0.206-0.951-0.218-1.431c-0.032-1.274-0.017-2.549-0.023-3.824c0-0.044-0.028-0.087-0.076-0.227
	c-0.651,0-1.339,0-2.026,0c-0.691,0-1.381,0-2.154,0c0-0.343,0-0.616,0-0.889c0-8.323-0.04-16.646,0.03-24.968
	c0.016-1.91,0.387-3.821,0.633-5.726c0.573-4.457,1.186-8.907,1.747-13.365C3.225,7.853,4.408,6.063,6.48,4.842
	c2.506-1.477,5.258-2.274,8.072-2.884c4.151-0.899,8.339-1.642,12.6-1.418c5.733,0.302,11.378,1.162,16.72,3.422
	c0.489,0.207,0.96,0.46,1.429,0.711c2.392,1.287,3.622,3.303,3.948,5.994c0.721,5.954,1.523,11.9,2.288,17.85
	c0.037,0.297,0.046,0.6,0.046,0.901c0.003,8.299,0.003,16.599,0.003,24.899c0,0.273,0,0.545,0,0.88c-1.441,0-2.801,0-4.269,0
	c0,0.859,0.012,1.66-0.004,2.461c-0.016,0.831,0.026,1.677-0.107,2.493c-0.311,1.913-1.954,3.112-3.917,2.952
	c-1.898-0.156-3.294-1.63-3.328-3.547c-0.024-1.391-0.017-2.781-0.024-4.171c-0.001-0.023-0.01-0.045-0.028-0.124
	C30.69,55.259,21.457,55.259,12.139,55.259z M26.047,30.847c2.897,0,5.795,0,8.693,0c3.408,0,6.815,0.01,10.223-0.006
	c1.56-0.007,2.24-0.752,2.148-2.311c-0.031-0.531-0.122-1.058-0.196-1.585c-0.593-4.243-1.166-8.489-1.795-12.726
	c-0.296-1.996-1.129-2.651-3.149-2.651c-10.617-0.001-21.234-0.001-31.852,0c-2.021,0.001-2.852,0.665-3.146,2.653
	c-0.578,3.918-1.113,7.842-1.655,11.764C5.184,26.969,5.019,27.959,5,28.949c-0.023,1.193,0.656,1.818,1.853,1.882
	c0.277,0.014,0.556,0.015,0.834,0.015C13.807,30.847,19.926,30.847,26.047,30.847z M26.049,8.424c3.451,0,6.902,0.003,10.352-0.001
	c0.882-0.001,1.401-0.342,1.615-1.034c0.354-1.142-0.349-2.037-1.624-2.037c-6.345-0.004-12.69-0.003-19.036-0.002
	c-0.649,0-1.298-0.013-1.945,0.01c-0.672,0.025-1.129,0.369-1.338,1.017c-0.352,1.093,0.355,2.041,1.554,2.045
	C19.102,8.431,22.576,8.424,26.049,8.424z M40.105,43.404c0.002,1.95,1.587,3.545,3.52,3.544c1.925-0.003,3.537-1.613,3.543-3.541
	c0.006-1.924-1.601-3.526-3.542-3.533C41.681,39.869,40.103,41.45,40.105,43.404z M8.451,39.874c-1.939,0-3.527,1.598-3.521,3.542
	c0.007,1.937,1.618,3.543,3.541,3.531c1.933-0.013,3.523-1.615,3.522-3.551C11.992,41.461,10.397,39.876,8.451,39.874z"/>
<path fill-rule="evenodd" clip-rule="evenodd" fill="none" stroke="#53A711" stroke-linecap="round" stroke-linejoin="round" stroke-miterlimit="10" d="
	M26.047,30.847c2.897,0,5.795,0,8.693,0c3.408,0,6.815,0.01,10.223-0.006c1.56-0.007,2.24-0.752,2.148-2.311
	c-0.031-0.531-0.122-1.058-0.196-1.585c-0.593-4.243-1.166-8.489-1.795-12.726c-0.296-1.996-1.129-2.651-3.149-2.651
	c-10.617-0.001-21.234-0.001-31.852,0c-2.021,0.001-2.852,0.665-3.146,2.653c-0.578,3.918-1.113,7.842-1.655,11.764
	C5.184,26.969,5.019,27.959,5,28.949c-0.023,1.193,0.656,1.818,1.853,1.882c0.277,0.014,0.556,0.015,0.834,0.015
	C13.807,30.847,19.926,30.847,26.047,30.847z"/>
<path fill-rule="evenodd" clip-rule="evenodd" fill="none" stroke="#F3470D" stroke-linecap="round" stroke-linejoin="round" stroke-miterlimit="10" d="
	M26.049,8.424c3.451,0,6.902,0.003,10.352-0.001c0.882-0.001,1.401-0.342,1.615-1.034c0.354-1.142-0.349-2.037-1.624-2.037
	c-6.345-0.004-12.69-0.003-19.036-0.002c-0.649,0-1.298-0.013-1.945,0.01c-0.672,0.025-1.129,0.369-1.338,1.017
	c-0.352,1.093,0.355,2.041,1.554,2.045C19.102,8.431,22.576,8.424,26.049,8.424z"/>
<path fill-rule="evenodd" clip-rule="evenodd" fill="none" stroke="#F3470D" stroke-linecap="round" stroke-linejoin="round" stroke-miterlimit="10" d="
	M40.105,43.404c0.002,1.95,1.587,3.545,3.52,3.544c1.925-0.003,3.537-1.613,3.543-3.541c0.006-1.924-1.601-3.526-3.542-3.533
	C41.681,39.869,40.103,41.45,40.105,43.404z"/>
<path fill-rule="evenodd" clip-rule="evenodd" fill="none" stroke="#F3470D" stroke-linecap="round" stroke-linejoin="round" stroke-miterlimit="10" d="
	M8.451,39.874c-1.939,0-3.527,1.598-3.521,3.542c0.007,1.937,1.618,3.543,3.541,3.531c1.933-0.013,3.523-1.615,3.522-3.551
	C11.992,41.461,10.397,39.876,8.451,39.874z"/>
</svg>
