<?xml version="1.0" encoding="utf-8"?>
<!-- Generator: Adobe Illustrator 18.1.1, SVG Export Plug-In . SVG Version: 6.00 Build 0)  -->
<svg version="1.1" id="Слой_1" xmlns="http://www.w3.org/2000/svg" xmlns:xlink="http://www.w3.org/1999/xlink" x="0px" y="0px"
	 viewBox="0 0 90.945 35.115" enable-background="new 0 0 90.945 35.115" xml:space="preserve">
<path fill="none" stroke="#53A711" stroke-linecap="round" stroke-linejoin="round" stroke-miterlimit="10" d="M90.279,21.106
	c-0.021-0.09-0.084-0.16-0.18-0.217H87.38c-0.004,0-0.008-0.002-0.012-0.002c-0.967-0.037-0.905-2.167-0.823-2.739
	c0.233-1.639,1.692-1.986,2.125-1.586c0.242,0.223,0.156,1.508-0.145,2.619c-0.144,0.527-0.337,1.033,0.47,1.064h0.587
	c0.515-1.712,1.549-5.881-0.616-9.115c-2.214-2.908-8.888-8.794-10.959-9.325C73.82,0.73,58.401,0.5,49.329,0.5
	c-3.403,0-6.909,0.733-6.909,0.733c-2.768,0.692-12.275,5.642-16.517,9.468C14.759,11.83,4.308,14.251,2.107,17.555
	c-0.004,0.007-1.135,2.268-1.137,2.274c-0.271,0.81-0.395,1.51-0.443,2.187c0.882-0.17,1.756-0.543,2.576-1.029
	c0.908-0.748,0.723-1.932,1.604-2.974c0.808-0.956,2.454-1.724,3.099-1.582c0.043,0.002,0.086,0.014,0.127,0.035
	c0.156,0.081,0.218,0.275,0.136,0.432c-0.947,1.81-4.108,5.204-7.568,5.777c-0.01,1.015,0.103,2.035,0.103,3.337
	c0,0.105,0.041,0.206,0.113,0.28c0.965,0.992,0.99,1.957,0.991,1.994c0,0.223,0.179,0.402,0.399,0.402c0,0,3.023,0.226,5.482,0.408
	c-0.07-0.425-0.107-0.861-0.107-1.304c0-4.471,3.638-8.108,8.107-8.108c4.471,0,8.107,3.637,8.107,8.108
	c0,0.523-0.053,1.038-0.148,1.536h41.482c-0.098-0.498-0.149-1.013-0.149-1.536c0-4.471,3.638-8.108,8.108-8.108
	c4.47,0,8.107,3.637,8.107,8.108c0,0.523-0.053,1.038-0.148,1.536h1.139c0.063,0,0.124-0.014,0.18-0.041l2.192-1.099
	c0.528-0.011,2.578-0.153,2.578-1.536c0-0.125,0.726,0.02,0.744-0.334C91.407,23.79,90.279,21.106,90.279,21.106z M77.663,11.246
	c-4.896,0-45.403,1.763-46.394,1.763c-0.988,0-1.42-0.699-0.819-1.473c1.03-1.306,9.364-7.476,12.198-8.185
	c3.873-0.839,16.354-1.253,29.492,0.075c2.277,0.229,4.017,2.025,5.465,3.891C79.144,9.295,80.183,11.246,77.663,11.246z"/>
<path fill="none" stroke="#F3470D" stroke-linecap="round" stroke-linejoin="round" stroke-miterlimit="10" d="M15.591,20.968
	c-3.77,0-6.824,3.055-6.824,6.824c0,3.768,3.056,6.823,6.824,6.823c3.768,0,6.822-3.055,6.822-6.823
	C22.414,24.022,19.357,20.968,15.591,20.968z M15.591,31.833c-2.229,0-4.041-1.813-4.041-4.041c0-2.228,1.813-4.041,4.041-4.041
	c2.227,0,4.04,1.813,4.04,4.041C19.631,30.02,17.818,31.833,15.591,31.833z"/>
<path fill="none" stroke="#F3470D" stroke-linecap="round" stroke-linejoin="round" stroke-miterlimit="10" d="M72.991,20.968
	c-3.771,0-6.823,3.055-6.823,6.824c0,3.768,3.055,6.823,6.823,6.823c3.769,0,6.821-3.055,6.821-6.823
	C79.812,24.022,76.759,20.968,72.991,20.968z M73.003,31.833c-2.227,0-4.039-1.813-4.039-4.041c0-2.228,1.813-4.041,4.039-4.041
	c2.229,0,4.042,1.813,4.042,4.041C77.045,30.02,75.232,31.833,73.003,31.833z"/>
</svg>
