<?xml version="1.0" encoding="utf-8"?>
<!-- Generator: Adobe Illustrator 18.1.1, SVG Export Plug-In . SVG Version: 6.00 Build 0)  -->
<svg version="1.1" id="Слой_1" xmlns="http://www.w3.org/2000/svg" xmlns:xlink="http://www.w3.org/1999/xlink" x="0px" y="0px"
	 viewBox="0 0 70.5 74.209" enable-background="new 0 0 70.5 74.209" xml:space="preserve">
<g>
	<g>
		<path fill="#1E0F00" d="M29.404,64.917c-1.28,0-2.561-0.487-3.536-1.462L2.753,40.34c-0.941-0.941-1.459-2.196-1.459-3.535
			s0.518-2.594,1.459-3.535L13.58,22.441c0.941-0.941,2.197-1.46,3.536-1.46s2.594,0.519,3.536,1.46l6.631,6.632
			c1.17,1.17,3.073,1.169,4.243,0l18.321-18.321c0.941-0.941,2.197-1.46,3.536-1.46s2.594,0.519,3.536,1.46l10.827,10.827
			c1.949,1.949,1.949,5.121,0,7.07c-0.391,0.391-1.023,0.391-1.414,0s-0.391-1.023,0-1.414c0.563-0.563,0.874-1.316,0.874-2.121
			s-0.31-1.558-0.874-2.121L55.503,12.166c-1.171-1.171-3.074-1.17-4.243,0L32.939,30.487c-1.949,1.949-5.122,1.949-7.071,0
			l-6.631-6.632c-1.127-1.127-3.116-1.127-4.243,0L4.167,34.683C3.604,35.247,3.294,36,3.294,36.805s0.31,1.558,0.874,2.121
			l23.115,23.115c1.127,1.127,3.116,1.127,4.243,0l16.483-16.483c0.391-0.391,1.023-0.391,1.414,0s0.391,1.023,0,1.414L32.94,63.455
			C31.965,64.43,30.685,64.917,29.404,64.917z"/>
	</g>
	<g>
		<path fill="#1E0F00" d="M29.404,64.917c-1.28,0-2.561-0.487-3.536-1.462L2.753,40.34c-0.941-0.941-1.459-2.196-1.459-3.535
			s0.518-2.594,1.459-3.535L13.58,22.441c0.941-0.941,2.197-1.46,3.536-1.46s2.594,0.519,3.536,1.46l6.631,6.632
			c1.17,1.17,3.073,1.169,4.243,0l18.321-18.321c0.941-0.941,2.197-1.46,3.536-1.46s2.594,0.519,3.536,1.46l10.827,10.827
			c1.949,1.949,1.949,5.121,0,7.07c-0.391,0.391-1.023,0.391-1.414,0s-0.391-1.023,0-1.414c0.563-0.563,0.874-1.316,0.874-2.121
			s-0.31-1.558-0.874-2.121L55.503,12.166c-1.171-1.171-3.074-1.17-4.243,0L32.939,30.487c-1.949,1.949-5.122,1.949-7.071,0
			l-6.631-6.632c-1.127-1.127-3.116-1.127-4.243,0L4.167,34.683C3.604,35.247,3.294,36,3.294,36.805s0.31,1.558,0.874,2.121
			l23.115,23.115c1.127,1.127,3.116,1.127,4.243,0l16.483-16.483l15.444-15.229c0.394-0.388,1.027-0.384,1.414,0.01
			c0.388,0.394,0.383,1.026-0.01,1.414L43.766,52.628L32.94,63.455C31.965,64.43,30.685,64.917,29.404,64.917z"/>
	</g>
</g>
<g>
	<path fill="#1E0F00" d="M33.726,39.628c-0.256,0-0.512-0.098-0.707-0.293c-0.391-0.391-0.391-1.023,0-1.414l3.048-3.048
		c0.391-0.391,1.023-0.391,1.414,0s0.391,1.023,0,1.414l-3.048,3.048C34.238,39.531,33.982,39.628,33.726,39.628z"/>
</g>
</svg>
