<?xml version="1.0" encoding="utf-8"?>
<!-- Generator: Adobe Illustrator 18.1.1, SVG Export Plug-In . SVG Version: 6.00 Build 0)  -->
<svg version="1.1" id="Слой_1" xmlns="http://www.w3.org/2000/svg" xmlns:xlink="http://www.w3.org/1999/xlink" x="0px" y="0px"
	 viewBox="0 0 86.274 88.547" enable-background="new 0 0 86.274 88.547" xml:space="preserve">
<g>
	<g>
		<path fill="#1E0F00" d="M23.177,51.726c-0.549,0-0.997-0.443-1-0.994c-0.003-0.552,0.441-1.002,0.994-1.006l3.266-0.021
			c0.002,0,0.004,0,0.006,0c0.549,0,0.997,0.443,1,0.994c0.003,0.552-0.441,1.002-0.994,1.006l-3.266,0.021
			C23.181,51.726,23.179,51.726,23.177,51.726z"/>
	</g>
	<g>
		<g>
			<path fill="#1E0F00" d="M37.467,80.296c-2.212,0-4.019-1.792-4.032-4.006l-0.055-8.753c-0.003-0.539-0.219-1.047-0.606-1.43
				s-0.884-0.561-1.437-0.588l-8.752,0.055c-1.103-0.03-2.088-0.406-2.855-1.165c-0.768-0.759-1.194-1.768-1.201-2.841
				l-0.073-11.602c-0.014-2.222,1.782-4.041,4.005-4.056l8.752-0.055c1.12-0.007,2.025-0.924,2.018-2.044l-0.055-8.753
				c-0.007-1.073,0.407-2.087,1.165-2.854s1.767-1.194,2.84-1.201l11.602-0.073c0.008,0,0.016,0,0.024,0
				c2.212,0,4.019,1.792,4.032,4.006l0.055,8.753c0.003,0.539,0.219,1.047,0.606,1.43s0.888,0.56,1.437,0.588l8.752-0.055
				c1.039-0.004,2.087,0.406,2.855,1.165c0.768,0.759,1.194,1.768,1.201,2.841l0.073,11.602c0.007,1.073-0.407,2.087-1.165,2.854
				c-0.758,0.769-1.768,1.195-2.841,1.201c-0.002,0-0.004,0-0.006,0c-0.55,0-0.997-0.444-1-0.994
				c-0.003-0.553,0.442-1.003,0.994-1.006c0.539-0.003,1.046-0.219,1.429-0.606s0.592-0.897,0.588-1.437L65.746,49.67
				c-0.003-0.539-0.219-1.047-0.606-1.43c-0.384-0.379-0.89-0.588-1.424-0.588c-0.004,0-0.009,0-0.013,0l-8.752,0.055
				c-1.063-0.033-2.087-0.407-2.855-1.165c-0.768-0.759-1.194-1.768-1.201-2.841l-0.055-8.753c-0.007-1.115-0.917-2.018-2.032-2.018
				c-0.004,0-0.008,0-0.012,0l-11.602,0.073c-0.539,0.004-1.047,0.219-1.43,0.606s-0.592,0.897-0.588,1.437L35.23,43.8
				c0.014,2.223-1.782,4.042-4.005,4.057l-8.752,0.055c-0.539,0.004-1.047,0.219-1.43,0.606s-0.592,0.897-0.588,1.437l0.073,11.603
				c0.003,0.539,0.219,1.047,0.606,1.43c0.384,0.379,0.89,0.588,1.424,0.588c0.004,0,0.009,0,0.013,0l8.752-0.055
				c1.059-0.001,2.087,0.406,2.855,1.165c0.768,0.759,1.194,1.768,1.201,2.841l0.055,8.753c0.007,1.115,0.917,2.018,2.032,2.018
				c0.004,0,0.008,0,0.012,0l11.602-0.073c1.12-0.007,2.025-0.924,2.019-2.044l-0.055-8.752c-0.006-1.073,0.407-2.087,1.165-2.854
				c0.759-0.769,1.768-1.195,2.841-1.201l4.633-0.036c0.002,0,0.005,0,0.008,0c0.549,0,0.996,0.442,1,0.992
				c0.004,0.553-0.44,1.004-0.992,1.008l-4.635,0.036c-0.541,0.003-1.048,0.219-1.431,0.606s-0.592,0.897-0.588,1.438l0.055,8.752
				c0.014,2.222-1.783,4.041-4.006,4.056L37.49,80.296C37.483,80.296,37.474,80.296,37.467,80.296z"/>
		</g>
	</g>
	<g>
		<g>
			<path fill="#1E0F00" d="M10.722,40.391c-0.086,0-0.173-0.005-0.26-0.013c-0.711-0.068-1.354-0.409-1.81-0.961
				c-0.94-1.138-0.779-2.829,0.358-3.769L41.432,8.864c0.987-0.816,2.421-0.816,3.41,0l32.421,26.785
				c1.138,0.939,1.299,2.631,0.359,3.769c-0.903,1.097-2.67,1.267-3.769,0.36c-0.426-0.352-0.487-0.981-0.135-1.408
				c0.352-0.425,0.982-0.484,1.408-0.135c0.156,0.128,0.32,0.155,0.431,0.155c0.203,0,0.394-0.09,0.522-0.246
				c0.116-0.14,0.17-0.315,0.152-0.496c-0.017-0.18-0.103-0.343-0.242-0.458L43.568,10.405c-0.25-0.205-0.613-0.205-0.862,0
				L10.284,37.19c-0.139,0.115-0.225,0.278-0.242,0.458c-0.018,0.181,0.037,0.356,0.152,0.496s0.278,0.226,0.458,0.243
				s0.355-0.037,0.495-0.151L42.5,12.334c0.369-0.307,0.904-0.307,1.273,0l27.286,22.543c0.426,0.352,0.486,0.981,0.134,1.407
				s-0.983,0.486-1.408,0.134L43.137,14.401L12.421,39.777C11.938,40.178,11.342,40.391,10.722,40.391z"/>
		</g>
	</g>
</g>
</svg>
