<?xml version="1.0" encoding="utf-8"?>
<!-- Generator: Adobe Illustrator 18.1.1, SVG Export Plug-In . SVG Version: 6.00 Build 0)  -->
<svg version="1.1" id="Слой_1" xmlns="http://www.w3.org/2000/svg" xmlns:xlink="http://www.w3.org/1999/xlink" x="0px" y="0px"
	 viewBox="0 0 84 124" enable-background="new 0 0 84 124" xml:space="preserve">
<g>
	<path fill="#F2F1EF" d="M82.8,40L44,1.2C43.2,0.4,42.2,0,41.2,0H10C4.4,0,0,4.4,0,10v104c0,5.6,4.4,10,10,10h64c5.6,0,10-4.4,10-10
		V42.8C84,41.8,83.6,40.8,82.8,40z M77.2,40H50c-3.4,0-6-2.8-6-6V6.8L77.2,40z M80,114c0,3.2-2.6,6-6,6H10c-3.4,0-6-2.8-6-6V10
		c0-3.4,2.6-6,6-6h30v30c0,5.6,4.4,10,10,10h30V114z"/>
	<path fill="#F2F1EF" d="M42,60c-12.2,0-22,9.8-22,22s9.8,22,22,22s22-9.8,22-22S54.2,60,42,60z M42,100c-10,0-18-8-18-18
		s8-18,18-18s18,8,18,18S52,100,42,100z"/>
	<path fill="#F2F1EF" d="M50.4,87.6c0.8,0.8,0.8,2,0,2.8C50,90.8,49.4,91,49,91c-0.6,0-1-0.2-1.4-0.6L42,84.8l-5.6,5.6
		C36,90.8,35.4,91,35,91s-1-0.2-1.4-0.6c-0.8-0.8-0.8-2,0-2.8l5.6-5.6l-5.6-5.6c-0.8-0.8-0.8-2,0-2.8s2-0.8,2.8,0l5.6,5.6l5.6-5.6
		c0.8-0.8,2-0.8,2.8,0s0.8,2,0,2.8L44.8,82L50.4,87.6z"/>
</g>
</svg>
