<?xml version="1.0" encoding="utf-8"?>
<!-- Generator: Adobe Illustrator 18.1.1, SVG Export Plug-In . SVG Version: 6.00 Build 0)  -->
<svg version="1.1" id="Слой_1" xmlns="http://www.w3.org/2000/svg" xmlns:xlink="http://www.w3.org/1999/xlink" x="0px" y="0px"
	 viewBox="0 0 84 124" enable-background="new 0 0 84 124" xml:space="preserve">
<g>
	<path fill="#F2F1EF" d="M82.8,40L44,1.2C43.2,0.4,42.2,0,41.2,0H10C4.4,0,0,4.4,0,10v104c0,5.6,4.4,10,10,10h64c5.6,0,10-4.4,10-10
		V42.8C84,41.8,83.6,40.8,82.8,40z M44,6.8L77.2,40H50c-3.4,0-6-2.8-6-6V6.8z M80,114c0,3.2-2.6,6-6,6H10c-3.4,0-6-2.8-6-6V10
		c0-3.4,2.6-6,6-6h30v30c0,5.6,4.4,10,10,10h30V114z"/>
	<path fill="#F2F1EF" d="M42,104c-12.2,0-22-9.8-22-22s9.8-22,22-22s22,9.8,22,22S54.2,104,42,104z M42,64c-10,0-18,8-18,18
		s8,18,18,18s18-8,18-18S52,64,42,64z"/>
	<path fill="#F2F1EF" d="M40,90c-0.6,0-1-0.2-1.4-0.6l-6-6c-0.8-0.8-0.8-2,0-2.8s2-0.8,2.8,0l4.6,4.6l9.6-9.6c0.8-0.8,2-0.8,2.8,0
		s0.8,2,0,2.8l-11,11C41,89.8,40.6,90,40,90z"/>
</g>
</svg>
