<?xml version="1.0" encoding="utf-8"?>
<!-- Generator: Adobe Illustrator 18.1.1, SVG Export Plug-In . SVG Version: 6.00 Build 0)  -->
<svg version="1.1" id="Слой_1" xmlns="http://www.w3.org/2000/svg" xmlns:xlink="http://www.w3.org/1999/xlink" x="0px" y="0px"
	 viewBox="0 0 69.495 54.434" enable-background="new 0 0 69.495 54.434" xml:space="preserve">
<g id="_x33_9ur22.tif">
	<g>
		<path fill="none" stroke="#53A711" stroke-linecap="round" stroke-linejoin="round" stroke-miterlimit="10" d="M2.161,27.465
			c11.332,0,22.535,0,33.858,0c0-0.426,0-0.756,0-1.086c0.001-5.191-0.044-10.382,0.02-15.572c0.048-3.943,1.8-7.004,5.24-8.967
			c6.716-3.833,15.152,1.01,15.221,8.74c0.053,5.874,0.146,11.753-0.021,17.622c-0.246,8.624-6.017,24.302-26.388,24.302
			C9.718,52.505,2.456,37.397,2.161,27.465z"/>
		<path fill="none" stroke="#F3470D" stroke-linecap="round" stroke-linejoin="round" stroke-miterlimit="10" d="M68.995,13.84
			c-3.484,1.478-6.745,2.861-10.101,4.285c0-2.87,0-5.618,0-8.563C62.251,10.983,65.521,12.368,68.995,13.84z"/>
		<path fill="none" stroke="#F3470D" stroke-linecap="round" stroke-linejoin="round" stroke-miterlimit="10" d="M62.284,53.934
			c-7.722,0-7.722-6.178-15.444-6.178c-7.722,0-7.722,6.178-15.445,6.178c-7.724,0-7.724-6.178-15.447-6.178
			S8.224,53.934,0.5,53.934"/>
		<path fill="none" stroke="#F3470D" stroke-linecap="round" stroke-linejoin="round" stroke-miterlimit="10" d="M47.731,7.603
			c0.001,0.989,0.782,1.755,1.779,1.744c0.988-0.011,1.775-0.804,1.765-1.779c-0.01-0.958-0.846-1.781-1.794-1.767
			C48.508,5.815,47.73,6.616,47.731,7.603z"/>
	</g>
</g>
</svg>
