<?xml version="1.0" encoding="utf-8"?>
<!-- Generator: Adobe Illustrator 18.1.1, SVG Export Plug-In . SVG Version: 6.00 Build 0)  -->
<svg version="1.1" id="Слой_1" xmlns="http://www.w3.org/2000/svg" xmlns:xlink="http://www.w3.org/1999/xlink" x="0px" y="0px"
	 viewBox="0 0 35.879 52.433" enable-background="new 0 0 35.879 52.433" xml:space="preserve">
<g>
	<path fill="#1E0F00" d="M35.879,27.381c0,3.982-2.338,8.717-4.984,11.359c-2.58,2.577-6.796,5.342-10.815,5.342V30.796h6.288
		c0-0.842,0.321-4.035,0.534-4.486H20.08c0-5.075,0.451-4.488,6.822-4.488v-4.484c-4.032,0-6.025-0.456-8.903,1.68
		c-2.47,1.827-2.232,4.921-2.232,7.292h-3.41v4.486h3.41v13.287c-2.312,0-4.713-1.108-6.339-1.907
		c-3.486-1.734-6.136-4.919-7.841-8.328c-1.466-2.904-1.616-5.346-1.616-8.54v-0.082c0-2.256,0.942-5.122,1.732-6.699
		c1.355-2.689,3.346-5.241,5.845-6.906c1.437-0.959,1.032-0.741,2.591-1.528c3.147-1.593,5.39-1.731,8.785-1.741h0.084
		c5.784,0.009,11.46,3.951,14.474,8.867c0.279,0.464,0.415,0.824,0.665,1.309C35.739,21.697,35.879,23.955,35.879,27.381"/>
</g>
</svg>
