<?xml version="1.0" encoding="utf-8"?>
<!-- Generator: Adobe Illustrator 18.1.1, SVG Export Plug-In . SVG Version: 6.00 Build 0)  -->
<svg version="1.1" id="Слой_1" xmlns="http://www.w3.org/2000/svg" xmlns:xlink="http://www.w3.org/1999/xlink" x="0px" y="0px"
	 viewBox="0 0 57.75 56.333" enable-background="new 0 0 57.75 56.333" xml:space="preserve">
<circle fill="none" stroke="#F3470D" stroke-linecap="round" stroke-linejoin="round" stroke-miterlimit="10" cx="44.167" cy="46.917" r="2.417"/>
<ellipse fill="none" stroke="#F3470D" stroke-linecap="round" stroke-linejoin="round" stroke-miterlimit="10" cx="29.292" cy="12.584" rx="3.875" ry="2.083"/>
<path fill="none" stroke="#53A711" stroke-linecap="round" stroke-linejoin="round" stroke-miterlimit="10" d="M9.417,25.167v6.977
	c0,5.901,8.898,10.685,19.875,10.685c10.977,0,19.875-4.784,19.875-10.685v-6.977"/>
<line fill="none" stroke="#53A711" stroke-linecap="round" stroke-linejoin="round" stroke-miterlimit="10" x1="29.292" y1="32.25" x2="29.292" y2="42.829"/>
<polyline fill="none" stroke="#F3470D" stroke-linecap="round" stroke-linejoin="round" stroke-miterlimit="10" points="
	29.292,12.584 44.167,18.75 44.167,44.5 "/>
<polygon fill="none" stroke="#53A711" stroke-linecap="round" stroke-linejoin="round" stroke-miterlimit="10" points="29.292,0.5 
	57.25,12.584 29.292,24.75 0.5,12.625 "/>
<polyline fill="none" stroke="#53A711" stroke-linecap="round" stroke-linejoin="round" stroke-miterlimit="10" points="
	57.25,16.375 29.292,28.542 0.5,16.417 "/>
<line fill="none" stroke="#F3470D" stroke-linecap="round" stroke-linejoin="round" stroke-miterlimit="10" x1="44.167" y1="51.584" x2="44.167" y2="55.5"/>
<line fill="none" stroke="#F3470D" stroke-linecap="round" stroke-linejoin="round" stroke-miterlimit="10" x1="41.083" y1="50.417" x2="39.667" y2="55.834"/>
<line fill="none" stroke="#F3470D" stroke-linecap="round" stroke-linejoin="round" stroke-miterlimit="10" x1="47.058" y1="50.417" x2="48.474" y2="55.834"/>
</svg>
