<?xml version="1.0" encoding="utf-8"?>
<!-- Generator: Adobe Illustrator 18.1.1, SVG Export Plug-In . SVG Version: 6.00 Build 0)  -->
<svg version="1.1" id="Слой_1" xmlns="http://www.w3.org/2000/svg" xmlns:xlink="http://www.w3.org/1999/xlink" x="0px" y="0px"
	 viewBox="0 0 61.139 55.469" enable-background="new 0 0 61.139 55.469" xml:space="preserve">
<path fill="none" stroke="#53A711" stroke-linecap="round" stroke-linejoin="round" stroke-miterlimit="10" d="M34.254,24.187"/>
<path fill="none" stroke="#F3470D" stroke-linecap="round" stroke-linejoin="round" stroke-miterlimit="10" d="M37.698,34.878
	c5.675,0,10.276-4.601,10.276-10.276c0-5.676-4.601-10.277-10.276-10.277c-3.553,0-6.684,1.802-8.53,4.544
	c-1.164-0.842-2.591-1.345-4.138-1.345c-3.18,0-5.868,2.096-6.761,4.982c-3.161,0.285-5.639,2.938-5.639,6.172
	c0,3.423,2.776,6.199,6.2,6.199"/>
<g>
	<path fill="none" stroke="#53A711" stroke-linecap="round" stroke-linejoin="round" stroke-miterlimit="10" d="M53.261,19.363
		c-1.279,0.773-2.145,2.162-2.145,3.757v8.013c0,1.596,0.866,2.984,2.145,3.758c-2.821,8.219-9.986,14.435-18.744,15.893
		c-0.429-0.534-1.08-0.885-1.815-0.885h-4.265c-1.288,0-2.341,1.054-2.341,2.344v0.382c0,1.29,1.053,2.343,2.341,2.343h4.265
		c1.017,0,1.879-0.66,2.201-1.573c9.818-1.615,17.84-8.615,20.927-17.859h0.408c2.422,0,4.402-1.982,4.402-4.404v-8.013
		c0-2.42-1.98-4.4-4.402-4.4H55.83C52.299,8.147,42.313,0.5,30.57,0.5S8.84,8.147,5.31,18.72H4.902c-2.421,0-4.402,1.98-4.402,4.4
		v8.013c0,2.422,1.98,4.404,4.402,4.404h0.722c2.42,0,4.4-1.982,4.4-4.404v-8.013c0-1.596-0.866-2.984-2.145-3.757
		C11.114,9.937,20.061,3.142,30.57,3.142c9.053,0,16.945,5.042,21.028,12.465"/>
</g>
<circle fill="none" stroke="#53A711" stroke-linecap="round" stroke-linejoin="round" stroke-miterlimit="10" cx="28.55" cy="34.878" r="7.083"/>
<g>
	<path fill="none" stroke="#F3470D" stroke-linecap="round" stroke-linejoin="round" stroke-miterlimit="10" d="M25.088,34.323
		c0-0.733,0.594-1.327,1.327-1.327c0.733,0,1.327,0.594,1.327,1.327c0,1.07-2.654,2.697-2.654,2.697h2.654"/>
	<polyline fill="none" stroke="#F3470D" stroke-linecap="round" stroke-linejoin="round" stroke-miterlimit="10" points="
		30.472,32.738 29.102,35.82 32.013,35.82 	"/>
	
		<line fill="none" stroke="#F3470D" stroke-linecap="round" stroke-linejoin="round" stroke-miterlimit="10" x1="31.371" y1="34.28" x2="31.371" y2="37.019"/>
</g>
</svg>
