<?xml version="1.0" encoding="utf-8"?>
<!-- Generator: Adobe Illustrator 18.1.1, SVG Export Plug-In . SVG Version: 6.00 Build 0)  -->
<svg version="1.1" id="Слой_1" xmlns="http://www.w3.org/2000/svg" xmlns:xlink="http://www.w3.org/1999/xlink" x="0px" y="0px"
	 viewBox="0 0 90.897 74.872" enable-background="new 0 0 90.897 74.872" xml:space="preserve">
<g>
	<path fill="none" stroke="#F3470D" stroke-linecap="round" stroke-linejoin="round" stroke-miterlimit="10" d="M20.837,56.391
		c-2.209,0-4-1.792-4-4v-0.528v-2.332v-5.597v-0.902v-0.528c0-3.254,0.011-7.247,0.011-8.866c0-2.378,0.612-3.44,1.669-4.615
		L30.212,15.87l-7.127-7.926L0.5,33.208h6.778v41.164h15.633v-17.98H20.837z"/>
	<g>
		
			<rect x="72.179" y="71.512" fill="none" stroke="#53A711" stroke-linecap="round" stroke-linejoin="round" stroke-miterlimit="10" width="16.043" height="2.86"/>
		
			<rect x="20.837" y="43.032" fill="none" stroke="#53A711" stroke-linecap="round" stroke-linejoin="round" stroke-miterlimit="10" width="0.973" height="8.831"/>
		<path fill="none" stroke="#53A711" stroke-linecap="round" stroke-linejoin="round" stroke-miterlimit="10" d="M72.179,48.381
			V33.208h6.778L49.544,0.5L20.133,33.208h6.778v9.296h-6.074v1.43h6.074v5.597h-6.074v2.86h6.074v21.98h7.523V53.385h13.182v20.986
			h24.563v-8.457h3.167v8.457h0.972v-8.457h3.117v8.457h0.972v-8.457h3.116v8.457h0.973v-8.457h3.116v8.457h0.972V53.385h1.814
			L72.179,48.381z M45.752,47.447H36.3V36.954h9.452V47.447z M63.908,63.879h-9.451V53.385h9.451V63.879z M63.908,47.447h-9.451
			V36.954h9.451V47.447z M87.611,64.485H72.179v-11.1h15.433V64.485z"/>
	</g>
</g>
</svg>
