<?xml version="1.0" encoding="utf-8"?>
<!-- Generator: Adobe Illustrator 18.1.1, SVG Export Plug-In . SVG Version: 6.00 Build 0)  -->
<svg version="1.1" id="Слой_1" xmlns="http://www.w3.org/2000/svg" xmlns:xlink="http://www.w3.org/1999/xlink" x="0px" y="0px"
	 viewBox="0 0 35.867 52.433" enable-background="new 0 0 35.867 52.433" xml:space="preserve">
<g>
	<path fill="#1E0F00" d="M14.692,24.513c-0.885,0.88-1.329,1.953-1.329,3.218c0,1.264,0.444,2.341,1.329,3.222
		c0.88,0.885,1.963,1.331,3.222,1.331c1.266,0,2.337-0.446,3.218-1.331c0.884-0.881,1.324-1.957,1.324-3.222
		c0-1.264-0.44-2.338-1.324-3.218c-0.881-0.888-1.952-1.329-3.218-1.329C16.655,23.184,15.572,23.625,14.692,24.513 M24.207,19.931
		c0.143,0.145,0.32,0.225,0.532,0.225h1.513c0.205,0,0.382-0.079,0.535-0.225c0.151-0.158,0.221-0.329,0.221-0.532v-1.523
		c0-0.205-0.07-0.376-0.221-0.535c-0.154-0.144-0.33-0.228-0.535-0.228h-1.513c-0.212,0-0.389,0.084-0.532,0.228
		c-0.153,0.159-0.228,0.33-0.228,0.535v1.523C23.979,19.602,24.054,19.773,24.207,19.931z M28.515,21.67h-3.825
		c-0.855-0.958-1.866-1.691-3.032-2.231c-1.171-0.535-2.418-0.806-3.744-0.806c-2.299,0-4.325,0.776-6.059,2.332v-5.362h15.153
		c0.422,0,0.788,0.15,1.075,0.439c0.293,0.289,0.432,0.653,0.432,1.071V21.67z M11.348,23.935c0.683-1.162,1.607-2.083,2.764-2.773
		c1.156-0.672,2.425-1.006,3.802-1.006c1.369,0,2.639,0.334,3.803,1.006c1.156,0.69,2.08,1.611,2.758,2.773
		c0.675,1.155,1.013,2.425,1.013,3.795c0,1.37-0.338,2.64-1.013,3.804c-0.678,1.156-1.602,2.08-2.758,2.753
		c-1.164,0.683-2.434,1.026-3.803,1.026c-1.377,0-2.646-0.343-3.802-1.026c-1.157-0.673-2.081-1.597-2.764-2.753
		c-0.678-1.164-1.019-2.435-1.019-3.804C10.328,26.361,10.67,25.09,11.348,23.935z M8.818,21.67H7.307v-4.557
		c0-0.419,0.139-0.783,0.444-1.071c0.306-0.289,0.653-0.439,1.067-0.439V21.67z M29.151,37.456c0.595-0.6,0.889-1.31,0.889-2.142
		V17.113c0-0.833-0.293-1.546-0.889-2.146c-0.591-0.581-1.307-0.866-2.142-0.866H8.818c-0.84,0-1.544,0.286-2.143,0.866
		c-0.602,0.6-0.887,1.313-0.887,2.146v18.202c0,0.832,0.285,1.542,0.887,2.142c0.599,0.589,1.303,0.886,2.143,0.886h18.19
		C27.844,38.342,28.559,38.045,29.151,37.456z M35.867,26.207c0,9.929-8.042,17.961-17.953,17.961
		c-9.917,0-17.958-8.032-17.958-17.961c0-9.908,8.041-17.943,17.958-17.943C27.825,8.264,35.867,16.299,35.867,26.207z"/>
</g>
</svg>
