<?xml version="1.0" encoding="utf-8"?>
<!-- Generator: Adobe Illustrator 18.1.1, SVG Export Plug-In . SVG Version: 6.00 Build 0)  -->
<svg version="1.1" id="Слой_1" xmlns="http://www.w3.org/2000/svg" xmlns:xlink="http://www.w3.org/1999/xlink" x="0px" y="0px"
	 viewBox="0 0 47.451 63.114" enable-background="new 0 0 47.451 63.114" xml:space="preserve">
<g>
	<path fill="none" d="M31.62,39.713c0.198-0.191,0.517-0.187,0.707,0.012l14.124,14.596V25.576l-22.43,16.449
		c-0.088,0.064-0.192,0.097-0.296,0.097s-0.208-0.032-0.296-0.097L1,25.576v28.745l14.125-14.596
		c0.191-0.198,0.51-0.203,0.707-0.012c0.198,0.192,0.204,0.509,0.012,0.707L1.68,55.057h44.092L31.608,40.42
		C31.416,40.222,31.422,39.906,31.62,39.713z"/>
	<path fill="#1E0F00" d="M47.441,24.545c-0.004-0.047-0.015-0.091-0.033-0.136c-0.01-0.026-0.019-0.049-0.034-0.073
		c-0.008-0.014-0.01-0.03-0.02-0.043c-0.02-0.027-0.048-0.044-0.072-0.066c-0.014-0.013-0.02-0.031-0.035-0.042l-1.852-1.358
		c-0.221-0.162-0.535-0.117-0.699,0.107c-0.163,0.223-0.115,0.536,0.107,0.699l1.302,0.955l-22.38,16.412L1.345,24.589l1.498-1.098
		c0.223-0.163,0.271-0.477,0.107-0.699c-0.163-0.225-0.479-0.27-0.699-0.107l-2.048,1.502c-0.015,0.011-0.022,0.03-0.036,0.043
		c-0.024,0.022-0.052,0.038-0.071,0.065c-0.01,0.013-0.012,0.029-0.02,0.043c-0.014,0.023-0.023,0.047-0.034,0.073
		c-0.018,0.045-0.029,0.089-0.033,0.136C0.009,24.56,0,24.574,0,24.589v30.968c0,0.163,0.083,0.301,0.203,0.392
		c0.017,0.013,0.032,0.023,0.05,0.034c0.074,0.043,0.155,0.074,0.247,0.074h46.451c0.092,0,0.173-0.031,0.247-0.074
		c0.018-0.011,0.033-0.021,0.05-0.034c0.12-0.091,0.203-0.229,0.203-0.392V24.589C47.451,24.574,47.442,24.56,47.441,24.545z
		 M1.68,55.057L15.844,40.42c0.192-0.198,0.187-0.515-0.012-0.707c-0.197-0.191-0.516-0.187-0.707,0.012L1,54.321V25.576
		l22.43,16.449c0.088,0.064,0.192,0.097,0.296,0.097s0.208-0.032,0.296-0.097l22.43-16.449v28.745L32.327,39.725
		c-0.19-0.198-0.509-0.203-0.707-0.012c-0.198,0.192-0.204,0.509-0.012,0.707l14.163,14.637H1.68z"/>
	<path fill="#1E0F00" d="M21.824,9.451c0.104,0,0.207-0.031,0.296-0.097l1.605-1.178l1.595,1.17
		c0.222,0.163,0.535,0.117,0.699-0.107c0.163-0.223,0.115-0.536-0.107-0.699l-1.891-1.387c-0.176-0.129-0.416-0.129-0.592,0
		l-1.901,1.395c-0.223,0.163-0.271,0.477-0.107,0.699C21.519,9.381,21.671,9.451,21.824,9.451z"/>
	<path fill="#1E0F00" d="M4.371,24.594c0.276,0,0.5-0.224,0.5-0.5V13.836c0-1.432,1.165-2.597,2.597-2.597h22.817h1.871h3.083
		l6.635,6.635h-3.46c-1.407,0-2.597-0.84-2.597-1.834v-2.334c0-0.276-0.224-0.5-0.5-0.5s-0.5,0.224-0.5,0.5v2.334
		c0,1.563,1.613,2.834,3.597,2.834h4.667c0.065,0,0.13-0.013,0.191-0.038c0.122-0.051,0.22-0.148,0.271-0.271
		c0.051-0.122,0.051-0.26,0-0.382c-0.025-0.062-0.062-0.117-0.109-0.163L35.8,10.386c-0.094-0.094-0.221-0.146-0.354-0.146h-3.29
		h-1.871H7.468c-1.983,0-3.597,1.613-3.597,3.597v10.258C3.871,24.37,4.095,24.594,4.371,24.594z"/>
	<path fill="#1E0F00" d="M43.081,20.111c-0.276,0-0.5,0.224-0.5,0.5v3.451c0,0.276,0.224,0.5,0.5,0.5s0.5-0.224,0.5-0.5v-3.451
		C43.581,20.334,43.357,20.111,43.081,20.111z"/>
	<path fill="#1E0F00" d="M25.22,17.874H10.606c-0.276,0-0.5,0.224-0.5,0.5s0.224,0.5,0.5,0.5H25.22c0.276,0,0.5-0.224,0.5-0.5
		S25.496,17.874,25.22,17.874z"/>
	<path fill="#1E0F00" d="M10.606,21.948h12.436c0.276,0,0.5-0.224,0.5-0.5s-0.224-0.5-0.5-0.5H10.606c-0.276,0-0.5,0.224-0.5,0.5
		S10.33,21.948,10.606,21.948z"/>
	<path fill="#1E0F00" d="M10.606,29.057h9.049c0.276,0,0.5-0.224,0.5-0.5s-0.224-0.5-0.5-0.5h-9.049c-0.276,0-0.5,0.224-0.5,0.5
		S10.33,29.057,10.606,29.057z"/>
	<path fill="#1E0F00" d="M21.72,28.557c0,0.276,0.224,0.5,0.5,0.5h5.952c0.276,0,0.5-0.224,0.5-0.5s-0.224-0.5-0.5-0.5H22.22
		C21.943,28.057,21.72,28.281,21.72,28.557z"/>
	<path fill="#1E0F00" d="M14.515,32.131h8.527c0.276,0,0.5-0.224,0.5-0.5s-0.224-0.5-0.5-0.5h-8.527c-0.276,0-0.5,0.224-0.5,0.5
		S14.238,32.131,14.515,32.131z"/>
	<path fill="#1E0F00" d="M33.39,31.631c0-0.276-0.224-0.5-0.5-0.5h-7.273c-0.276,0-0.5,0.224-0.5,0.5s0.224,0.5,0.5,0.5h7.273
		C33.166,32.131,33.39,31.907,33.39,31.631z"/>
	<path fill="#1E0F00" d="M18.616,35.11h10.185c0.276,0,0.5-0.224,0.5-0.5s-0.224-0.5-0.5-0.5H18.616c-0.276,0-0.5,0.224-0.5,0.5
		S18.34,35.11,18.616,35.11z"/>
</g>
</svg>
