<?xml version="1.0" encoding="utf-8"?>
<!-- Generator: Adobe Illustrator 18.1.1, SVG Export Plug-In . SVG Version: 6.00 Build 0)  -->
<svg version="1.1" id="Слой_1" xmlns="http://www.w3.org/2000/svg" xmlns:xlink="http://www.w3.org/1999/xlink" x="0px" y="0px"
	 viewBox="0 0 80.522 52.3" enable-background="new 0 0 80.522 52.3" xml:space="preserve">
<g>
	<polyline fill="none" stroke="#53A711" stroke-linecap="round" stroke-linejoin="round" stroke-miterlimit="10" points="
		717.832,-274.944 719.684,-273.586 719.684,-242.619 673.232,-242.619 673.232,-273.586 675.28,-275.089 	"/>
	<polyline fill="none" stroke="#53A711" stroke-linecap="round" stroke-linejoin="round" stroke-miterlimit="10" points="
		694.556,-289.224 696.458,-290.619 698.348,-289.232 	"/>
	<polyline fill="none" stroke="#53A711" stroke-linecap="round" stroke-linejoin="round" stroke-miterlimit="10" points="
		688.216,-258.103 673.232,-242.619 719.684,-242.619 704.699,-258.103 	"/>
	<polyline fill="none" stroke="#53A711" stroke-linecap="round" stroke-linejoin="round" stroke-miterlimit="10" points="
		719.684,-273.586 696.458,-256.554 673.232,-273.586 	"/>
	<g>
		<g>
			<path fill="none" stroke="#53A711" stroke-linecap="round" stroke-linejoin="round" stroke-miterlimit="10" d="M677.103-274.082
				v-10.257c0-1.703,1.394-3.097,3.097-3.097h24.688"/>
		</g>
		<g>
			
				<line fill="none" stroke="#53A711" stroke-linecap="round" stroke-linejoin="round" stroke-miterlimit="10" x1="715.813" y1="-277.565" x2="715.813" y2="-274.114"/>
		</g>
		<path fill="none" stroke="#53A711" stroke-linecap="round" stroke-linejoin="round" stroke-miterlimit="10" d="M708.049-285.243"
			/>
		<polyline fill="none" stroke="#53A711" stroke-linecap="round" stroke-linejoin="round" stroke-miterlimit="10" points="
			703.017,-287.436 708.178,-287.436 715.813,-279.801 		"/>
		<g>
			<path fill="none" stroke="#53A711" stroke-linecap="round" stroke-linejoin="round" stroke-miterlimit="10" d="M715.813-279.801
				h-4.666c-1.703,0-3.097-1.05-3.097-2.334s0-2.334,0-2.334"/>
		</g>
		
			<line fill="none" stroke="#53A711" stroke-linecap="round" stroke-linejoin="round" stroke-miterlimit="10" x1="683.339" y1="-279.801" x2="697.952" y2="-279.801"/>
		
			<line fill="none" stroke="#53A711" stroke-linecap="round" stroke-linejoin="round" stroke-miterlimit="10" x1="683.339" y1="-276.727" x2="695.774" y2="-276.727"/>
		
			<line fill="none" stroke="#53A711" stroke-linecap="round" stroke-linejoin="round" stroke-miterlimit="10" x1="683.339" y1="-269.619" x2="692.387" y2="-269.619"/>
		
			<line fill="none" stroke="#53A711" stroke-linecap="round" stroke-linejoin="round" stroke-miterlimit="10" x1="694.952" y1="-269.619" x2="700.903" y2="-269.619"/>
		
			<line fill="none" stroke="#53A711" stroke-linecap="round" stroke-linejoin="round" stroke-miterlimit="10" x1="687.247" y1="-266.545" x2="695.774" y2="-266.545"/>
		
			<line fill="none" stroke="#53A711" stroke-linecap="round" stroke-linejoin="round" stroke-miterlimit="10" x1="698.348" y1="-266.545" x2="705.622" y2="-266.545"/>
		
			<line fill="none" stroke="#53A711" stroke-linecap="round" stroke-linejoin="round" stroke-miterlimit="10" x1="691.348" y1="-263.566" x2="701.533" y2="-263.566"/>
	</g>
</g>
<polyline fill="none" stroke="#53A711" stroke-width="0.9714" stroke-miterlimit="10" points="840.93,-274.83 859.214,-246.546 
	840.93,-218.261 "/>
<g>
	<path fill="none" stroke="#53A711" stroke-linecap="round" stroke-linejoin="round" stroke-miterlimit="10" d="M73.876,0.5H51.768
		c-1.39,0-2.64,0.614-3.502,1.581C26.42,2.626,0.5,24.338,0.5,51.219V51.8h6.271v-0.581c0-10.887,5.011-21.62,14.109-30.224
		c7.773-7.35,17.413-11.951,26.185-12.578v0.55c0,2.586,2.116,4.704,4.703,4.704h1.334c0,5.358,4.359,9.721,9.72,9.721
		c5.36,0,9.721-4.362,9.721-9.721h1.333c2.587,0,4.703-2.118,4.703-4.704V5.204C78.579,2.617,76.463,0.5,73.876,0.5z M69.407,13.681
		v0.512h-0.026c-0.268,3.387-3.104,6.063-6.559,6.063c-3.631,0-6.585-2.955-6.585-6.585h0.092v0.119h13.078V13.67l0,0
		C69.407,13.67,69.407,13.675,69.407,13.681z"/>
	
		<line fill="none" stroke="#F3470D" stroke-linecap="round" stroke-linejoin="round" stroke-miterlimit="10" x1="63.316" y1="28.079" x2="63.316" y2="50.079"/>
	
		<line fill="none" stroke="#F3470D" stroke-linecap="round" stroke-linejoin="round" stroke-miterlimit="10" x1="72.188" y1="50.079" x2="67.688" y2="28.079"/>
	
		<line fill="none" stroke="#F3470D" stroke-linecap="round" stroke-linejoin="round" stroke-miterlimit="10" x1="80.022" y1="50.079" x2="72.393" y2="28.079"/>
	
		<line fill="none" stroke="#F3470D" stroke-linecap="round" stroke-linejoin="round" stroke-miterlimit="10" x1="54.445" y1="50.079" x2="58.945" y2="28.079"/>
	
		<line fill="none" stroke="#F3470D" stroke-linecap="round" stroke-linejoin="round" stroke-miterlimit="10" x1="46.611" y1="50.079" x2="54.24" y2="28.079"/>
</g>
<g>
	<path fill="none" d="M471.651,20.056v5.491c0.09-0.132,0.242-0.219,0.414-0.219c0.541-0.689,1.015-1.826,1.372-3.361
		c0.062-0.269,0.332-0.438,0.6-0.374c0.269,0.063,0.436,0.331,0.374,0.601c-0.391,1.686-0.933,2.959-1.608,3.786
		c-0.287,0.353-0.91,0.482-1.15,0.13v23.853c0,1.366,1.112,2.478,2.48,2.478s2.48-1.111,2.48-2.478V28.822
		c0-0.276,0.224-0.5,0.5-0.5h2.336c0.276,0,0.5,0.224,0.5,0.5v21.141c0,1.366,1.113,2.478,2.482,2.478
		c1.366,0,2.477-1.111,2.477-2.478V26.145c-0.272,0.317-0.86,0.178-1.141-0.166c-0.676-0.827-1.217-2.101-1.609-3.785
		c-0.063-0.269,0.104-0.538,0.374-0.601c0.268-0.063,0.537,0.105,0.6,0.374c0.357,1.534,0.832,2.672,1.411,3.38
		c0.15,0,0.279,0.063,0.365,0.165v-6.463c-0.026-0.026-0.05-0.053-0.073-0.082c-1.82-2.231-2.241-7.02-2.335-9.428h-8.573
		c-0.093,2.381-0.505,7.088-2.273,9.351V20.056z"/>
	<path fill="none" d="M478.08-4.791c3.148,0,5.71-2.561,5.71-5.708s-2.562-5.709-5.71-5.709s-5.709,2.562-5.709,5.709
		S474.932-4.791,478.08-4.791z"/>
	<path fill="none" d="M473.404,8.547v-9.368h-2.252c-2.59,0-4.372,3.293-5.777,10.677c-0.965,5.061-1.457,10.636-1.504,13.673
		c0,0.034-0.005,0.068-0.012,0.103c-0.032,0.141-0.047,0.27-0.047,0.394c0,0.998,0.812,1.81,1.81,1.81
		c0.998,0,1.809-0.812,1.809-1.81c0-0.129-0.014-0.253-0.039-0.374c-0.007-0.034-0.011-0.069-0.01-0.104
		c0.075-7.005,1.808-15.526,3.316-18.794c0.099-0.213,0.331-0.326,0.562-0.278c0.229,0.051,0.393,0.254,0.393,0.488v11.881
		c1.063-2.591,1.256-6.489,1.29-7.817C472.948,8.769,473.151,8.567,473.404,8.547z"/>
	<path fill="none" d="M500.191,52.431c0.528-0.113,4.345-1.313,4.458-12.168h-8.953C495.814,50.816,499.657,52.28,500.191,52.431z"
		/>
	<path fill="#F3470D" d="M478.08-3.791c3.7,0,6.71-3.009,6.71-6.708s-3.01-6.709-6.71-6.709s-6.709,3.01-6.709,6.709
		S474.381-3.791,478.08-3.791z M478.08-16.208c3.148,0,5.71,2.562,5.71,5.709s-2.562,5.708-5.71,5.708s-5.709-2.561-5.709-5.708
		S474.932-16.208,478.08-16.208z"/>
	<path fill="#F3470D" d="M492.17,9.669c-1.534-8.053-3.556-11.489-6.763-11.489h-1.116h-1.771h-8.616h-2.752
		c-3.206,0-5.227,3.437-6.759,11.489c-0.971,5.092-1.468,10.705-1.521,13.795c-0.04,0.192-0.061,0.382-0.061,0.562
		c0,1.549,1.261,2.81,2.81,2.81c1.549,0,2.809-1.261,2.809-2.81c0-0.178-0.017-0.351-0.048-0.519
		c0.063-5.395,1.114-11.671,2.27-15.651v10.846c0-0.136,0.055-0.265,0.152-0.359c0.332-0.405,0.611-0.92,0.848-1.498V4.962
		c0-0.234-0.164-0.438-0.393-0.488c-0.23-0.048-0.463,0.065-0.562,0.278c-1.509,3.268-3.242,11.789-3.316,18.794
		c0,0.035,0.003,0.07,0.01,0.104c0.024,0.121,0.039,0.245,0.039,0.374c0,0.998-0.812,1.81-1.809,1.81c-0.998,0-1.81-0.812-1.81-1.81
		c0-0.124,0.016-0.253,0.047-0.394c0.007-0.034,0.012-0.068,0.012-0.103c0.048-3.037,0.539-8.612,1.504-13.673
		c1.405-7.384,3.187-10.677,5.777-10.677h2.252h1h7.616h0.5h0.5h1.271h1.116c2.592,0,4.375,3.293,5.781,10.677
		c0.964,5.064,1.455,10.639,1.502,13.674c0,0.035,0.005,0.069,0.013,0.104c0.03,0.134,0.046,0.266,0.046,0.392
		c0,0.998-0.812,1.81-1.809,1.81c-0.998,0-1.81-0.812-1.81-1.81c0-0.124,0.013-0.248,0.04-0.369
		c0.008-0.036,0.012-0.073,0.011-0.111c-0.077-7.014-1.811-15.533-3.32-18.792c-0.098-0.213-0.333-0.328-0.561-0.278
		c-0.229,0.051-0.393,0.254-0.393,0.488v8.206c0,0.276,0.224,0.5,0.5,0.5s0.5-0.224,0.5-0.5V7.851
		c1.157,3.975,2.208,10.25,2.273,15.651c-0.033,0.172-0.05,0.348-0.05,0.522c0,1.549,1.261,2.81,2.81,2.81
		c1.549,0,2.809-1.261,2.809-2.81c0-0.184-0.02-0.372-0.06-0.562C493.636,20.376,493.139,14.764,492.17,9.669z"/>
	<path fill="#53A711" d="M473.404,8.547c-0.253,0.02-0.456,0.222-0.463,0.48c-0.034,1.328-0.227,5.225-1.29,7.817
		c-0.237,0.578-0.516,1.093-0.848,1.498c-0.097,0.095-0.152,0.224-0.152,0.359v1.355v29.906c0,1.918,1.561,3.478,3.48,3.478
		s3.48-1.56,3.48-3.478V29.322h1.336v20.641c0,1.918,1.562,3.478,3.482,3.478c1.917,0,3.477-1.56,3.477-3.478V18.805
		c0-0.179-0.096-0.344-0.25-0.434c-0.033-0.019-0.043-0.03-0.046-0.033c0-0.001,0-0.001-0.001-0.002
		c-1.808-2.215-2.085-7.686-2.127-9.31c-0.007-0.271-0.229-0.487-0.5-0.487h-8.578v-9.36h-1V8.547z M482.498,9.54
		c0.094,2.408,0.515,7.196,2.335,9.428c0.023,0.029,0.047,0.056,0.073,0.082v6.463c-0.086-0.102-0.215-0.165-0.365-0.165
		c-0.579-0.708-1.054-1.846-1.411-3.38c-0.063-0.269-0.333-0.437-0.6-0.374c-0.269,0.063-0.436,0.332-0.374,0.601
		c0.392,1.685,0.933,2.958,1.609,3.785c0.28,0.344,0.868,0.483,1.141,0.166v23.817c0,1.366-1.111,2.478-2.477,2.478
		c-1.369,0-2.482-1.111-2.482-2.478V28.822c0-0.276-0.224-0.5-0.5-0.5h-2.336c-0.276,0-0.5,0.224-0.5,0.5v21.141
		c0,1.366-1.112,2.478-2.48,2.478s-2.48-1.111-2.48-2.478V26.11c0.241,0.353,0.864,0.223,1.15-0.13
		c0.676-0.827,1.217-2.101,1.608-3.786c0.063-0.27-0.104-0.538-0.374-0.601c-0.268-0.063-0.538,0.105-0.6,0.374
		c-0.357,1.535-0.831,2.672-1.372,3.361c-0.172,0-0.324,0.087-0.414,0.219v-5.491V18.89c1.768-2.263,2.18-6.97,2.273-9.351H482.498z
		"/>
	<path fill="#53A711" d="M482.019-0.821v7.044c0,0.276,0.224,0.5,0.5,0.5s0.5-0.224,0.5-0.5v-7.044h-0.5H482.019z"/>
	<rect x="499.673" y="14.608" fill="#F3470D" width="1" height="24.655"/>
	<path fill="#53A711" d="M502.849,14.608c0.276,0,0.5-0.224,0.5-0.5s-0.224-0.5-0.5-0.5h-5.352c-0.276,0-0.5,0.224-0.5,0.5
		s0.224,0.5,0.5,0.5h2.176h1H502.849z"/>
	<path fill="#53A711" d="M505.152,39.263h-4.479h-1h-4.479c-0.276,0-0.5,0.224-0.5,0.5c0,12.734,5.187,13.64,5.407,13.672
		c0.024,0.003,0.048,0.005,0.072,0.005c0.012,0,0.023,0,0.035-0.001c0.222-0.016,5.444-0.532,5.444-13.676
		C505.652,39.487,505.428,39.263,505.152,39.263z M500.191,52.431c-0.534-0.151-4.377-1.615-4.495-12.168h8.953
		C504.536,51.118,500.719,52.318,500.191,52.431z"/>
</g>
<g>
	<g>
		<g>
			<path fill="none" stroke="#F3470D" stroke-linecap="round" stroke-linejoin="round" stroke-miterlimit="10" d="M866.387-599.042
				c0,0.916,0.749,1.665,1.665,1.665h3.331c0.916,0,1.665-0.749,1.665-1.665v-3.331c0-0.916-0.749-1.665-1.665-1.665h-3.331
				c-0.916,0-1.665,0.749-1.665,1.665V-599.042z"/>
		</g>
		<g>
			<path fill="none" stroke="#F3470D" stroke-linecap="round" stroke-linejoin="round" stroke-miterlimit="10" d="M893.031-599.042
				c0,0.916,0.749,1.665,1.665,1.665h3.331c0.916,0,1.665-0.749,1.665-1.665v-3.331c0-0.916-0.749-1.665-1.665-1.665h-3.331
				c-0.916,0-1.665,0.749-1.665,1.665V-599.042z"/>
		</g>
		<g>
			<path fill="none" stroke="#F3470D" stroke-linecap="round" stroke-linejoin="round" stroke-miterlimit="10" d="M866.387-572.397
				c0,0.916,0.749,1.665,1.665,1.665h3.331c0.916,0,1.665-0.749,1.665-1.665v-3.331c0-0.916-0.749-1.665-1.665-1.665h-3.331
				c-0.916,0-1.665,0.749-1.665,1.665V-572.397z"/>
		</g>
		
			<line fill="none" stroke="#F3470D" stroke-linecap="round" stroke-linejoin="round" stroke-miterlimit="10" x1="873.048" y1="-600.707" x2="893.031" y2="-600.707"/>
		
			<line fill="none" stroke="#F3470D" stroke-linecap="round" stroke-linejoin="round" stroke-miterlimit="10" x1="873.048" y1="-574.063" x2="879.612" y2="-574.063"/>
		
			<line fill="none" stroke="#F3470D" stroke-linecap="round" stroke-linejoin="round" stroke-miterlimit="10" x1="896.362" y1="-597.376" x2="896.362" y2="-592.716"/>
		
			<line fill="none" stroke="#F3470D" stroke-linecap="round" stroke-linejoin="round" stroke-miterlimit="10" x1="869.717" y1="-597.376" x2="869.717" y2="-577.393"/>
	</g>
	<g>
		<g>
			<path fill="none" stroke="#F3470D" stroke-linecap="round" stroke-linejoin="round" stroke-miterlimit="10" d="M893.031-567.38
				c0,1.832,1.499,3.331,3.331,3.331h6.661c1.832,0,3.331-1.499,3.331-3.331v-6.661c0-1.832-1.499-3.331-3.331-3.331h-6.661
				c-1.832,0-3.331,1.499-3.331,3.331V-567.38z"/>
		</g>
		
			<line fill="none" stroke="#F3470D" stroke-linecap="round" stroke-linejoin="round" stroke-miterlimit="10" x1="882.798" y1="-570.71" x2="893.031" y2="-570.71"/>
		
			<line fill="none" stroke="#F3470D" stroke-linecap="round" stroke-linejoin="round" stroke-miterlimit="10" x1="899.693" y1="-590.218" x2="899.693" y2="-577.371"/>
	</g>
	<path fill="none" stroke="#F3470D" stroke-linecap="round" stroke-linejoin="round" stroke-miterlimit="10" d="M922.107-587.79"/>
	
		<circle fill="none" stroke="#53A711" stroke-linecap="round" stroke-linejoin="round" stroke-miterlimit="10" cx="898.746" cy="-573.565" r="16.653"/>
	<path fill="none" stroke="#53A711" stroke-linecap="round" stroke-linejoin="round" stroke-miterlimit="10" d="M906.781-584.033
		c1.934,1.521,3.469,3.527,4.418,5.836"/>
	<g>
		<path fill="none" stroke="#53A711" stroke-linecap="round" stroke-linejoin="round" stroke-miterlimit="10" d="M912.868-560.631
			c3.122-3.408,5.028-7.948,5.028-12.934c0-10.577-8.573-19.15-19.151-19.15c-10.577,0-19.15,8.573-19.15,19.15
			s8.573,19.15,19.15,19.15c4.083,0,7.867-1.277,10.975-3.453c0.065-0.046,0.193,0.18,0.193,0.18l14.792,14.792
			c1.296,1.296,3.415,1.295,4.71,0l0,0c1.296-1.295,1.296-3.414,0-4.709l-13.026-13.026"/>
		
			<line fill="none" stroke="#53A711" stroke-linecap="round" stroke-linejoin="round" stroke-miterlimit="10" x1="919.196" y1="-551.644" x2="922.286" y2="-554.734"/>
		
			<line fill="none" stroke="#53A711" stroke-linecap="round" stroke-linejoin="round" stroke-miterlimit="10" x1="917.42" y1="-553.419" x2="920.511" y2="-556.51"/>
	</g>
</g>
<g>
	<path fill="#58595B" d="M863.013-685.592c0,3.982-2.338,8.717-4.984,11.359c-2.58,2.577-6.796,5.342-10.815,5.342v-13.287h6.288
		c0-0.842,0.321-4.035,0.534-4.486h-6.822c0-5.075,0.451-4.488,6.822-4.488v-4.484c-4.032,0-6.025-0.456-8.903,1.68
		c-2.47,1.827-2.232,4.921-2.232,7.292h-3.41v4.486h3.41v13.287c-2.312,0-4.713-1.108-6.339-1.907
		c-3.486-1.734-6.136-4.919-7.841-8.328c-1.466-2.904-1.616-5.346-1.616-8.54v-0.082c0-2.256,0.942-5.122,1.732-6.699
		c1.355-2.689,3.346-5.241,5.845-6.906c1.437-0.959,1.032-0.741,2.591-1.528c3.147-1.593,5.39-1.731,8.785-1.741h0.084
		c5.784,0.009,11.46,3.951,14.474,8.867c0.279,0.464,0.415,0.824,0.665,1.309C862.874-691.276,863.013-689.018,863.013-685.592"/>
	<path fill="#58595B" d="M942.355-688.278c-0.885,0.88-1.329,1.953-1.329,3.218c0,1.264,0.444,2.341,1.329,3.222
		c0.88,0.885,1.963,1.331,3.222,1.331c1.266,0,2.337-0.447,3.218-1.331c0.884-0.881,1.324-1.957,1.324-3.222
		c0-1.264-0.44-2.338-1.324-3.218c-0.881-0.888-1.952-1.329-3.218-1.329C944.318-689.607,943.235-689.166,942.355-688.278
		 M951.87-692.86c0.143,0.145,0.32,0.225,0.532,0.225h1.513c0.205,0,0.382-0.079,0.535-0.225c0.151-0.158,0.221-0.329,0.221-0.532
		v-1.523c0-0.205-0.07-0.376-0.221-0.535c-0.154-0.144-0.33-0.228-0.535-0.228h-1.513c-0.212,0-0.389,0.083-0.532,0.228
		c-0.153,0.159-0.228,0.33-0.228,0.535v1.523C951.643-693.189,951.717-693.018,951.87-692.86z M956.178-691.121h-3.825
		c-0.855-0.958-1.866-1.691-3.032-2.231c-1.171-0.535-2.418-0.807-3.744-0.807c-2.299,0-4.325,0.776-6.059,2.332v-5.362h15.153
		c0.422,0,0.788,0.151,1.075,0.439c0.293,0.289,0.432,0.653,0.432,1.071V-691.121z M939.011-688.856
		c0.683-1.162,1.607-2.083,2.764-2.773c1.156-0.672,2.425-1.006,3.802-1.006c1.369,0,2.639,0.334,3.803,1.006
		c1.156,0.69,2.08,1.611,2.758,2.773c0.675,1.155,1.013,2.425,1.013,3.795c0,1.37-0.338,2.64-1.013,3.804
		c-0.678,1.156-1.602,2.08-2.758,2.753c-1.164,0.683-2.434,1.026-3.803,1.026c-1.377,0-2.646-0.343-3.802-1.026
		c-1.157-0.673-2.081-1.597-2.764-2.753c-0.678-1.164-1.019-2.435-1.019-3.804C937.991-686.43,938.333-687.701,939.011-688.856z
		 M936.482-691.121h-1.511v-4.557c0-0.419,0.139-0.783,0.444-1.071c0.306-0.289,0.653-0.439,1.067-0.439V-691.121z M956.814-675.335
		c0.595-0.6,0.889-1.31,0.889-2.142v-18.202c0-0.833-0.293-1.546-0.889-2.146c-0.591-0.581-1.307-0.866-2.142-0.866h-18.19
		c-0.84,0-1.544,0.286-2.143,0.866c-0.602,0.6-0.887,1.313-0.887,2.146v18.202c0,0.832,0.285,1.542,0.887,2.142
		c0.599,0.589,1.303,0.886,2.143,0.886h18.19C955.507-674.449,956.222-674.746,956.814-675.335z M963.53-686.584
		c0,9.929-8.042,17.961-17.953,17.961c-9.917,0-17.958-8.032-17.958-17.961c0-9.908,8.041-17.943,17.958-17.943
		C955.489-704.527,963.53-696.492,963.53-686.584z"/>
	<path fill="#58595B" d="M897.236-688.575c0.268-0.238,0.407-0.582,0.407-1.034c0-0.421-0.139-0.74-0.407-0.974
		c-0.268-0.239-0.745-0.361-1.42-0.361h-1.968v2.736h1.933C896.479-688.208,896.968-688.336,897.236-688.575 M897.748-682.974
		c0.314-0.28,0.465-0.647,0.465-1.1c0-0.42-0.151-0.757-0.465-1.025c-0.303-0.256-0.85-0.384-1.642-0.384h-2.258v2.91h2.27
		C896.886-682.573,897.434-682.707,897.748-682.974z M899.657-687.125c1.048,0.244,1.805,0.674,2.294,1.268
		c0.489,0.612,0.733,1.368,0.733,2.282c0,0.745-0.174,1.409-0.524,2.014c-0.337,0.595-0.815,1.06-1.431,1.404
		c-0.361,0.214-0.931,0.378-1.677,0.471c-1.013,0.128-1.676,0.199-2.003,0.199h-7.707v-14.356h8.347
		c1.397,0,2.469,0.337,3.213,1.014c0.746,0.687,1.118,1.549,1.118,2.548c0,0.85-0.268,1.584-0.803,2.189
		C900.868-687.684,900.344-687.37,899.657-687.125z M906.969-678.451v-16.434c0-1.891-1.537-3.427-3.447-3.427h-16.508
		c-1.897,0-3.445,1.536-3.445,3.427v16.434c0,1.885,1.548,3.428,3.445,3.428h16.508
		C905.432-675.023,906.969-676.566,906.969-678.451z M913.314-686.67c0,9.918-8.08,17.952-18.033,17.952
		c-9.966,0-18.046-8.034-18.046-17.952c0-9.908,8.08-17.952,18.046-17.952C905.234-704.622,913.314-696.579,913.314-686.67z"/>
	<path fill="#58595B" d="M1014.185-686.584c0,9.929-8.042,17.961-17.953,17.961c-9.917,0-17.958-8.032-17.958-17.961
		c0-9.908,8.041-17.943,17.958-17.943C1006.143-704.527,1014.185-696.492,1014.185-686.584z M996.299-695.354
		c1.468,0,2.663,1.194,2.663,2.663c0,1.467-1.195,2.662-2.663,2.662c-1.468,0-2.662-1.194-2.662-2.662
		C993.636-694.159,994.831-695.354,996.299-695.354L996.299-695.354z M996.299-686.262c3.547,0,6.432-2.884,6.432-6.429
		c0-3.547-2.884-6.432-6.432-6.432c-3.547,0-6.432,2.885-6.432,6.432C989.867-689.145,992.752-686.262,996.299-686.262
		 M998.901-681.016c1.323-0.301,2.586-0.824,3.734-1.546c0.881-0.554,1.145-1.717,0.591-2.598c-0.553-0.881-1.715-1.147-2.596-0.594
		c-0.001,0-0.001,0.001-0.002,0.001c-2.635,1.656-6.026,1.655-8.659,0c-0.88-0.554-2.042-0.29-2.596,0.589l-0.002,0.003
		c-0.554,0.88-0.29,2.044,0.59,2.598c1.149,0.722,2.411,1.245,3.734,1.546l-3.595,3.596c-0.736,0.736-0.736,1.929,0,2.665
		c0.736,0.736,1.929,0.736,2.665,0l0,0l3.532-3.533l3.534,3.533c0.734,0.735,1.926,0.736,2.661,0.002l0.002-0.002
		c0.736-0.733,0.737-1.924,0.004-2.66c-0.001-0.001-0.003-0.003-0.004-0.004L998.901-681.016"/>
	<path fill="#58595B" d="M1042.967-681.111v-6.534c0-1.437-0.437-2.144-1.353-2.144c-0.9,0-1.333,0.707-1.333,2.144v6.534
		c0,1.445,0.433,2.159,1.333,2.159C1042.531-678.951,1042.967-679.666,1042.967-681.111 M1068.453-694.319h3.335v-2.909h-9.703
		v2.909h3.277v17.71h3.091V-694.319z M1077.411-676.61h2.778v-15.357h-2.778v11.742c-0.616,0.87-1.199,1.294-1.758,1.294
		c-0.367,0-0.579-0.211-0.644-0.65c-0.034-0.086-0.034-0.426-0.034-1.086v-11.3h-2.784v12.142c0,1.089,0.097,1.82,0.249,2.28
		c0.281,0.779,0.895,1.15,1.79,1.15c1.031,0,2.078-0.622,3.181-1.888V-676.61z M1087.985-681.001c0,1.379-0.407,2.07-1.211,2.07
		c-0.459,0-0.918-0.211-1.382-0.691v-9.354c0.465-0.458,0.923-0.675,1.382-0.675c0.804,0,1.211,0.707,1.211,2.096V-681.001z
		 M1090.487-678.124c0.181-0.645,0.283-1.675,0.283-3.096v-6.114c0-1.454-0.102-2.472-0.283-3.09
		c-0.367-1.146-1.111-1.725-2.216-1.725c-1.03,0-1.985,0.554-2.88,1.661v-6.74h-2.783v20.619h2.783v-1.489
		c0.923,1.155,1.886,1.704,2.88,1.704C1089.376-676.395,1090.12-676.986,1090.487-678.124z M1095.707-686.102v-1.418
		c0-1.424,0.462-2.132,1.391-2.132c0.929,0,1.399,0.707,1.399,2.132v1.418H1095.707z M1101.211-679.731
		c0.034-0.275,0.068-0.895,0.068-1.798v-0.404h-2.846c0,1.117-0.031,1.733-0.058,1.893c-0.162,0.735-0.562,1.109-1.247,1.109
		c-0.959,0-1.421-0.707-1.421-2.127v-2.725h5.572v-3.177c0-1.642-0.287-2.846-0.864-3.619c-0.777-1.058-1.885-1.571-3.287-1.571
		c-1.421,0-2.529,0.513-3.333,1.571c-0.592,0.772-0.859,1.977-0.859,3.619v5.381c0,1.629,0.305,2.843,0.891,3.6
		c0.808,1.053,1.917,1.584,3.37,1.584c1.45,0,2.597-0.549,3.369-1.669C1100.907-678.554,1101.12-679.124,1101.211-679.731z
		 M1104.708-686.572c0,3.591-0.012,7.395-0.811,10.885c-0.562,2.455-2.564,4.259-4.984,4.526c-5.702,0.636-11.481,0.636-17.24,0.636
		c-5.753,0-11.534,0-17.243-0.636c-2.415-0.267-4.405-2.071-4.977-4.526c-0.796-3.49-0.796-7.294-0.796-10.885
		c0-3.593,0-7.401,0.804-10.892c0.569-2.441,2.568-4.24,4.976-4.522c5.713-0.636,11.494-0.638,17.245-0.636
		c5.759-0.002,11.531,0,17.245,0.636c2.412,0.282,4.416,2.081,4.982,4.522C1104.708-693.974,1104.708-690.165,1104.708-686.572z
		 M1056.177-676.616h-2.816v-1.692c-1.111,1.286-2.183,1.913-3.206,1.913c-0.907,0-1.527-0.371-1.817-1.157
		c-0.151-0.474-0.247-1.214-0.247-2.315v-12.272h2.8v11.431c0,0.652,0,0.999,0.037,1.086c0.06,0.444,0.282,0.67,0.658,0.67
		c0.564,0,1.148-0.438,1.775-1.313v-11.875h2.816V-676.616z M1045.775-681.639c0,1.651-0.286,2.873-0.874,3.653
		c-0.776,1.052-1.874,1.591-3.287,1.591c-1.39,0-2.499-0.539-3.263-1.591c-0.6-0.78-0.882-2.002-0.882-3.653v-5.432
		c0-1.665,0.282-2.875,0.882-3.659c0.764-1.06,1.873-1.588,3.263-1.588c1.413,0,2.511,0.528,3.287,1.588
		c0.588,0.784,0.874,1.993,0.874,3.659V-681.639z M1037.442-697.441l-3.752,12.396v8.429h-3.116v-8.429
		c-0.29-1.49-0.917-3.691-1.912-6.592c-0.657-1.935-1.343-3.872-2-5.804h3.285l2.209,8.182l2.128-8.182H1037.442z"/>
</g>
<g>
	<g>
		<path fill="none" stroke="#53A711" stroke-miterlimit="10" d="M851.788-870.766c0,1.1,0.9,2,2,2h4c1.1,0,2-0.9,2-2v-4
			c0-1.1-0.9-2-2-2h-4c-1.1,0-2,0.9-2,2V-870.766z"/>
	</g>
	<g>
		<path fill="none" stroke="#53A711" stroke-miterlimit="10" d="M883.788-870.766c0,1.1,0.9,2,2,2h4c1.1,0,2-0.9,2-2v-4
			c0-1.1-0.9-2-2-2h-4c-1.1,0-2,0.9-2,2V-870.766z"/>
	</g>
	<g>
		<path fill="none" stroke="#53A711" stroke-miterlimit="10" d="M851.788-838.765c0,1.1,0.9,2,2,2h4c1.1,0,2-0.9,2-2v-4
			c0-1.1-0.9-2-2-2h-4c-1.1,0-2,0.9-2,2V-838.765z"/>
	</g>
	<g>
		<path fill="none" stroke="#53A711" stroke-miterlimit="10" d="M883.788-838.765c0,1.1,0.9,2,2,2h4c1.1,0,2-0.9,2-2v-4
			c0-1.1-0.9-2-2-2h-4c-1.1,0-2,0.9-2,2V-838.765z"/>
	</g>
	<line fill="none" stroke="#53A711" stroke-miterlimit="10" x1="859.788" y1="-872.766" x2="883.788" y2="-872.766"/>
	<line fill="none" stroke="#53A711" stroke-miterlimit="10" x1="859.788" y1="-840.765" x2="883.788" y2="-840.765"/>
	<line fill="none" stroke="#53A711" stroke-miterlimit="10" x1="887.788" y1="-868.766" x2="887.788" y2="-844.765"/>
	<line fill="none" stroke="#53A711" stroke-miterlimit="10" x1="855.788" y1="-868.766" x2="855.788" y2="-844.765"/>
</g>
<g>
	<g>
		<path fill="none" stroke="#53A711" stroke-miterlimit="10" d="M1072.919-863.177l2.829,2.829c0.778,0.778,0.778,2.051,0,2.828
			l-18.149,18.149c-0.778,0.778-2.051,0.778-2.828,0l-11.45-11.45"/>
	</g>
	<path fill="none" stroke="#53A711" stroke-miterlimit="10" d="M1041.563-858.042l-1.317,1.317c-0.778,0.778-0.778,2.05,0,2.828
		l0.383,0.383c0.778,0.778,2.051,0.778,2.829,0l18.149-18.149c0.778-0.778,2.051-0.778,2.828,0l2.806,2.806"/>
	<path fill="none" stroke="#53A711" stroke-miterlimit="10" d="M1061.959-874.138c0,0-0.484-0.484-1.075-1.075
		c-0.592-0.591-1.712-0.439-2.49,0.339l-0.748,0.748"/>
	<g>
		<path fill="none" stroke="#53A711" stroke-miterlimit="10" d="M1071.564-866.654c0.778,0.778,0.778,2.051,0,2.828l-6.282,6.282
			c-0.778,0.778-2.051,0.778-2.828,0l-0.825-0.825c-0.778-0.778-0.778-2.051,0-2.828l6.282-6.282c0.778-0.778,2.051-0.778,2.828,0
			L1071.564-866.654z"/>
	</g>
	<circle fill="none" stroke="#53A711" stroke-miterlimit="10" cx="1063.845" cy="-859.759" r="1.166"/>
	<polyline fill="none" stroke="#53A711" stroke-miterlimit="10" points="1041.748,-855.959 1052.737,-874.618 1058.299,-872.389 	
		"/>
	<line fill="none" stroke="#53A711" stroke-miterlimit="10" x1="1042.749" y1="-854.928" x2="1059.93" y2="-872.109"/>
	<line fill="none" stroke="#53A711" stroke-miterlimit="10" x1="1068.986" y1="-863.369" x2="1067.277" y2="-865.078"/>
	<line fill="none" stroke="#53A711" stroke-miterlimit="10" x1="1067.729" y1="-862.112" x2="1066.02" y2="-863.821"/>
	<line fill="none" stroke="#53A711" stroke-miterlimit="10" x1="1066.472" y1="-860.855" x2="1064.763" y2="-862.564"/>
</g>
<g>
	<path fill="none" stroke="#53A711" stroke-miterlimit="10" d="M945.092-829.516l-8.744,3.771c-1.01,0.436-1.753-0.104-1.651-1.199
		l0.698-7.489c0.102-1.095-0.409-2.667-1.135-3.493l-4.967-5.649c-0.726-0.826-0.443-1.699,0.631-1.941l7.339-1.65
		c1.073-0.241,2.41-1.213,2.972-2.159l3.837-6.469c0.561-0.946,1.479-0.946,2.041,0l3.837,6.469
		c0.561,0.946,1.898,1.918,2.972,2.159l7.339,1.65c1.073,0.241,1.357,1.115,0.631,1.941l-4.967,5.649
		c-0.726,0.826-1.237,2.398-1.135,3.493l0.698,7.489c0.102,1.095-0.641,1.635-1.651,1.199l-6.091-2.627"/>
</g>
</svg>
