<?xml version="1.0" encoding="utf-8"?>
<!-- Generator: Adobe Illustrator 18.1.1, SVG Export Plug-In . SVG Version: 6.00 Build 0)  -->
<svg version="1.1" id="Слой_1" xmlns="http://www.w3.org/2000/svg" xmlns:xlink="http://www.w3.org/1999/xlink" x="0px" y="0px"
	 viewBox="0 0 42.842 70.648" enable-background="new 0 0 42.842 70.648" xml:space="preserve">
<g>
	<polyline fill="none" stroke="#53A711" stroke-linecap="round" stroke-linejoin="round" stroke-miterlimit="10" points="
		255.022,-257.736 256.873,-256.378 256.873,-225.41 210.422,-225.41 210.422,-256.378 212.47,-257.88 	"/>
	<polyline fill="none" stroke="#53A711" stroke-linecap="round" stroke-linejoin="round" stroke-miterlimit="10" points="
		231.746,-272.015 233.647,-273.41 235.538,-272.024 	"/>
	<polyline fill="none" stroke="#53A711" stroke-linecap="round" stroke-linejoin="round" stroke-miterlimit="10" points="
		225.406,-240.894 210.422,-225.41 256.873,-225.41 241.889,-240.894 	"/>
	<polyline fill="none" stroke="#53A711" stroke-linecap="round" stroke-linejoin="round" stroke-miterlimit="10" points="
		256.873,-256.378 233.647,-239.346 210.422,-256.378 	"/>
	<g>
		<g>
			<path fill="none" stroke="#53A711" stroke-linecap="round" stroke-linejoin="round" stroke-miterlimit="10" d="M214.293-256.873
				v-10.257c0-1.703,1.394-3.097,3.097-3.097h24.688"/>
		</g>
		<g>
			
				<line fill="none" stroke="#53A711" stroke-linecap="round" stroke-linejoin="round" stroke-miterlimit="10" x1="253.002" y1="-260.356" x2="253.002" y2="-256.906"/>
		</g>
		<path fill="none" stroke="#53A711" stroke-linecap="round" stroke-linejoin="round" stroke-miterlimit="10" d="M245.239-268.035"
			/>
		<polyline fill="none" stroke="#53A711" stroke-linecap="round" stroke-linejoin="round" stroke-miterlimit="10" points="
			240.207,-270.227 245.368,-270.227 253.002,-262.593 		"/>
		<g>
			<path fill="none" stroke="#53A711" stroke-linecap="round" stroke-linejoin="round" stroke-miterlimit="10" d="M253.002-262.593
				h-4.666c-1.703,0-3.097-1.05-3.097-2.334s0-2.334,0-2.334"/>
		</g>
		
			<line fill="none" stroke="#53A711" stroke-linecap="round" stroke-linejoin="round" stroke-miterlimit="10" x1="220.529" y1="-262.593" x2="235.141" y2="-262.593"/>
		
			<line fill="none" stroke="#53A711" stroke-linecap="round" stroke-linejoin="round" stroke-miterlimit="10" x1="220.529" y1="-259.519" x2="232.964" y2="-259.519"/>
		
			<line fill="none" stroke="#53A711" stroke-linecap="round" stroke-linejoin="round" stroke-miterlimit="10" x1="220.529" y1="-252.41" x2="229.577" y2="-252.41"/>
		
			<line fill="none" stroke="#53A711" stroke-linecap="round" stroke-linejoin="round" stroke-miterlimit="10" x1="232.141" y1="-252.41" x2="238.093" y2="-252.41"/>
		
			<line fill="none" stroke="#53A711" stroke-linecap="round" stroke-linejoin="round" stroke-miterlimit="10" x1="224.437" y1="-249.336" x2="232.964" y2="-249.336"/>
		
			<line fill="none" stroke="#53A711" stroke-linecap="round" stroke-linejoin="round" stroke-miterlimit="10" x1="235.538" y1="-249.336" x2="242.812" y2="-249.336"/>
		
			<line fill="none" stroke="#53A711" stroke-linecap="round" stroke-linejoin="round" stroke-miterlimit="10" x1="228.537" y1="-246.357" x2="238.723" y2="-246.357"/>
	</g>
</g>
<polyline fill="none" stroke="#53A711" stroke-width="0.9714" stroke-miterlimit="10" points="378.12,-257.621 396.404,-229.337 
	378.12,-201.053 "/>
<g>
	<path fill="none" d="M8.841,37.265v5.491c0.09-0.132,0.242-0.219,0.414-0.219c0.541-0.689,1.015-1.826,1.372-3.361
		c0.062-0.269,0.332-0.438,0.6-0.374c0.269,0.063,0.436,0.331,0.374,0.601c-0.391,1.686-0.933,2.959-1.608,3.786
		c-0.287,0.353-0.91,0.482-1.15,0.13v23.853c0,1.366,1.112,2.478,2.48,2.478s2.48-1.111,2.48-2.478V46.03c0-0.276,0.224-0.5,0.5-0.5
		h2.336c0.276,0,0.5,0.224,0.5,0.5v21.141c0,1.366,1.113,2.478,2.482,2.478c1.366,0,2.477-1.111,2.477-2.478V43.354
		c-0.272,0.317-0.86,0.178-1.141-0.166c-0.676-0.827-1.217-2.101-1.609-3.785c-0.063-0.269,0.104-0.538,0.374-0.601
		c0.268-0.063,0.537,0.105,0.6,0.374c0.357,1.534,0.832,2.672,1.411,3.38c0.15,0,0.279,0.063,0.365,0.165v-6.463
		c-0.026-0.026-0.05-0.053-0.073-0.082c-1.82-2.231-2.241-7.02-2.335-9.428h-8.573c-0.093,2.381-0.505,7.088-2.273,9.351V37.265z"/>
	<path fill="none" d="M15.27,12.417c3.148,0,5.71-2.561,5.71-5.708S18.418,1,15.27,1S9.561,3.562,9.561,6.709
		S12.122,12.417,15.27,12.417z"/>
	<path fill="none" d="M10.593,25.755v-9.368H8.341c-2.59,0-4.372,3.293-5.777,10.677C1.599,32.125,1.107,37.7,1.06,40.737
		c0,0.034-0.005,0.068-0.012,0.103C1.016,40.98,1,41.109,1,41.233c0,0.998,0.812,1.81,1.81,1.81c0.998,0,1.809-0.812,1.809-1.81
		c0-0.129-0.014-0.253-0.039-0.374c-0.007-0.034-0.011-0.069-0.01-0.104c0.075-7.005,1.808-15.526,3.316-18.794
		c0.099-0.213,0.331-0.326,0.562-0.278c0.229,0.051,0.393,0.254,0.393,0.488v11.881c1.063-2.591,1.256-6.489,1.29-7.817
		C10.137,25.977,10.34,25.775,10.593,25.755z"/>
	<path fill="none" d="M37.381,69.64c0.528-0.113,4.345-1.313,4.458-12.168h-8.953C33.004,68.024,36.847,69.488,37.381,69.64z"/>
	<path fill="#F3470D" d="M15.27,13.417c3.7,0,6.71-3.009,6.71-6.708S18.97,0,15.27,0S8.561,3.01,8.561,6.709
		S11.57,13.417,15.27,13.417z M15.27,1c3.148,0,5.71,2.562,5.71,5.709s-2.562,5.708-5.71,5.708S9.561,9.856,9.561,6.709
		S12.122,1,15.27,1z"/>
	<path fill="#F3470D" d="M29.359,26.877c-1.534-8.053-3.556-11.489-6.763-11.489H21.48h-1.771h-8.616H8.341
		c-3.206,0-5.227,3.437-6.759,11.489C0.61,31.969,0.113,37.582,0.061,40.672C0.021,40.864,0,41.054,0,41.233
		c0,1.549,1.261,2.81,2.81,2.81c1.549,0,2.809-1.261,2.809-2.81c0-0.178-0.017-0.351-0.048-0.519
		c0.063-5.395,1.114-11.671,2.27-15.651v10.846c0-0.136,0.055-0.265,0.152-0.359c0.332-0.405,0.611-0.92,0.848-1.498V22.171
		c0-0.234-0.164-0.438-0.393-0.488c-0.23-0.048-0.463,0.065-0.562,0.278C6.378,25.229,4.645,33.75,4.57,40.755
		c0,0.035,0.003,0.07,0.01,0.104c0.024,0.121,0.039,0.245,0.039,0.374c0,0.998-0.812,1.81-1.809,1.81c-0.998,0-1.81-0.812-1.81-1.81
		c0-0.124,0.016-0.253,0.047-0.394c0.007-0.034,0.012-0.068,0.012-0.103c0.048-3.037,0.539-8.612,1.504-13.673
		c1.405-7.384,3.187-10.677,5.777-10.677h2.252h1h7.616h0.5h0.5h1.271h1.116c2.592,0,4.375,3.293,5.781,10.677
		c0.964,5.064,1.455,10.639,1.502,13.674c0,0.035,0.005,0.069,0.013,0.104c0.03,0.134,0.046,0.266,0.046,0.392
		c0,0.998-0.812,1.81-1.809,1.81c-0.998,0-1.81-0.812-1.81-1.81c0-0.124,0.013-0.248,0.04-0.369
		c0.008-0.036,0.012-0.073,0.011-0.111c-0.077-7.014-1.811-15.533-3.32-18.792c-0.098-0.213-0.333-0.328-0.561-0.278
		c-0.229,0.051-0.393,0.254-0.393,0.488v8.206c0,0.276,0.224,0.5,0.5,0.5s0.5-0.224,0.5-0.5V25.06
		c1.157,3.975,2.208,10.25,2.273,15.651c-0.033,0.172-0.05,0.348-0.05,0.522c0,1.549,1.261,2.81,2.81,2.81
		c1.549,0,2.809-1.261,2.809-2.81c0-0.184-0.02-0.372-0.06-0.562C30.826,37.584,30.329,31.973,29.359,26.877z"/>
	<path fill="#53A711" d="M10.593,25.755c-0.253,0.02-0.456,0.222-0.463,0.48c-0.034,1.328-0.227,5.225-1.29,7.817
		c-0.237,0.578-0.516,1.093-0.848,1.498c-0.097,0.095-0.152,0.224-0.152,0.359v1.355v29.906c0,1.918,1.561,3.478,3.48,3.478
		s3.48-1.56,3.48-3.478V46.53h1.336v20.641c0,1.918,1.562,3.478,3.482,3.478c1.917,0,3.477-1.56,3.477-3.478V36.014
		c0-0.179-0.096-0.344-0.25-0.434c-0.033-0.019-0.043-0.03-0.046-0.033c0-0.001,0-0.001-0.001-0.002
		c-1.808-2.215-2.085-7.686-2.127-9.31c-0.007-0.271-0.229-0.487-0.5-0.487h-8.578v-9.36h-1V25.755z M19.688,26.748
		c0.094,2.408,0.515,7.196,2.335,9.428c0.023,0.029,0.047,0.056,0.073,0.082v6.463c-0.086-0.102-0.215-0.165-0.365-0.165
		c-0.579-0.708-1.054-1.846-1.411-3.38c-0.063-0.269-0.333-0.437-0.6-0.374c-0.269,0.063-0.436,0.332-0.374,0.601
		c0.392,1.685,0.933,2.958,1.609,3.785c0.28,0.344,0.868,0.483,1.141,0.166v23.817c0,1.366-1.111,2.478-2.477,2.478
		c-1.369,0-2.482-1.111-2.482-2.478V46.03c0-0.276-0.224-0.5-0.5-0.5h-2.336c-0.276,0-0.5,0.224-0.5,0.5v21.141
		c0,1.366-1.112,2.478-2.48,2.478s-2.48-1.111-2.48-2.478V43.318c0.241,0.353,0.864,0.223,1.15-0.13
		c0.676-0.827,1.217-2.101,1.608-3.786c0.063-0.27-0.104-0.538-0.374-0.601c-0.268-0.063-0.538,0.105-0.6,0.374
		c-0.357,1.535-0.831,2.672-1.372,3.361c-0.172,0-0.324,0.087-0.414,0.219v-5.491v-1.166c1.768-2.263,2.18-6.97,2.273-9.351H19.688z
		"/>
	<path fill="#53A711" d="M19.209,16.388v7.044c0,0.276,0.224,0.5,0.5,0.5s0.5-0.224,0.5-0.5v-7.044h-0.5H19.209z"/>
	<rect x="36.863" y="31.816" fill="#F3470D" width="1" height="24.655"/>
	<path fill="#53A711" d="M40.039,31.816c0.276,0,0.5-0.224,0.5-0.5s-0.224-0.5-0.5-0.5h-5.352c-0.276,0-0.5,0.224-0.5,0.5
		s0.224,0.5,0.5,0.5h2.176h1H40.039z"/>
	<path fill="#53A711" d="M42.342,56.472h-4.479h-1h-4.479c-0.276,0-0.5,0.224-0.5,0.5c0,12.734,5.187,13.64,5.407,13.672
		c0.024,0.003,0.048,0.005,0.072,0.005c0.012,0,0.023,0,0.035-0.001c0.222-0.016,5.444-0.532,5.444-13.676
		C42.842,56.695,42.618,56.472,42.342,56.472z M37.381,69.64c-0.534-0.151-4.377-1.615-4.495-12.168h8.953
		C41.726,68.326,37.909,69.526,37.381,69.64z"/>
</g>
<g>
	<g>
		<g>
			<path fill="none" stroke="#F3470D" stroke-linecap="round" stroke-linejoin="round" stroke-miterlimit="10" d="M403.577-581.833
				c0,0.916,0.749,1.665,1.665,1.665h3.331c0.916,0,1.665-0.749,1.665-1.665v-3.331c0-0.916-0.749-1.665-1.665-1.665h-3.331
				c-0.916,0-1.665,0.749-1.665,1.665V-581.833z"/>
		</g>
		<g>
			<path fill="none" stroke="#F3470D" stroke-linecap="round" stroke-linejoin="round" stroke-miterlimit="10" d="M430.221-581.833
				c0,0.916,0.749,1.665,1.665,1.665h3.331c0.916,0,1.665-0.749,1.665-1.665v-3.331c0-0.916-0.749-1.665-1.665-1.665h-3.331
				c-0.916,0-1.665,0.749-1.665,1.665V-581.833z"/>
		</g>
		<g>
			<path fill="none" stroke="#F3470D" stroke-linecap="round" stroke-linejoin="round" stroke-miterlimit="10" d="M403.577-555.189
				c0,0.916,0.749,1.665,1.665,1.665h3.331c0.916,0,1.665-0.749,1.665-1.665v-3.331c0-0.916-0.749-1.665-1.665-1.665h-3.331
				c-0.916,0-1.665,0.749-1.665,1.665V-555.189z"/>
		</g>
		
			<line fill="none" stroke="#F3470D" stroke-linecap="round" stroke-linejoin="round" stroke-miterlimit="10" x1="410.238" y1="-583.499" x2="430.221" y2="-583.499"/>
		
			<line fill="none" stroke="#F3470D" stroke-linecap="round" stroke-linejoin="round" stroke-miterlimit="10" x1="410.238" y1="-556.854" x2="416.801" y2="-556.854"/>
		
			<line fill="none" stroke="#F3470D" stroke-linecap="round" stroke-linejoin="round" stroke-miterlimit="10" x1="433.552" y1="-580.168" x2="433.552" y2="-575.507"/>
		
			<line fill="none" stroke="#F3470D" stroke-linecap="round" stroke-linejoin="round" stroke-miterlimit="10" x1="406.907" y1="-580.168" x2="406.907" y2="-560.185"/>
	</g>
	<g>
		<g>
			<path fill="none" stroke="#F3470D" stroke-linecap="round" stroke-linejoin="round" stroke-miterlimit="10" d="M430.221-550.171
				c0,1.832,1.499,3.331,3.331,3.331h6.661c1.832,0,3.331-1.499,3.331-3.331v-6.661c0-1.832-1.499-3.331-3.331-3.331h-6.661
				c-1.832,0-3.331,1.499-3.331,3.331V-550.171z"/>
		</g>
		
			<line fill="none" stroke="#F3470D" stroke-linecap="round" stroke-linejoin="round" stroke-miterlimit="10" x1="419.988" y1="-553.502" x2="430.221" y2="-553.502"/>
		
			<line fill="none" stroke="#F3470D" stroke-linecap="round" stroke-linejoin="round" stroke-miterlimit="10" x1="436.882" y1="-573.009" x2="436.882" y2="-560.163"/>
	</g>
	<path fill="none" stroke="#F3470D" stroke-linecap="round" stroke-linejoin="round" stroke-miterlimit="10" d="M459.297-570.581"/>
	
		<circle fill="none" stroke="#53A711" stroke-linecap="round" stroke-linejoin="round" stroke-miterlimit="10" cx="435.936" cy="-556.357" r="16.653"/>
	<path fill="none" stroke="#53A711" stroke-linecap="round" stroke-linejoin="round" stroke-miterlimit="10" d="M443.971-566.824
		c1.934,1.521,3.469,3.527,4.418,5.836"/>
	<g>
		<path fill="none" stroke="#53A711" stroke-linecap="round" stroke-linejoin="round" stroke-miterlimit="10" d="M450.058-543.423
			c3.122-3.408,5.028-7.948,5.028-12.934c0-10.577-8.573-19.15-19.151-19.15c-10.577,0-19.15,8.573-19.15,19.15
			c0,10.577,8.573,19.15,19.15,19.15c4.083,0,7.867-1.277,10.975-3.453c0.065-0.046,0.193,0.18,0.193,0.18l14.792,14.792
			c1.296,1.296,3.415,1.295,4.71,0l0,0c1.296-1.295,1.296-3.414,0-4.709l-13.026-13.026"/>
		
			<line fill="none" stroke="#53A711" stroke-linecap="round" stroke-linejoin="round" stroke-miterlimit="10" x1="456.386" y1="-534.435" x2="459.475" y2="-537.526"/>
		
			<line fill="none" stroke="#53A711" stroke-linecap="round" stroke-linejoin="round" stroke-miterlimit="10" x1="454.61" y1="-536.21" x2="457.701" y2="-539.302"/>
	</g>
</g>
<g>
	<path fill="#58595B" d="M400.203-668.383c0,3.982-2.338,8.717-4.984,11.359c-2.58,2.577-6.796,5.342-10.815,5.342v-13.287h6.288
		c0-0.842,0.321-4.035,0.534-4.486h-6.822c0-5.075,0.451-4.488,6.822-4.488v-4.484c-4.032,0-6.025-0.456-8.903,1.68
		c-2.47,1.827-2.232,4.921-2.232,7.292h-3.41v4.486h3.41v13.287c-2.312,0-4.713-1.108-6.339-1.907
		c-3.486-1.734-6.136-4.919-7.841-8.328c-1.466-2.904-1.616-5.346-1.616-8.54v-0.082c0-2.256,0.942-5.122,1.732-6.699
		c1.355-2.689,3.346-5.241,5.845-6.906c1.437-0.959,1.032-0.741,2.591-1.528c3.147-1.593,5.39-1.731,8.785-1.741h0.084
		c5.784,0.009,11.46,3.951,14.474,8.867c0.279,0.464,0.415,0.824,0.665,1.309C400.064-674.068,400.203-671.809,400.203-668.383"/>
	<path fill="#58595B" d="M479.545-671.07c-0.885,0.88-1.329,1.953-1.329,3.218c0,1.264,0.444,2.341,1.329,3.222
		c0.88,0.885,1.963,1.331,3.222,1.331c1.266,0,2.337-0.447,3.218-1.331c0.884-0.881,1.324-1.957,1.324-3.222
		c0-1.264-0.44-2.338-1.324-3.218c-0.881-0.888-1.952-1.329-3.218-1.329C481.508-672.399,480.424-671.958,479.545-671.07
		 M489.06-675.652c0.143,0.145,0.32,0.225,0.532,0.225h1.513c0.205,0,0.382-0.079,0.535-0.225c0.151-0.158,0.221-0.329,0.221-0.532
		v-1.523c0-0.205-0.07-0.376-0.221-0.535c-0.154-0.144-0.33-0.228-0.535-0.228h-1.513c-0.212,0-0.389,0.083-0.532,0.228
		c-0.153,0.159-0.228,0.33-0.228,0.535v1.523C488.832-675.981,488.907-675.809,489.06-675.652z M493.368-673.913h-3.825
		c-0.855-0.958-1.866-1.691-3.032-2.231c-1.171-0.535-2.418-0.807-3.744-0.807c-2.299,0-4.325,0.776-6.059,2.332v-5.362h15.153
		c0.422,0,0.788,0.151,1.075,0.439c0.293,0.289,0.432,0.653,0.432,1.071V-673.913z M476.2-671.647
		c0.683-1.162,1.607-2.083,2.764-2.773c1.156-0.672,2.425-1.006,3.802-1.006c1.369,0,2.639,0.334,3.803,1.006
		c1.156,0.69,2.08,1.611,2.758,2.773c0.675,1.155,1.013,2.425,1.013,3.795c0,1.37-0.338,2.64-1.013,3.804
		c-0.678,1.156-1.602,2.08-2.758,2.753c-1.164,0.683-2.434,1.026-3.803,1.026c-1.377,0-2.646-0.343-3.802-1.026
		c-1.157-0.673-2.081-1.597-2.764-2.753c-0.678-1.164-1.019-2.435-1.019-3.804C475.181-669.222,475.522-670.492,476.2-671.647z
		 M473.671-673.913h-1.511v-4.557c0-0.419,0.139-0.783,0.444-1.071c0.306-0.289,0.653-0.439,1.067-0.439V-673.913z M494.004-658.126
		c0.595-0.6,0.889-1.31,0.889-2.142v-18.202c0-0.833-0.293-1.546-0.889-2.146c-0.591-0.581-1.307-0.866-2.142-0.866h-18.19
		c-0.84,0-1.544,0.286-2.143,0.866c-0.602,0.6-0.887,1.313-0.887,2.146v18.202c0,0.832,0.285,1.542,0.887,2.142
		c0.599,0.589,1.303,0.886,2.143,0.886h18.19C492.697-657.241,493.412-657.538,494.004-658.126z M500.72-669.375
		c0,9.929-8.042,17.961-17.953,17.961c-9.917,0-17.958-8.032-17.958-17.961c0-9.908,8.041-17.943,17.958-17.943
		C492.678-687.318,500.72-679.284,500.72-669.375z"/>
	<path fill="#58595B" d="M434.425-671.367c0.268-0.238,0.407-0.582,0.407-1.034c0-0.421-0.139-0.74-0.407-0.974
		c-0.268-0.239-0.745-0.361-1.42-0.361h-1.968V-671h1.933C433.668-671,434.157-671.127,434.425-671.367 M434.938-665.766
		c0.314-0.28,0.465-0.647,0.465-1.1c0-0.42-0.151-0.757-0.465-1.025c-0.303-0.256-0.85-0.384-1.642-0.384h-2.258v2.91h2.27
		C434.076-665.365,434.623-665.499,434.938-665.766z M436.847-669.917c1.048,0.244,1.805,0.674,2.294,1.268
		c0.489,0.612,0.733,1.368,0.733,2.282c0,0.745-0.174,1.409-0.524,2.014c-0.337,0.595-0.815,1.06-1.431,1.404
		c-0.361,0.214-0.931,0.378-1.677,0.471c-1.013,0.128-1.676,0.199-2.003,0.199h-7.707v-14.356h8.347
		c1.397,0,2.469,0.337,3.213,1.014c0.746,0.687,1.118,1.549,1.118,2.548c0,0.85-0.268,1.584-0.803,2.189
		C438.058-670.476,437.534-670.161,436.847-669.917z M444.158-661.243v-16.434c0-1.891-1.537-3.427-3.447-3.427h-16.508
		c-1.897,0-3.445,1.536-3.445,3.427v16.434c0,1.885,1.548,3.428,3.445,3.428h16.508
		C442.622-657.815,444.158-659.358,444.158-661.243z M450.504-669.462c0,9.918-8.08,17.952-18.033,17.952
		c-9.966,0-18.046-8.034-18.046-17.952c0-9.908,8.08-17.952,18.046-17.952C442.424-687.414,450.504-679.37,450.504-669.462z"/>
	<path fill="#58595B" d="M551.375-669.375c0,9.929-8.042,17.961-17.953,17.961c-9.917,0-17.958-8.032-17.958-17.961
		c0-9.908,8.041-17.943,17.958-17.943C543.333-687.318,551.375-679.284,551.375-669.375z M533.488-678.145
		c1.468,0,2.663,1.194,2.663,2.663c0,1.467-1.195,2.662-2.663,2.662c-1.468,0-2.662-1.194-2.662-2.662
		C530.826-676.951,532.021-678.145,533.488-678.145L533.488-678.145z M533.488-669.053c3.547,0,6.432-2.884,6.432-6.429
		c0-3.547-2.884-6.432-6.432-6.432c-3.547,0-6.432,2.885-6.432,6.432C527.057-671.937,529.942-669.053,533.488-669.053
		 M536.09-663.807c1.323-0.301,2.586-0.824,3.734-1.546c0.881-0.554,1.145-1.717,0.591-2.598c-0.553-0.881-1.715-1.147-2.596-0.594
		c-0.001,0-0.001,0.001-0.002,0.001c-2.635,1.656-6.026,1.655-8.659,0c-0.88-0.554-2.042-0.29-2.596,0.589l-0.002,0.003
		c-0.554,0.88-0.29,2.044,0.59,2.598c1.149,0.722,2.411,1.245,3.734,1.546l-3.595,3.596c-0.736,0.736-0.736,1.929,0,2.665
		c0.736,0.736,1.929,0.736,2.665,0l0,0l3.532-3.533l3.534,3.533c0.734,0.735,1.926,0.736,2.661,0.002l0.002-0.002
		c0.736-0.733,0.737-1.924,0.004-2.66c-0.001-0.001-0.003-0.003-0.004-0.004L536.09-663.807"/>
	<path fill="#58595B" d="M580.157-663.902v-6.534c0-1.437-0.437-2.144-1.353-2.144c-0.9,0-1.333,0.707-1.333,2.144v6.534
		c0,1.445,0.433,2.159,1.333,2.159C579.72-661.743,580.157-662.458,580.157-663.902 M605.643-677.111h3.335v-2.909h-9.703v2.909
		h3.277v17.71h3.091V-677.111z M614.6-659.401h2.778v-15.357H614.6v11.742c-0.616,0.87-1.199,1.294-1.758,1.294
		c-0.367,0-0.58-0.211-0.644-0.65c-0.034-0.086-0.034-0.426-0.034-1.086v-11.3h-2.784v12.142c0,1.089,0.097,1.82,0.249,2.28
		c0.281,0.779,0.895,1.15,1.79,1.15c1.031,0,2.077-0.622,3.181-1.888V-659.401z M625.174-663.792c0,1.379-0.407,2.07-1.211,2.07
		c-0.459,0-0.918-0.211-1.382-0.691v-9.354c0.465-0.458,0.923-0.675,1.382-0.675c0.804,0,1.211,0.707,1.211,2.096V-663.792z
		 M627.677-660.916c0.181-0.645,0.283-1.675,0.283-3.096v-6.114c0-1.454-0.102-2.472-0.283-3.09
		c-0.367-1.146-1.111-1.725-2.216-1.725c-1.03,0-1.985,0.554-2.88,1.661v-6.74h-2.783v20.619h2.783v-1.489
		c0.923,1.155,1.886,1.704,2.88,1.704C626.566-659.187,627.31-659.778,627.677-660.916z M632.896-668.894v-1.418
		c0-1.424,0.462-2.132,1.391-2.132s1.399,0.707,1.399,2.132v1.418H632.896z M638.401-662.523c0.033-0.275,0.067-0.895,0.067-1.798
		v-0.404h-2.846c0,1.117-0.031,1.733-0.058,1.893c-0.162,0.735-0.562,1.109-1.247,1.109c-0.959,0-1.421-0.707-1.421-2.127v-2.725
		h5.572v-3.177c0-1.642-0.287-2.846-0.864-3.619c-0.777-1.058-1.885-1.571-3.287-1.571c-1.421,0-2.529,0.513-3.334,1.571
		c-0.592,0.772-0.859,1.977-0.859,3.619v5.381c0,1.629,0.305,2.843,0.891,3.6c0.808,1.053,1.917,1.584,3.37,1.584
		c1.45,0,2.597-0.549,3.369-1.669C638.097-661.346,638.31-661.915,638.401-662.523z M641.898-669.364
		c0,3.591-0.012,7.395-0.811,10.885c-0.561,2.455-2.564,4.259-4.983,4.526c-5.702,0.636-11.482,0.636-17.24,0.636
		c-5.753,0-11.534,0-17.243-0.636c-2.415-0.267-4.405-2.071-4.977-4.526c-0.796-3.49-0.796-7.294-0.796-10.885
		c0-3.593,0-7.401,0.804-10.892c0.569-2.441,2.568-4.24,4.976-4.522c5.713-0.636,11.494-0.638,17.245-0.636
		c5.758-0.002,11.531,0,17.245,0.636c2.412,0.282,4.416,2.081,4.982,4.522C641.898-676.765,641.898-672.957,641.898-669.364z
		 M593.367-659.407h-2.816v-1.692c-1.111,1.286-2.183,1.913-3.206,1.913c-0.907,0-1.527-0.371-1.817-1.157
		c-0.152-0.474-0.247-1.214-0.247-2.315v-12.272h2.8v11.431c0,0.652,0,0.999,0.037,1.086c0.06,0.444,0.283,0.67,0.658,0.67
		c0.564,0,1.148-0.438,1.775-1.313v-11.875h2.816V-659.407z M582.965-664.43c0,1.651-0.286,2.873-0.874,3.653
		c-0.776,1.052-1.874,1.591-3.287,1.591c-1.39,0-2.499-0.539-3.263-1.591c-0.6-0.78-0.882-2.002-0.882-3.653v-5.432
		c0-1.665,0.282-2.875,0.882-3.659c0.764-1.06,1.873-1.588,3.263-1.588c1.413,0,2.511,0.528,3.287,1.588
		c0.588,0.784,0.874,1.993,0.874,3.659V-664.43z M574.632-680.232l-3.752,12.396v8.429h-3.116v-8.429
		c-0.29-1.49-0.917-3.691-1.912-6.592c-0.657-1.935-1.343-3.872-2-5.804h3.285l2.209,8.182l2.128-8.182H574.632z"/>
</g>
<g>
	<g>
		<path fill="none" stroke="#53A711" stroke-miterlimit="10" d="M388.978-853.557c0,1.1,0.9,2,2,2h4c1.1,0,2-0.9,2-2v-4
			c0-1.1-0.9-2-2-2h-4c-1.1,0-2,0.9-2,2V-853.557z"/>
	</g>
	<g>
		<path fill="none" stroke="#53A711" stroke-miterlimit="10" d="M420.978-853.557c0,1.1,0.9,2,2,2h4c1.1,0,2-0.9,2-2v-4
			c0-1.1-0.9-2-2-2h-4c-1.1,0-2,0.9-2,2V-853.557z"/>
	</g>
	<g>
		<path fill="none" stroke="#53A711" stroke-miterlimit="10" d="M388.978-821.557c0,1.1,0.9,2,2,2h4c1.1,0,2-0.9,2-2v-4
			c0-1.1-0.9-2-2-2h-4c-1.1,0-2,0.9-2,2V-821.557z"/>
	</g>
	<g>
		<path fill="none" stroke="#53A711" stroke-miterlimit="10" d="M420.978-821.557c0,1.1,0.9,2,2,2h4c1.1,0,2-0.9,2-2v-4
			c0-1.1-0.9-2-2-2h-4c-1.1,0-2,0.9-2,2V-821.557z"/>
	</g>
	<line fill="none" stroke="#53A711" stroke-miterlimit="10" x1="396.978" y1="-855.557" x2="420.978" y2="-855.557"/>
	<line fill="none" stroke="#53A711" stroke-miterlimit="10" x1="396.978" y1="-823.557" x2="420.978" y2="-823.557"/>
	<line fill="none" stroke="#53A711" stroke-miterlimit="10" x1="424.978" y1="-851.557" x2="424.978" y2="-827.557"/>
	<line fill="none" stroke="#53A711" stroke-miterlimit="10" x1="392.978" y1="-851.557" x2="392.978" y2="-827.557"/>
</g>
<g>
	<g>
		<path fill="none" stroke="#53A711" stroke-miterlimit="10" d="M610.109-845.969l2.829,2.829c0.778,0.778,0.778,2.051,0,2.828
			l-18.149,18.149c-0.778,0.778-2.051,0.778-2.828,0l-11.45-11.45"/>
	</g>
	<path fill="none" stroke="#53A711" stroke-miterlimit="10" d="M578.753-840.834l-1.317,1.317c-0.778,0.778-0.778,2.05,0,2.828
		l0.383,0.383c0.778,0.778,2.051,0.778,2.829,0l18.149-18.149c0.778-0.778,2.051-0.778,2.828,0l2.806,2.806"/>
	<path fill="none" stroke="#53A711" stroke-miterlimit="10" d="M599.149-856.929c0,0-0.484-0.484-1.075-1.075
		c-0.592-0.591-1.712-0.439-2.49,0.339l-0.748,0.748"/>
	<g>
		<path fill="none" stroke="#53A711" stroke-miterlimit="10" d="M608.754-849.445c0.778,0.778,0.778,2.051,0,2.828l-6.282,6.282
			c-0.778,0.778-2.051,0.778-2.828,0l-0.825-0.825c-0.778-0.778-0.778-2.051,0-2.828l6.282-6.282c0.778-0.778,2.051-0.778,2.828,0
			L608.754-849.445z"/>
	</g>
	<circle fill="none" stroke="#53A711" stroke-miterlimit="10" cx="601.035" cy="-842.551" r="1.166"/>
	<polyline fill="none" stroke="#53A711" stroke-miterlimit="10" points="578.938,-838.751 589.927,-857.409 595.489,-855.18 	"/>
	<line fill="none" stroke="#53A711" stroke-miterlimit="10" x1="579.939" y1="-837.72" x2="597.12" y2="-854.9"/>
	<line fill="none" stroke="#53A711" stroke-miterlimit="10" x1="606.176" y1="-846.16" x2="604.467" y2="-847.869"/>
	<line fill="none" stroke="#53A711" stroke-miterlimit="10" x1="604.919" y1="-844.903" x2="603.21" y2="-846.612"/>
	<line fill="none" stroke="#53A711" stroke-miterlimit="10" x1="603.662" y1="-843.646" x2="601.953" y2="-845.355"/>
</g>
<g>
	<path fill="none" stroke="#53A711" stroke-miterlimit="10" d="M482.282-812.308l-8.744,3.771c-1.01,0.436-1.753-0.104-1.651-1.199
		l0.698-7.489c0.102-1.095-0.409-2.667-1.135-3.493l-4.967-5.649c-0.726-0.826-0.443-1.699,0.631-1.941l7.339-1.65
		c1.073-0.241,2.41-1.213,2.972-2.159l3.837-6.469c0.561-0.946,1.479-0.946,2.041,0l3.837,6.469
		c0.561,0.946,1.898,1.918,2.972,2.159l7.339,1.65c1.073,0.241,1.357,1.115,0.631,1.941l-4.967,5.649
		c-0.726,0.826-1.237,2.398-1.135,3.493l0.698,7.489c0.102,1.095-0.641,1.635-1.651,1.199l-6.091-2.627"/>
</g>
</svg>
