<?xml version="1.0" encoding="utf-8"?>
<!-- Generator: Adobe Illustrator 18.1.1, SVG Export Plug-In . SVG Version: 6.00 Build 0)  -->
<svg version="1.1" id="Слой_1" xmlns="http://www.w3.org/2000/svg" xmlns:xlink="http://www.w3.org/1999/xlink" x="0px" y="0px"
	 viewBox="0 0 74.765 55.845" enable-background="new 0 0 74.765 55.845" xml:space="preserve">
<g>
	<polyline fill="none" stroke="#53A711" stroke-linecap="round" stroke-linejoin="round" stroke-miterlimit="10" points="
		760.916,319.919 762.767,321.277 762.767,352.245 716.316,352.245 716.316,321.277 718.364,319.775 	"/>
	<polyline fill="none" stroke="#53A711" stroke-linecap="round" stroke-linejoin="round" stroke-miterlimit="10" points="
		737.64,305.64 739.541,304.245 741.432,305.632 	"/>
	<polyline fill="none" stroke="#53A711" stroke-linecap="round" stroke-linejoin="round" stroke-miterlimit="10" points="
		731.3,336.761 716.316,352.245 762.767,352.245 747.783,336.761 	"/>
	<polyline fill="none" stroke="#53A711" stroke-linecap="round" stroke-linejoin="round" stroke-miterlimit="10" points="
		762.767,321.277 739.541,338.31 716.316,321.277 	"/>
	<g>
		<g>
			<path fill="none" stroke="#53A711" stroke-linecap="round" stroke-linejoin="round" stroke-miterlimit="10" d="M720.187,320.782
				v-10.257c0-1.703,1.393-3.097,3.097-3.097h24.688"/>
		</g>
		<g>
			
				<line fill="none" stroke="#53A711" stroke-linecap="round" stroke-linejoin="round" stroke-miterlimit="10" x1="758.896" y1="317.299" x2="758.896" y2="320.75"/>
		</g>
		<path fill="none" stroke="#53A711" stroke-linecap="round" stroke-linejoin="round" stroke-miterlimit="10" d="M751.133,309.621"
			/>
		<polyline fill="none" stroke="#53A711" stroke-linecap="round" stroke-linejoin="round" stroke-miterlimit="10" points="
			746.101,307.428 751.262,307.428 758.896,315.063 		"/>
		<g>
			<path fill="none" stroke="#53A711" stroke-linecap="round" stroke-linejoin="round" stroke-miterlimit="10" d="M758.896,315.063
				h-4.666c-1.703,0-3.097-1.05-3.097-2.334s0-2.334,0-2.334"/>
		</g>
		
			<line fill="none" stroke="#53A711" stroke-linecap="round" stroke-linejoin="round" stroke-miterlimit="10" x1="726.422" y1="315.063" x2="741.035" y2="315.063"/>
		
			<line fill="none" stroke="#53A711" stroke-linecap="round" stroke-linejoin="round" stroke-miterlimit="10" x1="726.422" y1="318.137" x2="738.858" y2="318.137"/>
		
			<line fill="none" stroke="#53A711" stroke-linecap="round" stroke-linejoin="round" stroke-miterlimit="10" x1="726.422" y1="325.245" x2="735.471" y2="325.245"/>
		
			<line fill="none" stroke="#53A711" stroke-linecap="round" stroke-linejoin="round" stroke-miterlimit="10" x1="738.035" y1="325.245" x2="743.987" y2="325.245"/>
		
			<line fill="none" stroke="#53A711" stroke-linecap="round" stroke-linejoin="round" stroke-miterlimit="10" x1="730.331" y1="328.319" x2="738.858" y2="328.319"/>
		
			<line fill="none" stroke="#53A711" stroke-linecap="round" stroke-linejoin="round" stroke-miterlimit="10" x1="741.432" y1="328.319" x2="748.706" y2="328.319"/>
		
			<line fill="none" stroke="#53A711" stroke-linecap="round" stroke-linejoin="round" stroke-miterlimit="10" x1="734.431" y1="331.298" x2="744.617" y2="331.298"/>
	</g>
</g>
<polyline fill="none" stroke="#53A711" stroke-width="0.9714" stroke-miterlimit="10" points="884.013,320.034 902.298,348.318 
	884.013,376.603 "/>
<g>
	<path fill="none" stroke="#53A711" stroke-linecap="round" stroke-linejoin="round" stroke-miterlimit="10" d="M116.96,595.364
		H94.852c-1.39,0-2.64,0.614-3.502,1.581c-21.847,0.545-47.767,22.257-47.767,49.138v0.581h6.271v-0.581
		c0-10.887,5.011-21.62,14.109-30.224c7.773-7.35,17.413-11.951,26.185-12.578v0.55c0,2.586,2.116,4.704,4.703,4.704h1.334
		c0,5.358,4.359,9.721,9.72,9.721c5.36,0,9.721-4.362,9.721-9.721h1.333c2.587,0,4.703-2.118,4.703-4.704v-3.763
		C121.663,597.48,119.547,595.364,116.96,595.364z M112.491,608.544v0.512h-0.026c-0.268,3.387-3.104,6.063-6.559,6.063
		c-3.631,0-6.585-2.955-6.585-6.586h0.092v0.119h13.078v-0.119l0,0C112.491,608.534,112.491,608.539,112.491,608.544z"/>
	
		<line fill="none" stroke="#F3470D" stroke-linecap="round" stroke-linejoin="round" stroke-miterlimit="10" x1="106.4" y1="622.942" x2="106.4" y2="644.942"/>
	
		<line fill="none" stroke="#F3470D" stroke-linecap="round" stroke-linejoin="round" stroke-miterlimit="10" x1="115.272" y1="644.942" x2="110.772" y2="622.942"/>
	
		<line fill="none" stroke="#F3470D" stroke-linecap="round" stroke-linejoin="round" stroke-miterlimit="10" x1="123.105" y1="644.942" x2="115.476" y2="622.942"/>
	
		<line fill="none" stroke="#F3470D" stroke-linecap="round" stroke-linejoin="round" stroke-miterlimit="10" x1="97.528" y1="644.942" x2="102.028" y2="622.942"/>
	
		<line fill="none" stroke="#F3470D" stroke-linecap="round" stroke-linejoin="round" stroke-miterlimit="10" x1="89.695" y1="644.942" x2="97.324" y2="622.942"/>
</g>
<g>
	<path fill="none" d="M514.735,614.92v5.491c0.09-0.132,0.242-0.219,0.414-0.219c0.541-0.689,1.015-1.826,1.372-3.361
		c0.062-0.269,0.332-0.438,0.6-0.374c0.269,0.063,0.436,0.331,0.374,0.601c-0.391,1.686-0.933,2.959-1.608,3.786
		c-0.287,0.353-0.91,0.482-1.15,0.13v23.853c0,1.366,1.112,2.478,2.48,2.478s2.48-1.111,2.48-2.478v-21.141
		c0-0.276,0.224-0.5,0.5-0.5h2.336c0.276,0,0.5,0.224,0.5,0.5v21.141c0,1.366,1.113,2.478,2.482,2.478
		c1.366,0,2.477-1.111,2.477-2.478v-23.817c-0.272,0.317-0.86,0.178-1.141-0.166c-0.676-0.827-1.217-2.101-1.609-3.785
		c-0.063-0.269,0.104-0.538,0.374-0.601c0.268-0.063,0.537,0.105,0.6,0.374c0.357,1.534,0.832,2.672,1.411,3.38
		c0.15,0,0.279,0.063,0.365,0.165v-6.463c-0.026-0.026-0.05-0.053-0.073-0.082c-1.82-2.231-2.241-7.02-2.335-9.428h-8.573
		c-0.093,2.381-0.505,7.088-2.273,9.351V614.92z"/>
	<path fill="none" d="M521.164,590.072c3.148,0,5.71-2.561,5.71-5.708s-2.562-5.709-5.71-5.709s-5.709,2.562-5.709,5.709
		S518.016,590.072,521.164,590.072z"/>
	<path fill="none" d="M516.487,603.411v-9.368h-2.252c-2.59,0-4.372,3.293-5.777,10.677c-0.965,5.061-1.457,10.636-1.504,13.673
		c0,0.034-0.005,0.068-0.012,0.103c-0.032,0.141-0.047,0.27-0.047,0.394c0,0.998,0.812,1.81,1.81,1.81
		c0.998,0,1.809-0.812,1.809-1.81c0-0.129-0.014-0.253-0.039-0.374c-0.007-0.034-0.011-0.069-0.01-0.104
		c0.075-7.005,1.808-15.526,3.316-18.794c0.099-0.213,0.331-0.326,0.562-0.278c0.229,0.051,0.393,0.254,0.393,0.488v11.881
		c1.063-2.591,1.256-6.489,1.29-7.817C516.031,603.632,516.234,603.43,516.487,603.411z"/>
	<path fill="none" d="M543.275,647.295c0.528-0.113,4.345-1.313,4.458-12.168h-8.953
		C538.898,645.68,542.741,647.144,543.275,647.295z"/>
	<path fill="#F3470D" d="M521.164,591.072c3.7,0,6.71-3.009,6.71-6.708s-3.01-6.709-6.71-6.709s-6.709,3.01-6.709,6.709
		S517.464,591.072,521.164,591.072z M521.164,578.655c3.148,0,5.71,2.562,5.71,5.709s-2.562,5.708-5.71,5.708
		s-5.709-2.561-5.709-5.708S518.016,578.655,521.164,578.655z"/>
	<path fill="#F3470D" d="M535.253,604.532c-1.534-8.053-3.556-11.489-6.763-11.489h-1.116h-1.771h-8.616h-2.752
		c-3.206,0-5.227,3.437-6.759,11.489c-0.971,5.092-1.468,10.705-1.521,13.795c-0.04,0.192-0.061,0.382-0.061,0.562
		c0,1.549,1.261,2.81,2.81,2.81c1.549,0,2.809-1.261,2.809-2.81c0-0.178-0.017-0.351-0.048-0.519
		c0.063-5.395,1.114-11.671,2.27-15.651v10.846c0-0.136,0.055-0.265,0.152-0.359c0.332-0.405,0.611-0.92,0.848-1.498v-11.881
		c0-0.234-0.164-0.438-0.393-0.488c-0.23-0.048-0.463,0.065-0.562,0.278c-1.509,3.268-3.242,11.789-3.316,18.794
		c0,0.035,0.003,0.07,0.01,0.104c0.024,0.121,0.039,0.245,0.039,0.374c0,0.998-0.812,1.81-1.809,1.81c-0.998,0-1.81-0.812-1.81-1.81
		c0-0.124,0.016-0.253,0.047-0.394c0.007-0.034,0.012-0.068,0.012-0.103c0.048-3.037,0.539-8.612,1.504-13.673
		c1.405-7.384,3.187-10.677,5.777-10.677h2.252h1h7.616h0.5h0.5h1.271h1.116c2.592,0,4.375,3.293,5.781,10.677
		c0.964,5.064,1.455,10.639,1.502,13.674c0,0.035,0.005,0.069,0.013,0.104c0.03,0.134,0.046,0.266,0.046,0.392
		c0,0.998-0.812,1.81-1.809,1.81c-0.998,0-1.81-0.812-1.81-1.81c0-0.124,0.013-0.248,0.04-0.369
		c0.008-0.036,0.012-0.073,0.011-0.111c-0.077-7.014-1.811-15.533-3.32-18.792c-0.098-0.213-0.333-0.328-0.561-0.278
		c-0.229,0.051-0.393,0.254-0.393,0.488v8.206c0,0.276,0.224,0.5,0.5,0.5s0.5-0.224,0.5-0.5v-5.317
		c1.157,3.975,2.208,10.25,2.273,15.651c-0.033,0.172-0.05,0.348-0.05,0.522c0,1.549,1.261,2.81,2.81,2.81
		c1.549,0,2.809-1.261,2.809-2.81c0-0.184-0.02-0.372-0.06-0.562C536.72,615.239,536.223,609.628,535.253,604.532z"/>
	<path fill="#53A711" d="M516.487,603.411c-0.253,0.02-0.456,0.222-0.463,0.48c-0.034,1.328-0.227,5.225-1.29,7.817
		c-0.237,0.578-0.516,1.093-0.848,1.498c-0.097,0.095-0.152,0.224-0.152,0.359v1.355v29.906c0,1.918,1.561,3.478,3.48,3.478
		s3.48-1.56,3.48-3.478v-20.641h1.336v20.641c0,1.918,1.562,3.478,3.482,3.478c1.917,0,3.477-1.56,3.477-3.478v-31.157
		c0-0.179-0.096-0.344-0.25-0.434c-0.033-0.019-0.043-0.03-0.046-0.033c0-0.001,0-0.001-0.001-0.002
		c-1.808-2.215-2.085-7.686-2.127-9.31c-0.007-0.271-0.229-0.487-0.5-0.487h-8.578v-9.36h-1V603.411z M525.581,604.403
		c0.094,2.408,0.515,7.196,2.335,9.428c0.023,0.029,0.047,0.056,0.073,0.082v6.463c-0.086-0.102-0.215-0.165-0.365-0.165
		c-0.579-0.708-1.054-1.846-1.411-3.38c-0.063-0.269-0.333-0.437-0.6-0.374c-0.269,0.063-0.436,0.332-0.374,0.601
		c0.392,1.685,0.933,2.958,1.609,3.785c0.28,0.344,0.868,0.483,1.141,0.166v23.817c0,1.366-1.111,2.478-2.477,2.478
		c-1.369,0-2.482-1.111-2.482-2.478v-21.141c0-0.276-0.224-0.5-0.5-0.5h-2.336c-0.276,0-0.5,0.224-0.5,0.5v21.141
		c0,1.366-1.112,2.478-2.48,2.478s-2.48-1.111-2.48-2.478v-23.853c0.241,0.353,0.864,0.223,1.15-0.13
		c0.676-0.827,1.217-2.101,1.608-3.786c0.063-0.27-0.104-0.538-0.374-0.601c-0.268-0.063-0.538,0.105-0.6,0.374
		c-0.357,1.535-0.831,2.672-1.372,3.361c-0.172,0-0.324,0.087-0.414,0.219v-5.491v-1.166c1.768-2.263,2.18-6.97,2.273-9.351H525.581
		z"/>
	<path fill="#53A711" d="M525.103,594.043v7.044c0,0.276,0.224,0.5,0.5,0.5s0.5-0.224,0.5-0.5v-7.044h-0.5H525.103z"/>
	<rect x="542.757" y="609.472" fill="#F3470D" width="1" height="24.655"/>
	<path fill="#53A711" d="M545.932,609.472c0.276,0,0.5-0.224,0.5-0.5s-0.224-0.5-0.5-0.5h-5.352c-0.276,0-0.5,0.224-0.5,0.5
		s0.224,0.5,0.5,0.5h2.176h1H545.932z"/>
	<path fill="#53A711" d="M548.236,634.127h-4.479h-1h-4.479c-0.276,0-0.5,0.224-0.5,0.5c0,12.734,5.187,13.64,5.407,13.672
		c0.024,0.003,0.048,0.005,0.072,0.005c0.012,0,0.023,0,0.035-0.001c0.222-0.016,5.444-0.532,5.444-13.676
		C548.736,634.351,548.512,634.127,548.236,634.127z M543.275,647.295c-0.534-0.151-4.377-1.615-4.495-12.168h8.953
		C547.62,645.982,543.803,647.182,543.275,647.295z"/>
</g>
<g>
	<g>
		<g>
			<path fill="none" stroke="#F3470D" stroke-linecap="round" stroke-linejoin="round" stroke-miterlimit="10" d="M909.471-4.178
				c0,0.916,0.749,1.665,1.665,1.665h3.331c0.916,0,1.665-0.749,1.665-1.665v-3.331c0-0.916-0.749-1.665-1.665-1.665h-3.331
				c-0.916,0-1.665,0.749-1.665,1.665V-4.178z"/>
		</g>
		<g>
			<path fill="none" stroke="#F3470D" stroke-linecap="round" stroke-linejoin="round" stroke-miterlimit="10" d="M936.115-4.178
				c0,0.916,0.749,1.665,1.665,1.665h3.331c0.916,0,1.665-0.749,1.665-1.665v-3.331c0-0.916-0.749-1.665-1.665-1.665h-3.331
				c-0.916,0-1.665,0.749-1.665,1.665V-4.178z"/>
		</g>
		<g>
			<path fill="none" stroke="#F3470D" stroke-linecap="round" stroke-linejoin="round" stroke-miterlimit="10" d="M909.471,22.467
				c0,0.916,0.749,1.665,1.665,1.665h3.331c0.916,0,1.665-0.749,1.665-1.665v-3.331c0-0.916-0.749-1.665-1.665-1.665h-3.331
				c-0.916,0-1.665,0.749-1.665,1.665V22.467z"/>
		</g>
		
			<line fill="none" stroke="#F3470D" stroke-linecap="round" stroke-linejoin="round" stroke-miterlimit="10" x1="916.132" y1="-5.843" x2="936.115" y2="-5.843"/>
		
			<line fill="none" stroke="#F3470D" stroke-linecap="round" stroke-linejoin="round" stroke-miterlimit="10" x1="916.132" y1="20.801" x2="922.695" y2="20.801"/>
		
			<line fill="none" stroke="#F3470D" stroke-linecap="round" stroke-linejoin="round" stroke-miterlimit="10" x1="939.446" y1="-2.513" x2="939.446" y2="2.148"/>
		
			<line fill="none" stroke="#F3470D" stroke-linecap="round" stroke-linejoin="round" stroke-miterlimit="10" x1="912.801" y1="-2.513" x2="912.801" y2="17.471"/>
	</g>
	<g>
		<g>
			<path fill="none" stroke="#F3470D" stroke-linecap="round" stroke-linejoin="round" stroke-miterlimit="10" d="M936.115,27.484
				c0,1.832,1.499,3.331,3.331,3.331h6.661c1.832,0,3.331-1.499,3.331-3.331v-6.661c0-1.832-1.499-3.331-3.331-3.331h-6.661
				c-1.832,0-3.331,1.499-3.331,3.331V27.484z"/>
		</g>
		
			<line fill="none" stroke="#F3470D" stroke-linecap="round" stroke-linejoin="round" stroke-miterlimit="10" x1="925.882" y1="24.154" x2="936.115" y2="24.154"/>
		
			<line fill="none" stroke="#F3470D" stroke-linecap="round" stroke-linejoin="round" stroke-miterlimit="10" x1="942.776" y1="4.646" x2="942.776" y2="17.493"/>
	</g>
	<path fill="none" stroke="#F3470D" stroke-linecap="round" stroke-linejoin="round" stroke-miterlimit="10" d="M965.19,7.074"/>
	
		<circle fill="none" stroke="#53A711" stroke-linecap="round" stroke-linejoin="round" stroke-miterlimit="10" cx="941.83" cy="21.299" r="16.653"/>
	<path fill="none" stroke="#53A711" stroke-linecap="round" stroke-linejoin="round" stroke-miterlimit="10" d="M949.865,10.831
		c1.934,1.521,3.469,3.527,4.418,5.836"/>
	<g>
		<path fill="none" stroke="#53A711" stroke-linecap="round" stroke-linejoin="round" stroke-miterlimit="10" d="M955.952,34.233
			c3.122-3.408,5.028-7.948,5.028-12.934c0-10.577-8.573-19.15-19.151-19.15c-10.577,0-19.15,8.573-19.15,19.15
			s8.573,19.15,19.15,19.15c4.083,0,7.867-1.277,10.975-3.452c0.065-0.046,0.193,0.18,0.193,0.18l14.792,14.792
			c1.296,1.296,3.415,1.295,4.71,0l0,0c1.296-1.295,1.296-3.414,0-4.71l-13.026-13.026"/>
		
			<line fill="none" stroke="#53A711" stroke-linecap="round" stroke-linejoin="round" stroke-miterlimit="10" x1="962.28" y1="43.22" x2="965.369" y2="40.129"/>
		
			<line fill="none" stroke="#53A711" stroke-linecap="round" stroke-linejoin="round" stroke-miterlimit="10" x1="960.504" y1="41.445" x2="963.595" y2="38.354"/>
	</g>
</g>
<path fill="none" stroke="#F3470D" stroke-linecap="round" stroke-linejoin="round" stroke-miterlimit="10" d="M15.335,7.92
	c0-4.099-3.319-7.42-7.417-7.42C3.822,0.5,0.5,3.821,0.5,7.92c0,3.204,2.029,5.934,4.875,6.968l2.686,6.761l2.743-6.899
	c2.661-1.128,4.532-3.757,4.535-6.83H15.335z"/>
<path fill="none" stroke="#53A711" stroke-linecap="round" stroke-linejoin="round" stroke-miterlimit="10" d="M12.184,19.795
	c0.523,0.39,0.894,0.868,1.071,1.399l59.2,6.055c0.939,0.092,1.623,0.552,1.777,1.165c0.158,0.609-0.268,1.26-1.063,1.676
	l-19.057,9.58c-0.479,0.221-1.021,0.358-1.59,0.358l-26.472,0.208l7.745,8.052c2.736,0.248,4.527,1.895,3.992,3.792
	c-0.551,1.954-3.373,3.405-6.289,3.256c-2.916-0.153-4.846-1.854-4.297-3.81c0.226-0.794,0.839-1.498,1.656-2.057l-9.475-9.848
	c-0.451-0.49-0.445-1.139,0.059-1.682c0.48-0.537,1.367-0.886,2.293-0.895l30.398-0.239l13.789-6.918l-53.939-5.512
	c-1.22,0.98-3.08,1.587-5,1.486c-2.916-0.15-4.822-1.867-4.27-3.819c0.187-0.661,0.631-1.266,1.249-1.772"/>
<g>
	
		<ellipse transform="matrix(-0.7071 -0.7071 0.7071 -0.7071 -638.8746 943.0188)" fill="none" stroke="#53A711" stroke-linecap="round" stroke-linejoin="round" stroke-miterlimit="10" cx="-124.132" cy="603.825" rx="14.569" ry="19.583"/>
	<path fill="none" stroke="#53A711" stroke-linecap="round" stroke-linejoin="round" stroke-miterlimit="10" d="M-141.316,607.24
		c-1.931,7.521-2.67,14.04-8.457,19.827c-5.787,5.787-9.546,9.546-11.733,11.733c-0.831,0.831-4.826,1.65-3.238,3.238l2.408,2.408
		c1.588,1.588,2.407-2.407,3.238-3.238c2.186-2.186,5.946-5.946,11.733-11.733c5.787-5.787,12.306-6.526,19.827-8.457"/>
	<polyline fill="none" stroke="#53A711" stroke-linecap="round" stroke-linejoin="round" stroke-miterlimit="10" points="
		-143.534,616.05 -141.556,625.258 -147.17,623.965 -144.419,626.716 	"/>
	<g>
		
			<ellipse transform="matrix(-0.7071 0.7071 -0.7071 -0.7071 145.9265 1147.2146)" fill="none" stroke="#F3470D" stroke-linecap="round" stroke-linejoin="round" stroke-miterlimit="10" cx="-164.633" cy="603.83" rx="14.569" ry="19.583"/>
		<path fill="none" stroke="#F3470D" stroke-linecap="round" stroke-linejoin="round" stroke-miterlimit="10" d="M-145.594,614.728
			c-0.645-2.384-1.173-4.877-1.844-7.492"/>
		<path fill="none" stroke="#F3470D" stroke-linecap="round" stroke-linejoin="round" stroke-miterlimit="10" d="M-141.39,629.471
			c5.787,5.787,9.546,9.546,11.733,11.733c0.831,0.831,1.65,4.826,3.238,3.238l2.408-2.408c1.588-1.588-2.407-2.407-3.238-3.238
			c-2.186-2.186-5.946-5.946-11.733-11.733"/>
		<path fill="none" stroke="#F3470D" stroke-linecap="round" stroke-linejoin="round" stroke-miterlimit="10" d="M-161.217,621.014
			c3.859,0.991,7.454,1.668,10.821,2.873"/>
		<g>
			
				<line fill="none" stroke="#F3470D" stroke-linecap="round" stroke-linejoin="round" stroke-miterlimit="10" x1="-164.383" y1="587.611" x2="-148.164" y2="603.83"/>
			
				<line fill="none" stroke="#F3470D" stroke-linecap="round" stroke-linejoin="round" stroke-miterlimit="10" x1="-175.238" y1="587.735" x2="-148.738" y2="614.235"/>
			
				<line fill="none" stroke="#F3470D" stroke-linecap="round" stroke-linejoin="round" stroke-miterlimit="10" x1="-180.213" y1="593.739" x2="-154.227" y2="619.725"/>
			
				<line fill="none" stroke="#F3470D" stroke-linecap="round" stroke-linejoin="round" stroke-miterlimit="10" x1="-180.851" y1="604.08" x2="-164.633" y2="620.298"/>
		</g>
		<g>
			
				<line fill="none" stroke="#F3470D" stroke-linecap="round" stroke-linejoin="round" stroke-miterlimit="10" x1="-179.544" y1="607.213" x2="-161.028" y2="588.697"/>
			
				<line fill="none" stroke="#F3470D" stroke-linecap="round" stroke-linejoin="round" stroke-miterlimit="10" x1="-181.841" y1="597.982" x2="-170.527" y2="586.668"/>
			
				<line fill="none" stroke="#F3470D" stroke-linecap="round" stroke-linejoin="round" stroke-miterlimit="10" x1="-174.85" y1="614.047" x2="-154.438" y2="593.635"/>
			
				<line fill="none" stroke="#F3470D" stroke-linecap="round" stroke-linejoin="round" stroke-miterlimit="10" x1="-168.016" y1="618.741" x2="-149.675" y2="600.401"/>
			
				<line fill="none" stroke="#F3470D" stroke-linecap="round" stroke-linejoin="round" stroke-miterlimit="10" x1="-158.785" y1="621.038" x2="-147.353" y2="609.607"/>
		</g>
	</g>
	<g>
		
			<line fill="none" stroke="#53A711" stroke-linecap="round" stroke-linejoin="round" stroke-miterlimit="10" x1="-108.013" y1="604.174" x2="-124.231" y2="620.393"/>
		
			<line fill="none" stroke="#53A711" stroke-linecap="round" stroke-linejoin="round" stroke-miterlimit="10" x1="-108.137" y1="593.319" x2="-134.637" y2="619.819"/>
		
			<line fill="none" stroke="#53A711" stroke-linecap="round" stroke-linejoin="round" stroke-miterlimit="10" x1="-114.14" y1="588.344" x2="-140.127" y2="614.33"/>
		
			<line fill="none" stroke="#53A711" stroke-linecap="round" stroke-linejoin="round" stroke-miterlimit="10" x1="-124.481" y1="587.706" x2="-140.7" y2="603.924"/>
	</g>
	<g>
		
			<line fill="none" stroke="#53A711" stroke-linecap="round" stroke-linejoin="round" stroke-miterlimit="10" x1="-127.503" y1="588.925" x2="-108.987" y2="607.441"/>
		
			<line fill="none" stroke="#53A711" stroke-linecap="round" stroke-linejoin="round" stroke-miterlimit="10" x1="-118.272" y1="586.628" x2="-106.959" y2="597.942"/>
		
			<line fill="none" stroke="#53A711" stroke-linecap="round" stroke-linejoin="round" stroke-miterlimit="10" x1="-134.338" y1="593.619" x2="-113.926" y2="614.031"/>
		
			<line fill="none" stroke="#53A711" stroke-linecap="round" stroke-linejoin="round" stroke-miterlimit="10" x1="-139.032" y1="600.453" x2="-120.691" y2="618.794"/>
		
			<line fill="none" stroke="#53A711" stroke-linecap="round" stroke-linejoin="round" stroke-miterlimit="10" x1="-141.329" y1="609.684" x2="-129.897" y2="621.116"/>
	</g>
</g>
<g>
	<path fill="#58595B" d="M906.097-90.728c0,3.982-2.338,8.717-4.984,11.359c-2.58,2.577-6.796,5.342-10.815,5.342v-13.287h6.288
		c0-0.842,0.321-4.035,0.534-4.486h-6.822c0-5.075,0.451-4.488,6.822-4.488v-4.484c-4.032,0-6.025-0.456-8.903,1.68
		c-2.47,1.827-2.232,4.921-2.232,7.292h-3.41v4.486h3.41v13.287c-2.312,0-4.713-1.108-6.339-1.907
		c-3.486-1.734-6.136-4.919-7.841-8.328c-1.466-2.904-1.616-5.346-1.616-8.54v-0.082c0-2.256,0.942-5.122,1.732-6.699
		c1.355-2.689,3.346-5.241,5.845-6.906c1.437-0.959,1.032-0.741,2.591-1.528c3.147-1.593,5.39-1.731,8.785-1.741h0.083
		c5.784,0.009,11.46,3.951,14.474,8.867c0.279,0.464,0.415,0.824,0.665,1.309C905.958-96.412,906.097-94.154,906.097-90.728"/>
	<path fill="#58595B" d="M985.439-93.414c-0.885,0.88-1.329,1.953-1.329,3.218c0,1.264,0.444,2.341,1.329,3.222
		c0.88,0.885,1.963,1.331,3.222,1.331c1.266,0,2.337-0.446,3.218-1.331c0.884-0.881,1.324-1.957,1.324-3.222
		c0-1.264-0.44-2.338-1.324-3.218c-0.881-0.888-1.952-1.329-3.218-1.329C987.402-94.744,986.318-94.302,985.439-93.414
		 M994.954-97.996c0.143,0.145,0.32,0.225,0.532,0.225h1.513c0.205,0,0.382-0.079,0.535-0.225c0.151-0.158,0.221-0.329,0.221-0.532
		v-1.523c0-0.205-0.07-0.376-0.221-0.535c-0.154-0.144-0.33-0.228-0.535-0.228h-1.513c-0.212,0-0.389,0.084-0.532,0.228
		c-0.153,0.159-0.228,0.33-0.228,0.535v1.523C994.726-98.325,994.801-98.154,994.954-97.996z M999.262-96.257h-3.825
		c-0.855-0.958-1.866-1.691-3.032-2.231c-1.171-0.535-2.418-0.806-3.744-0.806c-2.299,0-4.325,0.776-6.059,2.332v-5.362h15.153
		c0.422,0,0.788,0.15,1.075,0.439c0.293,0.289,0.432,0.653,0.432,1.071V-96.257z M982.094-93.992
		c0.683-1.162,1.607-2.083,2.764-2.773c1.156-0.672,2.425-1.006,3.802-1.006c1.369,0,2.639,0.334,3.803,1.006
		c1.156,0.69,2.08,1.611,2.758,2.773c0.675,1.155,1.013,2.425,1.013,3.795s-0.338,2.64-1.013,3.804
		c-0.678,1.156-1.602,2.08-2.758,2.753c-1.164,0.683-2.434,1.026-3.803,1.026c-1.377,0-2.646-0.343-3.802-1.026
		c-1.157-0.673-2.081-1.597-2.764-2.753c-0.678-1.164-1.019-2.435-1.019-3.804S981.416-92.837,982.094-93.992z M979.565-96.257
		h-1.511v-4.557c0-0.419,0.139-0.783,0.444-1.071c0.306-0.289,0.653-0.439,1.067-0.439V-96.257z M999.897-80.471
		c0.595-0.6,0.889-1.31,0.889-2.142v-18.202c0-0.833-0.293-1.546-0.889-2.146c-0.591-0.581-1.307-0.866-2.142-0.866h-18.19
		c-0.84,0-1.544,0.286-2.143,0.866c-0.602,0.6-0.887,1.313-0.887,2.146v18.202c0,0.832,0.285,1.542,0.887,2.142
		c0.599,0.589,1.303,0.886,2.143,0.886h18.19C998.591-79.585,999.306-79.882,999.897-80.471z M1006.614-91.72
		c0,9.929-8.042,17.961-17.953,17.961c-9.917,0-17.958-8.032-17.958-17.961c0-9.908,8.041-17.943,17.958-17.943
		C998.572-109.663,1006.614-101.628,1006.614-91.72z"/>
	<path fill="#58595B" d="M940.319-93.711c0.268-0.238,0.407-0.582,0.407-1.034c0-0.421-0.139-0.74-0.407-0.974
		c-0.268-0.239-0.745-0.361-1.42-0.361h-1.968v2.736h1.933C939.562-93.344,940.051-93.472,940.319-93.711 M940.832-88.111
		c0.314-0.28,0.465-0.647,0.465-1.1c0-0.42-0.151-0.757-0.465-1.025c-0.303-0.256-0.85-0.384-1.642-0.384h-2.258v2.91h2.27
		C939.97-87.709,940.517-87.844,940.832-88.111z M942.741-92.261c1.048,0.244,1.805,0.674,2.294,1.268
		c0.489,0.612,0.733,1.368,0.733,2.282c0,0.745-0.174,1.409-0.524,2.014c-0.337,0.595-0.815,1.06-1.431,1.404
		c-0.361,0.214-0.931,0.378-1.677,0.471c-1.013,0.128-1.676,0.199-2.003,0.199h-7.707v-14.356h8.347
		c1.397,0,2.469,0.337,3.213,1.014c0.746,0.687,1.118,1.549,1.118,2.548c0,0.85-0.268,1.584-0.803,2.189
		C943.951-92.82,943.428-92.506,942.741-92.261z M950.052-83.588v-16.434c0-1.891-1.537-3.427-3.446-3.427h-16.508
		c-1.897,0-3.445,1.536-3.445,3.427v16.434c0,1.885,1.548,3.428,3.445,3.428h16.508C948.516-80.16,950.052-81.702,950.052-83.588z
		 M956.398-91.807c0,9.918-8.08,17.952-18.033,17.952c-9.966,0-18.046-8.034-18.046-17.952c0-9.908,8.08-17.952,18.046-17.952
		C948.318-109.759,956.398-101.715,956.398-91.807z"/>
	<path fill="#58595B" d="M1057.269-91.72c0,9.929-8.042,17.961-17.953,17.961c-9.917,0-17.958-8.032-17.958-17.961
		c0-9.908,8.041-17.943,17.958-17.943C1049.227-109.663,1057.269-101.628,1057.269-91.72z M1039.382-100.49
		c1.469,0,2.663,1.194,2.663,2.663c0,1.467-1.195,2.662-2.663,2.662c-1.467,0-2.662-1.194-2.662-2.662
		C1036.72-99.296,1037.915-100.49,1039.382-100.49L1039.382-100.49z M1039.382-91.398c3.547,0,6.432-2.884,6.432-6.429
		c0-3.547-2.884-6.432-6.432-6.432c-3.547,0-6.432,2.885-6.432,6.432C1032.951-94.281,1035.836-91.398,1039.382-91.398
		 M1041.984-86.152c1.323-0.301,2.586-0.824,3.734-1.546c0.881-0.554,1.146-1.717,0.591-2.598c-0.553-0.881-1.715-1.147-2.596-0.594
		c-0.001,0-0.001,0.001-0.002,0.001c-2.635,1.657-6.026,1.655-8.659,0c-0.88-0.554-2.042-0.29-2.596,0.589l-0.002,0.003
		c-0.554,0.88-0.29,2.044,0.59,2.598c1.149,0.722,2.411,1.245,3.734,1.546l-3.595,3.596c-0.736,0.736-0.736,1.929,0,2.665
		c0.736,0.736,1.929,0.736,2.665,0l0,0l3.532-3.533l3.534,3.533c0.734,0.735,1.926,0.736,2.661,0.002l0.002-0.002
		c0.736-0.733,0.738-1.924,0.004-2.66c-0.001-0.001-0.003-0.003-0.004-0.004L1041.984-86.152"/>
	<path fill="#58595B" d="M1086.051-86.247v-6.534c0-1.437-0.437-2.144-1.353-2.144c-0.9,0-1.333,0.707-1.333,2.144v6.534
		c0,1.445,0.433,2.159,1.333,2.159C1085.614-84.088,1086.051-84.802,1086.051-86.247 M1111.537-99.455h3.335v-2.909h-9.703v2.909
		h3.277v17.71h3.091V-99.455z M1120.494-81.746h2.778v-15.357h-2.778v11.742c-0.616,0.87-1.199,1.294-1.758,1.294
		c-0.367,0-0.58-0.211-0.645-0.65c-0.034-0.086-0.034-0.426-0.034-1.086v-11.3h-2.784v12.142c0,1.089,0.097,1.82,0.249,2.28
		c0.282,0.779,0.895,1.15,1.79,1.15c1.031,0,2.078-0.622,3.181-1.888V-81.746z M1131.068-86.137c0,1.379-0.407,2.07-1.211,2.07
		c-0.459,0-0.918-0.211-1.382-0.691v-9.354c0.465-0.458,0.923-0.675,1.382-0.675c0.804,0,1.211,0.707,1.211,2.096V-86.137z
		 M1133.571-83.261c0.181-0.645,0.283-1.675,0.283-3.096v-6.114c0-1.454-0.102-2.472-0.283-3.09
		c-0.367-1.146-1.111-1.725-2.216-1.725c-1.03,0-1.985,0.554-2.88,1.661v-6.74h-2.783v20.619h2.783v-1.489
		c0.923,1.155,1.886,1.704,2.88,1.704C1132.46-81.531,1133.204-82.122,1133.571-83.261z M1138.79-91.238v-1.418
		c0-1.424,0.462-2.132,1.391-2.132c0.929,0,1.399,0.707,1.399,2.132v1.418H1138.79z M1144.295-84.867
		c0.033-0.275,0.068-0.895,0.068-1.798v-0.404h-2.846c0,1.117-0.031,1.733-0.058,1.893c-0.162,0.735-0.562,1.109-1.247,1.109
		c-0.959,0-1.421-0.707-1.421-2.127v-2.725h5.572v-3.177c0-1.642-0.287-2.846-0.864-3.619c-0.777-1.058-1.885-1.571-3.287-1.571
		c-1.421,0-2.529,0.513-3.334,1.571c-0.592,0.772-0.859,1.977-0.859,3.619v5.381c0,1.629,0.305,2.843,0.891,3.6
		c0.808,1.053,1.917,1.584,3.37,1.584c1.45,0,2.597-0.549,3.369-1.669C1143.991-83.691,1144.204-84.26,1144.295-84.867z
		 M1147.792-91.709c0,3.591-0.012,7.395-0.811,10.885c-0.562,2.455-2.564,4.259-4.984,4.526c-5.702,0.636-11.482,0.636-17.24,0.636
		c-5.753,0-11.534,0-17.243-0.636c-2.415-0.267-4.405-2.071-4.977-4.526c-0.796-3.49-0.796-7.294-0.796-10.885
		c0-3.593,0-7.401,0.804-10.892c0.569-2.441,2.568-4.24,4.976-4.522c5.713-0.636,11.494-0.638,17.245-0.636
		c5.759-0.002,11.531,0,17.245,0.636c2.412,0.282,4.416,2.081,4.982,4.522C1147.792-99.11,1147.792-95.302,1147.792-91.709z
		 M1099.261-81.752h-2.816v-1.692c-1.111,1.286-2.183,1.913-3.206,1.913c-0.907,0-1.527-0.371-1.817-1.157
		c-0.151-0.474-0.247-1.214-0.247-2.315v-12.272h2.8v11.431c0,0.652,0,0.999,0.037,1.086c0.06,0.444,0.282,0.67,0.658,0.67
		c0.564,0,1.148-0.438,1.775-1.313v-11.875h2.816V-81.752z M1088.859-86.775c0,1.651-0.286,2.873-0.874,3.653
		c-0.776,1.052-1.874,1.591-3.287,1.591c-1.39,0-2.499-0.539-3.263-1.591c-0.6-0.78-0.882-2.002-0.882-3.653v-5.432
		c0-1.665,0.282-2.875,0.882-3.659c0.764-1.06,1.873-1.588,3.263-1.588c1.413,0,2.511,0.528,3.287,1.588
		c0.588,0.784,0.874,1.993,0.874,3.659V-86.775z M1080.526-102.577l-3.752,12.396v8.429h-3.116v-8.429
		c-0.29-1.49-0.917-3.691-1.912-6.592c-0.657-1.935-1.343-3.872-2-5.804h3.285l2.209,8.182l2.129-8.182H1080.526z"/>
</g>
<g>
	<g>
		<path fill="none" stroke="#53A711" stroke-miterlimit="10" d="M894.872-275.902c0,1.1,0.9,2,2,2h4c1.1,0,2-0.9,2-2v-4
			c0-1.1-0.9-2-2-2h-4c-1.1,0-2,0.9-2,2V-275.902z"/>
	</g>
	<g>
		<path fill="none" stroke="#53A711" stroke-miterlimit="10" d="M926.872-275.902c0,1.1,0.9,2,2,2h4c1.1,0,2-0.9,2-2v-4
			c0-1.1-0.9-2-2-2h-4c-1.1,0-2,0.9-2,2V-275.902z"/>
	</g>
	<g>
		<path fill="none" stroke="#53A711" stroke-miterlimit="10" d="M894.872-243.901c0,1.1,0.9,2,2,2h4c1.1,0,2-0.9,2-2v-4
			c0-1.1-0.9-2-2-2h-4c-1.1,0-2,0.9-2,2V-243.901z"/>
	</g>
	<g>
		<path fill="none" stroke="#53A711" stroke-miterlimit="10" d="M926.872-243.901c0,1.1,0.9,2,2,2h4c1.1,0,2-0.9,2-2v-4
			c0-1.1-0.9-2-2-2h-4c-1.1,0-2,0.9-2,2V-243.901z"/>
	</g>
	<line fill="none" stroke="#53A711" stroke-miterlimit="10" x1="902.872" y1="-277.902" x2="926.872" y2="-277.902"/>
	<line fill="none" stroke="#53A711" stroke-miterlimit="10" x1="902.872" y1="-245.901" x2="926.872" y2="-245.901"/>
	<line fill="none" stroke="#53A711" stroke-miterlimit="10" x1="930.872" y1="-273.902" x2="930.872" y2="-249.901"/>
	<line fill="none" stroke="#53A711" stroke-miterlimit="10" x1="898.872" y1="-273.902" x2="898.872" y2="-249.901"/>
</g>
<g>
	<g>
		<path fill="none" stroke="#53A711" stroke-miterlimit="10" d="M1116.003-268.314l2.829,2.829c0.778,0.778,0.778,2.051,0,2.828
			l-18.149,18.149c-0.778,0.778-2.051,0.778-2.828,0l-11.45-11.45"/>
	</g>
	<path fill="none" stroke="#53A711" stroke-miterlimit="10" d="M1084.646-263.178l-1.317,1.317c-0.778,0.778-0.778,2.05,0,2.828
		l0.383,0.383c0.778,0.778,2.051,0.778,2.829,0l18.149-18.149c0.778-0.778,2.051-0.778,2.828,0l2.806,2.806"/>
	<path fill="none" stroke="#53A711" stroke-miterlimit="10" d="M1105.043-279.274c0,0-0.484-0.484-1.075-1.075
		c-0.592-0.591-1.712-0.439-2.49,0.339l-0.748,0.748"/>
	<g>
		<path fill="none" stroke="#53A711" stroke-miterlimit="10" d="M1114.648-271.79c0.778,0.778,0.778,2.051,0,2.828l-6.282,6.282
			c-0.778,0.778-2.051,0.778-2.828,0l-0.825-0.825c-0.778-0.778-0.778-2.051,0-2.828l6.282-6.282c0.778-0.778,2.051-0.778,2.828,0
			L1114.648-271.79z"/>
	</g>
	<circle fill="none" stroke="#53A711" stroke-miterlimit="10" cx="1106.929" cy="-264.895" r="1.166"/>
	<polyline fill="none" stroke="#53A711" stroke-miterlimit="10" points="1084.832,-261.095 1095.821,-279.754 1101.383,-277.525 	
		"/>
	<line fill="none" stroke="#53A711" stroke-miterlimit="10" x1="1085.833" y1="-260.064" x2="1103.014" y2="-277.245"/>
	<line fill="none" stroke="#53A711" stroke-miterlimit="10" x1="1112.07" y1="-268.505" x2="1110.361" y2="-270.214"/>
	<line fill="none" stroke="#53A711" stroke-miterlimit="10" x1="1110.813" y1="-267.248" x2="1109.104" y2="-268.957"/>
	<line fill="none" stroke="#53A711" stroke-miterlimit="10" x1="1109.556" y1="-265.991" x2="1107.847" y2="-267.7"/>
</g>
<g>
	<path fill="none" stroke="#53A711" stroke-miterlimit="10" d="M988.175-234.652l-8.744,3.771c-1.01,0.436-1.753-0.104-1.651-1.199
		l0.698-7.489c0.102-1.095-0.409-2.667-1.135-3.493l-4.967-5.649c-0.726-0.826-0.443-1.699,0.631-1.941l7.339-1.65
		c1.073-0.241,2.41-1.213,2.972-2.159l3.837-6.469c0.561-0.946,1.479-0.946,2.041,0l3.837,6.469
		c0.561,0.946,1.898,1.918,2.972,2.159l7.339,1.65c1.073,0.241,1.357,1.115,0.631,1.941l-4.967,5.649
		c-0.726,0.826-1.237,2.398-1.135,3.493l0.698,7.489c0.102,1.095-0.641,1.635-1.651,1.199l-6.091-2.626"/>
</g>
</svg>
