<?xml version="1.0" encoding="utf-8"?>
<!-- Generator: Adobe Illustrator 18.1.1, SVG Export Plug-In . SVG Version: 6.00 Build 0)  -->
<svg version="1.1" id="Слой_1" xmlns="http://www.w3.org/2000/svg" xmlns:xlink="http://www.w3.org/1999/xlink" x="0px" y="0px"
	 viewBox="0 0 71.951 75.372" enable-background="new 0 0 71.951 75.372" xml:space="preserve">
<path fill="none" stroke="#F3470D" stroke-linecap="round" stroke-linejoin="round" stroke-miterlimit="10" d="M41.953,16.474
	c2.636,1.087,5.541,1.452,8.995,1.063c1.51,1.101,3.37,2.245,5.533,3.404C56.556,20.981,56.637,21,56.717,21
	c0.16,0,0.316-0.077,0.412-0.218c0.145-0.21,0.107-0.495-0.086-0.661c-0.91-0.783-1.389-2.035-1.423-3.727
	c3.901-1.552,6.31-4.33,6.31-7.311c0-4.733-5.944-8.583-13.25-8.583c-4.784,0-8.972,1.658-11.302,4.126 M44.023,11.151
	c0.503-0.004,0.765-0.154,1.055-0.465c0.292-0.314,0.438-0.695,0.438-1.143c0-0.446-0.146-0.82-0.438-1.117
	c-0.293-0.299-0.695-0.447-1.206-0.447c-0.224,0-0.434,0.04-0.631,0.119c-0.167,0.068-0.305,0.171-0.434,0.285"/>
<path fill="none" stroke="#F3470D" stroke-linecap="round" stroke-linejoin="round" stroke-miterlimit="10" d="M60.157,26.495
	c-0.264-0.316-0.565-0.597-0.885-0.863c-0.645-0.64-1.341-1.049-1.971-1.175c-0.465-0.195-0.955-0.365-1.486-0.494
	c-1.39-0.99-4.995-2.795-9.788,0.565c-0.217,0.152-0.397,0.303-0.592,0.456c-0.566,0.323-1.063,0.699-1.481,1.133
	c-0.688,0.711-1.043,1.441-1.23,2.031c-0.652,1.386-0.646,2.662-0.434,3.702c-0.001,0.598,0.031,1.251,0.135,1.932
	c-0.313,0.12-0.554,0.395-0.673,0.785c-0.359,1.175,0.366,3.19,2.15,4.511c-0.017,3.378,1.506,4.822,2.735,5.987
	c0.247,0.234,0.486,0.46,0.699,0.692c1.457,1.59,2.923,2.362,4.479,2.362c0.717,0,4.35-0.117,5.431-2.431
	c0.21-0.449,0.557-0.865,0.925-1.307c0.926-1.109,2.069-2.48,1.922-5.314c2.016-1.073,2.396-3.179,2.142-4.391
	c-0.089-0.424-0.257-0.748-0.489-0.943C62.027,31.894,62.1,28.827,60.157,26.495z M42.872,34.728
	c0.169,0.053,0.354,0.008,0.482-0.109c0.131-0.119,0.188-0.299,0.152-0.472c-0.009-0.044-0.013-0.087-0.021-0.13
	c0.636-0.925,1.821-3.111,3.024-2.783c1.7,0.464,6.215,1.229,9.393-2.824c0.488,2.494,3.589,4.859,4.803,5.481
	c-0.002,0.011-0.004,0.026-0.006,0.038c-0.026,0.146,0.023,0.296,0.118,0.409c0.075,0.091,0.186,0.151,0.303,0.172"/>
<path fill="none" stroke="#53A711" stroke-linecap="round" stroke-linejoin="round" stroke-miterlimit="10" d="M13.766,44.26
	c-0.03,3.861,1.707,5.507,3.109,6.834c0.283,0.27,0.558,0.527,0.801,0.794c1.651,1.803,3.31,2.679,5.069,2.679
	c0.813,0,4.93-0.132,6.147-2.738c0.244-0.522,0.645-1.003,1.068-1.512c1.056-1.266,2.36-2.831,2.179-6.076
	c2.307-1.2,2.744-3.591,2.455-4.965c-0.103-0.487-0.297-0.854-0.566-1.064c0.015-0.095,0.025-0.209,0.039-0.312
	c0.035-0.061,0.07-0.118,0.106-0.187c2.407-4.523-1.82-8.874-4.775-9.902c-0.73-0.344-1.542-0.612-2.43-0.805
	c-1.55-1.158-5.445-3.14-10.844,0.643c-0.503,0.352-0.949,0.703-1.354,1.052c-0.35,0.251-0.679,0.518-0.967,0.815
	c-0.366,0.379-0.648,0.764-0.868,1.134c-2.106,2.882-1.421,5.415-0.943,6.885c0.024,0.248,0.051,0.496,0.091,0.75
	c-0.364,0.117-0.646,0.425-0.782,0.87C10.897,40.484,11.729,42.769,13.766,44.26z M12.43,39.233c0.029,0,0.066,0.006,0.106,0.018
	c0.169,0.051,0.354,0.01,0.482-0.109c0.094-0.086,0.134-0.204,0.145-0.327c1.061-0.43,2.992-1.994,5.345-4.081
	c6.753,2.781,7.478-2.864,10.589-1.672c2.332,0.892,2.925,5.118,3.896,5.638c0.014,0.045,0.022,0.093,0.058,0.132"/>
<polygon fill="none" stroke="#F3470D" stroke-linecap="round" stroke-linejoin="round" stroke-miterlimit="10" points="
	23.188,69.891 25.725,64.661 24.334,59.762 21.818,59.762 20.561,64.859 "/>
<path fill="none" stroke="#F3470D" stroke-linecap="round" stroke-linejoin="round" stroke-miterlimit="10" d="M22.878,58.966h0.397
	c0.583,0,1.19-0.458,1.351-1.018l0.345-1.207c0.16-0.561-0.186-1.019-0.769-1.019h-2.185c-0.583,0-0.938,0.461-0.788,1.023
	l0.318,1.198C21.696,58.505,22.295,58.966,22.878,58.966z"/>
<polygon fill="none" stroke="#53A711" stroke-linecap="round" stroke-linejoin="round" stroke-miterlimit="10" points="
	52.051,61.821 54.287,57.211 53.061,52.89 50.843,52.89 49.733,57.386 "/>
<path fill="none" stroke="#53A711" stroke-linecap="round" stroke-linejoin="round" stroke-miterlimit="10" d="M51.777,52.189h0.35
	c0.514,0,1.049-0.404,1.191-0.898l0.304-1.065c0.142-0.494-0.164-0.899-0.678-0.899h-1.926c-0.514,0-0.826,0.407-0.694,0.904
	l0.28,1.055C50.734,51.783,51.264,52.189,51.777,52.189z"/>
<path fill="none" stroke="#F3470D" stroke-linecap="round" stroke-linejoin="round" stroke-miterlimit="10" d="M64.971,50.03
	c-5.138,0-7.239-2.511-7.239-2.511s2.394,7.472-5.681,17.048c-7.783-9.692-5.762-16.698-5.762-16.698s-4.787,2.218-8.99,2.802
	c-1.226,0.17-2.178,0.692-2.92,1.459c1.168,0.581,2.947,1.145,5.462,1.145c5.149,0,8.226,4.529,8.558,12.485
	c2.205,0.293,3.652,0.382,3.652,0.382s7.141,1.05,19.4-4.905C71.451,55.984,70.107,50.03,64.971,50.03z"/>
<path fill="none" stroke="#53A711" stroke-linecap="round" stroke-linejoin="round" stroke-miterlimit="10" d="M37.841,56.517
	c-5.827,0-8.21-2.847-8.21-2.847s2.715,8.475-6.443,19.332c-8.826-10.99-6.533-18.935-6.533-18.935s-5.43,2.516-10.196,3.178
	C1.691,57.907,0.5,63.138,0.5,68.898c8.606,5.031,22.688,5.893,22.688,5.893s8.099,1.191,22.002-5.562
	C45.189,63.27,43.666,56.517,37.841,56.517z"/>
<path fill="none" stroke="#53A711" stroke-linecap="round" stroke-linejoin="round" stroke-miterlimit="10" d="M42.854,8.461
	c-0.968-1.367-2.512-2.535-4.444-3.373l-0.985-0.384c-1.835-0.649-3.947-1.022-6.198-1.022c-7.042,0-12.75,3.619-12.75,8.083
	c0,2.973,2.539,5.563,6.31,6.968c0.022,1.607-0.317,3.348-1.598,4.449c2.434-1.304,4.258-2.467,5.632-3.482
	c0.78,0.094,1.582,0.149,2.405,0.149c4.31,0,8.113-1.36,10.422-3.436l0.755-0.758c1.001-1.154,1.573-2.479,1.573-3.89
	c0-0.18-0.024-0.354-0.042-0.531C43.934,9.767,42.854,8.461,42.854,8.461z M32.144,17.351c-0.293,0.313-0.695,0.471-1.205,0.471
	c-0.576,0-0.988-0.157-1.238-0.471c-0.25-0.315-0.375-0.695-0.375-1.142c0-0.213,0.043-0.415,0.127-0.606
	c0.086-0.192,0.199-0.36,0.344-0.503c0.145-0.144,0.314-0.256,0.512-0.336c0.197-0.079,0.406-0.119,0.631-0.119
	c0.51,0,0.912,0.149,1.205,0.448c0.293,0.298,0.44,0.671,0.44,1.117C32.583,16.656,32.437,17.037,32.144,17.351z M28.151,6.881
	c0.217-0.16,0.486-0.29,0.807-0.391c0.318-0.101,0.664-0.173,1.037-0.216c0.373-0.042,0.713-0.063,1.023-0.063
	c0.649,0,1.203,0.058,1.66,0.175c0.457,0.117,0.83,0.275,1.119,0.471c0.287,0.197,0.496,0.434,0.631,0.711
	c0.133,0.278,0.199,0.575,0.199,0.895c0,0.341-0.074,0.641-0.225,0.902c-0.148,0.262-0.338,0.501-0.566,0.719
	c-0.228,0.219-0.475,0.424-0.734,0.615c-0.262,0.192-0.506,0.386-0.734,0.583c-0.23,0.197-0.418,0.41-0.568,0.639
	c-0.148,0.229-0.223,0.487-0.223,0.774c0,0.149,0.035,0.291,0.104,0.424c0.068,0.133,0.193,0.258,0.375,0.375l-0.414,0.734
	c-0.352-0.074-0.672-0.199-0.959-0.375c-0.287-0.176-0.535-0.378-0.742-0.607c-0.209-0.229-0.367-0.465-0.48-0.71
	c-0.111-0.245-0.168-0.479-0.168-0.703c0-0.351,0.117-0.65,0.351-0.895c0.234-0.244,0.492-0.479,0.775-0.702
	c0.281-0.224,0.541-0.453,0.775-0.688c0.233-0.233,0.352-0.516,0.352-0.846c0-0.244-0.035-0.495-0.105-0.75
	c-0.068-0.256-0.209-0.49-0.422-0.703l-1.998,1.646c-0.137-0.033-0.279-0.091-0.422-0.176c-0.144-0.085-0.271-0.19-0.385-0.312
	c-0.111-0.122-0.205-0.264-0.279-0.424c-0.074-0.159-0.111-0.335-0.111-0.526C27.823,7.233,27.933,7.042,28.151,6.881z"/>
<path fill="none" stroke="#F3470D" stroke-linecap="round" stroke-linejoin="round" stroke-miterlimit="10" d="M53.384,11.115
	c0.511,0,0.913-0.157,1.206-0.471c0.293-0.314,0.439-0.695,0.439-1.142c0-0.446-0.146-0.819-0.439-1.117
	c-0.293-0.299-0.695-0.447-1.206-0.447c-0.224,0-0.434,0.04-0.631,0.12c-0.197,0.08-0.367,0.192-0.511,0.336
	c-0.145,0.144-0.259,0.311-0.344,0.503c-0.085,0.191-0.128,0.394-0.128,0.606c0,0.447,0.125,0.828,0.376,1.142
	C52.397,10.958,52.809,11.115,53.384,11.115z"/>
<path fill="none" stroke="#F3470D" stroke-linecap="round" stroke-linejoin="round" stroke-miterlimit="10" d="M48.592,11.115
	c0.512,0,0.913-0.157,1.206-0.471c0.293-0.314,0.439-0.695,0.439-1.142c0-0.446-0.146-0.819-0.439-1.117
	c-0.293-0.299-0.694-0.447-1.206-0.447c-0.223,0-0.434,0.04-0.631,0.12c-0.196,0.08-0.367,0.192-0.511,0.336
	c-0.144,0.144-0.258,0.311-0.344,0.503c-0.085,0.191-0.127,0.394-0.127,0.606c0,0.447,0.125,0.828,0.375,1.142
	C47.605,10.958,48.018,11.115,48.592,11.115z"/>
</svg>
