<?xml version="1.0" encoding="utf-8"?>
<!-- Generator: Adobe Illustrator 18.1.1, SVG Export Plug-In . SVG Version: 6.00 Build 0)  -->
<svg version="1.1" id="Слой_1" xmlns="http://www.w3.org/2000/svg" xmlns:xlink="http://www.w3.org/1999/xlink" x="0px" y="0px"
	 viewBox="0 0 73.212 63.688" enable-background="new 0 0 73.212 63.688" xml:space="preserve">
<path fill="none" stroke="#53A711" stroke-linecap="round" stroke-linejoin="round" stroke-miterlimit="10" d="M65.193,57.45
	c2.047-1.241,3.414-3.491,3.414-6.06c0-3.912-3.171-7.083-7.083-7.083c-3.912,0-7.083,3.171-7.083,7.083s3.171,7.083,7.083,7.083"/>
<line fill="none" stroke="#53A711" stroke-linecap="round" stroke-linejoin="round" stroke-miterlimit="10" x1="61.524" y1="58.473" x2="61.524" y2="62.723"/>
<line fill="none" stroke="#F3470D" stroke-linecap="round" stroke-linejoin="round" stroke-miterlimit="10" x1="45.355" y1="43.508" x2="10.895" y2="43.508"/>
<line fill="none" stroke="#F3470D" stroke-linecap="round" stroke-linejoin="round" stroke-miterlimit="10" x1="45.355" y1="39.177" x2="10.895" y2="39.177"/>
<line fill="none" stroke="#F3470D" stroke-linecap="round" stroke-linejoin="round" stroke-miterlimit="10" x1="45.355" y1="56.69" x2="16.921" y2="56.69"/>
<polyline fill="none" stroke="#F3470D" stroke-linecap="round" stroke-linejoin="round" stroke-miterlimit="10" points="
	10.895,63.188 10.895,56.69 6.375,56.69 6.375,50.853 49.875,50.853 49.875,56.69 45.355,56.69 45.355,63.188 "/>
<line fill="none" stroke="#F3470D" stroke-linecap="round" stroke-linejoin="round" stroke-miterlimit="10" x1="10.895" y1="35.599" x2="10.895" y2="49.911"/>
<line fill="none" stroke="#F3470D" stroke-linecap="round" stroke-linejoin="round" stroke-miterlimit="10" x1="45.355" y1="35.599" x2="45.355" y2="49.911"/>
<line fill="none" stroke="#53A711" stroke-linecap="round" stroke-linejoin="round" stroke-miterlimit="10" x1="0.5" y1="63.188" x2="68.688" y2="63.188"/>
<path fill="none" stroke="#53A711" stroke-linecap="round" stroke-linejoin="round" stroke-miterlimit="10" d="M60.684,28.652
	c0.458,0.061,0.919,0.102,1.393,0.102l5.508-1.537c3.073-1.864,5.127-5.242,5.127-9.1c0-5.46-4.115-9.952-9.409-10.56
	C61.017,3.353,56.562,0.5,51.441,0.5c-7.452,0-13.492,6.04-13.492,13.492c0,0.327,0.026,0.647,0.048,0.967
	c-4.509,1.233-7.828,5.35-7.828,10.249c0,5.875,4.762,10.637,10.636,10.637l5.508-1.536c0.197-0.119,0.376-0.262,0.564-0.393
	c1.472,1.189,3.319,1.929,5.357,1.929"/>
<line fill="none" stroke="#53A711" stroke-linecap="round" stroke-linejoin="round" stroke-miterlimit="10" x1="52.553" y1="35.845" x2="52.553" y2="63.188"/>
</svg>
