<?xml version="1.0" encoding="utf-8"?>
<!-- Generator: Adobe Illustrator 18.1.1, SVG Export Plug-In . SVG Version: 6.00 Build 0)  -->
<svg version="1.1" id="Слой_1" xmlns="http://www.w3.org/2000/svg" xmlns:xlink="http://www.w3.org/1999/xlink" x="0px" y="0px"
	 viewBox="0 0 35.911 52.433" enable-background="new 0 0 35.911 52.433" xml:space="preserve">
<g>
	<path fill="#1E0F00" d="M35.911,26.207c0,9.929-8.042,17.961-17.953,17.961C8.041,44.169,0,36.136,0,26.207
		C0,16.299,8.041,8.264,17.958,8.264C27.87,8.264,35.911,16.299,35.911,26.207z M18.025,17.438c1.468,0,2.663,1.194,2.663,2.663
		c0,1.467-1.195,2.662-2.663,2.662c-1.468,0-2.662-1.194-2.662-2.662C15.362,18.632,16.558,17.438,18.025,17.438L18.025,17.438z
		 M18.025,26.529c3.547,0,6.432-2.884,6.432-6.429c0-3.547-2.884-6.432-6.432-6.432c-3.547,0-6.432,2.885-6.432,6.432
		C11.593,23.646,14.478,26.529,18.025,26.529 M20.627,31.775c1.323-0.301,2.586-0.824,3.734-1.546
		c0.881-0.554,1.145-1.717,0.591-2.598c-0.553-0.881-1.715-1.147-2.596-0.594c-0.001,0-0.001,0.001-0.002,0.001
		c-2.635,1.657-6.026,1.655-8.659,0c-0.88-0.554-2.042-0.29-2.596,0.589l-0.002,0.003c-0.554,0.88-0.29,2.044,0.59,2.598
		c1.149,0.722,2.411,1.245,3.734,1.546l-3.595,3.596c-0.736,0.736-0.736,1.929,0,2.665c0.736,0.736,1.929,0.736,2.665,0l0,0
		l3.532-3.533l3.534,3.533c0.734,0.735,1.926,0.736,2.661,0.002l0.002-0.002c0.736-0.733,0.737-1.924,0.004-2.66
		c-0.001-0.001-0.003-0.003-0.004-0.004L20.627,31.775"/>
</g>
</svg>
