<?xml version="1.0" encoding="utf-8"?>
<!-- Generator: Adobe Illustrator 18.1.1, SVG Export Plug-In . SVG Version: 6.00 Build 0)  -->
<svg version="1.1" id="Слой_1" xmlns="http://www.w3.org/2000/svg" xmlns:xlink="http://www.w3.org/1999/xlink" x="0px" y="0px"
	 viewBox="-285.416 314.586 772.21 772.21" enable-background="new -285.416 314.586 772.21 772.21" xml:space="preserve">
<title>Artboard 94</title>
<path fill="#FFFFFF" d="M76.38,581h48v-48c0-26.508,21.492-48,48-48s48,21.492,48,48v48h48c26.508,0,48,21.492,48,48
	s-21.492,48-48,48h-48v48c0,26.508-21.492,48-48,48s-48-21.492-48-48v-48h-48c-26.508,0-48-21.492-48-48S49.872,581,76.38,581z
	 M-92.9,792.44c-62.328-100.892-62.328-228.332,0-329.224c90.912-147.156,283.908-192.752,431.064-101.84
	s192.752,283.908,101.84,431.064S156.096,985.192,8.94,894.28l-169.68,169.6c-1.156,1.24-2.352,2.436-3.592,3.592
	c-29.092,27.108-74.652,25.5-101.76-3.592s-25.5-74.652,3.592-101.76L-92.9,792.44z M172.38,845c119.292,0,216-96.708,216-216
	s-96.708-216-216-216s-216,96.708-216,216S53.088,845,172.38,845z"/>
</svg>
