<?xml version="1.0" encoding="utf-8"?>
<!-- Generator: Adobe Illustrator 18.1.1, SVG Export Plug-In . SVG Version: 6.00 Build 0)  -->
<svg version="1.1" id="Слой_1" xmlns="http://www.w3.org/2000/svg" xmlns:xlink="http://www.w3.org/1999/xlink" x="0px" y="0px"
	 viewBox="0 0 37.67 63.114" enable-background="new 0 0 37.67 63.114" xml:space="preserve">
<g>
	<g>
		<path fill="#1E0F00" d="M17.022,50.449c-0.64,0-1.28-0.244-1.768-0.731L3.806,38.268l0.707-0.707l11.449,11.45
			c0.587,0.585,1.537,0.584,2.122,0l18.148-18.149c0.282-0.282,0.438-0.659,0.438-1.061s-0.155-0.779-0.438-1.061l-2.828-2.829
			l0.707-0.707l2.828,2.829c0.471,0.471,0.73,1.098,0.73,1.768s-0.26,1.297-0.73,1.768L18.791,49.718
			C18.304,50.205,17.663,50.449,17.022,50.449z"/>
	</g>
	<g>
		<path fill="#1E0F00" d="M2.881,36.306c-0.67,0-1.297-0.259-1.768-0.73L0.73,35.193C0.26,34.722,0,34.094,0,33.425
			s0.26-1.297,0.73-1.768l1.317-1.317l0.707,0.707l-1.317,1.317C1.155,32.646,1,33.023,1,33.425s0.155,0.779,0.438,1.061
			l0.383,0.383c0.563,0.563,1.559,0.563,2.121,0L22.091,16.72c0.941-0.941,2.594-0.941,3.535,0l2.806,2.806l-0.707,0.707
			l-2.806-2.806c-0.563-0.563-1.559-0.563-2.121,0L4.648,35.576C4.178,36.047,3.551,36.306,2.881,36.306z"/>
	</g>
	<g>
		<path fill="#1E0F00" d="M18.838,14.964l-0.707-0.707l0.748-0.748c0.973-0.974,2.406-1.128,3.197-0.339l1.075,1.075l-0.707,0.707
			l-1.075-1.075c-0.393-0.392-1.208-0.237-1.783,0.339L18.838,14.964z"/>
	</g>
	<g>
		<path fill="#1E0F00" d="M24.706,32.276c-0.669,0-1.297-0.259-1.768-0.73l-0.825-0.825c-0.975-0.975-0.975-2.561,0-3.535
			l6.282-6.282c0.941-0.941,2.594-0.941,3.535,0l0.825,0.825c0.471,0.471,0.73,1.098,0.73,1.768c0,0.669-0.26,1.297-0.73,1.768
			l-6.281,6.282C26.004,32.017,25.376,32.276,24.706,32.276z M30.163,21.173c-0.402,0-0.779,0.155-1.061,0.437l-6.282,6.282
			c-0.584,0.585-0.584,1.536,0,2.121l0.825,0.825c0.564,0.564,1.558,0.562,2.122,0l6.281-6.282c0.282-0.282,0.438-0.659,0.438-1.061
			c0-0.402-0.155-0.779-0.438-1.061l-0.825-0.825C30.942,21.329,30.565,21.173,30.163,21.173z"/>
	</g>
	<g>
		<path fill="#1E0F00" d="M24.684,30.643c-0.445,0-0.863-0.173-1.178-0.488c-0.649-0.65-0.65-1.707-0.001-2.357
			c0.631-0.629,1.727-0.63,2.357,0c0.314,0.314,0.488,0.733,0.487,1.178c0,0.445-0.174,0.864-0.488,1.178
			S25.129,30.643,24.684,30.643z M24.684,28.31c-0.179,0-0.346,0.069-0.472,0.195c-0.26,0.26-0.259,0.683,0.001,0.943
			c0.252,0.251,0.689,0.251,0.941,0c0.126-0.126,0.195-0.293,0.195-0.472c0-0.178-0.068-0.345-0.194-0.471
			C25.029,28.38,24.861,28.31,24.684,28.31z"/>
	</g>
	<g>
		<polygon fill="#1E0F00" points="3.018,33.03 2.156,32.523 13.362,13.494 19.323,15.883 18.952,16.811 13.788,14.742 		"/>
	</g>
	<g>
		
			<rect x="11.678" y="13.069" transform="matrix(0.7071 0.7071 -0.7071 0.7071 21.3983 -1.2253)" fill="#1E0F00" width="1" height="24.297"/>
	</g>
	<g>
		
			<rect x="27.762" y="24.013" transform="matrix(0.7071 0.7071 -0.7071 0.7071 25.8185 -13.3057)" fill="#1E0F00" width="2.417" height="1"/>
	</g>
	<g>
		
			<rect x="26.504" y="25.27" transform="matrix(0.7071 0.7071 -0.7071 0.7071 26.3388 -12.0482)" fill="#1E0F00" width="2.417" height="1"/>
	</g>
	<g>
		
			<rect x="25.248" y="26.527" transform="matrix(0.7071 0.7071 -0.7071 0.7071 26.8594 -10.7914)" fill="#1E0F00" width="2.417" height="1"/>
	</g>
</g>
</svg>
