<?xml version="1.0" encoding="utf-8"?>
<!-- Generator: Adobe Illustrator 18.1.1, SVG Export Plug-In . SVG Version: 6.00 Build 0)  -->
<svg version="1.1" id="Слой_1" xmlns="http://www.w3.org/2000/svg" xmlns:xlink="http://www.w3.org/1999/xlink" x="0px" y="0px"
	 viewBox="0 0 68.813 75.816" enable-background="new 0 0 68.813 75.816" xml:space="preserve">
<g>
	<path fill="none" stroke="#53A711" stroke-linecap="round" stroke-linejoin="round" stroke-miterlimit="10" d="M60.002,49.163
		v-0.542c0-11.877-11.482-21.541-25.596-21.541c-14.112,0-25.595,9.664-25.595,21.541v0.542H5.834
		c0,9.922-9.05,26.152,28.573,26.152c37.624,0,28.574-16.23,28.574-26.152H60.002z"/>
	<path fill="none" stroke="#F3470D" stroke-linecap="round" stroke-linejoin="round" stroke-miterlimit="10" d="M30.109,10.22
		c-0.532-1.981-0.305-4.045,0.632-5.853c-0.011-0.02-0.02-0.042-0.032-0.061c-2.101-3.64-6.755-4.887-10.393-2.785
		c-3.64,2.101-4.886,6.756-2.787,10.395c1.624,2.813,4.77,4.194,7.796,3.71l0.877,1.515c0.971-0.11,1.956-0.192,2.945-0.234"/>
	<path fill="none" stroke="#F3470D" stroke-linecap="round" stroke-linejoin="round" stroke-miterlimit="10" d="M40.131,16.98
		c3.026,0.484,6.172-0.897,7.797-3.71c2.101-3.639,0.854-8.293-2.787-10.395C41.503,0.775,36.85,2.021,34.748,5.66
		c-1.622,2.812-1.245,6.228,0.687,8.607l-2.61,4.521c-8.352,0.311-16.17,3.059-22.162,7.821C4.108,31.82,0.5,38.801,0.5,46.267
		h5.423c0-12.177,12.777-22.084,28.483-22.084c15.707,0,28.484,9.907,28.484,22.084h5.423c0-7.466-3.608-14.447-10.162-19.656
		c-5.275-4.192-11.967-6.824-19.19-7.604"/>
</g>
</svg>
