<?xml version="1.0" encoding="utf-8"?>
<!-- Generator: Adobe Illustrator 18.1.1, SVG Export Plug-In . SVG Version: 6.00 Build 0)  -->
<svg version="1.1" id="Слой_1" xmlns="http://www.w3.org/2000/svg" xmlns:xlink="http://www.w3.org/1999/xlink" x="0px" y="0px"
	 viewBox="0 0 67.484 74.209" enable-background="new 0 0 67.484 74.209" xml:space="preserve">
<g>
	<g>
		<path fill="#1E0F00" d="M33.741,68.245c-11.556,0-18.847-1.903-22.288-5.819c-3.21-3.652-2.613-8.268-2.086-12.339
			c0.182-1.404,0.354-2.731,0.354-3.913c0-0.553,0.448-1,1-1h1.41c0.352-9.862,9.911-17.792,21.611-17.792
			c11.701,0,21.261,7.93,21.613,17.792h1.409c0.553,0,1,0.447,1,1c0,1.182,0.172,2.509,0.354,3.913
			c0.526,4.071,1.124,8.687-2.087,12.339C52.589,66.342,45.298,68.245,33.741,68.245z M11.689,47.174
			c-0.06,1.012-0.196,2.067-0.339,3.17c-0.495,3.829-1.008,7.789,1.605,10.762c3.04,3.459,9.838,5.14,20.786,5.14
			s17.747-1.682,20.787-5.14c2.613-2.973,2.101-6.933,1.605-10.763c-0.143-1.102-0.279-2.157-0.339-3.169h-1.431
			c-0.553,0-1-0.447-1-1v-0.437c0-9.019-8.803-16.355-19.623-16.355c-10.819,0-19.622,7.337-19.622,16.355v0.437
			c0,0.553-0.448,1-1,1H11.689z"/>
	</g>
	<g>
		<path fill="#1E0F00" d="M27.132,21.373c-0.354,0-0.685-0.188-0.865-0.499l-0.381-0.658c-2.652,0.161-5.256-1.212-6.607-3.552
			c-0.952-1.649-1.205-3.571-0.711-5.411c0.493-1.84,1.673-3.378,3.323-4.33c1.649-0.953,3.57-1.205,5.41-0.712
			c1.839,0.493,3.377,1.673,4.33,3.323c0.17,0.295,0.205,0.707,0.047,1.01c-0.639,1.233-0.792,2.652-0.432,3.996
			c0.143,0.533-0.173,1.082-0.707,1.225c-0.532,0.145-1.082-0.173-1.225-0.707c-0.44-1.638-0.318-3.358,0.338-4.905
			c-0.695-0.993-1.697-1.695-2.87-2.01c-1.323-0.354-2.705-0.172-3.892,0.513s-2.036,1.792-2.391,3.116
			c-0.354,1.324-0.173,2.707,0.512,3.894c1.057,1.83,3.169,2.833,5.256,2.501c0.403-0.069,0.815,0.127,1.023,0.486l0.382,0.659
			c0.614-0.059,1.214-0.101,1.791-0.125c0.524-0.024,1.018,0.405,1.041,0.957c0.023,0.552-0.405,1.018-0.957,1.041
			c-0.733,0.031-1.507,0.093-2.302,0.184C27.208,21.371,27.17,21.373,27.132,21.373z"/>
	</g>
	<g>
		<path fill="#1E0F00" d="M61.061,44.841h-4.37c-0.553,0-1-0.447-1-1c0-9.26-9.847-16.793-21.949-16.793
			s-21.949,7.534-21.949,16.793c0,0.553-0.448,1-1,1H6.423c-0.552,0-1-0.447-1-1c0-6.328,3.042-12.23,8.565-16.62
			c4.831-3.84,11.164-6.136,17.886-6.493l1.504-2.605c-1.467-2.229-1.577-5.159-0.228-7.498c0.953-1.649,2.49-2.83,4.33-3.322
			c1.84-0.493,3.761-0.24,5.41,0.712c1.649,0.953,2.83,2.491,3.323,4.331s0.24,3.762-0.712,5.411
			c-1.138,1.97-3.155,3.252-5.354,3.515c5.024,0.938,9.598,2.971,13.347,5.951c5.523,4.39,8.565,10.292,8.565,16.62
			C62.061,44.393,61.613,44.841,61.061,44.841z M57.657,42.841h2.375c-0.305-5.328-3.041-10.287-7.781-14.055
			c-4.098-3.256-9.266-5.302-14.947-5.915c-0.549-0.059-0.946-0.552-0.887-1.102c0.06-0.549,0.542-0.949,1.102-0.887
			c0.024,0.002,0.049,0.005,0.074,0.008c-0.183-0.215-0.273-0.505-0.226-0.806c0.087-0.545,0.597-0.918,1.146-0.829
			c2.087,0.334,4.2-0.671,5.257-2.501c0.686-1.187,0.867-2.569,0.513-3.893c-0.355-1.324-1.204-2.431-2.392-3.116
			c-1.187-0.686-2.568-0.866-3.893-0.513c-1.323,0.355-2.43,1.204-3.115,2.391c-1.056,1.83-0.87,4.163,0.463,5.804
			c0.261,0.322,0.297,0.771,0.09,1.13l-2.103,3.643c-0.172,0.298-0.485,0.486-0.829,0.5c-6.504,0.242-12.638,2.403-17.271,6.085
			c-4.74,3.768-7.476,8.727-7.781,14.055h2.375c0.664-9.9,11.137-17.793,23.915-17.793S56.993,32.941,57.657,42.841z"/>
	</g>
</g>
</svg>
