<?xml version="1.0" encoding="utf-8"?>
<!-- Generator: Adobe Illustrator 18.1.1, SVG Export Plug-In . SVG Version: 6.00 Build 0)  -->
<svg version="1.1" id="Слой_1" xmlns="http://www.w3.org/2000/svg" xmlns:xlink="http://www.w3.org/1999/xlink" x="0px" y="0px"
	 viewBox="0 0 57.444 59.123" enable-background="new 0 0 57.444 59.123" xml:space="preserve">
<g>
	<g>
		<path fill="none" stroke="#53A711" stroke-linecap="round" stroke-linejoin="round" stroke-miterlimit="10" d="M43.671,54.979
			c0-5.758-1.471-12.281-7.099-12.281c-5.629,0-7.931-2.75-7.931-2.75s2.623,8.186-6.224,18.675
			c-8.526-10.617-6.311-18.292-6.311-18.292s-5.245,2.431-9.849,3.07C1.651,44.041,0.5,49.094,0.5,54.66 M14.496,58.194l-2.455-5.99
			c-0.062-0.152-0.015-0.326,0.115-0.426l1.974-1.509l-3.31-1.502c-0.13-0.059-0.213-0.188-0.213-0.33V44.39"/>
		<path fill="none" stroke="#53A711" stroke-linecap="round" stroke-linejoin="round" stroke-miterlimit="10" d="M33.565,44.39
			v4.046c0,0.143-0.083,0.272-0.213,0.33l-3.31,1.502l1.974,1.509c0.13,0.1,0.178,0.274,0.115,0.426l-2.456,5.99"/>
		<path fill="none" stroke="#53A711" stroke-linecap="round" stroke-linejoin="round" stroke-miterlimit="10" d="M26.071,14.19
			c-1.047-0.783-4.631-2.339-8.299-0.935c0,0-0.234,0.061-0.646,0.247c-0.428,0.193-0.721,0.421-0.721,0.421
			c-1.114,0.671-2.207,1.658-3.209,3.073c-4.698,6.633,1.231,14.257-2.702,21.215c4.357,1.301,6.822-0.004,7.544-0.494
			c0.177,0.169,0.35,0.339,0.507,0.511c1.595,1.741,1.744,2.588,3.444,2.588c0.786,0,3.31-0.128,4.486-2.645
			c0.152-0.326,0.369-0.633,0.612-0.942c0.982,1.437,4.221,1.468,6.883-1.074c-4.174-2.067-2.836-4.656-0.899-10.344
			c1.69-4.963-0.82-10.913-5.048-11.649 M17.239,35.676c-1.445-2.978-3.495-8.886,0.348-13.012c0.297-0.319,0.636-0.656,1.035-1.01
			c4.852,1.998,5.679-0.505,7.022-1.447c4.512,4.034,4.003,10.038,2.872,13.79"/>
	</g>
	<g>
		<path fill="none" stroke="#53A711" stroke-linecap="round" stroke-linejoin="round" stroke-miterlimit="10" d="M17.479,43.931
			c0.019,0.016,2.002,1.481,4.582,1.481c2.594,0,4.9-1.478,4.923-1.493"/>
	</g>
</g>
<path fill="none" stroke="#F3470D" stroke-linecap="round" stroke-linejoin="round" stroke-miterlimit="10" d="M44.629,0.5
	c-6.802,0-12.317,3.495-12.317,7.808c0,2.872,2.453,5.375,6.097,6.732c0.02,1.553-0.308,3.234-1.544,4.297
	c2.351-1.259,4.114-2.383,5.441-3.364c0.753,0.091,1.527,0.143,2.323,0.143c6.802,0,12.317-3.496,12.317-7.808
	C56.946,3.996,51.431,0.5,44.629,0.5z M45.222,13.704c-0.206,0.221-0.49,0.333-0.85,0.333c-0.406,0-0.696-0.111-0.872-0.333
	c-0.177-0.222-0.265-0.49-0.265-0.805c0-0.15,0.03-0.294,0.09-0.428c0.06-0.135,0.14-0.252,0.242-0.355
	c0.101-0.101,0.221-0.18,0.36-0.237c0.139-0.055,0.287-0.084,0.445-0.084c0.361,0,0.644,0.105,0.85,0.315
	c0.206,0.21,0.31,0.473,0.31,0.789C45.532,13.214,45.429,13.482,45.222,13.704z M45.001,10.047
	c-0.316-0.067-0.603-0.179-0.862-0.337c-0.259-0.158-0.481-0.34-0.669-0.546c-0.186-0.206-0.33-0.419-0.431-0.64
	c-0.1-0.22-0.151-0.431-0.151-0.632c0-0.316,0.106-0.584,0.316-0.805c0.211-0.22,0.444-0.431,0.698-0.632
	c0.253-0.201,0.486-0.406,0.697-0.618c0.21-0.211,0.316-0.465,0.316-0.762 M45.038,9.049 M42.645,5.246
	c-0.125-0.028-0.252-0.081-0.381-0.157c-0.13-0.077-0.245-0.17-0.345-0.281c-0.101-0.11-0.185-0.237-0.251-0.381
	c-0.067-0.144-0.101-0.301-0.101-0.474c0-0.201,0.098-0.374,0.295-0.517c0.196-0.144,0.438-0.261,0.726-0.352
	c0.287-0.091,0.599-0.156,0.934-0.194c0.335-0.038,0.642-0.057,0.92-0.057c0.584,0,1.082,0.052,1.495,0.158
	c0.412,0.106,0.747,0.247,1.006,0.424c0.259,0.178,0.448,0.391,0.568,0.64c0.12,0.248,0.18,0.517,0.18,0.804
	c0,0.307-0.067,0.578-0.201,0.813c-0.134,0.235-0.304,0.45-0.51,0.647c-0.206,0.196-0.427,0.381-0.661,0.553
	c-0.235,0.172-0.455,0.347-0.661,0.525c-0.206,0.177-0.376,0.369-0.51,0.575"/>
</svg>
