<?xml version="1.0" encoding="utf-8"?>
<!-- Generator: Adobe Illustrator 18.1.1, SVG Export Plug-In . SVG Version: 6.00 Build 0)  -->
<svg version="1.1" id="Слой_1" xmlns="http://www.w3.org/2000/svg" xmlns:xlink="http://www.w3.org/1999/xlink" x="0px" y="0px"
	 viewBox="0 0 30 30.119" enable-background="new 0 0 30 30.119" xml:space="preserve">
<g>
	<path fill="#1E0F00" d="M12.023,0v15c0,4.048-1.092,7.381-3.274,10c-2.184,2.619-5.1,4.327-8.75,5.119V23.69
		c2.221-0.792,3.67-1.884,4.345-3.274C5.018,19.029,5.357,17.223,5.357,15v-1.548H0V0H12.023z M30,0v15
		c0,4.048-1.092,7.381-3.274,10c-2.184,2.619-5.1,4.327-8.75,5.119V23.69c2.221-0.792,3.65-1.884,4.286-3.274
		c0.634-1.388,0.952-3.194,0.952-5.417v-1.548h-5.238V0H30z"/>
</g>
</svg>
