<?xml version="1.0" encoding="utf-8"?>
<!-- Generator: Adobe Illustrator 18.1.1, SVG Export Plug-In . SVG Version: 6.00 Build 0)  -->
<svg version="1.1" id="Слой_1" xmlns="http://www.w3.org/2000/svg" xmlns:xlink="http://www.w3.org/1999/xlink" x="0px" y="0px"
	 viewBox="0 0 76.022 59.251" enable-background="new 0 0 76.022 59.251" xml:space="preserve">
<g>
	<polyline fill="none" stroke="#53A711" stroke-linecap="round" stroke-linejoin="round" stroke-miterlimit="10" points="
		943.309,-266.145 945.16,-264.787 945.16,-233.819 898.709,-233.819 898.709,-264.787 900.757,-266.289 	"/>
	<polyline fill="none" stroke="#53A711" stroke-linecap="round" stroke-linejoin="round" stroke-miterlimit="10" points="
		920.033,-280.424 921.935,-281.819 923.825,-280.432 	"/>
	<polyline fill="none" stroke="#53A711" stroke-linecap="round" stroke-linejoin="round" stroke-miterlimit="10" points="
		913.693,-249.303 898.709,-233.819 945.16,-233.819 930.176,-249.303 	"/>
	<polyline fill="none" stroke="#53A711" stroke-linecap="round" stroke-linejoin="round" stroke-miterlimit="10" points="
		945.16,-264.787 921.935,-247.755 898.709,-264.787 	"/>
	<g>
		<g>
			<path fill="none" stroke="#53A711" stroke-linecap="round" stroke-linejoin="round" stroke-miterlimit="10" d="M902.58-265.282
				v-10.257c0-1.703,1.394-3.097,3.097-3.097h24.688"/>
		</g>
		<g>
			
				<line fill="none" stroke="#53A711" stroke-linecap="round" stroke-linejoin="round" stroke-miterlimit="10" x1="941.289" y1="-268.765" x2="941.289" y2="-265.315"/>
		</g>
		<path fill="none" stroke="#53A711" stroke-linecap="round" stroke-linejoin="round" stroke-miterlimit="10" d="M933.526-276.444"
			/>
		<polyline fill="none" stroke="#53A711" stroke-linecap="round" stroke-linejoin="round" stroke-miterlimit="10" points="
			928.494,-278.636 933.655,-278.636 941.289,-271.001 		"/>
		<g>
			<path fill="none" stroke="#53A711" stroke-linecap="round" stroke-linejoin="round" stroke-miterlimit="10" d="M941.289-271.001
				h-4.666c-1.703,0-3.097-1.05-3.097-2.334s0-2.334,0-2.334"/>
		</g>
		
			<line fill="none" stroke="#53A711" stroke-linecap="round" stroke-linejoin="round" stroke-miterlimit="10" x1="908.816" y1="-271.001" x2="923.428" y2="-271.001"/>
		
			<line fill="none" stroke="#53A711" stroke-linecap="round" stroke-linejoin="round" stroke-miterlimit="10" x1="908.816" y1="-267.927" x2="921.251" y2="-267.927"/>
		
			<line fill="none" stroke="#53A711" stroke-linecap="round" stroke-linejoin="round" stroke-miterlimit="10" x1="908.816" y1="-260.819" x2="917.864" y2="-260.819"/>
		
			<line fill="none" stroke="#53A711" stroke-linecap="round" stroke-linejoin="round" stroke-miterlimit="10" x1="920.428" y1="-260.819" x2="926.38" y2="-260.819"/>
		
			<line fill="none" stroke="#53A711" stroke-linecap="round" stroke-linejoin="round" stroke-miterlimit="10" x1="912.724" y1="-257.745" x2="921.251" y2="-257.745"/>
		
			<line fill="none" stroke="#53A711" stroke-linecap="round" stroke-linejoin="round" stroke-miterlimit="10" x1="923.825" y1="-257.745" x2="931.099" y2="-257.745"/>
		
			<line fill="none" stroke="#53A711" stroke-linecap="round" stroke-linejoin="round" stroke-miterlimit="10" x1="916.824" y1="-254.766" x2="927.01" y2="-254.766"/>
	</g>
</g>
<polyline fill="none" stroke="#53A711" stroke-width="0.9714" stroke-miterlimit="10" points="1066.407,-266.03 1084.691,-237.746 
	1066.407,-209.462 "/>
<g>
	<path fill="none" stroke="#53A711" stroke-linecap="round" stroke-linejoin="round" stroke-miterlimit="10" d="M299.353,9.3
		h-22.108c-1.39,0-2.64,0.614-3.502,1.581c-21.847,0.545-47.767,22.257-47.767,49.138V60.6h6.271v-0.581
		c0-10.887,5.011-21.62,14.109-30.224c7.773-7.35,17.413-11.951,26.185-12.578v0.55c0,2.586,2.116,4.704,4.703,4.704h1.334
		c0,5.358,4.359,9.721,9.72,9.721c5.36,0,9.721-4.362,9.721-9.721h1.333c2.587,0,4.703-2.118,4.703-4.704v-3.763
		C304.056,11.416,301.94,9.3,299.353,9.3z M294.884,22.48v0.512h-0.026c-0.268,3.387-3.104,6.064-6.559,6.064
		c-3.631,0-6.585-2.955-6.585-6.586h0.092v0.119h13.078V22.47l0,0C294.884,22.47,294.884,22.474,294.884,22.48z"/>
	
		<line fill="none" stroke="#F3470D" stroke-linecap="round" stroke-linejoin="round" stroke-miterlimit="10" x1="288.793" y1="36.878" x2="288.793" y2="58.878"/>
	
		<line fill="none" stroke="#F3470D" stroke-linecap="round" stroke-linejoin="round" stroke-miterlimit="10" x1="297.665" y1="58.878" x2="293.165" y2="36.878"/>
	
		<line fill="none" stroke="#F3470D" stroke-linecap="round" stroke-linejoin="round" stroke-miterlimit="10" x1="305.498" y1="58.878" x2="297.869" y2="36.878"/>
	
		<line fill="none" stroke="#F3470D" stroke-linecap="round" stroke-linejoin="round" stroke-miterlimit="10" x1="279.921" y1="58.878" x2="284.421" y2="36.878"/>
	
		<line fill="none" stroke="#F3470D" stroke-linecap="round" stroke-linejoin="round" stroke-miterlimit="10" x1="272.088" y1="58.878" x2="279.717" y2="36.878"/>
</g>
<g>
	<path fill="none" d="M697.128,28.856v5.491c0.09-0.132,0.242-0.219,0.414-0.219c0.541-0.689,1.015-1.826,1.372-3.361
		c0.062-0.269,0.332-0.438,0.6-0.374c0.269,0.063,0.436,0.331,0.374,0.601c-0.391,1.686-0.933,2.959-1.608,3.786
		c-0.287,0.353-0.91,0.482-1.15,0.13v23.853c0,1.366,1.112,2.478,2.48,2.478s2.48-1.111,2.48-2.478V37.621
		c0-0.276,0.224-0.5,0.5-0.5h2.336c0.276,0,0.5,0.224,0.5,0.5v21.141c0,1.366,1.113,2.478,2.482,2.478
		c1.366,0,2.477-1.111,2.477-2.478V34.945c-0.272,0.317-0.86,0.178-1.141-0.166c-0.676-0.827-1.217-2.101-1.609-3.785
		c-0.063-0.269,0.104-0.538,0.374-0.601c0.268-0.063,0.537,0.105,0.6,0.374c0.357,1.534,0.832,2.672,1.411,3.38
		c0.15,0,0.279,0.063,0.365,0.165v-6.463c-0.026-0.026-0.05-0.053-0.073-0.082c-1.82-2.231-2.241-7.02-2.335-9.428h-8.573
		c-0.093,2.381-0.505,7.088-2.273,9.351V28.856z"/>
	<path fill="none" d="M703.557,4.008c3.148,0,5.71-2.561,5.71-5.708s-2.562-5.709-5.71-5.709s-5.709,2.562-5.709,5.709
		S700.409,4.008,703.557,4.008z"/>
	<path fill="none" d="M698.88,17.347V7.979h-2.252c-2.59,0-4.372,3.293-5.777,10.677c-0.965,5.061-1.457,10.636-1.504,13.673
		c0,0.034-0.005,0.068-0.012,0.103c-0.032,0.141-0.047,0.27-0.047,0.394c0,0.998,0.812,1.81,1.81,1.81
		c0.998,0,1.809-0.812,1.809-1.81c0-0.129-0.014-0.253-0.039-0.374c-0.007-0.034-0.011-0.069-0.01-0.104
		c0.075-7.005,1.808-15.526,3.316-18.794c0.099-0.213,0.331-0.326,0.562-0.278c0.229,0.051,0.393,0.254,0.393,0.488v11.881
		c1.063-2.591,1.256-6.489,1.29-7.817C698.424,17.568,698.627,17.366,698.88,17.347z"/>
	<path fill="none" d="M725.668,61.231c0.528-0.113,4.345-1.313,4.458-12.168h-8.953C721.291,59.616,725.134,61.079,725.668,61.231z"
		/>
	<path fill="#F3470D" d="M703.557,5.008c3.7,0,6.71-3.009,6.71-6.708s-3.01-6.709-6.71-6.709s-6.709,3.01-6.709,6.709
		S699.857,5.008,703.557,5.008z M703.557-7.409c3.148,0,5.71,2.562,5.71,5.709s-2.562,5.708-5.71,5.708s-5.709-2.561-5.709-5.708
		S700.409-7.409,703.557-7.409z"/>
	<path fill="#F3470D" d="M717.646,18.468c-1.534-8.053-3.556-11.489-6.763-11.489h-1.116h-1.771h-8.616h-2.752
		c-3.206,0-5.227,3.437-6.759,11.489c-0.971,5.092-1.468,10.705-1.521,13.795c-0.04,0.192-0.061,0.382-0.061,0.562
		c0,1.549,1.261,2.81,2.81,2.81c1.549,0,2.809-1.261,2.809-2.81c0-0.178-0.017-0.351-0.048-0.519
		c0.063-5.395,1.114-11.671,2.27-15.651V27.5c0-0.136,0.055-0.265,0.152-0.359c0.332-0.405,0.611-0.92,0.848-1.498V13.762
		c0-0.234-0.164-0.438-0.393-0.488c-0.23-0.048-0.463,0.065-0.562,0.278c-1.509,3.268-3.242,11.789-3.316,18.794
		c0,0.035,0.003,0.07,0.01,0.104c0.024,0.121,0.039,0.245,0.039,0.374c0,0.998-0.812,1.81-1.809,1.81c-0.998,0-1.81-0.812-1.81-1.81
		c0-0.124,0.016-0.253,0.047-0.394c0.007-0.034,0.012-0.068,0.012-0.103c0.048-3.037,0.539-8.612,1.504-13.673
		c1.405-7.384,3.187-10.677,5.777-10.677h2.252h1h7.616h0.5h0.5h1.271h1.116c2.592,0,4.375,3.293,5.781,10.677
		c0.964,5.064,1.455,10.639,1.502,13.674c0,0.035,0.005,0.069,0.013,0.104c0.03,0.134,0.046,0.266,0.046,0.392
		c0,0.998-0.812,1.81-1.809,1.81c-0.998,0-1.81-0.812-1.81-1.81c0-0.124,0.013-0.248,0.04-0.369
		c0.008-0.036,0.012-0.073,0.011-0.111c-0.077-7.014-1.811-15.533-3.32-18.792c-0.098-0.213-0.333-0.328-0.561-0.278
		c-0.229,0.051-0.393,0.254-0.393,0.488v8.206c0,0.276,0.224,0.5,0.5,0.5s0.5-0.224,0.5-0.5v-5.317
		c1.157,3.975,2.208,10.25,2.273,15.651c-0.033,0.172-0.05,0.348-0.05,0.522c0,1.549,1.261,2.81,2.81,2.81
		c1.549,0,2.809-1.261,2.809-2.81c0-0.184-0.02-0.372-0.06-0.562C719.113,29.175,718.616,23.564,717.646,18.468z"/>
	<path fill="#53A711" d="M698.88,17.347c-0.253,0.02-0.456,0.222-0.463,0.48c-0.034,1.328-0.227,5.225-1.29,7.817
		c-0.237,0.578-0.516,1.093-0.848,1.498c-0.097,0.095-0.152,0.224-0.152,0.359v1.355v29.906c0,1.918,1.561,3.478,3.48,3.478
		s3.48-1.56,3.48-3.478V38.121h1.336v20.641c0,1.918,1.562,3.478,3.482,3.478c1.917,0,3.477-1.56,3.477-3.478V27.605
		c0-0.179-0.096-0.344-0.25-0.434c-0.033-0.019-0.043-0.03-0.046-0.033c0-0.001,0-0.001-0.001-0.002
		c-1.808-2.215-2.085-7.686-2.127-9.31c-0.007-0.271-0.229-0.487-0.5-0.487h-8.578v-9.36h-1V17.347z M707.975,18.339
		c0.094,2.408,0.515,7.196,2.335,9.428c0.023,0.029,0.047,0.056,0.073,0.082v6.463c-0.086-0.102-0.215-0.165-0.365-0.165
		c-0.579-0.708-1.054-1.846-1.411-3.38c-0.063-0.269-0.333-0.437-0.6-0.374c-0.269,0.063-0.436,0.332-0.374,0.601
		c0.392,1.685,0.933,2.958,1.609,3.785c0.28,0.344,0.868,0.483,1.141,0.166v23.817c0,1.366-1.111,2.478-2.477,2.478
		c-1.369,0-2.482-1.111-2.482-2.478V37.621c0-0.276-0.224-0.5-0.5-0.5h-2.336c-0.276,0-0.5,0.224-0.5,0.5v21.141
		c0,1.366-1.112,2.478-2.48,2.478s-2.48-1.111-2.48-2.478V34.91c0.241,0.353,0.864,0.223,1.15-0.13
		c0.676-0.827,1.217-2.101,1.608-3.786c0.063-0.27-0.104-0.538-0.374-0.601c-0.268-0.063-0.538,0.105-0.6,0.374
		c-0.357,1.535-0.831,2.672-1.372,3.361c-0.172,0-0.324,0.087-0.414,0.219v-5.491V27.69c1.768-2.263,2.18-6.97,2.273-9.351H707.975z
		"/>
	<path fill="#53A711" d="M707.496,7.979v7.044c0,0.276,0.224,0.5,0.5,0.5s0.5-0.224,0.5-0.5V7.979h-0.5H707.496z"/>
	<rect x="725.15" y="23.408" fill="#F3470D" width="1" height="24.655"/>
	<path fill="#53A711" d="M728.326,23.408c0.276,0,0.5-0.224,0.5-0.5s-0.224-0.5-0.5-0.5h-5.352c-0.276,0-0.5,0.224-0.5,0.5
		s0.224,0.5,0.5,0.5h2.176h1H728.326z"/>
	<path fill="#53A711" d="M730.629,48.063h-4.479h-1h-4.479c-0.276,0-0.5,0.224-0.5,0.5c0,12.734,5.187,13.64,5.407,13.672
		c0.024,0.003,0.048,0.005,0.072,0.005c0.012,0,0.023,0,0.035-0.001c0.222-0.016,5.444-0.532,5.444-13.676
		C731.129,48.287,730.905,48.063,730.629,48.063z M725.668,61.231c-0.534-0.151-4.377-1.615-4.495-12.168h8.953
		C730.013,59.917,726.196,61.118,725.668,61.231z"/>
</g>
<g>
	<g>
		<g>
			<path fill="none" stroke="#F3470D" stroke-linecap="round" stroke-linejoin="round" stroke-miterlimit="10" d="M1091.864-590.242
				c0,0.916,0.749,1.665,1.665,1.665h3.33c0.916,0,1.665-0.749,1.665-1.665v-3.331c0-0.916-0.749-1.665-1.665-1.665h-3.33
				c-0.916,0-1.665,0.749-1.665,1.665V-590.242z"/>
		</g>
		<g>
			<path fill="none" stroke="#F3470D" stroke-linecap="round" stroke-linejoin="round" stroke-miterlimit="10" d="M1118.508-590.242
				c0,0.916,0.749,1.665,1.665,1.665h3.331c0.916,0,1.665-0.749,1.665-1.665v-3.331c0-0.916-0.749-1.665-1.665-1.665h-3.331
				c-0.916,0-1.665,0.749-1.665,1.665V-590.242z"/>
		</g>
		<g>
			<path fill="none" stroke="#F3470D" stroke-linecap="round" stroke-linejoin="round" stroke-miterlimit="10" d="M1091.864-563.598
				c0,0.916,0.749,1.665,1.665,1.665h3.33c0.916,0,1.665-0.749,1.665-1.665v-3.331c0-0.916-0.749-1.665-1.665-1.665h-3.33
				c-0.916,0-1.665,0.749-1.665,1.665V-563.598z"/>
		</g>
		
			<line fill="none" stroke="#F3470D" stroke-linecap="round" stroke-linejoin="round" stroke-miterlimit="10" x1="1098.525" y1="-591.907" x2="1118.508" y2="-591.907"/>
		
			<line fill="none" stroke="#F3470D" stroke-linecap="round" stroke-linejoin="round" stroke-miterlimit="10" x1="1098.525" y1="-565.263" x2="1105.089" y2="-565.263"/>
		
			<line fill="none" stroke="#F3470D" stroke-linecap="round" stroke-linejoin="round" stroke-miterlimit="10" x1="1121.839" y1="-588.577" x2="1121.839" y2="-583.916"/>
		
			<line fill="none" stroke="#F3470D" stroke-linecap="round" stroke-linejoin="round" stroke-miterlimit="10" x1="1095.194" y1="-588.577" x2="1095.194" y2="-568.593"/>
	</g>
	<g>
		<g>
			<path fill="none" stroke="#F3470D" stroke-linecap="round" stroke-linejoin="round" stroke-miterlimit="10" d="M1118.508-558.58
				c0,1.832,1.499,3.331,3.33,3.331h6.661c1.832,0,3.331-1.499,3.331-3.331v-6.661c0-1.832-1.499-3.331-3.331-3.331h-6.661
				c-1.832,0-3.33,1.499-3.33,3.331V-558.58z"/>
		</g>
		
			<line fill="none" stroke="#F3470D" stroke-linecap="round" stroke-linejoin="round" stroke-miterlimit="10" x1="1108.275" y1="-561.91" x2="1118.508" y2="-561.91"/>
		
			<line fill="none" stroke="#F3470D" stroke-linecap="round" stroke-linejoin="round" stroke-miterlimit="10" x1="1125.169" y1="-581.418" x2="1125.169" y2="-568.571"/>
	</g>
	<path fill="none" stroke="#F3470D" stroke-linecap="round" stroke-linejoin="round" stroke-miterlimit="10" d="M1147.583-578.99"/>
	
		<circle fill="none" stroke="#53A711" stroke-linecap="round" stroke-linejoin="round" stroke-miterlimit="10" cx="1124.223" cy="-564.766" r="16.653"/>
	<path fill="none" stroke="#53A711" stroke-linecap="round" stroke-linejoin="round" stroke-miterlimit="10" d="M1132.258-575.233
		c1.934,1.521,3.469,3.527,4.418,5.836"/>
	<g>
		<path fill="none" stroke="#53A711" stroke-linecap="round" stroke-linejoin="round" stroke-miterlimit="10" d="M1138.345-551.831
			c3.122-3.408,5.028-7.948,5.028-12.934c0-10.577-8.573-19.15-19.151-19.15c-10.577,0-19.15,8.573-19.15,19.15
			c0,10.577,8.573,19.15,19.15,19.15c4.083,0,7.867-1.277,10.975-3.453c0.065-0.046,0.193,0.18,0.193,0.18l14.792,14.792
			c1.296,1.296,3.415,1.295,4.71,0l0,0c1.296-1.295,1.296-3.414,0-4.71l-13.026-13.026"/>
		
			<line fill="none" stroke="#53A711" stroke-linecap="round" stroke-linejoin="round" stroke-miterlimit="10" x1="1144.673" y1="-542.844" x2="1147.762" y2="-545.935"/>
		
			<line fill="none" stroke="#53A711" stroke-linecap="round" stroke-linejoin="round" stroke-miterlimit="10" x1="1142.897" y1="-544.619" x2="1145.988" y2="-547.711"/>
	</g>
</g>
<g>
	
		<ellipse transform="matrix(-0.7071 -0.7071 0.7071 -0.7071 86.8998 71.5161)" fill="none" stroke="#53A711" stroke-linecap="round" stroke-linejoin="round" stroke-miterlimit="10" cx="58.261" cy="17.761" rx="14.569" ry="19.583"/>
	<path fill="none" stroke="#53A711" stroke-linecap="round" stroke-linejoin="round" stroke-miterlimit="10" d="M41.077,21.176
		c-1.931,7.521-2.67,14.04-8.457,19.827s-9.546,9.546-11.733,11.733c-0.831,0.831-4.826,1.65-3.238,3.238l2.408,2.408
		c1.588,1.588,2.407-2.407,3.238-3.238c2.186-2.186,5.946-5.946,11.733-11.733s12.306-6.526,19.827-8.457"/>
	<polyline fill="none" stroke="#53A711" stroke-linecap="round" stroke-linejoin="round" stroke-miterlimit="10" points="
		38.859,29.985 40.837,39.194 35.223,37.901 37.974,40.652 	"/>
	<g>
		
			<ellipse transform="matrix(-0.7071 0.7071 -0.7071 -0.7071 42.8811 17.7691)" fill="none" stroke="#F3470D" stroke-linecap="round" stroke-linejoin="round" stroke-miterlimit="10" cx="17.76" cy="17.766" rx="14.569" ry="19.583"/>
		<path fill="none" stroke="#F3470D" stroke-linecap="round" stroke-linejoin="round" stroke-miterlimit="10" d="M36.799,28.663
			c-0.645-2.384-1.173-4.877-1.844-7.492"/>
		<path fill="none" stroke="#F3470D" stroke-linecap="round" stroke-linejoin="round" stroke-miterlimit="10" d="M41.003,43.406
			c5.787,5.787,9.546,9.546,11.733,11.733c0.831,0.831,1.65,4.826,3.238,3.238l2.408-2.408c1.588-1.588-2.407-2.407-3.238-3.238
			c-2.186-2.186-5.946-5.946-11.733-11.733"/>
		<path fill="none" stroke="#F3470D" stroke-linecap="round" stroke-linejoin="round" stroke-miterlimit="10" d="M21.176,34.95
			c3.859,0.991,7.454,1.668,10.821,2.873"/>
		<g>
			
				<line fill="none" stroke="#F3470D" stroke-linecap="round" stroke-linejoin="round" stroke-miterlimit="10" x1="18.01" y1="1.547" x2="34.229" y2="17.766"/>
			
				<line fill="none" stroke="#F3470D" stroke-linecap="round" stroke-linejoin="round" stroke-miterlimit="10" x1="7.155" y1="1.671" x2="33.656" y2="28.171"/>
			
				<line fill="none" stroke="#F3470D" stroke-linecap="round" stroke-linejoin="round" stroke-miterlimit="10" x1="2.18" y1="7.674" x2="28.166" y2="33.661"/>
			
				<line fill="none" stroke="#F3470D" stroke-linecap="round" stroke-linejoin="round" stroke-miterlimit="10" x1="1.542" y1="18.015" x2="17.76" y2="34.234"/>
		</g>
		<g>
			
				<line fill="none" stroke="#F3470D" stroke-linecap="round" stroke-linejoin="round" stroke-miterlimit="10" x1="2.849" y1="21.149" x2="21.365" y2="2.633"/>
			
				<line fill="none" stroke="#F3470D" stroke-linecap="round" stroke-linejoin="round" stroke-miterlimit="10" x1="0.552" y1="11.918" x2="11.866" y2="0.604"/>
			
				<line fill="none" stroke="#F3470D" stroke-linecap="round" stroke-linejoin="round" stroke-miterlimit="10" x1="7.543" y1="27.983" x2="27.955" y2="7.571"/>
			
				<line fill="none" stroke="#F3470D" stroke-linecap="round" stroke-linejoin="round" stroke-miterlimit="10" x1="14.377" y1="32.677" x2="32.718" y2="14.336"/>
			
				<line fill="none" stroke="#F3470D" stroke-linecap="round" stroke-linejoin="round" stroke-miterlimit="10" x1="23.608" y1="34.974" x2="35.04" y2="23.542"/>
		</g>
	</g>
	<g>
		
			<line fill="none" stroke="#53A711" stroke-linecap="round" stroke-linejoin="round" stroke-miterlimit="10" x1="74.38" y1="18.11" x2="58.162" y2="34.329"/>
		
			<line fill="none" stroke="#53A711" stroke-linecap="round" stroke-linejoin="round" stroke-miterlimit="10" x1="74.256" y1="7.255" x2="47.756" y2="33.755"/>
		
			<line fill="none" stroke="#53A711" stroke-linecap="round" stroke-linejoin="round" stroke-miterlimit="10" x1="68.253" y1="2.28" x2="42.267" y2="28.266"/>
		
			<line fill="none" stroke="#53A711" stroke-linecap="round" stroke-linejoin="round" stroke-miterlimit="10" x1="57.912" y1="1.641" x2="41.693" y2="17.86"/>
	</g>
	<g>
		
			<line fill="none" stroke="#53A711" stroke-linecap="round" stroke-linejoin="round" stroke-miterlimit="10" x1="54.89" y1="2.861" x2="73.406" y2="21.377"/>
		
			<line fill="none" stroke="#53A711" stroke-linecap="round" stroke-linejoin="round" stroke-miterlimit="10" x1="64.121" y1="0.564" x2="75.435" y2="11.877"/>
		
			<line fill="none" stroke="#53A711" stroke-linecap="round" stroke-linejoin="round" stroke-miterlimit="10" x1="48.055" y1="7.555" x2="68.467" y2="27.966"/>
		
			<line fill="none" stroke="#53A711" stroke-linecap="round" stroke-linejoin="round" stroke-miterlimit="10" x1="43.362" y1="14.389" x2="61.702" y2="32.729"/>
		
			<line fill="none" stroke="#53A711" stroke-linecap="round" stroke-linejoin="round" stroke-miterlimit="10" x1="41.065" y1="23.62" x2="52.496" y2="35.051"/>
	</g>
</g>
<g>
	<path fill="#58595B" d="M1088.49-676.792c0,3.982-2.339,8.717-4.984,11.359c-2.58,2.577-6.796,5.342-10.815,5.342v-13.287h6.288
		c0-0.842,0.321-4.035,0.534-4.486h-6.822c0-5.075,0.451-4.488,6.822-4.488v-4.484c-4.032,0-6.025-0.456-8.903,1.68
		c-2.47,1.827-2.232,4.921-2.232,7.292h-3.41v4.486h3.41v13.287c-2.312,0-4.713-1.108-6.339-1.907
		c-3.486-1.734-6.136-4.919-7.841-8.328c-1.466-2.904-1.616-5.346-1.616-8.54v-0.082c0-2.256,0.942-5.122,1.733-6.699
		c1.354-2.689,3.346-5.241,5.845-6.906c1.437-0.959,1.032-0.741,2.591-1.528c3.147-1.593,5.39-1.731,8.785-1.741h0.083
		c5.784,0.009,11.46,3.951,14.474,8.867c0.279,0.464,0.415,0.824,0.665,1.309C1088.351-682.476,1088.49-680.218,1088.49-676.792"/>
	<path fill="#58595B" d="M1167.832-679.479c-0.885,0.88-1.329,1.953-1.329,3.218c0,1.264,0.444,2.341,1.329,3.222
		c0.88,0.885,1.963,1.331,3.222,1.331c1.266,0,2.337-0.446,3.218-1.331c0.884-0.881,1.324-1.957,1.324-3.222
		c0-1.264-0.44-2.338-1.324-3.218c-0.881-0.888-1.952-1.329-3.218-1.329C1169.795-680.808,1168.712-680.366,1167.832-679.479
		 M1177.347-684.06c0.143,0.145,0.32,0.225,0.532,0.225h1.513c0.205,0,0.382-0.079,0.535-0.225c0.151-0.158,0.221-0.329,0.221-0.532
		v-1.523c0-0.205-0.07-0.376-0.221-0.535c-0.154-0.144-0.33-0.228-0.535-0.228h-1.513c-0.212,0-0.389,0.084-0.532,0.228
		c-0.153,0.159-0.228,0.33-0.228,0.535v1.523C1177.119-684.389,1177.194-684.218,1177.347-684.06z M1181.655-682.322h-3.825
		c-0.855-0.958-1.865-1.691-3.032-2.231c-1.171-0.535-2.418-0.806-3.744-0.806c-2.299,0-4.325,0.776-6.059,2.332v-5.362h15.153
		c0.422,0,0.788,0.151,1.075,0.439c0.293,0.289,0.432,0.653,0.432,1.071V-682.322z M1164.488-680.056
		c0.683-1.162,1.607-2.083,2.764-2.773c1.156-0.672,2.425-1.006,3.802-1.006c1.369,0,2.639,0.334,3.803,1.006
		c1.156,0.69,2.08,1.611,2.758,2.773c0.675,1.155,1.013,2.425,1.013,3.795s-0.338,2.64-1.013,3.804
		c-0.678,1.156-1.602,2.08-2.758,2.753c-1.164,0.683-2.434,1.026-3.803,1.026c-1.377,0-2.646-0.343-3.802-1.026
		c-1.157-0.673-2.081-1.597-2.764-2.753c-0.678-1.164-1.019-2.435-1.019-3.804S1163.809-678.901,1164.488-680.056z
		 M1161.958-682.322h-1.511v-4.557c0-0.419,0.139-0.783,0.444-1.071c0.306-0.289,0.653-0.439,1.067-0.439V-682.322z
		 M1182.291-666.535c0.595-0.6,0.889-1.31,0.889-2.142v-18.202c0-0.833-0.294-1.546-0.889-2.146
		c-0.591-0.581-1.307-0.866-2.142-0.866h-18.19c-0.84,0-1.544,0.286-2.143,0.866c-0.602,0.6-0.887,1.313-0.887,2.146v18.202
		c0,0.832,0.285,1.542,0.887,2.142c0.599,0.589,1.303,0.886,2.143,0.886h18.19C1180.984-665.649,1181.699-665.946,1182.291-666.535z
		 M1189.007-677.784c0,9.929-8.042,17.961-17.953,17.961c-9.917,0-17.958-8.032-17.958-17.961c0-9.908,8.041-17.943,17.958-17.943
		C1180.965-695.727,1189.007-687.693,1189.007-677.784z"/>
	<path fill="#58595B" d="M1122.712-679.776c0.268-0.238,0.407-0.582,0.407-1.034c0-0.421-0.139-0.74-0.407-0.974
		c-0.268-0.239-0.745-0.361-1.42-0.361h-1.968v2.736h1.932C1121.955-679.408,1122.444-679.536,1122.712-679.776 M1123.225-674.175
		c0.315-0.28,0.465-0.647,0.465-1.1c0-0.42-0.151-0.757-0.465-1.025c-0.303-0.256-0.85-0.384-1.642-0.384h-2.258v2.91h2.27
		C1122.363-673.774,1122.91-673.908,1123.225-674.175z M1125.134-678.326c1.048,0.244,1.805,0.674,2.293,1.268
		c0.489,0.612,0.733,1.368,0.733,2.282c0,0.745-0.174,1.409-0.524,2.014c-0.337,0.595-0.815,1.06-1.431,1.404
		c-0.361,0.214-0.931,0.378-1.677,0.471c-1.013,0.128-1.676,0.199-2.003,0.199h-7.707v-14.356h8.347
		c1.397,0,2.469,0.337,3.213,1.014c0.745,0.687,1.118,1.549,1.118,2.548c0,0.85-0.268,1.584-0.803,2.189
		C1126.345-678.885,1125.821-678.57,1125.134-678.326z M1132.445-669.652v-16.434c0-1.891-1.537-3.427-3.447-3.427h-16.508
		c-1.897,0-3.445,1.536-3.445,3.427v16.434c0,1.885,1.548,3.428,3.445,3.428h16.508
		C1130.909-666.224,1132.445-667.767,1132.445-669.652z M1138.791-677.871c0,9.918-8.08,17.952-18.034,17.952
		c-9.966,0-18.046-8.034-18.046-17.952c0-9.908,8.08-17.952,18.046-17.952C1130.711-695.823,1138.791-687.779,1138.791-677.871z"/>
	<path fill="#58595B" d="M1239.662-677.784c0,9.929-8.042,17.961-17.953,17.961c-9.917,0-17.958-8.032-17.958-17.961
		c0-9.908,8.041-17.943,17.958-17.943C1231.62-695.727,1239.662-687.693,1239.662-677.784z M1221.776-686.554
		c1.468,0,2.663,1.194,2.663,2.663c0,1.467-1.195,2.662-2.663,2.662c-1.468,0-2.662-1.194-2.662-2.662
		C1219.113-685.36,1220.308-686.554,1221.776-686.554L1221.776-686.554z M1221.776-677.462c3.547,0,6.432-2.884,6.432-6.429
		c0-3.547-2.884-6.432-6.432-6.432c-3.547,0-6.432,2.885-6.432,6.432C1215.344-680.346,1218.229-677.462,1221.776-677.462
		 M1224.377-672.216c1.323-0.301,2.586-0.824,3.734-1.546c0.881-0.554,1.145-1.717,0.591-2.598
		c-0.553-0.881-1.715-1.147-2.596-0.594c-0.001,0-0.001,0.001-0.002,0.001c-2.635,1.656-6.026,1.655-8.659,0
		c-0.88-0.554-2.042-0.29-2.596,0.589l-0.002,0.003c-0.554,0.88-0.29,2.044,0.59,2.598c1.149,0.722,2.411,1.245,3.734,1.546
		l-3.595,3.596c-0.736,0.736-0.735,1.929,0,2.665s1.929,0.736,2.665,0l0,0l3.532-3.533l3.534,3.533
		c0.734,0.735,1.926,0.736,2.661,0.002l0.002-0.002c0.736-0.733,0.737-1.924,0.004-2.66c-0.001-0.001-0.003-0.003-0.004-0.004
		L1224.377-672.216"/>
	<path fill="#58595B" d="M1268.444-672.311v-6.534c0-1.437-0.437-2.144-1.353-2.144c-0.9,0-1.333,0.707-1.333,2.144v6.534
		c0,1.445,0.433,2.159,1.333,2.159C1268.007-670.152,1268.444-670.867,1268.444-672.311 M1293.93-685.52h3.335v-2.909h-9.703v2.909
		h3.277v17.71h3.091V-685.52z M1302.887-667.81h2.778v-15.357h-2.778v11.742c-0.616,0.87-1.199,1.294-1.758,1.294
		c-0.367,0-0.579-0.211-0.644-0.65c-0.034-0.086-0.034-0.426-0.034-1.086v-11.3h-2.784v12.142c0,1.089,0.097,1.82,0.249,2.28
		c0.281,0.779,0.895,1.15,1.79,1.15c1.031,0,2.078-0.622,3.181-1.888V-667.81z M1313.461-672.201c0,1.379-0.407,2.07-1.211,2.07
		c-0.459,0-0.918-0.211-1.382-0.691v-9.354c0.465-0.458,0.923-0.675,1.382-0.675c0.804,0,1.211,0.707,1.211,2.096V-672.201z
		 M1315.964-669.325c0.181-0.645,0.283-1.675,0.283-3.096v-6.114c0-1.454-0.102-2.472-0.283-3.09
		c-0.367-1.146-1.111-1.725-2.216-1.725c-1.03,0-1.985,0.554-2.88,1.661v-6.74h-2.783v20.619h2.783v-1.489
		c0.923,1.155,1.886,1.704,2.88,1.704C1314.853-667.595,1315.597-668.186,1315.964-669.325z M1321.183-677.303v-1.418
		c0-1.424,0.462-2.132,1.391-2.132c0.929,0,1.399,0.707,1.399,2.132v1.418H1321.183z M1326.688-670.932
		c0.034-0.275,0.068-0.895,0.068-1.798v-0.404h-2.846c0,1.117-0.031,1.733-0.058,1.893c-0.162,0.735-0.562,1.109-1.247,1.109
		c-0.959,0-1.421-0.707-1.421-2.127v-2.725h5.572v-3.177c0-1.642-0.287-2.846-0.864-3.619c-0.777-1.058-1.885-1.571-3.287-1.571
		c-1.421,0-2.529,0.513-3.333,1.571c-0.592,0.772-0.859,1.977-0.859,3.619v5.381c0,1.629,0.305,2.843,0.891,3.6
		c0.808,1.053,1.917,1.584,3.37,1.584c1.45,0,2.597-0.549,3.369-1.669C1326.384-669.755,1326.597-670.324,1326.688-670.932z
		 M1330.185-677.773c0,3.591-0.012,7.395-0.811,10.885c-0.562,2.455-2.564,4.259-4.984,4.526c-5.702,0.636-11.481,0.636-17.24,0.636
		c-5.753,0-11.534,0-17.243-0.636c-2.415-0.267-4.405-2.071-4.977-4.526c-0.796-3.49-0.796-7.294-0.796-10.885
		c0-3.593,0-7.401,0.804-10.892c0.569-2.441,2.568-4.24,4.976-4.522c5.713-0.636,11.494-0.638,17.245-0.636
		c5.759-0.002,11.531,0,17.245,0.636c2.412,0.282,4.416,2.081,4.982,4.522C1330.185-685.174,1330.185-681.366,1330.185-677.773z
		 M1281.654-667.816h-2.816v-1.692c-1.111,1.286-2.183,1.913-3.206,1.913c-0.907,0-1.527-0.371-1.817-1.157
		c-0.151-0.474-0.247-1.214-0.247-2.315v-12.272h2.8v11.431c0,0.652,0,0.999,0.037,1.086c0.06,0.444,0.282,0.67,0.658,0.67
		c0.564,0,1.148-0.438,1.775-1.313v-11.875h2.816V-667.816z M1271.252-672.839c0,1.651-0.286,2.873-0.874,3.653
		c-0.776,1.052-1.874,1.591-3.287,1.591c-1.39,0-2.499-0.539-3.263-1.591c-0.6-0.78-0.882-2.002-0.882-3.653v-5.432
		c0-1.665,0.282-2.875,0.882-3.659c0.764-1.06,1.873-1.588,3.263-1.588c1.413,0,2.511,0.528,3.287,1.588
		c0.588,0.784,0.874,1.993,0.874,3.659V-672.839z M1262.919-688.641l-3.752,12.396v8.429h-3.116v-8.429
		c-0.29-1.49-0.917-3.691-1.912-6.592c-0.657-1.935-1.343-3.872-2-5.804h3.285l2.209,8.182l2.128-8.182H1262.919z"/>
</g>
<g>
	<g>
		<path fill="none" stroke="#53A711" stroke-miterlimit="10" d="M1077.265-861.966c0,1.1,0.9,2,2,2h4c1.1,0,2-0.9,2-2v-4
			c0-1.1-0.9-2-2-2h-4c-1.1,0-2,0.9-2,2V-861.966z"/>
	</g>
	<g>
		<path fill="none" stroke="#53A711" stroke-miterlimit="10" d="M1109.265-861.966c0,1.1,0.9,2,2,2h4c1.1,0,2-0.9,2-2v-4
			c0-1.1-0.9-2-2-2h-4c-1.1,0-2,0.9-2,2V-861.966z"/>
	</g>
	<g>
		<path fill="none" stroke="#53A711" stroke-miterlimit="10" d="M1077.265-829.965c0,1.1,0.9,2,2,2h4c1.1,0,2-0.9,2-2v-4
			c0-1.1-0.9-2-2-2h-4c-1.1,0-2,0.9-2,2V-829.965z"/>
	</g>
	<g>
		<path fill="none" stroke="#53A711" stroke-miterlimit="10" d="M1109.265-829.965c0,1.1,0.9,2,2,2h4c1.1,0,2-0.9,2-2v-4
			c0-1.1-0.9-2-2-2h-4c-1.1,0-2,0.9-2,2V-829.965z"/>
	</g>
	<line fill="none" stroke="#53A711" stroke-miterlimit="10" x1="1085.265" y1="-863.966" x2="1109.265" y2="-863.966"/>
	<line fill="none" stroke="#53A711" stroke-miterlimit="10" x1="1085.265" y1="-831.965" x2="1109.265" y2="-831.965"/>
	<line fill="none" stroke="#53A711" stroke-miterlimit="10" x1="1113.265" y1="-859.966" x2="1113.265" y2="-835.965"/>
	<line fill="none" stroke="#53A711" stroke-miterlimit="10" x1="1081.265" y1="-859.966" x2="1081.265" y2="-835.965"/>
</g>
<g>
	<g>
		<path fill="none" stroke="#53A711" stroke-miterlimit="10" d="M1298.396-854.378l2.829,2.829c0.778,0.778,0.778,2.051,0,2.828
			l-18.149,18.149c-0.778,0.778-2.051,0.778-2.828,0l-11.45-11.45"/>
	</g>
	<path fill="none" stroke="#53A711" stroke-miterlimit="10" d="M1267.04-849.243l-1.317,1.317c-0.778,0.778-0.778,2.05,0,2.828
		l0.383,0.383c0.778,0.778,2.051,0.778,2.829,0l18.149-18.149c0.778-0.778,2.051-0.778,2.828,0l2.806,2.806"/>
	<path fill="none" stroke="#53A711" stroke-miterlimit="10" d="M1287.436-865.338c0,0-0.484-0.484-1.075-1.075
		c-0.592-0.591-1.712-0.439-2.49,0.339l-0.748,0.748"/>
	<g>
		<path fill="none" stroke="#53A711" stroke-miterlimit="10" d="M1297.041-857.854c0.778,0.778,0.778,2.051,0,2.828l-6.282,6.282
			c-0.778,0.778-2.051,0.778-2.828,0l-0.825-0.825c-0.778-0.778-0.778-2.051,0-2.828l6.282-6.282c0.778-0.778,2.051-0.778,2.828,0
			L1297.041-857.854z"/>
	</g>
	<circle fill="none" stroke="#53A711" stroke-miterlimit="10" cx="1289.322" cy="-850.96" r="1.166"/>
	<polyline fill="none" stroke="#53A711" stroke-miterlimit="10" points="1267.225,-847.16 1278.214,-865.818 1283.776,-863.589 	"/>
	<line fill="none" stroke="#53A711" stroke-miterlimit="10" x1="1268.226" y1="-846.128" x2="1285.407" y2="-863.309"/>
	<line fill="none" stroke="#53A711" stroke-miterlimit="10" x1="1294.463" y1="-854.569" x2="1292.754" y2="-856.278"/>
	<line fill="none" stroke="#53A711" stroke-miterlimit="10" x1="1293.206" y1="-853.312" x2="1291.497" y2="-855.021"/>
	<line fill="none" stroke="#53A711" stroke-miterlimit="10" x1="1291.949" y1="-852.055" x2="1290.24" y2="-853.764"/>
</g>
<g>
	<path fill="none" stroke="#53A711" stroke-miterlimit="10" d="M1170.569-820.716l-8.744,3.771c-1.01,0.436-1.753-0.104-1.651-1.199
		l0.698-7.489c0.102-1.095-0.409-2.667-1.135-3.493l-4.967-5.649c-0.726-0.826-0.443-1.699,0.631-1.941l7.339-1.65
		c1.073-0.241,2.41-1.213,2.972-2.159l3.837-6.469c0.561-0.946,1.479-0.946,2.041,0l3.837,6.469
		c0.561,0.946,1.898,1.918,2.972,2.159l7.339,1.65c1.073,0.241,1.357,1.115,0.631,1.941l-4.967,5.649
		c-0.726,0.826-1.237,2.398-1.135,3.493l0.698,7.489c0.102,1.095-0.641,1.635-1.651,1.199l-6.091-2.627"/>
</g>
</svg>
