<?xml version="1.0" encoding="utf-8"?>
<!-- Generator: Adobe Illustrator 18.1.1, SVG Export Plug-In . SVG Version: 6.00 Build 0)  -->
<svg version="1.1" id="Слой_1" xmlns="http://www.w3.org/2000/svg" xmlns:xlink="http://www.w3.org/1999/xlink" x="0px" y="0px"
	 viewBox="0 0 52.259 52.26" enable-background="new 0 0 52.259 52.26" xml:space="preserve">
<g>
	<path fill="none" stroke="#53A711" stroke-linecap="round" stroke-linejoin="round" stroke-miterlimit="10" d="M12.751,25.223
		c-1.854,3.003-2.686,4.92-2.686,4.92l12.053,12.051c0,0,1.915-0.832,4.919-2.685 M26.13,42.64l-4.633,7.298l1.823,1.823
		l15.276-12.885l-0.001-8.287c0.53-0.5,1.064-1.015,1.6-1.552C53.722,15.509,51.507,2.719,51.507,2.719L51.759,0.5L49.54,0.751
		c0,0-12.789-2.214-26.317,11.313c-0.536,0.536-1.05,1.069-1.55,1.598l-8.288,0.002L0.5,28.941l1.821,1.822l7.412-4.225"/>
</g>
<line fill="none" stroke="#53A711" stroke-linecap="round" stroke-linejoin="round" stroke-miterlimit="10" x1="17.756" y1="34.249" x2="23.182" y2="28.822"/>
<line fill="none" stroke="#53A711" stroke-linecap="round" stroke-linejoin="round" stroke-miterlimit="10" x1="15.043" y1="31.536" x2="20.469" y2="26.11"/>
<line fill="none" stroke="#53A711" stroke-linecap="round" stroke-linejoin="round" stroke-miterlimit="10" x1="20.42" y1="36.912" x2="25.846" y2="31.487"/>
<line fill="none" stroke="#53A711" stroke-linecap="round" stroke-linejoin="round" stroke-miterlimit="10" x1="13.81" y1="17.15" x2="19.838" y2="17.15"/>
<line fill="none" stroke="#53A711" stroke-linecap="round" stroke-linejoin="round" stroke-miterlimit="10" x1="35.11" y1="38.45" x2="35.11" y2="32.422"/>
<path fill="none" stroke="#F3470D" stroke-linecap="round" stroke-linejoin="round" stroke-miterlimit="10" d="M34.209,18.049
	c-2.217-2.216-2.215-5.806,0.002-8.023c2.215-2.214,5.806-2.216,8.021-0.001c2.216,2.216,2.216,5.811,0.003,8.024
	C40.017,20.266,36.425,20.264,34.209,18.049z"/>
<path fill="none" stroke="#F3470D" stroke-linecap="round" stroke-linejoin="round" stroke-miterlimit="10" d="M8.439,43.017
	c3.782-0.575,2.45-4.103,2.45-4.103c-0.483-1.123-0.602-2.516-0.148-4.109L9.13,33.194c-6.243,4.915-1.506,10.683-4.008,13.76
	c0,0,9.263,2.123,13.954-3.813l-1.561-1.593c-1.406,0.662-3.042,0.545-4.384-0.184"/>
</svg>
