<?xml version="1.0" encoding="utf-8"?>
<!-- Generator: Adobe Illustrator 18.1.1, SVG Export Plug-In . SVG Version: 6.00 Build 0)  -->
<svg version="1.1" id="Слой_1" xmlns="http://www.w3.org/2000/svg" xmlns:xlink="http://www.w3.org/1999/xlink" x="0px" y="0px"
	 viewBox="0 0 53.783 53.783" enable-background="new 0 0 53.783 53.783" xml:space="preserve">
<path fill="none" stroke="#53A711" stroke-linecap="round" stroke-linejoin="round" stroke-miterlimit="10" d="M44.678,5.619"/>
<line fill="none" stroke="#F3470D" stroke-linecap="round" stroke-linejoin="round" stroke-miterlimit="10" x1="9.272" y1="11.496" x2="19.763" y2="11.496"/>
<line fill="none" stroke="#F3470D" stroke-linecap="round" stroke-linejoin="round" stroke-miterlimit="10" x1="9.272" y1="14.171" x2="22.791" y2="14.171"/>
<line fill="none" stroke="#F3470D" stroke-linecap="round" stroke-linejoin="round" stroke-miterlimit="10" x1="9.272" y1="20.358" x2="18.495" y2="20.358"/>
<line fill="none" stroke="#F3470D" stroke-linecap="round" stroke-linejoin="round" stroke-miterlimit="10" x1="20.727" y1="20.358" x2="29.95" y2="20.358"/>
<line fill="none" stroke="#F3470D" stroke-linecap="round" stroke-linejoin="round" stroke-miterlimit="10" x1="9.272" y1="23.033" x2="22.791" y2="23.033"/>
<line fill="none" stroke="#F3470D" stroke-linecap="round" stroke-linejoin="round" stroke-miterlimit="10" x1="25.03" y1="23.033" x2="33.338" y2="23.033"/>
<line fill="none" stroke="#F3470D" stroke-linecap="round" stroke-linejoin="round" stroke-miterlimit="10" x1="9.272" y1="25.626" x2="14.911" y2="25.626"/>
<line fill="none" stroke="#F3470D" stroke-linecap="round" stroke-linejoin="round" stroke-miterlimit="10" x1="9.272" y1="28.321" x2="29.444" y2="28.321"/>
<line fill="none" stroke="#F3470D" stroke-linecap="round" stroke-linejoin="round" stroke-miterlimit="10" x1="17.151" y1="25.626" x2="33.338" y2="25.626"/>
<circle fill="none" stroke="#53A711" stroke-linecap="round" stroke-linejoin="round" stroke-miterlimit="10" cx="20.401" cy="20.401" r="17.305"/>
<path fill="none" stroke="#53A711" stroke-linecap="round" stroke-linejoin="round" stroke-miterlimit="10" d="M28.751,9.524
	c2.009,1.581,3.605,3.666,4.592,6.064"/>
<g>
	<path fill="none" stroke="#53A711" stroke-linecap="round" stroke-linejoin="round" stroke-miterlimit="10" d="M35.077,33.843
		c3.245-3.541,5.225-8.26,5.225-13.441C40.302,9.41,31.393,0.5,20.4,0.5C9.409,0.5,0.5,9.41,0.5,20.401s8.909,19.901,19.9,19.901
		c4.243,0,8.175-1.327,11.405-3.588c0.068-0.047,0.201,0.187,0.201,0.187l15.372,15.372c1.347,1.347,3.549,1.346,4.894,0l0,0
		c1.347-1.346,1.347-3.548,0-4.894L38.736,33.843"/>
	
		<line fill="none" stroke="#53A711" stroke-linecap="round" stroke-linejoin="round" stroke-miterlimit="10" x1="41.653" y1="43.182" x2="44.864" y2="39.97"/>
	
		<line fill="none" stroke="#53A711" stroke-linecap="round" stroke-linejoin="round" stroke-miterlimit="10" x1="39.807" y1="41.338" x2="43.02" y2="38.125"/>
</g>
</svg>
