<?xml version="1.0" encoding="utf-8"?>
<!-- Generator: Adobe Illustrator 18.1.1, SVG Export Plug-In . SVG Version: 6.00 Build 0)  -->
<svg version="1.1" id="Слой_1" xmlns="http://www.w3.org/2000/svg" xmlns:xlink="http://www.w3.org/1999/xlink" x="0px" y="0px"
	 viewBox="0 0 60.992 53.41" enable-background="new 0 0 60.992 53.41" xml:space="preserve">
<g>
	<polyline fill="none" stroke="#53A711" stroke-linecap="round" stroke-linejoin="round" stroke-miterlimit="10" points="
		7.348,26.359 7.348,52.91 20.301,52.91 20.301,34.764 40.048,34.764 40.048,52.91 53.001,52.91 53.001,26.389 53.001,26.389 	"/>
	<g>
		<path fill="none" stroke="#F3470D" stroke-linecap="round" stroke-linejoin="round" stroke-miterlimit="10" d="M0.5,17.686
			c0.208,3.959,3.482,7.102,7.491,7.102c4.009,0,7.282-3.143,7.49-7.102H0.5z"/>
		<path fill="none" stroke="#F3470D" stroke-linecap="round" stroke-linejoin="round" stroke-miterlimit="10" d="M15.504,17.686
			c0.208,3.959,3.482,7.102,7.49,7.102c4.009,0,7.283-3.143,7.491-7.102H15.504z"/>
		<path fill="none" stroke="#F3470D" stroke-linecap="round" stroke-linejoin="round" stroke-miterlimit="10" d="M60.453,16.886
			C59.857,13.865,54.099,0.5,54.099,0.5H6.982c0,0-5.852,13.326-6.444,16.386"/>
		<path fill="none" stroke="#F3470D" stroke-linecap="round" stroke-linejoin="round" stroke-miterlimit="10" d="M45.511,17.686
			c0.208,3.959,3.481,7.102,7.49,7.102c4.01,0,7.283-3.143,7.491-7.102H45.511z"/>
		<path fill="none" stroke="#F3470D" stroke-linecap="round" stroke-linejoin="round" stroke-miterlimit="10" d="M30.508,17.686
			c0.207,3.959,3.481,7.102,7.49,7.102s7.283-3.143,7.49-7.102H30.508z"/>
	</g>
</g>
</svg>
