<?xml version="1.0" encoding="utf-8"?>
<!-- Generator: Adobe Illustrator 18.1.1, SVG Export Plug-In . SVG Version: 6.00 Build 0)  -->
<svg version="1.1" id="Слой_1" xmlns="http://www.w3.org/2000/svg" xmlns:xlink="http://www.w3.org/1999/xlink" x="0px" y="0px"
	 viewBox="0 0 41 63.114" enable-background="new 0 0 41 63.114" xml:space="preserve">
<g>
	<path fill="none" d="M6.5,44.057h-4c-0.827,0-1.5,0.673-1.5,1.5v4c0,0.827,0.673,1.5,1.5,1.5h4c0.827,0,1.5-0.673,1.5-1.5v-4
		C8,44.73,7.327,44.057,6.5,44.057z"/>
	<path fill="none" d="M34.5,19.057h4c0.827,0,1.5-0.673,1.5-1.5v-4c0-0.827-0.673-1.5-1.5-1.5h-4c-0.827,0-1.5,0.673-1.5,1.5v4
		C33,18.384,33.673,19.057,34.5,19.057z"/>
	<path fill="none" d="M8,17.557v-4c0-0.827-0.673-1.5-1.5-1.5h-4c-0.827,0-1.5,0.673-1.5,1.5v4c0,0.827,0.673,1.5,1.5,1.5h4
		C7.327,19.057,8,18.384,8,17.557z"/>
	<path fill="none" d="M33,45.557v4c0,0.827,0.673,1.5,1.5,1.5h4c0.827,0,1.5-0.673,1.5-1.5v-4c0-0.827-0.673-1.5-1.5-1.5h-4
		C33.673,44.057,33,44.73,33,45.557z"/>
	<path fill="none" d="M32,17.557v-1.5H9v1.5c0,1.378-1.121,2.5-2.5,2.5H4.999v23H6.5c1.379,0,2.5,1.122,2.5,2.5v1.5h23v-1.5
		c0-1.378,1.121-2.5,2.5-2.5H36v-23h-1.5C33.121,20.057,32,18.935,32,17.557z"/>
	<path fill="#1E0F00" d="M38.5,20.057c1.379,0,2.5-1.122,2.5-2.5v-4c0-1.378-1.121-2.5-2.5-2.5h-4c-1.379,0-2.5,1.122-2.5,2.5v1.5H9
		v-1.5c0-1.378-1.121-2.5-2.5-2.5h-4c-1.379,0-2.5,1.122-2.5,2.5v4c0,1.378,1.121,2.5,2.5,2.5h1.499v23H2.5
		c-1.379,0-2.5,1.122-2.5,2.5v4c0,1.378,1.121,2.5,2.5,2.5h4c1.379,0,2.5-1.122,2.5-2.5v-1.5h23v1.5c0,1.378,1.121,2.5,2.5,2.5h4
		c1.379,0,2.5-1.122,2.5-2.5v-4c0-1.378-1.121-2.5-2.5-2.5H37v-23H38.5z M33,13.557c0-0.827,0.673-1.5,1.5-1.5h4
		c0.827,0,1.5,0.673,1.5,1.5v4c0,0.827-0.673,1.5-1.5,1.5h-4c-0.827,0-1.5-0.673-1.5-1.5V13.557z M1,17.557v-4
		c0-0.827,0.673-1.5,1.5-1.5h4c0.827,0,1.5,0.673,1.5,1.5v4c0,0.827-0.673,1.5-1.5,1.5h-4C1.673,19.057,1,18.384,1,17.557z
		 M8,49.557c0,0.827-0.673,1.5-1.5,1.5h-4c-0.827,0-1.5-0.673-1.5-1.5v-4c0-0.827,0.673-1.5,1.5-1.5h4c0.827,0,1.5,0.673,1.5,1.5
		V49.557z M40,45.557v4c0,0.827-0.673,1.5-1.5,1.5h-4c-0.827,0-1.5-0.673-1.5-1.5v-4c0-0.827,0.673-1.5,1.5-1.5h4
		C39.327,44.057,40,44.73,40,45.557z M36,43.057h-1.5c-1.379,0-2.5,1.122-2.5,2.5v1.5H9v-1.5c0-1.378-1.121-2.5-2.5-2.5H4.999v-23
		H6.5c1.379,0,2.5-1.122,2.5-2.5v-1.5h23v1.5c0,1.378,1.121,2.5,2.5,2.5H36V43.057z"/>
</g>
</svg>
