<?xml version="1.0" encoding="utf-8"?>
<!-- Generator: Adobe Illustrator 18.1.1, SVG Export Plug-In . SVG Version: 6.00 Build 0)  -->
<svg version="1.1" id="Слой_1" xmlns="http://www.w3.org/2000/svg" xmlns:xlink="http://www.w3.org/1999/xlink" x="0px" y="0px"
	 viewBox="0 0 33.401 63.114" enable-background="new 0 0 33.401 63.114" xml:space="preserve">
<g>
	<path fill="#1E0F00" d="M7.296,47.489c-0.327,0-0.628-0.09-0.875-0.271c-0.455-0.331-0.678-0.923-0.612-1.625l0.697-7.49
		c0.091-0.963-0.373-2.39-1.012-3.117l-4.968-5.649c-0.465-0.529-0.633-1.14-0.459-1.674c0.174-0.535,0.668-0.93,1.356-1.085
		l7.338-1.65c0.944-0.213,2.158-1.095,2.65-1.926l3.839-6.469c0.72-1.215,2.181-1.213,2.9,0l3.837,6.469
		c0.493,0.832,1.707,1.713,2.651,1.926l7.338,1.65c0.688,0.155,1.183,0.55,1.356,1.085c0.174,0.534,0.006,1.145-0.46,1.674
		l-4.966,5.649c-0.64,0.727-1.104,2.154-1.013,3.117l0.697,7.49c0.065,0.702-0.157,1.294-0.612,1.625
		c-0.454,0.329-1.086,0.36-1.734,0.08l-6.091-2.626l0.396-0.918l6.091,2.626c0.315,0.136,0.589,0.146,0.75,0.029
		c0.162-0.118,0.236-0.381,0.204-0.723l-0.697-7.49c-0.115-1.237,0.437-2.937,1.258-3.87l4.966-5.649
		c0.228-0.258,0.321-0.515,0.26-0.705c-0.062-0.19-0.289-0.343-0.624-0.418l-7.338-1.65c-1.214-0.273-2.66-1.324-3.293-2.392
		l-3.837-6.469c-0.351-0.589-0.829-0.592-1.18,0l-3.839,6.469c-0.632,1.068-2.078,2.119-3.292,2.392l-7.338,1.65
		c-0.335,0.076-0.563,0.228-0.624,0.418c-0.062,0.19,0.032,0.447,0.259,0.705l4.968,5.649c0.82,0.933,1.372,2.633,1.257,3.87
		l-0.697,7.49c-0.032,0.342,0.042,0.605,0.204,0.723c0.161,0.117,0.435,0.107,0.75-0.029l8.744-3.771l0.396,0.918l-8.744,3.771
		C7.86,47.426,7.568,47.489,7.296,47.489z"/>
</g>
</svg>
