<?xml version="1.0" encoding="utf-8"?>
<!-- Generator: Adobe Illustrator 18.1.1, SVG Export Plug-In . SVG Version: 6.00 Build 0)  -->
<svg version="1.1" id="Слой_1" xmlns="http://www.w3.org/2000/svg" xmlns:xlink="http://www.w3.org/1999/xlink" x="0px" y="0px"
	 viewBox="0 0 79.853 63.688" enable-background="new 0 0 79.853 63.688" xml:space="preserve">
<path fill="none" stroke="#53A711" stroke-linecap="round" stroke-linejoin="round" stroke-miterlimit="10" d="M47.477,57.45
	c2.047-1.241,3.414-3.491,3.414-6.061c0-3.912-3.171-7.083-7.083-7.083c-3.912,0-7.083,3.171-7.083,7.083s3.171,7.083,7.083,7.083"
	/>
<line fill="none" stroke="#53A711" stroke-linecap="round" stroke-linejoin="round" stroke-miterlimit="10" x1="43.808" y1="58.473" x2="43.808" y2="62.723"/>
<path fill="none" stroke="#F3470D" stroke-linecap="round" stroke-linejoin="round" stroke-miterlimit="10" d="M24.733,43.607
	c0.363,0.049,0.73,0.081,1.106,0.081l4.374-1.22c2.44-1.48,4.071-4.163,4.071-7.227c0-4.336-3.268-7.903-7.472-8.387
	c-1.816-3.339-5.354-5.605-9.421-5.605c-5.918,0-10.715,4.797-10.715,10.715c0,0.26,0.021,0.514,0.038,0.768
	C3.135,33.712,0.5,36.981,0.5,40.872c0,4.665,3.782,8.447,8.447,8.447l4.374-1.22c0.157-0.095,0.298-0.208,0.448-0.312
	c1.169,0.944,2.635,1.532,4.255,1.532"/>
<line fill="none" stroke="#F3470D" stroke-linecap="round" stroke-linejoin="round" stroke-miterlimit="10" x1="18.276" y1="49.319" x2="18.276" y2="62.723"/>
<path fill="none" stroke="#53A711" stroke-linecap="round" stroke-linejoin="round" stroke-miterlimit="10" d="M67.325,28.652
	c0.458,0.061,0.919,0.102,1.393,0.102l5.508-1.537c3.073-1.864,5.127-5.242,5.127-9.1c0-5.46-4.115-9.952-9.409-10.56
	C67.658,3.353,63.203,0.5,58.082,0.5C50.63,0.5,44.59,6.54,44.59,13.992c0,0.327,0.026,0.647,0.048,0.967
	c-4.509,1.233-7.828,5.35-7.828,10.25c0,5.875,4.762,10.637,10.637,10.637l5.508-1.536c0.197-0.119,0.376-0.262,0.564-0.393
	c1.472,1.189,3.319,1.929,5.357,1.929"/>
<line fill="none" stroke="#53A711" stroke-linecap="round" stroke-linejoin="round" stroke-miterlimit="10" x1="59.194" y1="35.845" x2="59.194" y2="63.187"/>
<line fill="none" stroke="#53A711" stroke-linecap="round" stroke-linejoin="round" stroke-miterlimit="10" x1="2.784" y1="63.187" x2="70.971" y2="63.187"/>
</svg>
