<?xml version="1.0" encoding="utf-8"?>
<!-- Generator: Adobe Illustrator 18.1.1, SVG Export Plug-In . SVG Version: 6.00 Build 0)  -->
<svg version="1.1" id="Слой_1" xmlns="http://www.w3.org/2000/svg" xmlns:xlink="http://www.w3.org/1999/xlink" x="0px" y="0px"
	 viewBox="0 0 36.079 52.433" enable-background="new 0 0 36.079 52.433" xml:space="preserve">
<g>
	<path fill="#1E0F00" d="M20.001,24.312c0.268-0.238,0.407-0.582,0.407-1.034c0-0.421-0.139-0.74-0.407-0.974
		c-0.268-0.239-0.745-0.361-1.42-0.361h-1.968v2.736h1.933C19.244,24.679,19.733,24.551,20.001,24.312 M20.514,29.912
		c0.314-0.28,0.465-0.647,0.465-1.1c0-0.42-0.151-0.757-0.465-1.025c-0.303-0.256-0.85-0.384-1.642-0.384h-2.258v2.91h2.27
		C19.652,30.314,20.199,30.18,20.514,29.912z M22.423,25.762c1.048,0.244,1.805,0.674,2.294,1.268
		c0.489,0.612,0.733,1.368,0.733,2.282c0,0.745-0.174,1.409-0.524,2.014c-0.337,0.595-0.815,1.06-1.431,1.404
		c-0.361,0.214-0.931,0.378-1.677,0.471c-1.013,0.128-1.676,0.199-2.003,0.199h-7.707V19.044h8.347c1.397,0,2.469,0.337,3.213,1.014
		c0.746,0.687,1.118,1.549,1.118,2.548c0,0.85-0.268,1.584-0.803,2.189C23.633,25.203,23.109,25.517,22.423,25.762z M29.734,34.436
		V18.002c0-1.891-1.537-3.427-3.446-3.427H9.779c-1.897,0-3.445,1.536-3.445,3.427v16.434c0,1.885,1.548,3.428,3.445,3.428h16.508
		C28.198,37.863,29.734,36.321,29.734,34.436z M36.079,26.216c0,9.918-8.08,17.952-18.033,17.952C8.08,44.169,0,36.134,0,26.216
		C0,16.308,8.08,8.264,18.046,8.264C28,8.264,36.079,16.308,36.079,26.216z"/>
</g>
</svg>
