<?xml version="1.0" encoding="utf-8"?>
<!-- Generator: Adobe Illustrator 18.1.1, SVG Export Plug-In . SVG Version: 6.00 Build 0)  -->
<svg version="1.1" id="Слой_1" xmlns="http://www.w3.org/2000/svg" xmlns:xlink="http://www.w3.org/1999/xlink" x="0px" y="0px"
	 viewBox="0 0 78.046 52.433" enable-background="new 0 0 78.046 52.433" xml:space="preserve">
<g>
	<path fill="#1E0F00" d="M16.305,31.68v-6.534c0-1.437-0.437-2.144-1.353-2.144c-0.9,0-1.333,0.707-1.333,2.144v6.534
		c0,1.445,0.433,2.159,1.333,2.159C15.868,33.839,16.305,33.124,16.305,31.68 M41.791,18.471h3.335v-2.909h-9.703v2.909H38.7v17.71
		h3.091V18.471z M50.748,36.181h2.778V20.824h-2.778v11.742c-0.616,0.87-1.199,1.294-1.758,1.294c-0.367,0-0.58-0.211-0.644-0.65
		c-0.034-0.086-0.034-0.426-0.034-1.086V20.824h-2.784v12.142c0,1.089,0.097,1.82,0.249,2.28c0.282,0.779,0.895,1.15,1.79,1.15
		c1.031,0,2.077-0.622,3.181-1.888V36.181z M61.322,31.79c0,1.379-0.407,2.07-1.211,2.07c-0.459,0-0.918-0.211-1.382-0.691v-9.354
		c0.465-0.458,0.923-0.675,1.382-0.675c0.804,0,1.211,0.707,1.211,2.096V31.79z M63.825,34.666c0.181-0.645,0.283-1.675,0.283-3.096
		v-6.114c0-1.454-0.102-2.472-0.283-3.09c-0.367-1.146-1.111-1.725-2.216-1.725c-1.03,0-1.985,0.554-2.88,1.661v-6.74h-2.783v20.619
		h2.783v-1.489c0.923,1.155,1.886,1.704,2.88,1.704C62.714,36.396,63.458,35.805,63.825,34.666z M69.044,26.688V25.27
		c0-1.424,0.462-2.132,1.391-2.132c0.929,0,1.399,0.707,1.399,2.132v1.418H69.044z M74.549,33.059
		c0.033-0.275,0.067-0.895,0.067-1.798v-0.404h-2.846c0,1.117-0.031,1.733-0.058,1.893c-0.162,0.735-0.562,1.109-1.247,1.109
		c-0.959,0-1.421-0.707-1.421-2.127v-2.725h5.572V25.83c0-1.642-0.287-2.846-0.864-3.619c-0.777-1.058-1.885-1.571-3.287-1.571
		c-1.421,0-2.529,0.513-3.334,1.571c-0.592,0.772-0.859,1.977-0.859,3.619v5.381c0,1.629,0.305,2.843,0.891,3.6
		c0.808,1.053,1.917,1.584,3.37,1.584c1.45,0,2.597-0.549,3.369-1.669C74.245,34.236,74.458,33.667,74.549,33.059z M78.046,26.218
		c0,3.591-0.012,7.395-0.811,10.885c-0.561,2.455-2.564,4.259-4.983,4.526c-5.702,0.636-11.482,0.636-17.24,0.636
		c-5.753,0-11.534,0-17.243-0.636c-2.415-0.267-4.405-2.071-4.977-4.526c-0.796-3.49-0.796-7.294-0.796-10.885
		c0-3.593,0-7.401,0.804-10.892c0.569-2.441,2.568-4.24,4.976-4.522c5.713-0.636,11.494-0.638,17.245-0.636
		c5.758-0.002,11.531,0,17.245,0.636c2.412,0.282,4.416,2.081,4.982,4.522C78.046,18.817,78.046,22.625,78.046,26.218z
		 M29.515,36.175h-2.816v-1.692c-1.111,1.286-2.183,1.913-3.206,1.913c-0.907,0-1.527-0.371-1.817-1.157
		c-0.152-0.474-0.247-1.214-0.247-2.315V20.651h2.8v11.431c0,0.652,0,0.999,0.037,1.086c0.06,0.444,0.282,0.67,0.658,0.67
		c0.564,0,1.148-0.438,1.775-1.313V20.651h2.816V36.175z M19.113,31.152c0,1.651-0.286,2.873-0.874,3.653
		c-0.776,1.052-1.874,1.591-3.287,1.591c-1.39,0-2.499-0.539-3.263-1.591c-0.6-0.78-0.882-2.002-0.882-3.653V25.72
		c0-1.665,0.282-2.875,0.882-3.659c0.764-1.06,1.873-1.588,3.263-1.588c1.413,0,2.511,0.528,3.287,1.588
		c0.588,0.784,0.874,1.993,0.874,3.659V31.152z M10.78,15.35L7.028,27.745v8.429H3.912v-8.429c-0.29-1.49-0.917-3.691-1.912-6.592
		c-0.657-1.935-1.343-3.872-2-5.804h3.285l2.209,8.182l2.128-8.182H10.78z"/>
</g>
</svg>
