<?xml version="1.0" encoding="utf-8"?>
<!-- Generator: Adobe Illustrator 18.1.1, SVG Export Plug-In . SVG Version: 6.00 Build 0)  -->
<svg version="1.1" id="Слой_1" xmlns="http://www.w3.org/2000/svg" xmlns:xlink="http://www.w3.org/1999/xlink" x="0px" y="0px"
	 viewBox="0 0 65 63.114" enable-background="new 0 0 65 63.114" xml:space="preserve">
<g>
	<polyline fill="none" stroke="#53A711" stroke-linecap="round" stroke-linejoin="round" stroke-miterlimit="10" points="
		-148.055,329.593 -146.204,330.951 -146.204,361.919 -192.655,361.919 -192.655,330.951 -190.607,329.449 	"/>
	<polyline fill="none" stroke="#53A711" stroke-linecap="round" stroke-linejoin="round" stroke-miterlimit="10" points="
		-171.331,315.314 -169.429,313.919 -167.539,315.305 	"/>
	<polyline fill="none" stroke="#53A711" stroke-linecap="round" stroke-linejoin="round" stroke-miterlimit="10" points="
		-177.671,346.435 -192.655,361.919 -146.204,361.919 -161.188,346.435 	"/>
	<polyline fill="none" stroke="#53A711" stroke-linecap="round" stroke-linejoin="round" stroke-miterlimit="10" points="
		-146.204,330.951 -169.429,347.983 -192.655,330.951 	"/>
	<g>
		<g>
			<path fill="none" stroke="#53A711" stroke-linecap="round" stroke-linejoin="round" stroke-miterlimit="10" d="M-188.784,330.456
				v-10.257c0-1.703,1.394-3.097,3.097-3.097h24.688"/>
		</g>
		<g>
			
				<line fill="none" stroke="#53A711" stroke-linecap="round" stroke-linejoin="round" stroke-miterlimit="10" x1="-150.075" y1="326.973" x2="-150.075" y2="330.423"/>
		</g>
		<path fill="none" stroke="#53A711" stroke-linecap="round" stroke-linejoin="round" stroke-miterlimit="10" d="M-157.838,319.294"
			/>
		<polyline fill="none" stroke="#53A711" stroke-linecap="round" stroke-linejoin="round" stroke-miterlimit="10" points="
			-162.87,317.102 -157.709,317.102 -150.075,324.736 		"/>
		<g>
			<path fill="none" stroke="#53A711" stroke-linecap="round" stroke-linejoin="round" stroke-miterlimit="10" d="M-150.075,324.736
				h-4.666c-1.703,0-3.097-1.05-3.097-2.334s0-2.334,0-2.334"/>
		</g>
		
			<line fill="none" stroke="#53A711" stroke-linecap="round" stroke-linejoin="round" stroke-miterlimit="10" x1="-182.548" y1="324.736" x2="-167.935" y2="324.736"/>
		
			<line fill="none" stroke="#53A711" stroke-linecap="round" stroke-linejoin="round" stroke-miterlimit="10" x1="-182.548" y1="327.81" x2="-170.113" y2="327.81"/>
		
			<line fill="none" stroke="#53A711" stroke-linecap="round" stroke-linejoin="round" stroke-miterlimit="10" x1="-182.548" y1="334.919" x2="-173.5" y2="334.919"/>
		
			<line fill="none" stroke="#53A711" stroke-linecap="round" stroke-linejoin="round" stroke-miterlimit="10" x1="-170.935" y1="334.919" x2="-164.984" y2="334.919"/>
		
			<line fill="none" stroke="#53A711" stroke-linecap="round" stroke-linejoin="round" stroke-miterlimit="10" x1="-178.64" y1="337.993" x2="-170.113" y2="337.993"/>
		
			<line fill="none" stroke="#53A711" stroke-linecap="round" stroke-linejoin="round" stroke-miterlimit="10" x1="-167.539" y1="337.993" x2="-160.265" y2="337.993"/>
		
			<line fill="none" stroke="#53A711" stroke-linecap="round" stroke-linejoin="round" stroke-miterlimit="10" x1="-174.539" y1="340.972" x2="-164.354" y2="340.972"/>
	</g>
</g>
<polyline fill="none" stroke="#53A711" stroke-width="0.9714" stroke-miterlimit="10" points="-24.957,329.708 -6.673,357.992 
	-24.957,386.276 "/>
<g>
	<g>
		<g>
			<path fill="none" stroke="#F3470D" stroke-linecap="round" stroke-linejoin="round" stroke-miterlimit="10" d="M0.5,5.496
				c0,0.916,0.749,1.665,1.665,1.665h3.331c0.916,0,1.665-0.749,1.665-1.665V2.165c0-0.916-0.749-1.665-1.665-1.665H2.165
				C1.249,0.5,0.5,1.249,0.5,2.165V5.496z"/>
		</g>
		<g>
			<path fill="none" stroke="#F3470D" stroke-linecap="round" stroke-linejoin="round" stroke-miterlimit="10" d="M27.144,5.496
				c0,0.916,0.749,1.665,1.665,1.665h3.331c0.916,0,1.665-0.749,1.665-1.665V2.165c0-0.916-0.749-1.665-1.665-1.665h-3.331
				c-0.916,0-1.665,0.749-1.665,1.665V5.496z"/>
		</g>
		<g>
			<path fill="none" stroke="#F3470D" stroke-linecap="round" stroke-linejoin="round" stroke-miterlimit="10" d="M0.5,32.14
				c0,0.916,0.749,1.665,1.665,1.665h3.331c0.916,0,1.665-0.749,1.665-1.665V28.81c0-0.916-0.749-1.665-1.665-1.665H2.165
				c-0.916,0-1.665,0.749-1.665,1.665V32.14z"/>
		</g>
		
			<line fill="none" stroke="#F3470D" stroke-linecap="round" stroke-linejoin="round" stroke-miterlimit="10" x1="7.161" y1="3.831" x2="27.144" y2="3.831"/>
		
			<line fill="none" stroke="#F3470D" stroke-linecap="round" stroke-linejoin="round" stroke-miterlimit="10" x1="7.161" y1="30.475" x2="13.725" y2="30.475"/>
		
			<line fill="none" stroke="#F3470D" stroke-linecap="round" stroke-linejoin="round" stroke-miterlimit="10" x1="30.475" y1="7.161" x2="30.475" y2="11.822"/>
		
			<line fill="none" stroke="#F3470D" stroke-linecap="round" stroke-linejoin="round" stroke-miterlimit="10" x1="3.83" y1="7.161" x2="3.83" y2="27.144"/>
	</g>
	<g>
		<g>
			<path fill="none" stroke="#F3470D" stroke-linecap="round" stroke-linejoin="round" stroke-miterlimit="10" d="M27.144,37.158
				c0,1.832,1.499,3.331,3.331,3.331h6.661c1.832,0,3.331-1.499,3.331-3.331v-6.661c0-1.832-1.499-3.331-3.331-3.331h-6.661
				c-1.832,0-3.331,1.499-3.331,3.331V37.158z"/>
		</g>
		
			<line fill="none" stroke="#F3470D" stroke-linecap="round" stroke-linejoin="round" stroke-miterlimit="10" x1="16.911" y1="33.827" x2="27.144" y2="33.827"/>
		
			<line fill="none" stroke="#F3470D" stroke-linecap="round" stroke-linejoin="round" stroke-miterlimit="10" x1="33.806" y1="14.32" x2="33.806" y2="27.166"/>
	</g>
	<path fill="none" stroke="#F3470D" stroke-linecap="round" stroke-linejoin="round" stroke-miterlimit="10" d="M56.22,16.748"/>
	
		<circle fill="none" stroke="#53A711" stroke-linecap="round" stroke-linejoin="round" stroke-miterlimit="10" cx="32.859" cy="30.972" r="16.653"/>
	<path fill="none" stroke="#53A711" stroke-linecap="round" stroke-linejoin="round" stroke-miterlimit="10" d="M40.894,20.505
		c1.934,1.521,3.469,3.527,4.418,5.836"/>
	<g>
		<path fill="none" stroke="#53A711" stroke-linecap="round" stroke-linejoin="round" stroke-miterlimit="10" d="M46.981,43.906
			c3.122-3.408,5.028-7.948,5.028-12.934c0-10.577-8.573-19.15-19.151-19.15c-10.577,0-19.15,8.573-19.15,19.15
			s8.573,19.15,19.15,19.15c4.083,0,7.867-1.277,10.975-3.452c0.065-0.046,0.193,0.18,0.193,0.18l14.792,14.792
			c1.296,1.296,3.415,1.295,4.71,0l0,0c1.296-1.295,1.296-3.414,0-4.71L50.502,43.906"/>
		
			<line fill="none" stroke="#53A711" stroke-linecap="round" stroke-linejoin="round" stroke-miterlimit="10" x1="53.309" y1="52.894" x2="56.399" y2="49.803"/>
		
			<line fill="none" stroke="#53A711" stroke-linecap="round" stroke-linejoin="round" stroke-miterlimit="10" x1="51.533" y1="51.119" x2="54.624" y2="48.027"/>
	</g>
</g>
<g>
	<path fill="#58595B" d="M-2.874-81.054c0,3.982-2.338,8.717-4.984,11.359c-2.58,2.577-6.796,5.342-10.815,5.342V-77.64h6.288
		c0-0.842,0.321-4.035,0.534-4.486h-6.822c0-5.075,0.451-4.488,6.822-4.488v-4.484c-4.032,0-6.025-0.456-8.903,1.68
		c-2.47,1.827-2.232,4.921-2.232,7.292h-3.41v4.486h3.41v13.287c-2.312,0-4.713-1.108-6.339-1.907
		c-3.486-1.734-6.136-4.919-7.841-8.328c-1.466-2.904-1.616-5.346-1.616-8.54v-0.082c0-2.256,0.942-5.122,1.732-6.699
		c1.355-2.689,3.346-5.241,5.845-6.906c1.437-0.959,1.032-0.741,2.591-1.528c3.147-1.593,5.39-1.731,8.785-1.741h0.084
		c5.784,0.009,11.46,3.951,14.474,8.867c0.279,0.464,0.415,0.824,0.665,1.309C-3.013-86.739-2.874-84.48-2.874-81.054"/>
	<path fill="#58595B" d="M76.468-83.741c-0.885,0.88-1.329,1.953-1.329,3.218c0,1.264,0.444,2.341,1.329,3.222
		c0.88,0.885,1.963,1.331,3.222,1.331c1.266,0,2.337-0.446,3.218-1.331c0.884-0.881,1.324-1.957,1.324-3.222
		c0-1.264-0.44-2.338-1.324-3.218c-0.881-0.888-1.952-1.329-3.218-1.329C78.431-85.07,77.348-84.629,76.468-83.741 M85.983-88.323
		c0.143,0.145,0.32,0.225,0.532,0.225h1.513c0.205,0,0.382-0.079,0.535-0.225c0.151-0.158,0.221-0.329,0.221-0.532v-1.523
		c0-0.205-0.07-0.376-0.221-0.535c-0.154-0.144-0.33-0.228-0.535-0.228h-1.513c-0.212,0-0.389,0.084-0.532,0.228
		c-0.153,0.159-0.228,0.33-0.228,0.535v1.523C85.755-88.651,85.83-88.48,85.983-88.323z M90.291-86.584h-3.825
		c-0.855-0.958-1.866-1.691-3.032-2.231c-1.171-0.535-2.418-0.806-3.744-0.806c-2.299,0-4.325,0.776-6.059,2.332v-5.362h15.153
		c0.422,0,0.788,0.15,1.075,0.439c0.293,0.289,0.432,0.653,0.432,1.071V-86.584z M73.124-84.318
		c0.683-1.162,1.607-2.083,2.764-2.773c1.156-0.672,2.425-1.006,3.802-1.006c1.369,0,2.639,0.334,3.803,1.006
		c1.156,0.69,2.08,1.611,2.758,2.773c0.675,1.155,1.013,2.425,1.013,3.795s-0.338,2.64-1.013,3.804
		c-0.678,1.156-1.602,2.08-2.758,2.753c-1.164,0.683-2.434,1.026-3.803,1.026c-1.377,0-2.646-0.343-3.802-1.026
		c-1.157-0.673-2.081-1.597-2.764-2.753c-0.678-1.164-1.019-2.435-1.019-3.804S72.446-83.163,73.124-84.318z M70.594-86.584h-1.511
		v-4.557c0-0.419,0.139-0.783,0.444-1.071c0.306-0.289,0.653-0.439,1.067-0.439V-86.584z M90.927-70.797
		c0.595-0.6,0.889-1.31,0.889-2.142v-18.202c0-0.833-0.293-1.546-0.889-2.146c-0.591-0.581-1.307-0.866-2.142-0.866h-18.19
		c-0.84,0-1.544,0.286-2.143,0.866c-0.602,0.6-0.887,1.313-0.887,2.146v18.202c0,0.832,0.285,1.542,0.887,2.142
		c0.599,0.589,1.303,0.886,2.143,0.886h18.19C89.62-69.912,90.335-70.209,90.927-70.797z M97.643-82.046
		c0,9.929-8.042,17.961-17.953,17.961c-9.917,0-17.958-8.032-17.958-17.961c0-9.908,8.041-17.943,17.958-17.943
		C89.601-99.989,97.643-91.955,97.643-82.046z"/>
	<path fill="#58595B" d="M31.349-84.038c0.268-0.238,0.407-0.582,0.407-1.034c0-0.421-0.139-0.74-0.407-0.974
		c-0.268-0.239-0.745-0.361-1.42-0.361h-1.968v2.736h1.933C30.592-83.671,31.08-83.798,31.349-84.038 M31.861-78.437
		c0.314-0.28,0.465-0.647,0.465-1.1c0-0.42-0.151-0.757-0.465-1.025c-0.303-0.256-0.85-0.384-1.642-0.384h-2.258v2.91h2.27
		C30.999-78.036,31.547-78.17,31.861-78.437z M33.77-82.588c1.048,0.244,1.805,0.674,2.294,1.268
		c0.489,0.612,0.733,1.368,0.733,2.282c0,0.745-0.174,1.409-0.524,2.014c-0.337,0.595-0.815,1.06-1.431,1.404
		c-0.361,0.214-0.931,0.378-1.677,0.471c-1.013,0.128-1.676,0.199-2.003,0.199h-7.707v-14.356h8.347
		c1.397,0,2.469,0.337,3.213,1.014c0.746,0.687,1.118,1.549,1.118,2.548c0,0.85-0.268,1.584-0.803,2.189
		C34.981-83.147,34.457-82.832,33.77-82.588z M41.082-73.914v-16.434c0-1.891-1.537-3.427-3.446-3.427H21.127
		c-1.897,0-3.445,1.536-3.445,3.427v16.434c0,1.885,1.548,3.428,3.445,3.428h16.508C39.545-70.486,41.082-72.029,41.082-73.914z
		 M47.427-82.133c0,9.918-8.08,17.952-18.033,17.952c-9.966,0-18.046-8.035-18.046-17.952c0-9.908,8.08-17.952,18.046-17.952
		C39.347-100.085,47.427-92.041,47.427-82.133z"/>
	<path fill="#58595B" d="M148.298-82.046c0,9.929-8.042,17.961-17.953,17.961c-9.917,0-17.958-8.032-17.958-17.961
		c0-9.908,8.041-17.943,17.958-17.943C140.256-99.989,148.298-91.955,148.298-82.046z M130.412-90.816
		c1.468,0,2.663,1.194,2.663,2.663c0,1.467-1.195,2.662-2.663,2.662c-1.467,0-2.662-1.194-2.662-2.662
		C127.749-89.622,128.944-90.816,130.412-90.816L130.412-90.816z M130.412-81.724c3.547,0,6.432-2.884,6.432-6.429
		c0-3.547-2.884-6.432-6.432-6.432c-3.547,0-6.432,2.885-6.432,6.432C123.98-84.608,126.865-81.724,130.412-81.724 M133.014-76.478
		c1.323-0.301,2.586-0.824,3.734-1.546c0.881-0.554,1.145-1.717,0.591-2.598c-0.553-0.881-1.715-1.147-2.596-0.594
		c-0.001,0-0.001,0.001-0.002,0.001c-2.635,1.657-6.026,1.655-8.659,0c-0.88-0.554-2.042-0.29-2.596,0.589l-0.002,0.003
		c-0.554,0.88-0.29,2.044,0.59,2.598c1.149,0.722,2.411,1.245,3.734,1.546l-3.595,3.596c-0.736,0.736-0.736,1.929,0,2.665
		s1.929,0.736,2.665,0l0,0l3.532-3.533l3.534,3.533c0.734,0.735,1.926,0.736,2.661,0.002l0.002-0.002
		c0.736-0.733,0.737-1.924,0.004-2.66c-0.001-0.001-0.003-0.003-0.004-0.004L133.014-76.478"/>
	<path fill="#58595B" d="M177.08-76.573v-6.534c0-1.437-0.437-2.144-1.353-2.144c-0.9,0-1.333,0.707-1.333,2.144v6.534
		c0,1.445,0.433,2.159,1.333,2.159C176.643-74.414,177.08-75.129,177.08-76.573 M202.566-89.782h3.335v-2.909h-9.703v2.909h3.277
		v17.71h3.091V-89.782z M211.524-72.072h2.778v-15.357h-2.778v11.742c-0.616,0.87-1.199,1.294-1.758,1.294
		c-0.367,0-0.58-0.211-0.644-0.65c-0.034-0.086-0.034-0.426-0.034-1.086v-11.301h-2.784v12.142c0,1.089,0.097,1.82,0.249,2.28
		c0.282,0.779,0.895,1.15,1.79,1.15c1.031,0,2.077-0.622,3.181-1.888V-72.072z M222.098-76.463c0,1.379-0.407,2.07-1.211,2.07
		c-0.459,0-0.918-0.211-1.382-0.691v-9.354c0.465-0.458,0.923-0.675,1.382-0.675c0.804,0,1.211,0.707,1.211,2.096V-76.463z
		 M224.6-73.587c0.181-0.645,0.283-1.675,0.283-3.096v-6.114c0-1.454-0.102-2.472-0.283-3.09c-0.367-1.146-1.111-1.725-2.216-1.725
		c-1.03,0-1.985,0.554-2.88,1.661v-6.74h-2.783v20.619h2.783v-1.489c0.923,1.155,1.886,1.704,2.88,1.704
		C223.489-71.858,224.233-72.448,224.6-73.587z M229.82-81.565v-1.418c0-1.424,0.462-2.132,1.391-2.132s1.399,0.707,1.399,2.132
		v1.418H229.82z M235.324-75.194c0.033-0.275,0.067-0.895,0.067-1.798v-0.404h-2.846c0,1.117-0.031,1.733-0.058,1.893
		c-0.162,0.735-0.562,1.109-1.247,1.109c-0.959,0-1.421-0.707-1.421-2.127v-2.725h5.572v-3.177c0-1.642-0.287-2.846-0.864-3.619
		c-0.777-1.058-1.885-1.571-3.287-1.571c-1.421,0-2.529,0.513-3.334,1.571c-0.592,0.772-0.859,1.977-0.859,3.619v5.381
		c0,1.629,0.305,2.843,0.891,3.6c0.808,1.053,1.917,1.584,3.37,1.584c1.45,0,2.597-0.549,3.369-1.669
		C235.02-74.017,235.233-74.586,235.324-75.194z M238.821-82.035c0,3.591-0.012,7.395-0.811,10.885
		c-0.561,2.455-2.564,4.259-4.983,4.526c-5.702,0.636-11.481,0.636-17.24,0.636c-5.753,0-11.534,0-17.243-0.636
		c-2.415-0.267-4.405-2.071-4.977-4.526c-0.796-3.49-0.796-7.294-0.796-10.885c0-3.593,0-7.401,0.804-10.892
		c0.569-2.441,2.568-4.24,4.976-4.522c5.713-0.636,11.494-0.638,17.245-0.636c5.758-0.002,11.531,0,17.245,0.636
		c2.412,0.282,4.416,2.081,4.982,4.522C238.821-89.436,238.821-85.628,238.821-82.035z M190.29-72.078h-2.816v-1.692
		c-1.111,1.286-2.183,1.913-3.206,1.913c-0.907,0-1.527-0.371-1.817-1.157c-0.152-0.474-0.247-1.214-0.247-2.315v-12.272h2.8v11.431
		c0,0.652,0,0.999,0.037,1.086c0.06,0.444,0.282,0.67,0.658,0.67c0.564,0,1.148-0.438,1.775-1.313v-11.875h2.816V-72.078z
		 M179.888-77.101c0,1.651-0.286,2.873-0.874,3.653c-0.776,1.052-1.874,1.591-3.287,1.591c-1.39,0-2.499-0.539-3.263-1.591
		c-0.6-0.78-0.882-2.002-0.882-3.653v-5.432c0-1.665,0.282-2.875,0.882-3.659c0.764-1.06,1.873-1.588,3.263-1.588
		c1.413,0,2.511,0.528,3.287,1.588c0.588,0.784,0.874,1.993,0.874,3.659V-77.101z M171.555-92.903l-3.752,12.396v8.429h-3.116
		v-8.429c-0.29-1.49-0.917-3.691-1.912-6.592c-0.657-1.935-1.343-3.872-2-5.804h3.285l2.209,8.182l2.128-8.182H171.555z"/>
</g>
<g>
	<g>
		<path fill="none" stroke="#53A711" stroke-miterlimit="10" d="M-14.099-266.228c0,1.1,0.9,2,2,2h4c1.1,0,2-0.9,2-2v-4
			c0-1.1-0.9-2-2-2h-4c-1.1,0-2,0.9-2,2V-266.228z"/>
	</g>
	<g>
		<path fill="none" stroke="#53A711" stroke-miterlimit="10" d="M17.901-266.228c0,1.1,0.9,2,2,2h4c1.1,0,2-0.9,2-2v-4
			c0-1.1-0.9-2-2-2h-4c-1.1,0-2,0.9-2,2V-266.228z"/>
	</g>
	<g>
		<path fill="none" stroke="#53A711" stroke-miterlimit="10" d="M-14.099-234.228c0,1.1,0.9,2,2,2h4c1.1,0,2-0.9,2-2v-4
			c0-1.1-0.9-2-2-2h-4c-1.1,0-2,0.9-2,2V-234.228z"/>
	</g>
	<g>
		<path fill="none" stroke="#53A711" stroke-miterlimit="10" d="M17.901-234.228c0,1.1,0.9,2,2,2h4c1.1,0,2-0.9,2-2v-4
			c0-1.1-0.9-2-2-2h-4c-1.1,0-2,0.9-2,2V-234.228z"/>
	</g>
	<line fill="none" stroke="#53A711" stroke-miterlimit="10" x1="-6.099" y1="-268.228" x2="17.901" y2="-268.228"/>
	<line fill="none" stroke="#53A711" stroke-miterlimit="10" x1="-6.099" y1="-236.228" x2="17.901" y2="-236.228"/>
	<line fill="none" stroke="#53A711" stroke-miterlimit="10" x1="21.901" y1="-264.228" x2="21.901" y2="-240.228"/>
	<line fill="none" stroke="#53A711" stroke-miterlimit="10" x1="-10.099" y1="-264.228" x2="-10.099" y2="-240.228"/>
</g>
<g>
	<g>
		<path fill="none" stroke="#53A711" stroke-miterlimit="10" d="M207.032-258.64l2.829,2.829c0.778,0.778,0.778,2.051,0,2.828
			l-18.149,18.149c-0.778,0.778-2.051,0.778-2.828,0l-11.45-11.45"/>
	</g>
	<path fill="none" stroke="#53A711" stroke-miterlimit="10" d="M175.676-253.505l-1.317,1.317c-0.778,0.778-0.778,2.05,0,2.828
		l0.383,0.383c0.778,0.778,2.051,0.778,2.829,0l18.149-18.149c0.778-0.778,2.051-0.778,2.828,0l2.806,2.806"/>
	<path fill="none" stroke="#53A711" stroke-miterlimit="10" d="M196.072-269.6c0,0-0.484-0.484-1.075-1.075
		c-0.592-0.591-1.712-0.439-2.49,0.339l-0.748,0.748"/>
	<g>
		<path fill="none" stroke="#53A711" stroke-miterlimit="10" d="M205.677-262.116c0.778,0.778,0.778,2.051,0,2.828l-6.282,6.282
			c-0.778,0.778-2.051,0.778-2.828,0l-0.825-0.825c-0.778-0.778-0.778-2.051,0-2.828l6.282-6.282c0.778-0.778,2.051-0.778,2.828,0
			L205.677-262.116z"/>
	</g>
	<circle fill="none" stroke="#53A711" stroke-miterlimit="10" cx="197.958" cy="-255.222" r="1.166"/>
	<polyline fill="none" stroke="#53A711" stroke-miterlimit="10" points="175.861,-251.422 186.85,-270.08 192.412,-267.851 	"/>
	<line fill="none" stroke="#53A711" stroke-miterlimit="10" x1="176.862" y1="-250.391" x2="194.043" y2="-267.571"/>
	<line fill="none" stroke="#53A711" stroke-miterlimit="10" x1="203.099" y1="-258.831" x2="201.39" y2="-260.54"/>
	<line fill="none" stroke="#53A711" stroke-miterlimit="10" x1="201.842" y1="-257.574" x2="200.133" y2="-259.283"/>
	<line fill="none" stroke="#53A711" stroke-miterlimit="10" x1="200.585" y1="-256.317" x2="198.876" y2="-258.026"/>
</g>
<g>
	<path fill="none" stroke="#53A711" stroke-miterlimit="10" d="M79.205-224.979l-8.744,3.771c-1.01,0.436-1.753-0.104-1.651-1.199
		l0.698-7.489c0.102-1.095-0.409-2.667-1.135-3.493l-4.967-5.649c-0.726-0.826-0.443-1.699,0.631-1.941l7.339-1.65
		c1.073-0.241,2.41-1.213,2.972-2.159l3.837-6.469c0.561-0.946,1.479-0.946,2.041,0l3.837,6.469
		c0.561,0.946,1.898,1.918,2.972,2.159l7.339,1.65c1.073,0.241,1.357,1.115,0.631,1.941l-4.967,5.649
		c-0.726,0.826-1.237,2.398-1.135,3.493l0.698,7.489c0.102,1.095-0.641,1.635-1.651,1.199l-6.091-2.626"/>
</g>
</svg>
