<?xml version="1.0" encoding="utf-8"?>
<!-- Generator: Adobe Illustrator 22.0.1, SVG Export Plug-In . SVG Version: 6.00 Build 0)  -->
<svg version="1.1" id="Layer_1" xmlns="http://www.w3.org/2000/svg" xmlns:xlink="http://www.w3.org/1999/xlink" x="0px" y="0px"
	 viewBox="0 0 533.998 734.612" enable-background="new 0 0 533.998 734.612" xml:space="preserve">
<g>
	<defs>
		<path id="SVGID_1_" d="M169.904,499.254c0-47.636,40.923-70.5,83.75-70.5h11.42c45.682,0,79.944,22.864,80.896,70.5
			c0.951,36.202-16.18,69.548-88.51,69.548C194.647,568.802,169.904,536.41,169.904,499.254 M186.083,223.92
			c0-31.439,20.937-59.068,70.427-59.068c48.537,0,73.281,21.912,73.281,59.068c0,29.535-19.986,61.927-64.716,61.927h-12.373
			C206.068,285.846,186.083,253.455,186.083,223.92 M33.81,198.196c0,82.887,41.875,134.333,85.653,158.151v2.857
			C65.215,383.023,17.63,438.281,17.63,527.836c0,113.372,101.832,183.873,240.782,183.873c138.95,0,239.831-70.501,239.831-196.259
			c0-86.697-53.297-141.955-111.351-157.198v-2.857c59.958-29.534,95.171-92.414,95.171-157.198
			c0-104.798-99.93-176.252-224.603-176.252C132.787,21.944,33.81,93.398,33.81,198.196"/>
	</defs>
	<clipPath id="SVGID_2_">
		<use xlink:href="#SVGID_1_"  display="none" overflow="visible"/>
	</clipPath>
</g>
<g>
	<defs>
		<path id="SVGID_3_" d="M60.183,406.615l45.854-374.473h330.53v143.293H232.135l-13.374,85.021h22.927
			c59.854,0,109.53,19.748,149.025,59.229c40.123,38.853,60.184,91.707,60.184,158.578c0,72.602-22.927,129.919-68.781,171.952
			c-46.496,41.405-104.768,62.094-174.818,62.094c-37.584,0-75.154-7.971-112.724-23.883
			c-37.585-16.553-65.915-38.524-85.021-65.915l80.245-109.858c13.374,15.927,31.674,29.301,54.929,40.122
			c23.24,10.837,45.376,16.24,66.393,16.24c25.464,0,46.332-7.791,62.571-23.404c16.24-15.599,24.36-35.823,24.36-60.661
			c0-28.658-10.986-51.735-32.958-69.259c-21.972-17.509-52.063-26.271-90.275-26.271C121.949,389.42,83.737,395.152,60.183,406.615
			z"/>
	</defs>
	<clipPath id="SVGID_4_">
		<use xlink:href="#SVGID_3_"  overflow="visible"/>
	</clipPath>
</g>
</svg>
