<?xml version="1.0" encoding="utf-8"?>
<!-- Generator: Adobe Illustrator 22.0.1, SVG Export Plug-In . SVG Version: 6.00 Build 0)  -->
<svg version="1.1" id="Layer_1" xmlns="http://www.w3.org/2000/svg" xmlns:xlink="http://www.w3.org/1999/xlink" x="0px" y="0px"
	 width="63.2px" height="63.2px" viewBox="0 0 63.2 63.2" enable-background="new 0 0 63.2 63.2" xml:space="preserve">
<g>
	<path fill-rule="evenodd" clip-rule="evenodd" fill="#FFFFFF" d="M0,31.6c0-2.4,0.3-4.8,0.8-7c0,0.1,0.1,0.2,0.1,0.2
		c0.1,0.3,0.4,0.6,0.6,0.7c0.2,0.2,0.5,0.3,0.9,0.4l13.5,4.7c1.9,0.7,3.6,1.4,5.1,2.3c1.4,0.8,2.6,1.8,3.5,2.9
		c0.9,1.1,1.6,2.4,2.1,3.8c0.5,1.4,0.7,3.1,0.7,5v3.4H4.6C1.7,43.3,0,37.7,0,31.6L0,31.6z M28.2,13.9c0.1,0,0.1,0,0.2,0
		c0.1,0,0.1,0,0.1,0c0,0,0.1,0,0.1,0.1c0,0,0,0.1,0,0.1V17h6.6c0,0,0.1,0,0.1,0c0,0,0,0,0.1,0.1c0,0,0,0.1,0,0.2c0,0.1,0,0.1,0,0.2
		c0,0.1,0,0.2,0,0.2c0,0.1,0,0.1,0,0.2c0,0,0,0.1-0.1,0.1c0,0,0,0-0.1,0h-7.1c-0.1,0-0.2,0-0.3-0.1c-0.1-0.1-0.1-0.2-0.1-0.3v-3.5
		c0-0.1,0-0.1,0.1-0.2C27.9,13.9,28,13.9,28.2,13.9L28.2,13.9z M3.3,17.6c0.4,0.1,0.8,0.2,1.3,0.4l12.9,4.9c1.9,0.7,3.6,1.4,5,2.2
		c1.4,0.8,2.6,1.6,3.6,2.5c1,0.9,1.8,1.9,2.5,2.9c0.7,1.1,1.2,2.2,1.6,3.5h0.1c0.5-1.5,1.2-2.8,1.9-4c0.7-1.2,1.6-2.2,2.7-3.2
		c1-1,2.3-1.9,3.8-2.7c1.5-0.8,3.3-1.6,5.3-2.4l14.8-5.8l0.2-0.1C53.5,6.3,43.3,0,31.6,0C19.2,0,8.5,7.2,3.3,17.6L3.3,17.6z
		 M62.1,23.3c0.7,2.6,1.1,5.4,1.1,8.3c0,6-1.7,11.7-4.6,16.5H34.3v-3.4c0-1.9,0.2-3.6,0.7-5.2c0.4-1.5,1.1-2.9,2.1-4.1
		c0.9-1.2,2.1-2.3,3.6-3.2c1.4-0.9,3.2-1.8,5.2-2.6L61,24c0.4-0.1,0.7-0.2,0.9-0.4C62,23.5,62.1,23.4,62.1,23.3L62.1,23.3z
		 M51.3,56.3c-5.4,4.3-12.3,6.9-19.7,6.9c-7.5,0-14.3-2.6-19.7-6.9H51.3z"/>
</g>
</svg>
