<?xml version="1.0" encoding="utf-8"?>
<!-- Generator: Adobe Illustrator 22.0.1, SVG Export Plug-In . SVG Version: 6.00 Build 0)  -->
<svg version="1.1" id="Layer_1" xmlns="http://www.w3.org/2000/svg" xmlns:xlink="http://www.w3.org/1999/xlink" x="0px" y="0px"
	 width="187.4px" height="63.2px" viewBox="0 0 187.4 63.2" enable-background="new 0 0 187.4 63.2" xml:space="preserve">
<g>
	<g>
		<path fill="#FFFFFF" d="M88,39.1c-0.5-1-0.9-1.9-1.3-2.6c-0.4-0.7-0.7-1.3-1.1-1.7c-0.3-0.5-0.6-0.8-0.9-1.1
			c-0.3-0.3-0.5-0.5-0.7-0.6c-0.2-0.1-0.5-0.3-0.7-0.3c0.3-0.2,0.8-0.8,1.6-1.7c0.8-0.9,1.7-2.1,2.8-3.6h-3.4
			c-0.6,0.8-1.2,1.6-1.8,2.3c-0.6,0.7-1.1,1.4-1.5,1.9c-0.5,0.6-0.9,1-1.2,1.3v-5.6H77v11.7h2.8v-5.4c0.3,0.1,0.6,0.2,0.9,0.3
			c0.3,0.1,0.6,0.3,0.9,0.6c0.3,0.2,0.6,0.6,0.9,1c0.3,0.4,0.7,0.9,1,1.5c0.4,0.6,0.7,1.3,1.1,2.1H88L88,39.1z M99.3,31.6
			c0-0.9-0.1-1.6-0.3-2.2c-0.2-0.6-0.5-1-0.9-1.4c-0.4-0.3-0.9-0.6-1.6-0.7c-0.6-0.1-1.4-0.2-2.2-0.2c-0.6,0-1.1,0-1.7,0.1
			c-0.6,0.1-1.1,0.1-1.6,0.2c-0.5,0.1-1,0.2-1.4,0.3l0.5,2.3c0.3-0.1,0.7-0.2,1.1-0.3c0.4-0.1,0.8-0.1,1.2-0.2
			c0.4,0,0.8-0.1,1.3-0.1c0.6,0,1.1,0,1.5,0.1c0.4,0.1,0.7,0.2,0.9,0.4c0.2,0.2,0.4,0.4,0.4,0.8c0.1,0.3,0.1,0.7,0.1,1.2
			c-0.5-0.1-1-0.2-1.4-0.2c-0.5-0.1-1-0.1-1.4-0.1c-0.7,0-1.3,0-1.9,0.1c-0.6,0.1-1,0.3-1.4,0.5c-0.4,0.3-0.7,0.7-0.9,1.2
			c-0.2,0.5-0.3,1.2-0.3,2c0,0.8,0.1,1.4,0.3,1.9c0.2,0.5,0.4,0.9,0.8,1.2c0.4,0.3,0.9,0.5,1.5,0.6c0.6,0.1,1.4,0.2,2.3,0.2
			c0.4,0,0.8,0,1.3-0.1c0.5,0,0.9-0.1,1.4-0.2c0.5-0.1,0.9-0.2,1.4-0.3c0.4-0.1,0.8-0.2,1.2-0.4V31.6L99.3,31.6z M96.6,36.9
			c-0.3,0.1-0.7,0.2-1.1,0.3c-0.4,0.1-0.8,0.1-1.2,0.1c-0.4,0-0.8,0-1.1-0.1c-0.3,0-0.5-0.1-0.7-0.3c-0.2-0.1-0.3-0.3-0.3-0.6
			c-0.1-0.2-0.1-0.6-0.1-1c0-0.4,0-0.7,0.1-0.9c0.1-0.2,0.2-0.4,0.4-0.5c0.2-0.1,0.4-0.2,0.7-0.2c0.3,0,0.6-0.1,1-0.1
			c0.4,0,0.8,0,1.2,0c0.4,0,0.8,0.1,1.1,0.2V36.9L96.6,36.9z M109.6,34.4c-0.5-1.2-1-2.4-1.5-3.5c-0.5-1.1-1-2.3-1.5-3.4h-4.1v11.7
			h2.8v-8.5c0.3,0.6,0.5,1.2,0.8,1.8c0.3,0.7,0.5,1.3,0.8,2c0.3,0.7,0.5,1.4,0.8,2.1c0.3,0.7,0.5,1.3,0.7,1.9h2.1
			c0.2-0.6,0.5-1.2,0.7-1.9c0.3-0.7,0.5-1.3,0.8-2c0.3-0.7,0.6-1.4,0.9-2c0.3-0.7,0.6-1.3,0.8-1.9v8.5h2.8V27.4h-4
			c-0.5,1.1-1,2.2-1.5,3.4C110.5,32,110.1,33.1,109.6,34.4L109.6,34.4z M128.5,36.5c-0.2,0.1-0.5,0.1-0.8,0.2
			c-0.3,0.1-0.6,0.1-0.9,0.2c-0.3,0-0.6,0.1-0.9,0.1c-0.3,0-0.5,0-0.7,0c-0.5,0-1,0-1.3-0.1c-0.4-0.1-0.7-0.2-0.9-0.4
			c-0.2-0.2-0.4-0.5-0.6-0.9c-0.1-0.4-0.2-0.9-0.2-1.5h7.5c0-1.1,0-2.1-0.1-2.9c-0.1-0.8-0.3-1.5-0.5-2c-0.3-0.5-0.6-0.9-1-1.2
			c-0.4-0.3-0.9-0.5-1.5-0.6c-0.6-0.1-1.2-0.2-2-0.2c-0.8,0-1.6,0.1-2.3,0.3c-0.7,0.2-1.2,0.5-1.7,1c-0.5,0.5-0.8,1.1-1.1,1.9
			c-0.2,0.8-0.4,1.8-0.4,2.9c0,1.2,0.1,2.2,0.4,3c0.3,0.8,0.7,1.4,1.2,1.9c0.5,0.5,1.1,0.8,1.8,1c0.7,0.2,1.5,0.3,2.3,0.3
			c0.3,0,0.6,0,1,0c0.4,0,0.7-0.1,1.1-0.1c0.4-0.1,0.7-0.1,1.1-0.2c0.3-0.1,0.7-0.2,1-0.3L128.5,36.5L128.5,36.5z M124.8,29.3
			c0.4,0,0.7,0,1,0.1c0.3,0.1,0.5,0.2,0.7,0.4c0.2,0.2,0.3,0.4,0.4,0.8c0.1,0.3,0.1,0.7,0.2,1.3h-4.9c0.1-0.6,0.2-1.1,0.4-1.5
			c0.2-0.4,0.5-0.6,0.8-0.8C123.8,29.4,124.2,29.3,124.8,29.3L124.8,29.3z M139.7,34.2v4.9h2.8V27.4h-2.8v4.3h-4.6v-4.3h-2.8v11.7
			h2.8v-4.9H139.7L139.7,34.2z M153.2,34.2v4.9h2.8V27.4h-2.8v4.3h-4.6v-4.3h-2.8v11.7h2.8v-4.9H153.2L153.2,34.2z M165.5,37H162
			v-3.1h3.4c0.4,0,0.8,0.1,1,0.3c0.2,0.2,0.3,0.6,0.3,1.2c0,0.6-0.1,1-0.3,1.2C166.2,36.9,165.9,37,165.5,37L165.5,37z M162,31.7
			v-4.2h-2.8v11.7h6.9c0.8,0,1.5-0.1,2-0.4c0.5-0.2,0.9-0.6,1.2-1.2c0.3-0.5,0.4-1.3,0.4-2.2c0-1.2-0.3-2.1-0.9-2.8
			c-0.6-0.6-1.5-0.9-2.7-0.9H162L162,31.7z M173.8,27.4h-2.8v11.7h2.8V27.4L173.8,27.4z M184.5,39.1h2.8V27.4h-2.8
			c-0.4,0.6-0.7,1.3-1.1,1.9c-0.4,0.7-0.8,1.3-1.2,2c-0.4,0.7-0.8,1.3-1.2,1.9c-0.4,0.6-0.8,1.1-1.2,1.6v-7.4h-2.8v11.7h2.8
			c0.5-0.7,1.1-1.4,1.6-2.2c0.5-0.8,1.1-1.6,1.6-2.4c0.5-0.8,1-1.7,1.5-2.5V39.1L184.5,39.1z M178.7,23.1c0,1.1,0.3,1.9,0.9,2.4
			c0.6,0.5,1.4,0.8,2.5,0.8c1.1,0,2-0.2,2.5-0.8c0.6-0.5,0.9-1.3,0.9-2.4h-1.8c0,0.4-0.1,0.6-0.2,0.8c-0.1,0.2-0.3,0.3-0.6,0.4
			c-0.2,0.1-0.5,0.1-0.8,0.1c-0.3,0-0.6,0-0.9-0.1c-0.2-0.1-0.4-0.2-0.5-0.4c-0.1-0.2-0.2-0.5-0.2-0.8H178.7L178.7,23.1z M79.8,48.5
			h5.3V46H77v11.7h2.8V48.5L79.8,48.5z M91.8,58c0.9,0,1.8-0.1,2.5-0.3c0.7-0.2,1.3-0.5,1.7-1c0.5-0.5,0.8-1.1,1-1.9
			c0.2-0.8,0.3-1.8,0.3-3c0-1.2-0.1-2.2-0.3-3c-0.2-0.8-0.6-1.4-1-1.9c-0.5-0.5-1-0.8-1.7-1c-0.7-0.2-1.5-0.3-2.4-0.3
			c-0.9,0-1.7,0.1-2.4,0.3c-0.7,0.2-1.3,0.5-1.7,1s-0.8,1.1-1,1.9c-0.2,0.8-0.3,1.8-0.3,3c0,1.2,0.1,2.2,0.3,3
			c0.2,0.8,0.6,1.4,1,1.9c0.5,0.5,1,0.8,1.7,1C90.1,57.9,90.9,58,91.8,58L91.8,58z M91.8,48c0.5,0,0.9,0,1.3,0.1
			c0.3,0.1,0.6,0.3,0.8,0.5c0.2,0.3,0.3,0.7,0.4,1.2c0.1,0.5,0.1,1.2,0.1,2c0,0.8,0,1.5-0.1,2c-0.1,0.5-0.2,0.9-0.4,1.2
			c-0.2,0.3-0.5,0.5-0.8,0.6c-0.3,0.1-0.8,0.2-1.3,0.1c-0.5,0-0.9,0-1.2-0.1c-0.3-0.1-0.6-0.3-0.8-0.6c-0.2-0.3-0.3-0.7-0.4-1.2
			c-0.1-0.5-0.1-1.2-0.1-2c0-0.8,0-1.5,0.1-2c0.1-0.5,0.2-0.9,0.4-1.2c0.2-0.3,0.5-0.4,0.8-0.5C90.9,48,91.3,48,91.8,48L91.8,48z
			 M103,48.5c0.2-0.1,0.4-0.1,0.7-0.2c0.3,0,0.5-0.1,0.8-0.1c0.3,0,0.5,0,0.8,0c0.5,0,0.9,0,1.3,0.1c0.3,0.1,0.6,0.3,0.8,0.5
			c0.2,0.3,0.4,0.6,0.5,1.1c0.1,0.5,0.1,1.1,0.1,1.9c0,0.7,0,1.3-0.1,1.8c-0.1,0.5-0.2,0.9-0.4,1.1c-0.2,0.3-0.5,0.5-0.8,0.6
			c-0.3,0.1-0.8,0.2-1.3,0.2c-0.4,0-0.8,0-1.2-0.1c-0.3-0.1-0.6-0.2-0.8-0.4c-0.2-0.2-0.3-0.4-0.3-0.6V48.5L103,48.5z M100.2,62.1
			h2.8v-4.7c0.2,0.1,0.5,0.2,0.7,0.3c0.3,0.1,0.6,0.2,0.9,0.3c0.3,0.1,0.7,0.1,1.2,0.1c0.8,0,1.5-0.1,2.1-0.3c0.6-0.2,1.2-0.5,1.6-1
			c0.4-0.5,0.8-1.1,1-1.9c0.2-0.8,0.3-1.8,0.4-3c0-1.2-0.1-2.2-0.3-3c-0.2-0.8-0.6-1.4-1-1.9c-0.5-0.5-1-0.8-1.7-1
			c-0.7-0.2-1.5-0.3-2.5-0.3c-0.4,0-0.9,0-1.3,0.1c-0.5,0-0.9,0.1-1.4,0.2c-0.5,0.1-0.9,0.2-1.3,0.3c-0.4,0.1-0.8,0.2-1.1,0.4V62.1
			L100.2,62.1z M118.7,58c0.9,0,1.8-0.1,2.5-0.3c0.7-0.2,1.3-0.5,1.7-1c0.5-0.5,0.8-1.1,1-1.9c0.2-0.8,0.3-1.8,0.3-3
			c0-1.2-0.1-2.2-0.3-3c-0.2-0.8-0.6-1.4-1-1.9s-1-0.8-1.7-1c-0.7-0.2-1.5-0.3-2.4-0.3c-0.9,0-1.7,0.1-2.4,0.3
			c-0.7,0.2-1.3,0.5-1.7,1c-0.5,0.5-0.8,1.1-1,1.9c-0.2,0.8-0.3,1.8-0.3,3c0,1.2,0.1,2.2,0.3,3c0.2,0.8,0.6,1.4,1,1.9
			c0.5,0.5,1,0.8,1.7,1C117,57.9,117.8,58,118.7,58L118.7,58z M118.7,48c0.5,0,0.9,0,1.3,0.1c0.3,0.1,0.6,0.3,0.8,0.5
			c0.2,0.3,0.3,0.7,0.4,1.2c0.1,0.5,0.1,1.2,0.1,2c0,0.8,0,1.5-0.1,2c-0.1,0.5-0.2,0.9-0.4,1.2c-0.2,0.3-0.5,0.5-0.8,0.6
			c-0.3,0.1-0.8,0.2-1.3,0.1c-0.5,0-0.9,0-1.2-0.1c-0.3-0.1-0.6-0.3-0.8-0.6c-0.2-0.3-0.3-0.7-0.4-1.2c-0.1-0.5-0.1-1.2-0.1-2
			c0-0.8,0-1.5,0.1-2c0.1-0.5,0.2-0.9,0.4-1.2c0.2-0.3,0.5-0.4,0.8-0.5C117.8,48,118.3,48,118.7,48L118.7,48z M129.3,46
			c-0.1,1.6-0.3,3.1-0.6,4.7c-0.3,1.5-0.6,3-1.1,4.5h-2.1l0.6,5.7h2.3v-3.2h8.8v3.2h2.3l0.7-5.7H138V46H129.3L129.3,46z M135.2,48.5
			v6.7h-4.5c0.2-0.8,0.4-1.5,0.5-2.3c0.2-0.8,0.3-1.5,0.4-2.3c0.1-0.7,0.2-1.5,0.3-2.1H135.2L135.2,48.5z"/>
		<path fill="#FFFFFF" d="M87.6,5.2v12.4H76.1V5.2h0.8v11.7h4.5V5.2h0.8v11.7h4.6V5.2H87.6L87.6,5.2z M89.9,17.6V5.2h0.8v5.7h2
			c0.2,0,0.4,0,0.7-0.1c0.2-0.1,0.4-0.2,0.7-0.3c0.2-0.1,0.4-0.3,0.6-0.6c0.2-0.2,0.3-0.6,0.4-1l1.1-3.7h0.7l-0.9,3.6
			c-0.2,0.6-0.4,1.1-0.7,1.5c-0.3,0.4-0.6,0.7-1.1,0.8c0.6,0.1,1,0.4,1.2,0.8c0.3,0.4,0.5,1,0.6,1.6l1.1,4.1h-0.8l-1-4
			c-0.1-0.4-0.2-0.8-0.4-1c-0.2-0.3-0.3-0.5-0.5-0.6c-0.2-0.1-0.4-0.3-0.6-0.3c-0.2-0.1-0.5-0.1-0.7-0.1h-2.2v6.1H89.9L89.9,17.6z
			 M105.1,14.2c0,0.5-0.1,1-0.3,1.4c-0.2,0.4-0.4,0.8-0.7,1.1c-0.3,0.3-0.7,0.6-1.1,0.8c-0.4,0.2-0.9,0.3-1.4,0.3
			c-0.6,0-1.1-0.1-1.5-0.3c-0.4-0.2-0.8-0.4-1.1-0.8c-0.3-0.3-0.5-0.7-0.7-1.2c-0.2-0.4-0.2-0.9-0.2-1.5V8.6c0-0.5,0.1-0.9,0.2-1.4
			c0.2-0.4,0.4-0.8,0.7-1.1c0.3-0.3,0.7-0.6,1.1-0.7c0.4-0.2,0.9-0.3,1.5-0.3c0.5,0,1,0.1,1.4,0.3c0.4,0.2,0.8,0.4,1.1,0.7
			c0.3,0.3,0.5,0.7,0.7,1.1c0.2,0.4,0.3,0.9,0.3,1.4V14.2L105.1,14.2z M104.3,8.6c0-0.4-0.1-0.7-0.2-1.1c-0.1-0.3-0.3-0.6-0.5-0.9
			c-0.2-0.3-0.5-0.5-0.8-0.6c-0.3-0.1-0.7-0.2-1.1-0.2c-0.4,0-0.8,0.1-1.2,0.2c-0.3,0.1-0.6,0.3-0.9,0.6c-0.2,0.2-0.4,0.5-0.5,0.9
			c-0.1,0.3-0.2,0.7-0.2,1.1v5.5c0,0.8,0.2,1.5,0.7,2.1c0.5,0.5,1.2,0.8,2,0.8c0.4,0,0.8-0.1,1.1-0.2c0.3-0.1,0.6-0.3,0.8-0.6
			c0.2-0.3,0.4-0.5,0.6-0.9c0.1-0.3,0.2-0.7,0.2-1.1V8.6L104.3,8.6z M113.4,5.9h-4.6v5.8c0,1,0,1.9-0.1,2.6
			c-0.1,0.7-0.2,1.3-0.4,1.8c-0.2,0.5-0.5,0.8-0.8,1.1c-0.3,0.3-0.7,0.5-1.2,0.7c-0.1-0.1-0.1-0.2-0.2-0.3c0-0.1-0.1-0.2-0.1-0.3
			c0.3-0.2,0.6-0.4,0.9-0.7c0.3-0.2,0.5-0.6,0.6-1c0.2-0.4,0.3-0.9,0.4-1.5c0.1-0.6,0.1-1.5,0.1-2.5V5.2h6.2v12.4h-0.8V5.9
			L113.4,5.9z M122.9,17.6c0-0.2-0.1-0.4-0.2-0.7c-0.1-0.3-0.2-0.6-0.3-0.9c-0.1-0.3-0.2-0.6-0.3-0.9c-0.1-0.3-0.1-0.5-0.2-0.7h-4.7
			l-0.9,3.1h-0.8l3.6-12.4h0.9l3.6,12.4H122.9L122.9,17.6z M120.5,9.3l-0.8-3h-0.1c-0.7,2.4-1.4,4.9-2.1,7.5h4.3L120.5,9.3
			L120.5,9.3z M128.4,17.6V5.2h6.1v0.7h-5.3v4.9h2.7c0.6,0,1.2,0.1,1.6,0.3c0.4,0.2,0.8,0.4,1.1,0.7c0.3,0.3,0.5,0.7,0.6,1.1
			s0.2,0.8,0.2,1.3c0,1.1-0.3,2-0.9,2.6c-0.6,0.6-1.5,0.9-2.6,0.9H128.4L128.4,17.6z M134.5,14.2c0-0.8-0.2-1.4-0.7-1.9
			c-0.4-0.5-1.1-0.7-2-0.7h-2.6v5.3h2.6c0.9,0,1.6-0.2,2-0.7C134.3,15.7,134.5,15,134.5,14.2L134.5,14.2z M143.5,17.6V6.8h0
			l-2.4,4.5l-3.4,6.4h-0.8V5.2h0.8V16c0,0,0,0,0,0c0,0,0,0,0,0c0.4-0.8,0.8-1.5,1.2-2.3c0.4-0.8,0.8-1.5,1.2-2.3l3.4-6.3h0.8v12.4
			H143.5L143.5,17.6z M149.3,5.1c1,0,1.9,0.3,2.4,0.8c0.6,0.5,0.8,1.3,0.8,2.2c0,0.2,0,0.5-0.1,0.8c0,0.3-0.1,0.6-0.2,0.8
			c-0.1,0.3-0.3,0.5-0.5,0.8c-0.2,0.2-0.5,0.4-0.8,0.5v0c0.4,0.1,0.7,0.3,0.9,0.6c0.2,0.3,0.4,0.5,0.5,0.8c0.1,0.3,0.2,0.6,0.2,0.9
			c0,0.3,0,0.5,0,0.7c0,1.2-0.3,2.1-1,2.7c-0.6,0.6-1.5,0.9-2.7,0.9c-0.4,0-0.8-0.1-1.2-0.2c-0.4-0.1-0.7-0.3-1-0.5
			c-0.3-0.2-0.6-0.5-0.8-0.8c-0.2-0.3-0.4-0.7-0.4-1.1c0.1,0,0.3-0.1,0.4-0.1c0.1,0,0.2-0.1,0.4-0.1c0.1,0.7,0.5,1.2,1,1.6
			c0.5,0.3,1.1,0.5,1.7,0.5c0.9,0,1.6-0.3,2.1-0.8c0.5-0.5,0.7-1.2,0.7-2.2c0-0.5-0.1-0.9-0.2-1.2c-0.1-0.3-0.3-0.6-0.5-0.8
			c-0.2-0.2-0.4-0.4-0.7-0.5c-0.3-0.1-0.5-0.2-0.8-0.2h-1.3v-0.7h1.1c0.7,0,1.2-0.2,1.6-0.7c0.4-0.5,0.6-1.1,0.6-1.9
			c0-0.4-0.1-0.7-0.2-1c-0.1-0.3-0.3-0.5-0.5-0.7c-0.2-0.2-0.5-0.3-0.8-0.4c-0.3-0.1-0.6-0.1-1-0.1c-0.7,0-1.3,0.2-1.8,0.5
			c-0.5,0.3-0.8,0.8-1,1.5l-0.8-0.3c0.1-0.4,0.2-0.8,0.5-1.1c0.2-0.3,0.5-0.6,0.8-0.8c0.3-0.2,0.7-0.4,1-0.5
			C148.5,5.1,148.9,5.1,149.3,5.1L149.3,5.1z M160.9,17.6v-6h-5.3v6h-0.8V5.2h0.8v5.7h5.3V5.2h0.8v12.4H160.9L160.9,17.6z
			 M164.1,17.6V5.2h6.3v0.8h-5.5v5h4.8v0.7h-4.8v5.2h5.5v0.8H164.1L164.1,17.6z M178.5,15.3c-0.1,0.4-0.2,0.8-0.4,1.1
			c-0.2,0.3-0.5,0.6-0.8,0.8c-0.3,0.2-0.6,0.4-1,0.5c-0.4,0.1-0.7,0.2-1.1,0.2c-0.5,0-1-0.1-1.5-0.3c-0.4-0.2-0.8-0.4-1.1-0.7
			c-0.3-0.3-0.5-0.7-0.7-1.1c-0.2-0.4-0.3-0.9-0.3-1.5V8.6c0-0.5,0.1-1,0.3-1.4c0.2-0.4,0.4-0.8,0.7-1.1c0.3-0.3,0.7-0.5,1.1-0.7
			c0.4-0.2,0.9-0.3,1.5-0.3c0.8,0,1.5,0.2,2.1,0.6c0.6,0.4,1,1,1.2,1.8l-0.8,0.3c-0.1-0.6-0.4-1.1-0.9-1.4c-0.4-0.3-1-0.5-1.7-0.5
			c-0.9,0-1.5,0.3-2,0.8c-0.5,0.5-0.7,1.2-0.7,2v5.7c0,0.4,0.1,0.8,0.2,1.1c0.1,0.3,0.3,0.6,0.5,0.9c0.2,0.2,0.5,0.4,0.9,0.6
			c0.3,0.1,0.7,0.2,1.1,0.2c0.6,0,1.2-0.2,1.6-0.5c0.5-0.3,0.8-0.8,0.9-1.5L178.5,15.3L178.5,15.3z M186.5,17.6
			c0-0.2-0.1-0.4-0.2-0.7c-0.1-0.3-0.2-0.6-0.2-0.9c-0.1-0.3-0.2-0.6-0.3-0.9c-0.1-0.3-0.1-0.5-0.2-0.7h-4.7l-0.9,3.1h-0.8l3.6-12.4
			h0.9l3.6,12.4H186.5L186.5,17.6z M184.1,9.3l-0.8-3h-0.1c-0.7,2.4-1.4,4.9-2.1,7.5h4.3L184.1,9.3L184.1,9.3z"/>
	</g>
	<path fill-rule="evenodd" clip-rule="evenodd" fill="#FFFFFF" d="M0,31.6c0-2.4,0.3-4.8,0.8-7c0,0.1,0.1,0.2,0.1,0.2
		c0.1,0.3,0.4,0.6,0.6,0.7c0.2,0.2,0.5,0.3,0.9,0.4l13.5,4.7c1.9,0.7,3.6,1.4,5.1,2.3c1.4,0.8,2.6,1.8,3.5,2.9
		c0.9,1.1,1.6,2.4,2.1,3.8c0.5,1.4,0.7,3.1,0.7,5v3.4H4.6C1.7,43.3,0,37.7,0,31.6L0,31.6z M28.2,13.9c0.1,0,0.1,0,0.2,0
		c0.1,0,0.1,0,0.1,0c0,0,0.1,0,0.1,0.1c0,0,0,0.1,0,0.1V17h6.6c0,0,0.1,0,0.1,0c0,0,0,0,0.1,0.1c0,0,0,0.1,0,0.2c0,0.1,0,0.1,0,0.2
		c0,0.1,0,0.2,0,0.2c0,0.1,0,0.1,0,0.2c0,0,0,0.1-0.1,0.1c0,0,0,0-0.1,0h-7.1c-0.1,0-0.2,0-0.3-0.1c-0.1-0.1-0.1-0.2-0.1-0.3v-3.5
		c0-0.1,0-0.1,0.1-0.2C27.9,13.9,28,13.9,28.2,13.9L28.2,13.9z M3.3,17.6c0.4,0.1,0.8,0.2,1.3,0.4l12.9,4.9c1.9,0.7,3.6,1.4,5,2.2
		c1.4,0.8,2.6,1.6,3.6,2.5c1,0.9,1.8,1.9,2.5,2.9c0.7,1.1,1.2,2.2,1.6,3.5h0.1c0.5-1.5,1.2-2.8,1.9-4c0.7-1.2,1.6-2.2,2.7-3.2
		c1-1,2.3-1.9,3.8-2.7c1.5-0.8,3.3-1.6,5.3-2.4l14.8-5.8l0.2-0.1C53.5,6.3,43.3,0,31.6,0C19.2,0,8.5,7.2,3.3,17.6L3.3,17.6z
		 M62.1,23.3c0.7,2.6,1.1,5.4,1.1,8.3c0,6-1.7,11.7-4.6,16.5H34.3v-3.4c0-1.9,0.2-3.6,0.7-5.2c0.4-1.5,1.1-2.9,2.1-4.1
		c0.9-1.2,2.1-2.3,3.6-3.2c1.4-0.9,3.2-1.8,5.2-2.6L61,24c0.4-0.1,0.7-0.2,0.9-0.4C62,23.5,62.1,23.4,62.1,23.3L62.1,23.3z
		 M51.3,56.3c-5.4,4.3-12.3,6.9-19.7,6.9c-7.5,0-14.3-2.6-19.7-6.9H51.3z"/>
</g>
</svg>
