<?xml version="1.0" encoding="utf-8"?>
<!-- Generator: Adobe Illustrator 22.0.1, SVG Export Plug-In . SVG Version: 6.00 Build 0)  -->
<svg version="1.1" id="Layer_1" xmlns="http://www.w3.org/2000/svg" xmlns:xlink="http://www.w3.org/1999/xlink" x="0px" y="0px"
	 viewBox="0 0 98.153 94.256" enable-background="new 0 0 98.153 94.256" xml:space="preserve">
<circle fill="#FFFFFF" cx="49.076" cy="47.128" r="32.824"/>
<g>
	<path fill="#093D88" d="M49.071,2.248c-24.741,0-44.874,20.136-44.874,44.876c0,24.75,20.133,44.883,44.874,44.883
		c24.75,0,44.885-20.133,44.885-44.883C93.956,22.384,73.82,2.248,49.071,2.248L49.071,2.248z M60.238,48.704h-7.301v26.031H42.115
		V48.704H36.97v-9.197h5.145v-5.95c0-4.255,2.022-10.919,10.919-10.919l8.015,0.034v8.926h-5.816c-0.944,0-2.296,0.477-2.296,2.506
		v5.412h8.245L60.238,48.704z M60.238,48.704"/>
</g>
</svg>
