<?xml version="1.0" encoding="utf-8"?>
<!-- Generator: Adobe Illustrator 22.0.1, SVG Export Plug-In . SVG Version: 6.00 Build 0)  -->
<svg version="1.1" id="Layer_1" xmlns="http://www.w3.org/2000/svg" xmlns:xlink="http://www.w3.org/1999/xlink" x="0px" y="0px"
	 width="39.7px" height="39.7px" viewBox="0 0 39.7 39.7" enable-background="new 0 0 39.7 39.7" xml:space="preserve">
<g>
	<path fill="#FFFFFF" d="M19.9,23.8c2.2,0,4-1.8,4-4c0-0.9-0.3-1.7-0.8-2.3c-0.7-1-1.9-1.7-3.2-1.7c-1.3,0-2.5,0.7-3.2,1.7
		c-0.5,0.7-0.8,1.5-0.8,2.3C15.9,22.1,17.7,23.8,19.9,23.8L19.9,23.8z M19.9,23.8"/>
	<path fill="#FFFFFF" d="M28.5,15v-3.8H28l-3.3,0l0,3.8L28.5,15z M28.5,15"/>
	<path fill="#FFFFFF" d="M19.9,0C8.9,0,0,8.9,0,19.9c0,11,8.9,19.9,19.9,19.9c11,0,19.9-8.9,19.9-19.9C39.7,8.9,30.8,0,19.9,0
		L19.9,0z M31.2,17.5v9.2c0,2.4-2,4.4-4.4,4.4H12.9c-2.4,0-4.4-2-4.4-4.4V12.9c0-2.4,2-4.4,4.4-4.4h13.9c2.4,0,4.4,2,4.4,4.4V17.5z
		 M31.2,17.5"/>
	<path fill="#FFFFFF" d="M26,19.9c0,3.4-2.8,6.2-6.2,6.2c-3.4,0-6.2-2.8-6.2-6.2c0-0.8,0.2-1.6,0.5-2.3h-3.4v9.2
		c0,1.2,1,2.2,2.2,2.2h13.9c1.2,0,2.2-1,2.2-2.2v-9.2h-3.4C25.9,18.3,26,19,26,19.9L26,19.9z M26,19.9"/>
</g>
</svg>
