<?xml version="1.0" encoding="utf-8"?>
<!-- Generator: Adobe Illustrator 22.0.1, SVG Export Plug-In . SVG Version: 6.00 Build 0)  -->
<svg version="1.1" id="Layer_1" xmlns="http://www.w3.org/2000/svg" xmlns:xlink="http://www.w3.org/1999/xlink" x="0px" y="0px"
	 width="44px" height="45.6px" viewBox="0 0 44 45.6" enable-background="new 0 0 44 45.6" xml:space="preserve">
<path fill="#FFFFFF" d="M43.3,41.5L32.5,30.2c2.8-3.3,4.3-7.5,4.3-11.8C36.8,8.3,28.5,0,18.4,0C8.3,0,0,8.3,0,18.4
	c0,10.1,8.3,18.4,18.4,18.4c3.8,0,7.4-1.1,10.5-3.3l10.9,11.4c0.5,0.5,1.1,0.7,1.7,0.7c0.6,0,1.2-0.2,1.7-0.7
	C44.2,44,44.2,42.5,43.3,41.5L43.3,41.5z M18.4,4.8c7.5,0,13.6,6.1,13.6,13.6C32,25.9,25.9,32,18.4,32c-7.5,0-13.6-6.1-13.6-13.6
	C4.8,10.9,10.9,4.8,18.4,4.8L18.4,4.8z M18.4,4.8"/>
</svg>
