<?xml version="1.0" encoding="utf-8"?>
<!-- Generator: Adobe Illustrator 22.0.1, SVG Export Plug-In . SVG Version: 6.00 Build 0)  -->
<svg version="1.1" id="Layer_1" xmlns="http://www.w3.org/2000/svg" xmlns:xlink="http://www.w3.org/1999/xlink" x="0px" y="0px"
	 width="39.7px" height="39.7px" viewBox="0 0 39.7 39.7" enable-background="new 0 0 39.7 39.7" xml:space="preserve">
<path fill-rule="evenodd" clip-rule="evenodd" fill="#FFFFFF" d="M19.9,0C8.9,0,0,8.9,0,19.9c0,11,8.9,19.9,19.9,19.9
	c11,0,19.9-8.9,19.9-19.9C39.7,8.9,30.8,0,19.9,0z M31.2,28.6l-3.5,0c0,0-0.7,0.1-1.7-0.5c-1.3-0.9-2.5-3.2-3.5-2.9
	c-1,0.3-0.9,2.4-0.9,2.4s0,0.4-0.2,0.7c-0.2,0.3-0.7,0.3-0.7,0.3h-1.6c0,0-3.4,0.2-6.5-2.9c-3.3-3.4-6.2-10.3-6.2-10.3
	s-0.2-0.4,0-0.7c0.2-0.2,0.8-0.3,0.8-0.3l3.7,0c0,0,0.4,0.1,0.6,0.2c0.2,0.2,0.3,0.4,0.3,0.4s0.6,1.5,1.4,2.9c1.6,2.7,2.3,3.3,2.8,3
	c0.8-0.4,0.5-3.8,0.5-3.8s0-1.2-0.4-1.8c-0.3-0.4-0.9-0.5-1.2-0.6c-0.2,0,0.1-0.5,0.6-0.7c0.7-0.3,1.9-0.3,3.3-0.3
	c1.1,0,1.4,0.1,1.8,0.2c1.3,0.3,0.8,1.5,0.8,4.4c0,0.9-0.2,2.2,0.5,2.6c0.3,0.2,1,0,2.7-2.9c0.8-1.4,1.4-3.1,1.4-3.1
	s0.1-0.3,0.3-0.4c0.2-0.1,0.5-0.1,0.5-0.1l3.9,0c0,0,1.2-0.1,1.4,0.4c0.2,0.6-0.4,1.9-2,4c-2.6,3.5-2.9,3.2-0.7,5.2
	c2.1,1.9,2.5,2.9,2.6,3C33.1,28.5,31.2,28.6,31.2,28.6z"/>
</svg>
