<?xml version="1.0" encoding="utf-8"?>
<!-- Generator: Adobe Illustrator 22.0.1, SVG Export Plug-In . SVG Version: 6.00 Build 0)  -->
<svg version="1.1" id="Layer_1" xmlns="http://www.w3.org/2000/svg" xmlns:xlink="http://www.w3.org/1999/xlink" x="0px" y="0px"
	 viewBox="0 0 39.722 39.722" enable-background="new 0 0 39.722 39.722" xml:space="preserve">
<g>
	<path fill="#333333" d="M16.243,24.213c2.98-1.544,5.934-3.076,8.915-4.621c-2.99-1.561-5.943-3.101-8.915-4.653V24.213z
		 M16.243,24.213"/>
	<path fill="#333333" d="M19.862,0C8.893,0,0,8.891,0,19.862c0,10.968,8.893,19.86,19.862,19.86c10.968,0,19.86-8.891,19.86-19.86
		C39.722,8.891,30.831,0,19.862,0L19.862,0z M33.394,26.491c-0.345,1.49-1.563,2.592-3.032,2.754
		c-3.478,0.389-6.996,0.391-10.502,0.389c-3.504,0.002-7.024,0-10.503-0.389c-1.468-0.163-2.687-1.264-3.03-2.754
		c-0.49-2.125-0.49-4.443-0.49-6.629c0-2.187,0.006-4.507,0.496-6.631c0.341-1.49,1.561-2.592,3.03-2.754
		c3.478-0.389,6.998-0.391,10.502-0.389c3.504-0.002,7.025,0,10.501,0.389c1.471,0.163,2.689,1.264,3.032,2.754
		c0.49,2.125,0.486,4.445,0.486,6.631C33.884,22.048,33.882,24.366,33.394,26.491L33.394,26.491z M33.394,26.491"/>
</g>
</svg>
