<?xml version="1.0" encoding="utf-8"?>
<!-- Generator: Adobe Illustrator 18.1.1, SVG Export Plug-In . SVG Version: 6.00 Build 0)  -->
<svg version="1.1" id="Слой_1" xmlns="http://www.w3.org/2000/svg" xmlns:xlink="http://www.w3.org/1999/xlink" x="0px" y="0px"
	 viewBox="0 0 22.883 30.753" enable-background="new 0 0 22.883 30.753" xml:space="preserve">
<g>
	<polygon fill="none" points="17.912,5.121 17.912,5.126 17.917,5.126 	"/>
	<path fill="none" d="M14.938,8.126l-0.025-1.5V3H3v24.753h16.883V8.126H14.938z M17.24,23.504H5.849v-3H17.24V23.504z
		 M17.24,19.465H5.849v-3H17.24V19.465z M17.24,15.427H5.849v-3H17.24V15.427z"/>
	<path fill="#0D1517" d="M17.033,0H0v30.753h22.883V5.85L17.033,0z M17.912,5.121l0.005,0.005h-0.005V5.121z M3,27.753V3h11.912
		v3.626l0.025,1.5h4.945v19.627H3z"/>
	<rect x="5.849" y="12.427" fill="#0D1517" width="11.391" height="3"/>
	<rect x="5.849" y="16.465" fill="#0D1517" width="11.391" height="3"/>
	<rect x="5.849" y="20.504" fill="#0D1517" width="11.391" height="3"/>
</g>
</svg>
