<?xml version="1.0" encoding="utf-8"?>
<!-- Generator: Adobe Illustrator 18.1.1, SVG Export Plug-In . SVG Version: 6.00 Build 0)  -->
<svg version="1.1" id="Слой_1" xmlns="http://www.w3.org/2000/svg" xmlns:xlink="http://www.w3.org/1999/xlink" x="0px" y="0px"
	 viewBox="0 0 71.713 72.25" enable-background="new 0 0 71.713 72.25" xml:space="preserve">
<g>
	<g transform="translate(0,-952.36218)">
		<g>
			<path d="M2.516,955.386v31.487h31.487v-31.487H2.516z M37.233,955.386v31.487H68.72v-31.487H37.233z M18.663,962.652
				c0.892,0,1.615,0.723,1.615,1.615v5.652h5.652c0.892,0,1.615,0.723,1.615,1.615s-0.723,1.615-1.615,1.615h-5.652v5.652
				c0,0.892-0.723,1.615-1.615,1.615s-1.615-0.723-1.615-1.615v-5.652h-5.652c-0.892,0-1.615-0.723-1.615-1.615
				s0.723-1.615,1.615-1.615h5.652v-5.652C17.048,963.375,17.771,962.652,18.663,962.652z M45.306,969.918h14.533
				c0.892,0,1.615,0.723,1.615,1.615s-0.723,1.615-1.615,1.615H45.306c-0.892,0-1.615-0.723-1.615-1.615
				S44.414,969.918,45.306,969.918z M2.516,990.103v31.487h31.487v-31.487H2.516z M37.233,990.103v31.487H68.72v-31.487H37.233z
				 M12.381,997.545c0.413,0,0.82,0.164,1.135,0.479l5.147,5.147l5.147-5.147c0.631-0.631,1.64-0.631,2.271,0
				c0.631,0.631,0.631,1.64,0,2.271l-5.147,5.147l5.147,5.147c0.631,0.631,0.631,1.64,0,2.271s-1.64,0.631-2.271,0l-5.147-5.147
				l-5.147,5.147c-0.631,0.631-1.64,0.631-2.271,0c-0.631-0.631-0.631-1.64,0-2.271l5.147-5.147l-5.147-5.147
				c-0.631-0.631-0.631-1.64,0-2.271C11.561,997.71,11.967,997.545,12.381,997.545z M45.306,999.791h14.533
				c0.892,0,1.615,0.723,1.615,1.615s-0.723,1.615-1.615,1.615H45.306c-0.892,0-1.615-0.723-1.615-1.615
				S44.414,999.791,45.306,999.791z M45.306,1007.865h14.533c0.892,0,1.615,0.723,1.615,1.615s-0.723,1.615-1.615,1.615H45.306
				c-0.892,0-1.615-0.723-1.615-1.615S44.414,1007.865,45.306,1007.865z"/>
		</g>
	</g>
</g>
</svg>
