<?xml version="1.0" encoding="utf-8"?>
<!-- Generator: Adobe Illustrator 18.1.1, SVG Export Plug-In . SVG Version: 6.00 Build 0)  -->
<svg version="1.1" id="Слой_1" xmlns="http://www.w3.org/2000/svg" xmlns:xlink="http://www.w3.org/1999/xlink" x="0px" y="0px"
	 viewBox="0 0 41.125 38.313" enable-background="new 0 0 41.125 38.313" xml:space="preserve">
<g>
	<polygon points="34.541,12.723 30.399,4.582 2.674,18.688 13.088,23.639 	"/>
	<rect x="-0.048" y="25.463" transform="matrix(-0.4535 -0.8913 0.8913 -0.4535 -18.1927 41.9927)" width="7.652" height="2.222"/>
	<path d="M40.072,29.395H27.461c-0.328-0.909-1.044-1.623-1.954-1.948v-3.972l3.126-1.574l0.235-1.859l5.265-2.679l-1.157-2.274
		L13.109,25.198l-9.757-4.639L3.02,20.728l5.038,9.901l10.929-5.561l1.629,0.869l2.422-1.22v2.85
		c-1.095,0.52-1.858,1.627-1.858,2.92c0,1.79,1.451,3.241,3.241,3.241c1.297,0,2.407-0.766,2.925-1.866h12.726V29.395z"/>
</g>
</svg>
