<?xml version="1.0" encoding="utf-8"?>
<!-- Generator: Adobe Illustrator 18.1.1, SVG Export Plug-In . SVG Version: 6.00 Build 0)  -->
<svg version="1.1" id="Слой_1" xmlns="http://www.w3.org/2000/svg" xmlns:xlink="http://www.w3.org/1999/xlink" x="0px" y="0px"
	 viewBox="0 0 41.125 38.313" enable-background="new 0 0 41.125 38.313" xml:space="preserve">
<g>
	<path fill="none" d="M8.348,19.071c-1.357,0-2.432,1.131-2.432,2.488c0,1.357,1.074,2.488,2.432,2.488
		c1.357,0,2.432-1.131,2.432-2.488C10.78,20.203,9.705,19.071,8.348,19.071z"/>
	<path fill="none" d="M6.991,13.02c0,0,0.17-0.113,13.29-0.113l13.912,0.113c0.057,0,0.905-0.057,0.509-0.792
		c-0.396-0.735-2.319-4.75-2.319-4.75s-0.339-0.509-1.018-0.509h-7.974h-3.054c-1.47,0-2.545,0-2.545,0H9.818
		C9.14,6.969,8.8,7.478,8.8,7.478s-1.923,4.015-2.319,4.75C6.086,13.02,6.934,13.077,6.991,13.02z"/>
	<path fill="none" d="M32.835,19.071c-1.357,0-2.432,1.131-2.432,2.488c0,1.357,1.074,2.488,2.432,2.488s2.432-1.131,2.432-2.488
		C35.266,20.203,34.192,19.071,32.835,19.071z"/>
	<path fill="none" d="M27.462,25.066H13.72c-0.339,0-0.679,0-0.905,0.226c-0.226,0.226-0.396,0.452-0.396,0.792
		c0,0.735,0.565,1.244,1.301,1.244h13.742c0.735,0,1.301-0.565,1.301-1.244c0-0.339-0.169-0.565-0.396-0.792
		S27.802,25.066,27.462,25.066z"/>
	<path d="M40.243,12.229c-1.074-1.357-2.941-1.074-2.941-1.074s-0.792,0.396-0.622,1.018s-0.339,0.735-0.339,0.735
		s-0.17,0.17-0.283-0.113c-0.056-0.283-3.167-5.825-3.563-6.334C32.156,6.065,32.1,6.008,32.1,6.008s-6.616-0.735-10.406-0.735
		c0,0-0.792,0-1.131,0c-0.339,0-1.131,0-1.131,0c-3.789,0-10.406,0.735-10.406,0.735S8.97,6.065,8.631,6.46
		c-0.396,0.509-3.506,6.051-3.563,6.334c-0.113,0.283-0.283,0.113-0.283,0.113s-0.509-0.113-0.339-0.735
		c0.169-0.622-0.622-1.018-0.622-1.018s-1.866-0.283-2.941,1.074c-1.074,1.301,0.509,1.697,0.509,1.697l3.167-0.057l-2.545,4.694
		c0,0-0.17,5.485-0.113,7.974c0.113,2.036,0.905,2.319,1.47,2.375v3.28c0,0.509,0.622,0.848,1.131,0.848H7.5
		c0.509,0,0.961-0.339,0.961-0.848v-2.545h24.147v2.545c0,0.509,0.452,0.848,0.961,0.848h2.997c0.509,0,1.131-0.339,1.131-0.848
		v-3.28c0.566-0.057,1.357-0.339,1.47-2.375c0.057-2.488-0.113-7.974-0.113-7.974l-2.545-4.694l3.167,0.057
		C39.734,13.925,41.317,13.473,40.243,12.229z M6.482,12.229C6.878,11.494,8.8,7.478,8.8,7.478S9.14,6.969,9.818,6.969h7.974
		c0,0,1.074,0,2.545,0h3.054h7.974c0.678,0,1.018,0.509,1.018,0.509s1.923,4.015,2.319,4.75c0.396,0.735-0.452,0.792-0.509,0.792
		L20.28,12.907c-13.12,0-13.29,0.113-13.29,0.113C6.934,13.077,6.086,13.02,6.482,12.229z M8.348,24.048
		c-1.357,0-2.432-1.131-2.432-2.488c0-1.357,1.074-2.488,2.432-2.488c1.357,0,2.432,1.131,2.432,2.488
		C10.78,22.917,9.705,24.048,8.348,24.048z M27.462,27.328H13.72c-0.735,0-1.301-0.509-1.301-1.244c0-0.339,0.17-0.565,0.396-0.792
		c0.226-0.226,0.565-0.226,0.905-0.226h13.742c0.339,0,0.678,0,0.905,0.226s0.396,0.452,0.396,0.792
		C28.763,26.762,28.197,27.328,27.462,27.328z M32.835,24.048c-1.357,0-2.432-1.131-2.432-2.488c0-1.357,1.074-2.488,2.432-2.488
		s2.432,1.131,2.432,2.488C35.266,22.917,34.192,24.048,32.835,24.048z"/>
</g>
</svg>
