<?xml version="1.0" encoding="utf-8"?>
<!-- Generator: Adobe Illustrator 18.1.1, SVG Export Plug-In . SVG Version: 6.00 Build 0)  -->
<svg version="1.1" id="Слой_1" xmlns="http://www.w3.org/2000/svg" xmlns:xlink="http://www.w3.org/1999/xlink" x="0px" y="0px"
	 viewBox="0 0 41.125 38.313" enable-background="new 0 0 41.125 38.313" xml:space="preserve">
<g>
	<polygon fill="none" points="19.601,21.441 22.365,21.134 22.365,17.209 19.259,17.379 	"/>
	<polygon fill="none" points="13.833,17.721 14.788,22.055 17.348,21.748 16.973,17.55 	"/>
	<polygon fill="none" points="19.055,15.161 22.365,14.956 22.365,11.202 18.713,11.202 	"/>
	<polygon fill="none" points="16.427,11.202 12.4,11.202 13.321,15.502 16.768,15.298 	"/>
	<polygon fill="none" points="30.249,14.513 33.73,14.308 34.276,11.202 30.556,11.202 	"/>
	<polygon fill="none" points="24.686,17.106 24.686,20.895 27.416,20.588 27.757,16.936 24.652,17.106 	"/>
	<polygon fill="none" points="29.669,20.314 32.672,19.973 33.286,16.594 30.01,16.799 	"/>
	<polygon fill="none" points="24.652,14.82 27.962,14.649 28.303,11.202 24.652,11.202 	"/>
	<path d="M36.494,9.325c-0.205-0.273-0.546-0.41-0.853-0.41H11.922L11.103,5.23C11,4.82,10.693,4.479,10.284,4.376L5.744,3.25
		C5.13,3.114,4.516,3.455,4.379,4.069C4.243,4.684,4.584,5.298,5.198,5.434L9.055,6.39l4.642,21.194
		c0.102,0.512,0.58,0.887,1.092,0.887h17.849c0.614,0,1.126-0.512,1.126-1.126s-0.512-1.126-1.126-1.126H15.71l-0.444-1.979
		l18.532-2.15c0.478-0.068,0.887-0.444,0.99-0.921l1.979-10.921C36.801,9.939,36.733,9.598,36.494,9.325z M13.321,15.502l-0.921-4.3
		h4.027l0.341,4.095L13.321,15.502z M14.788,22.055l-0.956-4.334l3.14-0.171l0.375,4.198L14.788,22.055z M22.365,21.134
		l-2.764,0.307l-0.341-4.061l3.106-0.171V21.134z M22.365,14.956l-3.311,0.205l-0.341-3.959h3.652V14.956z M27.416,20.588
		l-2.73,0.307v-3.788h-0.034l3.106-0.171L27.416,20.588z M27.962,14.649l-3.31,0.171v-3.618h3.652L27.962,14.649z M32.672,19.973
		l-3.003,0.341l0.341-3.515l3.276-0.205L32.672,19.973z M33.73,14.308l-3.481,0.205l0.307-3.31h3.72L33.73,14.308z"/>
	<circle cx="30.317" cy="32.43" r="2.662"/>
	<circle cx="17.246" cy="32.43" r="2.662"/>
</g>
</svg>
