<?xml version="1.0" encoding="utf-8"?>
<!-- Generator: Adobe Illustrator 18.1.1, SVG Export Plug-In . SVG Version: 6.00 Build 0)  -->
<svg version="1.1" id="Слой_1" xmlns="http://www.w3.org/2000/svg" xmlns:xlink="http://www.w3.org/1999/xlink" x="0px" y="0px"
	 viewBox="0 0 38.208 38.313" enable-background="new 0 0 38.208 38.313" xml:space="preserve">
<g>
	<rect x="13.277" y="31.734" fill="none" width="2.463" height="2.211"/>
	<path fill="none" d="M20.048,18.2h-1.692v-1.608h-2.147v14.204h2.147v-5.703h1.692v5.703h2.148V16.592h-2.148V18.2z M21.073,24.546
		h-3.926v-5.805h3.926V24.546z"/>
	<rect x="13.277" y="16.592" fill="none" width="2.463" height="14.204"/>
	<path fill="none" d="M13.277,15.654h2.463V5.057c-0.988,0.45-1.757,1.078-2.463,1.743V15.654z"/>
	<path fill="none" d="M18.748,23.073h0.725v-1.613c0.188-0.12,0.314-0.33,0.314-0.57c0-0.374-0.303-0.676-0.677-0.676
		s-0.677,0.303-0.676,0.676c0,0.24,0.125,0.45,0.314,0.57V23.073z"/>
	<rect x="20.048" y="31.734" fill="none" width="2.148" height="2.211"/>
	<rect x="16.209" y="31.734" fill="none" width="2.146" height="2.211"/>
	<rect x="10.335" y="16.592" fill="none" width="2.473" height="14.204"/>
	<path fill="none" d="M10.862,9.045c-0.169,0.128-0.347,0.243-0.527,0.353v6.256h2.473V7.249c-0.091,0.091-0.183,0.181-0.273,0.272
		C11.983,8.072,11.461,8.592,10.862,9.045z"/>
	<rect x="5.095" y="31.734" fill="none" width="1.829" height="2.211"/>
	<rect x="5.095" y="16.592" fill="none" width="1.829" height="14.204"/>
	<rect x="10.335" y="31.734" fill="none" width="2.473" height="2.211"/>
	<path fill="none" d="M5.095,15.654h1.829v-5.09c-0.702,0.113-1.342,0.159-1.829,0.174V15.654z"/>
	<rect x="7.393" y="31.734" fill="none" width="2.473" height="2.211"/>
	<path fill="none" d="M18.356,4.399c-0.821,0.067-1.523,0.233-2.146,0.467v10.788h2.146V4.399z"/>
	<rect x="7.393" y="16.592" fill="none" width="2.473" height="14.204"/>
	<path fill="none" d="M7.393,15.654h2.473V9.659c-0.799,0.404-1.663,0.662-2.473,0.822V15.654z"/>
	<path fill="none" d="M28.538,15.654h2.474v-5.173c-0.809-0.16-1.675-0.418-2.474-0.822V15.654z"/>
	<rect x="28.538" y="16.592" fill="none" width="2.474" height="14.204"/>
	<rect x="31.481" y="31.734" fill="none" width="1.828" height="2.211"/>
	<rect x="31.481" y="16.592" fill="none" width="1.828" height="14.204"/>
	<rect x="28.538" y="31.734" fill="none" width="2.474" height="2.211"/>
	<path fill="none" d="M31.481,15.654h1.828v-4.915c-0.486-0.015-1.126-0.061-1.828-0.174V15.654z"/>
	<rect x="22.665" y="16.592" fill="none" width="2.462" height="14.204"/>
	<path fill="none" d="M25.87,7.522c-0.09-0.091-0.182-0.181-0.273-0.272v8.404h2.473V9.398c-0.18-0.11-0.358-0.225-0.527-0.353
		C26.944,8.593,26.423,8.072,25.87,7.522z"/>
	<rect x="22.665" y="31.734" fill="none" width="2.462" height="2.211"/>
	<path fill="none" d="M20.048,15.654h2.148V4.866c-0.624-0.232-1.326-0.4-2.148-0.467V15.654z"/>
	<path fill="none" d="M22.665,15.654h2.462V6.801c-0.705-0.666-1.474-1.293-2.462-1.744V15.654z"/>
	<rect x="25.597" y="16.592" fill="none" width="2.473" height="14.204"/>
	<rect x="25.597" y="31.734" fill="none" width="2.473" height="2.211"/>
	<path d="M37.12,9.071C36.857,9.154,36.577,9.2,36.286,9.2c-0.29,0-0.57-0.046-0.833-0.129l-0.091,0.603h-0.336v25.209h2.521V9.674
		h-0.335L37.12,9.071z"/>
	<path d="M31.481,9.617l-0.245-0.044c-1.059-0.205-2.212-0.583-3.128-1.276c-2.225-1.683-3.741-4.824-8.814-4.865V3.429
		c-0.029,0-0.059,0-0.087,0h-0.008c-0.029,0-0.058,0-0.088,0v0.003c-5.073,0.041-6.59,3.182-8.814,4.865
		C9.381,8.99,8.228,9.368,7.168,9.573L6.924,9.617C6,9.776,5.17,9.808,4.666,9.808c-0.249,0-0.415-0.007-0.478-0.01v25.087h30.017
		V9.797c-0.071,0.003-0.233,0.01-0.466,0.01C33.235,9.807,32.404,9.775,31.481,9.617z M6.924,33.946H5.095v-2.211h1.829V33.946z
		 M6.924,30.796H5.095V16.592h1.829V30.796z M6.924,15.654H5.095v-4.915c0.487-0.015,1.127-0.061,1.829-0.174V15.654z M9.866,33.946
		H7.393v-2.211h2.473V33.946z M9.866,30.796H7.393V16.592h2.473V30.796z M9.866,15.654H7.393v-5.173
		c0.81-0.16,1.674-0.418,2.473-0.822V15.654z M16.209,4.866c0.623-0.233,1.325-0.399,2.146-0.467v11.255h-2.146V4.866z
		 M12.808,33.946h-2.473v-2.211h2.473V33.946z M12.808,30.796h-2.473V16.592h2.473V30.796z M12.808,15.654h-2.473V9.398
		c0.181-0.11,0.358-0.225,0.527-0.353c0.598-0.452,1.12-0.973,1.673-1.523c0.09-0.09,0.182-0.181,0.273-0.272V15.654z M15.74,33.946
		h-2.463v-2.211h2.463V33.946z M15.74,30.796h-2.463V16.592h2.463V30.796z M15.74,15.654h-2.463V6.8
		c0.706-0.665,1.475-1.293,2.463-1.743V15.654z M18.356,33.946h-2.146v-2.211h2.146V33.946z M22.196,33.946h-2.148v-2.211h2.148
		V33.946z M22.196,30.796h-2.148v-5.703h-1.692v5.703h-2.147V16.592h2.147V18.2h1.692v-1.608h2.148V30.796z M22.196,15.654h-2.148
		V4.399c0.822,0.067,1.523,0.234,2.148,0.467V15.654z M25.127,33.946h-2.462v-2.211h2.462V33.946z M25.127,30.796h-2.462V16.592
		h2.462V30.796z M25.127,15.654h-2.462V5.057c0.988,0.45,1.757,1.078,2.462,1.744V15.654z M28.069,33.946h-2.473v-2.211h2.473
		V33.946z M28.069,30.796h-2.473V16.592h2.473V30.796z M28.069,15.654h-2.473V7.25c0.091,0.09,0.183,0.181,0.273,0.272
		c0.553,0.55,1.074,1.071,1.673,1.523c0.169,0.128,0.346,0.243,0.527,0.353V15.654z M31.012,33.946h-2.474v-2.211h2.474V33.946z
		 M31.012,30.796h-2.474V16.592h2.474V30.796z M31.012,15.654h-2.474V9.659c0.799,0.404,1.664,0.662,2.474,0.822V15.654z
		 M33.309,33.946h-1.828v-2.211h1.828V33.946z M33.309,30.796h-1.828V16.592h1.828V30.796z M33.309,15.654h-1.828v-5.089
		c0.702,0.113,1.342,0.159,1.828,0.174V15.654z"/>
	<path d="M17.147,24.546h3.926v-5.805h-3.926V24.546z M19.111,20.214c0.374,0,0.677,0.303,0.677,0.676c0,0.24-0.126,0.45-0.314,0.57
		v1.613h-0.725v-1.613c-0.188-0.12-0.314-0.33-0.314-0.57C18.434,20.517,18.737,20.214,19.111,20.214z"/>
	<circle cx="36.286" cy="6.997" r="1.845"/>
	<path d="M2.756,9.071C2.492,9.154,2.213,9.2,1.922,9.2c-0.29,0-0.571-0.046-0.833-0.129L0.997,9.674H0.662v25.209h2.521V9.674
		H2.847L2.756,9.071z"/>
	<circle cx="1.922" cy="6.997" r="1.845"/>
</g>
</svg>
