<?xml version="1.0" encoding="utf-8"?>
<!-- Generator: Adobe Illustrator 18.1.1, SVG Export Plug-In . SVG Version: 6.00 Build 0)  -->
<svg version="1.1" id="Слой_1" xmlns="http://www.w3.org/2000/svg" xmlns:xlink="http://www.w3.org/1999/xlink" x="0px" y="0px"
	 viewBox="0 0 63.713 55.177" enable-background="new 0 0 63.713 55.177" xml:space="preserve">
<polygon fill="#FFFFFF" points="15.928,55.177 0,27.588 15.928,0 47.785,0 63.713,27.588 47.785,55.177 "/>
<g>
	<path fill="#3D9063" d="M9.849,36.453c0.053-0.184,0.125-0.364,0.157-0.551c0.31-1.822,1.268-3.225,2.781-4.252
		c1.135-0.77,2.405-1.133,3.775-1.067c1.655,0.08,3.08,0.717,4.274,1.867c0.316,0.304,0.516,0.678,0.634,1.121
		c0.4-0.236,0.818-0.27,1.251-0.265c0.997,0.011,1.994-0.003,2.99,0.007c0.824,0.008,1.398,0.414,1.689,1.176
		c0.25,0.655,0.124,1.264-0.351,1.788c-0.131,0.145-0.286,0.269-0.406,0.38c0.264,0.291,0.517,0.57,0.776,0.856
		c0.118-0.567,0.24-1.149,0.362-1.731c0.094-0.448,0.172-0.9,0.288-1.343c0.185-0.708,0.682-1.13,1.374-1.266
		c0.699-0.138,1.305,0.1,1.741,0.678c0.154,0.205,0.267,0.446,0.37,0.683c0.285,0.659,0.554,1.324,0.831,1.986
		c0.044,0.105,0.1,0.205,0.186,0.38c0.301-0.717,0.57-1.36,0.841-2.002c0.107-0.253,0.204-0.512,0.329-0.756
		c0.362-0.709,1.087-1.095,1.859-0.987c0.629,0.088,1.342,0.643,1.49,1.438c0.142,0.765,0.312,1.525,0.473,2.286
		c0.034,0.159,0.079,0.316,0.191,0.464c0-0.734-0.001-1.468,0-2.202c0.001-0.452,0.088-0.879,0.361-1.256
		c0.441-0.609,1.222-0.901,1.903-0.694c0.812,0.247,1.324,0.949,1.317,1.638c-0.004,0.428-0.001,0.855-0.001,1.309
		c0.356,0.039,0.686,0.062,1.012,0.112c1.415,0.217,2.357,1.012,2.847,2.351c0.037,0.1,0.079,0.199,0.14,0.351
		c0.151-0.244,0.283-0.459,0.392-0.637c-0.314-0.426-0.643-0.795-0.885-1.215c-1.469-2.552,0.086-5.602,2.636-6.18
		c0.399-0.09,0.813-0.147,1.221-0.156c0.92-0.021,1.84-0.011,2.76,0.002c0.572,0.008,1.073,0.211,1.49,0.614
		c0.336,0.325,0.514,0.719,0.524,1.186c0.007,0.322,0.002,0.644,0.002,0.966c-0.001,2.653,0.004,5.306-0.006,7.959
		c-0.003,0.954-0.612,1.689-1.541,1.913c-1.02,0.246-2.147-0.46-2.326-1.489c-0.07-0.404-0.065-0.821-0.082-1.233
		c-0.012-0.285-0.002-0.571-0.068-0.876c-0.322,0.552-0.644,1.104-0.965,1.656c-0.184,0.317-0.358,0.641-0.55,0.954
		c-0.578,0.945-1.666,1.307-2.574,0.841c-0.276-0.142-0.507-0.378-0.742-0.589c-0.109-0.098-0.18-0.239-0.284-0.382
		c-0.112,0.082-0.207,0.151-0.302,0.221c-0.671,0.499-1.42,0.763-2.262,0.754c-0.598-0.006-1.196-0.008-1.794-0.001
		c-0.655,0.008-1.288-0.045-1.716-0.531c-0.382,0.222-0.699,0.474-1.06,0.603c-0.861,0.309-1.852-0.202-2.146-1.077
		c-0.126-0.375-0.203-0.766-0.317-1.205c-0.155,0.38-0.297,0.717-0.429,1.057c-0.196,0.502-0.493,0.916-0.997,1.147
		c-0.949,0.434-2.003,0.007-2.431-0.982c-0.121-0.28-0.229-0.567-0.35-0.847c-0.033-0.076-0.09-0.141-0.175-0.269
		c-0.086,0.35-0.163,0.623-0.219,0.9c-0.241,1.182-1.849,1.934-2.969,0.843c-0.044-0.043-0.092-0.081-0.164-0.144
		c-0.483,0.458-1.082,0.541-1.727,0.523c-0.858-0.024-1.717-0.002-2.576-0.006c-1.158-0.006-1.673-0.371-2.061-1.464
		c-0.288,0.204-0.564,0.418-0.857,0.604c-1.227,0.778-2.571,1.16-4.018,1.015c-2.049-0.205-3.663-1.18-4.822-2.897
		c-0.587-0.87-0.9-1.832-1.022-2.865c-0.008-0.068-0.048-0.132-0.073-0.198C9.849,37.127,9.849,36.79,9.849,36.453z M52.734,37.161
		h0.001c0-1.425-0.005-2.851,0.003-4.276c0.003-0.468-0.179-0.829-0.54-1.11c-0.056-0.044-0.118-0.094-0.185-0.109
		c-0.519-0.118-1.038-0.208-1.578-0.18c-0.52,0.027-1.044-0.022-1.563,0.012c-0.813,0.053-1.584,0.173-2.304,0.673
		c-0.988,0.686-1.407,1.627-1.543,2.744c-0.035,0.288,0.094,0.594,0.141,0.893c0.087,0.552,0.305,1.036,0.713,1.429
		c0.217,0.209,0.407,0.449,0.639,0.639c0.17,0.14,0.177,0.264,0.08,0.432c-0.128,0.223-0.257,0.445-0.384,0.668
		c-0.373,0.656-0.749,1.311-1.117,1.97c-0.175,0.314-0.171,0.678-0.05,0.98c0.27,0.674,1.192,1.077,1.842,0.507
		c0.179-0.156,0.36-0.329,0.479-0.53c0.576-0.973,1.121-1.965,1.703-2.935c0.115-0.192,0.316-0.384,0.52-0.458
		c0.369-0.134,0.732,0.204,0.735,0.638c0.006,0.812,0.009,1.625,0.001,2.437c-0.006,0.573,0.625,1.134,1.148,1.126
		c0.662-0.01,1.265-0.485,1.261-1.227C52.729,40.042,52.734,38.602,52.734,37.161z M10.675,36.962
		c-0.031,0.827,0.089,1.558,0.419,2.245c0.465,0.968,1.066,1.811,1.984,2.43c0.946,0.638,1.957,1.017,3.091,1.066
		c0.66,0.028,1.293-0.113,1.921-0.324c0.836-0.28,1.569-0.713,2.204-1.32c0.431-0.413,0.667-1.056,0.081-1.695
		c-0.323-0.352-0.684-0.507-1.174-0.389c-0.283,0.068-0.489,0.232-0.687,0.404c-0.456,0.4-0.956,0.682-1.562,0.788
		c-1.197,0.209-2.217-0.089-3.033-1.004c-0.456-0.511-0.697-1.104-0.788-1.798c-0.084-0.635,0.011-1.236,0.275-1.765
		c0.406-0.814,1.073-1.42,1.975-1.667c0.404-0.11,0.849-0.168,1.262-0.122c0.785,0.087,1.472,0.425,2.038,1.006
		c0.4,0.41,0.862,0.454,1.334,0.162c0.3-0.185,0.553-0.446,0.65-0.788c0.086-0.304,0.133-0.645-0.125-0.909
		c-0.293-0.299-0.58-0.613-0.914-0.862c-0.739-0.553-1.593-0.851-2.497-1.018c-0.764-0.142-1.525-0.043-2.257,0.127
		c-0.533,0.124-1.033,0.424-1.526,0.686c-0.989,0.524-1.642,1.388-2.151,2.343C10.792,35.316,10.603,36.156,10.675,36.962z
		 M30.219,38.812c0.084,0.144,0.172,0.262,0.227,0.395c0.38,0.92,0.747,1.846,1.131,2.765c0.171,0.411,0.5,0.635,0.944,0.658
		c0.451,0.024,0.789-0.165,0.969-0.595c0.075-0.18,0.141-0.364,0.216-0.544c0.272-0.653,0.527-1.314,0.829-1.952
		c0.113-0.239,0.126-0.572,0.486-0.71c0.051,0.143,0.111,0.263,0.137,0.39c0.132,0.638,0.249,1.28,0.385,1.917
		c0.069,0.325,0.133,0.657,0.255,0.964c0.167,0.419,0.748,0.694,1.135,0.574c0.515-0.16,0.872-0.596,0.753-1.274
		c-0.065-0.372-0.147-0.741-0.215-1.113c-0.082-0.447-0.152-0.897-0.239-1.344c-0.102-0.52-0.218-1.038-0.325-1.557
		c-0.076-0.37-0.142-0.743-0.222-1.112c-0.102-0.471-0.234-0.937-0.315-1.412c-0.087-0.509-0.459-0.926-0.933-0.979
		c-0.396-0.045-0.951,0.276-1.073,0.694c-0.093,0.317-0.256,0.59-0.382,0.886c-0.395,0.931-0.755,1.876-1.137,2.812
		c-0.059,0.145-0.164,0.27-0.28,0.456c-0.114-0.165-0.198-0.255-0.246-0.36c-0.099-0.218-0.176-0.446-0.266-0.667
		c-0.291-0.713-0.585-1.425-0.877-2.138c-0.121-0.295-0.237-0.592-0.356-0.887c-0.179-0.445-0.686-0.815-1.086-0.795
		c-0.453,0.023-0.854,0.39-0.976,0.93c-0.146,0.65-0.266,1.305-0.404,1.957c-0.148,0.697-0.31,1.391-0.455,2.088
		c-0.166,0.802-0.295,1.613-0.492,2.407c-0.081,0.329-0.046,0.596,0.106,0.874c0.188,0.342,0.582,0.538,1.005,0.492
		c0.436-0.047,0.749-0.298,0.85-0.703c0.095-0.382,0.179-0.767,0.262-1.152c0.099-0.458,0.19-0.918,0.288-1.376
		C29.962,39.198,29.966,38.975,30.219,38.812z M23.486,36.099c0.169,0,0.289,0,0.409,0c0.659-0.002,1.318,0.003,1.976-0.01
		c0.57-0.011,1.043-0.737,0.879-1.252c-0.156-0.49-0.533-0.774-1.059-0.777c-1.072-0.005-2.145-0.006-3.218-0.003
		c-0.6,0.002-1.037,0.428-1.041,1.019c-0.006,1.072-0.003,2.145-0.002,3.217c0,1.088-0.004,2.176,0.004,3.263
		c0.004,0.488,0.437,0.958,0.912,0.964c1.149,0.014,2.298,0.014,3.447,0c0.528-0.007,1-0.541,0.984-1.055
		c-0.016-0.494-0.551-1.019-1.012-0.984c-0.487,0.037-0.98,0.016-1.47,0.002c-0.267-0.008-0.533-0.053-0.778-0.079
		c-0.024-0.084-0.039-0.113-0.04-0.141c-0.005-0.168-0.01-0.337-0.009-0.505c0.003-0.427,0.021-0.451,0.434-0.456
		c0.567-0.007,1.134,0.006,1.701-0.008c0.195-0.005,0.39-0.054,0.581-0.102c0.306-0.076,0.663-0.772,0.593-1.001
		c-0.178-0.581-0.705-0.989-1.332-0.994c-0.536-0.004-1.073,0.001-1.609-0.003c-0.116-0.001-0.231-0.024-0.35-0.037
		C23.486,36.801,23.486,36.481,23.486,36.099z M40.592,36.912c0-0.707,0.004-1.335-0.001-1.963
		c-0.004-0.491-0.327-0.908-0.794-1.048c-0.344-0.103-0.781,0.098-1.067,0.442c-0.177,0.213-0.177,0.446-0.177,0.69
		c0,2.115,0,4.231,0.002,6.346c0.001,0.724,0.399,1.131,1.118,1.139c0.628,0.006,1.257,0,1.885,0.002
		c0.382,0.002,0.747-0.052,1.124-0.152c1.229-0.325,1.748-1.338,1.936-2.273c0.136-0.68-0.055-1.339-0.455-1.904
		c-0.516-0.727-1.205-1.187-2.133-1.198c-0.307-0.004-0.613,0.006-0.92-0.006C40.949,36.982,40.789,36.942,40.592,36.912z
		 M20.602,35.514c-0.101,0.052-0.167,0.083-0.232,0.118c-0.777,0.419-1.497,0.337-2.163-0.24c-0.127-0.11-0.258-0.217-0.39-0.32
		c-0.463-0.363-1.001-0.55-1.578-0.522c-1.467,0.071-2.42,1.321-2.374,2.531c0.068,1.788,1.918,2.939,3.517,2.139
		c0.282-0.141,0.532-0.354,0.78-0.555c0.856-0.693,1.499-0.639,2.201-0.285c0.071,0.036,0.149,0.056,0.239,0.089
		C20.602,37.47,20.602,36.512,20.602,35.514z"/>
	<path fill="#3D9063" d="M33.868,5.532c0.196,0.062,0.392,0.128,0.589,0.186c1.436,0.423,2.483,1.755,2.549,3.2
		c0.074,1.622-0.88,3.027-2.328,3.542c-1.358,0.483-2.604,0.224-3.648-0.777c-1.01-0.969-1.356-2.154-0.968-3.518
		c0.398-1.398,1.357-2.201,2.743-2.54c0.081-0.02,0.156-0.062,0.235-0.093C33.316,5.532,33.592,5.532,33.868,5.532z"/>
	<path fill="#3D9063" d="M38.513,31.638c-1.103,0.869-2.319,0.966-3.6,0.418c-0.65-0.278-0.998-0.778-0.979-1.512
		c0.016-0.613,0.008-1.227,0.002-1.84c-0.002-0.176-0.033-0.352-0.14-0.544c-0.216,0.401-0.434,0.801-0.648,1.204
		c-0.294,0.554-0.569,1.117-0.88,1.661c-0.442,0.774-1.099,1.207-2.015,1.217c-0.722,0.008-1.446,0.052-2.075-0.383
		c-1.203,0.422-2.418,0.358-3.633,0.17c-0.474-0.073-0.897-0.295-1.244-0.643c-0.442-0.444-0.529-0.955-0.28-1.515
		c0.472-1.061,0.96-2.115,1.44-3.172c0.985-2.171,1.972-4.341,2.946-6.517c0.11-0.245,0.166-0.525,0.195-0.794
		c0.034-0.317-0.024-0.374-0.332-0.439c-0.178-0.037-0.364-0.054-0.546-0.055c-0.828-0.006-1.657-0.021-2.484,0
		c-1.153,0.029-1.92-0.512-2.359-1.547c-0.372-0.875-0.4-1.753,0.069-2.608c0.497-0.905,1.261-1.403,2.302-1.411
		c1.902-0.013,3.803-0.004,5.705-0.009c4.155-0.009,8.31-0.02,12.466-0.032c0.888-0.003,1.646,0.276,2.237,0.968
		c1.186,1.389,0.665,3.281-0.378,4.162c-0.386,0.325-0.85,0.473-1.359,0.472c-0.889-0.001-1.779-0.002-2.668,0.006
		c-0.197,0.002-0.397,0.025-0.59,0.063c-0.319,0.064-0.419,0.201-0.338,0.521c0.093,0.369,0.194,0.744,0.353,1.088
		c0.506,1.095,1.035,2.18,1.566,3.264c0.734,1.497,1.494,2.982,2.206,4.489c0.219,0.463,0.386,0.973,0.457,1.478
		c0.17,1.207-0.443,2.044-1.617,2.245c-0.942,0.161-1.892,0.186-2.83,0.003C39.142,31.983,38.851,31.788,38.513,31.638z M38.1,25.64
		c0-1.211,0.009-2.422-0.004-3.632c-0.006-0.594-0.057-1.188-0.08-1.783c-0.014-0.358-0.174-0.644-0.418-0.885
		c-0.374-0.371-0.84-0.542-1.359-0.547c-0.981-0.01-1.962-0.002-2.943-0.005c-0.646-0.002-1.275,0.111-1.863,0.364
		c-0.871,0.375-1.534,1.018-1.849,1.905c-0.413,1.164-0.32,2.332,0.273,3.44c0.179,0.334,0.357,0.668,0.523,1.009
		c0.148,0.305,0.165,0.639,0.006,0.927c-0.364,0.659-0.778,1.289-1.148,1.944c-0.319,0.565-0.623,1.14-0.899,1.728
		c-0.257,0.548-0.032,0.98,0.512,1.238c0.432,0.204,0.869,0.124,1.307,0.145c0.75,0.035,1.235-0.374,1.568-0.985
		c0.461-0.847,0.876-1.72,1.344-2.563c0.134-0.241,0.362-0.447,0.587-0.617c0.254-0.193,0.723-0.077,0.824,0.197
		c0.104,0.281,0.189,0.584,0.201,0.881c0.029,0.719,0.018,1.441,0.006,2.161c-0.006,0.383,0.153,0.636,0.496,0.794
		c0.757,0.349,1.52,0.377,2.295,0.065c0.332-0.134,0.58-0.326,0.573-0.73c-0.003-0.166,0.045-0.332,0.045-0.497
		C38.101,28.675,38.1,27.158,38.1,25.64z M27.513,31.297c0-0.184,0.015-0.308-0.003-0.426c-0.082-0.546,0.016-1.053,0.296-1.528
		c0.13-0.221,0.245-0.451,0.371-0.674c0.473-0.838,0.931-1.685,1.432-2.506c0.136-0.223,0.078-0.333-0.027-0.522
		c-0.27-0.488-0.544-0.98-0.738-1.5c-0.179-0.481-0.269-0.996-0.233-1.523c0.026-0.382-0.054-0.786,0.044-1.145
		c0.218-0.805,0.53-1.583,1.168-2.169c0.829-0.762,1.777-1.26,2.936-1.257c0.291,0.001,0.583,0.001,0.874,0
		c0.713-0.002,0.726,0.007,1.107-0.575c0.239-0.366,0.491-0.743,0.498-1.203c0.018-1.082-0.881-2.079-1.997-2.087
		c-2.975-0.021-5.95-0.006-8.925-0.017c-0.316-0.001-0.601,0.069-0.871,0.207c-0.448,0.231-0.745,0.624-0.888,1.083
		c-0.173,0.554-0.123,1.109,0.151,1.656c0.289,0.578,0.747,0.935,1.384,0.938c1.027,0.004,2.055,0.018,3.082-0.001
		c0.325-0.006,0.604,0.125,0.849,0.268c0.238,0.139,0.425,0.375,0.429,0.737c0.006,0.567-0.102,1.086-0.356,1.586
		c-0.197,0.388-0.391,0.778-0.567,1.175c-0.287,0.648-0.543,1.311-0.838,1.955c-0.381,0.832-0.796,1.648-1.183,2.478
		c-0.431,0.924-0.851,1.855-1.27,2.785c-0.155,0.344-0.3,0.693-0.44,1.044c-0.113,0.285-0.036,0.513,0.184,0.738
		c0.296,0.303,0.668,0.451,1.053,0.471C25.843,31.326,26.655,31.297,27.513,31.297z"/>
	<path fill="#ECCF42" d="M52.734,37.161c0,1.441-0.005,2.881,0.002,4.322c0.004,0.742-0.599,1.217-1.261,1.227
		c-0.523,0.008-1.154-0.553-1.148-1.126c0.008-0.812,0.006-1.625-0.001-2.437c-0.003-0.434-0.366-0.772-0.735-0.638
		c-0.204,0.074-0.405,0.267-0.52,0.458c-0.581,0.97-1.127,1.962-1.703,2.935c-0.119,0.201-0.301,0.374-0.479,0.53
		c-0.65,0.57-1.571,0.167-1.842-0.507c-0.121-0.302-0.125-0.666,0.05-0.98c0.368-0.659,0.744-1.314,1.117-1.97
		c0.127-0.223,0.255-0.446,0.384-0.668c0.096-0.167,0.09-0.292-0.08-0.432c-0.231-0.191-0.422-0.43-0.639-0.639
		c-0.408-0.393-0.626-0.876-0.713-1.429c-0.047-0.299-0.176-0.605-0.141-0.893c0.136-1.116,0.555-2.058,1.543-2.744
		c0.721-0.5,1.492-0.62,2.304-0.673c0.519-0.034,1.043,0.015,1.563-0.012c0.54-0.028,1.059,0.062,1.578,0.18
		c0.067,0.015,0.129,0.065,0.185,0.109c0.361,0.281,0.543,0.642,0.54,1.11c-0.009,1.425-0.003,2.851-0.003,4.276H52.734z
		 M49.022,36.076v-0.001c0.229,0,0.459,0.008,0.687-0.002c0.347-0.015,0.602-0.262,0.614-0.598c0.01-0.29,0.018-0.581,0.002-0.87
		c-0.024-0.426-0.245-0.631-0.67-0.637c-0.351-0.006-0.705-0.021-1.053,0.011c-0.234,0.022-0.496,0.066-0.683,0.192
		c-0.405,0.273-0.508,0.698-0.354,1.156c0.157,0.468,0.523,0.743,1,0.75C48.716,36.078,48.869,36.076,49.022,36.076z"/>
	<path fill="#ECCF42" d="M10.675,36.962c-0.073-0.807,0.116-1.647,0.52-2.404c0.509-0.955,1.162-1.819,2.151-2.343
		c0.493-0.262,0.992-0.562,1.526-0.686c0.732-0.17,1.493-0.269,2.257-0.127c0.904,0.168,1.757,0.465,2.497,1.018
		c0.333,0.249,0.621,0.562,0.914,0.862c0.258,0.264,0.211,0.605,0.125,0.909c-0.097,0.342-0.351,0.603-0.65,0.788
		c-0.472,0.292-0.934,0.248-1.334-0.162c-0.567-0.581-1.254-0.918-2.038-1.006c-0.412-0.046-0.858,0.012-1.262,0.122
		c-0.902,0.247-1.569,0.853-1.975,1.667c-0.264,0.529-0.359,1.13-0.275,1.765c0.091,0.694,0.332,1.287,0.788,1.798
		c0.816,0.915,1.837,1.213,3.033,1.004c0.607-0.106,1.106-0.388,1.562-0.788c0.197-0.173,0.404-0.336,0.687-0.404
		c0.489-0.118,0.851,0.037,1.174,0.389c0.586,0.639,0.35,1.283-0.081,1.695c-0.634,0.607-1.368,1.04-2.204,1.32
		c-0.628,0.211-1.261,0.352-1.921,0.324c-1.133-0.049-2.145-0.428-3.091-1.066c-0.918-0.619-1.519-1.461-1.984-2.43
		C10.764,38.52,10.644,37.789,10.675,36.962z"/>
	<path fill="#ECCF42" d="M30.219,38.812c-0.253,0.164-0.257,0.387-0.3,0.587c-0.099,0.458-0.189,0.918-0.288,1.376
		c-0.083,0.385-0.167,0.77-0.262,1.152c-0.101,0.405-0.414,0.656-0.85,0.703c-0.423,0.045-0.817-0.15-1.005-0.492
		c-0.153-0.278-0.188-0.545-0.106-0.874c0.197-0.794,0.325-1.605,0.492-2.407c0.145-0.698,0.307-1.391,0.455-2.088
		c0.138-0.651,0.258-1.307,0.404-1.957c0.122-0.54,0.523-0.907,0.976-0.93c0.399-0.02,0.906,0.351,1.086,0.795
		c0.119,0.296,0.236,0.592,0.356,0.887c0.292,0.713,0.586,1.425,0.877,2.138c0.091,0.222,0.168,0.449,0.266,0.667
		c0.048,0.106,0.131,0.196,0.246,0.36c0.116-0.186,0.221-0.312,0.28-0.456c0.382-0.936,0.743-1.881,1.137-2.812
		c0.125-0.296,0.289-0.569,0.382-0.886c0.122-0.418,0.677-0.739,1.073-0.694c0.474,0.054,0.846,0.47,0.933,0.979
		c0.081,0.475,0.214,0.941,0.315,1.412c0.08,0.369,0.145,0.742,0.222,1.112c0.107,0.519,0.223,1.037,0.325,1.557
		c0.087,0.446,0.157,0.896,0.239,1.344c0.068,0.372,0.15,0.741,0.215,1.113c0.119,0.678-0.238,1.114-0.753,1.274
		c-0.388,0.121-0.968-0.155-1.135-0.574c-0.122-0.307-0.186-0.639-0.255-0.964c-0.135-0.638-0.252-1.279-0.385-1.917
		c-0.026-0.127-0.086-0.246-0.137-0.39c-0.361,0.138-0.373,0.471-0.486,0.71c-0.302,0.638-0.557,1.299-0.829,1.952
		c-0.075,0.18-0.14,0.364-0.216,0.544c-0.18,0.43-0.517,0.619-0.969,0.595c-0.444-0.023-0.773-0.248-0.944-0.658
		c-0.384-0.919-0.751-1.845-1.131-2.765C30.391,39.074,30.302,38.955,30.219,38.812z"/>
	<path fill="#ECCF42" d="M23.486,36.099c0,0.383,0,0.702,0,1.057c0.119,0.013,0.234,0.037,0.35,0.037
		c0.536,0.004,1.073-0.001,1.609,0.003c0.627,0.005,1.155,0.414,1.332,0.994c0.07,0.229-0.287,0.924-0.593,1.001
		c-0.191,0.048-0.386,0.097-0.581,0.102c-0.567,0.014-1.134,0.001-1.701,0.008c-0.413,0.005-0.431,0.03-0.434,0.456
		c-0.001,0.168,0.004,0.337,0.009,0.505c0.001,0.029,0.016,0.058,0.04,0.141c0.244,0.026,0.51,0.071,0.778,0.079
		c0.49,0.014,0.983,0.035,1.47-0.002c0.461-0.035,0.996,0.49,1.012,0.984c0.016,0.514-0.455,1.048-0.984,1.055
		c-1.149,0.015-2.298,0.014-3.447,0c-0.474-0.006-0.908-0.476-0.912-0.964c-0.008-1.088-0.004-2.176-0.004-3.263
		c0-1.073-0.004-2.145,0.002-3.217c0.003-0.591,0.441-1.017,1.041-1.019c1.072-0.003,2.145-0.003,3.218,0.003
		c0.526,0.003,0.903,0.287,1.059,0.777c0.164,0.515-0.309,1.241-0.879,1.252c-0.659,0.013-1.318,0.008-1.976,0.01
		C23.775,36.099,23.655,36.099,23.486,36.099z"/>
	<path fill="#ECCF42" d="M40.592,36.912c0.197,0.03,0.357,0.07,0.518,0.076c0.306,0.012,0.613,0.002,0.92,0.006
		c0.928,0.012,1.617,0.471,2.133,1.198c0.4,0.565,0.591,1.223,0.455,1.904c-0.187,0.935-0.706,1.948-1.936,2.273
		c-0.377,0.1-0.741,0.153-1.124,0.152c-0.628-0.003-1.257,0.004-1.885-0.002c-0.719-0.007-1.118-0.415-1.118-1.139
		c-0.002-2.115-0.002-4.231-0.002-6.346c0-0.244-0.001-0.477,0.177-0.69c0.286-0.344,0.723-0.545,1.067-0.442
		c0.467,0.139,0.79,0.557,0.794,1.048C40.597,35.576,40.592,36.204,40.592,36.912z M41.538,39.029c-0.153,0-0.306-0.006-0.459,0.001
		c-0.324,0.015-0.468,0.154-0.484,0.467c-0.007,0.137-0.007,0.276-0.003,0.413c0.01,0.322,0.137,0.477,0.463,0.501
		c0.304,0.023,0.615,0.031,0.917-0.002c0.49-0.054,0.737-0.544,0.529-0.98c-0.132-0.276-0.32-0.436-0.642-0.403
		C41.753,39.038,41.645,39.029,41.538,39.029z"/>
	<path fill="#ECCF42" d="M38.1,25.64c0,1.517,0.002,3.035-0.002,4.552c0,0.166-0.048,0.332-0.045,0.497
		c0.007,0.405-0.241,0.596-0.573,0.73c-0.775,0.312-1.538,0.284-2.295-0.065c-0.344-0.158-0.503-0.411-0.496-0.794
		c0.012-0.72,0.022-1.441-0.006-2.161c-0.012-0.297-0.097-0.6-0.201-0.881c-0.101-0.274-0.57-0.39-0.824-0.197
		c-0.224,0.17-0.453,0.375-0.587,0.617c-0.468,0.843-0.883,1.715-1.344,2.563c-0.332,0.611-0.817,1.02-1.568,0.985
		c-0.438-0.021-0.875,0.059-1.307-0.145c-0.544-0.257-0.769-0.69-0.512-1.238c0.275-0.587,0.58-1.162,0.899-1.728
		c0.37-0.655,0.784-1.286,1.148-1.944c0.159-0.288,0.143-0.623-0.006-0.927c-0.166-0.34-0.344-0.675-0.523-1.009
		c-0.593-1.107-0.686-2.276-0.273-3.44c0.314-0.886,0.977-1.529,1.849-1.905c0.588-0.253,1.217-0.366,1.863-0.364
		c0.981,0.003,1.962-0.006,2.943,0.005c0.519,0.005,0.985,0.177,1.359,0.547c0.244,0.242,0.404,0.528,0.418,0.885
		c0.023,0.594,0.073,1.188,0.08,1.783C38.109,23.218,38.1,24.429,38.1,25.64z M33.82,24.299c0.815,0,1.43-0.64,1.423-1.481
		c-0.005-0.712-0.724-1.478-1.393-1.418c-0.825,0.074-1.362,0.552-1.42,1.419C32.377,23.614,33.045,24.299,33.82,24.299z"/>
	<path fill="#ECCF42" d="M27.513,31.297c-0.858,0-1.67,0.029-2.478-0.013c-0.385-0.02-0.757-0.168-1.053-0.471
		c-0.22-0.225-0.297-0.453-0.184-0.738c0.14-0.351,0.285-0.7,0.44-1.044c0.419-0.93,0.838-1.86,1.27-2.785
		c0.387-0.829,0.802-1.646,1.183-2.478c0.295-0.644,0.552-1.306,0.838-1.955c0.176-0.398,0.37-0.788,0.567-1.175
		c0.254-0.5,0.362-1.019,0.356-1.586c-0.004-0.362-0.19-0.598-0.429-0.737c-0.245-0.142-0.524-0.274-0.849-0.268
		c-1.027,0.018-2.055,0.005-3.082,0.001c-0.636-0.003-1.095-0.36-1.384-0.938c-0.274-0.547-0.324-1.103-0.151-1.656
		c0.143-0.459,0.44-0.852,0.888-1.083c0.269-0.139,0.555-0.208,0.871-0.207c2.975,0.011,5.95-0.004,8.925,0.017
		c1.116,0.008,2.015,1.005,1.997,2.087c-0.008,0.461-0.259,0.838-0.498,1.203c-0.381,0.582-0.394,0.574-1.107,0.575
		c-0.291,0.001-0.583,0-0.874,0c-1.159-0.003-2.106,0.494-2.936,1.257c-0.638,0.586-0.95,1.364-1.168,2.169
		c-0.097,0.359-0.018,0.763-0.044,1.145c-0.035,0.527,0.054,1.042,0.233,1.523c0.194,0.52,0.469,1.012,0.738,1.5
		c0.104,0.189,0.163,0.299,0.027,0.522c-0.501,0.821-0.959,1.668-1.432,2.506c-0.126,0.223-0.241,0.453-0.371,0.674
		c-0.281,0.475-0.379,0.982-0.296,1.528C27.528,30.99,27.513,31.113,27.513,31.297z"/>
	<path fill="#3D9063" d="M49.022,36.076c-0.153,0-0.306,0.002-0.458,0c-0.477-0.007-0.843-0.282-1-0.75
		c-0.154-0.459-0.051-0.883,0.354-1.156c0.187-0.126,0.45-0.17,0.683-0.192c0.349-0.032,0.702-0.017,1.053-0.011
		c0.426,0.007,0.646,0.211,0.67,0.637c0.016,0.289,0.009,0.58-0.002,0.87c-0.012,0.336-0.267,0.584-0.614,0.598
		c-0.229,0.01-0.458,0.002-0.687,0.002V36.076z"/>
	<path fill="#3D9063" d="M41.538,39.029c0.107,0,0.215,0.009,0.321-0.002c0.322-0.033,0.51,0.127,0.642,0.403
		c0.208,0.436-0.039,0.926-0.529,0.98c-0.302,0.033-0.613,0.025-0.917,0.002c-0.326-0.024-0.453-0.179-0.463-0.501
		c-0.004-0.138-0.004-0.276,0.003-0.413c0.016-0.313,0.159-0.452,0.484-0.467C41.231,39.024,41.385,39.029,41.538,39.029z"/>
	<path fill="#3D9063" d="M33.82,24.299c-0.775,0-1.443-0.685-1.389-1.481c0.058-0.867,0.595-1.344,1.42-1.419
		c0.669-0.06,1.388,0.705,1.393,1.418C35.249,23.66,34.635,24.299,33.82,24.299z"/>
</g>
</svg>
