<?xml version="1.0" encoding="utf-8"?>
<!-- Generator: Adobe Illustrator 18.1.1, SVG Export Plug-In . SVG Version: 6.00 Build 0)  -->
<svg version="1.1" id="Слой_1" xmlns="http://www.w3.org/2000/svg" xmlns:xlink="http://www.w3.org/1999/xlink" x="0px" y="0px"
	 viewBox="0 0 65.285 56.538" enable-background="new 0 0 65.285 56.538" xml:space="preserve">
<g>
	<polygon fill="#E4A747" points="16.321,56.538 0,28.269 16.321,0 48.964,0 65.285,28.269 48.964,56.538 	"/>
	<g>
		<path fill="#FFFFFF" d="M39.606,18.656c1.297,0.304,2.243,0.836,2.839,1.595s0.894,1.816,0.894,3.171v4.311
			c0,1.496-0.322,2.663-0.964,3.505c-0.643,0.841-1.66,1.436-3.049,1.788c-1.391,0.35-3.265,0.525-5.625,0.525h-3.014v1.718h3.926
			v2.838h-3.926v2.838h-5.467v-2.838h-1.752v-2.838h1.752v-1.718h-1.752v-3.75h1.752v-11.6h9.113
			C36.551,18.201,38.309,18.353,39.606,18.656z M38.047,23.912c0-0.747-0.28-1.237-0.841-1.471c-0.537-0.234-1.577-0.35-3.119-0.35
			h-3.399v7.709h3.469c1.426,0,2.43-0.169,3.014-0.508c0.584-0.339,0.876-0.917,0.876-1.735V23.912z"/>
	</g>
</g>
</svg>
