<?xml version="1.0" encoding="utf-8"?>
<!-- Generator: Adobe Illustrator 18.1.1, SVG Export Plug-In . SVG Version: 6.00 Build 0)  -->
<svg version="1.1" id="Слой_1" xmlns="http://www.w3.org/2000/svg" xmlns:xlink="http://www.w3.org/1999/xlink" x="0px" y="0px"
	 viewBox="0 0 29.213 25.299" enable-background="new 0 0 29.213 25.299" xml:space="preserve">
<g>
	<polygon fill="#F1564E" points="7.303,25.299 0,12.65 7.303,0 21.91,0 29.213,12.65 21.91,25.299 	"/>
	<path fill="#FFFFFF" d="M19.37,21.599H9.745c-2.2,0-4-1.8-4-4l0-9.625c0-2.2,1.8-4,4-4h9.625c2.2,0,4,1.8,4,4v9.625
		C23.37,19.799,21.57,21.599,19.37,21.599z"/>
	<path fill="#F2524C" d="M22.394,8.582c0,2.811,0,5.622,0,8.434c-0.008,0.017-0.021,0.034-0.022,0.051
		c-0.003,0.091-0.002,0.182-0.003,0.273c-0.009,0.086-0.014,0.173-0.029,0.258c-0.078,0.466-0.212,0.914-0.45,1.327
		c-0.192,0.333-0.435,0.624-0.729,0.87c-0.29,0.244-0.615,0.429-0.971,0.561c-0.349,0.131-0.71,0.209-1.081,0.243
		c-0.066,0-0.132,0.001-0.199,0.001c-0.047,0-0.094-0.002-0.141,0c-0.012,0.001-0.023,0.015-0.034,0.023c-2.795,0-5.589,0-8.384,0
		c-0.012-0.008-0.024-0.022-0.036-0.022c-0.071-0.002-0.143,0-0.215,0c-0.033,0-0.066,0-0.099,0c-0.09-0.01-0.181-0.016-0.27-0.032
		c-0.305-0.054-0.605-0.125-0.892-0.244c-0.369-0.153-0.706-0.356-1.001-0.628c-0.323-0.299-0.573-0.647-0.757-1.047
		c-0.192-0.417-0.291-0.856-0.34-1.309c0-0.058,0-0.116,0-0.173c0.001-0.055,0.002-0.111,0-0.166c0-0.012-0.015-0.023-0.023-0.035
		c0-2.811,0-5.622,0-8.434c0.048-0.035,0.016-0.084,0.022-0.126c0-0.058,0-0.116,0.001-0.174c0.019-0.143,0.03-0.288,0.059-0.428
		c0.078-0.381,0.199-0.747,0.385-1.091c0.155-0.286,0.348-0.542,0.579-0.769c0.289-0.283,0.621-0.503,0.994-0.663
		c0.398-0.171,0.813-0.265,1.242-0.309c0.058,0,0.116-0.001,0.173-0.001c0.047,0.001,0.094,0.003,0.141,0.001
		c0.012-0.001,0.023-0.015,0.035-0.023c2.803,0,5.606,0,8.409,0c0.017,0.007,0.034,0.021,0.051,0.021
		c0.099,0.003,0.198,0.002,0.298,0.003c0.118,0.016,0.237,0.03,0.355,0.049c0.444,0.072,0.861,0.218,1.251,0.443
		c0.567,0.329,0.99,0.793,1.279,1.378c0.216,0.437,0.329,0.904,0.376,1.388c0,0.033,0,0.066-0.001,0.099
		c0,0.072-0.002,0.143,0,0.215C22.371,8.559,22.386,8.571,22.394,8.582z M9.738,16.415c-0.025,0.013-0.05,0.026-0.091,0.047
		c0.04,0.003,0.063,0.006,0.085,0.006c0.663,0,1.326,0,1.989,0c0.025,0,0.052,0.005,0.074-0.003
		c0.012-0.005,0.017-0.031,0.025-0.048c0.054-0.003,0.107-0.005,0.172-0.008c-0.019-0.01-0.027-0.014-0.034-0.017
		c-0.019-0.008-0.037-0.016-0.056-0.023c-0.135-0.051-0.203-0.15-0.209-0.292c-0.005-0.1,0.003-0.197,0.043-0.291
		c0.055-0.133,0.104-0.269,0.157-0.403c0.251-0.635,0.503-1.271,0.754-1.906c0.025-0.063,0.054-0.125,0.09-0.209
		c0.009,0.188,0.02,0.352,0.024,0.516c0.01,0.422,0.017,0.844,0.026,1.265c0.008,0.434,0.017,0.868,0.025,1.302
		c0,0.019,0.007,0.038,0.01,0.056c0.028,0.004,0.048,0.006,0.068,0.009c0.008,0.016,0.014,0.044,0.026,0.047
		c0.027,0.007,0.057,0.003,0.086,0.003c0.672,0,1.343,0,2.015,0c0.029,0,0.059,0.004,0.086-0.003
		c0.012-0.003,0.017-0.031,0.025-0.047c0.053-0.002,0.106-0.005,0.168-0.008c0.08-0.211,0.16-0.421,0.24-0.632
		c0.081-0.212,0.162-0.423,0.243-0.634c0.08-0.208,0.159-0.415,0.239-0.623c0.081-0.212,0.161-0.423,0.242-0.635
		c0.079-0.206,0.153-0.415,0.252-0.614c0.004,0.188-0.005,0.374-0.007,0.559c-0.004,0.298-0.003,0.596-0.005,0.894
		c-0.002,0.426-0.001,0.853-0.005,1.279c-0.001,0.145,0.058,0.254,0.168,0.342c0.061,0.049,0.137,0.052,0.208,0.072
		c0.008,0.016,0.014,0.044,0.025,0.047c0.027,0.007,0.057,0.003,0.086,0.003c0.813,0,1.625,0,2.438,0
		c0.029,0,0.059,0.004,0.086-0.003c0.012-0.003,0.017-0.03,0.026-0.047c0.045-0.003,0.091-0.006,0.146-0.009
		c-0.028-0.016-0.045-0.028-0.064-0.035c-0.124-0.046-0.191-0.142-0.221-0.264c-0.018-0.076-0.026-0.155-0.031-0.232
		c-0.007-0.095-0.004-0.191-0.01-0.286c-0.02-0.329-0.043-0.659-0.064-0.988c-0.009-0.14-0.017-0.281-0.024-0.421
		c-0.018-0.33-0.035-0.66-0.053-0.99c-0.015-0.26-0.032-0.519-0.047-0.779c-0.017-0.301-0.034-0.602-0.051-0.904
		c-0.016-0.28-0.033-0.561-0.048-0.841c-0.019-0.355-0.038-0.71-0.053-1.065c-0.008-0.188-0.078-0.334-0.253-0.418
		c0.014-0.016,0.028-0.032,0.045-0.052c-0.931,0-1.859,0-2.786,0l-0.007,0.005c0,0,0.001,0.008,0.007,0.017c0.036,0,0.077,0,0.118,0
		c0.493,0,0.986,0,1.479,0c0.336,0,0.671-0.001,1.007,0.001c0.03,0,0.067-0.02,0.089,0.02c-0.008,0.001-0.016,0.003-0.025,0.003
		c-0.949-0.001-1.898-0.002-2.847-0.002c-0.034,0-0.067,0.004-0.119,0.008c0.179,0.094,0.251,0.227,0.225,0.407
		c-0.009,0.06-0.029,0.12-0.053,0.177c-0.276,0.662-0.553,1.323-0.83,1.984c-0.039,0.093-0.078,0.187-0.126,0.303
		c-0.01-0.185-0.02-0.346-0.026-0.506c-0.01-0.289-0.018-0.579-0.026-0.868c-0.01-0.376-0.018-0.753-0.029-1.129
		c-0.004-0.126-0.056-0.228-0.16-0.305c-0.071-0.053-0.146-0.069-0.231-0.069c-0.899,0.001-1.799,0-2.698,0.001
		c-0.023,0-0.045,0.004-0.087,0.009c0.037,0.022,0.059,0.033,0.079,0.047c0.129,0.088,0.182,0.212,0.158,0.364
		c-0.01,0.068-0.032,0.136-0.058,0.201c-0.16,0.397-0.323,0.794-0.485,1.19c-0.254,0.622-0.51,1.243-0.764,1.864
		c-0.246,0.603-0.488,1.207-0.733,1.81c-0.164,0.405-0.332,0.808-0.493,1.214c-0.092,0.232,0.026,0.437,0.226,0.497
		C9.653,16.387,9.695,16.401,9.738,16.415z M14.496,9.15c-0.271-0.034-2.531-0.026-2.625,0C12.754,9.15,13.625,9.15,14.496,9.15z"/>
</g>
</svg>
