<?xml version="1.0" encoding="utf-8"?>
<!-- Generator: Adobe Illustrator 18.1.1, SVG Export Plug-In . SVG Version: 6.00 Build 0)  -->
<svg version="1.1" id="Слой_1" xmlns="http://www.w3.org/2000/svg" xmlns:xlink="http://www.w3.org/1999/xlink" x="0px" y="0px"
	 viewBox="0 0 65.285 56.538" enable-background="new 0 0 65.285 56.538" xml:space="preserve">
<g>
	<polygon fill="#44C3D8" points="16.321,56.538 0,28.269 16.321,0 48.964,0 65.285,28.269 48.964,56.538 	"/>
	<g>
		<polygon fill="#FFFFFF" points="32.035,18.267 14.086,24.987 15.085,25.36 32.036,31.706 47.788,25.808 49.984,24.987 		"/>
		<path fill="#FFFFFF" d="M21.27,29.633v1.645v4.004c0,2.152,4.819,3.895,10.765,3.895c4.031,0,7.541-0.802,9.386-1.988
			c0.876-0.564,1.379-1.214,1.379-1.907v-5.648l-10.764,4.029L21.27,29.633z"/>
		<polygon fill="#FFFFFF" points="49.954,25.97 49.17,26.261 48.902,28.227 48.122,33.945 49.682,33.945 51.043,33.945 		"/>
	</g>
</g>
</svg>
