<?xml version="1.0" encoding="utf-8"?>
<!-- Generator: Adobe Illustrator 18.1.1, SVG Export Plug-In . SVG Version: 6.00 Build 0)  -->
<svg version="1.1" id="Слой_1" xmlns="http://www.w3.org/2000/svg" xmlns:xlink="http://www.w3.org/1999/xlink" x="0px" y="0px"
	 viewBox="0 0 65.285 56.538" enable-background="new 0 0 65.285 56.538" xml:space="preserve">
<g>
	<polygon fill="#F1564E" points="16.321,56.538 0,28.269 16.321,0 48.964,0 65.285,28.269 48.964,56.538 	"/>
	<g>
		<path fill="#FFFFFF" d="M47.243,20.514c-0.205-0.273-0.546-0.41-0.853-0.41H22.67l-0.819-3.686
			c-0.102-0.41-0.41-0.751-0.819-0.853l-4.539-1.126c-0.614-0.137-1.229,0.205-1.365,0.819c-0.137,0.614,0.205,1.229,0.819,1.365
			l3.857,0.956l4.641,21.194c0.102,0.512,0.58,0.887,1.092,0.887h17.849c0.614,0,1.126-0.512,1.126-1.126
			c0-0.614-0.512-1.126-1.126-1.126H26.458l-0.444-1.979l18.532-2.15c0.478-0.068,0.887-0.444,0.99-0.921l1.979-10.921
			C47.55,21.128,47.482,20.787,47.243,20.514z M44.478,25.496l-3.481,0.205l0.307-3.31h3.72L44.478,25.496z M33.113,28.397v3.925
			l-2.764,0.307l-0.341-4.061L33.113,28.397z M29.803,26.35l-0.341-3.959h3.652v3.754L29.803,26.35z M35.4,28.295l3.106-0.171
			l-0.341,3.652l-2.73,0.307v-3.788H35.4z M35.4,26.008v-3.618h3.652l-0.341,3.447L35.4,26.008z M27.175,22.391l0.341,4.095
			l-3.447,0.205l-0.921-4.3H27.175z M24.581,28.909l3.14-0.171l0.375,4.198l-2.56,0.307L24.581,28.909z M40.417,31.503l0.341-3.515
			l3.276-0.205l-0.614,3.379L40.417,31.503z"/>
		<circle fill="#FFFFFF" cx="41.065" cy="43.619" r="2.662"/>
		<circle fill="#FFFFFF" cx="27.994" cy="43.619" r="2.662"/>
	</g>
</g>
</svg>
