<?xml version="1.0" encoding="utf-8"?>
<!-- Generator: Adobe Illustrator 18.1.1, SVG Export Plug-In . SVG Version: 6.00 Build 0)  -->
<svg version="1.1" id="Слой_1" xmlns="http://www.w3.org/2000/svg" xmlns:xlink="http://www.w3.org/1999/xlink" x="0px" y="0px"
	 viewBox="0 0 65.285 56.538" enable-background="new 0 0 65.285 56.538" xml:space="preserve">
<g>
	<polygon fill="#E17E4A" points="16.321,56.538 0,28.269 16.321,0 48.964,0 65.285,28.269 48.964,56.538 	"/>
	<g>
		<path fill="#FFFFFF" d="M24.096,35.686c-0.103-0.316-0.257-0.513-0.462-0.593c-0.205-0.079-0.514-0.051-0.927,0.083l-1.738,0.565
			l0.741,2.278l1.462-0.475c0.5-0.163,0.837-0.335,1.011-0.518c0.174-0.183,0.219-0.401,0.136-0.656L24.096,35.686z"/>
		<path fill="#FFFFFF" d="M22.644,33.639c0.141-0.104,0.221-0.225,0.239-0.361c0.019-0.137-0.009-0.32-0.083-0.548l-0.137-0.422
			c-0.066-0.202-0.141-0.345-0.227-0.429c-0.085-0.084-0.217-0.121-0.393-0.112s-0.441,0.071-0.792,0.185l-1.37,0.445l0.655,2.015
			l1.409-0.458C22.271,33.848,22.504,33.743,22.644,33.639z"/>
		<path fill="#FFFFFF" d="M28.813,27.963c-0.741-2.216-3.16-3.422-5.375-2.681l-8.632,2.886c-2.216,0.741-3.422,3.16-2.681,5.376
			l2.887,8.632c0.741,2.216,3.16,3.422,5.375,2.681l8.632-2.886c2.216-0.741,3.422-3.16,2.681-5.376L28.813,27.963z M26.113,37.725
			c-0.459,0.47-1.268,0.892-2.427,1.269l-3.556,1.156l-2.778-8.547l3.464-1.126c0.816-0.265,1.466-0.411,1.947-0.436
			c0.482-0.026,0.857,0.061,1.126,0.26c0.268,0.199,0.478,0.532,0.63,0.997l0.342,1.053c0.077,0.237,0.055,0.492-0.065,0.764
			c-0.121,0.272-0.295,0.489-0.524,0.651l0.021,0.066c0.345-0.073,0.696-0.03,1.054,0.13c0.358,0.161,0.587,0.394,0.687,0.702
			l0.428,1.317C26.689,36.674,26.572,37.255,26.113,37.725z"/>
		<path fill="#FFFFFF" d="M46.895,27.048l-9.102-0.042c-2.336-0.011-4.257,1.892-4.267,4.228l-0.042,9.102
			c-0.011,2.336,1.892,4.257,4.228,4.267l9.102,0.042c2.336,0.011,4.257-1.892,4.267-4.228l0.042-9.102
			C51.134,28.979,49.231,27.058,46.895,27.048z M46.235,39.978c-0.988,0.203-1.957,0.305-2.908,0.305
			c-0.406,0-0.768-0.019-1.087-0.055s-0.667-0.106-1.046-0.208c-0.425-0.111-0.775-0.256-1.052-0.436
			c-0.277-0.18-0.508-0.431-0.693-0.755c-0.194-0.323-0.291-0.706-0.291-1.15v-3.946c0-1.809,1.389-2.714,4.168-2.714
			c0.711,0,1.662,0.102,2.853,0.305v1.62c-1.071-0.258-2.013-0.388-2.825-0.388c-0.341,0-0.607,0.009-0.796,0.028
			c-0.189,0.019-0.385,0.065-0.589,0.138c-0.434,0.148-0.651,0.476-0.651,0.983v3.822c0,0.812,0.743,1.219,2.229,1.219
			c0.637,0,1.532-0.134,2.686-0.402V39.978z"/>
		<polygon fill="#FFFFFF" points="34.664,14.23 34.608,14.23 33.473,17.608 35.799,17.608 		"/>
		<path fill="#FFFFFF" d="M30.072,25.792l9.102,0.042c2.336,0.011,4.257-1.892,4.267-4.228l0.042-9.102
			c0.011-2.336-1.892-4.257-4.228-4.267l-9.102-0.042c-2.336-0.011-4.256,1.892-4.267,4.228l-0.042,9.102
			C25.833,23.861,27.736,25.781,30.072,25.792z M33.39,12.429h2.631l3.24,8.987h-2.188l-0.803-2.368h-3.282l-0.789,2.368h-2.133
			L33.39,12.429z"/>
	</g>
</g>
</svg>
