<?xml version="1.0" encoding="utf-8"?>
<!-- Generator: Adobe Illustrator 18.1.1, SVG Export Plug-In . SVG Version: 6.00 Build 0)  -->
<svg version="1.1" id="Слой_1" xmlns="http://www.w3.org/2000/svg" xmlns:xlink="http://www.w3.org/1999/xlink" x="0px" y="0px"
	 viewBox="0 0 30.804 26.677" enable-background="new 0 0 30.804 26.677" xml:space="preserve">
<polygon fill="#F1564E" points="7.701,26.677 0,13.338 7.701,0 23.103,0 30.804,13.338 23.103,26.677 "/>
<g>
	<path fill="#3D9063" d="M4.762,17.624c0.026-0.089,0.061-0.176,0.076-0.267c0.15-0.881,0.613-1.559,1.344-2.056
		c0.549-0.372,1.163-0.548,1.825-0.516c0.8,0.038,1.489,0.347,2.066,0.903c0.153,0.147,0.25,0.328,0.307,0.542
		c0.194-0.114,0.396-0.131,0.605-0.128c0.482,0.005,0.964-0.001,1.446,0.004c0.398,0.004,0.676,0.2,0.817,0.569
		c0.121,0.317,0.06,0.611-0.169,0.864c-0.063,0.07-0.138,0.13-0.196,0.184c0.128,0.141,0.25,0.276,0.375,0.414
		c0.057-0.274,0.116-0.556,0.175-0.837c0.045-0.217,0.083-0.435,0.139-0.649c0.09-0.342,0.33-0.546,0.664-0.612
		c0.338-0.067,0.631,0.049,0.842,0.328c0.075,0.099,0.129,0.216,0.179,0.33c0.138,0.318,0.268,0.64,0.402,0.96
		c0.021,0.051,0.048,0.099,0.09,0.184c0.146-0.347,0.276-0.657,0.407-0.968c0.052-0.123,0.099-0.248,0.159-0.366
		c0.175-0.343,0.526-0.529,0.899-0.477c0.304,0.042,0.649,0.311,0.72,0.695c0.069,0.37,0.151,0.737,0.229,1.105
		c0.016,0.077,0.038,0.153,0.092,0.224c0-0.355-0.001-0.71,0-1.065c0-0.219,0.042-0.425,0.174-0.607
		c0.213-0.294,0.591-0.436,0.92-0.336c0.393,0.119,0.64,0.459,0.637,0.792c-0.002,0.207,0,0.414,0,0.633
		c0.172,0.019,0.332,0.03,0.489,0.054c0.684,0.105,1.139,0.489,1.377,1.136c0.018,0.049,0.038,0.096,0.068,0.169
		c0.073-0.118,0.137-0.222,0.19-0.308c-0.152-0.206-0.311-0.384-0.428-0.587c-0.71-1.234,0.042-2.708,1.275-2.988
		c0.193-0.044,0.393-0.071,0.59-0.076c0.445-0.01,0.89-0.005,1.334,0.001c0.277,0.004,0.519,0.102,0.72,0.297
		c0.163,0.157,0.248,0.348,0.253,0.573c0.003,0.156,0.001,0.311,0.001,0.467c0,1.283,0.002,2.565-0.003,3.848
		c-0.002,0.461-0.296,0.816-0.745,0.925c-0.493,0.119-1.038-0.222-1.124-0.72c-0.034-0.195-0.032-0.397-0.04-0.596
		c-0.006-0.138-0.001-0.276-0.033-0.423c-0.156,0.267-0.312,0.534-0.467,0.801c-0.089,0.153-0.173,0.31-0.266,0.461
		c-0.279,0.457-0.805,0.632-1.244,0.407c-0.133-0.068-0.245-0.183-0.359-0.285c-0.053-0.047-0.087-0.115-0.137-0.185
		c-0.054,0.04-0.1,0.073-0.146,0.107c-0.325,0.241-0.687,0.369-1.094,0.365c-0.289-0.003-0.578-0.004-0.867,0
		c-0.317,0.004-0.623-0.022-0.83-0.257c-0.185,0.107-0.338,0.229-0.513,0.292c-0.416,0.149-0.895-0.098-1.038-0.521
		c-0.061-0.181-0.098-0.37-0.153-0.583c-0.075,0.184-0.143,0.347-0.208,0.511c-0.095,0.243-0.238,0.443-0.482,0.554
		c-0.459,0.21-0.969,0.003-1.175-0.475c-0.059-0.136-0.111-0.274-0.169-0.41c-0.016-0.037-0.044-0.068-0.085-0.13
		c-0.042,0.169-0.079,0.301-0.106,0.435c-0.117,0.572-0.894,0.935-1.436,0.407c-0.021-0.021-0.044-0.039-0.079-0.069
		c-0.234,0.221-0.523,0.262-0.835,0.253c-0.415-0.012-0.83-0.001-1.245-0.003c-0.56-0.003-0.809-0.179-0.997-0.708
		c-0.139,0.099-0.273,0.202-0.414,0.292c-0.593,0.376-1.243,0.561-1.943,0.491c-0.991-0.099-1.771-0.57-2.331-1.4
		c-0.284-0.421-0.435-0.886-0.494-1.385c-0.004-0.033-0.023-0.064-0.035-0.096C4.762,17.95,4.762,17.787,4.762,17.624z
		 M25.496,17.967L25.496,17.967c0.001-0.689-0.002-1.378,0.002-2.067c0.001-0.226-0.087-0.401-0.261-0.537
		c-0.027-0.021-0.057-0.046-0.089-0.053c-0.251-0.057-0.502-0.101-0.763-0.087c-0.251,0.013-0.505-0.01-0.755,0.006
		c-0.393,0.026-0.766,0.084-1.114,0.326c-0.478,0.332-0.68,0.787-0.746,1.326c-0.017,0.139,0.045,0.287,0.068,0.432
		c0.042,0.267,0.147,0.501,0.345,0.691c0.105,0.101,0.197,0.217,0.309,0.309c0.082,0.068,0.085,0.128,0.039,0.209
		c-0.062,0.108-0.124,0.215-0.185,0.323c-0.18,0.317-0.362,0.634-0.54,0.952c-0.085,0.152-0.083,0.328-0.024,0.474
		c0.131,0.326,0.576,0.521,0.891,0.245c0.086-0.076,0.174-0.159,0.232-0.256c0.279-0.471,0.542-0.95,0.823-1.419
		c0.056-0.093,0.153-0.186,0.251-0.222c0.178-0.065,0.354,0.099,0.355,0.309c0.003,0.393,0.004,0.786,0,1.178
		c-0.003,0.277,0.302,0.548,0.555,0.545c0.32-0.005,0.612-0.234,0.61-0.593C25.493,19.36,25.496,18.663,25.496,17.967z
		 M5.161,17.871c-0.015,0.4,0.043,0.753,0.203,1.085c0.225,0.468,0.516,0.876,0.959,1.175c0.457,0.308,0.946,0.492,1.494,0.515
		c0.319,0.014,0.625-0.055,0.929-0.157c0.404-0.136,0.759-0.345,1.065-0.638c0.208-0.199,0.322-0.511,0.039-0.82
		c-0.156-0.17-0.331-0.245-0.567-0.188c-0.137,0.033-0.237,0.112-0.332,0.196c-0.221,0.193-0.462,0.33-0.755,0.381
		c-0.579,0.101-1.072-0.043-1.466-0.485c-0.22-0.247-0.337-0.534-0.381-0.869c-0.04-0.307,0.005-0.598,0.133-0.853
		C6.678,16.818,7,16.525,7.436,16.406c0.195-0.053,0.411-0.081,0.61-0.059c0.379,0.042,0.711,0.206,0.985,0.486
		c0.193,0.198,0.417,0.219,0.645,0.078c0.145-0.09,0.267-0.216,0.314-0.381c0.042-0.147,0.064-0.312-0.06-0.44
		c-0.142-0.145-0.281-0.296-0.442-0.417c-0.358-0.267-0.77-0.411-1.207-0.492c-0.37-0.068-0.738-0.021-1.091,0.062
		c-0.258,0.06-0.499,0.205-0.738,0.331c-0.478,0.254-0.794,0.671-1.04,1.133C5.218,17.075,5.126,17.48,5.161,17.871z M14.61,18.765
		c0.04,0.069,0.083,0.127,0.11,0.191c0.184,0.445,0.361,0.893,0.547,1.337c0.083,0.199,0.242,0.307,0.456,0.318
		c0.218,0.011,0.382-0.08,0.468-0.288c0.036-0.087,0.068-0.176,0.104-0.263c0.132-0.316,0.255-0.635,0.401-0.944
		c0.055-0.116,0.061-0.277,0.235-0.343c0.025,0.069,0.054,0.127,0.066,0.188c0.064,0.309,0.121,0.619,0.186,0.927
		c0.033,0.157,0.064,0.318,0.123,0.466c0.081,0.203,0.361,0.336,0.549,0.277c0.249-0.078,0.422-0.288,0.364-0.616
		c-0.032-0.18-0.071-0.358-0.104-0.538c-0.04-0.216-0.074-0.434-0.116-0.65c-0.049-0.252-0.105-0.502-0.157-0.753
		c-0.037-0.179-0.069-0.359-0.107-0.538c-0.049-0.228-0.113-0.453-0.153-0.683c-0.042-0.246-0.222-0.447-0.451-0.473
		c-0.191-0.022-0.46,0.133-0.519,0.336c-0.045,0.153-0.124,0.285-0.185,0.428c-0.191,0.45-0.365,0.907-0.55,1.359
		c-0.029,0.07-0.079,0.131-0.135,0.221c-0.055-0.08-0.096-0.123-0.119-0.174c-0.048-0.105-0.085-0.215-0.129-0.323
		c-0.141-0.345-0.283-0.689-0.424-1.034c-0.058-0.143-0.115-0.286-0.172-0.429c-0.087-0.215-0.332-0.394-0.525-0.384
		c-0.219,0.011-0.413,0.188-0.472,0.45c-0.071,0.314-0.129,0.631-0.196,0.946c-0.072,0.337-0.15,0.672-0.22,1.01
		c-0.08,0.388-0.143,0.78-0.238,1.164c-0.039,0.159-0.022,0.288,0.051,0.422c0.091,0.166,0.281,0.26,0.486,0.238
		c0.211-0.023,0.362-0.144,0.411-0.34c0.046-0.185,0.087-0.371,0.127-0.557c0.048-0.222,0.092-0.444,0.139-0.665
		C14.486,18.952,14.488,18.844,14.61,18.765z M11.355,17.453c0.081,0,0.14,0,0.198,0c0.319-0.001,0.637,0.001,0.956-0.005
		c0.276-0.006,0.504-0.357,0.425-0.606c-0.075-0.237-0.258-0.374-0.512-0.376c-0.519-0.003-1.037-0.003-1.556-0.001
		c-0.29,0.001-0.502,0.207-0.503,0.493c-0.003,0.519-0.001,1.037-0.001,1.556c0,0.526-0.002,1.052,0.002,1.578
		c0.002,0.236,0.211,0.463,0.441,0.466c0.555,0.007,1.111,0.007,1.667,0c0.255-0.003,0.484-0.262,0.476-0.51
		c-0.008-0.239-0.266-0.493-0.489-0.476c-0.236,0.018-0.474,0.008-0.711,0.001c-0.129-0.004-0.258-0.025-0.376-0.038
		c-0.012-0.041-0.019-0.054-0.019-0.068c-0.002-0.081-0.005-0.163-0.004-0.244c0.001-0.206,0.01-0.218,0.21-0.221
		c0.274-0.003,0.548,0.003,0.822-0.004c0.094-0.002,0.189-0.026,0.281-0.049c0.148-0.037,0.32-0.373,0.286-0.484
		c-0.086-0.281-0.341-0.478-0.644-0.481c-0.259-0.002-0.519,0.001-0.778-0.001c-0.056,0-0.112-0.012-0.169-0.018
		C11.355,17.792,11.355,17.638,11.355,17.453z M19.626,17.846c0-0.342,0.002-0.646-0.001-0.949
		c-0.002-0.237-0.158-0.439-0.384-0.507c-0.167-0.05-0.378,0.048-0.516,0.214c-0.086,0.103-0.085,0.216-0.085,0.334
		c0,1.023,0,2.046,0.001,3.068c0,0.35,0.193,0.547,0.541,0.55c0.304,0.003,0.608,0,0.912,0.001c0.185,0.001,0.361-0.025,0.543-0.073
		c0.594-0.157,0.845-0.647,0.936-1.099c0.066-0.329-0.026-0.647-0.22-0.92c-0.249-0.352-0.583-0.574-1.031-0.579
		c-0.148-0.002-0.297,0.003-0.445-0.003C19.798,17.88,19.721,17.861,19.626,17.846z M9.961,17.17
		c-0.049,0.025-0.081,0.04-0.112,0.057c-0.375,0.203-0.724,0.163-1.046-0.116c-0.061-0.053-0.125-0.105-0.189-0.155
		c-0.224-0.175-0.484-0.266-0.763-0.252c-0.709,0.034-1.17,0.639-1.148,1.224c0.033,0.864,0.927,1.421,1.7,1.034
		c0.136-0.068,0.257-0.171,0.377-0.269c0.414-0.335,0.725-0.309,1.064-0.138c0.034,0.017,0.072,0.027,0.115,0.043
		C9.961,18.116,9.961,17.653,9.961,17.17z"/>
	<path fill="#3D9063" d="M16.375,2.674c0.095,0.03,0.189,0.062,0.285,0.09c0.694,0.205,1.2,0.848,1.233,1.547
		c0.036,0.784-0.425,1.464-1.126,1.712c-0.657,0.233-1.259,0.108-1.764-0.376c-0.488-0.468-0.656-1.042-0.468-1.701
		c0.192-0.676,0.656-1.064,1.326-1.228c0.039-0.01,0.076-0.03,0.113-0.045C16.108,2.674,16.241,2.674,16.375,2.674z"/>
	<path fill="#3D9063" d="M18.62,15.296c-0.534,0.42-1.121,0.467-1.741,0.202c-0.314-0.134-0.482-0.376-0.473-0.731
		c0.008-0.296,0.004-0.593,0.001-0.89c-0.001-0.085-0.016-0.17-0.068-0.263c-0.104,0.194-0.21,0.387-0.313,0.582
		c-0.142,0.268-0.275,0.54-0.425,0.803c-0.213,0.374-0.531,0.584-0.974,0.588c-0.349,0.004-0.699,0.025-1.003-0.185
		c-0.581,0.204-1.169,0.173-1.756,0.082c-0.229-0.036-0.433-0.143-0.601-0.311c-0.214-0.214-0.256-0.462-0.135-0.733
		c0.228-0.513,0.464-1.022,0.696-1.534c0.476-1.05,0.954-2.099,1.424-3.151c0.053-0.119,0.08-0.254,0.094-0.384
		c0.016-0.153-0.011-0.181-0.16-0.212c-0.086-0.018-0.176-0.026-0.264-0.027c-0.4-0.003-0.801-0.01-1.201,0
		c-0.557,0.014-0.928-0.247-1.141-0.748c-0.18-0.423-0.193-0.848,0.033-1.261c0.24-0.438,0.61-0.679,1.113-0.682
		c0.919-0.007,1.839-0.002,2.758-0.004c2.009-0.004,4.018-0.01,6.027-0.015c0.429-0.001,0.796,0.133,1.081,0.468
		c0.573,0.672,0.322,1.586-0.183,2.012c-0.186,0.157-0.411,0.229-0.657,0.228c-0.43-0.001-0.86-0.001-1.29,0.003
		c-0.095,0.001-0.192,0.012-0.285,0.031c-0.154,0.031-0.202,0.097-0.163,0.252c0.045,0.179,0.094,0.36,0.171,0.526
		c0.245,0.53,0.5,1.054,0.757,1.578c0.355,0.724,0.722,1.442,1.067,2.17c0.106,0.224,0.187,0.47,0.221,0.715
		c0.082,0.584-0.214,0.988-0.782,1.086c-0.455,0.078-0.915,0.09-1.368,0.002C18.925,15.463,18.784,15.369,18.62,15.296z
		 M18.421,12.396c0-0.585,0.004-1.171-0.002-1.756c-0.003-0.287-0.028-0.575-0.038-0.862c-0.007-0.173-0.084-0.311-0.202-0.428
		c-0.181-0.179-0.406-0.262-0.657-0.265c-0.474-0.005-0.949-0.001-1.423-0.002c-0.312-0.001-0.617,0.053-0.901,0.176
		c-0.421,0.181-0.742,0.492-0.894,0.921c-0.2,0.563-0.155,1.128,0.132,1.663c0.086,0.161,0.172,0.323,0.253,0.488
		c0.072,0.147,0.08,0.309,0.003,0.448c-0.176,0.318-0.376,0.623-0.555,0.94c-0.154,0.273-0.301,0.551-0.434,0.835
		c-0.124,0.265-0.015,0.474,0.248,0.599c0.209,0.099,0.42,0.06,0.632,0.07c0.363,0.017,0.597-0.181,0.758-0.476
		c0.223-0.41,0.423-0.831,0.65-1.239c0.065-0.117,0.175-0.216,0.284-0.298c0.123-0.093,0.35-0.037,0.399,0.095
		c0.05,0.136,0.091,0.283,0.097,0.426c0.014,0.348,0.009,0.696,0.003,1.045c-0.003,0.185,0.074,0.308,0.24,0.384
		c0.366,0.169,0.735,0.182,1.11,0.031c0.161-0.065,0.28-0.157,0.277-0.353c-0.001-0.08,0.022-0.16,0.022-0.241
		C18.421,13.864,18.421,13.13,18.421,12.396z M13.302,15.132c0-0.089,0.007-0.149-0.001-0.206c-0.04-0.264,0.008-0.509,0.143-0.739
		c0.063-0.107,0.119-0.218,0.18-0.326c0.229-0.405,0.45-0.815,0.692-1.211c0.066-0.108,0.038-0.161-0.013-0.253
		c-0.13-0.236-0.263-0.474-0.357-0.725c-0.087-0.232-0.13-0.481-0.113-0.736c0.012-0.185-0.026-0.38,0.021-0.554
		c0.105-0.389,0.256-0.766,0.565-1.049c0.401-0.369,0.859-0.609,1.419-0.608c0.141,0,0.282,0,0.423,0
		c0.345-0.001,0.351,0.003,0.535-0.278c0.116-0.177,0.237-0.359,0.241-0.582c0.009-0.523-0.426-1.005-0.965-1.009
		c-1.438-0.01-2.877-0.003-4.315-0.008c-0.153-0.001-0.291,0.033-0.421,0.1c-0.217,0.112-0.36,0.302-0.429,0.524
		c-0.084,0.268-0.059,0.536,0.073,0.801c0.14,0.279,0.361,0.452,0.669,0.454c0.497,0.002,0.994,0.008,1.49,0
		c0.157-0.003,0.292,0.061,0.41,0.129c0.115,0.067,0.205,0.181,0.207,0.356c0.003,0.274-0.049,0.525-0.172,0.767
		c-0.095,0.187-0.189,0.376-0.274,0.568c-0.139,0.314-0.262,0.634-0.405,0.945c-0.184,0.402-0.385,0.797-0.572,1.198
		c-0.209,0.447-0.411,0.897-0.614,1.346c-0.075,0.166-0.145,0.335-0.213,0.505c-0.055,0.138-0.018,0.248,0.089,0.357
		c0.143,0.147,0.323,0.218,0.509,0.228C12.495,15.146,12.887,15.132,13.302,15.132z"/>
	<path fill="#ECCF42" d="M25.496,17.967c0,0.697-0.002,1.393,0.001,2.09c0.002,0.359-0.29,0.589-0.61,0.593
		c-0.253,0.004-0.558-0.267-0.555-0.545c0.004-0.393,0.003-0.785,0-1.178c-0.002-0.21-0.177-0.373-0.355-0.309
		c-0.099,0.036-0.196,0.129-0.251,0.222c-0.281,0.469-0.545,0.948-0.823,1.419c-0.058,0.097-0.146,0.181-0.232,0.256
		c-0.314,0.275-0.76,0.081-0.891-0.245c-0.059-0.146-0.061-0.322,0.024-0.474c0.178-0.319,0.36-0.635,0.54-0.952
		c0.061-0.108,0.123-0.216,0.185-0.323c0.047-0.081,0.043-0.141-0.039-0.209c-0.112-0.092-0.204-0.208-0.309-0.309
		c-0.197-0.19-0.303-0.424-0.345-0.691c-0.023-0.144-0.085-0.293-0.068-0.432c0.066-0.54,0.268-0.995,0.746-1.326
		c0.348-0.242,0.721-0.3,1.114-0.326c0.251-0.016,0.504,0.007,0.755-0.006c0.261-0.014,0.512,0.03,0.763,0.087
		c0.032,0.007,0.062,0.032,0.089,0.053c0.174,0.136,0.263,0.311,0.261,0.537C25.494,16.588,25.496,17.277,25.496,17.967
		L25.496,17.967z M23.701,17.442L23.701,17.442c0.111-0.001,0.222,0.003,0.332-0.001c0.168-0.007,0.291-0.127,0.297-0.289
		c0.005-0.14,0.009-0.281,0.001-0.421c-0.012-0.206-0.118-0.305-0.324-0.308c-0.17-0.003-0.341-0.01-0.509,0.006
		c-0.113,0.01-0.24,0.032-0.33,0.093c-0.196,0.132-0.246,0.337-0.171,0.559c0.076,0.226,0.253,0.359,0.483,0.362
		C23.553,17.443,23.627,17.442,23.701,17.442z"/>
	<path fill="#ECCF42" d="M5.161,17.871c-0.035-0.39,0.056-0.796,0.252-1.162c0.246-0.462,0.562-0.879,1.04-1.133
		c0.238-0.126,0.48-0.272,0.738-0.331c0.354-0.082,0.722-0.13,1.091-0.062c0.437,0.081,0.85,0.225,1.207,0.492
		c0.161,0.12,0.3,0.272,0.442,0.417c0.125,0.128,0.102,0.293,0.06,0.44c-0.047,0.165-0.17,0.292-0.314,0.381
		c-0.228,0.141-0.452,0.12-0.645-0.078c-0.274-0.281-0.606-0.444-0.985-0.486c-0.199-0.022-0.415,0.006-0.61,0.059
		C7,16.525,6.678,16.818,6.481,17.212c-0.128,0.256-0.173,0.546-0.133,0.853c0.044,0.336,0.161,0.622,0.381,0.869
		c0.394,0.442,0.888,0.587,1.466,0.485c0.293-0.051,0.535-0.188,0.755-0.381c0.095-0.083,0.195-0.163,0.332-0.196
		c0.237-0.057,0.411,0.018,0.567,0.188c0.283,0.309,0.169,0.62-0.039,0.82c-0.307,0.293-0.661,0.503-1.065,0.638
		c-0.303,0.102-0.609,0.17-0.929,0.157c-0.548-0.024-1.037-0.207-1.494-0.515c-0.444-0.299-0.734-0.706-0.959-1.175
		C5.204,18.624,5.146,18.27,5.161,17.871z"/>
	<path fill="#ECCF42" d="M14.61,18.765c-0.122,0.079-0.124,0.187-0.145,0.284c-0.048,0.222-0.092,0.444-0.139,0.665
		c-0.04,0.186-0.081,0.372-0.127,0.557c-0.049,0.196-0.2,0.317-0.411,0.34c-0.205,0.022-0.395-0.072-0.486-0.238
		c-0.074-0.135-0.091-0.264-0.051-0.422c0.095-0.384,0.157-0.776,0.238-1.164c0.07-0.337,0.148-0.673,0.22-1.01
		c0.067-0.315,0.125-0.632,0.196-0.946c0.059-0.261,0.253-0.438,0.472-0.45c0.193-0.01,0.438,0.17,0.525,0.384
		c0.058,0.143,0.114,0.286,0.172,0.429c0.141,0.345,0.283,0.689,0.424,1.034c0.044,0.107,0.081,0.217,0.129,0.323
		c0.023,0.051,0.063,0.095,0.119,0.174c0.056-0.09,0.107-0.151,0.135-0.221c0.185-0.453,0.359-0.909,0.55-1.359
		c0.061-0.143,0.14-0.275,0.185-0.428c0.059-0.202,0.328-0.357,0.519-0.336c0.229,0.026,0.409,0.227,0.451,0.473
		c0.039,0.23,0.103,0.455,0.153,0.683c0.039,0.179,0.07,0.359,0.107,0.538c0.052,0.251,0.108,0.501,0.157,0.753
		c0.042,0.216,0.076,0.433,0.116,0.65c0.033,0.18,0.073,0.358,0.104,0.538c0.057,0.328-0.115,0.538-0.364,0.616
		c-0.187,0.058-0.468-0.075-0.549-0.277c-0.059-0.148-0.09-0.309-0.123-0.466c-0.065-0.308-0.122-0.618-0.186-0.927
		c-0.013-0.061-0.041-0.119-0.066-0.188c-0.174,0.067-0.18,0.228-0.235,0.343c-0.146,0.309-0.27,0.628-0.401,0.944
		c-0.036,0.087-0.068,0.176-0.104,0.263c-0.087,0.208-0.25,0.299-0.468,0.288c-0.215-0.011-0.374-0.12-0.456-0.318
		c-0.186-0.444-0.363-0.892-0.547-1.337C14.693,18.892,14.651,18.834,14.61,18.765z"/>
	<path fill="#ECCF42" d="M11.355,17.453c0,0.185,0,0.339,0,0.511c0.057,0.006,0.113,0.018,0.169,0.018
		c0.259,0.002,0.519-0.001,0.778,0.001c0.303,0.002,0.558,0.2,0.644,0.481c0.034,0.111-0.139,0.447-0.286,0.484
		c-0.092,0.023-0.187,0.047-0.281,0.049c-0.274,0.007-0.548,0-0.822,0.004c-0.2,0.003-0.208,0.014-0.21,0.221
		c0,0.081,0.002,0.163,0.004,0.244c0,0.014,0.008,0.028,0.019,0.068c0.118,0.013,0.247,0.034,0.376,0.038
		c0.237,0.007,0.475,0.017,0.711-0.001c0.223-0.017,0.482,0.237,0.489,0.476c0.008,0.249-0.22,0.507-0.476,0.51
		c-0.555,0.007-1.111,0.007-1.667,0c-0.229-0.003-0.439-0.23-0.441-0.466c-0.004-0.526-0.002-1.052-0.002-1.578
		c0-0.519-0.002-1.037,0.001-1.556c0.002-0.286,0.213-0.492,0.503-0.493c0.519-0.002,1.037-0.001,1.556,0.001
		c0.254,0.001,0.436,0.139,0.512,0.376c0.079,0.249-0.149,0.6-0.425,0.606c-0.318,0.006-0.637,0.004-0.956,0.005
		C11.495,17.453,11.437,17.453,11.355,17.453z"/>
	<path fill="#ECCF42" d="M19.626,17.846c0.095,0.015,0.172,0.034,0.25,0.037c0.148,0.006,0.296,0.001,0.445,0.003
		c0.449,0.006,0.782,0.228,1.031,0.579c0.194,0.273,0.286,0.591,0.22,0.92c-0.091,0.452-0.342,0.942-0.936,1.099
		c-0.182,0.048-0.358,0.074-0.543,0.073c-0.304-0.001-0.608,0.002-0.912-0.001c-0.348-0.003-0.54-0.201-0.541-0.55
		c-0.001-1.023-0.001-2.046-0.001-3.068c0-0.118,0-0.23,0.085-0.334c0.138-0.166,0.35-0.263,0.516-0.214
		c0.226,0.067,0.382,0.269,0.384,0.507C19.628,17.2,19.626,17.504,19.626,17.846z M20.083,18.87c-0.074,0-0.148-0.003-0.222,0.001
		c-0.157,0.007-0.226,0.074-0.234,0.226c-0.003,0.066-0.004,0.133-0.002,0.2c0.005,0.156,0.066,0.231,0.224,0.242
		c0.147,0.011,0.297,0.015,0.443-0.001c0.237-0.026,0.356-0.263,0.256-0.474c-0.064-0.133-0.155-0.211-0.31-0.195
		C20.187,18.874,20.135,18.87,20.083,18.87z"/>
	<path fill="#ECCF42" d="M18.421,12.396c0,0.734,0.001,1.467-0.001,2.201c0,0.08-0.023,0.16-0.022,0.241
		c0.003,0.196-0.116,0.288-0.277,0.353c-0.375,0.151-0.743,0.137-1.11-0.031c-0.166-0.076-0.243-0.199-0.24-0.384
		c0.006-0.348,0.011-0.697-0.003-1.045c-0.006-0.143-0.047-0.29-0.097-0.426c-0.049-0.133-0.276-0.188-0.399-0.095
		c-0.109,0.082-0.219,0.182-0.284,0.298c-0.226,0.408-0.427,0.829-0.65,1.239c-0.161,0.295-0.395,0.493-0.758,0.476
		c-0.212-0.01-0.423,0.029-0.632-0.07c-0.263-0.124-0.372-0.333-0.248-0.599c0.133-0.284,0.28-0.562,0.434-0.835
		c0.179-0.317,0.379-0.622,0.555-0.94c0.077-0.139,0.069-0.301-0.003-0.448c-0.08-0.165-0.166-0.326-0.253-0.488
		c-0.287-0.535-0.332-1.1-0.132-1.663c0.152-0.429,0.473-0.739,0.894-0.921c0.284-0.122,0.589-0.177,0.901-0.176
		c0.474,0.002,0.949-0.003,1.423,0.002c0.251,0.003,0.476,0.085,0.657,0.265c0.118,0.117,0.196,0.255,0.202,0.428
		c0.011,0.287,0.035,0.575,0.038,0.862C18.425,11.226,18.421,11.811,18.421,12.396z M16.351,11.748c0.394,0,0.691-0.309,0.688-0.716
		c-0.003-0.344-0.35-0.715-0.673-0.686c-0.399,0.036-0.658,0.267-0.687,0.686C15.654,11.417,15.977,11.748,16.351,11.748z"/>
	<path fill="#ECCF42" d="M13.302,15.132c-0.415,0-0.807,0.014-1.198-0.006c-0.186-0.01-0.366-0.081-0.509-0.228
		c-0.106-0.109-0.144-0.219-0.089-0.357c0.067-0.17,0.138-0.338,0.213-0.505c0.203-0.45,0.405-0.899,0.614-1.346
		c0.187-0.401,0.388-0.796,0.572-1.198c0.143-0.311,0.267-0.632,0.405-0.945c0.085-0.192,0.179-0.381,0.274-0.568
		c0.123-0.242,0.175-0.493,0.172-0.767c-0.002-0.175-0.092-0.289-0.207-0.356c-0.118-0.069-0.253-0.132-0.41-0.129
		c-0.497,0.009-0.993,0.002-1.49,0c-0.308-0.001-0.529-0.174-0.669-0.454c-0.132-0.265-0.157-0.533-0.073-0.801
		c0.069-0.222,0.213-0.412,0.429-0.524c0.13-0.067,0.268-0.101,0.421-0.1c1.438,0.005,2.877-0.002,4.315,0.008
		c0.54,0.004,0.974,0.486,0.965,1.009c-0.004,0.223-0.125,0.405-0.241,0.582c-0.184,0.281-0.19,0.277-0.535,0.278
		c-0.141,0-0.282,0-0.423,0c-0.56-0.001-1.018,0.239-1.419,0.608c-0.308,0.283-0.459,0.66-0.565,1.049
		c-0.047,0.174-0.009,0.369-0.021,0.554c-0.017,0.255,0.026,0.504,0.113,0.736c0.094,0.251,0.227,0.489,0.357,0.725
		c0.051,0.091,0.079,0.145,0.013,0.253c-0.242,0.397-0.464,0.806-0.692,1.211c-0.061,0.108-0.116,0.219-0.18,0.326
		c-0.136,0.23-0.183,0.475-0.143,0.739C13.309,14.983,13.302,15.043,13.302,15.132z"/>
	<path fill="#3D9063" d="M23.701,17.442c-0.074,0-0.148,0.001-0.222,0c-0.231-0.003-0.408-0.136-0.483-0.362
		c-0.074-0.222-0.025-0.427,0.171-0.559c0.091-0.061,0.217-0.082,0.33-0.093c0.168-0.016,0.339-0.008,0.509-0.006
		c0.206,0.003,0.312,0.102,0.324,0.308c0.008,0.14,0.004,0.281-0.001,0.421c-0.006,0.163-0.129,0.282-0.297,0.289
		C23.923,17.445,23.812,17.441,23.701,17.442L23.701,17.442z"/>
	<path fill="#3D9063" d="M20.083,18.87c0.052,0,0.104,0.004,0.155-0.001c0.156-0.016,0.247,0.062,0.31,0.195
		c0.101,0.211-0.019,0.448-0.256,0.474c-0.146,0.016-0.296,0.012-0.443,0.001c-0.158-0.012-0.219-0.087-0.224-0.242
		c-0.002-0.067-0.002-0.133,0.002-0.2c0.008-0.151,0.077-0.219,0.234-0.226C19.935,18.867,20.009,18.87,20.083,18.87z"/>
	<path fill="#3D9063" d="M16.351,11.748c-0.374,0-0.698-0.331-0.672-0.716c0.028-0.419,0.288-0.65,0.687-0.686
		c0.324-0.029,0.671,0.341,0.673,0.686C17.042,11.439,16.745,11.748,16.351,11.748z"/>
</g>
</svg>
