<?xml version="1.0" encoding="utf-8"?>
<!-- Generator: Adobe Illustrator 18.1.1, SVG Export Plug-In . SVG Version: 6.00 Build 0)  -->
<svg version="1.1" id="Слой_1" xmlns="http://www.w3.org/2000/svg" xmlns:xlink="http://www.w3.org/1999/xlink" x="0px" y="0px"
	 viewBox="0 0 71.713 72.25" enable-background="new 0 0 71.713 72.25" xml:space="preserve">
<g>
	<path fill="none" d="M54.473,9.534c0-1.443-0.794-3.824-3.824-3.824c-3.897,0-8.371,4.041-11.473,7.504h11.113
		c1.443,0,2.525-0.361,3.247-1.154C54.113,11.411,54.473,10.545,54.473,9.534z"/>
	<path fill="none" d="M20.992,5.71c-3.031,0-3.824,2.381-3.824,3.824c0,1.804,1.082,3.68,4.185,3.68v0h11.113
		C29.362,9.679,24.889,5.71,20.992,5.71z"/>
	<path d="M5.405,69.426L5.405,69.426c0,1.082,0.938,2.021,2.021,2.021h26.049V34.574H5.405V69.426z"/>
	
		<line fill="none" stroke="#000000" stroke-width="0" stroke-linecap="round" stroke-linejoin="round" x1="38.382" y1="71.447" x2="38.31" y2="71.447"/>
	<path d="M38.382,71.447h25.977c1.083,0,2.021-0.938,2.021-2.021V34.574H38.382V71.447z"/>
	<path d="M68.977,18.049H52.164c2.454-0.361,4.041-1.515,4.979-2.526c1.515-1.587,2.309-3.68,2.309-5.917s-0.794-4.402-2.237-5.989
		c-1.66-1.804-3.969-2.814-6.566-2.814c-4.113,0-8.515,2.309-13.133,6.927c-0.577,0.577-1.155,1.227-1.66,1.804
		c-0.505-0.577-1.082-1.155-1.66-1.804c-4.618-4.618-9.02-6.927-13.133-6.927c-5.7,0-8.803,4.546-8.803,8.803
		c0,2.237,0.794,4.402,2.309,5.917c0.938,1.01,2.526,2.165,4.979,2.526H2.736c-0.794,0-1.515,0.649-1.515,1.515v8.659
		c0,0.794,0.649,1.515,1.515,1.515h30.667V18.266h4.907v11.473h30.667c0.794,0,1.515-0.649,1.515-1.515v-8.659
		C70.493,18.699,69.771,18.049,68.977,18.049z M21.353,13.215L21.353,13.215c-3.103,0-4.185-1.876-4.185-3.68
		c0-1.443,0.794-3.824,3.824-3.824c3.897,0,8.37,3.969,11.473,7.505H21.353z M39.176,13.214c3.103-3.464,7.577-7.504,11.473-7.504
		c3.031,0,3.824,2.381,3.824,3.824c0,1.01-0.361,1.876-0.938,2.526c-0.722,0.794-1.804,1.154-3.247,1.154H39.176z"/>
</g>
</svg>
