<?xml version="1.0" encoding="utf-8"?>
<!-- Generator: Adobe Illustrator 18.1.1, SVG Export Plug-In . SVG Version: 6.00 Build 0)  -->
<svg version="1.1" id="Слой_1" xmlns="http://www.w3.org/2000/svg" xmlns:xlink="http://www.w3.org/1999/xlink" x="0px" y="0px"
	 viewBox="0 0 86.583 87.231" enable-background="new 0 0 86.583 87.231" xml:space="preserve">
<g>
	<path fill="none" d="M55.414,22.509c0.894-0.519,1.341-1.403,1.341-2.656v-5.579c0-1.145-0.429-1.896-1.287-2.254
		c-0.823-0.356-2.415-0.536-4.775-0.536h-5.204v11.804H50.8C52.981,23.288,54.52,23.028,55.414,22.509z"/>
	<path d="M82.596,41.873c-2.451-1.921-5.979-1.577-8.013,0.781l-9.643,10.832c0,0.051,0,0.093,0,0.136
		c-0.268,5.288-4.646,9.43-9.94,9.406H44.583c-1.172,0-2.122-0.95-2.122-2.122s0.95-2.122,2.122-2.122h10.416
		c2.996,0.047,5.502-2.265,5.696-5.255c0.002-0.057,0.003-0.115,0.003-0.172c-0.001-3.019-2.45-5.466-5.469-5.464H37.869
		l-2.818-0.993c-7.081-2.481-14.958-0.697-20.28,4.592L1.927,64.224l17.928,17.478l5.025-5.025h28.938
		c3.905,0.003,7.619-1.684,10.187-4.626L83.258,49.98c0.032-0.037,0.063-0.074,0.094-0.111
		C85.351,47.452,85.013,43.872,82.596,41.873z"/>
	<path d="M37.119,40.348h8.369v-4.346h6.009v-4.346h-6.009v-2.629h4.614c3.612,0,6.482-0.269,8.61-0.805s3.684-1.448,4.668-2.736
		c0.983-1.287,1.476-3.075,1.476-5.365v-6.599c0-2.074-0.456-3.693-1.368-4.855c-0.912-1.162-2.36-1.976-4.346-2.441
		c-1.985-0.464-4.677-0.697-8.074-0.697H37.119v17.759h-2.683v5.74h2.683v2.629h-2.683v4.346h2.683V40.348z M45.488,11.484h5.204
		c2.36,0,3.952,0.18,4.775,0.536c0.858,0.358,1.287,1.109,1.287,2.254v5.579c0,1.253-0.447,2.138-1.341,2.656
		c-0.895,0.519-2.433,0.778-4.614,0.778h-5.312V11.484z"/>
</g>
</svg>
