<?xml version="1.0" encoding="utf-8"?>
<!-- Generator: Adobe Illustrator 18.1.1, SVG Export Plug-In . SVG Version: 6.00 Build 0)  -->
<svg version="1.1" id="Слой_1" xmlns="http://www.w3.org/2000/svg" xmlns:xlink="http://www.w3.org/1999/xlink" x="0px" y="0px"
	 viewBox="0 0 37.48 38.313" enable-background="new 0 0 37.48 38.313" xml:space="preserve">
<g>
	<path d="M23.686,16.264l0.017,1.336h3.803l0.121-1.258L28.33,17.6h1.444l-1.82-3.081c0,0-0.597-1.234-2.354-1.196
		c-1.757,0.038-1.931,0.483-2.564,1.239c-0.417,0.498-1.319,2.041-1.887,3.038h1.934L23.686,16.264z"/>
	<polygon points="26.851,28.296 27.598,31.213 29.034,31.213 28.567,28.296 	"/>
	<polygon points="22,31.213 23.387,31.213 24.189,28.296 22.446,28.296 	"/>
	<polygon points="10.281,34.713 12.091,34.713 12.839,28.296 10.389,28.296 	"/>
	<polygon points="13.965,28.296 14.927,34.713 16.698,34.685 16.599,28.296 	"/>
	<path d="M9.949,14.493l0.098,3.107h6.679l0.038-3.019l1.963,3.019h2.26l-2.155-4.256c0,0-1.409-3.434-3.52-3.522h-1.887h-1.895
		c-3.033,0-3.52,3.522-3.52,3.522L6.837,17.6h2.017L9.949,14.493z"/>
	<polygon points="0.364,18.573 1.478,24.99 36.031,24.99 37.116,18.573 	"/>
	<path d="M25.837,12.934c1.183,0,2.139-0.962,2.139-2.143c0-1.176-0.957-2.136-2.139-2.136s-2.139,0.96-2.139,2.136
		C23.698,11.972,24.656,12.934,25.837,12.934z"/>
	<path d="M13.584,8.85c1.613,0,2.919-1.302,2.919-2.913c0-1.613-1.306-2.921-2.919-2.921c-1.614,0-2.914,1.308-2.914,2.921
		C10.67,7.549,11.97,8.85,13.584,8.85z"/>
	<rect x="1.531" y="25.962" width="34.418" height="1.361"/>
	<rect x="30.31" y="28.296" width="1.75" height="7"/>
	<rect x="5.42" y="28.296" width="1.75" height="7"/>
</g>
</svg>
