<?xml version="1.0" encoding="utf-8"?>
<!-- Generator: Adobe Illustrator 18.1.1, SVG Export Plug-In . SVG Version: 6.00 Build 0)  -->
<svg version="1.1" id="Слой_1" xmlns="http://www.w3.org/2000/svg" xmlns:xlink="http://www.w3.org/1999/xlink" x="0px" y="0px"
	 viewBox="0 0 36.105 38.313" enable-background="new 0 0 36.105 38.313" xml:space="preserve">
<g>
	<rect x="24.431" y="18.998" fill="none" width="1.951" height="3.863"/>
	<rect x="24.431" y="28.103" fill="none" width="2.278" height="2.023"/>
	<rect x="24.431" y="24.998" fill="none" width="2.278" height="1.664"/>
	<rect x="24.431" y="31.566" fill="none" width="2.278" height="2.023"/>
	<rect x="20.711" y="18.998" fill="none" width="2.279" height="3.863"/>
	<path fill="none" d="M26.622,17.675h0.028l-0.006-0.028C26.636,17.656,26.629,17.666,26.622,17.675z"/>
	<path fill="none" d="M20.711,9.566v8.11h3.192c-0.044-0.3,0.164-0.581,0.464-0.627l1.463-0.225l0.733-1.376
		c0.073-0.136,0.195-0.23,0.332-0.271c0.092-0.07,0.195-0.127,0.305-0.166v0c0.565-0.197,1.129,0.152,1.258,0.781l0.387,1.884h1.62
		V9.651l-4.919-4.92L20.711,9.566z M27.383,11.943c0.77,0.043,1.366,0.692,1.33,1.446c-0.035,0.754-0.688,1.332-1.458,1.288
		c-0.769-0.043-1.365-0.692-1.329-1.446C25.961,12.477,26.614,11.899,27.383,11.943z"/>
	<rect x="28.915" y="18.998" fill="none" width="1.513" height="3.863"/>
	<path d="M25.545,0.925L14.985,11.485l1.903,1.903l1.356-1.356v5.644h0l0,4.124c-1.705,0.13-3.159,0.937-4.403,1.898
		c-0.621,0.48-1.229,1.031-1.821,1.605l-0.362-0.964c-0.226-0.6-0.837-0.856-1.364-0.573c-0.103,0.056-0.196,0.128-0.276,0.212
		c-0.13,0.062-0.236,0.174-0.286,0.32l-0.508,1.475l-1.409,0.452c-0.291,0.093-0.452,0.405-0.359,0.697
		c0.093,0.291,0.405,0.452,0.697,0.359l1.673-0.536c0.145-0.046,0.264-0.15,0.33-0.286l0.197,0.524
		c-0.081,0.083-0.162,0.165-0.242,0.247c-2.53,2.574-4.678,4.429-7.394,4.429H0v3.117h1.075v2.196h2.465v-2.234
		c3.818-0.356,6.635-3.125,8.794-5.323c1.25-1.272,2.315-2.4,3.412-3.248c0.914-0.707,1.72-1.111,2.497-1.229v0.064h0v11.971h2.466
		V24.998h2.28v11.869h1.44V35.03h2.278v1.837h1.44V24.998h2.315v11.971h2.466V12.117l1.271,1.271l1.904-1.902L25.545,0.925z
		 M22.99,22.86h-2.279v-3.863h2.279V22.86z M26.709,33.589h-2.278v-2.023h2.278V33.589z M26.709,30.126h-2.278v-2.023h2.278V30.126z
		 M26.709,26.663h-2.278v-1.664h2.278V26.663z M24.431,22.86v-3.863h1.951v3.863H24.431z M26.622,17.675
		c0.007-0.009,0.015-0.019,0.021-0.028l0.006,0.028H26.622z M30.428,22.86h-1.513v-3.863h1.513V22.86z M30.465,17.675h-1.62
		l-0.387-1.884c-0.129-0.628-0.693-0.978-1.258-0.781v0c-0.11,0.039-0.213,0.095-0.305,0.166c-0.138,0.041-0.26,0.135-0.332,0.271
		l-0.733,1.376l-1.463,0.225c-0.301,0.046-0.508,0.327-0.464,0.627h-3.192v-8.11l4.834-4.834l4.919,4.92V17.675z"/>
	<path d="M27.255,14.677c0.77,0.044,1.423-0.534,1.458-1.288c0.036-0.754-0.56-1.403-1.33-1.446
		c-0.769-0.045-1.422,0.534-1.457,1.288C25.891,13.985,26.487,14.634,27.255,14.677z"/>
	<path d="M9.966,23.46c0.733-0.072,1.258-0.74,1.173-1.491c-0.085-0.75-0.749-1.301-1.481-1.228c-0.732,0.072-1.256,0.74-1.172,1.49
		C8.571,22.981,9.235,23.533,9.966,23.46z"/>
</g>
</svg>
