<?xml version="1.0" encoding="utf-8"?>
<!-- Generator: Adobe Illustrator 18.1.1, SVG Export Plug-In . SVG Version: 6.00 Build 0)  -->
<svg version="1.1" id="Слой_1" xmlns="http://www.w3.org/2000/svg" xmlns:xlink="http://www.w3.org/1999/xlink" x="0px" y="0px"
	 viewBox="0 0 41.125 38.313" enable-background="new 0 0 41.125 38.313" xml:space="preserve">
<g>
	<path fill="none" d="M24.365,12.025c-0.537-0.234-1.577-0.35-3.119-0.35h-3.399v7.709h3.469c1.426,0,2.43-0.169,3.014-0.508
		s0.876-0.917,0.876-1.735v-3.645C25.206,12.749,24.926,12.259,24.365,12.025z"/>
	<path d="M29.604,9.834c-0.596-0.759-1.542-1.291-2.839-1.595c-1.297-0.303-3.055-0.455-5.274-0.455h-9.113v11.6h-1.752v3.75h1.752
		v1.718h-1.752v2.838h1.752v2.838h5.467V27.69h3.926v-2.838h-3.926v-1.718h3.014c2.36,0,4.234-0.175,5.625-0.525
		c1.39-0.352,2.406-0.947,3.049-1.788c0.642-0.842,0.964-2.009,0.964-3.505v-4.311C30.498,11.651,30.2,10.594,29.604,9.834z
		 M25.206,17.141c0,0.818-0.292,1.396-0.876,1.735s-1.589,0.508-3.014,0.508h-3.469v-7.709h3.399c1.542,0,2.582,0.116,3.119,0.35
		c0.561,0.234,0.841,0.724,0.841,1.471V17.141z"/>
</g>
</svg>
