<?xml version="1.0" encoding="utf-8"?>
<!-- Generator: Adobe Illustrator 18.1.1, SVG Export Plug-In . SVG Version: 6.00 Build 0)  -->
<svg version="1.1" id="Слой_1" xmlns="http://www.w3.org/2000/svg" xmlns:xlink="http://www.w3.org/1999/xlink" x="0px" y="0px"
	 viewBox="0 0 45.715 47.311" enable-background="new 0 0 45.715 47.311" xml:space="preserve">
<g>
	<path fill="none" d="M27.764,29.309c0.108-0.108,0.225-0.203,0.348-0.284c2.894-2.663,4.721-6.469,4.721-10.703
		c0-8.03-6.533-14.563-14.563-14.563c-8.029,0-14.563,6.533-14.563,14.563S10.24,32.885,18.27,32.885
		c3.578,0,6.854-1.303,9.392-3.452C27.697,29.393,27.725,29.348,27.764,29.309z M24.331,20.874h-3.609v3.61
		c0,1.237-1.003,2.241-2.24,2.241s-2.24-1.003-2.24-2.241v-3.61h-3.61c-1.237,0-2.24-1.003-2.24-2.241s1.003-2.241,2.24-2.241h3.61
		v-3.61c0-1.237,1.003-2.241,2.24-2.241s2.24,1.003,2.24,2.241v3.61h3.609c1.237,0,2.24,1.003,2.24,2.241
		S25.569,20.874,24.331,20.874z"/>
	<path d="M43.592,41.968L30.944,29.321c2.564-2.951,4.13-6.792,4.13-10.999c0-9.266-7.538-16.804-16.804-16.804
		S1.467,9.056,1.467,18.321S9.004,35.125,18.27,35.125c3.452,0,6.663-1.049,9.336-2.841c0.052,0.065,0.098,0.134,0.158,0.194
		l12.66,12.66c0.438,0.438,1.011,0.656,1.584,0.656s1.146-0.219,1.584-0.656C44.467,44.262,44.467,42.843,43.592,41.968z
		 M3.707,18.321c0-8.03,6.533-14.563,14.563-14.563c8.03,0,14.563,6.533,14.563,14.563c0,4.234-1.827,8.039-4.721,10.703
		c-0.123,0.082-0.24,0.176-0.348,0.284c-0.039,0.039-0.066,0.084-0.102,0.125c-2.538,2.149-5.814,3.452-9.392,3.452
		C10.24,32.885,3.707,26.352,3.707,18.321z"/>
	<path d="M24.331,16.392h-3.609v-3.61c0-1.237-1.003-2.241-2.24-2.241s-2.24,1.003-2.24,2.241v3.61h-3.61
		c-1.237,0-2.24,1.003-2.24,2.241s1.003,2.241,2.24,2.241h3.61v3.61c0,1.237,1.003,2.241,2.24,2.241s2.24-1.003,2.24-2.241v-3.61
		h3.609c1.237,0,2.24-1.003,2.24-2.241S25.569,16.392,24.331,16.392z"/>
</g>
</svg>
