<?xml version="1.0" encoding="utf-8"?>
<!-- Generator: Adobe Illustrator 18.1.1, SVG Export Plug-In . SVG Version: 6.00 Build 0)  -->
<svg version="1.1" id="Слой_1" xmlns="http://www.w3.org/2000/svg" xmlns:xlink="http://www.w3.org/1999/xlink" x="0px" y="0px"
	 viewBox="0 0 40.498 42.863" style="enable-background:new 0 0 40.498 42.863;" xml:space="preserve">
<style type="text/css">
	.st0{fill:none;}
</style>
<g>
	<path class="st0" d="M7.04,15.236h2.247l-0.26-0.522c-0.233-0.466-0.044-1.033,0.422-1.266c0.466-0.232,1.033-0.044,1.266,0.422
		l0.683,1.365h1.664l-0.26-0.522c-0.233-0.466-0.044-1.033,0.422-1.266c0.466-0.232,1.033-0.044,1.266,0.422l0.683,1.365h1.664
		l-0.26-0.522c-0.233-0.466-0.044-1.033,0.422-1.266c0.466-0.232,1.033-0.044,1.266,0.422l0.683,1.365h1.664l-0.26-0.522
		c-0.233-0.466-0.044-1.033,0.422-1.266c0.466-0.232,1.033-0.044,1.266,0.422l0.683,1.365h1.664l-0.26-0.522
		c-0.233-0.466-0.044-1.033,0.422-1.266c0.466-0.232,1.032-0.044,1.266,0.422l0.683,1.365h1.664l-0.261-0.522
		c-0.233-0.466-0.044-1.033,0.422-1.266c0.466-0.232,1.033-0.044,1.266,0.422l0.683,1.365h1.304V7.688H7.04V15.236z"/>
	<rect x="18.362" y="28.444" class="st0" width="1.887" height="9.435"/>
	<path d="M36.288,9.166h-2.83V5.392c0-0.521-0.422-0.943-0.943-0.943H6.097c-0.521,0-0.943,0.422-0.943,0.943v3.774H4.21
		c-0.521,0-0.943,0.422-0.943,0.943s0.422,0.943,0.943,0.943h0.943v3.774c0,0.521,0.422,0.943,0.943,0.943h26.417
		c0.521,0,0.943-0.422,0.943-0.943v-3.774h1.887v8.491H19.305c-0.521,0-0.943,0.422-0.943,0.943v4.717h-0.943
		c-0.521,0-0.943,0.422-0.943,0.943v11.322c0,0.521,0.422,0.943,0.943,0.943h3.774c0.521,0,0.943-0.422,0.943-0.943V26.149
		c0-0.521-0.422-0.943-0.943-0.943h-0.943v-3.774h16.039c0.521,0,0.943-0.422,0.943-0.943V10.11
		C37.232,9.588,36.809,9.166,36.288,9.166z M31.571,13.883h-1.304l-0.683-1.365c-0.233-0.466-0.799-0.654-1.266-0.422
		c-0.466,0.233-0.655,0.8-0.422,1.266l0.261,0.522h-1.664l-0.683-1.365c-0.234-0.466-0.799-0.654-1.266-0.422
		c-0.466,0.233-0.655,0.8-0.422,1.266l0.26,0.522h-1.664l-0.683-1.365c-0.233-0.466-0.8-0.654-1.266-0.422
		c-0.466,0.233-0.655,0.8-0.422,1.266l0.26,0.522h-1.664l-0.683-1.365c-0.233-0.466-0.799-0.654-1.266-0.422
		c-0.466,0.233-0.655,0.8-0.422,1.266l0.26,0.522h-1.664l-0.683-1.365c-0.233-0.466-0.799-0.654-1.266-0.422
		c-0.466,0.233-0.655,0.8-0.422,1.266l0.26,0.522h-1.664l-0.683-1.365c-0.233-0.466-0.8-0.654-1.266-0.422
		c-0.466,0.233-0.655,0.8-0.422,1.266l0.26,0.522H7.04V6.336h24.531V13.883z M20.249,36.527h-1.887v-9.435h1.887V36.527z"/>
</g>
</svg>
