<?xml version="1.0" encoding="utf-8"?>
<!-- Generator: Adobe Illustrator 18.1.1, SVG Export Plug-In . SVG Version: 6.00 Build 0)  -->
<svg version="1.1" id="Слой_1" xmlns="http://www.w3.org/2000/svg" xmlns:xlink="http://www.w3.org/1999/xlink" x="0px" y="0px"
	 viewBox="0 0 40.498 42.863" style="enable-background:new 0 0 40.498 42.863;" xml:space="preserve">
<style type="text/css">
	.st0{fill:none;}
</style>
<g>
	<rect x="5.153" y="17.123" class="st0" width="20.757" height="20.757"/>
	<polygon class="st0" points="8.374,11.462 27.568,11.462 31.342,7.688 12.148,7.688 	"/>
	<polygon class="st0" points="31.571,34.658 35.345,30.884 35.345,11.69 31.571,15.464 	"/>
	<g>
		<rect x="5.153" y="15.77" class="st0" width="20.757" height="20.757"/>
		<polygon class="st0" points="8.374,10.11 27.568,10.11 31.342,6.336 12.148,6.336 		"/>
		<polygon class="st0" points="31.571,33.306 35.345,29.532 35.345,10.338 31.571,14.112 		"/>
		<path d="M26.853,13.884H4.21c-0.521,0-0.943,0.422-0.943,0.943v22.644c0,0.521,0.422,0.943,0.943,0.943h22.644
			c0.521,0,0.943-0.422,0.943-0.943V14.827C27.797,14.306,27.374,13.884,26.853,13.884z M25.91,36.527H5.153V15.77H25.91V36.527z"/>
		<path d="M34.491,5.031c-0.146-0.352-0.49-0.582-0.871-0.582H11.758c-0.25,0-0.49,0.099-0.667,0.276l-5.661,5.661
			c-0.27,0.27-0.351,0.676-0.205,1.028c0.146,0.353,0.49,0.583,0.872,0.583h21.862c0.25,0,0.49-0.099,0.667-0.276l5.661-5.661
			C34.557,5.79,34.637,5.384,34.491,5.031z M27.568,10.11H8.374l3.774-3.774h19.194L27.568,10.11z"/>
		<path d="M36.649,7.189c-0.354-0.146-0.759-0.065-1.028,0.205l-5.661,5.661c-0.177,0.177-0.276,0.417-0.276,0.667v21.862
			c0,0.382,0.23,0.726,0.582,0.872c0.117,0.048,0.24,0.072,0.361,0.072c0.246,0,0.487-0.096,0.668-0.276l5.661-5.661
			c0.177-0.177,0.276-0.417,0.276-0.667V8.061C37.232,7.679,37.002,7.335,36.649,7.189z M35.345,29.532l-3.774,3.774V14.112
			l3.774-3.774V29.532z"/>
	</g>
</g>
</svg>
