<?xml version="1.0" encoding="utf-8"?>
<!-- Generator: Adobe Illustrator 18.1.1, SVG Export Plug-In . SVG Version: 6.00 Build 0)  -->
<svg version="1.1" id="Слой_1" xmlns="http://www.w3.org/2000/svg" xmlns:xlink="http://www.w3.org/1999/xlink" x="0px" y="0px"
	 viewBox="0 0 40.498 42.863" style="enable-background:new 0 0 40.498 42.863;" xml:space="preserve">
<style type="text/css">
	.st0{fill:none;}
</style>
<g>
	<path class="st0" d="M6.706,8.199v5.208c0,2.134,0.265,4.218,0.769,6.219h11.871V8.196c-1.918,1.559-4.105,2.401-6.32,2.401
		C10.812,10.597,8.625,9.758,6.706,8.199z"/>
	<path class="st0" d="M19.346,35.269V21.432H8.003C9.926,27.211,13.905,32.145,19.346,35.269z"/>
	<path class="st0" d="M21.152,8.196v11.43h11.871c0.503-2.001,0.768-4.086,0.768-6.219V8.199c-1.918,1.559-4.106,2.399-6.32,2.399
		C25.257,10.597,23.07,9.756,21.152,8.196z"/>
	<path class="st0" d="M21.152,35.269c5.442-3.124,9.42-8.058,11.344-13.837H21.152V35.269z"/>
	<path d="M35.015,5.239c-0.351-0.133-0.746-0.036-0.996,0.244c-1.924,2.164-4.188,3.308-6.548,3.308s-4.624-1.144-6.548-3.308
		c-0.005-0.006-0.011-0.009-0.017-0.015c-0.036-0.039-0.076-0.073-0.118-0.105c-0.003-0.002-0.005-0.005-0.009-0.007
		c-0.149-0.109-0.332-0.176-0.531-0.176s-0.382,0.066-0.531,0.176c-0.003,0.002-0.005,0.005-0.009,0.007
		c-0.043,0.032-0.082,0.066-0.118,0.105c-0.005,0.005-0.012,0.009-0.017,0.015c-1.924,2.164-4.188,3.308-6.548,3.308
		S8.402,7.648,6.478,5.483C6.23,5.204,5.835,5.105,5.483,5.239c-0.35,0.133-0.582,0.469-0.582,0.844v7.323
		c0,10.306,5.726,19.571,14.944,24.181c0.127,0.064,0.266,0.095,0.404,0.095s0.277-0.032,0.404-0.095
		c9.218-4.609,14.944-13.875,14.944-24.181V6.083C35.597,5.709,35.365,5.373,35.015,5.239z M19.346,35.269
		c-5.442-3.124-9.42-8.058-11.344-13.837h11.344V35.269z M19.346,19.626H7.475c-0.503-2.001-0.769-4.086-0.769-6.219V8.199
		c1.918,1.559,4.106,2.399,6.32,2.399c2.215,0,4.401-0.842,6.32-2.401V19.626z M21.152,35.269V21.432h11.344
		C30.572,27.211,26.593,32.145,21.152,35.269z M33.791,13.406c0,2.134-0.265,4.218-0.768,6.219H21.152V8.196
		c1.918,1.559,4.105,2.401,6.32,2.401c2.214,0,4.401-0.84,6.32-2.399V13.406z"/>
</g>
</svg>
