<?xml version="1.0" encoding="utf-8"?>
<!-- Generator: Adobe Illustrator 18.1.1, SVG Export Plug-In . SVG Version: 6.00 Build 0)  -->
<svg version="1.1" id="Слой_1" xmlns="http://www.w3.org/2000/svg" xmlns:xlink="http://www.w3.org/1999/xlink" x="0px" y="0px"
	 viewBox="0 0 40.498 42.863" style="enable-background:new 0 0 40.498 42.863;" xml:space="preserve">
<style type="text/css">
	.st0{fill:none;}
</style>
<g>
	<path d="M5.713,34.427c0.235,0.306,0.631,0.441,1.005,0.341l4.295-1.151l1.151,4.295c0.1,0.373,0.415,0.649,0.798,0.7
		c0.042,0.005,0.084,0.008,0.125,0.008c0.338,0,0.655-0.18,0.827-0.477l6.335-10.972l6.335,10.972
		c0.172,0.298,0.489,0.477,0.827,0.477c0.041,0,0.083-0.003,0.125-0.008c0.383-0.05,0.698-0.327,0.798-0.7l1.151-4.295l4.295,1.151
		c0.374,0.099,0.77-0.035,1.005-0.341c0.235-0.306,0.263-0.724,0.07-1.059l-5.903-10.223c1.716-2.004,2.757-4.603,2.757-7.443
		c0-6.319-5.141-11.459-11.459-11.459S8.79,9.383,8.79,15.702c0,2.839,1.04,5.439,2.757,7.443L5.644,33.368
		C5.451,33.702,5.478,34.12,5.713,34.427z M32.047,32.326l-2.991-0.801c-0.507-0.136-1.033,0.166-1.17,0.675l-0.801,2.991
		l-4.748-8.224c1.954-0.361,3.736-1.217,5.209-2.437L32.047,32.326z M10.7,15.702c0-5.265,4.284-9.549,9.549-9.549
		s9.549,4.284,9.549,9.549s-4.284,9.549-9.549,9.549S10.7,20.967,10.7,15.702z M12.952,24.53c1.473,1.219,3.255,2.075,5.209,2.437
		l-4.748,8.224L12.611,32.2c-0.115-0.427-0.5-0.708-0.922-0.708c-0.082,0-0.165,0.011-0.248,0.032l-2.991,0.801L12.952,24.53z"/>
	<path d="M17.384,16.657c0.244,0,0.489-0.093,0.675-0.28l5.73-5.73c0.373-0.373,0.373-0.977,0-1.35c-0.373-0.373-0.977-0.373-1.35,0
		l-5.73,5.73c-0.373,0.373-0.373,0.977,0,1.35C16.895,16.564,17.14,16.657,17.384,16.657z"/>
	<path d="M17.384,22.386c0.244,0,0.489-0.093,0.675-0.28l2.865-2.865c0.373-0.373,0.373-0.977,0-1.35
		c-0.373-0.373-0.977-0.373-1.35,0l-2.865,2.865c-0.373,0.373-0.373,0.977,0,1.35C16.895,22.293,17.14,22.386,17.384,22.386z"/>
</g>
</svg>
