<?xml version="1.0" encoding="utf-8"?>
<!-- Generator: Adobe Illustrator 18.1.1, SVG Export Plug-In . SVG Version: 6.00 Build 0)  -->
<svg version="1.1" id="Слой_1" xmlns="http://www.w3.org/2000/svg" xmlns:xlink="http://www.w3.org/1999/xlink" x="0px" y="0px"
	 viewBox="0 0 40.498 42.863" style="enable-background:new 0 0 40.498 42.863;" xml:space="preserve">
<style type="text/css">
	.st0{fill:none;}
</style>
<g>
	<path class="st0" d="M22.106,31.606c0-0.909,0.376-1.731,0.98-2.322c-0.604-0.591-0.98-1.413-0.98-2.322
		c0-0.909,0.376-1.731,0.98-2.322c-0.604-0.591-0.98-1.413-0.98-2.322c0-0.499,0.116-0.97,0.318-1.393H19.32
		c-0.299,0-0.578-0.144-0.753-0.386c-0.175-0.242-0.222-0.553-0.128-0.837l0.308-0.925c0.985-2.956,1.491-6.036,1.502-9.152
		c0.003-0.858-0.618-1.601-1.414-1.691C17.993,7.84,17.22,8.412,17.07,9.239L17,9.623c-0.743,4.086-2.475,7.985-5.007,11.275
		c-1.183,1.537-2.878,2.51-4.746,2.753v10.807c2.187,2.054,5.026,3.184,8.04,3.184h8.066c-0.202-0.423-0.318-0.894-0.318-1.393
		c0-0.704,0.227-1.354,0.609-1.886C22.722,33.789,22.106,32.769,22.106,31.606z"/>
	<path class="st0" d="M29.072,34.857h-2.786c-0.768,0-1.393,0.625-1.393,1.393c0,0.768,0.625,1.393,1.393,1.393h2.688
		c0.799,0,1.468-0.605,1.49-1.349c0.012-0.381-0.128-0.741-0.393-1.014C29.807,35.007,29.452,34.857,29.072,34.857z"/>
	<path class="st0" d="M25.357,23.712h5.572c0.768,0,1.393-0.625,1.393-1.393s-0.625-1.393-1.393-1.393h-5.572
		c-0.768,0-1.393,0.625-1.393,1.393S24.589,23.712,25.357,23.712z"/>
	<path class="st0" d="M30.465,30.213h-5.108c-0.768,0-1.393,0.625-1.393,1.393c0,0.768,0.625,1.393,1.393,1.393h5.108
		c0.768,0,1.393-0.625,1.393-1.393C31.858,30.838,31.233,30.213,30.465,30.213z"/>
	<path class="st0" d="M32.138,25.597c-0.091-0.019-0.185-0.028-0.28-0.028h-6.501c-0.768,0-1.393,0.625-1.393,1.393
		s0.625,1.393,1.393,1.393h6.501c0.768,0,1.393-0.625,1.393-1.393C33.251,26.303,32.782,25.729,32.138,25.597z"/>
	<path d="M35.108,25.61c0-1.145-0.605-2.178-1.535-2.759c0.38-0.532,0.606-1.182,0.606-1.885c0-1.792-1.458-3.25-3.25-3.25H20.607
		c0.984-3.053,1.488-6.226,1.499-9.436c0.006-1.821-1.31-3.344-3.062-3.543c-1.805-0.206-3.477,1.032-3.802,2.819l-0.07,0.384
		c-0.69,3.796-2.299,7.417-4.651,10.474c-1.022,1.327-2.554,2.089-4.203,2.089c-0.513,0-0.929,0.416-0.929,0.929v12.073
		c0.005,0.242,0.1,0.485,0.272,0.657c2.571,2.571,5.989,3.987,9.625,3.987h13.687c1.793,0,3.294-1.414,3.347-3.151
		c0.019-0.646-0.15-1.266-0.481-1.802c1.106-0.519,1.876-1.64,1.876-2.941c0-0.624-0.18-1.205-0.486-1.701
		C34.337,28.035,35.108,26.912,35.108,25.61z M25.357,19.574h5.572c0.768,0,1.393,0.625,1.393,1.393s-0.625,1.393-1.393,1.393
		h-5.572c-0.768,0-1.393-0.625-1.393-1.393S24.589,19.574,25.357,19.574z M23.353,36.291h-8.066c-3.014,0-5.853-1.13-8.04-3.184
		V22.3c1.869-0.243,3.563-1.217,4.746-2.753c2.532-3.29,4.264-7.189,5.007-11.275l0.07-0.384c0.15-0.827,0.923-1.399,1.765-1.305
		c0.796,0.091,1.417,0.834,1.414,1.691c-0.011,3.117-0.516,6.196-1.502,9.152l-0.308,0.925c-0.094,0.283-0.047,0.595,0.128,0.837
		c0.175,0.242,0.454,0.386,0.753,0.386h3.104c-0.202,0.423-0.318,0.894-0.318,1.393c0,0.909,0.376,1.731,0.98,2.322
		c-0.604,0.591-0.98,1.413-0.98,2.322c0,0.909,0.376,1.731,0.98,2.322c-0.604,0.591-0.98,1.413-0.98,2.322
		c0,1.163,0.616,2.183,1.537,2.757c-0.382,0.533-0.609,1.183-0.609,1.886C23.035,35.396,23.151,35.868,23.353,36.291z
		 M28.974,36.291h-2.688c-0.768,0-1.393-0.625-1.393-1.393c0-0.768,0.625-1.393,1.393-1.393h2.786c0.38,0,0.735,0.15,1,0.423
		c0.265,0.273,0.404,0.633,0.393,1.014C30.442,35.685,29.773,36.291,28.974,36.291z M30.465,31.647h-5.108
		c-0.768,0-1.393-0.625-1.393-1.393c0-0.768,0.625-1.393,1.393-1.393h5.108c0.768,0,1.393,0.625,1.393,1.393
		C31.858,31.022,31.233,31.647,30.465,31.647z M31.858,27.004h-6.501c-0.768,0-1.393-0.625-1.393-1.393s0.625-1.393,1.393-1.393
		h6.501c0.094,0,0.189,0.009,0.28,0.028c0.645,0.131,1.113,0.705,1.113,1.365C33.251,26.379,32.626,27.004,31.858,27.004z"/>
</g>
</svg>
