<?xml version="1.0" encoding="utf-8"?>
<!-- Generator: Adobe Illustrator 18.1.1, SVG Export Plug-In . SVG Version: 6.00 Build 0)  -->
<svg version="1.1" id="Слой_1" xmlns="http://www.w3.org/2000/svg" xmlns:xlink="http://www.w3.org/1999/xlink" x="0px" y="0px"
	 viewBox="0 0 40.498 42.863" style="enable-background:new 0 0 40.498 42.863;" xml:space="preserve">
<style type="text/css">
	.st0{fill:none;}
</style>
<g>
	<polygon class="st0" points="33.269,12.722 20.249,5.205 14.771,8.367 27.791,15.885 	"/>
	<polygon class="st0" points="6.196,29.545 19.217,37.062 19.217,22.027 6.196,14.51 	"/>
	<polygon class="st0" points="12.707,9.559 7.229,12.722 20.249,20.239 25.727,17.077 	"/>
	<polygon class="st0" points="28.824,20.61 26.759,21.802 26.759,18.865 21.281,22.027 21.281,37.062 34.302,29.544 34.302,14.51 
		28.824,17.672 	"/>
	<path d="M20.249,2.821L4.132,12.126v18.611l16.117,9.305l16.117-9.305V12.126L20.249,2.821z M20.249,5.205l13.02,7.518
		l-5.478,3.163l-13.02-7.518L20.249,5.205z M19.217,37.062l-13.02-7.517V14.51l13.02,7.517V37.062z M7.229,12.722l5.478-3.163
		l13.021,7.517l-5.478,3.163L7.229,12.722z M34.302,29.544l-13.021,7.518V22.027l5.478-3.163v2.937l2.065-1.192v-2.937l5.478-3.163
		V29.544z"/>
</g>
</svg>
