<?xml version="1.0" encoding="utf-8"?>
<!-- Generator: Adobe Illustrator 18.1.1, SVG Export Plug-In . SVG Version: 6.00 Build 0)  -->
<svg version="1.1" id="Слой_1" xmlns="http://www.w3.org/2000/svg" xmlns:xlink="http://www.w3.org/1999/xlink" x="0px" y="0px"
	 viewBox="0 0 40.498 42.863" style="enable-background:new 0 0 40.498 42.863;" xml:space="preserve">
<style type="text/css">
	.st0{fill:none;}
</style>
<g>
	<polygon class="st0" points="27.797,9.022 27.797,11.462 30.237,11.462 	"/>
	<path class="st0" d="M25.91,12.405V7.688H8.927v30.191h22.644v-24.53h-4.717C26.332,13.349,25.91,12.926,25.91,12.405z
		 M27.52,22.507l-9.435,9.435c-0.184,0.184-0.426,0.276-0.667,0.276c-0.242,0-0.483-0.092-0.667-0.276l-3.774-3.774
		c-0.369-0.368-0.369-0.965,0-1.334c0.368-0.369,0.966-0.369,1.334,0l3.107,3.107l8.768-8.768c0.368-0.368,0.966-0.368,1.334,0
		C27.889,21.542,27.889,22.139,27.52,22.507z"/>
	<path d="M33.18,10.385l-5.659-5.659c-0.173-0.174-0.423-0.277-0.668-0.277H7.984c-0.521,0-0.943,0.422-0.943,0.943v32.078
		c0,0.521,0.422,0.943,0.943,0.943h24.531c0.521,0,0.943-0.422,0.943-0.943V11.053C33.458,10.807,33.354,10.559,33.18,10.385z
		 M27.797,7.67l2.44,2.44h-2.44V7.67z M31.571,36.527H8.927V6.336H25.91v4.717c0,0.521,0.422,0.943,0.943,0.943h4.717V36.527z"/>
	<path d="M26.186,16.047l-8.768,8.768l-3.107-3.107c-0.368-0.369-0.966-0.369-1.334,0c-0.369,0.369-0.369,0.966,0,1.334l3.774,3.774
		c0.184,0.184,0.425,0.276,0.667,0.276c0.242,0,0.483-0.092,0.667-0.276l9.435-9.435c0.369-0.369,0.369-0.966,0-1.334
		C27.152,15.678,26.554,15.678,26.186,16.047z"/>
</g>
</svg>
