<?xml version="1.0" encoding="utf-8"?>
<!-- Generator: Adobe Illustrator 18.1.1, SVG Export Plug-In . SVG Version: 6.00 Build 0)  -->
<svg version="1.1" id="Слой_1" xmlns="http://www.w3.org/2000/svg" xmlns:xlink="http://www.w3.org/1999/xlink" x="0px" y="0px"
	 viewBox="0 0 40.498 42.863" style="enable-background:new 0 0 40.498 42.863;" xml:space="preserve">
<style type="text/css">
	.st0{fill:none;}
</style>
<g>
	<path class="st0" d="M30.912,11.905c-1.345-1.377-3.138-2.113-5.059-2.113c-1.889,0-3.714,0.769-5.059,2.113
		c-0.288,0.32-0.801,0.32-1.121,0c-1.345-1.377-3.138-2.113-5.059-2.113c-1.889,0-3.714,0.769-5.059,2.113
		C8.177,13.25,7.44,15.043,7.44,16.964c0,1.921,0.736,3.714,2.113,5.091l10.695,10.695l10.695-10.695
		c1.377-1.377,2.113-3.17,2.113-5.091C33.057,15.075,32.321,13.25,30.912,11.905z M11.827,20.903
		c-0.16,0.16-0.352,0.224-0.576,0.224c-0.224,0-0.416-0.064-0.576-0.224c-1.057-1.057-1.633-2.466-1.633-3.939
		c0-1.473,0.576-2.882,1.633-3.939c0.288-0.32,0.801-0.32,1.121,0c0.32,0.32,0.32,0.833,0,1.121
		c-0.737,0.769-1.153,1.729-1.153,2.818c0,1.089,0.416,2.081,1.185,2.818C12.147,20.07,12.147,20.583,11.827,20.903z"/>
	<path d="M32.097,10.752c-1.665-1.633-3.875-2.562-6.212-2.562c-2.081,0-4.067,0.736-5.636,2.049
		c-1.569-1.313-3.554-2.049-5.636-2.049c-2.338,0-4.547,0.897-6.212,2.562c-1.665,1.665-2.562,3.875-2.562,6.212
		c0,2.338,0.897,4.547,2.562,6.212l11.271,11.272c0.16,0.16,0.352,0.224,0.576,0.224c0.224,0,0.416-0.064,0.576-0.224l11.272-11.272
		c1.665-1.665,2.562-3.875,2.562-6.212C34.658,14.627,33.762,12.417,32.097,10.752z M30.944,22.056L20.249,32.751L9.554,22.056
		c-1.377-1.377-2.113-3.17-2.113-5.091c0-1.921,0.736-3.714,2.113-5.059c1.345-1.345,3.17-2.113,5.059-2.113
		c1.921,0,3.714,0.737,5.059,2.113c0.32,0.32,0.833,0.32,1.121,0c1.345-1.345,3.17-2.113,5.059-2.113
		c1.921,0,3.714,0.737,5.059,2.113c1.409,1.345,2.145,3.17,2.145,5.059C33.057,18.886,32.321,20.679,30.944,22.056z"/>
	<path d="M10.642,16.964c0-1.089,0.416-2.049,1.153-2.818c0.32-0.288,0.32-0.801,0-1.121c-0.32-0.32-0.833-0.32-1.121,0
		c-1.057,1.057-1.633,2.466-1.633,3.939c0,1.473,0.576,2.882,1.633,3.939c0.16,0.16,0.352,0.224,0.576,0.224
		c0.224,0,0.416-0.064,0.576-0.224c0.32-0.32,0.32-0.833,0-1.121C11.059,19.046,10.642,18.053,10.642,16.964z"/>
</g>
</svg>
