<?xml version="1.0" encoding="utf-8"?>
<!-- Generator: Adobe Illustrator 18.1.1, SVG Export Plug-In . SVG Version: 6.00 Build 0)  -->
<svg version="1.1" id="Слой_1" xmlns="http://www.w3.org/2000/svg" xmlns:xlink="http://www.w3.org/1999/xlink" x="0px" y="0px"
	 viewBox="0 0 40.498 42.863" style="enable-background:new 0 0 40.498 42.863;" xml:space="preserve">
<style type="text/css">
	.st0{fill:none;}
</style>
<g>
	<path class="st0" d="M10.033,36.291h20.432V14.002H10.033V36.291z M24.892,16.788c0-0.513,0.416-0.929,0.929-0.929
		s0.929,0.416,0.929,0.929v16.717c0,0.513-0.416,0.929-0.929,0.929s-0.929-0.416-0.929-0.929V16.788z M19.32,16.788
		c0-0.513,0.416-0.929,0.929-0.929s0.929,0.416,0.929,0.929v16.717c0,0.513-0.416,0.929-0.929,0.929s-0.929-0.416-0.929-0.929
		V16.788z M13.748,16.788c0-0.513,0.416-0.929,0.929-0.929s0.929,0.416,0.929,0.929v16.717c0,0.513-0.416,0.929-0.929,0.929
		s-0.929-0.416-0.929-0.929V16.788z"/>
	<rect x="17.463" y="6.572" class="st0" width="5.572" height="1.857"/>
	<polygon class="st0" points="16.534,10.287 8.176,10.287 8.176,12.144 9.104,12.144 31.393,12.144 32.322,12.144 32.322,10.287 
		23.964,10.287 	"/>
	<path d="M33.251,8.429h-8.358V5.643c0-0.513-0.416-0.929-0.929-0.929h-7.43c-0.513,0-0.929,0.416-0.929,0.929v2.786H7.247
		c-0.513,0-0.929,0.416-0.929,0.929v3.715c0,0.513,0.416,0.929,0.929,0.929h0.929v23.218c0,0.513,0.416,0.929,0.929,0.929h22.289
		c0.513,0,0.929-0.416,0.929-0.929V14.002h0.929c0.513,0,0.929-0.416,0.929-0.929V9.358C34.18,8.845,33.764,8.429,33.251,8.429z
		 M17.463,6.572h5.572v1.857h-5.572V6.572z M30.465,36.291H10.033V14.002h20.432V36.291z M32.322,12.144h-0.929H9.104H8.176v-1.857
		h8.358h7.43h8.358V12.144z"/>
	<path d="M20.249,34.433c0.513,0,0.929-0.416,0.929-0.929V16.788c0-0.513-0.416-0.929-0.929-0.929s-0.929,0.416-0.929,0.929v16.717
		C19.32,34.018,19.736,34.433,20.249,34.433z"/>
	<path d="M14.677,34.433c0.513,0,0.929-0.416,0.929-0.929V16.788c0-0.513-0.416-0.929-0.929-0.929s-0.929,0.416-0.929,0.929v16.717
		C13.748,34.018,14.164,34.433,14.677,34.433z"/>
	<path d="M25.821,34.433c0.513,0,0.929-0.416,0.929-0.929V16.788c0-0.513-0.416-0.929-0.929-0.929s-0.929,0.416-0.929,0.929v16.717
		C24.892,34.018,25.308,34.433,25.821,34.433z"/>
</g>
</svg>
