<?xml version="1.0" encoding="utf-8"?>
<!-- Generator: Adobe Illustrator 18.1.1, SVG Export Plug-In . SVG Version: 6.00 Build 0)  -->
<svg version="1.1" id="Слой_1" xmlns="http://www.w3.org/2000/svg" xmlns:xlink="http://www.w3.org/1999/xlink" x="0px" y="0px"
	 viewBox="0 0 40.498 42.863" style="enable-background:new 0 0 40.498 42.863;" xml:space="preserve">
<style type="text/css">
	.st0{fill:none;}
</style>
<g>
	<polygon class="st0" points="15.69,24.177 19.111,24.177 19.111,33.084 21.87,33.084 21.87,24.177 25.291,24.177 25.291,21.811 
		15.69,21.811 	"/>
	<path d="M31.179,12.815h-4.212c-0.354-1.567-0.743-1.43-0.743-2.174c0-0.927,0.525-2.526,0.848-2.526h0.492
		c1.476,0,2.672-1.066,2.672-2.742c0-1.676-1.196-2.742-2.672-2.742H13.756c-1.476,0-2.672,1.065-2.672,2.742
		c0,1.676,1.197,2.742,2.672,2.742h0.436c0.251,0,0.697,1.599,0.697,2.526c0,0.744-0.343,0.607-0.647,2.174h-4.17
		c-2.59,0-5.489-0.173-5.489,2.159v19.353c0,2.332,2.899,5.904,5.489,5.904h21.107c2.59,0,4.737-3.572,4.737-5.904V14.974
		C35.916,12.642,33.769,12.815,31.179,12.815z M25.291,22.824H21.87v8.907h-2.759v-8.907H15.69v-2.365h9.601V22.824z"/>
</g>
</svg>
