<?xml version="1.0" encoding="utf-8"?>
<!-- Generator: Adobe Illustrator 18.1.1, SVG Export Plug-In . SVG Version: 6.00 Build 0)  -->
<svg version="1.1" id="Слой_1" xmlns="http://www.w3.org/2000/svg" xmlns:xlink="http://www.w3.org/1999/xlink" x="0px" y="0px"
	 viewBox="0 0 40.498 42.863" style="enable-background:new 0 0 40.498 42.863;" xml:space="preserve">
<style type="text/css">
	.st0{fill:none;}
</style>
<g>
	<path class="st0" d="M21.164,21.431c0-3.027,2.463-5.49,5.49-5.49h6.404V9.537c0-0.504-0.411-0.915-0.915-0.915H6.525
		c-0.504,0-0.915,0.411-0.915,0.915v23.788c0,0.504,0.411,0.915,0.915,0.915h25.618c0.504,0,0.915-0.411,0.915-0.915v-6.404h-6.404
		C23.626,26.921,21.164,24.458,21.164,21.431z M9.27,30.581c0,0.505-0.41,0.915-0.915,0.915s-0.915-0.41-0.915-0.915V11.367
		c0-0.505,0.41-0.915,0.915-0.915h21.043c0.505,0,0.915,0.409,0.915,0.915c0,0.505-0.41,0.915-0.915,0.915H9.27V30.581z"/>
	<path class="st0" d="M22.994,21.431c0,2.018,1.642,3.66,3.66,3.66h8.234v-7.319h-8.234C24.635,17.772,22.994,19.413,22.994,21.431z
		 M28.483,21.431c0,1.009-0.821,1.83-1.83,1.83c-1.009,0-1.83-0.821-1.83-1.83s0.821-1.83,1.83-1.83
		C27.662,19.602,28.483,20.422,28.483,21.431z"/>
	<path d="M35.802,15.942h-0.915V9.537c0-1.514-1.231-2.745-2.745-2.745H6.525c-1.514,0-2.745,1.231-2.745,2.745v23.788
		c0,1.514,1.231,2.745,2.745,2.745h25.618c1.514,0,2.745-1.231,2.745-2.745v-6.404h0.915c0.505,0,0.915-0.41,0.915-0.915v-9.149
		C36.717,16.351,36.308,15.942,35.802,15.942z M33.058,33.325c0,0.504-0.411,0.915-0.915,0.915H6.525
		c-0.504,0-0.915-0.411-0.915-0.915V9.537c0-0.504,0.411-0.915,0.915-0.915h25.618c0.504,0,0.915,0.411,0.915,0.915v6.404h-6.404
		c-3.027,0-5.49,2.463-5.49,5.49s2.463,5.49,5.49,5.49h6.404V33.325z M34.887,25.091h-8.234c-2.018,0-3.66-1.642-3.66-3.66
		s1.642-3.66,3.66-3.66h8.234V25.091z"/>
	<circle cx="26.653" cy="21.431" r="1.83"/>
	<path d="M30.313,11.367c0-0.505-0.41-0.915-0.915-0.915H8.355c-0.505,0-0.915,0.409-0.915,0.915v19.213
		c0,0.505,0.41,0.915,0.915,0.915s0.915-0.41,0.915-0.915V12.282h20.128C29.903,12.282,30.313,11.873,30.313,11.367z"/>
</g>
</svg>
