<?xml version="1.0" encoding="utf-8"?>
<!-- Generator: Adobe Illustrator 18.1.1, SVG Export Plug-In . SVG Version: 6.00 Build 0)  -->
<svg version="1.1" id="Слой_1" xmlns="http://www.w3.org/2000/svg" xmlns:xlink="http://www.w3.org/1999/xlink" x="0px" y="0px"
	 viewBox="0 0 40.498 42.863" style="enable-background:new 0 0 40.498 42.863;" xml:space="preserve">
<style type="text/css">
	.st0{fill:none;}
</style>
<g>
	<path class="st0" d="M26.659,14.638c-1.766-1.734-4.1-2.662-6.58-2.619c-4.778,0.087-8.717,3.888-8.966,8.655
		c-0.171,3.263,1.349,6.294,4.064,8.105c1.246,0.832,2.183,2.011,2.721,3.367h4.722c0.554-1.357,1.511-2.553,2.782-3.422
		c2.502-1.708,3.995-4.534,3.995-7.557C29.398,18.691,28.425,16.373,26.659,14.638z"/>
	<polygon class="st0" points="18.365,33.975 16.589,33.975 16.589,35.805 17.504,35.805 22.994,35.805 23.909,35.805 23.909,33.975 
		22.137,33.975 	"/>
	<path d="M27.941,13.333c-2.119-2.081-4.926-3.201-7.896-3.143c-5.734,0.104-10.461,4.667-10.76,10.388
		c-0.205,3.915,1.618,7.549,4.876,9.723c0.718,0.479,1.297,1.113,1.71,1.844h-0.197c-0.505,0-0.915,0.41-0.915,0.915v3.66
		c0,0.505,0.409,0.915,0.915,0.915h9.149c0.505,0,0.915-0.41,0.915-0.915v-3.66c0-0.505-0.409-0.915-0.915-0.915h-0.17
		c0.43-0.743,1.034-1.4,1.781-1.911c3.001-2.049,4.793-5.439,4.793-9.068C31.228,18.196,30.061,15.414,27.941,13.333z
		 M23.909,35.805h-0.915h-5.49h-0.915v-1.83h1.776h3.772h1.772V35.805z M25.403,28.724c-1.272,0.868-2.229,2.065-2.782,3.422h-4.722
		c-0.539-1.355-1.475-2.535-2.721-3.367c-2.715-1.812-4.235-4.842-4.064-8.105c0.25-4.766,4.188-8.568,8.966-8.655
		c2.48-0.043,4.814,0.885,6.58,2.619c1.767,1.735,2.739,4.053,2.739,6.529C29.398,24.19,27.905,27.015,25.403,28.724z"/>
	<path d="M15.813,8.148c0.109,0.409,0.479,0.678,0.883,0.678c0.078,0,0.158-0.01,0.237-0.031c0.488-0.131,0.778-0.632,0.647-1.121
		l-0.474-1.768c-0.131-0.489-0.634-0.778-1.12-0.647C15.498,5.39,15.209,5.892,15.34,6.38L15.813,8.148z"/>
	<path d="M9.898,12.109c0.179,0.179,0.413,0.268,0.647,0.268c0.234,0,0.468-0.089,0.647-0.268c0.358-0.357,0.358-0.937,0-1.294
		L9.898,9.522c-0.357-0.357-0.937-0.357-1.294,0c-0.358,0.357-0.358,0.937,0,1.294L9.898,12.109z"/>
	<path d="M30.6,30.224c-0.357-0.358-0.937-0.358-1.294,0c-0.358,0.357-0.358,0.937,0,1.294l1.294,1.294
		c0.179,0.179,0.413,0.268,0.647,0.268c0.234,0,0.468-0.089,0.647-0.268c0.358-0.357,0.358-0.937,0-1.294L30.6,30.224z"/>
	<path d="M9.898,30.224l-1.294,1.294c-0.358,0.357-0.358,0.937,0,1.294c0.179,0.179,0.413,0.268,0.647,0.268
		c0.234,0,0.468-0.089,0.647-0.268l1.294-1.294c0.358-0.357,0.358-0.937,0-1.294C10.835,29.866,10.255,29.866,9.898,30.224z"/>
	<path d="M30.6,9.522l-1.294,1.294c-0.358,0.357-0.358,0.937,0,1.294c0.179,0.179,0.413,0.268,0.647,0.268
		c0.234,0,0.468-0.089,0.647-0.268l1.294-1.294c0.358-0.357,0.358-0.936,0-1.294C31.537,9.164,30.957,9.164,30.6,9.522z"/>
	<path d="M23.564,8.794c0.079,0.021,0.159,0.031,0.237,0.031c0.404,0,0.774-0.269,0.883-0.678l0.474-1.768
		c0.131-0.488-0.159-0.99-0.647-1.121c-0.488-0.131-0.99,0.159-1.12,0.647l-0.474,1.768C22.786,8.162,23.076,8.663,23.564,8.794z"/>
	<path d="M35.509,24.308l-1.768-0.474c-0.488-0.131-0.99,0.159-1.121,0.647c-0.131,0.488,0.159,0.99,0.647,1.121l1.768,0.474
		c0.079,0.021,0.159,0.031,0.237,0.031c0.404,0,0.774-0.269,0.883-0.678C36.287,24.941,35.998,24.439,35.509,24.308z"/>
	<path d="M4.989,18.025l1.768,0.474c0.079,0.021,0.159,0.031,0.237,0.031c0.404,0,0.774-0.269,0.883-0.679
		c0.131-0.488-0.159-0.99-0.647-1.121l-1.768-0.474c-0.489-0.131-0.99,0.158-1.121,0.647C4.211,17.392,4.5,17.894,4.989,18.025z"/>
	<path d="M33.504,18.53c0.078,0,0.158-0.01,0.237-0.031l1.768-0.474c0.488-0.131,0.778-0.632,0.647-1.121
		c-0.131-0.488-0.633-0.777-1.12-0.647l-1.768,0.474c-0.488,0.131-0.778,0.632-0.647,1.121C32.731,18.26,33.1,18.53,33.504,18.53z"
		/>
	<path d="M6.756,23.835l-1.768,0.474c-0.488,0.131-0.778,0.632-0.647,1.121c0.11,0.409,0.479,0.678,0.883,0.678
		c0.078,0,0.158-0.01,0.237-0.031l1.768-0.474c0.488-0.131,0.778-0.632,0.647-1.121C7.746,23.994,7.243,23.703,6.756,23.835z"/>
</g>
</svg>
