<?xml version="1.0" encoding="utf-8"?>
<!-- Generator: Adobe Illustrator 18.1.1, SVG Export Plug-In . SVG Version: 6.00 Build 0)  -->
<svg version="1.1" id="Слой_1" xmlns="http://www.w3.org/2000/svg" xmlns:xlink="http://www.w3.org/1999/xlink" x="0px" y="0px"
	 viewBox="0 0 40.498 42.863" style="enable-background:new 0 0 40.498 42.863;" xml:space="preserve">
<style type="text/css">
	.st0{fill:none;}
</style>
<g>
	<path class="st0" d="M17.345,24.558c-0.406,0.406-1.064,0.406-1.47,0l-6.541-6.541l-4.767,4.767L16.61,34.827l19.32-19.32
		l-4.767-4.767L17.345,24.558z"/>
	<path d="M38.135,13.42l-6.237-6.237c-0.406-0.406-1.064-0.406-1.47,0L16.61,21.001l-6.541-6.541c-0.406-0.406-1.064-0.406-1.47,0
		l-6.237,6.237c-0.406,0.406-0.406,1.064,0,1.47L15.876,35.68c0.203,0.203,0.469,0.305,0.735,0.305s0.532-0.101,0.735-0.304
		l20.79-20.79C38.542,14.484,38.542,13.826,38.135,13.42z M16.61,33.475L4.567,21.432l4.767-4.767l6.541,6.541
		c0.406,0.406,1.064,0.406,1.47,0L31.163,9.388l4.767,4.767L16.61,33.475z"/>
</g>
</svg>
