<?xml version="1.0" encoding="utf-8"?>
<!-- Generator: Adobe Illustrator 18.1.1, SVG Export Plug-In . SVG Version: 6.00 Build 0)  -->
<svg version="1.1" id="Слой_1" xmlns="http://www.w3.org/2000/svg" xmlns:xlink="http://www.w3.org/1999/xlink" x="0px" y="0px"
	 viewBox="0 0 40.498 42.863" style="enable-background:new 0 0 40.498 42.863;" xml:space="preserve">
<style type="text/css">
	.st0{fill:none;}
</style>
<g>
	<path class="st0" d="M20.249,10.89c-2.312,0-4.154,1.881-4.154,4.154c0,2.273,1.881,4.154,4.154,4.154
		c2.273,0,4.154-1.842,4.154-4.154C24.403,12.771,22.561,10.89,20.249,10.89z"/>
	<path class="st0" d="M20.249,5.756c-5.055,0-9.209,4.076-9.327,9.092c0.039,0.078,0.039,0.157,0.039,0.235
		c-0.039,1.489,0.313,2.861,0.941,4.154l8.347,16.655l8.347-16.655c0.627-1.254,0.94-2.665,0.94-4.154
		c0-0.078,0.039-0.157,0.039-0.235C29.458,9.831,25.304,5.756,20.249,5.756z M20.249,21.196c-3.37,0-6.113-2.743-6.113-6.113
		c0-3.37,2.743-6.114,6.113-6.114c3.37,0,6.114,2.743,6.114,6.114C26.362,18.453,23.619,21.196,20.249,21.196z"/>
	<path d="M20.249,3.796c-6.231,0-11.286,5.055-11.286,11.286c0,0.078,0,0.157,0.039,0.235c0.039,1.685,0.431,3.331,1.176,4.82
		l9.209,18.38c0.157,0.313,0.51,0.549,0.862,0.549c0.353,0,0.706-0.196,0.862-0.549l9.209-18.419
		c0.745-1.489,1.136-3.096,1.176-4.82c0-0.078,0.039-0.157,0.039-0.235C31.535,8.852,26.48,3.796,20.249,3.796z M29.537,15.083
		c0,1.489-0.313,2.9-0.94,4.154l-8.347,16.655l-8.347-16.655c-0.627-1.293-0.98-2.665-0.941-4.154c0-0.078,0-0.157-0.039-0.235
		c0.118-5.016,4.272-9.092,9.327-9.092c5.055,0,9.209,4.076,9.327,9.092C29.576,14.926,29.537,15.004,29.537,15.083z"/>
	<path d="M20.249,8.969c-3.37,0-6.113,2.743-6.113,6.114c0,3.37,2.743,6.113,6.113,6.113c3.37,0,6.114-2.743,6.114-6.113
		C26.362,11.712,23.619,8.969,20.249,8.969z M20.249,19.198c-2.273,0-4.154-1.881-4.154-4.154c0-2.273,1.842-4.154,4.154-4.154
		c2.312,0,4.154,1.881,4.154,4.154C24.403,17.356,22.522,19.198,20.249,19.198z"/>
</g>
</svg>
