<?xml version="1.0" encoding="utf-8"?>
<!-- Generator: Adobe Illustrator 18.1.1, SVG Export Plug-In . SVG Version: 6.00 Build 0)  -->
<svg version="1.1" id="Слой_1" xmlns="http://www.w3.org/2000/svg" xmlns:xlink="http://www.w3.org/1999/xlink" x="0px" y="0px"
	 viewBox="0 0 40.498 42.863" style="enable-background:new 0 0 40.498 42.863;" xml:space="preserve">
<style type="text/css">
	.st0{fill:none;}
</style>
<g>
	<path class="st0" d="M20.867,20.509c-0.172-0.26-0.201-0.59-0.078-0.877l5.018-11.707h-9.957l-4.597,16.717h6.676
		c0.297,0,0.576,0.142,0.751,0.382c0.175,0.24,0.224,0.549,0.133,0.831l-2.852,8.872l12.42-13.8h-6.738
		C21.33,20.926,21.039,20.769,20.867,20.509z"/>
	<path d="M31.313,18.267c-0.149-0.335-0.482-0.551-0.848-0.551H23.05l5.018-11.707c0.123-0.287,0.094-0.617-0.078-0.877
		c-0.172-0.261-0.463-0.418-0.775-0.418H15.141c-0.418,0-0.785,0.279-0.895,0.682L9.138,23.971
		c-0.077,0.279-0.019,0.579,0.157,0.809c0.175,0.23,0.449,0.366,0.739,0.366h6.62l-3.789,11.789
		c-0.134,0.417,0.041,0.871,0.421,1.089c0.145,0.084,0.304,0.124,0.462,0.124c0.256,0,0.509-0.106,0.691-0.308l16.717-18.574
		C31.4,18.994,31.462,18.602,31.313,18.267z M15.959,33.374l2.852-8.872c0.091-0.283,0.041-0.591-0.133-0.831
		c-0.175-0.24-0.454-0.382-0.751-0.382h-6.676l4.597-16.717h9.957l-5.018,11.707c-0.123,0.287-0.094,0.617,0.078,0.877
		c0.172,0.261,0.463,0.418,0.775,0.418h6.738L15.959,33.374z"/>
</g>
</svg>
