<?xml version="1.0" encoding="utf-8"?>
<!-- Generator: Adobe Illustrator 18.1.1, SVG Export Plug-In . SVG Version: 6.00 Build 0)  -->
<svg version="1.1" id="Слой_1" xmlns="http://www.w3.org/2000/svg" xmlns:xlink="http://www.w3.org/1999/xlink" x="0px" y="0px"
	 viewBox="0 0 40.498 42.863" style="enable-background:new 0 0 40.498 42.863;" xml:space="preserve">
<style type="text/css">
	.st0{fill:none;}
</style>
<g>
	<path class="st0" d="M17.46,11.502c-4.682,0-8.491,3.809-8.491,8.491c0,4.682,3.809,8.491,8.491,8.491s8.491-3.809,8.491-8.491
		C25.951,15.311,22.142,11.502,17.46,11.502z M17.46,15.276c-2.601,0-4.717,2.116-4.717,4.717c0,0.521-0.422,0.943-0.943,0.943
		s-0.943-0.422-0.943-0.943c0-3.641,2.963-6.604,6.604-6.604c0.521,0,0.943,0.422,0.943,0.943S17.981,15.276,17.46,15.276z"/>
	<path class="st0" d="M29.725,19.993c0-6.763-5.502-12.265-12.265-12.265S5.194,13.231,5.194,19.993
		c0,6.763,5.502,12.265,12.265,12.265S29.725,26.756,29.725,19.993z M17.46,30.372c-5.723,0-10.378-4.656-10.378-10.378
		S11.737,9.615,17.46,9.615s10.378,4.655,10.378,10.378S23.182,30.372,17.46,30.372z"/>
	<path class="st0" d="M28.705,28.572c-0.768,1.003-1.665,1.901-2.669,2.669l6.046,6.046c0.356,0.356,0.83,0.552,1.334,0.552
		s0.978-0.196,1.334-0.552c0.356-0.357,0.552-0.83,0.552-1.334s-0.196-0.978-0.552-1.334L28.705,28.572z"/>
	<g>
		<path class="st0" d="M17.46,10.15c-4.682,0-8.491,3.809-8.491,8.491c0,4.682,3.809,8.491,8.491,8.491s8.491-3.809,8.491-8.491
			C25.951,13.959,22.142,10.15,17.46,10.15z M17.46,13.924c-2.601,0-4.717,2.116-4.717,4.717c0,0.521-0.422,0.943-0.943,0.943
			s-0.943-0.422-0.943-0.943c0-3.641,2.963-6.604,6.604-6.604c0.521,0,0.943,0.422,0.943,0.943S17.981,13.924,17.46,13.924z"/>
		<path class="st0" d="M29.725,18.641c0-6.763-5.502-12.265-12.265-12.265S5.194,11.878,5.194,18.641
			c0,6.763,5.502,12.265,12.265,12.265S29.725,25.404,29.725,18.641z M17.46,29.02c-5.723,0-10.378-4.656-10.378-10.378
			S11.737,8.263,17.46,8.263s10.378,4.655,10.378,10.378S23.182,29.02,17.46,29.02z"/>
		<path class="st0" d="M28.705,27.219c-0.768,1.003-1.665,1.901-2.669,2.669l6.046,6.046c0.356,0.356,0.83,0.552,1.334,0.552
			s0.978-0.196,1.334-0.552c0.356-0.357,0.552-0.83,0.552-1.334s-0.196-0.978-0.552-1.334L28.705,27.219z"/>
		<path d="M36.085,31.931l-6.317-6.318c1.171-2.06,1.844-4.438,1.844-6.972c0-7.804-6.349-14.152-14.152-14.152
			S3.307,10.838,3.307,18.641c0,7.804,6.349,14.152,14.152,14.152c2.533,0,4.911-0.672,6.971-1.843l6.318,6.318
			c0.713,0.713,1.66,1.105,2.668,1.105c1.008,0,1.956-0.392,2.669-1.105c0.713-0.713,1.105-1.66,1.105-2.669
			C37.19,33.591,36.797,32.644,36.085,31.931z M17.46,30.907c-6.763,0-12.265-5.502-12.265-12.265
			c0-6.763,5.502-12.265,12.265-12.265s12.265,5.502,12.265,12.265C29.725,25.404,24.222,30.907,17.46,30.907z M34.751,35.934
			c-0.357,0.356-0.83,0.552-1.334,0.552s-0.978-0.196-1.334-0.552l-6.046-6.046c1.003-0.767,1.901-1.665,2.669-2.669l6.045,6.046
			c0.356,0.356,0.552,0.83,0.552,1.334S35.107,35.577,34.751,35.934z"/>
		<path d="M17.46,8.263c-5.723,0-10.378,4.655-10.378,10.378S11.737,29.02,17.46,29.02s10.378-4.656,10.378-10.378
			S23.182,8.263,17.46,8.263z M17.46,27.133c-4.682,0-8.491-3.809-8.491-8.491c0-4.682,3.809-8.491,8.491-8.491
			s8.491,3.809,8.491,8.491C25.951,23.324,22.142,27.133,17.46,27.133z"/>
		<path d="M17.46,12.037c-3.641,0-6.604,2.963-6.604,6.604c0,0.521,0.422,0.943,0.943,0.943s0.943-0.422,0.943-0.943
			c0-2.601,2.116-4.717,4.717-4.717c0.521,0,0.943-0.422,0.943-0.943S17.981,12.037,17.46,12.037z"/>
	</g>
</g>
</svg>
