<?xml version="1.0" encoding="utf-8"?>
<!-- Generator: Adobe Illustrator 18.1.1, SVG Export Plug-In . SVG Version: 6.00 Build 0)  -->
<svg version="1.1" id="Слой_1" xmlns="http://www.w3.org/2000/svg" xmlns:xlink="http://www.w3.org/1999/xlink" x="0px" y="0px"
	 viewBox="0 0 40.498 42.863" style="enable-background:new 0 0 40.498 42.863;" xml:space="preserve">
<style type="text/css">
	.st0{fill:none;}
</style>
<g>
	<path class="st0" d="M25.821,11.216V6.572H9.104v29.719h22.289V12.144H26.75C26.237,12.144,25.821,11.729,25.821,11.216z
		 M18.12,30.447l-3.715,3.715c-0.181,0.181-0.419,0.272-0.657,0.272c-0.238,0-0.475-0.091-0.656-0.272l-1.857-1.857
		c-0.363-0.363-0.363-0.951,0-1.313c0.362-0.363,0.951-0.363,1.313,0l1.201,1.201l3.058-3.058c0.363-0.363,0.951-0.363,1.314,0
		C18.482,29.496,18.482,30.084,18.12,30.447z M18.12,23.017l-3.715,3.715c-0.181,0.181-0.419,0.272-0.657,0.272
		c-0.238,0-0.475-0.091-0.656-0.272l-1.857-1.857c-0.363-0.363-0.363-0.951,0-1.313c0.362-0.363,0.951-0.363,1.313,0l1.201,1.201
		l3.058-3.058c0.363-0.363,0.951-0.363,1.314,0C18.482,22.066,18.482,22.654,18.12,23.017z M18.12,15.587l-3.715,3.715
		c-0.181,0.181-0.419,0.272-0.657,0.272c-0.238,0-0.475-0.091-0.656-0.272l-1.857-1.857c-0.363-0.363-0.363-0.951,0-1.313
		c0.362-0.363,0.951-0.363,1.313,0l1.201,1.201l3.058-3.058c0.363-0.363,0.951-0.363,1.314,0
		C18.482,14.637,18.482,15.225,18.12,15.587z M24.892,34.433h-3.715c-0.513,0-0.929-0.416-0.929-0.929
		c0-0.513,0.416-0.929,0.929-0.929h3.715c0.513,0,0.929,0.416,0.929,0.929C25.821,34.018,25.405,34.433,24.892,34.433z
		 M28.607,30.718h-7.43c-0.513,0-0.929-0.416-0.929-0.929c0-0.513,0.416-0.929,0.929-0.929h7.43c0.513,0,0.929,0.416,0.929,0.929
		C29.536,30.303,29.12,30.718,28.607,30.718z M20.249,26.075c0-0.513,0.416-0.929,0.929-0.929h3.715
		c0.513,0,0.929,0.416,0.929,0.929c0,0.513-0.416,0.929-0.929,0.929h-3.715C20.665,27.004,20.249,26.588,20.249,26.075z
		 M28.607,23.289h-7.43c-0.513,0-0.929-0.416-0.929-0.929c0-0.513,0.416-0.929,0.929-0.929h7.43c0.513,0,0.929,0.416,0.929,0.929
		C29.536,22.873,29.12,23.289,28.607,23.289z M20.249,18.645c0-0.513,0.416-0.929,0.929-0.929h3.715
		c0.513,0,0.929,0.416,0.929,0.929c0,0.513-0.416,0.929-0.929,0.929h-3.715C20.665,19.574,20.249,19.158,20.249,18.645z
		 M29.536,14.93c0,0.513-0.416,0.929-0.929,0.929h-7.43c-0.513,0-0.929-0.416-0.929-0.929c0-0.513,0.416-0.929,0.929-0.929h7.43
		C29.12,14.002,29.536,14.417,29.536,14.93z"/>
	<polygon class="st0" points="27.679,7.886 27.679,10.287 30.08,10.287 	"/>
	<path d="M33.232,11.032c-0.008-0.039-0.022-0.075-0.034-0.113c-0.007-0.02-0.011-0.041-0.019-0.061
		c-0.017-0.041-0.04-0.079-0.063-0.117c-0.008-0.014-0.014-0.029-0.023-0.042c-0.034-0.051-0.073-0.098-0.116-0.141l-5.57-5.57
		c-0.043-0.043-0.09-0.082-0.141-0.116c-0.013-0.009-0.028-0.015-0.042-0.023c-0.038-0.023-0.076-0.045-0.117-0.063
		c-0.02-0.008-0.041-0.012-0.061-0.019c-0.037-0.013-0.074-0.026-0.113-0.034c-0.06-0.012-0.121-0.018-0.184-0.018H8.176
		c-0.513,0-0.929,0.416-0.929,0.929v31.576c0,0.513,0.416,0.929,0.929,0.929h24.147c0.513,0,0.929-0.416,0.929-0.929V11.216
		C33.251,11.154,33.245,11.092,33.232,11.032z M27.679,7.886l2.401,2.401h-2.401V7.886z M31.393,36.291H9.104V6.572h16.717v4.644
		c0,0.513,0.416,0.929,0.929,0.929h4.644V36.291z"/>
	<path d="M16.806,14.274l-3.058,3.058l-1.201-1.201c-0.363-0.363-0.951-0.363-1.313,0c-0.363,0.363-0.363,0.951,0,1.313l1.857,1.857
		c0.181,0.182,0.419,0.272,0.656,0.272c0.238,0,0.476-0.091,0.657-0.272l3.715-3.715c0.363-0.363,0.363-0.951,0-1.313
		C17.757,13.911,17.169,13.911,16.806,14.274z"/>
	<path d="M16.806,21.703l-3.058,3.058l-1.201-1.201c-0.363-0.363-0.951-0.363-1.313,0c-0.363,0.363-0.363,0.951,0,1.313l1.857,1.857
		c0.181,0.182,0.419,0.272,0.656,0.272c0.238,0,0.476-0.091,0.657-0.272l3.715-3.715c0.363-0.363,0.363-0.951,0-1.313
		C17.757,21.341,17.169,21.341,16.806,21.703z"/>
	<path d="M16.806,29.133l-3.058,3.058l-1.201-1.201c-0.363-0.363-0.951-0.363-1.313,0c-0.363,0.363-0.363,0.951,0,1.313l1.857,1.857
		c0.181,0.182,0.419,0.272,0.656,0.272c0.238,0,0.476-0.091,0.657-0.272l3.715-3.715c0.363-0.363,0.363-0.951,0-1.313
		C17.757,28.77,17.169,28.77,16.806,29.133z"/>
	<path d="M20.249,14.93c0,0.513,0.416,0.929,0.929,0.929h7.43c0.513,0,0.929-0.416,0.929-0.929c0-0.513-0.416-0.929-0.929-0.929
		h-7.43C20.665,14.002,20.249,14.417,20.249,14.93z"/>
	<path d="M21.178,19.574h3.715c0.513,0,0.929-0.416,0.929-0.929c0-0.513-0.416-0.929-0.929-0.929h-3.715
		c-0.513,0-0.929,0.416-0.929,0.929C20.249,19.158,20.665,19.574,21.178,19.574z"/>
	<path d="M28.607,21.431h-7.43c-0.513,0-0.929,0.416-0.929,0.929c0,0.513,0.416,0.929,0.929,0.929h7.43
		c0.513,0,0.929-0.416,0.929-0.929C29.536,21.847,29.12,21.431,28.607,21.431z"/>
	<path d="M21.178,27.004h3.715c0.513,0,0.929-0.416,0.929-0.929c0-0.513-0.416-0.929-0.929-0.929h-3.715
		c-0.513,0-0.929,0.416-0.929,0.929C20.249,26.588,20.665,27.004,21.178,27.004z"/>
	<path d="M28.607,28.861h-7.43c-0.513,0-0.929,0.416-0.929,0.929c0,0.513,0.416,0.929,0.929,0.929h7.43
		c0.513,0,0.929-0.416,0.929-0.929C29.536,29.277,29.12,28.861,28.607,28.861z"/>
	<path d="M24.892,32.576h-3.715c-0.513,0-0.929,0.416-0.929,0.929c0,0.513,0.416,0.929,0.929,0.929h3.715
		c0.513,0,0.929-0.416,0.929-0.929C25.821,32.992,25.405,32.576,24.892,32.576z"/>
</g>
</svg>
