<?xml version="1.0" encoding="utf-8"?>
<!-- Generator: Adobe Illustrator 18.1.1, SVG Export Plug-In . SVG Version: 6.00 Build 0)  -->
<svg version="1.1" id="Слой_1" xmlns="http://www.w3.org/2000/svg" xmlns:xlink="http://www.w3.org/1999/xlink" x="0px" y="0px"
	 viewBox="0 0 40.498 42.863" style="enable-background:new 0 0 40.498 42.863;" xml:space="preserve">
<style type="text/css">
	.st0{fill:none;}
</style>
<g>
	<polygon class="st0" points="6.651,33.993 7.675,35.018 11.225,33.847 7.822,30.443 	"/>
	
		<rect x="6.332" y="17.092" transform="matrix(0.7071 -0.7071 0.7071 0.7071 -7.8638 21.1515)" class="st0" width="30.536" height="5.952"/>
	<path class="st0" d="M18.947,15.951l-8.783-8.783l-4.209,4.209l1.94,1.94l2.086-2.086c0.329-0.366,0.915-0.366,1.281,0
		c0.366,0.329,0.366,0.915,0,1.281l-2.086,2.086l1.903,1.903l2.086-2.086c0.329-0.366,0.915-0.366,1.281,0
		c0.366,0.329,0.366,0.915,0,1.281l-2.086,2.086l2.379,2.379L18.947,15.951z"/>
	<path class="st0" d="M21.509,26.93l2.379,2.379l2.086-2.086c0.329-0.366,0.915-0.366,1.281,0c0.366,0.329,0.366,0.915,0,1.281
		l-2.086,2.086l1.94,1.903l2.086-2.086c0.329-0.366,0.915-0.366,1.281,0c0.366,0.329,0.366,0.915,0,1.281l-2.086,2.123l1.903,1.903
		l4.209-4.209l-8.783-8.783L21.509,26.93z"/>
	<path d="M36.477,30.882l-9.479-9.442l9.405-9.405c0.366-0.366,0.366-0.952,0.037-1.318l-5.49-5.49
		c-0.366-0.366-0.952-0.366-1.281,0l-9.442,9.442l-9.405-9.442c-0.366-0.366-0.952-0.366-1.281,0l-5.49,5.49
		c-0.366,0.366-0.366,0.952,0,1.281l3.221,3.221l3.221,3.22l3.001,3.001L6.76,28.101c-0.037,0.037-0.073,0.11-0.11,0.146
		c0,0,0,0.037-0.037,0.037c-0.037,0.037-0.037,0.073-0.073,0.146c0,0,0,0,0,0.037l-2.745,8.234c-0.11,0.329-0.037,0.695,0.22,0.951
		c0.183,0.146,0.403,0.256,0.659,0.256c0.11,0,0.183,0,0.293-0.037l8.234-2.745c0,0,0,0,0.037,0c0.037,0,0.073-0.037,0.146-0.073
		c0,0,0.037,0,0.037-0.037c0.073-0.037,0.11-0.073,0.146-0.11l6.661-6.697l3.001,3.001l3.22,3.221l3.221,3.22
		c0.183,0.183,0.403,0.256,0.659,0.256s0.476-0.073,0.659-0.256l5.489-5.489C36.843,31.797,36.843,31.212,36.477,30.882z
		 M12.36,17.781l2.086-2.086c0.366-0.366,0.366-0.951,0-1.281c-0.366-0.366-0.951-0.366-1.281,0L11.079,16.5l-1.903-1.903
		l2.086-2.086c0.366-0.366,0.366-0.951,0-1.281c-0.366-0.366-0.951-0.366-1.281,0l-2.086,2.086l-1.94-1.94l4.209-4.209l8.783,8.783
		l-4.209,4.209L12.36,17.781z M7.675,35.018l-1.025-1.025l1.171-3.55l3.404,3.404L7.675,35.018z M12.909,32.968L8.7,28.76
		L30.292,7.168l4.209,4.209L12.909,32.968z M30.292,35.713l-1.903-1.903l2.086-2.123c0.366-0.366,0.366-0.952,0-1.281
		c-0.366-0.366-0.951-0.366-1.281,0l-2.086,2.086l-1.94-1.903l2.086-2.086c0.366-0.366,0.366-0.952,0-1.281
		c-0.366-0.366-0.952-0.366-1.281,0l-2.086,2.086l-2.379-2.379l4.209-4.209l8.783,8.783L30.292,35.713z"/>
</g>
</svg>
