<?xml version="1.0" encoding="utf-8"?>
<!-- Generator: Adobe Illustrator 18.1.1, SVG Export Plug-In . SVG Version: 6.00 Build 0)  -->
<svg version="1.1" id="Слой_1" xmlns="http://www.w3.org/2000/svg" xmlns:xlink="http://www.w3.org/1999/xlink" x="0px" y="0px"
	 viewBox="0 0 40.498 42.863" style="enable-background:new 0 0 40.498 42.863;" xml:space="preserve">
<style type="text/css">
	.st0{fill:none;}
</style>
<g>
	<path class="st0" d="M22.953,19.65l-2.704-8.322l-2.704,8.321c-0.126,0.389-0.488,0.652-0.897,0.652H7.898l7.078,5.143
		c0.331,0.24,0.469,0.666,0.343,1.055l-2.704,8.321l7.079-5.143c0.165-0.12,0.36-0.18,0.554-0.18s0.389,0.06,0.554,0.18l7.079,5.143
		L25.178,26.5c-0.126-0.389,0.012-0.814,0.343-1.055l7.078-5.142H23.85C23.441,20.302,23.079,20.039,22.953,19.65z"/>
	<path d="M36.4,17.715c-0.126-0.389-0.488-0.652-0.897-0.652H24.535L21.146,6.632C21.02,6.243,20.658,5.98,20.249,5.98
		s-0.771,0.263-0.897,0.652l-3.389,10.431H4.995c-0.409,0-0.771,0.263-0.897,0.652C3.971,18.104,4.11,18.53,4.44,18.77l8.873,6.447
		L9.924,35.648c-0.126,0.389,0.012,0.814,0.343,1.055c0.331,0.24,0.779,0.24,1.109,0l8.873-6.447l8.873,6.447
		c0.165,0.12,0.36,0.18,0.554,0.18c0.194,0,0.389-0.06,0.554-0.18c0.331-0.24,0.469-0.666,0.343-1.055l-3.389-10.431l8.873-6.446
		C36.388,18.529,36.527,18.104,36.4,17.715z M25.521,24.093c-0.331,0.24-0.469,0.666-0.343,1.055l2.704,8.321l-7.079-5.143
		c-0.165-0.12-0.36-0.18-0.554-0.18s-0.389,0.06-0.554,0.18l-7.079,5.143l2.704-8.321c0.126-0.389-0.012-0.814-0.343-1.055
		L7.898,18.95h8.749c0.409,0,0.771-0.263,0.897-0.652l2.704-8.321l2.704,8.322c0.126,0.389,0.488,0.652,0.897,0.652h8.749
		L25.521,24.093z"/>
</g>
</svg>
