<?xml version="1.0" encoding="utf-8"?>
<!-- Generator: Adobe Illustrator 18.1.1, SVG Export Plug-In . SVG Version: 6.00 Build 0)  -->
<svg version="1.1" id="Слой_1" xmlns="http://www.w3.org/2000/svg" xmlns:xlink="http://www.w3.org/1999/xlink" x="0px" y="0px"
	 viewBox="0 0 40.498 42.863" style="enable-background:new 0 0 40.498 42.863;" xml:space="preserve">
<style type="text/css">
	.st0{fill:none;}
</style>
<g>
	<path class="st0" d="M23.67,19.304c1.292,1.578,2.068,3.593,2.068,5.787c0,5.045-4.104,9.149-9.149,9.149S7.44,30.136,7.44,25.091
		c0-5.045,4.104-9.149,9.149-9.149c2.194,0,4.209,0.777,5.787,2.068l1.297-1.297c-1.914-1.621-4.386-2.601-7.084-2.601
		c-6.054,0-10.979,4.925-10.979,10.979c0,6.054,4.925,10.979,10.979,10.979s10.979-4.925,10.979-10.979
		c0-2.698-0.98-5.171-2.601-7.084L23.67,19.304z"/>
	<path class="st0" d="M16.589,23.261c0.163,0,0.318,0.028,0.468,0.068l1.387-1.387c-0.545-0.322-1.178-0.51-1.855-0.51
		c-2.018,0-3.66,1.642-3.66,3.66c0,2.018,1.642,3.66,3.66,3.66s3.66-1.642,3.66-3.66c0-0.677-0.188-1.311-0.511-1.855l-1.387,1.387
		c0.04,0.15,0.068,0.305,0.068,0.468c0,1.009-0.821,1.83-1.83,1.83s-1.83-0.821-1.83-1.83S15.58,23.261,16.589,23.261z"/>
	<path class="st0" d="M31.228,9.537V8.086l-1.83,1.83v2.366h2.366l1.83-1.83h-1.451C31.637,10.452,31.228,10.043,31.228,9.537z"/>
	<path class="st0" d="M16.589,17.772c-4.036,0-7.319,3.283-7.319,7.319c0,4.036,3.283,7.319,7.319,7.319s7.319-3.283,7.319-7.319
		c0-1.689-0.58-3.241-1.545-4.481l-1.305,1.305c0.64,0.898,1.02,1.992,1.02,3.176c0,3.027-2.463,5.489-5.49,5.489
		s-5.49-2.463-5.49-5.489c0-3.027,2.463-5.49,5.49-5.49c1.184,0,2.278,0.38,3.176,1.02l1.305-1.305
		C19.83,18.352,18.278,17.772,16.589,17.772z"/>
	<path d="M36.648,9.187c-0.142-0.342-0.475-0.565-0.845-0.565h-2.745V5.878c0-0.37-0.223-0.704-0.565-0.845
		c-0.343-0.142-0.736-0.063-0.997,0.198l-3.66,3.66c-0.171,0.172-0.268,0.404-0.268,0.647v3.281l-2.598,2.598
		c-2.248-1.95-5.178-3.135-8.381-3.135c-7.063,0-12.809,5.746-12.809,12.809c0,7.063,5.746,12.809,12.809,12.809
		s12.809-5.746,12.809-12.809c0-3.203-1.184-6.133-3.134-8.381l2.598-2.598h3.281c0.243,0,0.475-0.097,0.647-0.268l3.66-3.66
		C36.711,9.923,36.789,9.529,36.648,9.187z M27.568,25.091c0,6.054-4.925,10.979-10.979,10.979S5.61,31.145,5.61,25.091
		c0-6.054,4.925-10.979,10.979-10.979c2.698,0,5.171,0.98,7.084,2.601l-1.297,1.297c-1.578-1.292-3.593-2.068-5.787-2.068
		c-5.045,0-9.149,4.104-9.149,9.149c0,5.045,4.104,9.149,9.149,9.149s9.149-4.104,9.149-9.149c0-2.194-0.777-4.209-2.068-5.787
		l1.297-1.297C26.588,19.92,27.568,22.393,27.568,25.091z M16.589,26.921c1.009,0,1.83-0.821,1.83-1.83
		c0-0.163-0.028-0.318-0.068-0.468l1.387-1.387c0.322,0.545,0.511,1.178,0.511,1.855c0,2.018-1.642,3.66-3.66,3.66
		s-3.66-1.642-3.66-3.66c0-2.018,1.642-3.66,3.66-3.66c0.677,0,1.311,0.188,1.855,0.51l-1.387,1.387
		c-0.15-0.04-0.305-0.068-0.468-0.068c-1.009,0-1.83,0.821-1.83,1.83S15.58,26.921,16.589,26.921z M19.765,20.622
		c-0.898-0.64-1.992-1.02-3.176-1.02c-3.027,0-5.49,2.463-5.49,5.49c0,3.027,2.463,5.489,5.49,5.489s5.49-2.463,5.49-5.489
		c0-1.184-0.38-2.278-1.02-3.176l1.305-1.305c0.964,1.24,1.545,2.792,1.545,4.481c0,4.036-3.283,7.319-7.319,7.319
		S9.27,29.127,9.27,25.091c0-4.036,3.283-7.319,7.319-7.319c1.689,0,3.241,0.58,4.481,1.545L19.765,20.622z M31.764,12.282h-2.366
		V9.916l1.83-1.83v1.451c0,0.505,0.41,0.915,0.915,0.915h1.451L31.764,12.282z"/>
</g>
</svg>
