<?xml version="1.0" encoding="utf-8"?>
<!-- Generator: Adobe Illustrator 18.1.1, SVG Export Plug-In . SVG Version: 6.00 Build 0)  -->
<svg version="1.1" id="Слой_1" xmlns="http://www.w3.org/2000/svg" xmlns:xlink="http://www.w3.org/1999/xlink" x="0px" y="0px"
	 viewBox="0 0 40.498 42.863" style="enable-background:new 0 0 40.498 42.863;" xml:space="preserve">
<style type="text/css">
	.st0{fill:none;}
</style>
<g>
	<path class="st0" d="M20.249,13.349c-1.041,0-1.887,0.846-1.887,1.887c0,5.359,1.21,8.915,1.887,9.408
		c0.677-0.493,1.887-4.048,1.887-9.408C22.136,14.195,21.289,13.349,20.249,13.349z"/>
	<circle class="st0" cx="20.249" cy="31.275" r="0.943"/>
	<path class="st0" d="M20.249,7.688c-8.324,0-15.096,6.772-15.096,15.096s6.772,15.096,15.096,15.096
		c8.324,0,15.096-6.772,15.096-15.096S28.573,7.688,20.249,7.688z M20.249,34.105c-1.561,0-2.83-1.27-2.83-2.83
		c0-1.561,1.27-2.83,2.83-2.83c1.561,0,2.83,1.27,2.83,2.83C23.079,32.836,21.81,34.105,20.249,34.105z M20.249,26.557
		c-2.769,0-3.774-6.771-3.774-11.322c0-2.081,1.693-3.774,3.774-3.774c2.081,0,3.774,1.693,3.774,3.774
		C24.023,19.787,23.018,26.557,20.249,26.557z"/>
	<g>
		<path class="st0" d="M20.249,11.997c-1.041,0-1.887,0.846-1.887,1.887c0,5.359,1.21,8.915,1.887,9.408
			c0.677-0.493,1.887-4.048,1.887-9.408C22.136,12.843,21.289,11.997,20.249,11.997z"/>
		<circle class="st0" cx="20.249" cy="29.923" r="0.943"/>
		<path class="st0" d="M20.249,6.336c-8.324,0-15.096,6.772-15.096,15.096s6.772,15.096,15.096,15.096
			c8.324,0,15.096-6.772,15.096-15.096S28.573,6.336,20.249,6.336z M20.249,32.753c-1.561,0-2.83-1.27-2.83-2.83
			s1.27-2.83,2.83-2.83c1.561,0,2.83,1.27,2.83,2.83S21.81,32.753,20.249,32.753z M20.249,25.205c-2.769,0-3.774-6.771-3.774-11.322
			c0-2.081,1.693-3.774,3.774-3.774c2.081,0,3.774,1.693,3.774,3.774C24.023,18.434,23.018,25.205,20.249,25.205z"/>
		<path d="M20.249,4.449c-9.364,0-16.983,7.618-16.983,16.983s7.618,16.983,16.983,16.983c9.364,0,16.983-7.618,16.983-16.983
			S29.613,4.449,20.249,4.449z M20.249,36.527c-8.324,0-15.096-6.772-15.096-15.096S11.925,6.336,20.249,6.336
			c8.324,0,15.096,6.772,15.096,15.096S28.573,36.527,20.249,36.527z"/>
		<path d="M20.249,27.092c-1.561,0-2.83,1.27-2.83,2.83s1.27,2.83,2.83,2.83c1.561,0,2.83-1.27,2.83-2.83
			S21.81,27.092,20.249,27.092z M20.249,30.866c-0.52,0-0.943-0.423-0.943-0.943c0-0.52,0.423-0.943,0.943-0.943
			c0.52,0,0.943,0.423,0.943,0.943C21.192,30.443,20.769,30.866,20.249,30.866z"/>
		<path d="M20.249,10.11c-2.081,0-3.774,1.693-3.774,3.774c0,4.551,1.005,11.322,3.774,11.322c2.769,0,3.774-6.771,3.774-11.322
			C24.023,11.803,22.33,10.11,20.249,10.11z M20.249,23.291c-0.677-0.493-1.887-4.048-1.887-9.408c0-1.04,0.846-1.887,1.887-1.887
			c1.04,0,1.887,0.846,1.887,1.887C22.136,19.243,20.926,22.798,20.249,23.291z"/>
	</g>
</g>
</svg>
