<?xml version="1.0" encoding="utf-8"?>
<!-- Generator: Adobe Illustrator 18.1.1, SVG Export Plug-In . SVG Version: 6.00 Build 0)  -->
<svg version="1.1" id="Слой_1" xmlns="http://www.w3.org/2000/svg" xmlns:xlink="http://www.w3.org/1999/xlink" x="0px" y="0px"
	 viewBox="0 0 40.498 42.863" style="enable-background:new 0 0 40.498 42.863;" xml:space="preserve">
<style type="text/css">
	.st0{fill:none;}
</style>
<g>
	<path class="st0" d="M25.75,22.048l8.621-8.62l-4.767-4.767l-8.621,8.62c-0.406,0.406-1.064,0.406-1.47,0l-8.62-8.62l-4.767,4.767
		l8.621,8.621c0.406,0.406,0.406,1.064,0,1.47l-8.621,8.62l4.767,4.767l8.62-8.62c0.203-0.203,0.469-0.304,0.735-0.304
		s0.532,0.101,0.735,0.304l8.62,8.62l4.767-4.767l-8.621-8.621C25.344,23.112,25.344,22.454,25.75,22.048z"/>
	<g>
		<path class="st0" d="M25.75,22.048l8.621-8.62l-4.767-4.767l-8.621,8.62c-0.406,0.406-1.064,0.406-1.47,0l-8.62-8.62l-4.767,4.767
			l8.621,8.621c0.406,0.406,0.406,1.064,0,1.47l-8.621,8.62l4.767,4.767l8.62-8.62c0.203-0.203,0.469-0.304,0.735-0.304
			s0.532,0.101,0.735,0.304l8.62,8.62l4.767-4.767l-8.621-8.621C25.344,23.112,25.344,22.454,25.75,22.048z"/>
		<path d="M36.576,30.052l-8.621-8.621l8.62-8.62c0.406-0.406,0.406-1.064,0-1.47l-6.237-6.237c-0.406-0.406-1.064-0.406-1.47,0
			l-8.62,8.62l-8.62-8.62c-0.406-0.406-1.064-0.406-1.47,0l-6.237,6.237c-0.406,0.406-0.406,1.064,0,1.47l8.62,8.621l-8.621,8.62
			c-0.406,0.406-0.406,1.064,0,1.47l6.237,6.237c0.406,0.406,1.064,0.406,1.47,0l8.621-8.62l8.62,8.62
			c0.203,0.203,0.469,0.304,0.735,0.304s0.532-0.102,0.735-0.304l6.237-6.237C36.982,31.116,36.982,30.458,36.576,30.052z
			 M29.604,35.553l-8.62-8.62c-0.203-0.203-0.469-0.304-0.735-0.304s-0.532,0.101-0.735,0.304l-8.62,8.62l-4.767-4.767l8.621-8.62
			c0.406-0.406,0.406-1.064,0-1.47l-8.621-8.621l4.767-4.767l8.62,8.62c0.406,0.406,1.064,0.406,1.47,0l8.621-8.62l4.767,4.767
			l-8.621,8.62c-0.406,0.406-0.406,1.064,0,1.47l8.621,8.621L29.604,35.553z"/>
	</g>
</g>
</svg>
