<?xml version="1.0" encoding="utf-8"?>
<!-- Generator: Adobe Illustrator 18.1.1, SVG Export Plug-In . SVG Version: 6.00 Build 0)  -->
<svg version="1.1" id="Слой_1" xmlns="http://www.w3.org/2000/svg" xmlns:xlink="http://www.w3.org/1999/xlink" x="0px" y="0px"
	 viewBox="0 0 40.498 42.863" style="enable-background:new 0 0 40.498 42.863;" xml:space="preserve">
<style type="text/css">
	.st0{fill:none;}
</style>
<g>
	<path class="st0" d="M20.249,17.211c-3.073,0-5.572,2.5-5.572,5.572c0,3.073,2.5,5.572,5.572,5.572c3.073,0,5.572-2.5,5.572-5.572
		C25.821,19.711,23.321,17.211,20.249,17.211z"/>
	<path class="st0" d="M34.18,20.926h-2.184c-0.431,0-0.805-0.296-0.904-0.715c-0.275-1.161-0.73-2.263-1.356-3.276
		c-0.227-0.367-0.171-0.841,0.133-1.145l1.544-1.544c0.362-0.362,0.362-0.951,0-1.313l-1.313-1.314
		c-0.351-0.351-0.963-0.351-1.314,0l-1.544,1.544c-0.305,0.305-0.779,0.36-1.145,0.133c-1.011-0.625-2.113-1.081-3.275-1.356
		c-0.419-0.099-0.715-0.473-0.715-0.904V8.853c0-0.512-0.416-0.929-0.929-0.929H19.32c-0.512,0-0.929,0.417-0.929,0.929v2.184
		c0,0.431-0.296,0.805-0.715,0.904c-1.162,0.274-2.264,0.731-3.275,1.356c-0.366,0.227-0.84,0.171-1.145-0.133l-1.544-1.544
		c-0.351-0.35-0.963-0.351-1.314,0l-1.313,1.314c-0.362,0.362-0.362,0.951,0,1.314l1.544,1.544c0.305,0.305,0.36,0.779,0.133,1.145
		c-0.625,1.012-1.081,2.115-1.356,3.276c-0.099,0.419-0.473,0.715-0.904,0.715H6.318c-0.512,0-0.929,0.417-0.929,0.929v1.857
		c0,0.512,0.416,0.929,0.929,0.929h2.184c0.431,0,0.805,0.296,0.904,0.715c0.274,1.161,0.73,2.263,1.356,3.276
		c0.227,0.367,0.171,0.841-0.133,1.145l-1.544,1.544c-0.362,0.362-0.362,0.951,0,1.314l1.314,1.313c0.351,0.351,0.963,0.351,1.314,0
		l1.544-1.544c0.179-0.179,0.417-0.272,0.657-0.272c0.168,0,0.337,0.046,0.488,0.139c1.011,0.625,2.113,1.081,3.275,1.356
		c0.419,0.099,0.715,0.473,0.715,0.904v2.184c0,0.512,0.416,0.929,0.929,0.929h1.857c0.512,0,0.929-0.417,0.929-0.929V34.53
		c0-0.431,0.296-0.805,0.715-0.904c1.162-0.275,2.264-0.731,3.275-1.356c0.367-0.226,0.841-0.171,1.145,0.133l1.544,1.544
		c0.351,0.35,0.962,0.351,1.314,0l1.314-1.314c0.362-0.362,0.362-0.951,0-1.313l-1.544-1.544c-0.305-0.305-0.36-0.779-0.133-1.145
		c0.625-1.013,1.082-2.115,1.356-3.276c0.099-0.419,0.473-0.715,0.904-0.715h2.184c0.512,0,0.929-0.417,0.929-0.929v-1.857
		C35.108,21.343,34.692,20.926,34.18,20.926z M20.249,30.213c-4.097,0-7.43-3.333-7.43-7.43c0-4.097,3.333-7.43,7.43-7.43
		s7.43,3.333,7.43,7.43C27.679,26.88,24.346,30.213,20.249,30.213z"/>
	<path d="M20.249,14.002c-4.097,0-7.43,3.333-7.43,7.43c0,4.097,3.333,7.43,7.43,7.43s7.43-3.333,7.43-7.43
		C27.679,17.335,24.346,14.002,20.249,14.002z M20.249,27.004c-3.073,0-5.572-2.5-5.572-5.572c0-3.073,2.5-5.572,5.572-5.572
		c3.073,0,5.572,2.5,5.572,5.572C25.821,24.504,23.321,27.004,20.249,27.004z"/>
	<path d="M34.18,17.717h-1.471c-0.255-0.857-0.597-1.684-1.022-2.469l1.04-1.04c1.086-1.086,1.086-2.854,0-3.94l-1.313-1.314
		c-0.526-0.526-1.226-0.816-1.97-0.816c-0.744,0-1.444,0.29-1.97,0.816l-1.04,1.039c-0.785-0.425-1.611-0.767-2.469-1.022V7.501
		c0-1.536-1.25-2.786-2.786-2.786H19.32c-1.536,0-2.786,1.25-2.786,2.786v1.471c-0.858,0.255-1.684,0.597-2.469,1.022l-1.04-1.04
		c-0.526-0.526-1.226-0.816-1.97-0.816s-1.444,0.29-1.97,0.816l-1.313,1.313c-1.087,1.086-1.087,2.854,0,3.94l1.04,1.04
		c-0.425,0.786-0.767,1.612-1.022,2.469H6.318c-1.536,0-2.786,1.25-2.786,2.786v1.857c0,1.536,1.25,2.786,2.786,2.786h1.471
		c0.255,0.857,0.597,1.684,1.022,2.469l-1.04,1.04c-1.086,1.086-1.086,2.854,0,3.94l1.314,1.313c0.526,0.526,1.226,0.816,1.97,0.816
		s1.444-0.29,1.97-0.816l1.04-1.039c0.785,0.425,1.612,0.767,2.469,1.022v1.471c0,1.536,1.25,2.786,2.786,2.786h1.857
		c1.536,0,2.786-1.25,2.786-2.786v-1.471c0.858-0.255,1.684-0.597,2.469-1.022l1.04,1.04c0.526,0.526,1.226,0.816,1.97,0.816
		c0.744,0,1.444-0.29,1.97-0.816l1.314-1.314c1.086-1.086,1.086-2.854,0-3.94l-1.04-1.04c0.425-0.786,0.767-1.612,1.022-2.469h1.471
		c1.536,0,2.786-1.25,2.786-2.786v-1.857C36.966,18.966,35.716,17.717,34.18,17.717z M35.108,22.36c0,0.512-0.416,0.929-0.929,0.929
		h-2.184c-0.431,0-0.805,0.296-0.904,0.715c-0.274,1.161-0.731,2.263-1.356,3.276c-0.226,0.366-0.171,0.84,0.133,1.145l1.544,1.544
		c0.362,0.362,0.362,0.951,0,1.313l-1.314,1.314c-0.351,0.351-0.963,0.35-1.314,0l-1.544-1.544c-0.304-0.304-0.778-0.36-1.145-0.133
		c-1.012,0.625-2.113,1.081-3.275,1.356c-0.419,0.099-0.715,0.473-0.715,0.904v2.184c0,0.512-0.416,0.929-0.929,0.929H19.32
		c-0.512,0-0.929-0.417-0.929-0.929v-2.184c0-0.431-0.296-0.805-0.715-0.904c-1.162-0.275-2.264-0.731-3.275-1.356
		c-0.151-0.093-0.32-0.139-0.488-0.139c-0.24,0-0.478,0.093-0.657,0.272l-1.544,1.544c-0.351,0.351-0.963,0.351-1.314,0
		l-1.314-1.313c-0.362-0.362-0.362-0.951,0-1.314l1.544-1.544c0.305-0.304,0.36-0.778,0.133-1.145
		c-0.626-1.013-1.082-2.115-1.356-3.276c-0.099-0.419-0.473-0.715-0.904-0.715H6.318c-0.512,0-0.929-0.417-0.929-0.929v-1.857
		c0-0.512,0.416-0.929,0.929-0.929h2.184c0.431,0,0.805-0.296,0.904-0.715c0.275-1.161,0.731-2.263,1.356-3.276
		c0.226-0.366,0.171-0.84-0.133-1.145l-1.544-1.544c-0.362-0.362-0.362-0.951,0-1.314l1.313-1.314c0.351-0.351,0.963-0.35,1.314,0
		l1.544,1.544c0.305,0.305,0.779,0.36,1.145,0.133c1.012-0.625,2.113-1.081,3.275-1.356c0.419-0.099,0.715-0.473,0.715-0.904V7.501
		c0-0.512,0.416-0.929,0.929-0.929h1.857c0.512,0,0.929,0.417,0.929,0.929v2.184c0,0.431,0.296,0.805,0.715,0.904
		c1.162,0.274,2.264,0.731,3.275,1.356c0.366,0.226,0.84,0.171,1.145-0.133l1.544-1.544c0.351-0.351,0.962-0.351,1.314,0
		l1.313,1.314c0.362,0.362,0.362,0.951,0,1.313l-1.544,1.544c-0.305,0.304-0.36,0.778-0.133,1.145
		c0.626,1.012,1.081,2.115,1.356,3.276c0.099,0.419,0.473,0.715,0.904,0.715h2.184c0.512,0,0.929,0.417,0.929,0.929V22.36z"/>
</g>
</svg>
