<?xml version="1.0" encoding="utf-8"?>
<!-- Generator: Adobe Illustrator 18.1.1, SVG Export Plug-In . SVG Version: 6.00 Build 0)  -->
<svg version="1.1" id="Слой_1" xmlns="http://www.w3.org/2000/svg" xmlns:xlink="http://www.w3.org/1999/xlink" x="0px" y="0px"
	 viewBox="0 0 40.498 42.863" style="enable-background:new 0 0 40.498 42.863;" xml:space="preserve">
<style type="text/css">
	.st0{fill:none;}
</style>
<g>
	<polygon class="st0" points="24.499,3.826 21.43,3.826 12.814,12.439 13.443,16.115 25.102,4.457 	"/>
	<polygon class="st0" points="15.997,3.826 12.053,7.996 12.535,10.81 19.523,3.826 	"/>
	<polygon class="st0" points="26.027,5.439 13.722,17.743 14.352,21.419 28.121,7.652 	"/>
	<polygon class="st0" points="26.905,16.986 22.637,21.254 26.174,21.254 	"/>
	<polygon class="st0" points="27.299,14.686 28.189,9.491 16.425,21.254 20.73,21.254 	"/>
	<path class="st0" d="M21.738,26.423c0-0.075,0.013-0.148,0.032-0.208l1.375-3.612h-5.988l1.349,4.869l3.306,2.999
		c1.305,1.307,1.305,3.432,0,4.737c-1.265,1.263-3.472,1.26-4.736,0.005l-2.936-2.94l0.067,1.115c0.19,3.17,2.827,5.653,6.003,5.653
		c3.317,0,6.015-2.697,6.015-6.014c0-0.934-0.074-1.635-0.43-2.25l-0.056-0.093c-0.322-0.454-3.207-3.215-3.788-3.769
		C21.817,26.789,21.738,26.61,21.738,26.423z"/>
	<path d="M26.743,22.602c0.322,0,0.601-0.228,0.662-0.543l2.427-14.177c0.006-0.032,0.008-0.068,0.008-0.107
		c0-0.172-0.065-0.336-0.183-0.461L25.26,2.666c-0.119-0.12-0.289-0.192-0.47-0.192h-9.084c-0.18,0-0.35,0.072-0.478,0.2
		l-4.388,4.639c-0.119,0.126-0.183,0.29-0.183,0.463c0,0.038,0.003,0.074,0.009,0.111l2.429,14.183
		c0.06,0.304,0.338,0.532,0.66,0.532h2.003l1.508,5.442c0.035,0.115,0.105,0.223,0.204,0.309l3.39,3.072
		c0.777,0.801,0.768,2.061,0.001,2.829c-0.756,0.757-2.079,0.752-2.831,0.002l-3.75-3.751c-0.114-0.104-0.277-0.169-0.447-0.169
		c-0.31,0-0.578,0.211-0.654,0.508c-0.221,0.721-0.33,1.447-0.33,2.182c0,4.06,3.303,7.362,7.363,7.362
		c4.059,0,7.362-3.302,7.362-7.362c0-0.956-0.071-1.967-0.588-2.885c-0.113-0.238-0.454-0.701-2.217-2.411
		c-0.501-0.487-0.997-0.957-1.356-1.294l-0.208-0.194l1.386-3.64H26.743z M12.053,7.996l3.944-4.17h3.526l-6.988,6.984L12.053,7.996
		z M12.814,12.439l8.616-8.613h3.069l0.603,0.632L13.443,16.115L12.814,12.439z M14.352,21.419l-0.629-3.676L26.027,5.439
		l2.093,2.214L14.352,21.419z M28.189,9.491l-0.89,5.195l-6.569,6.569h-4.305L28.189,9.491z M25.739,30.683l0.056,0.093
		c0.356,0.616,0.43,1.317,0.43,2.25c0,3.317-2.698,6.014-6.015,6.014c-3.177,0-5.814-2.483-6.003-5.653l-0.067-1.115l2.936,2.94
		c1.263,1.255,3.471,1.259,4.736-0.005c1.305-1.305,1.305-3.43,0-4.737l-3.306-2.999l-1.349-4.869h5.988l-1.375,3.612
		c-0.02,0.06-0.032,0.133-0.032,0.208c0,0.187,0.079,0.366,0.213,0.492C22.532,27.468,25.418,30.23,25.739,30.683z M22.637,21.254
		l4.267-4.268l-0.73,4.268H22.637z"/>
</g>
</svg>
