<?xml version="1.0" encoding="utf-8"?>
<!-- Generator: Adobe Illustrator 18.1.1, SVG Export Plug-In . SVG Version: 6.00 Build 0)  -->
<svg version="1.1" id="Слой_1" xmlns="http://www.w3.org/2000/svg" xmlns:xlink="http://www.w3.org/1999/xlink" x="0px" y="0px"
	 viewBox="0 0 40.498 42.863" style="enable-background:new 0 0 40.498 42.863;" xml:space="preserve">
<style type="text/css">
	.st0{fill:none;}
</style>
<g>
	<path class="st0" d="M20.249,13.349c-9.424,0-14.026,7.626-14.986,9.439c0.96,1.851,5.473,9.431,14.986,9.431
		c9.424,0,14.026-7.626,14.986-9.439C34.274,20.926,29.761,13.349,20.249,13.349z M20.249,28.444c-3.121,0-5.661-2.539-5.661-5.661
		c0-3.121,2.539-5.661,5.661-5.661c3.121,0,5.661,2.539,5.661,5.661C25.91,25.905,23.37,28.444,20.249,28.444z"/>
	<path class="st0" d="M20.249,19.01c-2.081,0-3.774,1.693-3.774,3.774c0,2.081,1.693,3.774,3.774,3.774
		c2.081,0,3.774-1.693,3.774-3.774C24.023,20.703,22.33,19.01,20.249,19.01z"/>
	<path d="M37.148,21.045c-0.049-0.109-5.052-10.935-16.9-10.935c-11.848,0-16.851,10.825-16.9,10.935
		c-0.111,0.246-0.111,0.528,0,0.774c0.049,0.109,5.052,10.935,16.9,10.935c11.847,0,16.851-10.826,16.9-10.935
		C37.259,21.572,37.259,21.291,37.148,21.045z M20.249,30.866c-9.514,0-14.026-7.579-14.986-9.431
		c0.96-1.813,5.562-9.439,14.986-9.439c9.513,0,14.025,7.577,14.986,9.431C34.275,23.24,29.673,30.866,20.249,30.866z"/>
	<path d="M20.249,15.77c-3.121,0-5.661,2.539-5.661,5.661c0,3.121,2.539,5.661,5.661,5.661c3.121,0,5.661-2.539,5.661-5.661
		C25.91,18.31,23.37,15.77,20.249,15.77z M20.249,25.205c-2.081,0-3.774-1.693-3.774-3.774c0-2.081,1.693-3.774,3.774-3.774
		c2.081,0,3.774,1.693,3.774,3.774C24.023,23.512,22.33,25.205,20.249,25.205z"/>
</g>
</svg>
