<?xml version="1.0" encoding="utf-8"?>
<!-- Generator: Adobe Illustrator 18.1.1, SVG Export Plug-In . SVG Version: 6.00 Build 0)  -->
<svg version="1.1" id="Слой_1" xmlns="http://www.w3.org/2000/svg" xmlns:xlink="http://www.w3.org/1999/xlink" x="0px" y="0px"
	 viewBox="0 0 58.781 50.811" enable-background="new 0 0 58.781 50.811" xml:space="preserve">
<g>
	<path fill="none" stroke="#FFFFFF" stroke-linecap="round" stroke-linejoin="round" stroke-miterlimit="10" d="M20.173,31.216
		h25.211 M8.523,35.201h29.825 M8.523,31.216h8.339 M31.821,27.382h13.563 M8.523,27.382h19.989 M25.46,23.426h13.634 M8.523,23.426
		H22.16 M8.523,14.279h19.989 M8.523,10.323h26.775 M58.281,10.323h-6.004c-2.193,0-3.985-1.352-3.985-3.002V4.317 M41.816,0.5
		h6.641l9.823,9.823 M58.281,13.201v33.125c0,2.19-1.792,3.985-3.985,3.985H4.485c-2.193,0-3.985-1.795-3.985-3.985V4.485
		C0.5,2.292,2.292,0.5,4.485,0.5h39.737"/>
</g>
</svg>
