<?xml version="1.0" encoding="utf-8"?>
<!-- Generator: Adobe Illustrator 18.1.1, SVG Export Plug-In . SVG Version: 6.00 Build 0)  -->
<svg version="1.1" id="Слой_1" xmlns="http://www.w3.org/2000/svg" xmlns:xlink="http://www.w3.org/1999/xlink" x="0px" y="0px"
	 viewBox="0 0 61.769 61.771" enable-background="new 0 0 61.769 61.771" xml:space="preserve">
<g>
	<path fill="none" stroke="#FFFFFF" stroke-linecap="round" stroke-linejoin="round" stroke-miterlimit="10" d="M45.753,47.518
		l3.699-3.699 M47.879,49.641l3.699-3.696 M40.307,38.888c3.737-4.076,6.019-9.508,6.019-15.473
		c0-12.657-10.26-22.914-22.914-22.914C10.754,0.5,0.5,10.757,0.5,23.414c0,12.654,10.254,22.912,22.912,22.912
		c4.885,0,9.41-1.526,13.129-4.13c0.08-0.056,0.233,0.213,0.233,0.213L54.47,60.108c1.553,1.553,4.088,1.55,5.635,0
		c1.553-1.55,1.553-4.085,0-5.635L44.52,38.888 M33.025,10.89c2.314,1.818,4.15,4.221,5.287,6.981 M43.336,23.414
		c0,11.001-8.92,19.924-19.924,19.924S3.487,34.416,3.487,23.414c0-11.004,8.92-19.924,19.924-19.924S43.336,12.41,43.336,23.414z
		 M19.669,29.427h18.637 M10.598,32.532h23.224 M10.598,29.427h6.494 M28.742,26.443h9.564 M10.598,26.443h15.565 M23.786,23.364
		h10.617 M10.598,23.364h10.617 M10.598,16.239h15.565 M10.598,13.16h12.079"/>
</g>
</svg>
