<?xml version="1.0" encoding="utf-8"?>
<!-- Generator: Adobe Illustrator 18.1.1, SVG Export Plug-In . SVG Version: 6.00 Build 0)  -->
<svg version="1.1" id="Слой_1" xmlns="http://www.w3.org/2000/svg" xmlns:xlink="http://www.w3.org/1999/xlink" x="0px" y="0px"
	 viewBox="0 0 65 72.22" enable-background="new 0 0 65 72.22" xml:space="preserve">
<g>
	<path fill="none" stroke="#FFFFFF" stroke-linecap="round" stroke-linejoin="round" stroke-miterlimit="10" d="M34.43,31.78
		c0.723,0.162,1.414,0.41,2.057,0.735 M43.507,24.876c-2.598-1.845-5.555-2.961-8.587-3.347 M40.476,28.394
		c-2.285-1.517-5.027-2.4-7.976-2.4 M26.968,45.945l3.111-3.111c1.337,1.337,3.504,1.337,4.841,0 M38.082,9.606
		c14.626,2.63,25.725,15.423,25.725,30.807c0,17.288-14.015,31.306-31.306,31.306c-17.288,0-31.303-14.018-31.303-31.306
		c0-16.385,12.589-29.83,28.62-31.191V5.866h-3.241V0.5h11.851v5.366h-3.244v3.356 M6.994,18.349l-1.066-1.066l-2.043,2.046
		L0.5,15.944L7.974,8.47l3.386,3.386l-2.046,2.043l1.066,1.069 M30.08,37.993c1.337-1.334,3.504-1.334,4.841,0.003l2.27-2.27
		l10.219-10.222 M58.006,18.349l1.066-1.066l2.046,2.046l3.383-3.386L57.026,8.47l-3.383,3.386l2.043,2.043l-1.066,1.069
		 M3.88,40.414c0,15.807,12.814,28.623,28.62,28.623S61.123,56.22,61.123,40.414S48.307,11.793,32.5,11.793S3.88,24.607,3.88,40.414
		z"/>
</g>
</svg>
