<?xml version="1.0" standalone="no"?>
<!DOCTYPE svg PUBLIC "-//W3C//DTD SVG 1.1//EN" "http://www.w3.org/Graphics/SVG/1.1/DTD/svg11.dtd" >
<svg xmlns="http://www.w3.org/2000/svg">
<metadata>Generated by IcoMoon</metadata>
<defs>
<font id="icomoon" horiz-adv-x="1024">
<font-face units-per-em="1024" ascent="960" descent="-64" />
<missing-glyph horiz-adv-x="1024" />
<glyph unicode="&#x20;" horiz-adv-x="512" d="" />
<glyph unicode="&#xe900;" glyph-name="attention" horiz-adv-x="967" d="M483.75 853.713c-223.707 0-405.725-181.995-405.725-405.725s181.995-405.725 405.725-405.725c223.707 0 405.725 181.995 405.725 405.725s-182.018 405.725-405.725 405.725zM483.75 87.367c-198.861 0-360.644 161.784-360.644 360.644s161.784 360.621 360.644 360.621c198.861 0 360.644-161.784 360.644-360.644s-161.784-360.621-360.644-360.621zM483.75 312.77c-37.292 0-67.609-30.34-67.609-67.609s30.34-67.609 67.609-67.609c37.292 0 67.609 30.34 67.609 67.609s-30.316 67.609-67.609 67.609zM483.75 222.609c-12.423 0-22.528 10.105-22.528 22.528s10.105 22.528 22.528 22.528c12.423 0 22.528-10.105 22.528-22.528s-10.105-22.528-22.528-22.528zM483.75 718.471c-49.715 0-90.161-40.446-90.161-90.161 0-108.724 24.010-270.483 90.161-270.483s90.161 161.76 90.161 270.483c0 49.715-40.446 90.161-90.161 90.161zM483.75 403.576c-16.174 11.778-45.081 96.707-45.081 224.758 0 24.846 20.211 45.081 45.081 45.081 24.846 0 45.081-20.211 45.081-45.081 0-128.051-28.907-212.98-45.081-224.758z" />
<glyph unicode="&#xe901;" glyph-name="search" horiz-adv-x="967" d="M862.073 197.166l-150.914 150.937c27.975 49.214 44.053 106.024 44.053 166.562 0 186.438-151.678 338.092-338.092 338.092s-338.116-151.678-338.116-338.092c0-186.438 151.678-338.092 338.092-338.092 60.514 0 117.324 16.054 166.538 44.029l150.937-150.937c17.034-17.034 39.658-26.399 63.739-26.399s46.729 9.365 63.763 26.399c17.034 17.034 26.399 39.658 26.399 63.763 0 24.081-9.389 46.705-26.399 63.739zM417.121 221.63c-161.569 0-293.012 131.443-293.012 293.012s131.443 293.012 293.012 293.012 293.012-131.443 293.012-293.012c0-161.545-131.467-293.012-293.012-293.012zM830.204 101.534c-8.529-8.505-19.829-13.187-31.869-13.187s-23.364 4.682-31.869 13.187l-144.439 144.439c23.962 18.324 45.415 39.777 63.763 63.763l144.415-144.439c8.505-8.505 13.187-19.829 13.187-31.869s-4.682-23.364-13.187-31.893zM417.121 762.596c-136.723 0-247.931-111.208-247.931-247.931s111.208-247.955 247.931-247.955 247.931 111.232 247.931 247.931-111.232 247.955-247.931 247.955zM417.121 311.791c-111.853 0-202.851 90.997-202.851 202.851s90.997 202.851 202.851 202.851 202.851-90.997 202.851-202.851c0-111.853-90.997-202.851-202.851-202.851zM417.121 672.435c-86.984 0-157.77-70.786-157.77-157.77 0-12.447 10.082-22.528 22.528-22.528s22.528 10.082 22.528 22.528c0 62.138 50.551 112.689 112.689 112.689 12.447 0 22.528 10.082 22.528 22.528s-10.058 22.552-22.504 22.552z" />
<glyph unicode="&#xe902;" glyph-name="eye" horiz-adv-x="967" d="M887.468 457.234c-1.171 2.604-120.693 261.238-403.742 261.238s-402.572-258.61-403.742-261.238c-2.652-5.877-2.652-12.614 0-18.491 1.171-2.604 120.693-261.238 403.742-261.238 283.026 0 402.572 258.634 403.742 261.238 2.652 5.901 2.652 12.614 0 18.491zM483.75 222.609c-227.29 0-335.082 181.063-358.017 225.307 22.934 43.313 132.877 225.498 358.017 225.498 227.266 0 335.058-181.015 358.017-225.307-22.934-43.313-132.877-225.498-358.017-225.498zM483.75 583.254c-74.561 0-135.242-60.657-135.242-135.242 0-74.561 60.657-135.242 135.242-135.242 74.561 0 135.242 60.657 135.242 135.242 0 74.561-60.681 135.242-135.242 135.242zM483.75 357.851c-49.715 0-90.161 40.446-90.161 90.161s40.446 90.161 90.161 90.161c49.715 0 90.161-40.446 90.161-90.161s-40.446-90.161-90.161-90.161z" />
<glyph unicode="&#xe903;" glyph-name="roller" horiz-adv-x="967" d="M866.923 741.024h-67.609v90.161c0 12.447-10.082 22.528-22.528 22.528h-631.128c-12.447 0-22.528-10.082-22.528-22.528v-90.161h-22.552c-12.447 0-22.528-10.082-22.528-22.528s10.082-22.528 22.528-22.528h22.528v-90.161c0-12.447 10.082-22.528 22.528-22.528h631.104c12.447 0 22.528 10.082 22.528 22.528v90.161h45.081v-202.851h-383.149c-12.447 0-22.528-10.082-22.528-22.528v-112.689h-22.528c-12.447 0-22.528-10.082-22.528-22.528v-270.483c0-12.447 10.082-22.528 22.528-22.528h90.161c12.447 0 22.528 10.082 22.528 22.528v270.412c0 12.447-10.082 22.528-22.528 22.528h-22.528v90.161h383.173c12.447 0 22.528 10.082 22.528 22.528v247.955c0 12.471-10.105 22.552-22.552 22.552zM754.233 628.334h-31.153l-16.317 32.61c-5.566 11.133-19.088 15.624-30.245 10.082-11.133-5.566-15.648-19.112-10.082-30.245l6.235-12.471h-39.753l-16.317 32.61c-5.59 11.133-19.088 15.624-30.245 10.082-11.133-5.566-15.648-19.112-10.082-30.245l6.211-12.471h-39.753l-16.317 32.61c-5.566 11.133-19.112 15.624-30.245 10.082-11.133-5.566-15.648-19.112-10.082-30.245l6.211-12.471h-39.753l-16.317 32.61c-5.566 11.133-19.088 15.624-30.245 10.082-11.133-5.566-15.648-19.112-10.082-30.245l6.211-12.471h-39.753l-16.317 32.61c-5.566 11.133-19.088 15.624-30.245 10.082-11.133-5.566-15.648-19.112-10.082-30.245l6.211-12.471h-39.753l-16.317 32.61c-5.566 11.133-19.112 15.624-30.245 10.082-11.133-5.566-15.648-19.112-10.082-30.245l6.211-12.471h-53.562v180.442h586.047v-180.298zM483.75 87.367h-45.081v225.403h45.081v-225.403z" />
<glyph unicode="&#xe904;" glyph-name="box-side" horiz-adv-x="967" d="M641.52 628.31h-540.943c-12.447 0-22.528-10.082-22.528-22.528v-540.967c0-12.447 10.082-22.528 22.528-22.528h540.967c12.447 0 22.528 10.082 22.528 22.528v540.967c0 12.447-10.105 22.528-22.552 22.528zM618.992 87.367h-495.886v495.886h495.886v-495.886zM823.992 839.809c-3.488 8.409-11.706 13.904-20.808 13.904h-522.285c-5.973 0-11.706-2.365-15.935-6.594l-135.242-135.242c-6.45-6.45-8.385-16.15-4.897-24.559 3.488-8.433 11.706-13.928 20.832-13.928h522.285c5.973 0 11.706 2.365 15.935 6.594l135.242 135.242c6.45 6.45 8.362 16.15 4.874 24.583zM658.601 718.471h-458.546l90.161 90.161h458.546l-90.161-90.161zM875.547 788.254c-8.457 3.488-18.133 1.553-24.559-4.897l-135.242-135.242c-4.229-4.229-6.594-9.962-6.594-15.935v-522.285c0-9.126 5.495-17.344 13.904-20.832 2.795-1.147 5.734-1.72 8.624-1.72 5.877 0 11.634 2.293 15.959 6.594l135.242 135.242c4.229 4.229 6.594 9.962 6.594 15.935v522.309c0 9.126-5.495 17.344-13.928 20.832zM844.394 254.479l-90.161-90.161v458.546l90.161 90.161v-458.546z" />
<glyph unicode="&#xe905;" glyph-name="blank-check" horiz-adv-x="967" d="M792.672 711.902l-135.194 135.194c-4.133 4.157-10.105 6.618-15.959 6.618h-450.782c-12.447 0-22.528-10.082-22.528-22.528v-766.346c0-12.447 10.082-22.528 22.528-22.528h586.047c12.447 0 22.528 10.082 22.528 22.528v631.104c0 5.877-2.485 11.802-6.641 15.959zM664.072 776.763l58.292-58.292h-58.292v58.292zM754.233 87.367h-540.967v721.265h405.725v-112.689c0-12.447 10.082-22.528 22.528-22.528h112.689v-586.047zM625.585 576.636l-209.468-209.468-74.226 74.226c-8.792 8.815-23.078 8.815-31.869 0-8.815-8.815-8.815-23.078 0-31.869l90.161-90.161c4.396-4.396 10.153-6.594 15.935-6.594s11.539 2.198 15.935 6.594l225.403 225.403c8.815 8.815 8.815 23.078 0 31.869-8.792 8.815-23.078 8.815-31.869 0z" />
<glyph unicode="&#xe906;" glyph-name="cross" horiz-adv-x="967" d="M873.803 242.056l-205.956 205.956 205.932 205.932c9.699 9.699 9.699 25.419 0 35.118l-149.002 149.002c-9.699 9.699-25.419 9.699-35.118 0l-205.932-205.932-205.932 205.932c-9.699 9.699-25.419 9.699-35.118 0l-149.002-149.002c-9.699-9.699-9.699-25.419 0-35.118l205.932-205.956-205.956-205.932c-9.699-9.699-9.699-25.419 0-35.118l149.002-149.002c9.699-9.699 25.419-9.699 35.118 0l205.956 205.932 205.932-205.932c4.85-4.85 11.204-7.263 17.559-7.263s12.71 2.437 17.559 7.263l149.002 149.002c9.723 9.699 9.723 25.419 0.024 35.118zM707.242 110.636l-205.932 205.932c-4.85 4.85-11.204 7.263-17.559 7.263s-12.71-2.413-17.559-7.263l-205.932-205.932-113.884 113.884 205.956 205.932c9.699 9.699 9.699 25.419 0 35.118l-205.956 205.956 113.884 113.884 205.932-205.932c9.699-9.699 25.419-9.699 35.118 0l205.956 205.932 113.884-113.884-205.956-205.932c-9.699-9.699-9.699-25.419 0-35.118l205.956-205.956-113.908-113.884z" />
<glyph unicode="&#xe907;" glyph-name="star" horiz-adv-x="967" d="M869.598 536.787c-3.010 9.293-11.658 15.576-21.429 15.576h-262.026l-80.963 249.197c-3.010 9.293-11.658 15.576-21.429 15.576s-18.419-6.283-21.429-15.576l-80.963-249.197h-262.026c-9.771 0-18.419-6.283-21.429-15.576-3.034-9.293 0.287-19.47 8.17-25.204l211.977-154.019-80.963-249.197c-3.010-9.293 0.287-19.447 8.194-25.204 7.908-5.734 18.61-5.734 26.494 0l211.977 154.019 211.977-154.019c3.942-2.867 8.6-4.3 13.235-4.3s9.293 1.433 13.235 4.3c7.908 5.734 11.204 15.911 8.194 25.204l-80.963 249.197 211.977 153.995c7.908 5.781 11.228 15.935 8.194 25.228zM609.698 384.417c-7.908-5.734-11.204-15.911-8.194-25.204l64.599-198.789-169.118 122.867c-3.942 2.867-8.6 4.3-13.235 4.3s-9.293-1.433-13.235-4.3l-169.118-122.867 64.599 198.789c3.010 9.293-0.287 19.447-8.194 25.204l-169.118 122.867h209.014c9.771 0 18.419 6.283 21.429 15.576l64.599 198.789 64.599-198.813c3.010-9.293 11.658-15.576 21.429-15.576h209.014l-169.070-122.843z" />
<glyph unicode="&#xe908;" glyph-name="check" horiz-adv-x="967" d="M911.048 639.395l-149.002 149.002c-9.699 9.699-25.419 9.699-35.118 0l-330.113-330.113-156.265 156.265c-9.699 9.699-25.419 9.699-35.118 0l-149.002-149.002c-9.699-9.699-9.699-25.419 0-35.118l322.85-322.826c4.85-4.85 11.204-7.286 17.559-7.286s12.71 2.413 17.559 7.263l496.675 496.675c9.699 9.723 9.699 25.443-0.024 35.142zM396.814 160.28l-287.708 287.708 113.884 113.884 156.265-156.265c9.699-9.699 25.419-9.699 35.118 0l330.113 330.113 113.884-113.884-461.556-461.556z" />
<glyph unicode="&#xe909;" glyph-name="logo" horiz-adv-x="967" d="M335.202 355.677l59.080 34.115-55.974 96.97h290.36l-145.299-251.634-55.425 95.99-58.913-34.019 114.362-198.073 262.552 454.7h-525.080zM807.771 796.974l-62.688-108.556h-523.408l-62.688 108.556h-78.574l101.557-175.903h603.798l101.318 175.496z" />
<glyph unicode="&#xe90a;" glyph-name="wheel" horiz-adv-x="967" d="M483.75 625.491c-97.878 0-177.503-79.626-177.503-177.503s79.626-177.503 177.503-177.503 177.503 79.626 177.503 177.503c0 97.878-79.626 177.503-177.503 177.503zM483.75 314.873c-73.414 0-133.115 59.725-133.115 133.115 0 73.414 59.725 133.115 133.115 133.115 73.414 0 133.115-59.725 133.115-133.115s-59.725-133.115-133.115-133.115zM816.563 536.74h-35.142c-6.092 20.474-14.262 40.231-24.416 58.985l24.846 24.846c25.945 25.945 25.945 68.182 0 94.127l-31.368 31.392c-12.566 12.566-29.289 19.494-47.063 19.494s-34.497-6.928-47.063-19.494l-24.846-24.822c-18.754 10.153-38.487 18.324-58.985 24.416v35.118c0 36.695-29.863 66.558-66.558 66.558h-44.412c-36.695 0-66.558-29.863-66.558-66.558v-35.142c-20.498-6.092-40.231-14.262-58.985-24.416l-24.846 24.846c-12.566 12.566-29.289 19.494-47.063 19.494s-34.497-6.928-47.063-19.494l-31.368-31.368c-25.969-25.945-25.969-68.182 0-94.127l24.846-24.846c-10.153-18.778-18.324-38.511-24.416-58.985h-35.166c-36.695 0-66.558-29.863-66.558-66.558v-44.364c0-36.695 29.863-66.558 66.558-66.558h35.142c6.092-20.474 14.262-40.231 24.416-58.985l-24.846-24.846c-25.945-25.945-25.945-68.182 0-94.127l31.392-31.368c12.566-12.566 29.289-19.494 47.063-19.494s34.497 6.928 47.063 19.494l24.846 24.822c18.754-10.153 38.511-18.324 58.985-24.416v-35.142c0-36.695 29.863-66.558 66.558-66.558h44.364c36.695 0 66.558 29.863 66.558 66.558v35.142c20.498 6.092 40.231 14.262 58.985 24.416l24.846-24.846c12.566-12.566 29.289-19.494 47.063-19.494s34.497 6.928 47.063 19.494l31.392 31.392c25.945 25.945 25.945 68.182 0 94.127l-24.846 24.846c10.153 18.778 18.324 38.511 24.416 58.985h35.142c36.695 0 66.558 29.863 66.558 66.558v44.364c0.024 36.695-29.839 66.534-66.534 66.534zM838.733 425.818c0-12.232-9.938-22.194-22.194-22.194h-52.176c-10.297 0-19.232-7.071-21.597-17.081-6.546-27.736-17.464-54.063-32.395-78.264-5.399-8.744-4.085-20.068 3.177-27.354l36.886-36.886c8.648-8.648 8.648-22.719 0-31.368l-31.392-31.392c-8.385-8.385-23.006-8.362-31.392 0l-36.886 36.886c-7.263 7.263-18.586 8.6-27.354 3.177-24.177-14.931-50.48-25.825-78.24-32.395-10.010-2.365-17.081-11.3-17.081-21.597v-52.176c0-12.232-9.938-22.194-22.194-22.194h-44.34c-12.232 0-22.194 9.962-22.194 22.194v52.176c0 10.297-7.071 19.232-17.081 21.597-27.76 6.57-54.087 17.464-78.24 32.395-3.607 2.222-7.645 3.321-11.658 3.321-5.734 0-11.419-2.222-15.696-6.498l-36.886-36.886c-8.385-8.385-23.006-8.385-31.392 0l-31.392 31.368c-8.648 8.648-8.648 22.719 0 31.392l36.886 36.886c7.286 7.263 8.6 18.586 3.177 27.354-14.955 24.201-25.849 50.527-32.395 78.264-2.365 10.010-11.3 17.081-21.597 17.081h-52.152c-12.232 0-22.194 9.962-22.194 22.194v44.364c0 12.232 9.938 22.194 22.194 22.194h52.176c10.297 0 19.232 7.071 21.597 17.081 6.57 27.736 17.464 54.063 32.395 78.264 5.399 8.744 4.085 20.068-3.177 27.354l-36.886 36.886c-8.648 8.648-8.648 22.719 0 31.392l31.368 31.392c8.385 8.385 23.006 8.362 31.392 0l36.886-36.886c7.286-7.286 18.61-8.6 27.354-3.177 24.177 14.931 50.48 25.825 78.24 32.395 10.010 2.365 17.081 11.3 17.081 21.597v52.128c0 12.232 9.938 22.194 22.194 22.194h44.364c12.232 0 22.194-9.962 22.194-22.194v-52.176c0-10.297 7.071-19.232 17.081-21.597 27.76-6.546 54.087-17.464 78.24-32.395 8.744-5.399 20.068-4.085 27.354 3.177l36.886 36.886c8.385 8.385 22.982 8.385 31.392 0l31.368-31.392c8.648-8.648 8.648-22.719 0-31.368l-36.886-36.886c-7.286-7.263-8.6-18.586-3.177-27.354 14.955-24.177 25.825-50.527 32.395-78.264 2.365-10.010 11.3-17.081 21.597-17.081h52.176c12.232 0 22.194-9.962 22.194-22.194v-44.34z" />
<glyph unicode="&#xe90b;" glyph-name="blank-text" horiz-adv-x="967" d="M793.915 696.445c-0.191 0.932-0.526 1.792-0.812 2.7-0.167 0.478-0.263 0.979-0.454 1.457-0.406 0.979-0.956 1.887-1.505 2.795-0.191 0.334-0.334 0.693-0.549 1.003-0.812 1.218-1.744 2.341-2.771 3.368l-133.068 133.068c-1.027 1.027-2.15 1.959-3.368 2.771-0.311 0.215-0.669 0.358-1.003 0.549-0.908 0.549-1.816 1.075-2.795 1.505-0.478 0.191-0.979 0.287-1.457 0.454-0.884 0.311-1.768 0.621-2.7 0.812-1.433 0.287-2.891 0.43-4.396 0.43h-443.71c-12.256 0-22.194-9.938-22.194-22.194v-754.353c0-12.256 9.938-22.194 22.194-22.194h576.873c12.256 0 22.194 9.938 22.194 22.194v621.237c-0.024 1.481-0.167 2.962-0.478 4.396zM661.253 771.603l57.36-57.36h-57.36v57.36zM749.981 93.006h-532.486v709.989h399.37v-110.945c0-12.256 9.938-22.194 22.194-22.194h110.945v-576.85zM401.496 618.993l-73.056-73.056-28.692 28.692c-8.672 8.672-22.719 8.672-31.368 0-8.672-8.672-8.672-22.719 0-31.368l44.364-44.364c4.324-4.348 10.010-6.498 15.672-6.498 5.686 0 11.372 2.174 15.696 6.498l88.752 88.752c8.672 8.672 8.672 22.719 0 31.368-8.648 8.648-22.696 8.648-31.368-0.024zM401.496 441.514l-73.056-73.056-28.692 28.692c-8.672 8.672-22.719 8.672-31.368 0-8.672-8.672-8.672-22.719 0-31.368l44.364-44.364c4.324-4.348 10.010-6.498 15.672-6.498 5.686 0 11.372 2.174 15.696 6.498l88.752 88.752c8.672 8.672 8.672 22.719 0 31.368-8.648 8.624-22.696 8.624-31.368-0.024zM401.496 264.011l-73.056-73.056-28.692 28.692c-8.672 8.672-22.719 8.672-31.368 0-8.672-8.672-8.672-22.719 0-31.368l44.364-44.364c4.324-4.348 10.010-6.498 15.672-6.498 5.686 0 11.372 2.174 15.696 6.498l88.752 88.752c8.672 8.672 8.672 22.719 0 31.368-8.648 8.648-22.696 8.648-31.368-0.024zM483.75 603.321c0-12.256 9.938-22.194 22.194-22.194h177.503c12.256 0 22.194 9.938 22.194 22.194s-9.938 22.194-22.194 22.194h-177.503c-12.256-0.024-22.194-9.938-22.194-22.194zM505.944 492.376h88.752c12.256 0 22.194 9.938 22.194 22.194s-9.938 22.194-22.194 22.194h-88.752c-12.256 0-22.194-9.938-22.194-22.194s9.938-22.194 22.194-22.194zM683.423 448.012h-177.503c-12.256 0-22.194-9.938-22.194-22.194s9.938-22.194 22.194-22.194h177.503c12.256 0 22.194 9.938 22.194 22.194s-9.938 22.194-22.194 22.194zM505.944 314.873h88.752c12.256 0 22.194 9.938 22.194 22.194s-9.938 22.194-22.194 22.194h-88.752c-12.256 0-22.194-9.938-22.194-22.194s9.938-22.194 22.194-22.194zM683.423 270.509h-177.503c-12.256 0-22.194-9.938-22.194-22.194s9.938-22.194 22.194-22.194h177.503c12.256 0 22.194 9.938 22.194 22.194s-9.938 22.194-22.194 22.194zM594.672 181.757h-88.752c-12.256 0-22.194-9.938-22.194-22.194s9.938-22.194 22.194-22.194h88.752c12.256 0 22.194 9.938 22.194 22.194s-9.938 22.194-22.194 22.194z" />
<glyph unicode="&#xe90c;" glyph-name="thumbs" horiz-adv-x="967" d="M838.733 348.175c0 27.354-14.453 52.033-36.671 65.913 9.078 12.71 14.477 28.238 14.477 45.033 0 42.811-34.832 77.643-77.643 77.643h-246.593c23.508 72.936 35.548 148.74 35.811 225.427 0.143 43.504-31.296 79.888-73.151 84.643-43.122 4.921-83.066-24.655-90.83-67.346l-1.672-9.174c-16.484-90.687-54.923-177.193-111.113-250.225-24.416-31.702-61.015-49.906-100.41-49.906-12.256 0-22.194-9.938-22.194-22.194v-288.425c0.119-5.781 2.389-11.587 6.498-15.696 61.421-61.421 143.078-95.25 229.942-95.25h326.983c42.835 0 78.694 33.781 79.96 75.278 0.454 15.433-3.584 30.245-11.491 43.050 26.422 12.399 44.818 39.18 44.818 70.261 0 14.907-4.3 28.788-11.611 40.637 26.47 12.399 44.889 39.227 44.889 70.332zM605.78 492.376h133.115c18.348 0 33.279-14.931 33.279-33.279s-14.931-33.279-33.279-33.279h-133.115c-18.348 0-33.279 14.931-33.279 33.279s14.931 33.279 33.279 33.279zM557.905 93.006h-192.697c-72.005 0-139.829 26.996-192.076 76.066v258.18c44.651 5.805 85.12 29.074 113.382 65.769 60.49 78.598 101.867 171.746 119.618 269.361l1.672 9.174c3.584 19.757 22.051 33.422 42.166 31.177 19.016-2.174 33.852-19.924 33.781-40.398-0.263-74.465-12.327-148.023-35.883-218.642l-7.358-22.098c-2.246-6.761-1.123-14.215 3.058-19.996s10.846-9.222 17.989-9.222h74.155c-4.826-10.105-7.597-21.358-7.597-33.279 0-21.716 8.983-41.354 23.412-55.473-14.43-14.119-23.412-33.757-23.412-55.473s8.983-41.354 23.412-55.473c-14.43-14.119-23.412-33.757-23.412-55.473 0-27.784 14.716-52.152 36.719-65.865-9.126-12.733-14.549-28.262-14.549-45.057 0.024-11.897 2.795-23.173 7.621-33.279zM692.191 93.006h-64.217c-18.348 0-33.279 14.931-33.279 33.279s14.931 33.279 33.279 33.279h66.558c9.078 0 17.559-3.584 23.89-10.105s9.652-15.122 9.389-24.225c-0.549-17.75-16.532-32.228-35.62-32.228zM727.811 203.951h-122.030c-18.348 0-33.279 14.931-33.279 33.279s14.931 33.279 33.279 33.279h122.030c18.348 0 33.279-14.931 33.279-33.279s-14.931-33.279-33.279-33.279zM761.090 314.873h-155.309c-18.348 0-33.279 14.931-33.279 33.279s14.931 33.279 33.279 33.279h155.309c2.246 0 4.515-0.215 6.689-0.669 15.409-3.13 26.59-16.842 26.59-32.61 0-18.348-14.931-33.279-33.279-33.279z" />
<glyph unicode="&#xe90d;" glyph-name="lightning" horiz-adv-x="967" d="M748.070 523.6c-3.56 8.003-11.515 13.163-20.259 13.163h-177.145l119.88 279.681c2.938 6.856 2.246 14.74-1.863 20.952-4.109 6.235-11.061 9.986-18.515 9.986h-288.449c-9.986 0-18.754-6.665-21.382-16.293l-122.030-443.758c-1.84-6.665-0.454-13.832 3.751-19.327 4.181-5.495 10.727-8.744 17.655-8.744h158.152l-90.519-281.64c-3.201-9.962 0.979-20.808 10.058-26.016 3.464-2.007 7.263-2.962 11.037-2.962 6.116 0 12.16 2.532 16.508 7.358l399.37 443.734c5.829 6.498 7.31 15.863 3.751 23.866zM381.262 162.693l68.134 211.953c2.174 6.761 0.979 14.119-3.177 19.853-4.181 5.734-10.846 9.126-17.941 9.126h-159.49l109.823 399.37h237.873l-119.88-279.681c-2.938-6.856-2.246-14.74 1.863-20.952 4.109-6.235 11.061-9.986 18.515-9.986h160.971l-296.691-329.683z" />
<glyph unicode="&#xe90e;" glyph-name="trash" horiz-adv-x="967" d="M794.369 758.631h-199.673v66.558c0 12.256-9.938 22.194-22.194 22.194h-177.503c-12.256 0-22.194-9.938-22.194-22.194v-66.558h-199.673c-12.256 0-22.194-9.938-22.194-22.194v-88.752c0-12.256 9.938-22.194 22.194-22.194h22.194v-554.68c0-12.256 9.938-22.194 22.194-22.194h532.486c12.256 0 22.194 9.938 22.194 22.194v554.68h22.194c12.256 0 22.194 9.938 22.194 22.194v88.752c-0.024 12.256-9.962 22.194-22.218 22.194zM417.192 802.994h133.115v-44.364h-133.115v44.364zM727.811 93.006h-488.122v532.486h488.122v-532.486zM772.175 669.879h-576.85v44.364h576.85v-44.364zM483.75 137.393c12.256 0 22.194 9.938 22.194 22.194v399.346c0 12.256-9.938 22.194-22.194 22.194s-22.194-9.938-22.194-22.194v-399.37c0-12.256 9.938-22.17 22.194-22.17zM350.635 137.393c12.256 0 22.194 9.938 22.194 22.194v399.346c0 12.256-9.938 22.194-22.194 22.194s-22.194-9.938-22.194-22.194v-399.37c0-12.256 9.938-22.17 22.194-22.17zM616.865 137.393c12.256 0 22.194 9.938 22.194 22.194v399.346c0 12.256-9.938 22.194-22.194 22.194s-22.194-9.938-22.194-22.194v-399.37c0-12.256 9.938-22.17 22.194-22.17z" />
<glyph unicode="&#xe90f;" glyph-name="patch" horiz-adv-x="967" d="M459.048 570.855c-6.665-6.665-11.085-15.529-11.085-24.416 0-8.863 4.444-17.75 11.085-24.416 6.665-6.665 15.529-11.085 24.416-11.085 8.863 0 17.75 4.444 24.416 11.085 6.665 6.665 11.085 15.529 11.085 24.416s-4.444 17.75-11.085 24.416c-13.331 13.331-35.525 13.331-48.831 0zM556.662 473.24c-13.307-13.307-13.307-35.501 0-48.807 6.665-6.665 15.529-11.085 24.416-11.085s17.75 4.444 24.416 11.085 11.085 15.529 11.085 24.416c0 8.863-4.444 17.75-11.085 24.416-13.331 13.283-35.501 13.283-48.831-0.024zM361.433 473.24c-13.307-13.307-13.307-35.501 0-48.807 6.665-6.665 15.529-11.085 24.416-11.085s17.75 4.444 24.416 11.085 11.085 15.529 11.085 24.416c0 8.863-4.444 17.75-11.085 24.416-13.331 13.283-35.525 13.283-48.831-0.024zM459.048 375.625c-13.307-13.307-13.307-35.501 0-48.807 6.665-6.665 15.529-11.085 24.416-11.085 8.863 0 17.75 4.444 24.416 11.085 13.307 13.307 13.307 35.501 0 48.807-13.331 13.307-35.525 13.307-48.831 0zM838.446 362.294l-86.53 86.53 86.53 86.53c33.279 33.279 33.279 88.752 0 122.030l-122.030 122.030h-173.060l-59.916-62.114-86.53 86.53c-33.279 33.279-88.752 33.279-122.030 0l-146.422-146.446c-33.279-33.279-33.279-88.752 0-122.030l86.53-86.53-86.53-86.53c-15.529-15.529-24.416-37.722-24.416-62.114 0-22.194 8.887-44.364 24.416-62.114l146.422-146.446c17.75-17.75 39.944-24.416 62.114-24.416s44.364 8.887 62.114 24.416l86.53 86.53 86.53-86.53c17.75-17.75 39.944-24.416 62.114-24.416s44.364 8.887 62.114 24.416l146.446 146.446c28.883 37.722 28.883 90.949-4.396 124.228zM667.608 743.914l-22.194-24.416c-6.665-6.665-19.972-6.665-26.637 0l-24.392 24.416h73.223zM372.518 118.257c-19.972-19.972-53.251-19.972-73.223 0l-146.446 146.446c-8.863 8.863-15.529 22.194-15.529 37.722 0 13.307 4.444 26.614 15.529 37.722l86.53 84.308 219.645-219.645-86.506-86.554zM814.030 264.68l-146.422-146.446c-19.972-19.972-53.251-19.972-73.223 0l-441.512 441.536c-8.863 8.863-15.529 22.194-15.529 35.501s4.444 26.637 15.529 35.501l146.446 146.446c19.972 19.972 53.251 19.972 73.223 0l217.424-217.424c6.665-6.665 17.75-6.665 24.416 0s6.665 17.75 0 24.416l-106.502 108.724 42.166 44.364 39.944-39.944c11.085-11.085 24.416-15.529 37.722-15.529s28.835 4.444 37.722 15.529l44.364 39.944 104.28-104.28c19.972-19.972 19.972-53.251 0-73.223l-86.53-86.53-13.307 13.307c-6.665 6.665-17.75 6.665-24.416 0s-6.665-17.75 0-24.416l124.228-124.228c19.948-19.996 19.948-53.275-0.024-73.247zM663.164 539.798c-6.665 6.665-17.75 6.665-24.416 0s-6.665-17.75 0-24.416l13.307-13.307c4.444-4.444 8.887-4.444 13.307-4.444s8.863 2.222 11.085 4.444c6.665 6.665 6.665 17.75 0 24.416l-13.283 13.307z" />
<glyph unicode="&#xe910;" glyph-name="t" horiz-adv-x="967" d="M744.868 653.849h-100.625c-8.457 37.436-17.75 34.163-17.75 51.937 0 22.146 12.542 60.346 20.259 60.346h11.754c35.262 0 63.834 25.467 63.834 65.507s-28.573 65.507-63.834 65.507h-329.874c-35.262 0-63.834-25.443-63.834-65.507 0-40.040 28.596-65.507 63.834-65.507h10.416c5.996 0 16.651-38.2 16.651-60.346 0-17.774-8.194-14.501-15.457-51.937h-99.622c-61.875 0-131.133 4.133-131.133-51.579v-462.344c0-55.712 69.257-141.047 131.133-141.047h504.248c61.875 0 113.167 85.335 113.167 141.047v462.344c0 55.712-51.292 51.579-113.167 51.579zM604.204 414.733h-81.728v-212.789h-65.913v212.789h-81.728v56.5h229.369v-56.5z" />
<glyph unicode="&#xe911;" glyph-name="blank" horiz-adv-x="967" d="M715.125 809.612l-122.676 122.676h-461.699v-968.599h705.999v724.323l-121.624 121.6zM602.125 881.712l185.1-185.1h-185.1v185.1zM808.774-6.162h-646.824v909.399h411.124v-221.7c0-8.6 6.45-15.075 15.075-15.075h221.7v-672.625h-1.075z" />
<glyph unicode="&#xe912;" glyph-name="target" horiz-adv-x="967" d="M875.523 740.522c-3.392 8.17-11.348 13.498-20.187 13.498h-65.578v65.554c0 8.839-5.327 16.819-13.498 20.187-8.194 3.392-17.583 1.505-23.818-4.73l-87.438-87.438c-4.085-4.109-6.403-9.652-6.403-15.457v-78.383l-62.066-62.066c-53.705 46.586-123.703 74.895-200.223 74.895-168.736 0-306.008-137.272-306.008-306.008s137.272-306.008 306.008-306.008 306.008 137.272 306.008 306.008c0 76.52-28.286 146.518-74.871 200.223l62.066 62.066h78.383c5.805 0 11.348 2.317 15.457 6.403l87.438 87.438c6.235 6.235 8.099 15.648 4.73 23.818zM658.601 360.574c0-144.63-117.659-262.289-262.289-262.289s-262.289 117.659-262.289 262.289c0 144.63 117.659 262.289 262.289 262.289 64.455 0 123.536-23.412 169.237-62.138l-30.985-30.985c-37.699 30.866-85.837 49.405-138.252 49.405-120.525 0-218.57-98.045-218.57-218.57s98.045-218.57 218.57-218.57 218.57 98.045 218.57 218.57c0 52.415-18.563 100.553-49.405 138.252l30.985 30.985c38.726-45.702 62.138-104.782 62.138-169.237zM396.312 316.855c24.105 0 43.719 19.614 43.719 43.719 0 3.894-0.669 7.597-1.625 11.181l33.136 33.136c7.693-13.020 12.208-28.143 12.208-44.316 0-48.21-39.227-87.438-87.438-87.438s-87.438 39.227-87.438 87.438c0 48.21 39.227 87.438 87.438 87.438 16.174 0 31.32-4.491 44.316-12.184l-33.136-33.136c-3.584 0.956-7.286 1.625-11.181 1.625-24.105 0-43.719-19.614-43.719-43.719s19.614-43.743 43.719-43.743zM472.187 467.339c-21.453 15.29-47.589 24.368-75.875 24.368-72.315 0-131.156-58.841-131.156-131.156s58.841-131.133 131.156-131.133 131.156 58.841 131.156 131.133c0 28.286-9.078 54.422-24.368 75.875l31.177 31.177c23.030-29.624 36.91-66.701 36.91-107.051 0-96.42-78.431-174.851-174.851-174.851s-174.875 78.455-174.875 174.875c0 96.42 78.431 174.851 174.851 174.851 40.35 0 77.428-13.856 107.051-36.91l-31.177-31.177zM758.844 666.582h-56.524v56.524l43.719 43.719v-34.664c0-12.064 9.795-21.859 21.859-21.859h34.664l-43.719-43.719z" />
<glyph unicode="&#xe913;" glyph-name="crane" horiz-adv-x="967" d="M638.892 420.037c7.693 0 14.358 5.447 15.815 12.972l57.981 338.689c0.143 0.764 0.191 1.625 0.191 2.556 0 4.109-1.553 8.027-4.372 11.013l-105.045 111.041c-2.843 2.867-6.904 4.587-11.228 4.587h-217.017c-4.3 0-8.362-1.72-11.419-4.778l-104.83-110.826c-2.843-3.010-4.372-6.928-4.372-11.061 0-0.908 0.072-1.768 0.215-2.652l58.029-338.833c1.433-7.263 8.075-12.71 15.767-12.71h47.852l36.026-130.010c0.836-2.747 2.508-5.327 4.874-7.382l80.987-73.39c18.563-19.136 18.348-49.237 0.024-67.585-18.061-18.085-49.667-17.965-67.633-0.048l-89.588 89.612c-2.723 2.485-6.618 4.037-10.679 4.037-7.406 0-13.808-5.041-15.624-12.136-5.28-17.225-7.884-34.569-7.884-52.128 0-96.994 78.909-175.879 175.903-175.879 96.97 0 175.879 78.885 175.879 175.879 0 22.839-1.696 46.992-14.047 68.923-2.7 5.686-10.846 16.747-52.964 57.599-11.969 11.634-23.818 22.863-32.395 30.914l-4.969 4.635 33.112 86.96h51.411zM287.947 768.975l94.222 99.622h84.236l-166.944-166.848-11.515 67.227zM306.127 662.831l205.837 205.765h73.319l14.406-15.099-278.534-278.487-15.027 87.82zM342.87 448.299l-15.027 87.82 293.943 293.943 50.002-52.893-328.918-328.871zM673.437 733.259l-21.262-124.109-156.934-156.934h-102.847l281.043 281.043zM614.906 226.981l1.338-2.222c8.505-14.716 10.273-31.463 10.273-53.753 0-79.243-64.455-143.675-143.699-143.675-75.899 0-138.897 59.319-143.412 135.051l-1.601 26.637 70.141-70.237c30.173-29.982 82.922-30.078 113.143 0.119 31.177 31.177 31.177 81.943 0 113.167l-78.981 71.646-32.228 116.321h143.054l-32.849-86.291c-0.478-1.433-0.764-3.177-0.764-4.969 0-4.467 1.887-8.744 5.089-11.754 13.88-13.235 82.827-79.219 90.496-90.042zM540.799 452.24l101.939 101.963-17.44-101.963h-84.499z" />
<glyph unicode="&#xe914;" glyph-name="light" horiz-adv-x="967" d="M667.512 641.474c-50.623 49.715-117.682 76.472-188.636 75.086-136.986-2.485-249.914-111.495-257.057-248.17-4.897-93.53 38.654-180.346 116.488-232.283 17.153-11.443 30.985-26.59 40.852-44.053h-4.706c-12.064 0-21.859-9.795-21.859-21.859v-87.438c0-12.064 9.771-21.859 21.859-21.859h218.57c12.064 0 21.859 9.795 21.859 21.859v87.438c0 12.064-9.771 21.859-21.859 21.859h-4.061c10.273 17.75 24.702 33.446 42.548 45.654 71.694 48.951 114.505 129.938 114.505 216.635 0.024 70.954-27.856 137.416-78.503 187.131zM571.188 104.616h-174.875v43.719h174.875v-43.719zM606.879 273.782c-30.388-20.737-53.251-49.333-66.462-81.752h-112.809c-12.877 32.371-35.238 60.561-65.005 80.438-64.862 43.289-101.174 115.676-97.089 193.629 5.973 113.86 100.052 204.69 214.198 206.769 59.247 1.027 115.007-21.143 157.197-62.568 42.214-41.449 65.435-96.826 65.435-155.978-0.024-72.22-35.692-139.709-95.465-180.537zM377.774 765.344c2.604-9.771 11.443-16.197 21.095-16.197 1.863 0 3.775 0.239 5.662 0.741 11.658 3.13 18.586 15.099 15.457 26.781l-11.324 42.238c-3.13 11.682-15.146 18.586-26.757 15.457-11.658-3.13-18.563-15.122-15.433-26.781l11.3-42.238zM236.464 670.715c4.276-4.276 9.867-6.403 15.457-6.403s11.181 2.126 15.457 6.403c8.553 8.529 8.553 22.385 0 30.914l-30.914 30.89c-8.529 8.529-22.385 8.529-30.914 0-8.553-8.529-8.553-22.385 0-30.914l30.914-30.89zM731.036 237.947c-8.529 8.553-22.385 8.553-30.914 0-8.553-8.529-8.553-22.385 0-30.914l30.914-30.914c4.276-4.276 9.867-6.403 15.457-6.403s11.181 2.126 15.457 6.403c8.553 8.529 8.553 22.385 0 30.914l-30.914 30.914zM236.464 237.947l-30.914-30.914c-8.553-8.529-8.553-22.385 0-30.914 4.276-4.276 9.867-6.403 15.457-6.403s11.181 2.126 15.457 6.403l30.914 30.914c8.553 8.529 8.553 22.385 0 30.914-8.529 8.553-22.385 8.553-30.914 0zM731.036 732.519l-30.914-30.914c-8.553-8.529-8.553-22.385 0-30.914 4.276-4.276 9.867-6.403 15.457-6.403s11.181 2.126 15.457 6.403l30.914 30.914c8.553 8.529 8.553 22.361 0 30.914-8.529 8.553-22.385 8.553-30.914 0zM562.946 749.911c1.887-0.502 3.799-0.741 5.662-0.741 9.652 0 18.491 6.426 21.095 16.197l11.324 42.238c3.13 11.658-3.799 23.651-15.457 26.781s-23.651-3.799-26.757-15.457l-11.324-42.238c-3.13-11.682 3.799-23.651 15.457-26.781zM848.312 379.28l-42.238 11.324c-11.658 3.13-23.651-3.799-26.781-15.457s3.799-23.651 15.457-26.781l42.238-11.324c1.887-0.502 3.799-0.741 5.662-0.741 9.652 0 18.491 6.426 21.095 16.197 3.153 11.658-3.751 23.651-15.433 26.781zM119.188 529.382l42.238-11.324c1.887-0.502 3.799-0.741 5.662-0.741 9.652 0 18.491 6.426 21.095 16.221 3.13 11.658-3.799 23.651-15.457 26.781l-42.238 11.324c-11.682 3.13-23.651-3.775-26.781-15.457-3.106-11.682 3.799-23.675 15.481-26.805zM800.413 517.317c1.863 0 3.775 0.239 5.662 0.741l42.238 11.324c11.658 3.13 18.586 15.099 15.457 26.781-3.13 11.658-15.122 18.563-26.757 15.457l-42.238-11.324c-11.658-3.13-18.586-15.099-15.457-26.781 2.628-9.747 11.443-16.197 21.095-16.197zM161.401 390.58l-42.238-11.324c-11.658-3.13-18.586-15.099-15.457-26.781 2.628-9.771 11.443-16.197 21.095-16.197 1.863 0 3.775 0.239 5.662 0.741l42.238 11.324c11.658 3.13 18.586 15.099 15.457 26.781-3.106 11.658-15.122 18.61-26.757 15.457z" />
<glyph unicode="&#xe915;" glyph-name="heart" horiz-adv-x="967" d="M766.8 703.134c-39.777 39.012-92.574 61.206-148.405 61.206-49.715 0-97.161-17.583-134.644-48.951-37.484 31.368-84.905 48.951-134.644 48.951-55.855 0-108.628-21.429-148.405-61.206s-61.206-92.574-61.206-148.405c0-55.855 21.429-108.628 61.206-148.405l269.265-269.289c3.822-3.822 8.409-5.351 13.761-5.351s9.938 1.529 13.761 5.351l269.289 269.289c39.777 39.777 61.206 92.574 61.206 148.405s-21.406 108.628-61.182 148.405zM739.254 433.081l-255.504-255.504-255.504 255.504c-32.897 32.897-50.48 75.732-50.48 121.624s17.583 88.728 50.48 120.86c32.132 32.132 75.732 50.48 120.86 50.48 45.893 0 88.728-17.607 120.86-50.48 7.645-7.645 19.9-7.645 26.781 0 32.132 32.132 75.732 50.48 120.86 50.48 45.893 0 88.728-17.607 120.86-50.48 33.661-32.132 51.244-75.732 51.244-120.86 0.024-45.893-17.559-88.728-50.456-121.624zM254.238 554.729c0 26.016 9.938 48.951 27.545 67.322 7.645 6.88 7.645 19.136 0 26.781s-19.9 7.645-26.781 0c-25.252-25.252-39.012-58.913-39.012-94.103s13.761-68.851 39.012-94.103c3.822-3.822 8.409-5.351 13.761-5.351s9.938 1.529 13.761 5.351c7.645 7.645 7.645 19.9 0 26.781-18.324 17.583-28.286 41.306-28.286 67.322z" />
<glyph unicode="&#xe916;" glyph-name="pen" horiz-adv-x="967" d="M871.438 222.227l-226.454 225.57 224.686 224.686c8.744 8.744 8.744 22.743 0.884 31.487l-131.156 131.156c-8.744 8.744-22.743 8.744-30.603 0l-225.57-225.57-224.686 225.57c-8.744 8.744-22.743 8.744-30.603 0l-131.156-131.156c-8.744-8.744-8.744-22.743 0-30.603l225.594-225.57-160.876-159.132c-0.884-0.884-1.744-2.628-2.628-3.488 0 0 0-0.884-0.884-0.884-0.884-0.884-0.884-1.744-1.744-3.488 0 0 0 0 0-0.884l-65.578-196.711c-2.628-7.86-0.884-16.604 5.256-22.719 4.372-3.488 9.628-6.116 15.744-6.116 2.628 0 4.372 0 7 0.884l196.711 65.578c0 0 0 0 0.884 0s1.744 0.884 3.488 1.744c0 0 0.884 0 0.884 0.884 1.744 0.884 2.628 1.744 3.488 2.628l159.132 159.992 225.57-225.57c4.372-4.372 9.628-6.116 15.744-6.116s11.372 1.744 15.744 6.116l131.133 131.133c8.744 8.72 8.744 22.696 0 30.579zM295.281 535.211l49.835 49.835c8.744 8.744 8.744 22.719 0 30.603-8.744 8.744-22.719 8.744-30.603 0l-49.835-49.835-45.463 45.463 49.835 49.835c8.744 8.744 8.744 22.719 0 30.603-8.744 8.744-22.719 8.744-30.603 0l-49.835-49.835-46.347 46.347 100.553 100.553 209.826-209.826-100.553-100.553-56.811 56.811zM183.356 123.418l-24.487 24.487 27.975 84.81 81.322-81.322-84.81-27.975zM308.397 172.392l-100.553 100.529 515.834 515.834 100.553-100.553-515.834-515.81zM723.678 106.814l-45.463 45.463 49.835 50.719c8.744 8.744 8.744 22.743 0 30.603-8.744 8.744-22.719 8.744-30.603 0l-49.835-49.835-46.347 45.463 49.835 49.835c8.744 8.744 8.744 22.743 0 30.603-8.744 8.744-22.743 8.744-30.603 0l-49.835-49.835-56.834 56.834 100.553 100.553 209.826-209.826-100.529-100.577z" />
<glyph unicode="&#xe917;" glyph-name="shield" horiz-adv-x="967" d="M836.511 834.84c-8.385 3.177-17.822 0.86-23.795-5.829-45.964-51.698-100.052-79.028-156.432-79.028s-110.468 27.33-156.432 79.028c-0.119 0.143-0.263 0.215-0.406 0.358-0.86 0.932-1.816 1.744-2.819 2.508-0.072 0.048-0.119 0.119-0.215 0.167-3.56 2.604-7.932 4.205-12.686 4.205s-9.126-1.577-12.686-4.205c-0.072-0.048-0.119-0.119-0.215-0.167-1.027-0.764-1.959-1.577-2.819-2.508-0.119-0.119-0.287-0.215-0.406-0.358-45.964-51.698-100.052-79.028-156.432-79.028s-110.444 27.306-156.408 79.028c-5.925 6.665-15.361 9.030-23.771 5.829-8.362-3.177-13.904-11.204-13.904-20.163v-174.947c0-246.211 136.795-467.553 357.013-577.686 3.034-1.529 6.355-2.27 9.652-2.27s6.618 0.764 9.652 2.27c220.219 110.109 357.013 331.475 357.013 577.686v174.947c0 8.935-5.542 16.962-13.904 20.163zM462.177 117.421c-130.010 74.633-225.044 192.506-271.009 330.567h271.009v-330.567zM462.177 491.134h-283.599c-12.017 47.804-18.371 97.615-18.371 148.572v124.419c45.821-37.245 98.093-57.312 150.985-57.312 52.917 0 105.14 20.115 150.985 57.36v-273.040zM505.323 117.421v330.567h271.009c-45.964-138.061-141.023-255.934-271.009-330.567zM807.269 639.73c0-50.981-6.331-100.768-18.348-148.572h-283.599v273.040c45.821-37.245 98.069-57.36 150.985-57.36 52.893 0 105.14 20.068 150.985 57.312v-124.419z" />
<glyph unicode="&#xe918;" glyph-name="point" horiz-adv-x="967" d="M483.75 869.313c-148.859 0-269.623-120.764-269.623-269.623 0-1.863 0-3.751 0.932-5.614 0.932-40.255 10.297-79.578 28.095-115.15l220.004-439.099c3.751-7.478 12.184-13.116 20.593-13.116 8.433 0 16.866 4.682 20.593 13.116l220.004 440.031c17.798 35.572 27.139 73.964 28.095 115.15 0 1.863 0.932 3.751 0.932 5.614 0 147.903-120.764 268.692-269.623 268.692zM705.641 599.666c0-35.572-7.478-69.281-22.457-99.239l-199.41-397.889-199.41 397.889c-14.979 30.89-23.412 63.667-22.481 99.239 0 1.863 0 3.751-0.932 5.614 2.819 119.833 102.058 217.209 222.823 217.209s220.004-97.376 222.823-217.209c-0.024-1.863-0.956-3.727-0.956-5.614zM483.75 745.73c-80.51 0-146.040-65.53-146.040-146.064 0-80.51 65.53-146.040 146.040-146.040s146.064 65.53 146.064 146.040c-0.024 80.533-65.554 146.064-146.064 146.064zM483.75 501.358c-54.302 0-99.239 44.937-99.239 99.239s44.006 99.239 99.239 99.239c55.234 0 99.239-44.937 99.239-99.239 0-55.234-44.937-99.239-99.239-99.239z" />
<glyph unicode="&#xe919;" glyph-name="prize" horiz-adv-x="967" d="M136.484 137.537c5.614-7.31 15.075-10.536 24.010-8.147l102.608 27.497 27.497-102.608c2.389-8.911 9.914-15.505 19.064-16.723 1.003-0.119 2.007-0.191 2.986-0.191 8.075 0 15.648 4.3 19.757 11.396l151.344 262.122 151.344-262.122c4.109-7.119 11.682-11.396 19.757-11.396 0.979 0 1.983 0.072 2.986 0.191 9.15 1.195 16.675 7.812 19.064 16.723l27.497 102.608 102.608-27.497c8.935-2.365 18.395 0.836 24.010 8.147s6.283 17.296 1.672 25.3l-141.023 244.228c40.995 47.876 65.865 109.966 65.865 177.814 0 150.961-122.819 273.756-273.756 273.756s-273.78-122.795-273.78-273.756c0-67.824 24.846-129.938 65.865-177.814l-141.023-244.228c-4.611-7.979-3.966-17.965 1.648-25.3zM765.605 187.73l-71.455 19.136c-12.112 3.249-24.678-3.966-27.951-16.126l-19.136-71.455-113.43 196.472c46.681 8.624 89.253 29.074 124.443 58.22l107.529-186.247zM255.624 584.878c0 125.781 102.345 228.126 228.126 228.126s228.126-102.345 228.126-228.126-102.345-228.126-228.126-228.126-228.126 102.345-228.126 228.126zM309.424 373.977c35.19-29.122 77.762-49.572 124.443-58.22l-113.43-196.472-19.16 71.455c-2.747 10.201-11.945 16.914-22.027 16.914-1.959 0-3.942-0.263-5.925-0.764l-71.455-19.136 107.553 186.223zM415.305 562.063c5.829 0 11.682 2.222 16.126 6.689l136.89 136.89c8.911 8.911 8.911 23.341 0 32.252s-23.341 8.911-32.252 0l-136.89-136.89c-8.911-8.911-8.911-23.341 0-32.252 4.444-4.467 10.297-6.689 16.126-6.689zM415.305 425.197c5.829 0 11.682 2.222 16.126 6.689l68.445 68.445c8.911 8.911 8.911 23.341 0 32.252s-23.341 8.911-32.252 0l-68.445-68.445c-8.911-8.911-8.911-23.341 0-32.252 4.444-4.467 10.297-6.689 16.126-6.689z" />
<glyph unicode="&#xe91a;" glyph-name="box" horiz-adv-x="967" d="M483.75 892.606l-385.036-222.297v-444.618l385.036-222.297 385.036 222.297v444.618l-385.036 222.297zM483.75 835.652l311.049-179.606-130.87-75.564-311.049 179.606 130.87 75.564zM459.095 74.586l-311.049 179.582v359.187l311.049-179.582v-359.187zM172.701 656.071l130.87 75.564 311.073-179.582-130.87-75.564-311.073 179.582zM819.477 254.192l-311.073-179.606v359.187l130.87 75.564v-70.165l49.333 28.477v70.165l130.87 75.564v-359.187z" />
<glyph unicode="&#xe91b;" glyph-name="money" horiz-adv-x="967" d="M855.312 579.145h-21.859v153.016c0 36.17-29.409 65.578-65.578 65.578h-611.992c-36.17 0-65.578-29.409-65.578-65.578v-568.297c0-36.17 29.409-65.578 65.578-65.578h612.016c36.17 0 65.578 29.409 65.578 65.578v152.992h21.859c12.064 0 21.859 9.795 21.859 21.859v218.57c-0.024 12.088-9.795 21.859-21.883 21.859zM789.758 163.863c0-12.041-9.819-21.859-21.859-21.859h-612.016c-12.041 0-21.859 9.819-21.859 21.859v568.297c0 12.041 9.819 21.859 21.859 21.859h612.016c12.041 0 21.859-9.819 21.859-21.859v-152.992h-152.992c-72.315 0-131.156-58.841-131.156-131.156s58.841-131.156 131.156-131.156h152.992v-152.992zM833.453 360.574h-196.711c-48.21 0-87.438 39.227-87.438 87.438s39.227 87.438 87.438 87.438h196.711v-174.875zM680.461 448.012c0-24.145-19.574-43.719-43.719-43.719s-43.719 19.574-43.719 43.719c0 24.145 19.574 43.719 43.719 43.719s43.719-19.574 43.719-43.719zM724.18 688.442c0 12.064-9.795 21.859-21.859 21.859h-502.719c-12.064 0-21.859-9.771-21.859-21.859v-459c0-12.064 9.795-21.859 21.859-21.859s21.859 9.795 21.859 21.859v437.14h480.859c12.064 0 21.859 9.771 21.859 21.859z" />
</font>
</defs>
</svg>
