<?xml version="1.0" encoding="utf-8"?>
<!-- Generator: Adobe Illustrator 18.1.1, SVG Export Plug-In . SVG Version: 6.00 Build 0)  -->
<svg version="1.1" id="Слой_1" xmlns="http://www.w3.org/2000/svg" xmlns:xlink="http://www.w3.org/1999/xlink" x="0px" y="0px"
	 viewBox="0 0 800 800" enable-background="new 0 0 800 800" xml:space="preserve">
<path fill="#DE3E58" d="M800,314.7c0-26.7-21.1-48.2-47.5-49.4c0-0.1,0-0.2,0.1-0.3H523.7L446.9,34.7c0,0-0.1,0-0.1,0
	C440.5,14.7,421.9,0,399.7,0c-23.5,0-43.1,16.4-48.2,38.3c-0.1,0-0.1,0-0.2,0L275.8,265H50.7c-0.4,0-0.7-0.1-1.1-0.1
	C22.2,264.9,0,287.1,0,314.5c0,15.1,6.9,28.4,17.5,37.5c-0.1,0.1-0.1,0.2-0.2,0.2l192.6,148.1l-71.7,229.5
	c-2.9,6.3-4.7,13.3-4.7,20.7c0,27.4,22.2,49.6,49.6,49.6c11.2,0,21.5-3.9,29.8-10.2c0.1,0.1,0.2,0.1,0.3,0.2l187-143.3l180.3,138.5
	c9,9.1,21.5,14.7,35.3,14.7c27.4,0,49.6-22.2,49.6-49.6c0-6-1.2-11.6-3.2-17c0.1,0,0.2-0.1,0.4-0.1l-72.6-232.1l189.7-146.7
	c0,0,0,0-0.1,0C791.9,345.5,800,331.1,800,314.7z"/>
</svg>
