<?xml version="1.0" encoding="utf-8"?>
<!-- Generator: Adobe Illustrator 18.1.1, SVG Export Plug-In . SVG Version: 6.00 Build 0)  -->
<svg version="1.1" id="Слой_1" xmlns="http://www.w3.org/2000/svg" xmlns:xlink="http://www.w3.org/1999/xlink" x="0px" y="0px"
	 viewBox="0 0 39.875 38" style="enable-background:new 0 0 39.875 38;" xml:space="preserve">
<path d="M38,8.101h-8.013c0.363,0,0.575-1.235,0.575-2.009c0-2.344-1.907-4.192-4.25-4.192c-2.448,0-4.988,1.785-6.375,4.04
	c-1.387-2.255-3.927-3.996-6.375-3.996c-2.344,0-4.25,1.798-4.25,4.142c0,0.774,0.212,2.016,0.575,2.016H1.874
	c-0.587,0-0.937,0.707-0.937,1.294v6.375c0,0.587,0.35,1.331,0.937,1.331h1.063v17.795c0,0.587,0.475,1.205,1.062,1.205h31.876
	c0.587,0,1.063-0.618,1.063-1.205V17.101H38c0.587,0,0.938-0.744,0.938-1.331V9.395C38.938,8.808,38.587,8.101,38,8.101z
	 M13.562,3.909c2.085,0,4.492,2.192,5.14,4.192h-5.14c-1.172,0-2.125-0.837-2.125-2.009S12.39,3.909,13.562,3.909z M18.938,34.101
	h-14v-17h14V34.101z M18.938,15.101h-16v-5h16V15.101z M26.312,3.966c1.172,0,2.125,0.895,2.125,2.067s-0.953,2.067-2.125,2.067
	h-5.14C21.821,6.101,24.228,3.966,26.312,3.966z M34.938,34.101h-14v-17h14V34.101z M36.938,15.101h-16v-5h16V15.101z"/>
</svg>
