<?xml version="1.0" encoding="utf-8"?>
<!-- Generator: Adobe Illustrator 18.1.1, SVG Export Plug-In . SVG Version: 6.00 Build 0)  -->
<svg version="1.1" id="Слой_1" xmlns="http://www.w3.org/2000/svg" xmlns:xlink="http://www.w3.org/1999/xlink" x="0px" y="0px"
	 viewBox="0 0 22.063 38" style="enable-background:new 0 0 22.063 38;" xml:space="preserve">
<path d="M20.266,9.447h-9.235H1.797c-0.176,0-0.318,0.142-0.318,0.318v18.469c0,0.176,0.142,0.318,0.318,0.318h9.235
	c0.176,0,0.318-0.142,0.318-0.318v-3.821h7.642c0.893,0,1.592-0.979,1.592-2.229V9.765C20.584,9.589,20.442,9.447,20.266,9.447z
	 M10.713,27.916H2.115V10.084h8.598v9.871H9.758c-0.893,0-1.592,0.979-1.592,2.229c0,1.25,0.699,2.229,1.592,2.229h0.955V27.916z
	 M11.031,23.776H9.758c-0.518,0-0.955-0.729-0.955-1.592c0-0.863,0.438-1.592,0.955-1.592h1.274h6.836
	c-0.001,0.001-0.002,0.003-0.003,0.004c-0.024,0.033-0.046,0.069-0.068,0.104c-0.011,0.018-0.023,0.035-0.034,0.053
	c-0.024,0.04-0.046,0.083-0.067,0.126c-0.008,0.015-0.016,0.03-0.024,0.045c-0.022,0.045-0.041,0.092-0.06,0.139
	c-0.006,0.015-0.013,0.03-0.019,0.045c-0.018,0.048-0.034,0.097-0.05,0.147c-0.005,0.017-0.012,0.032-0.017,0.049
	c-0.014,0.048-0.026,0.097-0.038,0.147c-0.005,0.02-0.011,0.04-0.015,0.06c-0.011,0.05-0.019,0.101-0.028,0.152
	c-0.004,0.021-0.008,0.042-0.011,0.064c-0.008,0.054-0.013,0.109-0.018,0.165c-0.002,0.02-0.005,0.04-0.006,0.06
	c-0.005,0.076-0.008,0.154-0.008,0.232s0.003,0.156,0.008,0.232c0.001,0.02,0.005,0.04,0.006,0.06
	c0.005,0.055,0.01,0.111,0.018,0.165c0.003,0.022,0.008,0.042,0.011,0.064c0.008,0.051,0.017,0.103,0.028,0.152
	c0.004,0.021,0.011,0.04,0.015,0.06c0.012,0.049,0.024,0.099,0.038,0.147c0.005,0.017,0.011,0.032,0.017,0.049
	c0.016,0.05,0.032,0.1,0.05,0.147c0.006,0.016,0.013,0.03,0.019,0.045c0.019,0.047,0.039,0.094,0.06,0.139
	c0.007,0.015,0.016,0.03,0.024,0.045c0.022,0.043,0.044,0.086,0.068,0.126c0.011,0.018,0.023,0.034,0.034,0.052
	c0.022,0.036,0.045,0.072,0.069,0.105c0.001,0.001,0.002,0.003,0.003,0.004H11.031z M18.992,23.776
	c-0.518,0-0.955-0.729-0.955-1.592c0-0.863,0.437-1.592,0.955-1.592c0.518,0,0.955,0.729,0.955,1.592
	C19.947,23.047,19.51,23.776,18.992,23.776z M19.744,20.212c-0.008-0.006-0.017-0.011-0.026-0.017
	c-0.061-0.043-0.124-0.079-0.189-0.111c-0.012-0.006-0.024-0.013-0.036-0.018c-0.07-0.032-0.143-0.056-0.217-0.074
	c-0.016-0.004-0.031-0.007-0.047-0.01c-0.077-0.016-0.156-0.026-0.237-0.026H11.35v-9.871h8.598v10.305
	c-0.006-0.006-0.013-0.011-0.019-0.017C19.87,20.314,19.809,20.259,19.744,20.212z"/>
</svg>
