<?xml version="1.0" encoding="utf-8"?>
<!-- Generator: Adobe Illustrator 18.1.1, SVG Export Plug-In . SVG Version: 6.00 Build 0)  -->
<svg version="1.1" id="Слой_1" xmlns="http://www.w3.org/2000/svg" xmlns:xlink="http://www.w3.org/1999/xlink" x="0px" y="0px"
	 viewBox="0 0 17.75 38" style="enable-background:new 0 0 17.75 38;" xml:space="preserve">
<g>
	<path d="M8.874,24.384c1.673,0,3.034-1.363,3.034-3.039c0-1.683-1.361-3.051-3.034-3.051S5.84,19.662,5.84,21.345
		C5.84,23.021,7.201,24.384,8.874,24.384z M8.874,19.601c0.946,0,1.716,0.782,1.716,1.744c0,0.955-0.77,1.731-1.716,1.731
		S7.158,22.3,7.158,21.345C7.158,20.383,7.928,19.601,8.874,19.601z"/>
	<path d="M16.367,23.61l-0.999-3.457c-0.084-0.311-0.236-0.591-0.442-0.829c0.247-0.045,0.473-0.161,0.652-0.343
		c0.276-0.292,0.433-0.702,0.466-1.228c0.102-2.168-1.548-4.615-4.905-5.102c-0.382-0.047-0.942-0.092-1.488-0.115
		c-0.183-0.022-0.363-0.036-0.536-0.037l-0.009,0.281L9.098,12.5H8.639c-0.174,0-0.356,0.014-0.541,0.036
		c-0.547,0.022-1.107,0.065-1.499,0.113c-3.317,0.479-5.004,2.986-4.906,5.111c0.034,0.535,0.193,0.938,0.486,1.23
		c0.18,0.18,0.41,0.297,0.664,0.338c-0.218,0.247-0.383,0.537-0.473,0.855l-0.987,3.537c-0.188,0.622-0.001,0.997,0.229,1.31
		C1.958,25.5,2.514,25.5,2.92,25.5h11.858c0.389,0,0.975,0,1.357-0.49C16.444,24.592,16.522,24.118,16.367,23.61z M8.819,13.5
		l0.329,0.021c0.136,0.002,0.276,0.007,0.418,0.013c0.299,0.038,0.6,0.102,0.865,0.156c0.202,0.042,0.386,0.08,0.54,0.104
		c2.858,0.412,3.82,2.559,3.755,3.821c-0.008,0.208-0.066,0.37-0.125,0.37c0,0-0.001,0-0.002,0
		c-0.377-0.141-0.728-0.289-1.093-0.443l-0.268-0.108c0.002-0.007,0.005-0.016,0.007-0.023c0.08-0.297,0.14-0.57,0.048-0.922
		c-0.132-0.496-0.39-0.831-0.72-0.945C11.564,14.5,10.207,14.5,9.098,14.5H8.639c-1.197,0-2.555,0.118-3.555,1
		c-0.346,0.315-0.546,0.609-0.624,0.902c-0.114,0.365-0.048,0.711,0.033,1.009c0.003,0.009,0.005,0.017,0.008,0.025l-0.295,0.128
		c-0.354,0.153-0.7,0.305-1.104,0.499c-0.018-0.021-0.084-0.14-0.093-0.37c-0.07-1.384,1.052-3.508,3.772-3.9
		c0.151-0.022,0.336-0.061,0.538-0.103c0.265-0.056,0.563-0.118,0.858-0.156l0.624-0.017L8.819,13.5z M9.098,15.5h0.012
		c0.374,0,0.933,0.035,1.492,0.198C10.091,15.569,9.576,15.5,9.098,15.5z M2.639,24.043l1.001-3.664
		C3.763,19.936,4.283,19.5,4.69,19.5l1.093,0.004l0.471-0.06l0.45-1.925c0.313-0.078,0.787-0.066,1.264-0.043
		C8.191,17.488,8.416,17.5,8.639,17.5h0.471c0.192,0,0.387-0.007,0.581-0.014c0.429-0.014,0.876-0.054,1.352,0.068l0.354,1.552
		l0.085,0.454l1.576-0.061c0.407,0,0.928,0.435,1.05,0.876l1.001,3.62c0.048,0.186,0.018,0.315-0.021,0.368
		c-0.031,0.041-0.122,0.136-0.309,0.136H2.97c-0.146,0-0.249-0.039-0.307-0.116C2.591,24.287,2.618,24.124,2.639,24.043z"/>
</g>
</svg>
