<?xml version="1.0" encoding="utf-8"?>
<!-- Generator: Adobe Illustrator 18.1.1, SVG Export Plug-In . SVG Version: 6.00 Build 0)  -->
<svg version="1.1" id="Слой_1" xmlns="http://www.w3.org/2000/svg" xmlns:xlink="http://www.w3.org/1999/xlink" x="0px" y="0px"
	 viewBox="0 0 34.625 38" style="enable-background:new 0 0 34.625 38;" xml:space="preserve">
<path d="M33.777,23.641c0-1.254-0.663-2.386-1.682-3.023c0.417-0.583,0.664-1.188,0.664-1.958c0-1.964-1.598-3.455-3.562-3.455
	H17.886c1.078-4,1.631-6.929,1.643-10.447c0.007-1.996-1.436-3.718-3.355-3.936c-1.978-0.226-3.811,1.104-4.167,3.062L11.931,4.29
	c-0.756,4.16-2.519,8.122-5.097,11.471c-1.12,1.454-2.98,2.286-4.787,2.286c-0.562,0-1.199,0.452-1.199,1.014v13.23
	c0,0.265,0.29,0.443,0.479,0.632c2.817,2.817,6.744,4.281,10.729,4.281h14.999c1.965,0,3.61-1.461,3.667-3.365
	c0.021-0.708-0.164-1.344-0.527-1.93c1.212-0.569,2.055-1.776,2.055-3.201c0-0.684-0.197-1.31-0.532-1.853
	C32.932,26.286,33.777,25.067,33.777,23.641z M23.091,17.204h6.106c0.841,0,1.527,0.658,1.527,1.5s-0.685,1.5-1.527,1.5h-6.106
	c-0.841,0-1.527-0.658-1.527-1.5S22.249,17.204,23.091,17.204z M20.895,35.204h-8.839c-3.303,0-6.208-1.098-9.208-3.349V20.013
	c2-0.266,4.103-1.333,5.4-3.017c2.775-3.605,4.771-7.878,5.586-12.356l0.126-0.42c0.164-0.907,1.036-1.534,1.959-1.43
	c0.872,0.099,1.565,0.914,1.562,1.853c-0.012,3.415-0.56,6.79-1.639,10.029l-0.335,1.014c-0.103,0.31-0.05,0.741,0.142,1.006
	c0.191,0.265,0.499,0.513,0.827,0.513h3.402c-0.221,0-0.348,0.891-0.348,1.437c0,0.996,0.412,1.852,1.074,2.5
	c-0.661,0.647-1.074,1.526-1.074,2.522s0.412,1.886,1.074,2.533c-0.661,0.647-1.074,1.543-1.074,2.539
	c0,1.275,0.675,2.389,1.685,3.019c-0.418,0.584-0.667,1.225-0.667,1.996C20.547,34.296,20.674,35.204,20.895,35.204z M27.055,35.204
	h-2.946c-0.841,0-1.527-0.658-1.527-1.5s0.685-1.5,1.527-1.5h3.053c0.416,0,0.806,0.208,1.095,0.507
	c0.29,0.299,0.443,0.645,0.43,1.063C28.663,34.589,27.931,35.204,27.055,35.204z M28.688,30.204h-5.597
	c-0.841,0-1.527-0.658-1.527-1.5s0.685-1.5,1.527-1.5h5.597c0.841,0,1.527,0.658,1.527,1.5S29.53,30.204,28.688,30.204z
	 M30.215,25.204h-7.124c-0.841,0-1.527-0.658-1.527-1.5s0.685-1.5,1.527-1.5h7.124c0.103,0,0.207-0.035,0.307-0.015
	c0.707,0.144,1.22,0.769,1.22,1.492C31.741,24.524,31.056,25.204,30.215,25.204z"/>
</svg>
