<?xml version="1.0" encoding="utf-8"?>
<!-- Generator: Adobe Illustrator 18.1.1, SVG Export Plug-In . SVG Version: 6.00 Build 0)  -->
<svg version="1.1" id="Слой_1" xmlns="http://www.w3.org/2000/svg" xmlns:xlink="http://www.w3.org/1999/xlink" x="0px" y="0px"
	 viewBox="0 0 29.625 38" style="enable-background:new 0 0 29.625 38;" xml:space="preserve">
<g>
	<path d="M14.903,7.377c-2.754,0-4.995,1.821-4.995,4.06c0,2.277,2.194,4.061,4.995,4.061c2.754,0,4.995-1.821,4.995-4.061
		C19.898,9.199,17.657,7.377,14.903,7.377z M14.903,13.042c-1.382,0-2.595-0.775-2.595-1.66c0-0.899,1.188-1.66,2.595-1.66
		c1.382,0,2.595,0.775,2.595,1.66S16.285,13.042,14.903,13.042z"/>
	<path d="M28.146,9.801c-0.988-5.06-6.73-8.874-13.357-8.874c-7.431,0-13.477,4.69-13.477,10.455v15.235
		c0,5.765,6.056,10.455,13.5,10.455c7.444,0,13.5-4.69,13.5-10.455V11.437C28.313,10.83,28.259,10.306,28.146,9.801z M14.813,34.478
		c-5.888,0-10.5-3.429-10.5-7.805v-8.951c2.361,2.569,6.313,4.171,10.5,4.171c4.281,0,8.16-1.561,10.5-4.15v8.875
		C25.313,30.952,20.603,34.478,14.813,34.478z M25.624,11.382c0,4.304-4.81,7.806-10.721,7.806s-10.72-3.502-10.72-7.812
		C4.164,9.746,4.85,8.178,6.169,6.843c2.021-2.045,5.286-3.267,8.734-3.267C20.814,3.577,25.624,7.079,25.624,11.382z"/>
</g>
</svg>
