<?xml version="1.0" encoding="utf-8"?>
<!-- Generator: Adobe Illustrator 18.1.1, SVG Export Plug-In . SVG Version: 6.00 Build 0)  -->
<svg version="1.1" id="Слой_1" xmlns="http://www.w3.org/2000/svg" xmlns:xlink="http://www.w3.org/1999/xlink" x="0px" y="0px"
	 viewBox="0 0 37.375 38" style="enable-background:new 0 0 37.375 38;" xml:space="preserve">
<g>
	<path d="M36.016,15h-3.647c-0.279-1-0.654-1.952-1.12-2.812l2.578-2.632c0.398-0.398,0.398-1.068,0-1.466l-4.318-4.331
		c-0.398-0.398-1.042-0.404-1.439-0.007l-2.628,2.575c-0.861-0.466-1.755-0.844-2.755-1.123V1.556C22.688,0.994,22.33,1,21.768,1
		h-6.106c-0.562,0-0.974-0.006-0.974,0.556v3.647c-1,0.279-1.867,0.654-2.727,1.12L9.37,3.745c-0.398-0.398-1.047-0.398-1.445,0
		L3.605,8.063C3.207,8.46,3.206,9.104,3.604,9.502l2.578,2.686C5.715,13.048,5.34,14,5.061,15H1.413
		c-0.562,0-0.726,0.242-0.726,0.804v6.106c0,0.562,0.164,1.09,0.726,1.09h3.647c0.279,1,0.654,1.809,1.12,2.669L3.602,28.23
		c-0.398,0.398-0.398,1.033,0,1.43l4.318,4.313c0.398,0.398,1.042,0.395,1.439-0.002l2.601-2.58
		c0.861,0.466,1.728,0.839,2.728,1.119v3.647c0,0.562,0.411,0.842,0.973,0.842h6.106c0.562,0,0.92-0.28,0.92-0.842V32.51
		c1-0.279,1.894-0.654,2.754-1.12l2.603,2.578c0.398,0.398,1.054,0.398,1.451,0l4.324-4.318c0.398-0.398,0.401-1.042,0.003-1.439
		l-2.577-2.543C31.712,24.809,32.088,24,32.367,23h3.647c0.562,0,0.673-0.528,0.673-1.09v-6.106C36.688,15.242,36.578,15,36.016,15z
		 M34.688,21h-3.101c-0.472,0-0.882,0.271-0.99,0.73c-0.301,1.273-0.801,2.454-1.486,3.562c-0.248,0.401-0.188,0.908,0.146,1.241
		l2.412,2.405l-2.878,2.875l-2.412-2.413c-0.333-0.333-0.853-0.395-1.255-0.147c-1.109,0.685-2.347,1.185-3.62,1.485
		c-0.459,0.109-0.815,0.518-0.815,0.99V35h-4v-3.271c0-0.472-0.329-0.882-0.788-0.99c-1.273-0.301-2.483-0.801-3.591-1.486
		c-0.402-0.249-0.922-0.188-1.256,0.146L8.64,31.81l-2.879-2.878l2.411-2.412c0.334-0.333,0.394-0.853,0.146-1.255
		c-0.685-1.109-1.185-2.263-1.486-3.536C6.724,21.271,6.314,21,5.842,21H2.688v-4h3.155c0.472,0,0.882-0.414,0.99-0.873
		c0.301-1.273,0.801-2.525,1.486-3.634c0.248-0.401,0.188-0.944-0.146-1.277L5.761,8.793L8.64,5.909l2.412,2.409
		c0.334,0.334,0.853,0.393,1.255,0.145c1.109-0.686,2.32-1.186,3.593-1.487c0.459-0.109,0.788-0.519,0.788-0.991V3h4v2.985
		c0,0.472,0.356,0.882,0.815,0.99c1.273,0.301,2.496,0.801,3.605,1.486c0.401,0.248,0.929,0.187,1.262-0.146l2.416-2.412l2.88,2.878
		l-2.411,2.412c-0.334,0.333-0.394,0.853-0.146,1.255c0.686,1.109,1.185,2.405,1.486,3.678C30.704,16.586,31.115,17,31.586,17h3.101
		V21z"/>
	<path d="M18.714,10.715c-4.489,0-8.142,3.652-8.142,8.142s3.652,8.142,8.142,8.142s8.142-3.652,8.142-8.142
		S23.204,10.715,18.714,10.715z M18.714,24.963c-3.367,0-6.106-2.739-6.106-6.106s2.739-6.106,6.106-6.106
		c3.367,0,6.106,2.739,6.106,6.106S22.081,24.963,18.714,24.963z"/>
</g>
</svg>
