<?xml version="1.0" encoding="utf-8"?>
<!-- Generator: Adobe Illustrator 18.1.1, SVG Export Plug-In . SVG Version: 6.00 Build 0)  -->
<svg version="1.1" id="Слой_1" xmlns="http://www.w3.org/2000/svg" xmlns:xlink="http://www.w3.org/1999/xlink" x="0px" y="0px"
	 viewBox="0 0 1920 1080" enable-background="new 0 0 1920 1080" xml:space="preserve">
<g>
	<path fill="#FFFFFF" d="M1289.642,843.196l-193.974-193.974c45.928-48.998,74.293-114.679,74.293-186.982
		c0-151.029-122.893-273.951-273.979-273.951c-151.029,0-273.951,122.893-273.951,273.951s122.893,273.979,273.951,273.979
		c58.292,0,112.263-18.445,156.714-49.595l196.759,196.759c5.542,5.542,12.818,8.327,20.094,8.327s14.552-2.785,20.094-8.327
		C1300.754,872.271,1300.754,854.308,1289.642,843.196z M678.873,462.24c0-119.709,97.399-217.108,217.108-217.108
		c119.738,0,217.137,97.399,217.137,217.108c0,119.738-97.399,217.137-217.137,217.137
		C776.244,679.348,678.873,581.978,678.873,462.24z"/>
	<path fill="#FFFFFF" d="M1061.079,465.395c0-7.844-6.366-14.211-14.211-14.211H904.764V337.5c0-7.844-6.366-14.211-14.211-14.211
		c-7.844,0-14.211,6.366-14.211,14.211v113.684H762.658c-7.844,0-14.211,6.366-14.211,14.211s6.366,14.211,14.211,14.211h113.684
		v113.684c0,7.844,6.366,14.211,14.211,14.211c7.844,0,14.211-6.366,14.211-14.211V479.605h142.105
		C1054.713,479.605,1061.079,473.239,1061.079,465.395z"/>
</g>
</svg>
