<?xml version="1.0" encoding="utf-8"?>
<!-- Generator: Adobe Illustrator 18.1.1, SVG Export Plug-In . SVG Version: 6.00 Build 0)  -->
<svg version="1.1" id="Слой_1" xmlns="http://www.w3.org/2000/svg" xmlns:xlink="http://www.w3.org/1999/xlink" x="0px" y="0px"
	 viewBox="0 0 92.997 93.257" enable-background="new 0 0 92.997 93.257" xml:space="preserve">
<rect x="0" y="0" fill="#1A5691" width="93.257" height="93.257"/>
<g sketch:type="MSPage" opacity="0.49">
	<path sketch:type="MSShapeGroup" fill="#FFFFFF" d="M57.177,14.179c2.02,0.301,6.054,2.134,6.504,6.34
		c0.795,7.427,0.299,14.694,0.299,14.694s1.737-0.234,2.328,1.396c0.592,1.63-0.697,10.336-2.12,11.419
		c-1.423,1.082-2.015,1.095-2.015,1.095s-0.803,6.846-2.643,8.825c-0.771,0.829-1.985,8.561,1.96,12.821s14.435,8.355,20.695,10.93
		c6.26,2.575,8.336,11.56,8.336,11.56H2.736c0,0,2.076-8.984,8.336-11.56c6.26-2.575,16.75-6.67,20.695-10.93
		c3.945-4.26,2.731-11.992,1.96-12.821c-1.84-1.979-2.643-8.825-2.643-8.825s-0.592-0.012-2.015-1.095
		c-1.423-1.082-2.712-9.789-2.12-11.419c0.592-1.63,2.328-1.396,2.328-1.396s0.296-8.675,0.296-9.896
		c0-1.01-1.777-0.821-1.664-1.461c1.678-9.501,11.051-12.171,18.936-12.178C50.265,11.674,55.865,11.677,57.177,14.179z"/>
</g>
</svg>
