<?xml version="1.0" encoding="utf-8"?>
<!-- Generator: Adobe Illustrator 18.1.1, SVG Export Plug-In . SVG Version: 6.00 Build 0)  -->
<svg version="1.1" id="Слой_1" xmlns="http://www.w3.org/2000/svg" xmlns:xlink="http://www.w3.org/1999/xlink" x="0px" y="0px"
	 viewBox="0 0 259.701 41.328" style="enable-background:new 0 0 259.701 41.328;" xml:space="preserve">
<style type="text/css">
	.st0{clip-path:url(#SVGID_2_);}
	.st1{fill-rule:evenodd;clip-rule:evenodd;fill:#1A5691;}
	.st2{clip-path:url(#SVGID_10_);}
</style>
<g>
	<g>
		<defs>
			<path id="SVGID_1_" d="M164.867,28.515c2.669-1.004,3.782-3.229,5.201-5.766C166.791,13.01,162.025,6.01,156.722,0
				c3.307,6.667,3.319,13.57,0.037,20.708L164.867,28.515L164.867,28.515z"/>
		</defs>
		<use xlink:href="#SVGID_1_"  style="overflow:visible;fill-rule:evenodd;clip-rule:evenodd;fill:#BF172B;"/>
		<clipPath id="SVGID_2_">
			<use xlink:href="#SVGID_1_"  style="overflow:visible;"/>
		</clipPath>
		<g class="st0">
			<defs>
				
					<rect id="SVGID_3_" x="149.05" y="7.589" transform="matrix(0.0093 1 -1 0.0093 176.0647 -149.2351)" width="28.589" height="13.29"/>
			</defs>
			<use xlink:href="#SVGID_3_"  style="overflow:visible;fill:#BF172B;"/>
			<clipPath id="SVGID_4_">
				<use xlink:href="#SVGID_3_"  style="overflow:visible;"/>
			</clipPath>
		</g>
	</g>
	<g>
		<defs>
			<path id="SVGID_5_" d="M137.201,22.813c4.171,8.589,13.325,13.099,26.291,7.415l-10.142-10.415
				c10.475-16.806-13.238-25.93-17.393-6.438C135.179,17.033,135.552,19.418,137.201,22.813L137.201,22.813z"/>
		</defs>
		<use xlink:href="#SVGID_5_"  style="overflow:visible;fill-rule:evenodd;clip-rule:evenodd;fill:#1A5691;"/>
		<clipPath id="SVGID_6_">
			<use xlink:href="#SVGID_5_"  style="overflow:visible;"/>
		</clipPath>
	</g>
	<g>
		<defs>
			<path id="SVGID_7_" d="M178.708,37.814l-0.198-21.325c-7.589,16.707-19.346,23.004-36.638,15.485
				C155.984,42.662,168.047,43.58,178.708,37.814L178.708,37.814z"/>
		</defs>
		<use xlink:href="#SVGID_7_"  style="overflow:visible;fill-rule:evenodd;clip-rule:evenodd;fill:#1A5691;"/>
		<clipPath id="SVGID_8_">
			<use xlink:href="#SVGID_7_"  style="overflow:visible;"/>
		</clipPath>
	</g>
	<path class="st1" d="M88.412,20.754c-0.021,0.087-0.048,0.202-0.08,0.353c-0.034,0.151-0.051,0.27-0.05,0.357
		c0.002,0.223,0.09,0.381,0.267,0.469l0.213,0.135c0.246,0.181,0.371,0.41,0.373,0.684c-0.107,0.493-0.507,0.742-1.205,0.748
		l-4.1,0.038c-0.604,0.006-0.909-0.236-0.913-0.729c0.042-0.177,0.109-0.307,0.209-0.394c0.096-0.084,0.25-0.182,0.461-0.299
		l0.261-0.139c0.237-0.106,0.386-0.241,0.442-0.4c0.06-0.155,0.122-0.419,0.191-0.786l2.106-10.336c0-0.014,0.021-0.108,0.062-0.285
		c0.041-0.177,0.058-0.314,0.057-0.414c-0.002-0.238-0.094-0.402-0.278-0.49l-0.199-0.124c-0.149-0.114-0.254-0.206-0.309-0.285
		c-0.058-0.075-0.088-0.212-0.09-0.409c0.1-0.487,0.508-0.732,1.216-0.738l4.111-0.038c0.59-0.005,0.887,0.233,0.892,0.719
		c-0.024,0.169-0.083,0.296-0.173,0.376c-0.092,0.084-0.25,0.189-0.472,0.328l-0.283,0.129c-0.218,0.099-0.358,0.23-0.421,0.393
		c-0.06,0.162-0.126,0.429-0.191,0.804l-1.008,4.952l4.114-2.873c1.975-1.608,3.005-2.6,3.084-2.982
		c-0.001-0.133-0.031-0.233-0.085-0.305c-0.051-0.075-0.135-0.164-0.251-0.264c-0.12-0.104-0.203-0.196-0.262-0.289
		c-0.058-0.089-0.088-0.212-0.089-0.366c0.089-0.444,0.468-0.67,1.145-0.676l2.658-0.025c0.317-0.003,0.59,0.038,0.821,0.118
		c0.228,0.095,0.341,0.331,0.345,0.702c-0.055,0.299-0.337,0.561-0.845,0.788c-0.469,0.216-0.841,0.436-1.12,0.665
		c-0.275,0.226-0.692,0.618-1.248,1.17l-3.398,2.931c1.365,1.786,2.549,4.091,3.553,6.913c0.181,0.545,0.436,0.913,0.769,1.097
		c0.17,0.099,0.282,0.192,0.344,0.284c0.062,0.09,0.092,0.258,0.094,0.503c-0.086,0.421-0.476,0.637-1.163,0.644l-4.122,0.038
		c-0.788,0.007-1.185-0.227-1.19-0.705c0.034-0.184,0.098-0.317,0.194-0.397c0.093-0.084,0.243-0.193,0.45-0.332
		c0.204-0.139,0.318-0.258,0.338-0.356c-0.004-0.428-0.164-1.016-0.48-1.765c-0.316-0.749-0.686-1.49-1.107-2.224
		c-0.421-0.741-0.76-1.277-1.015-1.606l-1.952,1.316L88.412,20.754L88.412,20.754z M10.011,9.958
		c-1.018,0.009-1.665,0.113-1.936,0.313c-0.125,0.091-0.225,0.214-0.295,0.366c-0.074,0.152-0.134,0.325-0.179,0.513
		c-0.049,0.191-0.087,0.346-0.114,0.465l-1.994,9.907c-0.073,0.303-0.11,0.526-0.109,0.667c0.002,0.259,0.083,0.431,0.246,0.512
		l0.214,0.135c0.246,0.181,0.371,0.41,0.373,0.684c-0.107,0.493-0.507,0.742-1.202,0.748l-4.101,0.038
		C0.309,24.311,0.005,24.07,0,23.577c0.041-0.177,0.108-0.307,0.208-0.394c0.096-0.084,0.25-0.182,0.461-0.299l0.251-0.139
		c0.237-0.106,0.386-0.241,0.45-0.4c0.059-0.159,0.125-0.419,0.191-0.786l2.109-10.34c0-0.014,0.021-0.108,0.059-0.285
		c0.041-0.177,0.062-0.313,0.061-0.411c-0.002-0.241-0.097-0.406-0.289-0.494L3.308,9.906C3.16,9.795,3.058,9.699,3,9.624
		C2.942,9.546,2.916,9.409,2.914,9.215c0.1-0.487,0.504-0.732,1.216-0.738l14.467-0.134c0.59-0.005,0.887,0.233,0.892,0.719
		c-0.027,0.177-0.091,0.31-0.191,0.404c-0.103,0.098-0.25,0.197-0.447,0.296L18.568,9.89c-0.215,0.099-0.354,0.23-0.417,0.392
		c-0.063,0.163-0.125,0.433-0.194,0.804l-2.106,10.34c-0.021,0.087-0.048,0.202-0.079,0.353c-0.035,0.151-0.051,0.27-0.051,0.353
		c0.002,0.226,0.09,0.384,0.267,0.472l0.213,0.135c0.246,0.181,0.371,0.41,0.373,0.684c-0.107,0.493-0.507,0.742-1.205,0.748
		l-4.097,0.038c-0.604,0.006-0.909-0.236-0.913-0.729c0.041-0.177,0.109-0.307,0.205-0.394c0.1-0.084,0.254-0.182,0.461-0.299
		l0.265-0.139c0.125-0.062,0.225-0.142,0.303-0.24c0.075-0.094,0.135-0.199,0.173-0.311c0.042-0.112,0.074-0.224,0.094-0.332
		c0.021-0.112,0.038-0.213,0.058-0.303l2.005-9.907c0.097-0.4,0.141-0.688,0.139-0.865c-0.002-0.198-0.053-0.356-0.162-0.474
		c-0.218-0.196-0.837-0.287-1.855-0.278L10.011,9.958L10.011,9.958z M23.35,20.152c-0.123,0.66-0.18,1.092-0.178,1.297
		c0.003,0.328,0.088,0.568,0.258,0.717c0.17,0.149,0.452,0.244,0.841,0.287c0.392,0.043,0.979,0.063,1.767,0.063
		c0.514-0.005,0.935-0.03,1.265-0.076c0.33-0.043,0.664-0.15,1-0.311c0.326-0.151,0.673-0.391,1.037-0.718
		c0.396-0.367,0.703-0.636,0.921-0.8c0.221-0.16,0.451-0.245,0.681-0.247c0.191-0.002,0.342,0.058,0.455,0.176
		c0.124,0.118,0.183,0.293,0.185,0.527c-0.093,0.429-0.382,1.086-0.867,1.976c-0.23,0.444-0.436,0.72-0.618,0.833
		c-0.186,0.109-0.527,0.167-1.016,0.171l-10.557,0.098c-0.604,0.006-0.908-0.236-0.913-0.729c0.034-0.177,0.098-0.307,0.198-0.398
		c0.096-0.087,0.25-0.189,0.461-0.303l0.261-0.128c0.229-0.106,0.379-0.241,0.446-0.403c0.063-0.163,0.126-0.426,0.187-0.793
		l2.116-10.333c0-0.014,0.021-0.112,0.062-0.296c0.041-0.184,0.062-0.317,0.061-0.4c-0.002-0.241-0.101-0.406-0.292-0.494
		l-0.188-0.124c-0.148-0.11-0.254-0.206-0.308-0.282c-0.058-0.079-0.088-0.215-0.09-0.409c0.103-0.487,0.507-0.732,1.216-0.738
		L31.834,8.22c0.619-0.006,0.99,0.074,1.121,0.242c0.055,0.1,0.085,0.291,0.088,0.579c0.005,0.536-0.041,1.025-0.134,1.476
		c-0.127,0.62-0.448,0.932-0.962,0.937c-0.216,0.002-0.378-0.047-0.487-0.143c-0.105-0.1-0.233-0.268-0.383-0.504
		c-0.299-0.454-0.694-0.745-1.181-0.874c-0.476-0.1-1.189-0.147-2.131-0.139c-0.899,0.008-1.503,0.068-1.811,0.175
		c-0.398,0.158-0.63,0.38-0.688,0.661l-0.797,4.025l3.259-0.03c0.435-0.004,0.748-0.054,0.937-0.145
		c0.19-0.092,0.397-0.231,0.622-0.405c0.229-0.178,0.436-0.27,0.627-0.272c0.356-0.003,0.538,0.218,0.542,0.661
		c0.001,0.158-0.032,0.432-0.097,0.828c-0.12,0.584-0.249,1.038-0.379,1.356c-0.13,0.311-0.377,0.468-0.744,0.471
		c-0.191,0.002-0.368-0.076-0.538-0.236c-0.178-0.167-0.337-0.292-0.478-0.37c-0.141-0.081-0.425-0.118-0.846-0.114l-3.27,0.03
		L23.35,20.152L23.35,20.152z M37.426,21.27c-0.013,0.169-0.018,0.403-0.015,0.705c0.03,0.169,0.092,0.287,0.183,0.358
		c0.094,0.06,0.261,0.145,0.51,0.247c0.148,0.071,0.25,0.149,0.308,0.235c0.055,0.089,0.085,0.244,0.087,0.467
		c-0.066,0.292-0.211,0.477-0.43,0.558c-0.222,0.085-0.546,0.127-0.977,0.131l-4.248,0.039c-0.604,0.006-0.908-0.236-0.913-0.729
		c0.041-0.177,0.109-0.307,0.208-0.394c0.097-0.084,0.25-0.182,0.462-0.299l0.25-0.139c0.237-0.106,0.386-0.241,0.45-0.4
		c0.063-0.155,0.126-0.419,0.194-0.786L35.6,10.927c0-0.014,0.021-0.108,0.062-0.285c0.041-0.177,0.062-0.314,0.061-0.414
		c-0.002-0.238-0.101-0.402-0.292-0.49l-0.188-0.124c-0.264-0.188-0.396-0.421-0.398-0.694c0.1-0.487,0.507-0.732,1.216-0.738
		l6.676-0.062c0.813-0.008,1.551,0.04,2.203,0.138c0.656,0.098,1.233,0.291,1.736,0.574c1.052,0.609,1.586,1.496,1.597,2.662
		c0.003,0.309-0.023,0.597-0.075,0.864c-0.131,0.656-0.391,1.263-0.786,1.817c-0.398,0.554-0.875,1.044-1.444,1.463
		c-0.557,0.419-1.169,0.781-1.835,1.082c-0.881,0.4-1.825,0.7-2.827,0.893c-1.005,0.197-2.08,0.329-3.223,0.397L37.426,21.27
		L37.426,21.27z M38.413,16.339c0.83-0.119,1.63-0.321,2.401-0.601c0.771-0.284,1.447-0.69,2.032-1.22
		c0.588-0.534,0.96-1.2,1.122-1.992c0.054-0.368,0.081-0.602,0.08-0.709c-0.006-0.701-0.245-1.242-0.709-1.619
		c-0.464-0.381-1.092-0.565-1.887-0.558c-0.666,0.006-1.146,0.133-1.439,0.384c-0.175,0.142-0.296,0.305-0.366,0.493
		c-0.07,0.188-0.136,0.447-0.205,0.786L38.413,16.339L38.413,16.339z M62.256,9.057c0.198-0.34,0.358-0.583,0.479-0.724
		c0.117-0.149,0.26-0.251,0.429-0.313c0.168-0.063,0.416-0.094,0.747-0.097l4.014-0.037c0.37-0.003,0.56,0.25,0.565,0.765
		c-0.041,0.245-0.14,0.415-0.301,0.51c-0.154,0.098-0.387,0.198-0.703,0.302C67.2,9.54,67.003,9.657,66.9,9.813
		c-0.106,0.155-0.187,0.394-0.249,0.711l-2.126,10.452c-0.013,0.087-0.034,0.202-0.069,0.353c-0.034,0.151-0.051,0.27-0.05,0.357
		c0.002,0.223,0.093,0.381,0.267,0.469l0.214,0.135c0.247,0.188,0.375,0.417,0.377,0.684c-0.111,0.494-0.511,0.742-1.205,0.748
		l-4.101,0.038c-0.604,0.006-0.909-0.236-0.913-0.729c0.042-0.177,0.109-0.31,0.209-0.398c0.096-0.087,0.25-0.186,0.461-0.296
		l0.251-0.139c0.237-0.106,0.39-0.245,0.453-0.414c0.067-0.17,0.129-0.426,0.191-0.772l1.892-9.385l-5.25,8.722
		c-0.277,0.438-0.472,0.728-0.582,0.869c-0.11,0.142-0.264,0.262-0.461,0.364c-0.197,0.092-0.473,0.141-0.829,0.144
		c-0.352,0.003-0.612-0.013-0.777-0.047c-0.166-0.035-0.296-0.113-0.391-0.237c-0.095-0.125-0.183-0.33-0.265-0.609l-1.978-8.878
		l-1.854,9.198c-0.012,0.169-0.018,0.403-0.015,0.705c0.03,0.169,0.089,0.287,0.183,0.358c0.091,0.06,0.26,0.145,0.506,0.247
		c0.148,0.071,0.253,0.149,0.308,0.235c0.058,0.089,0.089,0.243,0.091,0.467c-0.062,0.285-0.226,0.466-0.495,0.555
		c-0.273,0.086-0.646,0.132-1.121,0.136l-1.877,0.017c-0.45,0.004-0.785-0.036-1.001-0.117c-0.213-0.077-0.319-0.256-0.321-0.547
		c0.041-0.202,0.112-0.354,0.219-0.455c0.103-0.098,0.261-0.182,0.469-0.256c0.294-0.114,0.502-0.203,0.62-0.268
		c0.118-0.066,0.229-0.182,0.324-0.352c0.095-0.224,0.19-0.462,0.277-0.707l2.106-10.38c0-0.021,0.003-0.086,0.009-0.191
		c0.006-0.112,0.009-0.201,0.008-0.263c-0.004-0.395-0.229-0.66-0.68-0.796c-0.227-0.066-0.397-0.151-0.51-0.247
		c-0.105-0.093-0.161-0.257-0.163-0.506c0.062-0.31,0.211-0.509,0.448-0.605c0.244-0.085,0.56-0.131,0.948-0.135l4.205-0.039
		c0.32-0.003,0.554,0.056,0.699,0.177c0.145,0.121,0.237,0.26,0.274,0.411c0.038,0.151,0.094,0.46,0.167,0.93l1.453,7.735
		L62.256,9.057L62.256,9.057z M80.782,9.836c-0.595-0.538-1.324-0.801-2.187-0.793c-1.525,0.014-2.907,0.711-4.146,2.085
		c-1.057,1.19-1.77,2.682-2.138,4.469c-0.127,0.602-0.19,1.254-0.183,1.966c0.009,0.971,0.139,1.776,0.393,2.421
		c0.191,0.462,0.465,0.848,0.809,1.155c0.355,0.313,0.764,0.543,1.229,0.69c0.465,0.147,0.973,0.217,1.52,0.212
		c0.669-0.006,1.362-0.164,2.078-0.469c0.717-0.305,1.378-0.721,1.985-1.245c0.125-0.109,0.253-0.218,0.389-0.338
		c0.132-0.116,0.25-0.211,0.354-0.288c0.104-0.073,0.229-0.142,0.372-0.208c0.143-0.066,0.276-0.096,0.395-0.097
		c0.399-0.004,0.603,0.246,0.608,0.753c-0.093,0.454-0.43,0.929-1.009,1.416c-0.582,0.491-1.172,0.896-1.773,1.214
		c-0.698,0.381-1.444,0.668-2.233,0.862c-0.789,0.198-1.566,0.299-2.332,0.306c-1.345,0.012-2.549-0.235-3.615-0.747
		c-1.073-0.494-1.918-1.216-2.531-2.156c-0.613-0.944-0.926-2.035-0.937-3.268c-0.005-0.536,0.054-1.105,0.175-1.711
		c0.248-1.182,0.716-2.298,1.401-3.344c0.688-1.046,1.529-1.96,2.518-2.739c0.993-0.783,2.073-1.397,3.242-1.839
		c1.169-0.443,2.336-0.669,3.494-0.68c0.889-0.008,1.749,0.106,2.593,0.343c0.844,0.24,1.552,0.583,2.136,1.034
		c0.34,0.224,0.526,0.459,0.564,0.711c0.002,0.205-0.034,0.597-0.112,1.174c-0.074,0.576-0.138,0.98-0.194,1.203
		c-0.044,0.256-0.169,0.458-0.361,0.615c-0.196,0.157-0.43,0.238-0.706,0.241c-0.252,0.002-0.422-0.082-0.513-0.254
		c-0.088-0.172-0.195-0.455-0.317-0.846c-0.108-0.442-0.23-0.8-0.359-1.072C81.261,10.338,81.057,10.078,80.782,9.836L80.782,9.836z
		 M105.228,20.599c-0.021,0.087-0.045,0.202-0.08,0.353c-0.034,0.151-0.051,0.27-0.05,0.357c0.002,0.223,0.093,0.381,0.267,0.469
		l0.214,0.135c0.246,0.181,0.371,0.41,0.373,0.684c-0.107,0.493-0.507,0.742-1.202,0.748l-4.101,0.038
		c-0.604,0.006-0.908-0.236-0.913-0.729c0.041-0.177,0.108-0.307,0.208-0.394c0.096-0.084,0.25-0.182,0.461-0.299l0.251-0.139
		c0.237-0.106,0.386-0.241,0.45-0.4c0.059-0.155,0.126-0.419,0.191-0.786l2.109-10.336c0-0.014,0.021-0.108,0.059-0.285
		c0.041-0.177,0.062-0.314,0.061-0.414c-0.002-0.238-0.097-0.402-0.289-0.49l-0.192-0.124c-0.148-0.114-0.25-0.206-0.308-0.285
		c-0.058-0.075-0.085-0.212-0.086-0.409c0.1-0.487,0.504-0.732,1.216-0.738l4.108-0.038c0.59-0.005,0.887,0.233,0.892,0.719
		c-0.027,0.169-0.084,0.296-0.176,0.376c-0.089,0.083-0.243,0.189-0.461,0.328l-0.283,0.129c-0.215,0.099-0.354,0.23-0.417,0.392
		c-0.06,0.162-0.125,0.429-0.191,0.804l-1.473,7.14l7.76-6.554l0.141-0.645c0-0.014,0.017-0.108,0.059-0.285
		c0.042-0.177,0.062-0.314,0.061-0.414c-0.002-0.23-0.097-0.395-0.278-0.49l-0.203-0.124c-0.149-0.114-0.25-0.206-0.309-0.285
		c-0.058-0.075-0.085-0.212-0.086-0.409c0.1-0.487,0.504-0.732,1.213-0.738l4.111-0.038c0.59-0.005,0.887,0.233,0.892,0.719
		c-0.027,0.169-0.084,0.296-0.177,0.376c-0.089,0.083-0.243,0.189-0.461,0.328l-0.283,0.129c-0.215,0.099-0.354,0.23-0.417,0.392
		c-0.063,0.162-0.125,0.429-0.194,0.804l-2.106,10.336c-0.021,0.087-0.048,0.202-0.079,0.353c-0.035,0.151-0.052,0.27-0.051,0.357
		c0.002,0.223,0.09,0.381,0.267,0.469l0.213,0.135c0.246,0.181,0.371,0.41,0.373,0.684c-0.107,0.493-0.507,0.742-1.205,0.748
		l-4.097,0.038c-0.604,0.006-0.909-0.236-0.913-0.729c0.041-0.177,0.109-0.307,0.205-0.39c0.1-0.087,0.254-0.186,0.461-0.303
		l0.265-0.139c0.236-0.106,0.383-0.241,0.442-0.396c0.059-0.159,0.122-0.422,0.187-0.79l1.503-7.421l-7.749,6.551L105.228,20.599
		L105.228,20.599z M123.086,19.228c-0.123,0.66-0.18,1.092-0.178,1.297c0.003,0.328,0.088,0.568,0.258,0.717
		c0.17,0.149,0.452,0.244,0.841,0.287c0.392,0.043,0.979,0.063,1.767,0.063c0.514-0.005,0.935-0.03,1.266-0.076
		c0.33-0.043,0.664-0.15,1-0.311c0.326-0.151,0.673-0.391,1.037-0.718c0.396-0.367,0.703-0.636,0.921-0.8
		c0.222-0.16,0.451-0.245,0.681-0.247c0.191-0.002,0.342,0.058,0.455,0.176c0.124,0.118,0.183,0.293,0.185,0.527
		c-0.093,0.429-0.382,1.086-0.867,1.976c-0.23,0.444-0.436,0.72-0.618,0.833c-0.186,0.109-0.527,0.167-1.016,0.171l-10.557,0.098
		c-0.604,0.006-0.909-0.236-0.913-0.729c0.034-0.177,0.098-0.307,0.198-0.398c0.096-0.087,0.25-0.189,0.461-0.303l0.261-0.128
		c0.229-0.106,0.379-0.241,0.446-0.403c0.063-0.163,0.126-0.426,0.187-0.793l2.116-10.333c0-0.014,0.021-0.112,0.062-0.296
		c0.041-0.184,0.062-0.317,0.061-0.4c-0.002-0.241-0.101-0.406-0.292-0.494l-0.188-0.124c-0.148-0.11-0.253-0.206-0.308-0.282
		c-0.058-0.079-0.088-0.215-0.09-0.409c0.103-0.487,0.508-0.732,1.216-0.738l10.093-0.093c0.619-0.006,0.99,0.074,1.121,0.242
		c0.055,0.1,0.085,0.291,0.088,0.579c0.005,0.536-0.041,1.025-0.134,1.476c-0.127,0.62-0.448,0.932-0.962,0.937
		c-0.216,0.002-0.378-0.047-0.487-0.143c-0.105-0.1-0.233-0.268-0.383-0.504c-0.299-0.454-0.694-0.745-1.181-0.874
		c-0.476-0.1-1.188-0.147-2.131-0.139c-0.899,0.008-1.503,0.068-1.811,0.175c-0.398,0.158-0.63,0.38-0.688,0.661l-0.797,4.025
		l3.259-0.03c0.435-0.004,0.748-0.054,0.938-0.145c0.19-0.092,0.397-0.231,0.622-0.405c0.229-0.178,0.436-0.27,0.627-0.272
		c0.356-0.003,0.538,0.218,0.542,0.661c0.001,0.158-0.032,0.432-0.097,0.828c-0.121,0.584-0.249,1.038-0.379,1.356
		c-0.13,0.311-0.377,0.468-0.744,0.471c-0.191,0.002-0.368-0.076-0.538-0.236c-0.178-0.167-0.337-0.292-0.478-0.37
		c-0.141-0.081-0.426-0.118-0.846-0.114l-3.27,0.03L123.086,19.228L123.086,19.228z"/>
	<g>
		<defs>
			<path id="SVGID_9_" d="M189.794,33.44c-0.931-1.081-1.404-2.43-1.419-4.045c-0.006-0.612,0.057-1.238,0.184-1.88
				c0.234-1.168,0.67-2.262,1.308-3.278c0.642-1.01,1.432-1.887,2.368-2.634c0.932-0.746,1.959-1.324,3.07-1.73
				c1.115-0.41,2.254-0.618,3.419-0.629c1.032-0.01,1.987,0.133,2.86,0.423c0.873,0.291,1.629,0.711,2.267,1.267
				c0.631,0.552,1.123,1.22,1.472,2.012c0.353,0.791,0.533,1.664,0.542,2.617c0.005,0.576-0.054,1.173-0.174,1.793
				c-0.233,1.182-0.684,2.287-1.351,3.311c-0.663,1.017-1.475,1.906-2.429,2.659c-0.957,0.753-2.002,1.338-3.142,1.755
				c-1.137,0.417-2.289,0.633-3.455,0.644c-1.09,0.01-2.124-0.186-3.102-0.583C191.231,34.74,190.427,34.171,189.794,33.44
				L189.794,33.44z M201.47,27.486c0.161-0.851,0.236-1.661,0.229-2.434c-0.011-1.219-0.269-2.221-0.776-3.004
				c-0.507-0.769-1.331-1.146-2.478-1.135c-0.773,0.007-1.495,0.226-2.17,0.653c-0.672,0.427-1.282,1.016-1.822,1.765
				c-0.785,1.087-1.341,2.451-1.671,4.088c-0.168,0.872-0.247,1.686-0.24,2.434c0.007,0.788,0.111,1.495,0.315,2.127
				c0.204,0.628,0.543,1.139,1.014,1.527c0.475,0.388,1.095,0.58,1.861,0.573c0.824-0.008,1.563-0.216,2.225-0.621
				c0.658-0.406,1.225-0.932,1.694-1.584c0.465-0.652,0.851-1.361,1.149-2.126C201.099,28.979,201.322,28.225,201.47,27.486
				L201.47,27.486z M214.18,21.026c-0.377,0.025-0.678,0.165-0.902,0.419c-0.132,0.156-0.219,0.39-0.267,0.707l-0.664,3.255
				c2.647-0.025,4.668,0.244,6.055,0.811c1.856,0.756,2.792,1.974,2.807,3.65c0.002,0.266-0.031,0.605-0.095,1.012
				c-0.275,1.423-1.264,2.612-2.96,3.571c-0.533,0.3-1.146,0.507-1.847,0.618c-0.697,0.111-1.495,0.172-2.394,0.181l-7.575,0.07
				c-0.612,0.006-0.919-0.236-0.924-0.729c0.038-0.176,0.112-0.31,0.216-0.397c0.107-0.087,0.257-0.186,0.45-0.296l0.261-0.139
				c0.226-0.106,0.369-0.237,0.425-0.389c0.06-0.152,0.129-0.415,0.209-0.797l2.088-10.34c0.08-0.317,0.121-0.555,0.119-0.717
				c-0.002-0.223-0.09-0.38-0.26-0.473l-0.221-0.124c-0.141-0.117-0.239-0.214-0.294-0.292c-0.051-0.075-0.081-0.208-0.083-0.399
				c0.11-0.487,0.511-0.731,1.205-0.738l11.118-0.125c0.518-0.005,0.828,0.036,0.93,0.117c0.156,0.139,0.235,0.491,0.24,1.052
				c0.003,0.309-0.013,0.54-0.055,0.695c-0.014,0.068-0.02,0.184-0.019,0.334c0.001,0.155-0.005,0.274-0.018,0.349
				c-0.114,0.551-0.442,0.828-0.982,0.833c-0.255,0.002-0.516-0.186-0.785-0.561c-0.27-0.379-0.553-0.671-0.843-0.877
				c-0.29-0.216-0.787-0.32-1.5-0.313L214.18,21.026L214.18,21.026z M210.985,32.125c-0.08,0.332-0.121,0.58-0.119,0.749
				c0.002,0.216,0.061,0.392,0.174,0.524c0.2,0.239,0.629,0.354,1.298,0.348c0.615-0.006,1.262-0.13,1.932-0.37
				c0.671-0.244,1.25-0.584,1.735-1.027c0.489-0.447,0.79-0.964,0.91-1.555c0.041-0.238,0.061-0.465,0.059-0.673
				c-0.006-0.669-0.234-1.232-0.685-1.692c-0.447-0.46-1.051-0.8-1.808-1.015c-0.754-0.22-1.586-0.324-2.489-0.315L210.985,32.125
				L210.985,32.125z M224.336,33.12c-0.931-1.081-1.404-2.43-1.419-4.045c-0.006-0.612,0.057-1.238,0.184-1.88
				c0.234-1.168,0.67-2.262,1.308-3.278c0.642-1.01,1.432-1.887,2.368-2.634c0.932-0.746,1.959-1.324,3.07-1.73
				c1.115-0.41,2.254-0.618,3.419-0.629c1.032-0.01,1.987,0.133,2.86,0.423c0.873,0.291,1.629,0.711,2.267,1.267
				c0.631,0.552,1.123,1.22,1.472,2.012c0.353,0.791,0.533,1.664,0.542,2.617c0.005,0.576-0.054,1.173-0.174,1.793
				c-0.233,1.182-0.684,2.287-1.351,3.311c-0.663,1.017-1.475,1.906-2.429,2.659c-0.957,0.753-2.002,1.338-3.142,1.755
				c-1.136,0.417-2.289,0.633-3.455,0.644c-1.09,0.01-2.124-0.186-3.102-0.583C225.772,34.42,224.969,33.851,224.336,33.12
				L224.336,33.12z M236.012,27.166c0.161-0.851,0.236-1.661,0.229-2.434c-0.011-1.219-0.269-2.221-0.776-3.004
				c-0.507-0.769-1.331-1.146-2.478-1.135c-0.773,0.007-1.494,0.226-2.17,0.653c-0.672,0.427-1.282,1.015-1.822,1.765
				c-0.785,1.087-1.341,2.451-1.671,4.088c-0.168,0.872-0.247,1.686-0.24,2.434c0.007,0.788,0.111,1.495,0.315,2.127
				c0.204,0.628,0.543,1.139,1.014,1.527c0.475,0.388,1.095,0.58,1.861,0.573c0.824-0.008,1.563-0.216,2.225-0.621
				c0.658-0.406,1.225-0.932,1.694-1.584c0.465-0.652,0.851-1.361,1.149-2.126C235.64,28.659,235.864,27.905,236.012,27.166
				L236.012,27.166z M245.562,32.193c-0.021,0.087-0.045,0.202-0.08,0.353c-0.034,0.151-0.051,0.27-0.05,0.357
				c0.002,0.223,0.093,0.381,0.267,0.469l0.214,0.135c0.246,0.181,0.371,0.41,0.373,0.684c-0.107,0.494-0.507,0.742-1.201,0.748
				l-4.101,0.038c-0.604,0.006-0.909-0.236-0.913-0.729c0.041-0.177,0.108-0.307,0.208-0.394c0.096-0.084,0.25-0.182,0.461-0.299
				l0.251-0.139c0.237-0.106,0.386-0.241,0.45-0.4c0.06-0.155,0.125-0.419,0.191-0.786l2.109-10.336
				c0-0.014,0.021-0.108,0.059-0.285c0.041-0.177,0.062-0.314,0.061-0.414c-0.002-0.237-0.097-0.402-0.289-0.49l-0.192-0.124
				c-0.148-0.114-0.25-0.206-0.308-0.285c-0.058-0.075-0.085-0.212-0.087-0.409c0.1-0.487,0.504-0.732,1.216-0.738l4.108-0.038
				c0.59-0.005,0.887,0.233,0.892,0.719c-0.027,0.169-0.084,0.296-0.176,0.376c-0.089,0.084-0.243,0.189-0.461,0.328l-0.283,0.129
				c-0.215,0.099-0.354,0.23-0.417,0.392c-0.06,0.162-0.125,0.429-0.19,0.804l-1.473,7.14l7.76-6.554l0.141-0.645
				c0-0.014,0.017-0.108,0.059-0.285c0.042-0.177,0.062-0.314,0.061-0.414c-0.002-0.23-0.097-0.395-0.278-0.49l-0.202-0.124
				c-0.149-0.114-0.25-0.206-0.309-0.285c-0.058-0.075-0.084-0.212-0.086-0.409c0.1-0.487,0.504-0.732,1.213-0.738l4.111-0.038
				c0.59-0.005,0.887,0.233,0.892,0.719c-0.027,0.169-0.084,0.296-0.177,0.376c-0.089,0.084-0.243,0.189-0.461,0.328l-0.283,0.129
				c-0.215,0.099-0.354,0.23-0.417,0.392c-0.063,0.162-0.125,0.429-0.194,0.804l-2.106,10.336c-0.021,0.087-0.048,0.202-0.079,0.353
				c-0.035,0.151-0.051,0.27-0.051,0.357c0.002,0.223,0.09,0.381,0.267,0.469l0.213,0.135c0.246,0.181,0.371,0.41,0.373,0.684
				c-0.107,0.494-0.507,0.742-1.205,0.748l-4.097,0.038c-0.604,0.006-0.909-0.236-0.913-0.729c0.041-0.177,0.109-0.307,0.205-0.39
				c0.1-0.087,0.254-0.186,0.461-0.303l0.265-0.139c0.236-0.106,0.382-0.241,0.442-0.396c0.059-0.159,0.122-0.422,0.187-0.79
				l1.503-7.421l-7.749,6.551L245.562,32.193L245.562,32.193z"/>
		</defs>
		<use xlink:href="#SVGID_9_"  style="overflow:visible;fill-rule:evenodd;clip-rule:evenodd;fill:#BF172B;"/>
		<clipPath id="SVGID_10_">
			<use xlink:href="#SVGID_9_"  style="overflow:visible;"/>
		</clipPath>
		<g class="st2">
			<defs>
				
					<rect id="SVGID_11_" x="215.767" y="-8.398" transform="matrix(0.0093 1 -1 0.0093 249.1525 -196.9982)" width="16.449" height="71.27"/>
			</defs>
			<use xlink:href="#SVGID_11_"  style="overflow:visible;fill:#BF172B;"/>
			<clipPath id="SVGID_12_">
				<use xlink:href="#SVGID_11_"  style="overflow:visible;"/>
			</clipPath>
		</g>
	</g>
</g>
</svg>
