<?xml version="1.0" encoding="utf-8"?>
<!-- Generator: Adobe Illustrator 18.1.1, SVG Export Plug-In . SVG Version: 6.00 Build 0)  -->
<svg version="1.1" id="Слой_1" xmlns="http://www.w3.org/2000/svg" xmlns:xlink="http://www.w3.org/1999/xlink" x="0px" y="0px"
	 viewBox="0 0 59.736 74.735" style="enable-background:new 0 0 59.736 74.735;" xml:space="preserve">
<style type="text/css">
	.st0{fill:#1A5691;}
	.st1{clip-path:url(#SVGID_2_);}
</style>
<g>
	<circle class="st0" cx="29.911" cy="29.605" r="26.25"/>
	<g>
		<path class="st0" d="M29.868,0C13.371,0,0,13.373,0,29.868c0,8.247,3.669,15.408,8.748,21.12l21.12,23.747l21.119-23.747
			c5.078-5.713,8.749-12.873,8.749-21.121C59.736,13.373,46.363,0,29.868,0z M47.937,47.938c-4.826,4.827-11.243,7.485-18.069,7.485
			c-6.827,0-13.245-2.658-18.071-7.485c-4.826-4.828-7.485-11.244-7.485-18.07c0-14.091,11.464-25.555,25.556-25.555
			c14.09,0,25.555,11.464,25.555,25.555C55.423,36.693,52.764,43.112,47.937,47.938z"/>
		<g>
			<defs>
				<path id="SVGID_1_" d="M35.016,34.82c1.989-0.748,2.818-2.406,3.875-4.296c-2.442-7.256-5.993-12.472-9.944-16.949
					c2.464,4.967,2.473,10.11,0.028,15.429L35.016,34.82L35.016,34.82z"/>
			</defs>
			<use xlink:href="#SVGID_1_"  style="overflow:visible;fill-rule:evenodd;clip-rule:evenodd;fill:#FFFFFF;"/>
			<clipPath id="SVGID_2_">
				<use xlink:href="#SVGID_1_"  style="overflow:visible;"/>
			</clipPath>
			<g class="st1">
				<defs>
					
						<rect id="SVGID_3_" x="23.231" y="19.229" transform="matrix(0.0093 1 -1 0.0093 57.7468 -9.924)" width="21.301" height="9.902"/>
				</defs>
				<use xlink:href="#SVGID_3_"  style="overflow:visible;fill:#FFFFFF;"/>
				<clipPath id="SVGID_4_">
					<use xlink:href="#SVGID_3_"  style="overflow:visible;"/>
				</clipPath>
			</g>
		</g>
		<g>
			<defs>
				<path id="SVGID_5_" d="M14.403,30.572c3.108,6.399,9.928,9.759,19.589,5.524l-7.556-7.76
					c7.805-12.522-9.863-19.319-12.959-4.797C12.896,26.266,13.174,28.042,14.403,30.572L14.403,30.572z"/>
			</defs>
			<use xlink:href="#SVGID_5_"  style="overflow:visible;fill-rule:evenodd;clip-rule:evenodd;fill:#FFFFFF;"/>
			<clipPath id="SVGID_6_">
				<use xlink:href="#SVGID_5_"  style="overflow:visible;"/>
			</clipPath>
		</g>
		<g>
			<defs>
				<path id="SVGID_7_" d="M45.328,41.749L45.181,25.86C39.527,38.308,30.767,43,17.884,37.397
					C28.397,45.361,37.385,46.045,45.328,41.749L45.328,41.749z"/>
			</defs>
			<use xlink:href="#SVGID_7_"  style="overflow:visible;fill-rule:evenodd;clip-rule:evenodd;fill:#FFFFFF;"/>
			<clipPath id="SVGID_8_">
				<use xlink:href="#SVGID_7_"  style="overflow:visible;"/>
			</clipPath>
		</g>
	</g>
</g>
</svg>
