<?xml version="1.0" encoding="utf-8"?>
<!-- Generator: Adobe Illustrator 18.1.1, SVG Export Plug-In . SVG Version: 6.00 Build 0)  -->
<svg version="1.1" id="Слой_1" xmlns="http://www.w3.org/2000/svg" xmlns:xlink="http://www.w3.org/1999/xlink" x="0px" y="0px"
	 viewBox="0 0 128 128.346" style="enable-background:new 0 0 128 128.346;" xml:space="preserve">
<style type="text/css">
	.st0{clip-path:url(#SVGID_2_);}
	.st1{fill:#1A5691;}
	.st2{fill:#FFFFFF;}
</style>
<g>
	<g>
		<g>
			<defs>
				<rect id="SVGID_1_" width="402" height="403"/>
			</defs>
			<clipPath id="SVGID_2_">
				<use xlink:href="#SVGID_1_"  style="overflow:visible;"/>
			</clipPath>
			<g class="st0">
				<polygon class="st1" points="-9.79,138.381 -48.196,100.038 93.349,-41.273 131.755,-2.93 				"/>
			</g>
		</g>
		<g>
			<path class="st2" d="M27.034,64.451l-5.46,5.46l-2.42-2.42l5.46-5.46L27.034,64.451z"/>
			<path class="st2" d="M43.358,57.341l-9.381,9.381l-2.04-2.04l-0.408-8.713c-0.074-1.187-0.228-2.157-0.463-2.911
				c-0.235-0.754-0.534-1.313-0.899-1.678c-0.525-0.525-1.059-0.823-1.599-0.894c-0.541-0.071-1.071,0.153-1.59,0.672
				c-0.488,0.488-0.667,1.066-0.538,1.733c0.13,0.667,0.504,1.31,1.122,1.928l-3.068,3.068l-0.074-0.037
				c-1.279-1.217-1.927-2.687-1.942-4.408c-0.016-1.721,0.681-3.286,2.09-4.695c1.477-1.477,2.98-2.254,4.51-2.331
				c1.53-0.078,2.931,0.521,4.204,1.793c0.853,0.853,1.386,1.831,1.599,2.934c0.213,1.103,0.37,2.89,0.468,5.362l0.324,3.606
				l0.065,0.028l5.21-5.21L43.358,57.341z"/>
			<path class="st2" d="M49.272,41.508c1.613,1.613,2.446,3.305,2.498,5.075c0.053,1.771-0.625,3.361-2.035,4.769
				c-1.421,1.422-3.018,2.106-4.788,2.053c-1.771-0.052-3.462-0.885-5.075-2.498l-3.578-3.578c-1.613-1.613-2.449-3.301-2.507-5.066
				c-0.059-1.764,0.623-3.357,2.044-4.778c1.409-1.409,3.003-2.089,4.783-2.039c1.78,0.049,3.473,0.877,5.08,2.484L49.272,41.508z
				 M42.356,40.841c-0.821-0.821-1.589-1.308-2.303-1.459s-1.318,0.02-1.812,0.514c-0.5,0.5-0.671,1.104-0.51,1.808
				c0.161,0.705,0.652,1.468,1.474,2.289l3.986,3.986c0.84,0.84,1.613,1.338,2.317,1.493c0.705,0.154,1.31-0.022,1.817-0.529
				c0.494-0.494,0.665-1.093,0.51-1.798c-0.154-0.704-0.652-1.477-1.492-2.317L42.356,40.841z"/>
			<path class="st2" d="M44.971,33.926c-0.803-0.803-1.209-1.729-1.219-2.776s0.465-2.05,1.423-3.008
				c0.97-0.97,1.979-1.451,3.026-1.441c1.048,0.009,1.974,0.415,2.777,1.218l0.714,0.714c0.803,0.803,1.207,1.726,1.209,2.768
				c0.004,1.041-0.474,2.041-1.432,2.998c-0.964,0.964-1.97,1.445-3.017,1.442c-1.048-0.003-1.97-0.403-2.768-1.2L44.971,33.926z
				 M47.687,32.637c0.309,0.309,0.653,0.48,1.034,0.514c0.38,0.034,0.733-0.112,1.062-0.44c0.315-0.315,0.454-0.661,0.417-1.038
				c-0.037-0.377-0.209-0.72-0.519-1.029l-0.714-0.714c-0.309-0.309-0.657-0.483-1.043-0.523s-0.74,0.101-1.062,0.422
				c-0.315,0.315-0.453,0.666-0.412,1.052c0.04,0.386,0.214,0.734,0.523,1.043L47.687,32.637z M58.301,40.377l-2.188,0.724
				l-3.958-17.14l2.187-0.723L58.301,40.377z M58.968,35.112c-0.797-0.797-1.197-1.723-1.201-2.776
				c-0.003-1.054,0.475-2.06,1.433-3.018c0.97-0.97,1.976-1.451,3.017-1.441c1.042,0.009,1.963,0.416,2.767,1.219l0.714,0.714
				c0.81,0.81,1.218,1.733,1.224,2.771c0.007,1.038-0.469,2.037-1.427,2.995c-0.964,0.964-1.973,1.447-3.027,1.451
				c-1.053,0.002-1.982-0.398-2.785-1.201L58.968,35.112z M61.693,33.814c0.297,0.297,0.652,0.455,1.066,0.473
				c0.414,0.019,0.763-0.114,1.047-0.398c0.383-0.383,0.547-0.739,0.492-1.066c-0.056-0.328-0.256-0.665-0.603-1.011l-0.714-0.714
				c-0.303-0.303-0.649-0.472-1.038-0.51c-0.389-0.037-0.742,0.102-1.057,0.417c-0.321,0.321-0.462,0.675-0.422,1.062
				c0.04,0.387,0.211,0.731,0.514,1.034L61.693,33.814z"/>
		</g>
	</g>
</g>
</svg>
