<?xml version="1.0" encoding="utf-8"?>
<!-- Generator: Adobe Illustrator 18.1.1, SVG Export Plug-In . SVG Version: 6.00 Build 0)  -->
<svg version="1.1" id="Слой_1" xmlns="http://www.w3.org/2000/svg" xmlns:xlink="http://www.w3.org/1999/xlink" x="0px" y="0px"
	 viewBox="0 0 100 100" enable-background="new 0 0 100 100" xml:space="preserve">
<g opacity="0.5">
	<g>
		<path fill="#B71C24" d="M98.8,84.1L73.3,31.8c1.8-0.9,3.1-2.7,3.1-4.9c0-3-2.4-5.4-5.4-5.4S65.5,24,65.5,27c0,2.1,1.3,4,3.1,4.9
			L43.1,84.1c-0.4,0.8-0.6,1.6-0.6,2.5c0,6.7,12.7,12.2,28.5,12.2s28.5-5.5,28.5-12.2C99.4,85.7,99.2,84.9,98.8,84.1z"/>
	</g>
	<g>
		<path fill="#0E8035" d="M41.3,79.5l-0.8-3l0,0c0.9-0.2,1.9-0.6,2.8-1l22.6-46.4c0,0,0.1,0,0.1,0.1c-0.3-0.7-0.5-1.4-0.5-2.2
			c0-0.2,0-0.5,0.1-0.7C61.8,13.3,49.8,3.9,35.7,3.9c-17.2,0-31.2,14-31.2,31.2c0,15.6,11.5,37.4,26.4,41.4l-2,7.4
			c3.5-1.4,7.3-1.7,10.9-0.8c0.1-0.6,0.3-1.1,0.5-1.7L41.3,79.5z"/>
	</g>
</g>
<g>
	<path fill="#0E8035" d="M16.6,54.5c-0.5,0-1-0.3-1.1-0.8c-0.8-2.3-1.6-4.7-2.2-7.2c-0.6-2.4-1.1-4.8-1.4-7.2
		c-0.3-2.4-0.5-4.7-0.5-6.9c0-2.2,0.2-4.4,0.5-6.5c0.1-0.7,0.7-1.1,1.4-1c0.7,0.1,1.1,0.7,1,1.4c-0.3,2-0.5,4-0.5,6.1
		c0,2.1,0.2,4.3,0.5,6.6c0.3,2.3,0.7,4.6,1.3,6.9c0.6,2.3,1.3,4.7,2.1,6.9c0.2,0.6-0.1,1.3-0.7,1.6C16.9,54.4,16.7,54.5,16.6,54.5z"
		/>
</g>
<g>
	<path fill="#0E8035" d="M39.8,82.4c-0.2,0-0.3,0-0.5-0.1c-4-1.6-8.6-1.6-12.6,0c-0.4,0.2-0.9,0.1-1.3-0.2c-0.3-0.3-0.5-0.8-0.4-1.2
		l2-7.4c0.2-0.6,0.8-1,1.5-0.9c3,0.8,5.9,0.8,8.9,0c0.6-0.2,1.3,0.2,1.5,0.9l2,7.2C41,80.8,41,81,41,81.2
		C41,81.8,40.5,82.4,39.8,82.4C39.8,82.4,39.8,82.4,39.8,82.4z M29.1,75.2L28,79.3c3.3-0.9,6.8-0.9,10,0l-1.1-4.1
		C34.3,75.7,31.7,75.7,29.1,75.2z"/>
</g>
<g>
	<path fill="#0E8035" d="M33,100c-0.7,0-1.2-0.5-1.2-1.2v-19c0-0.7,0.5-1.2,1.2-1.2c0.7,0,1.2,0.5,1.2,1.2v19
		C34.2,99.5,33.7,100,33,100z"/>
</g>
<g>
	<path fill="#0E8035" d="M33,75.6c-18.5,0-32.4-26.2-32.4-43.2C0.6,14.5,15.1,0,33,0C47.2,0,60,9.5,64,23.2c0,0.2,0.1,0.3,0,0.5
		l0,0.1c0,0.1,0,0.3,0,0.4c0,0.8,0.2,1.6,0.7,2.3c0.1,0.1,0.2,0.3,0.2,0.5c0.3,1.8,0.4,3.6,0.4,5.3l0,0.1c0,0.2,0,0.4-0.1,0.6
		L47.3,70c-0.1,0.2-0.2,0.3-0.4,0.4C42.4,73.9,37.7,75.6,33,75.6z M33,2.4C16.5,2.4,3,15.9,3,32.4C3,48.5,16.5,73.2,33,73.2
		c4.1,0,8.2-1.5,12.2-4.5l17.7-36.4c0-1.6-0.1-3.1-0.4-4.6c-0.6-1-1-2.2-1-3.4c0-0.2,0-0.4,0-0.6C57.8,11.1,46.1,2.4,33,2.4z"/>
</g>
<g>
	<path fill="#B71C24" d="M68.2,97.3c-16.6,0-29.7-5.9-29.7-13.4c0-1,0.2-2.1,0.7-3l25.5-52.3c0.1-0.3,0.4-0.5,0.7-0.6
		c0.3-0.1,0.6-0.1,0.9,0.1c1.2,0.6,2.5,0.6,3.7,0c0.3-0.1,0.6-0.2,0.9-0.1c0.3,0.1,0.6,0.3,0.7,0.6l25.5,52.3c0.5,1,0.7,2,0.7,3
		C97.9,91.4,84.9,97.3,68.2,97.3z M66.5,30.6l-25,51.3c-0.3,0.7-0.5,1.3-0.5,2c0,5.3,10.9,11,27.2,11s27.2-5.7,27.2-11
		c0-0.7-0.2-1.3-0.5-2L70,30.6C68.8,31,67.6,31,66.5,30.6z"/>
</g>
<g>
	<g>
		<polygon fill="#FFFFFF" points="66.7,67.2 59.4,72 51.4,68.7 53.7,77.1 48.1,83.7 56.8,84.1 61.4,91.5 64.4,83.3 72.9,81.2 
			66.1,75.8 		"/>
		<path fill="#B71C24" d="M61.4,92.7c-0.4,0-0.8-0.2-1-0.6l-4.3-6.8l-8-0.4c-0.5,0-0.9-0.3-1.1-0.7c-0.2-0.4-0.1-0.9,0.2-1.3
			l5.2-6.1L50.2,69c-0.1-0.4,0-0.9,0.4-1.2c0.3-0.3,0.8-0.4,1.3-0.2l7.4,3l6.7-4.4c0.4-0.3,0.9-0.3,1.3,0s0.6,0.7,0.6,1.1l-0.6,8
			l6.3,5c0.4,0.3,0.5,0.8,0.4,1.2c-0.1,0.5-0.4,0.8-0.9,0.9l-7.8,1.9l-2.8,7.5c-0.2,0.4-0.6,0.7-1,0.8
			C61.5,92.7,61.4,92.7,61.4,92.7z M50.7,82.6l6.2,0.3c0.4,0,0.8,0.2,1,0.6l3.3,5.3l2.2-5.8c0.1-0.4,0.5-0.7,0.8-0.8l6-1.5l-4.8-3.9
			c-0.3-0.3-0.5-0.6-0.5-1l0.4-6.2L60.1,73c-0.3,0.2-0.8,0.3-1.1,0.1l-5.7-2.3l1.6,6c0.1,0.4,0,0.8-0.2,1.1L50.7,82.6z"/>
	</g>
	<g>
		<path fill="#FFFFFF" d="M83.8,83.9c-5.6,0-10.2,4.5-10.2,10.2c0,0.6,0.1,1.2,0.2,1.8c8.3-0.7,15.2-2.9,19.2-6
			C91.5,86.3,87.9,83.9,83.8,83.9z"/>
		<path fill="#B71C24" d="M73.8,97.1c-0.6,0-1.1-0.4-1.2-1c-0.1-0.7-0.2-1.4-0.2-2c0-6.3,5.1-11.4,11.4-11.4c4.4,0,8.5,2.6,10.4,6.7
			c0.2,0.5,0.1,1.1-0.4,1.5c-4.3,3.3-11.5,5.5-19.9,6.2C73.9,97.1,73.8,97.1,73.8,97.1z M83.8,85.1c-4.9,0-8.9,4-8.9,8.9
			c0,0.2,0,0.3,0,0.5c6.9-0.7,12.8-2.5,16.6-5C89.9,86.8,87,85.1,83.8,85.1z"/>
	</g>
	<g>
		<circle fill="#FFFFFF" cx="77.7" cy="67.6" r="5.4"/>
		<path fill="#B71C24" d="M77.7,74.3c-3.7,0-6.6-3-6.6-6.6c0-3.7,3-6.6,6.6-6.6c3.7,0,6.6,3,6.6,6.6C84.3,71.3,81.4,74.3,77.7,74.3z
			 M77.7,63.4c-2.3,0-4.2,1.9-4.2,4.2c0,2.3,1.9,4.2,4.2,4.2c2.3,0,4.2-1.9,4.2-4.2C81.9,65.3,80,63.4,77.7,63.4z"/>
	</g>
	<g>
		<polygon fill="#FFFFFF" points="71.6,41.4 73.8,46.7 70.7,51.5 76.4,51.1 80,55.6 81.2,50.8 77.3,42.8 77.2,42.9 		"/>
		<path fill="#B71C24" d="M80,56.8c-0.4,0-0.7-0.2-0.9-0.5l-3.2-4l-5.1,0.4c-0.5,0-0.9-0.2-1.1-0.6c-0.2-0.4-0.2-0.9,0-1.3l2.8-4.3
			l-1.9-4.7c-0.2-0.4-0.1-0.9,0.2-1.3c0.3-0.3,0.8-0.5,1.2-0.4l5.2,1.4c0.1,0,0.3,0,0.4,0c0.4,0.1,0.7,0.3,0.8,0.7l3.9,8
			c0.1,0.3,0.2,0.5,0.1,0.8l-1.2,4.8c-0.1,0.5-0.5,0.8-0.9,0.9C80.2,56.8,80.1,56.8,80,56.8z M76.4,49.9c0.4,0,0.7,0.2,0.9,0.5
			l2.1,2.6l0.5-1.9l-3.4-7l-2.8-0.8l1.2,3c0.2,0.4,0.1,0.8-0.1,1.1L73,50.1L76.4,49.9C76.4,49.9,76.4,49.9,76.4,49.9z"/>
	</g>
	<g>
		<path fill="#FFFFFF" d="M58.7,58.1c3.7,0,6.8-3,6.8-6.8c0-3.7-3-6.8-6.8-6.8c-0.1,0-0.3,0-0.4,0l-5.2,10.6
			C54.4,57,56.4,58.1,58.7,58.1z"/>
		<path fill="#B71C24" d="M58.7,59.3c-2.6,0-5.1-1.3-6.6-3.5c-0.2-0.4-0.3-0.8-0.1-1.2l5.2-10.6c0.2-0.4,0.6-0.7,1-0.7
			c0.2,0,0.4,0,0.5,0c4.4,0,8,3.6,8,8S63.1,59.3,58.7,59.3z M54.6,55c1,1.2,2.6,1.9,4.2,1.9c3.1,0,5.6-2.5,5.6-5.6
			c0-3-2.3-5.4-5.2-5.5L54.6,55z"/>
	</g>
</g>
<g>
	<path fill="#B71C24" d="M68.2,30.9c-1,0-2-0.2-2.9-0.7c-2.3-1.1-3.7-3.4-3.7-5.9c0-3.7,3-6.6,6.6-6.6c3.7,0,6.6,3,6.6,6.6
		c0,2.5-1.4,4.8-3.7,5.9C70.2,30.7,69.2,30.9,68.2,30.9z M68.2,20.1c-2.3,0-4.2,1.9-4.2,4.2c0,1.6,0.9,3,2.4,3.8
		c1.2,0.6,2.5,0.6,3.7,0c1.5-0.7,2.4-2.2,2.4-3.8C72.4,21.9,70.5,20.1,68.2,20.1z"/>
</g>
</svg>
