<?xml version="1.0" encoding="utf-8"?>
<!-- Generated by IcoMoon.io -->
<!DOCTYPE svg PUBLIC "-//W3C//DTD SVG 1.1//EN" "http://www.w3.org/Graphics/SVG/1.1/DTD/svg11.dtd">
<svg version="1.1" xmlns="http://www.w3.org/2000/svg" xmlns:xlink="http://www.w3.org/1999/xlink" width="1024" height="1024" viewBox="0 0 1024 1024">
<g id="icomoon-ignore">
</g>
<path fill="#0e8035" d="M169.984 470.016c-6.144-23.552-10.24-47.104-13.312-70.656s-5.12-46.080-5.12-67.584c0-20.48 2.048-41.984 5.12-62.464 1.024-7.168-4.096-14.336-11.264-15.36s-14.336 4.096-15.36 11.264c-3.072 21.504-5.12 44.032-5.12 66.56s2.048 46.080 5.12 70.656c3.072 24.576 8.192 49.152 14.336 73.728s13.312 49.152 22.528 72.704c2.048 6.144 7.168 9.216 13.312 9.216 2.048 0 3.072 0 5.12-1.024 7.168-3.072 11.264-10.24 8.192-17.408-10.24-22.528-17.408-46.080-23.552-69.632z"></path>
<path fill="#0e8035" d="M421.888 800.768l-10.24-36.864c12.288-4.096 23.552-9.216 34.816-15.36l92.16-189.44c0 0 0 0 0 0l20.48-41.984-90.112 185.344c-29.696 22.528-60.416 36.864-91.136 41.984-1.024 0-3.072 0-4.096 1.024-3.072 1.024-6.144 1.024-10.24 1.024-2.048 0-3.072 0-5.12 0-4.096 0-8.192 0-11.264 1.024-1.024 0-2.048 0-4.096 0-4.096 0-8.192 0-12.288-1.024-2.048 0-3.072 0-5.12 0-3.072 0-7.168-1.024-10.24-1.024-1.024 0-2.048 0-4.096-1.024-150.528-29.696-269.312-259.072-269.312-412.672 0-167.936 136.192-304.128 304.128-304.128 133.12 0 251.904 88.064 290.816 215.040 1.024-14.336 7.168-27.648 15.36-37.888-50.176-121.856-172.032-204.8-306.176-204.8-183.296 0-331.776 148.48-331.776 331.776 0 153.6 110.592 379.904 266.24 432.128l-17.408 62.464c-1.024 5.12 0 10.24 4.096 14.336 4.096 3.072 9.216 4.096 14.336 2.048 16.384-6.144 32.768-10.24 50.176-11.264v178.176c0 7.168 6.144 14.336 14.336 14.336 7.168 0 14.336-6.144 14.336-14.336v-178.176c15.36 1.024 29.696 4.096 44.032 9.216 1.024-5.12 3.072-10.24 5.12-14.336l12.288-25.6zM349.184 802.816c-1.024 0-2.048-1.024-3.072-1.024s-2.048 0-3.072 1.024c-15.36 0-30.72 2.048-46.080 6.144l10.24-37.888c0 0 1.024 0 1.024 0 5.12 1.024 10.24 2.048 15.36 2.048 1.024 0 2.048 0 3.072 0 6.144 1.024 12.288 1.024 18.432 1.024s12.288 0 19.456-1.024c1.024 0 2.048 0 3.072 0 5.12-1.024 10.24-1.024 15.36-2.048 0 0 1.024 0 1.024 0l10.24 37.888c-14.336-3.072-29.696-5.12-45.056-6.144z"></path>
<path fill="#0e8035" d="M591.872 450.56c0 0 0 0 0 0l71.68-147.456c-7.168-5.12-12.288-11.264-17.408-18.432 2.048 15.36 4.096 30.72 4.096 46.080l-58.368 119.808z"></path>
<path fill="#0e8035" d="M636.928 248.832c0 3.072 0 6.144 1.024 9.216-1.024-3.072-1.024-6.144-1.024-9.216z"></path>
<path fill="#0e8035" d="M664.576 254.976c0-2.048 0-4.096 0-6.144 0 2.048 0 4.096 0 6.144z"></path>
<path fill="#0e8035" d="M664.576 243.712c0 0 0-1.024 0 0s-1.024 3.072-1.024 5.12c0-1.024 0-3.072 0-4.096l1.024-1.024z"></path>
<path fill="#0e8035" d="M664.576 254.976c1.024 6.144 3.072 12.288 7.168 17.408 0 0 0 0 0 0-4.096-5.12-6.144-11.264-7.168-17.408z"></path>
<path fill="#b71c24" d="M1009.664 858.112c0-10.24-2.048-21.504-7.168-31.744l-151.552-312.32c0 0 0 0 0 0l-39.936-81.92c0 0 0 0 0 0l-63.488-128c17.408-13.312 27.648-32.768 27.648-54.272 0-37.888-30.72-69.632-69.632-69.632-21.504 0-40.96 10.24-53.248 24.576-8.192 10.24-14.336 23.552-15.36 37.888 0 2.048 0 4.096 0 6.144 0 3.072 0 6.144 1.024 9.216 1.024 9.216 4.096 18.432 9.216 26.624 4.096 7.168 10.24 13.312 17.408 18.432l-71.68 147.456c0 0 0 0 0 0s0 0 0 0l-31.744 65.536-20.48 41.984c0 0 0 0 0 0l-92.16 189.44-25.6 52.224-12.288 25.6c-2.048 5.12-4.096 9.216-5.12 14.336-1.024 6.144-2.048 11.264-2.048 17.408 0 77.824 134.144 138.24 304.128 138.24 60.416 0 115.712-7.168 161.792-20.48 1.024 0 1.024 0 2.048-1.024 3.072-1.024 6.144-2.048 10.24-3.072 2.048-1.024 4.096-1.024 6.144-2.048s3.072-1.024 5.12-2.048 6.144-2.048 9.216-3.072c0 0 1.024 0 1.024-1.024 26.624-10.24 49.152-21.504 66.56-34.816 0 0 1.024-1.024 1.024-1.024 24.576-18.432 38.912-43.008 38.912-68.608zM819.2 538.624l-19.456-23.552c-3.072-3.072-6.144-5.12-11.264-5.12 0 0-1.024 0-1.024 0l-29.696 2.048 16.384-25.6c2.048-4.096 3.072-8.192 1.024-13.312l-11.264-28.672 24.576 7.168 34.816 70.656-4.096 16.384zM705.536 207.872c22.528 0 41.984 18.432 41.984 41.984 0 15.36-9.216 29.696-23.552 36.864-12.288 6.144-24.576 6.144-35.84 0-7.168-3.072-12.288-8.192-16.384-14.336-3.072-5.12-6.144-11.264-7.168-17.408 0 0 0 0 0 0 0-2.048 0-4.096 0-6.144s0-4.096 1.024-6.144c2.048-19.456 19.456-34.816 39.936-34.816zM613.376 471.040c28.672 2.048 51.2 25.6 51.2 55.296 0 30.72-24.576 55.296-55.296 55.296-15.36 0-30.72-6.144-40.96-18.432l45.056-92.16zM429.056 858.112c0-6.144 2.048-13.312 5.12-19.456l121.856-248.832c14.336 12.288 33.792 19.456 53.248 19.456 46.080 0 82.944-36.864 82.944-82.944 0-39.936-28.672-73.728-66.56-80.896l62.464-129.024c0 0 1.024 0 1.024 0 2.048 0 4.096 1.024 6.144 1.024 1.024 0 2.048 0 2.048 0 3.072 0 5.12 1.024 8.192 1.024s5.12 0 8.192-1.024c1.024 0 2.048 0 2.048 0 2.048 0 4.096-1.024 6.144-1.024 0 0 1.024 0 1.024 0l50.176 102.4-28.672-8.192c-5.12-1.024-10.24 0-14.336 4.096-3.072 4.096-4.096 9.216-2.048 14.336l19.456 48.128-28.672 43.008c-3.072 4.096-3.072 10.24 0 14.336s8.192 7.168 13.312 7.168l51.2-4.096 32.768 39.936c3.072 3.072 6.144 5.12 11.264 5.12 1.024 0 2.048 0 3.072 0 5.12-1.024 9.216-5.12 10.24-10.24l3.072-11.264 135.168 277.504c3.072 6.144 5.12 13.312 5.12 19.456 0 13.312-7.168 26.624-19.456 38.912-21.504-32.768-58.368-53.248-98.304-53.248-64.512 0-117.76 53.248-117.76 117.76 0 2.048 0 4.096 0 6.144-13.312 1.024-27.648 1.024-41.984 1.024-165.888 0-277.504-57.344-277.504-110.592zM775.168 964.608c0-1.024 0-2.048 0-3.072 0-49.152 39.936-90.112 90.112-90.112 31.744 0 60.416 16.384 76.8 43.008-38.912 25.6-98.304 43.008-166.912 50.176z"></path>
<path fill="#b71c24" d="M766.976 833.536c1.024-5.12-1.024-10.24-5.12-13.312l-63.488-51.2 6.144-80.896c0-5.12-2.048-10.24-7.168-13.312-4.096-3.072-10.24-2.048-14.336 0l-68.608 46.080-75.776-30.72c-5.12-2.048-10.24-1.024-14.336 2.048s-5.12 9.216-4.096 14.336l21.504 78.848-52.224 62.464c-3.072 4.096-4.096 9.216-2.048 14.336s7.168 8.192 12.288 8.192l80.896 4.096 43.008 68.608c2.048 4.096 7.168 6.144 11.264 6.144 0 0 1.024 0 1.024 0 5.12-1.024 10.24-4.096 11.264-9.216l28.672-75.776 78.848-19.456c7.168-2.048 10.24-6.144 12.288-11.264zM654.336 847.872l-21.504 56.32-31.744-51.2c-2.048-4.096-6.144-6.144-11.264-6.144l-60.416-3.072 38.912-46.080c3.072-3.072 4.096-8.192 3.072-12.288l-16.384-58.368 56.32 22.528c4.096 2.048 9.216 1.024 13.312-1.024l50.176-33.792-4.096 60.416c0 4.096 2.048 9.216 5.12 12.288l47.104 37.888-58.368 14.336c-5.12 0-9.216 4.096-10.24 8.192z"></path>
<path fill="#b71c24" d="M802.816 760.832c37.888 0 69.632-30.72 69.632-69.632s-30.72-69.632-69.632-69.632c-37.888 0-69.632 30.72-69.632 69.632s31.744 69.632 69.632 69.632zM802.816 650.24c22.528 0 41.984 18.432 41.984 41.984s-18.432 41.984-41.984 41.984c-22.528 0-41.984-18.432-41.984-41.984s18.432-41.984 41.984-41.984z"></path>
</svg>
