<?xml version="1.0" encoding="utf-8"?>
<!-- Generated by IcoMoon.io -->
<!DOCTYPE svg PUBLIC "-//W3C//DTD SVG 1.1//EN" "http://www.w3.org/Graphics/SVG/1.1/DTD/svg11.dtd">
<svg version="1.1" xmlns="http://www.w3.org/2000/svg" xmlns:xlink="http://www.w3.org/1999/xlink" width="1024" height="1024" viewBox="0 0 1024 1024">
<g id="icomoon-ignore">
</g>
<path fill="#0e8035" d="M245.76 73.728c-22.528 21.504-22.528 57.344 0 79.872 3.072 3.072 6.144 4.096 10.24 4.096s7.168-2.048 10.24-4.096c5.12-6.144 5.12-15.36 0-20.48-11.264-11.264-11.264-28.672 0-39.936s28.672-11.264 38.912 1.024c6.144 5.12 15.36 6.144 20.48 0s5.12-15.36 0-20.48c-21.504-22.528-57.344-22.528-79.872 0z"></path>
<path fill="#0e8035" d="M719.872 93.184c11.264-11.264 28.672-11.264 39.936 0s11.264 28.672 0 39.936c-5.12 6.144-5.12 15.36 0 20.48 3.072 3.072 6.144 4.096 10.24 4.096 3.072 0 7.168-2.048 9.216-4.096 22.528-21.504 22.528-57.344 0-79.872-21.504-22.528-57.344-22.528-79.872-1.024-5.12 6.144-6.144 15.36 0 20.48s15.36 5.12 20.48 0z"></path>
<path fill="#b71c24" d="M885.76 340.992c-33.792 0-66.56 8.192-96.256 22.528l-25.6 12.288c21.504-36.864 32.768-77.824 32.768-119.808 0-14.336-2.048-28.672-4.096-41.984 36.864-19.456 60.416-57.344 60.416-100.352 0-62.464-51.2-113.664-113.664-113.664-30.72 0-60.416 13.312-81.92 35.84-44.032-23.552-93.184-35.84-144.384-35.84s-100.352 12.288-144.384 35.84c-20.48-22.528-50.176-35.84-81.92-35.84-62.464 0-113.664 51.2-111.616 111.616 0 43.008 23.552 80.896 60.416 100.352-3.072 14.336-4.096 27.648-4.096 41.984 0 43.008 11.264 83.968 33.792 120.832l-27.648-13.312c-29.696-14.336-63.488-22.528-96.256-22.528-59.392 0-108.544 49.152-108.544 108.544 0 33.792 15.36 66.56 43.008 87.040l7.168 6.144c35.84 27.648 78.848 45.056 123.904 51.2-1.024 10.24-2.048 20.48-2.048 30.72s1.024 20.48 2.048 30.72c-30.72 22.528-47.104 57.344-53.248 81.92-12.288 43.008-11.264 96.256 2.048 140.288 22.528 71.68 88.064 148.48 164.864 148.48 13.312 0 26.624-2.048 39.936-7.168 53.248-18.432 76.8-64.512 87.040-100.352 0-1.024 1.024-2.048 1.024-3.072 21.504 5.12 43.008 7.168 64.512 7.168s44.032-2.048 65.536-6.144c9.216 34.816 32.768 80.896 87.040 98.304 13.312 5.12 26.624 7.168 39.936 7.168 76.8 0 142.336-76.8 165.888-148.48 13.312-44.032 14.336-97.28 2.048-140.288-7.168-24.576-22.528-58.368-53.248-81.92 1.024-8.192 1.024-17.408 1.024-25.6 0-11.264-1.024-21.504-2.048-31.744 45.056-7.168 87.040-24.576 122.88-51.2l9.216-4.096c26.624-20.48 43.008-53.248 43.008-87.040 0-59.392-49.152-108.544-108.544-108.544zM313.344 631.808c0-3.072 0-6.144 0-9.216 0-53.248 30.72-104.448 80.896-136.192 36.864 15.36 76.8 23.552 117.76 23.552s79.872-8.192 117.76-23.552c51.2 31.744 80.896 81.92 80.896 136.192 0 2.048 0 3.072 0 5.12-64.512 18.432-112.64 86.016-130.048 143.36-1.024 4.096-2.048 8.192-3.072 12.288-41.984 13.312-88.064 12.288-130.048 0 0 0 0 0 0 0-1.024-2.048-1.024-4.096-2.048-7.168-10.24-33.792-30.72-68.608-57.344-96.256-1.024-1.024-1.024-1.024-2.048-2.048-2.048-2.048-3.072-3.072-5.12-5.12-19.456-18.432-41.984-33.792-67.584-40.96zM419.84 908.288c-8.192 29.696-26.624 67.584-69.632 81.92-10.24 3.072-20.48 5.12-30.72 5.12-63.488 0-117.76-66.56-137.216-129.024-12.288-38.912-13.312-86.016-2.048-123.904 7.168-22.528 20.48-53.248 49.152-71.68 7.168-5.12 13.312-8.192 20.48-10.24 10.24-3.072 20.48-5.12 30.72-5.12 4.096 0 8.192 0 12.288 1.024 2.048 0 4.096 1.024 6.144 1.024 0 0 0 0 0 0 34.816 7.168 65.536 33.792 88.064 65.536 0 0 0 1.024 1.024 1.024 1.024 1.024 2.048 3.072 3.072 4.096 11.264 17.408 20.48 36.864 25.6 56.32 11.264 33.792 13.312 73.728 6.144 109.568-1.024 5.12-2.048 9.216-3.072 14.336zM453.632 886.784c3.072-21.504 3.072-44.032 1.024-65.536 0-2.048 0-4.096-1.024-6.144 19.456 4.096 38.912 7.168 58.368 7.168s38.912-2.048 58.368-7.168c-3.072 23.552-3.072 49.152 1.024 72.704-37.888 7.168-78.848 7.168-117.76-1.024zM844.8 738.304c11.264 37.888 10.24 83.968-2.048 123.904-19.456 62.464-73.728 129.024-137.216 129.024-10.24 0-20.48-2.048-30.72-5.12-43.008-15.36-61.44-53.248-69.632-81.92 0-3.072-1.024-6.144-2.048-10.24-3.072-13.312-5.12-27.648-5.12-41.984 0-16.384 1.024-32.768 4.096-48.128 1.024-2.048 2.048-3.072 2.048-6.144 1.024-7.168 2.048-12.288 4.096-17.408 15.36-46.080 51.2-98.304 96.256-118.784 2.048-1.024 3.072-2.048 5.12-2.048 0 0 1.024 0 1.024 0 11.264-4.096 22.528-6.144 33.792-6.144 9.216 0 18.432 2.048 26.624 4.096 1.024 0 2.048 1.024 3.072 1.024 7.168 2.048 14.336 5.12 21.504 10.24 29.696 17.408 43.008 47.104 49.152 69.632zM932.864 514.048l-7.168 6.144c-35.84 26.624-77.824 43.008-122.88 47.104-4.096 0-8.192 2.048-10.24 5.12-3.072 3.072-4.096 7.168-3.072 11.264 2.048 13.312 3.072 27.648 3.072 40.96 0 3.072 0 6.144 0 9.216-2.048-1.024-5.12-2.048-7.168-3.072-13.312-5.12-26.624-7.168-39.936-7.168-1.024 0-3.072 0-4.096 0 0 0 0 0 0 0 0-66.56-37.888-128-100.352-164.864-4.096-3.072-9.216-3.072-13.312-1.024-35.84 15.36-73.728 23.552-113.664 23.552s-77.824-8.192-113.664-23.552c-4.096-2.048-9.216-1.024-13.312 1.024-62.464 36.864-100.352 98.304-100.352 164.864 0 1.024 0 1.024 0 2.048-1.024 0-3.072 0-4.096 0-13.312 0-26.624 3.072-39.936 7.168-2.048 1.024-5.12 2.048-7.168 3.072 0-4.096 0-9.216 0-13.312 0-13.312 1.024-27.648 3.072-40.96 0-4.096-1.024-8.192-3.072-11.264-3.072-3.072-6.144-5.12-10.24-5.12-46.080-3.072-89.088-19.456-124.928-47.104l-7.168-6.144c-19.456-15.36-31.744-38.912-31.744-64.512 0-44.032 35.84-79.872 79.872-79.872 28.672 0 57.344 7.168 82.944 19.456l82.944 40.96c6.144 3.072 13.312 2.048 17.408-4.096 3.072-6.144 3.072-13.312-2.048-18.432-41.984-40.96-64.512-95.232-64.512-150.528 0-15.36 2.048-30.72 5.12-46.080 2.048-7.168-2.048-13.312-8.192-16.384-31.744-13.312-53.248-44.032-53.248-78.848 0-47.104 37.888-84.992 84.992-84.992 26.624 0 51.2 12.288 67.584 32.768 4.096 6.144 12.288 8.192 18.432 4.096 41.984-24.576 90.112-36.864 140.288-36.864s98.304 12.288 141.312 38.912c6.144 3.072 14.336 2.048 18.432-4.096 16.384-21.504 40.96-33.792 67.584-33.792 47.104 0 84.992 37.888 84.992 84.992 0 34.816-20.48 65.536-53.248 78.848-6.144 3.072-10.24 9.216-8.192 16.384 3.072 15.36 5.12 30.72 5.12 46.080 0 55.296-22.528 108.544-63.488 149.504-4.096 5.12-5.12 13.312-1.024 18.432s11.264 7.168 17.408 4.096l79.872-38.912c25.6-12.288 54.272-19.456 82.944-19.456 44.032 0 79.872 35.84 79.872 79.872 0 25.6-11.264 49.152-31.744 64.512z"></path>
<path fill="#0e8035" d="M289.792 712.704c-8.192 0-15.36 1.024-23.552 4.096-31.744 10.24-45.056 37.888-51.2 58.368-7.168 24.576-7.168 53.248 1.024 78.848 13.312 41.984 50.176 84.992 95.232 84.992 8.192 0 15.36-1.024 23.552-4.096 31.744-10.24 45.056-37.888 51.2-58.368 7.168-24.576 7.168-53.248-1.024-78.848-13.312-41.984-50.176-84.992-95.232-84.992zM358.4 868.352c-5.12 20.48-16.384 34.816-32.768 39.936-5.12 1.024-9.216 2.048-14.336 2.048-29.696 0-57.344-32.768-67.584-64.512-6.144-20.48-6.144-44.032-1.024-63.488 5.12-20.48 16.384-34.816 32.768-39.936 5.12-1.024 9.216-2.048 14.336-2.048 29.696 0 58.368 32.768 67.584 64.512 6.144 20.48 6.144 44.032 1.024 63.488z"></path>
<path fill="#0e8035" d="M759.808 712.704c-7.168-3.072-15.36-4.096-23.552-4.096-45.056 0-81.92 43.008-95.232 84.992-7.168 24.576-8.192 54.272-1.024 78.848 6.144 20.48 19.456 47.104 51.2 58.368 7.168 3.072 15.36 4.096 23.552 4.096 45.056 0 81.92-43.008 95.232-84.992 7.168-24.576 8.192-54.272 1.024-78.848-6.144-20.48-19.456-47.104-51.2-58.368zM782.336 841.728c-9.216 31.744-37.888 64.512-67.584 64.512-5.12 0-9.216 0-14.336-2.048-15.36-6.144-26.624-19.456-32.768-39.936-6.144-19.456-5.12-43.008 1.024-63.488 9.216-31.744 37.888-64.512 67.584-64.512 4.096 0 9.216 1.024 14.336 2.048 15.36 6.144 26.624 19.456 32.768 39.936 6.144 19.456 5.12 43.008-1.024 63.488z"></path>
<path fill="#b71c24" d="M571.392 228.352c0-8.192-2.048-16.384-6.144-22.528-9.216-16.384-27.648-25.6-52.224-25.6-23.552 0-43.008 9.216-52.224 25.6-4.096 7.168-6.144 14.336-6.144 22.528-44.032 5.12-82.944 24.576-82.944 97.28 0 55.296 61.44 99.328 141.312 99.328 78.848 0 141.312-44.032 141.312-99.328 0-72.704-39.936-91.136-82.944-97.28zM514.048 396.288c-61.44 0-113.664-32.768-113.664-70.656 0-50.176 20.48-64.512 60.416-68.608 1.024 1.024 1.024 3.072 3.072 5.12 0 1.024 1.024 1.024 1.024 2.048 8.192 13.312 17.408 23.552 28.672 28.672 2.048 1.024 3.072 2.048 5.12 2.048v17.408c0 2.048 0 3.072 0 5.12-2.048 10.24-10.24 16.384-20.48 16.384-12.288 0-21.504-10.24-21.504-21.504 0-8.192-6.144-14.336-14.336-14.336s-14.336 6.144-14.336 14.336c0 26.624 21.504 49.152 49.152 49.152 14.336 0 26.624-6.144 35.84-14.336 9.216 9.216 21.504 14.336 34.816 14.336 27.648 0 50.176-22.528 51.2-49.152 0-8.192-6.144-14.336-14.336-14.336s-14.336 6.144-14.336 14.336c0 12.288-10.24 21.504-21.504 21.504-10.24 0-19.456-8.192-21.504-17.408 0-1.024 1.024-3.072 1.024-4.096v-16.384c13.312-4.096 25.6-14.336 34.816-30.72 2.048-3.072 3.072-5.12 4.096-8.192 38.912 4.096 60.416 17.408 60.416 68.608 0 37.888-52.224 70.656-113.664 70.656zM513.024 208.896c13.312 0 23.552 4.096 27.648 11.264 3.072 4.096 3.072 10.24 1.024 17.408v0c-1.024 4.096-3.072 8.192-5.12 12.288-6.144 11.264-15.36 18.432-23.552 18.432s-16.384-6.144-23.552-18.432c-2.048-4.096-4.096-8.192-5.12-12.288l-1.024-4.096c-1.024-5.12 0-9.216 2.048-13.312 4.096-7.168 14.336-11.264 27.648-11.264z"></path>
<path fill="#b71c24" d="M406.528 198.656c12.288 0 21.504-9.216 21.504-21.504s-9.216-21.504-21.504-21.504-21.504 9.216-21.504 21.504 9.216 21.504 21.504 21.504zM406.528 169.984c4.096 0 6.144 3.072 6.144 6.144s-2.048 6.144-6.144 6.144c-3.072 0-6.144-3.072-6.144-6.144s2.048-6.144 6.144-6.144z"></path>
<path fill="#b71c24" d="M619.52 198.656c11.264 0 21.504-9.216 21.504-21.504s-9.216-21.504-21.504-21.504-21.504 9.216-21.504 21.504 9.216 21.504 21.504 21.504zM619.52 169.984c3.072 0 6.144 3.072 6.144 6.144s-2.048 6.144-6.144 6.144c-3.072 0-6.144-3.072-6.144-6.144s2.048-6.144 6.144-6.144z"></path>
</svg>
