<?xml version="1.0" encoding="utf-8"?>
<!-- Generator: Adobe Illustrator 18.1.1, SVG Export Plug-In . SVG Version: 6.00 Build 0)  -->
<svg version="1.1" id="Слой_1" xmlns="http://www.w3.org/2000/svg" xmlns:xlink="http://www.w3.org/1999/xlink" x="0px" y="0px"
	 viewBox="0 0 100 100" enable-background="new 0 0 100 100" xml:space="preserve">
<g opacity="0.5">
	<g>
		<path fill="#0E8035" d="M75.6,72.5c-0.6-0.2-1.2-0.3-1.8-0.3c-3.7,0-6.8,3.7-7.9,7.2c-0.7,2.2-0.7,4.8-0.1,6.9
			c0.5,1.7,1.6,3.9,4.1,4.8c0.6,0.2,1.2,0.3,1.8,0.3c3.7,0,6.8-3.7,7.9-7.2c0.7-2.2,0.7-4.8,0.1-6.9C79.2,75.6,78.1,73.4,75.6,72.5z
			"/>
	</g>
	<g>
		<path fill="#0E8035" d="M30.6,72.6c-0.6,0-1.2,0.1-1.8,0.3c-2.5,0.9-3.6,3.1-4.1,4.8c-0.6,2.1-0.6,4.7,0.1,6.9
			c1.1,3.5,4.2,7.2,7.9,7.2c0.6,0,1.2-0.1,1.8-0.3c2.5-0.9,3.6-3.1,4.1-4.8c0.6-2.1,0.6-4.7-0.1-6.9C37.3,76.3,34.2,72.6,30.6,72.6z
			"/>
	</g>
	<g>
		<path fill="#B71C24" d="M88,36.6c-3,0-6,0.7-8.7,2l-7.7,3.8c4.1-4.1,6.5-9.5,6.5-15.4c0-1.6-0.2-3.2-0.6-4.8c3.5-1.4,6-4.9,6-8.9
			c0-5.3-4.3-9.6-9.6-9.6c-3.1,0-5.9,1.5-7.6,3.8c-4.1-2.4-9-3.8-14.3-3.8S42,5.1,37.9,7.5c-1.8-2.3-4.5-3.8-7.6-3.8
			c-5.3,0-9.6,4.3-9.6,9.6c0,4,2.5,7.5,6,8.9c-0.4,1.5-0.6,3.2-0.6,4.8c0,6,2.5,11.4,6.7,15.6l-8.1-4c-2.7-1.3-5.7-2-8.7-2
			c-5,0-9.1,4.1-9.1,9.1c0,2.9,1.4,5.6,3.7,7.3l0.7,0.5c3.7,2.8,8.1,4.5,12.7,4.8c-0.2,1.4-0.3,2.8-0.3,4.2c0,1.2,0.1,2.4,0.2,3.5
			c-3.1,2-4.6,5.1-5.3,7.7c-1.1,3.9-1,8.7,0.2,12.8c2,6.5,7.8,13.4,14.6,13.4c1.1,0,2.3-0.2,3.4-0.6c4.7-1.6,6.7-5.7,7.6-8.8
			c0.1-0.5,0.3-1,0.4-1.5c2.3,0.6,4.8,0.9,7.3,0.9c2.5,0,5-0.3,7.4-0.9c0.1,0.4,0.2,0.7,0.3,1.1c0.9,3.1,2.9,7.2,7.6,8.8
			c1.1,0.4,2.3,0.6,3.4,0.6c6.8,0,12.6-6.9,14.6-13.4c1.3-4.1,1.3-8.8,0.2-12.8c-0.7-2.5-2.2-5.7-5.2-7.7c0.1-1,0.2-2.1,0.2-3.1
			c0-1.4-0.1-2.8-0.3-4.2c4.5-0.4,8.9-2.1,12.6-4.8l0.7-0.5c2.3-1.7,3.7-4.4,3.7-7.3C97.2,40.7,93.1,36.6,88,36.6z M48,25.7
			c0.1,0.5,0.3,1,0.6,1.5h0c1.9,3.3,5.1,3.3,7,0h0c0.3-0.5,0.5-1,0.6-1.5c4.8,0.3,8.2,1.7,8.2,8.1c0,4.5-5.5,8.2-12.3,8.2
			s-12.3-3.7-12.3-8.2C39.8,27.4,43.2,26,48,25.7z M38.6,86.7c-0.5,1.7-1.6,3.9-4.1,4.8c-0.6,0.2-1.2,0.3-1.8,0.3
			c-3.7,0-6.8-3.7-7.9-7.2c-0.7-2.2-0.7-4.8-0.1-6.9c0.5-1.7,1.6-3.9,4.1-4.8c0.6-0.2,1.2-0.3,1.8-0.3c3.7,0,6.8,3.7,7.9,7.2
			C39.1,82,39.2,84.6,38.6,86.7z M60,77.4c-0.2,0.6-0.3,1.2-0.5,1.8c-2.3,0.8-4.8,1.2-7.4,1.2c-2.6,0-5.2-0.4-7.5-1.2
			c-0.1-0.5-0.2-0.9-0.4-1.4c-1.8-5.8-6.7-12-12.6-13.2c-0.1-0.7-0.1-1.3-0.1-2c0-6.1,3.6-11.6,9-14.8c3.5,1.5,7.4,2.4,11.5,2.4
			s8-0.9,11.5-2.4c5.5,3.2,9,8.6,9,14.8c0,0.5,0,1.1-0.1,1.6C66.7,65.4,61.8,71.6,60,77.4z M79.5,84.2c-1.1,3.5-4.2,7.2-7.9,7.2
			c-0.6,0-1.2-0.1-1.8-0.3c-2.5-0.9-3.6-3.1-4.1-4.8c-0.6-2.1-0.6-4.7,0.1-6.9c1.1-3.5,4.2-7.2,7.9-7.2c0.6,0,1.2,0.1,1.8,0.3
			c2.5,0.9,3.6,3.1,4.1,4.8C80.2,79.4,80.2,82,79.5,84.2z"/>
	</g>
</g>
<g>
	<path fill="#B71C24" d="M49.4,89c-2.6,0-5.1-0.3-7.6-1c-0.7-0.2-1.1-0.9-1-1.6c0.7-3.4,0.5-7.3-0.6-10.6c-1.9-6-7.2-12.4-13.3-12.4
		c-1,0-2,0.2-3,0.5c-0.7,0.2-1.3,0.5-2,1c-0.4,0.3-0.9,0.3-1.3,0.1c-0.4-0.2-0.7-0.6-0.8-1.1c-0.2-1.3-0.2-2.5-0.2-3.7
		c0-1,0.1-2,0.2-3c-4.4-0.6-8.5-2.3-12-5L7,51.8c-2.6-2-4.2-5.1-4.2-8.4c0-5.8,4.7-10.5,10.5-10.5c3.2,0,6.4,0.7,9.3,2.2l2.7,1.3
		c-2.1-3.6-3.3-7.6-3.3-11.7c0-1.3,0.1-2.7,0.4-4c-3.6-1.9-5.8-5.6-5.8-9.7c0-6,4.9-11,11-11c3.1,0,5.9,1.2,8,3.4
		c4.2-2.3,9-3.4,14-3.4s9.7,1.2,14,3.4c2.1-2.2,4.9-3.4,8-3.4c6,0,11,4.9,11,11c0,4.1-2.3,7.8-5.8,9.7c0.2,1.3,0.4,2.7,0.4,4
		c0,4.1-1.1,8-3.2,11.6L76,35c2.9-1.4,6.1-2.2,9.3-2.2c5.8,0,10.5,4.7,10.5,10.5c0,3.3-1.6,6.4-4.2,8.4l-0.7,0.5
		c-3.5,2.6-7.5,4.3-11.8,4.9c0.1,1,0.2,2,0.2,3c0,1.1-0.1,2.1-0.2,3.3c-0.1,0.5-0.3,0.9-0.8,1.1c-0.4,0.2-0.9,0.2-1.3-0.1
		c-0.7-0.5-1.4-0.8-2-1c-1-0.3-2-0.5-3-0.5c-6.1,0-11.4,6.4-13.3,12.4c-1.1,3.5-1.2,7.5-0.5,11c0.2,0.7-0.3,1.4-1,1.6
		C54.6,88.7,52,89,49.4,89z M43.7,85.7c3.8,0.8,7.7,0.8,11.5,0c-0.6-3.6-0.3-7.6,0.8-11.1c2.2-7,8.5-14.4,15.9-14.4
		c1.3,0,2.6,0.2,3.9,0.7c0.2,0.1,0.5,0.2,0.7,0.3c0-0.3,0-0.6,0-0.9c0-1.3-0.1-2.7-0.3-4c-0.1-0.4,0-0.8,0.3-1.1
		c0.2-0.3,0.6-0.5,1-0.5c4.3-0.4,8.4-2,11.9-4.6l0.7-0.5c1.9-1.5,3.1-3.8,3.1-6.2c0-4.3-3.5-7.8-7.8-7.8c-2.8,0-5.6,0.6-8.1,1.9
		l-7.7,3.8c-0.6,0.3-1.3,0.1-1.7-0.4s-0.3-1.3,0.1-1.8c4-4,6.1-9.1,6.1-14.4c0-1.5-0.2-3-0.5-4.5c-0.2-0.7,0.2-1.3,0.8-1.6
		c3.1-1.3,5.2-4.3,5.2-7.6c0-4.5-3.7-8.2-8.2-8.2c-2.6,0-5,1.2-6.6,3.3c-0.4,0.6-1.2,0.7-1.8,0.4c-4-2.4-8.7-3.6-13.6-3.6
		S39.9,4,35.8,6.4C35.2,6.7,34.5,6.6,34,6c-1.6-2.1-4-3.3-6.6-3.3c-4.5,0-8.2,3.7-8.2,8.2c0,3.4,2,6.4,5.2,7.6
		c0.6,0.3,1,0.9,0.8,1.6c-0.3,1.5-0.5,3-0.5,4.5c0,5.4,2.2,10.6,6.3,14.6c0.5,0.5,0.5,1.2,0.1,1.8c-0.4,0.5-1.1,0.7-1.7,0.4l-8.1-4
		c-2.5-1.2-5.3-1.9-8.1-1.9c-4.3,0-7.8,3.5-7.8,7.8c0,2.4,1.2,4.8,3.1,6.2l0.7,0.5c3.5,2.6,7.7,4.2,12,4.6c0.4,0,0.7,0.2,1,0.5
		c0.2,0.3,0.3,0.7,0.3,1.1c-0.2,1.3-0.3,2.7-0.3,4c0,0.4,0,0.9,0,1.3c0.2-0.1,0.4-0.2,0.7-0.3c1.3-0.4,2.6-0.7,3.9-0.7
		c7.4,0,13.8,7.4,15.9,14.4C43.9,78.4,44.2,82.2,43.7,85.7z"/>
</g>
<g>
	<path fill="#FFFFFF" d="M69.9,61.9c0.1-0.5,0.1-1.1,0.1-1.6c0-6.1-3.6-11.6-9-14.8c-3.5,1.5-7.4,2.4-11.5,2.4s-8-0.9-11.5-2.4
		c-5.5,3.2-9,8.6-9,14.8c0,0.7,0.1,1.3,0.1,2c5.9,1.2,10.7,7.4,12.6,13.2c0.1,0.5,0.3,0.9,0.4,1.4c2.3,0.8,4.8,1.2,7.5,1.2
		c2.6,0,5.1-0.4,7.4-1.2c0.1-0.6,0.3-1.2,0.5-1.8C59.1,69.2,64,63,69.9,61.9z"/>
	<path fill="#B71C24" d="M49.4,79.5c-2.7,0-5.4-0.4-7.9-1.3c-0.4-0.2-0.8-0.5-0.9-1c-0.1-0.4-0.2-0.9-0.4-1.3
		c-1.6-5.2-6.1-11.1-11.5-12.2c-0.6-0.1-1-0.6-1.1-1.2c-0.1-0.8-0.1-1.5-0.1-2.2c0-6.4,3.6-12.4,9.7-15.9c0.4-0.2,0.8-0.2,1.2-0.1
		c3.5,1.5,7.1,2.3,11,2.3c3.8,0,7.5-0.8,11-2.3c0.4-0.2,0.9-0.2,1.2,0.1c6.1,3.6,9.7,9.5,9.7,15.9c0,0.5,0,1.1-0.1,1.7
		c-0.1,0.6-0.5,1.1-1.1,1.2c-5.4,1.1-9.9,7-11.6,12.3c-0.2,0.5-0.3,1-0.4,1.7c-0.1,0.5-0.4,0.9-0.9,1C54.7,79,52.1,79.5,49.4,79.5z
		 M43.1,75.8c4.1,1.2,8.5,1.2,12.6,0c0.1-0.4,0.2-0.8,0.3-1.2c1.7-5.6,6.3-12.1,12.6-13.9c0-0.2,0-0.3,0-0.5
		c0-5.2-2.9-10.1-7.8-13.2c-3.6,1.5-7.4,2.3-11.4,2.3s-7.8-0.8-11.4-2.3c-4.9,3.1-7.8,8-7.8,13.2c0,0.3,0,0.6,0,0.9
		C36.5,63,41.1,69.5,42.9,75C42.9,75.3,43,75.5,43.1,75.8z"/>
</g>
<g>
	<path fill="#0E8035" d="M24.6,15.2c-0.4,0-0.7-0.1-1-0.4c-2.1-2.1-2.1-5.6,0-7.7c2.1-2.1,5.6-2.1,7.7,0c0.5,0.5,0.5,1.4,0,1.9
		c-0.5,0.5-1.4,0.5-1.9,0C28.4,8,26.6,8,25.5,9c-1.1,1.1-1.1,2.8,0,3.9c0.5,0.5,0.5,1.4,0,1.9C25.3,15.1,24.9,15.2,24.6,15.2z"/>
</g>
<g>
	<path fill="#0E8035" d="M74.2,15.2c-0.4,0-0.7-0.1-1-0.4c-0.5-0.5-0.5-1.4,0-1.9c0.5-0.5,0.8-1.2,0.8-1.9c0-0.7-0.3-1.4-0.8-1.9
		c-1-1-2.8-1-3.9,0c-0.5,0.5-1.4,0.5-1.9,0s-0.5-1.4,0-1.9c2.1-2.1,5.6-2.1,7.7,0c1,1,1.6,2.4,1.6,3.9s-0.6,2.8-1.6,3.9
		C74.9,15.1,74.6,15.2,74.2,15.2z"/>
</g>
<g>
	<path fill="#B71C24" d="M30.8,99c-7.4,0-13.8-7.4-15.9-14.4c-1.3-4.3-1.4-9.4-0.2-13.6c0.7-2.6,2.4-6.2,5.9-8.5
		c0.9-0.6,1.7-1,2.6-1.3c1.3-0.4,2.6-0.7,3.9-0.7c7.4,0,13.8,7.4,15.9,14.4c1.2,3.8,1.4,8.1,0.6,12c-0.1,0.5-0.2,1.1-0.4,1.6
		c-1,3.4-3.2,7.9-8.5,9.7C33.4,98.8,32.1,99,30.8,99z M26.9,63.4c-1,0-2,0.2-3,0.5c-0.7,0.2-1.3,0.5-2,1c-2.8,1.8-4.1,4.7-4.7,6.9
		c-1,3.7-1,8.2,0.2,12c1.9,6,7.2,12.4,13.3,12.4c1,0,2-0.2,3-0.5c4.1-1.4,5.9-5.1,6.7-7.9c0.1-0.5,0.2-0.9,0.3-1.4
		c0.7-3.4,0.5-7.3-0.6-10.6C38.4,69.8,33.1,63.4,26.9,63.4z"/>
</g>
<g>
	<path fill="#B71C24" d="M68,98.6c-1.3,0-2.6-0.2-3.9-0.7c-5.2-1.8-7.5-6.3-8.5-9.7c-0.1-0.4-0.2-0.7-0.3-1.1
		c-0.9-4.1-0.7-8.6,0.5-12.5c2.2-7,8.5-14.4,15.9-14.4c1.3,0,2.6,0.2,3.9,0.7c0.9,0.3,1.7,0.7,2.6,1.3c3.5,2.3,5.1,5.8,5.8,8.4
		c1.2,4.2,1.1,9.3-0.2,13.6C81.8,91.2,75.5,98.6,68,98.6z M71.9,63c-6.1,0-11.4,6.4-13.3,12.4c-1.1,3.5-1.2,7.5-0.5,11
		c0.1,0.4,0.2,0.7,0.2,1c0.8,2.8,2.6,6.5,6.7,7.9c1,0.3,2,0.5,3,0.5c6.1,0,11.4-6.4,13.3-12.4c1.2-3.8,1.3-8.3,0.2-12
		c-0.6-2.1-1.9-5.1-4.7-6.9c-0.7-0.5-1.4-0.8-2-1C73.9,63.2,72.9,63,71.9,63z"/>
</g>
<g>
	<path fill="#0E8035" d="M29.9,90.8c-4.4,0-7.9-4.1-9.2-8.2c-0.8-2.4-0.8-5.3-0.1-7.7c0.6-2,1.9-4.6,5-5.7c0.7-0.3,1.5-0.4,2.3-0.4
		c4.4,0,7.9,4.1,9.2,8.2c0.8,2.4,0.8,5.3,0.1,7.7c-0.8,2.9-2.5,4.8-5,5.7C31.4,90.7,30.7,90.8,29.9,90.8z M27.8,71.6
		c-0.5,0-0.9,0.1-1.4,0.2c-1.6,0.5-2.7,1.8-3.2,3.8c-0.5,1.9-0.5,4.2,0.1,6.1c1,3.1,3.7,6.3,6.6,6.3c0.5,0,0.9-0.1,1.4-0.2
		c1.6-0.5,2.6-1.8,3.2-3.8c0.5-1.9,0.5-4.2-0.1-6.1C33.4,74.8,30.7,71.6,27.8,71.6z"/>
</g>
<g>
	<path fill="#0E8035" d="M68.9,90.4c-0.8,0-1.5-0.1-2.3-0.4c-2.4-0.8-4.1-2.8-5-5.7c-0.7-2.4-0.6-5.2,0.1-7.7
		c1.3-4.1,4.8-8.2,9.2-8.2c0.8,0,1.5,0.1,2.3,0.4c2.4,0.8,4.1,2.8,5,5.7c0.7,2.4,0.6,5.2-0.1,7.7C76.8,86.3,73.3,90.4,68.9,90.4z
		 M71,71.2c-2.9,0-5.6,3.2-6.6,6.3c-0.6,1.9-0.6,4.2-0.1,6.1c0.6,2,1.6,3.3,3.2,3.8c0.5,0.2,0.9,0.2,1.4,0.2c2.9,0,5.6-3.2,6.6-6.3
		c0.6-1.9,0.6-4.2,0.1-6.1c-0.6-2-1.6-3.3-3.2-3.8C71.9,71.3,71.4,71.2,71,71.2z"/>
</g>
<g>
	<path fill="#FFFFFF" d="M53.5,23.4c-0.1,0.5-0.3,1-0.6,1.5h0c-1.9,3.3-5.1,3.3-7,0h0c-0.3-0.5-0.5-1-0.6-1.5
		c-4.8,0.3-8.2,1.7-8.2,8.1c0,4.5,5.5,8.2,12.3,8.2s12.3-3.7,12.3-8.2C61.7,25.1,58.3,23.7,53.5,23.4z"/>
	<path fill="#B71C24" d="M49.4,41.1c-7.7,0-13.7-4.2-13.7-9.6c0-7.8,4.8-9.2,9.5-9.5l1.1-0.1l0.3,1.1c0.1,0.4,0.3,0.8,0.5,1.2
		c0.7,1.2,1.5,1.8,2.3,1.8c0.8,0,1.6-0.7,2.3-1.8c0.2-0.4,0.4-0.8,0.5-1.2l0.3-1.1l1.1,0.1c4.7,0.3,9.5,1.7,9.5,9.5
		C63.1,36.9,57.1,41.1,49.4,41.1z M44.3,24.8c-3.8,0.4-5.9,1.8-5.9,6.7c0,3.7,5,6.8,11,6.8s11-3.1,11-6.8c0-4.9-2.1-6.3-5.9-6.7
		c-0.1,0.3-0.2,0.5-0.4,0.8c-1.2,2-2.8,3.2-4.7,3.2c-1.8,0-3.5-1.1-4.7-3.2C44.6,25.3,44.5,25.1,44.3,24.8z"/>
</g>
<g>
	<path fill="#B71C24" d="M52.8,34.9c-2.6,0-4.8-2.2-4.8-4.8v-2.7c0-0.8,0.6-1.4,1.4-1.4c0.8,0,1.4,0.6,1.4,1.4v2.7
		c0,1.1,0.9,2.1,2.1,2.1s2.1-0.9,2.1-2.1c0-0.8,0.6-1.4,1.4-1.4c0.8,0,1.4,0.6,1.4,1.4C57.6,32.8,55.5,34.9,52.8,34.9z"/>
</g>
<g>
	<path fill="#B71C24" d="M46,34.9c-2.6,0-4.8-2.2-4.8-4.8c0-0.8,0.6-1.4,1.4-1.4c0.8,0,1.4,0.6,1.4,1.4c0,1.1,0.9,2.1,2.1,2.1
		s2.1-0.9,2.1-2.1v-2.7c0-0.8,0.6-1.4,1.4-1.4c0.8,0,1.4,0.6,1.4,1.4v2.7C50.8,32.8,48.6,34.9,46,34.9z"/>
</g>
<g>
	<path fill="#B71C24" d="M49.4,28.8c-1.8,0-3.5-1.1-4.7-3.2c-1.2-2.1-1.3-4.1-0.4-5.6c0.9-1.6,2.7-2.5,5.1-2.5
		c2.4,0,4.2,0.9,5.1,2.5c0.9,1.6,0.8,3.6-0.4,5.6C52.9,27.6,51.2,28.8,49.4,28.8z M49.4,20.2c-1.3,0-2.3,0.4-2.7,1.1
		c-0.4,0.7-0.2,1.8,0.4,2.9c0.7,1.2,1.5,1.8,2.3,1.8c0.8,0,1.6-0.7,2.3-1.8c0.7-1.2,0.8-2.2,0.4-2.9C51.7,20.6,50.7,20.2,49.4,20.2z
		"/>
</g>
<g>
	<path fill="#B71C24" d="M39.1,19.2c-1.2,0-2.1-0.9-2.1-2.1S38,15,39.1,15c1.2,0,2.1,0.9,2.1,2.1S40.3,19.2,39.1,19.2z M39.1,16.5
		c-0.4,0-0.6,0.3-0.6,0.6c0,0.4,0.3,0.6,0.6,0.6c0.4,0,0.6-0.3,0.6-0.6C39.8,16.8,39.5,16.5,39.1,16.5z"/>
</g>
<g>
	<path fill="#B71C24" d="M59.7,19.2c-1.2,0-2.1-0.9-2.1-2.1s0.9-2.1,2.1-2.1c1.2,0,2.1,0.9,2.1,2.1S60.8,19.2,59.7,19.2z M59.7,16.5
		c-0.4,0-0.6,0.3-0.6,0.6c0,0.4,0.3,0.6,0.6,0.6c0.4,0,0.6-0.3,0.6-0.6C60.3,16.8,60,16.5,59.7,16.5z"/>
</g>
</svg>
