<?xml version="1.0" encoding="utf-8"?>
<!-- Generated by IcoMoon.io -->
<!DOCTYPE svg PUBLIC "-//W3C//DTD SVG 1.1//EN" "http://www.w3.org/Graphics/SVG/1.1/DTD/svg11.dtd">
<svg version="1.1" xmlns="http://www.w3.org/2000/svg" xmlns:xlink="http://www.w3.org/1999/xlink" width="1024" height="1024" viewBox="0 0 1024 1024">
<g id="icomoon-ignore">
</g>
<path fill="#0e8035" d="M428.032 761.856c0 1.024 1.024 1.024 1.024 2.048 0 0 0 0 0 0s1.024 1.024 1.024 1.024c0 0 0 0 0 0s1.024 1.024 1.024 1.024c0 0 0 0 0 0s1.024 1.024 1.024 1.024c0 0 0 0 0 0s1.024 1.024 1.024 1.024c0 0 0 0 0 0 1.024 0 1.024 0 2.048 1.024 0 0 0 0 0 0s1.024 0 2.048 0c0 0 0 0 0 0 1.024 0 1.024 0 2.048 0 0 0 0 0 0 0s0 0 0 0h140.288c0 0 0 0 0 0s0 0 0 0c1.024 0 1.024 0 2.048 0 0 0 0 0 0 0s1.024 0 1.024 0c0 0 0 0 0 0 1.024 0 1.024 0 2.048-1.024 0 0 0 0 0 0 1.024 0 1.024-1.024 2.048-1.024 0 0 0 0 0 0s1.024-1.024 1.024-1.024c0 0 0 0 0 0s1.024-1.024 1.024-1.024c0 0 0 0 0 0s1.024-1.024 1.024-1.024c0 0 0 0 0 0 0-1.024 1.024-1.024 1.024-2.048 0 0 0 0 0 0l115.712-226.304c4.096-7.168 1.024-17.408-7.168-20.48-7.168-4.096-17.408-1.024-21.504 7.168l-105.472 217.088h-45.056v-119.808c0-8.192-7.168-15.36-15.36-15.36s-15.36 7.168-15.36 15.36v119.808h-45.056l-106.496-218.112c-4.096-8.192-13.312-11.264-20.48-7.168-8.192 4.096-11.264 13.312-7.168 20.48l110.592 227.328c0 0 0 0 0 0z"></path>
<path fill="#0e8035" d="M582.656 858.112h-141.312c-8.192 0-15.36 7.168-15.36 15.36v135.168c0 8.192 7.168 15.36 15.36 15.36s15.36-7.168 15.36-15.36v-119.808h38.912v119.808c0 8.192 7.168 15.36 15.36 15.36s15.36-7.168 15.36-15.36v-119.808h38.912v119.808c0 8.192 7.168 15.36 15.36 15.36s15.36-7.168 15.36-15.36v-135.168c2.048-9.216-5.12-15.36-13.312-15.36z"></path>
<path fill="#0e8035" d="M579.584 798.72h-135.168c-8.192 0-15.36 7.168-15.36 15.36s7.168 15.36 15.36 15.36h135.168c8.192 0 15.36-7.168 15.36-15.36s-7.168-15.36-15.36-15.36z"></path>
<path fill="#0e8035" d="M645.12 802.816c0 0 0 0 0 0-1.024 0-1.024 0 0 0-1.024-1.024-1.024-1.024-2.048-1.024 0 0 0 0-1.024 0 0 0 0 0-1.024 0 0 0 0 0 0 0s-1.024 0-1.024 0c0 0 0 0-1.024 0 0 0-1.024 0-1.024 0s0 0-1.024 0c0 0-1.024 0-1.024 0s0 0-1.024 0c0 0 0 0-1.024 0 0 0 0 0-1.024 0 0 0 0 0-1.024 0 0 0 0 0-1.024 0 0 0-1.024 0-1.024 0s0 0-1.024 0c0 0-1.024 0-1.024 0s0 0 0 0 0 0 0 0-1.024 0-1.024 0c0 0 0 0-1.024 0 0 0-1.024 0-1.024 0s0 0-1.024 0c0 0 0 0-1.024 0 0 0 0 0-1.024 0 0 0 0 0-1.024 0 0 0 0 0-1.024 0 0 0 0 0 0 0s-1.024 0-1.024 1.024c0 0 0 0 0 0s0 0-1.024 1.024c0 0 0 0 0 0s0 0 0 0 0 0-1.024 1.024c0 0 0 0 0 1.024 0 0 0 0 0 1.024 0 0 0 0 0 1.024 0 0 0 0 0 1.024 0 0 0 1.024 0 1.024s0 0 0 1.024c0 0 0 0 0 1.024 0 0 0 0 0 1.024 0 0 0 0 0 1.024 0 0 0 1.024 0 1.024s0 0 0 1.024c0 0 0 1.024 0 1.024s0 0 0 1.024c0 0 0 1.024 0 1.024s0 0 0 1.024c0 0 0 0 0 1.024 0 0 0 1.024 0 1.024s0 0 0 0l16.384 103.424c1.024 7.168 8.192 13.312 15.36 13.312 1.024 0 2.048 0 2.048 0 8.192-1.024 14.336-9.216 13.312-17.408l-6.144-61.44 34.816 34.816c3.072 3.072 7.168 5.12 11.264 5.12s8.192-1.024 11.264-4.096c6.144-6.144 6.144-16.384 0-22.528l-69.632-70.656z"></path>
<path fill="#b71c24" d="M431.104 244.736c11.264-6.144 21.504-14.336 29.696-25.6 2.048-3.072 4.096-5.12 5.12-8.192-9.216-10.24-15.36-22.528-19.456-34.816-1.024 9.216-4.096 17.408-10.24 25.6-7.168 9.216-16.384 16.384-27.648 19.456 9.216 6.144 16.384 14.336 22.528 23.552z"></path>
<path fill="#b71c24" d="M394.24 118.784c11.264 0 21.504 3.072 30.72 10.24 7.168 5.12 12.288 12.288 16.384 19.456-1.024-13.312 1.024-26.624 6.144-38.912-2.048-1.024-3.072-3.072-5.12-4.096-14.336-10.24-30.72-15.36-48.128-15.36-26.624 0-51.2 12.288-66.56 33.792-6.144 9.216-11.264 19.456-13.312 29.696 3.072 2.048 5.12 3.072 8.192 5.12 7.168 5.12 14.336 11.264 19.456 18.432-1.024-13.312 2.048-25.6 10.24-36.864 9.216-13.312 25.6-21.504 41.984-21.504z"></path>
<path fill="#b71c24" d="M267.264 112.64c10.24-13.312 25.6-21.504 43.008-21.504 4.096 0 8.192 0 12.288 1.024 1.024 0 2.048 0 3.072 0 3.072 0 6.144-1.024 9.216-3.072 3.072-3.072 6.144-6.144 6.144-11.264 1.024-10.24 4.096-19.456 10.24-27.648 10.24-13.312 25.6-21.504 43.008-21.504 11.264 0 22.528 3.072 30.72 10.24 12.288 9.216 20.48 23.552 21.504 38.912 0 4.096 2.048 8.192 6.144 11.264 1.024 1.024 1.024 1.024 2.048 1.024 2.048-3.072 3.072-5.12 5.12-8.192 4.096-5.12 8.192-10.24 13.312-15.36 0 0 1.024-1.024 1.024-1.024s0-1.024-1.024-4.096c0-1.024-1.024-2.048-1.024-2.048-5.12-18.432-15.36-33.792-30.72-45.056-14.336-10.24-30.72-15.36-48.128-15.36-26.624 0-51.2 12.288-66.56 33.792-5.12 9.216-9.216 18.432-12.288 28.672-1.024 0-3.072 0-4.096 0-26.624 0-51.2 12.288-66.56 33.792-10.24 14.336-15.36 31.744-15.36 49.152 9.216-3.072 19.456-5.12 29.696-6.144 1.024-9.216 4.096-18.432 9.216-25.6z"></path>
<path fill="#b71c24" d="M310.272 263.168c-14.336-10.24-30.72-15.36-48.128-15.36-26.624 0-51.2 12.288-66.56 33.792-13.312 17.408-18.432 39.936-14.336 61.44 3.072 21.504 15.36 40.96 32.768 53.248 14.336 10.24 30.72 15.36 48.128 15.36 26.624 0 51.2-12.288 66.56-33.792 26.624-36.864 18.432-88.064-18.432-114.688zM304.128 360.448c-10.24 13.312-25.6 21.504-43.008 21.504-11.264 0-21.504-3.072-30.72-10.24-11.264-8.192-18.432-20.48-21.504-33.792-2.048-14.336 1.024-27.648 9.216-38.912 10.24-13.312 25.6-21.504 43.008-21.504 11.264 0 21.504 3.072 30.72 10.24 24.576 16.384 29.696 49.152 12.288 72.704z"></path>
<path fill="#b71c24" d="M708.608 153.6c-4.096-19.456-15.36-36.864-31.744-49.152-14.336-10.24-30.72-15.36-48.128-15.36-26.624 0-51.2 12.288-66.56 33.792-13.312 17.408-18.432 39.936-14.336 61.44 3.072 21.504 15.36 40.96 32.768 53.248 4.096 3.072 8.192 5.12 12.288 7.168 1.024-1.024 2.048-2.048 2.048-3.072 5.12-7.168 12.288-14.336 19.456-20.48-6.144-2.048-11.264-4.096-16.384-8.192-11.264-8.192-18.432-20.48-21.504-33.792-2.048-14.336 1.024-27.648 9.216-38.912 10.24-13.312 25.6-21.504 43.008-21.504 11.264 0 21.504 3.072 30.72 10.24 16.384 12.288 23.552 31.744 21.504 50.176 7.168-10.24 16.384-19.456 27.648-25.6z"></path>
<path fill="#b71c24" d="M495.616 210.944c1.024 1.024 2.048 2.048 3.072 2.048-4.096 11.264-6.144 23.552-5.12 34.816 6.144-1.024 12.288-2.048 18.432-2.048 4.096 0 7.168 0 11.264 1.024-1.024-11.264 2.048-22.528 8.192-31.744 2.048-4.096 3.072-8.192 1.024-12.288-1.024-4.096-4.096-7.168-8.192-9.216s-8.192-4.096-11.264-6.144c-23.552-17.408-28.672-50.176-11.264-73.728 10.24-13.312 25.6-21.504 43.008-21.504 4.096 0 8.192 0 12.288 1.024 1.024 0 2.048 0 3.072 0 3.072 0 6.144-1.024 9.216-3.072 3.072-3.072 6.144-6.144 6.144-11.264 1.024-10.24 4.096-19.456 10.24-27.648 10.24-13.312 25.6-21.504 43.008-21.504 11.264 0 22.528 3.072 30.72 10.24 12.288 9.216 20.48 23.552 21.504 38.912 0 4.096 3.072 8.192 6.144 11.264 3.072 1.024 6.144 2.048 9.216 2.048 1.024 0 2.048 0 3.072 0 4.096-1.024 8.192-2.048 12.288-2.048 11.264 0 21.504 3.072 30.72 10.24 12.288 9.216 20.48 22.528 21.504 37.888 10.24 0 20.48 2.048 29.696 5.12 0-25.6-12.288-50.176-33.792-66.56-14.336-10.24-30.72-15.36-48.128-15.36-1.024 0-3.072 0-4.096 0-5.12-18.432-15.36-33.792-30.72-45.056-14.336-10.24-30.72-15.36-48.128-15.36-26.624 0-51.2 12.288-66.56 33.792-6.144 8.192-10.24 17.408-13.312 26.624-1.024 0-3.072 0-4.096 0-26.624 0-51.2 12.288-66.56 33.792-27.648 36.864-19.456 88.064 17.408 115.712z"></path>
<path fill="#b71c24" d="M713.728 395.264c14.336 10.24 30.72 15.36 48.128 15.36 26.624 0 51.2-12.288 66.56-33.792 13.312-17.408 18.432-39.936 14.336-61.44-3.072-21.504-15.36-40.96-32.768-53.248-14.336-10.24-30.72-15.36-48.128-15.36-26.624 0-51.2 12.288-66.56 33.792-13.312 17.408-18.432 39.936-14.336 61.44 3.072 21.504 15.36 40.96 32.768 53.248zM719.872 297.984c10.24-13.312 25.6-21.504 43.008-21.504 11.264 0 21.504 3.072 30.72 10.24 11.264 8.192 18.432 20.48 21.504 33.792 2.048 14.336-1.024 27.648-9.216 38.912-10.24 13.312-25.6 21.504-43.008 21.504-11.264 0-21.504-3.072-30.72-10.24-11.264-8.192-18.432-20.48-21.504-33.792s1.024-27.648 9.216-38.912z"></path>
<path fill="#b71c24" d="M894.976 235.52c-14.336-10.24-30.72-15.36-48.128-15.36-1.024 0-3.072 0-4.096 0-5.12-18.432-15.36-33.792-30.72-45.056-14.336-10.24-30.72-15.36-48.128-15.36-26.624 0-51.2 12.288-66.56 33.792-6.144 8.192-10.24 17.408-13.312 26.624-1.024 0-3.072 0-4.096 0-26.624 0-51.2 12.288-66.56 33.792-7.168 9.216-11.264 20.48-14.336 31.744 3.072 5.12 6.144 10.24 9.216 16.384 6.144 1.024 13.312 2.048 19.456 4.096-1.024-11.264 3.072-23.552 10.24-33.792 10.24-13.312 25.6-21.504 43.008-21.504 4.096 0 8.192 1.024 12.288 2.048 1.024 0 2.048 0 3.072 0 3.072 0 6.144-1.024 9.216-3.072 3.072-3.072 6.144-6.144 6.144-11.264 1.024-10.24 4.096-19.456 10.24-27.648 10.24-13.312 25.6-21.504 43.008-21.504 11.264 0 21.504 3.072 30.72 10.24 12.288 9.216 20.48 23.552 21.504 38.912 0 4.096 2.048 8.192 6.144 11.264 3.072 2.048 5.12 3.072 9.216 3.072 1.024 0 2.048 0 3.072 0 4.096-1.024 8.192-2.048 12.288-2.048 11.264 0 21.504 3.072 30.72 10.24 23.552 17.408 28.672 50.176 11.264 73.728-6.144 8.192-13.312 14.336-22.528 18.432-4.096 2.048-7.168 5.12-8.192 9.216s-1.024 8.192 1.024 12.288c11.264 18.432 10.24 41.984-2.048 59.392-10.24 13.312-25.6 21.504-43.008 21.504-11.264 0-22.528-3.072-30.72-10.24-3.072-2.048-6.144-5.12-9.216-8.192s-7.168-5.12-11.264-5.12-8.192 2.048-11.264 5.12c-10.24 12.288-24.576 18.432-40.96 18.432-7.168 0-15.36-2.048-21.504-5.12-3.072 5.12-5.12 10.24-9.216 15.36-2.048 3.072-5.12 6.144-8.192 9.216 12.288 6.144 25.6 9.216 38.912 9.216 19.456 0 36.864-6.144 52.224-18.432 1.024 1.024 2.048 2.048 3.072 2.048 14.336 10.24 30.72 15.36 48.128 15.36v0c26.624 0 51.2-12.288 66.56-33.792 16.384-22.528 20.48-52.224 10.24-77.824 8.192-5.12 15.36-12.288 21.504-20.48 26.624-37.888 18.432-89.088-18.432-115.712z"></path>
<path fill="#b71c24" d="M335.872 448.512c-7.168 3.072-14.336 5.12-21.504 5.12v0c-11.264 0-21.504-3.072-30.72-10.24-3.072-2.048-6.144-5.12-9.216-8.192-4.096-4.096-8.192-5.12-12.288-5.12v0c-4.096 0-8.192 2.048-11.264 5.12-10.24 12.288-24.576 18.432-40.96 18.432-11.264 0-21.504-3.072-30.72-10.24-22.528-16.384-28.672-47.104-14.336-70.656 2.048-4.096 3.072-8.192 1.024-12.288-1.024-4.096-4.096-7.168-8.192-9.216s-8.192-4.096-11.264-6.144c-23.552-17.408-28.672-50.176-11.264-73.728 10.24-13.312 25.6-21.504 43.008-21.504 4.096 0 8.192 1.024 12.288 2.048 1.024 0 2.048 0 3.072 0 3.072 0 6.144-1.024 9.216-3.072 3.072-3.072 6.144-6.144 6.144-11.264 1.024-10.24 4.096-19.456 10.24-27.648 10.24-13.312 25.6-21.504 43.008-21.504 11.264 0 21.504 3.072 30.72 10.24 12.288 9.216 20.48 23.552 21.504 38.912 0 4.096 2.048 8.192 6.144 11.264 3.072 2.048 5.12 3.072 9.216 3.072 1.024 0 2.048 0 3.072 0 4.096-1.024 8.192-2.048 12.288-2.048 11.264 0 21.504 3.072 30.72 10.24 15.36 11.264 22.528 28.672 21.504 46.080 6.144-2.048 12.288-3.072 19.456-4.096 2.048-5.12 5.12-11.264 9.216-16.384-4.096-19.456-15.36-37.888-32.768-50.176-14.336-10.24-30.72-15.36-48.128-15.36-1.024 0-3.072 0-4.096 0-5.12-18.432-15.36-33.792-30.72-45.056-14.336-10.24-30.72-15.36-48.128-15.36-26.624 0-51.2 12.288-66.56 33.792-6.144 8.192-10.24 17.408-13.312 26.624-1.024 0-3.072 0-4.096 0-26.624 0-51.2 12.288-66.56 33.792-27.648 35.84-19.456 88.064 17.408 114.688 1.024 1.024 2.048 2.048 3.072 2.048-13.312 33.792-2.048 73.728 28.672 96.256 14.336 10.24 30.72 15.36 48.128 15.36 19.456 0 36.864-6.144 52.224-18.432 1.024 1.024 2.048 2.048 3.072 2.048 14.336 10.24 30.72 15.36 48.128 15.36 0 0 0 0 0 0 13.312 0 26.624-3.072 38.912-10.24-5.12-5.12-11.264-13.312-15.36-22.528z"></path>
<path fill="#b71c24" d="M662.528 452.608c26.624-36.864 18.432-89.088-18.432-115.712-14.336-10.24-30.72-15.36-48.128-15.36-1.024 0-3.072 0-4.096 0-5.12-18.432-15.36-33.792-30.72-45.056-14.336-10.24-30.72-15.36-48.128-15.36-26.624 0-51.2 12.288-66.56 33.792-6.144 8.192-10.24 17.408-13.312 26.624-1.024 0-3.072 0-4.096 0-26.624 0-51.2 12.288-66.56 33.792-26.624 36.864-18.432 89.088 18.432 115.712 1.024 1.024 2.048 2.048 3.072 2.048-13.312 33.792-2.048 73.728 28.672 96.256 14.336 10.24 30.72 15.36 48.128 15.36 19.456 0 36.864-6.144 52.224-18.432 1.024 1.024 2.048 2.048 3.072 2.048 14.336 10.24 30.72 15.36 48.128 15.36 26.624 0 51.2-12.288 66.56-33.792 16.384-22.528 20.48-52.224 10.24-77.824 8.192-5.12 15.36-11.264 21.504-19.456zM638.976 435.2c-6.144 8.192-13.312 14.336-22.528 17.408-4.096 2.048-7.168 5.12-8.192 9.216s-1.024 8.192 1.024 12.288c11.264 18.432 10.24 41.984-2.048 59.392-10.24 13.312-25.6 21.504-43.008 21.504-11.264 0-21.504-3.072-30.72-10.24-3.072-2.048-6.144-5.12-9.216-9.216-3.072-3.072-7.168-5.12-11.264-5.12v0c-4.096 0-8.192 2.048-11.264 5.12-10.24 12.288-24.576 18.432-40.96 18.432-11.264 0-21.504-3.072-30.72-10.24-22.528-16.384-28.672-47.104-14.336-70.656 2.048-4.096 3.072-8.192 1.024-12.288-1.024-4.096-4.096-7.168-8.192-9.216s-8.192-4.096-11.264-6.144c-23.552-17.408-28.672-50.176-11.264-73.728 10.24-13.312 25.6-21.504 43.008-21.504 4.096 0 8.192 0 12.288 1.024 1.024 0 2.048 0 3.072 0 3.072 0 6.144-1.024 9.216-3.072 3.072-3.072 6.144-6.144 6.144-11.264 1.024-10.24 4.096-19.456 10.24-27.648 10.24-13.312 25.6-21.504 43.008-21.504 11.264 0 22.528 3.072 30.72 10.24 12.288 9.216 20.48 23.552 21.504 38.912 0 4.096 2.048 8.192 6.144 11.264 2.048 2.048 5.12 3.072 8.192 3.072 1.024 0 2.048 0 3.072 0 4.096-1.024 8.192-2.048 12.288-2.048 11.264 0 21.504 3.072 30.72 10.24 24.576 18.432 30.72 51.2 13.312 75.776z"></path>
<path fill="#b71c24" d="M560.128 364.544c-14.336-10.24-30.72-15.36-48.128-15.36-26.624 0-51.2 12.288-66.56 33.792-13.312 17.408-18.432 39.936-14.336 61.44 3.072 21.504 15.36 40.96 32.768 53.248 14.336 10.24 30.72 15.36 48.128 15.36 26.624 0 51.2-12.288 66.56-33.792 26.624-36.864 18.432-88.064-18.432-114.688zM553.984 461.824c-10.24 13.312-25.6 21.504-43.008 21.504-11.264 0-21.504-3.072-30.72-10.24-11.264-8.192-18.432-20.48-21.504-33.792-2.048-14.336 1.024-27.648 9.216-38.912 10.24-13.312 25.6-21.504 43.008-21.504 11.264 0 21.504 3.072 30.72 10.24 24.576 16.384 29.696 49.152 12.288 72.704z"></path>
</svg>
