<?xml version="1.0" encoding="utf-8"?>
<!-- Generator: Adobe Illustrator 18.1.1, SVG Export Plug-In . SVG Version: 6.00 Build 0)  -->
<svg version="1.1" id="Слой_1" xmlns="http://www.w3.org/2000/svg" xmlns:xlink="http://www.w3.org/1999/xlink" x="0px" y="0px"
	 viewBox="0 0 100 100" enable-background="new 0 0 100 100" xml:space="preserve">
<g>
	<rect x="42.9" y="39.3" fill="none" width="14.3" height="56.1"/>
	<rect x="3.8" y="39.3" fill="none" width="35.2" height="56.2"/>
	<rect x="61" y="39.3" fill="none" width="35.2" height="56.2"/>
	<path fill="none" d="M80.9,30c3-2.4,5-5.9,5.5-9.4c0.5-3.9-0.5-7.7-2.8-10.5c-2.7-3.6-6.8-5.6-11.4-5.6c-3.2,0-6.1,1-8.6,2.9
		c-3.8,2.9-8.1,15.1-10.5,26c1.6,0.1,3.2,0.1,4.8,0.1C69.4,33.5,78,32.2,80.9,30z"/>
	<path fill="none" d="M46.9,33.4c-2.4-10.9-6.7-23.1-10.5-26c-2.5-1.9-5.5-2.9-8.6-2.9c-4.5,0-8.6,2-11.3,5.5
		c-2.3,2.8-3.3,6.6-2.8,10.5c0.4,3.6,2.4,7,5.5,9.5c2.8,2.1,11.4,3.4,23,3.4C43.7,33.5,45.3,33.5,46.9,33.4z"/>
	<path fill="#0E8035" d="M98.1,35.5H77.7c-4.8,1.3-11,1.7-16.7,1.8c0,0,0,0.1,0,0.1v1.9h35.2v56.2H61v1.8c0,1.1-0.9,1.9-1.9,1.9H41
		c-1.1,0-1.9-0.9-1.9-1.9v-1.8H3.8V39.3H39v-1.9c0,0,0-0.1,0-0.1c-5.7-0.1-12-0.6-16.7-1.8H1.9c-1.1,0-1.9,0.9-1.9,1.9v60
		c0,1.1,0.9,1.9,1.9,1.9h96.2c1.1,0,1.9-0.9,1.9-1.9v-60C100,36.3,99.1,35.5,98.1,35.5z"/>
	<path fill="#B71C24" d="M39,37.4v1.9v56.2v1.8c0,1.1,0.9,1.9,1.9,1.9H59c1.1,0,1.9-0.9,1.9-1.9v-1.8V39.3v-1.9c0,0,0-0.1,0-0.1
		c5.7-0.1,12-0.6,16.7-1.8c2.3-0.6,4.2-1.4,5.6-2.4c3.8-3.1,6.4-7.4,6.9-12c0.6-4.9-0.7-9.7-3.6-13.3c-3.4-4.5-8.6-7-14.4-7
		c-4,0-7.8,1.3-10.9,3.7c-4.9,3.7-9,16.1-11.3,25.4c-2.3-9.3-6.4-21.7-11.3-25.4C35.5,2,31.8,0.7,27.8,0.7c-5.7,0-10.9,2.6-14.3,7
		c-2.9,3.6-4.2,8.4-3.6,13.3c0.5,4.5,3.1,8.9,6.9,12c1.3,1,3.3,1.8,5.5,2.4C27.1,36.7,33.4,37.2,39,37.4C39.1,37.3,39,37.3,39,37.4z
		 M57.1,39.3v56.1H42.9V39.3H57.1z M63.6,7.4c2.5-1.9,5.5-2.9,8.6-2.9c4.5,0,8.6,2,11.4,5.6c2.2,2.8,3.2,6.6,2.8,10.5
		c-0.4,3.6-2.4,7-5.5,9.4c-2.9,2.2-11.5,3.5-23,3.5c-1.6,0-3.2,0-4.8-0.1C55.5,22.6,59.8,10.3,63.6,7.4z M13.6,20.6
		c-0.5-3.9,0.5-7.7,2.8-10.5c2.7-3.5,6.8-5.5,11.3-5.5c3.2,0,6.1,1,8.6,2.9c3.8,2.9,8.1,15.1,10.5,26c-1.6,0.1-3.2,0.1-4.8,0.1
		c-11.6,0-20.2-1.3-23-3.4C16.1,27.6,14.1,24.2,13.6,20.6z"/>
</g>
</svg>
