<?xml version="1.0" encoding="utf-8"?>
<!-- Generator: Adobe Illustrator 18.1.1, SVG Export Plug-In . SVG Version: 6.00 Build 0)  -->
<svg version="1.1" id="Слой_1" xmlns="http://www.w3.org/2000/svg" xmlns:xlink="http://www.w3.org/1999/xlink" x="0px" y="0px"
	 viewBox="0 57.4 100 42.6" enable-background="new 0 57.4 100 42.6" xml:space="preserve">
<g>
	<path fill="none" d="M88.9,91.2c0-3.3-2.7-5.9-5.9-5.9s-5.9,2.7-5.9,5.9c0,3.3,2.7,5.9,5.9,5.9S88.9,94.5,88.9,91.2z M83,94.6
		c-1.9,0-3.4-1.5-3.4-3.4c0-1.9,1.5-3.4,3.4-3.4c1.9,0,3.4,1.5,3.4,3.4C86.4,93.1,84.9,94.6,83,94.6z"/>
	<circle fill="none" cx="37.1" cy="91.2" r="0.5"/>
	<path fill="none" d="M43,91.2c0-3.3-2.7-5.9-5.9-5.9c-3.3,0-5.9,2.7-5.9,5.9c0,3.3,2.7,5.9,5.9,5.9S43,94.5,43,91.2z M37.1,94.6
		c-1.9,0-3.4-1.5-3.4-3.4c0-1.9,1.5-3.4,3.4-3.4s3.4,1.5,3.4,3.4C40.5,93.1,38.9,94.6,37.1,94.6z"/>
	<polygon fill="none" points="85.3,69.5 85.3,78.1 94.5,78.1 89.6,69.5 	"/>
	<circle fill="none" cx="83" cy="91.2" r="0.5"/>
	<path fill="#0E8035" d="M91.4,91.2c0-4.6-3.8-8.4-8.4-8.4s-8.4,3.8-8.4,8.4s3.8,8.4,8.4,8.4S91.4,95.8,91.4,91.2z M83,97.6
		c-3.5,0-6.4-2.9-6.4-6.4s2.9-6.4,6.4-6.4s6.4,2.9,6.4,6.4S86.5,97.6,83,97.6z"/>
	<path fill="#FFFFFF" d="M83,82.4c-4.9,0-8.8,3.9-8.8,8.8s3.9,8.8,8.8,8.8c4.9,0,8.8-3.9,8.8-8.8C91.8,86.3,87.8,82.4,83,82.4z
		 M74.6,91.2c0-4.6,3.8-8.4,8.4-8.4s8.4,3.8,8.4,8.4s-3.8,8.4-8.4,8.4S74.6,95.8,74.6,91.2z"/>
	<path fill="#FFFFFF" d="M83,84.8c-3.5,0-6.4,2.9-6.4,6.4s2.9,6.4,6.4,6.4s6.4-2.9,6.4-6.4S86.5,84.8,83,84.8z M77.1,91.2
		c0-3.3,2.7-5.9,5.9-5.9c3.2,0,5.9,2.7,5.9,5.9c0,3.3-2.7,5.9-5.9,5.9S77.1,94.5,77.1,91.2z"/>
	<path fill="#0E8035" d="M45.4,91.2c0-4.6-3.8-8.4-8.4-8.4s-8.4,3.8-8.4,8.4s3.8,8.4,8.4,8.4C41.7,99.6,45.4,95.8,45.4,91.2z
		 M37.1,97.6c-3.5,0-6.4-2.9-6.4-6.4s2.9-6.4,6.4-6.4s6.4,2.9,6.4,6.4C43.4,94.7,40.6,97.6,37.1,97.6z"/>
	<path fill="#FFFFFF" d="M37.1,82.4c-4.9,0-8.8,3.9-8.8,8.8s3.9,8.8,8.8,8.8s8.8-3.9,8.8-8.8C45.9,86.3,41.9,82.4,37.1,82.4z
		 M28.7,91.2c0-4.6,3.8-8.4,8.4-8.4s8.4,3.8,8.4,8.4s-3.8,8.4-8.4,8.4C32.5,99.6,28.7,95.8,28.7,91.2z"/>
	<path fill="#FFFFFF" d="M37.1,84.8c-3.5,0-6.4,2.9-6.4,6.4s2.9,6.4,6.4,6.4s6.4-2.9,6.4-6.4C43.4,87.7,40.6,84.8,37.1,84.8z
		 M31.1,91.2c0-3.3,2.7-5.9,5.9-5.9c3.3,0,5.9,2.7,5.9,5.9c0,3.3-2.7,5.9-5.9,5.9C33.8,97.1,31.1,94.5,31.1,91.2z"/>
	<path fill="#0E8035" d="M99.1,91.2V81.1c0-0.1,0-0.2,0-0.3L91.2,67c-0.1-0.1-0.2-0.2-0.6-0.2h-20v-8c0-0.4-0.3-0.7-0.7-0.7H23.4
		c-0.5,0-1.2,0.3-1.2,0.7v32.3c0,0.5,0.9,1.6,1.2,1.6h3c0.4,0,0.8-0.4,0.8-0.9s-0.4-0.9-0.8-0.9H24V60h45v31.1H47.8
		c-0.4,0-0.8,0.4-0.8,0.9s0.4,0.9,0.8,0.9h24c0.4,0,0.8-0.4,0.8-0.9s-0.4-0.9-0.8-0.9h-1.2V68.6h12.1v10.6c0,0.4,1.1,1.5,1.5,1.5
		h12.6l0.6,0.7v9.7h-3.1c-0.4,0-0.8,0.4-0.8,0.9s0.4,0.9,0.8,0.9h4.3C98.7,92.8,99.1,91.9,99.1,91.2z M84.4,79V68.6H90L96,79H84.4z"
		/>
	<path fill="#FFFFFF" d="M99.9,80.4L92,66.6C91.6,66,91,66,90.5,66h-19v-7.1c0-0.9-0.6-1.5-1.6-1.5H23.4c-0.8,0-2.1,0.5-2.1,1.5
		v32.3c0,0.9,1.1,2.5,2.1,2.5h3c0.9,0,1.6-0.8,1.6-1.7c0-0.9-0.8-1.7-1.6-1.7h-1.6V60.8H68v29.4H47.8c-0.9,0-1.6,0.8-1.6,1.7
		c0,0.9,0.8,1.7,1.6,1.7h24c0.9,0,1.6-0.8,1.6-1.7c0-0.9-0.8-1.7-1.6-1.7h-0.3V69.5h10.4v9.7c0,0.9,1.5,2.4,2.4,2.4h12.2l0.1,0.1
		v8.5h-2.3c-0.9,0-1.6,0.8-1.6,1.7c0,0.9,0.8,1.7,1.6,1.7h4.3c1.1,0,1.5-1.9,1.5-2.5v-9.9v-0.1C100,80.9,100,80.7,99.9,80.4z
		 M93.5,92c0-0.5,0.4-0.9,0.8-0.9h3.1v-9.7l-0.6-0.7H84.2c-0.4,0-1.5-1.1-1.5-1.5V68.6H70.6v22.5h1.2c0.4,0,0.8,0.4,0.8,0.9
		s-0.4,0.9-0.8,0.9h-24c-0.4,0-0.8-0.4-0.8-0.9s0.4-0.9,0.8-0.9h21.1V60h-45v31.1h2.4c0.4,0,0.8,0.4,0.8,0.9s-0.4,0.9-0.8,0.9h-3
		c-0.3,0-1.2-1.1-1.2-1.6V58.9c0-0.3,0.7-0.7,1.2-0.7h46.5c0.4,0,0.7,0.2,0.7,0.7v8h20c0.4,0,0.5,0,0.6,0.2L99,80.9c0,0,0,0.2,0,0.3
		v10.1c0,0.7-0.4,1.6-0.6,1.6h-4.3C93.9,92.8,93.5,92.4,93.5,92z"/>
	<path fill="#FFFFFF" d="M84.4,68.6V79H96l-5.9-10.4H84.4z M85.3,78.1v-8.6h4.3l4.9,8.6H85.3z"/>
	<path fill="#B71C24" d="M20.2,62.6c0-0.6-0.4-1-1-1H1.4c-0.6,0-1,0.4-1,1c0,0.6,0.4,1,1,1h17.8C19.8,63.6,20.2,63.1,20.2,62.6z"/>
	<path fill="#FFFFFF" d="M19.2,61.1H1.4c-0.8,0-1.4,0.6-1.4,1.4C0,63.4,0.6,64,1.4,64h17.8c0.8,0,1.4-0.6,1.4-1.4
		C20.6,61.8,20,61.1,19.2,61.1z M0.4,62.6c0-0.6,0.4-1,1-1h17.8c0.6,0,1,0.4,1,1c0,0.6-0.4,1-1,1H1.4C0.9,63.6,0.4,63.1,0.4,62.6z"
		/>
	<path fill="#B71C24" d="M20.2,67.2c0-0.6-0.4-1-1-1H3.9c-0.6,0-1,0.4-1,1s0.4,1,1,1h15.3C19.8,68.2,20.2,67.8,20.2,67.2z"/>
	<path fill="#FFFFFF" d="M19.2,65.8H3.9c-0.8,0-1.4,0.6-1.4,1.4c0,0.8,0.6,1.4,1.4,1.4h15.3c0.8,0,1.4-0.6,1.4-1.4
		C20.6,66.4,20,65.8,19.2,65.8z M2.9,67.2c0-0.6,0.4-1,1-1h15.3c0.6,0,1,0.4,1,1s-0.4,1-1,1H3.9C3.4,68.2,2.9,67.8,2.9,67.2z"/>
	<path fill="#B71C24" d="M20.2,71.8c0-0.6-0.4-1-1-1H6.4c-0.6,0-1,0.4-1,1c0,0.6,0.4,1,1,1h12.8C19.8,72.8,20.2,72.4,20.2,71.8z"/>
	<path fill="#FFFFFF" d="M19.2,70.4H6.4C5.6,70.4,5,71,5,71.8c0,0.8,0.6,1.4,1.4,1.4h12.8c0.8,0,1.4-0.6,1.4-1.4
		C20.6,71.1,20,70.4,19.2,70.4z M5.4,71.8c0-0.6,0.4-1,1-1h12.8c0.6,0,1,0.4,1,1c0,0.6-0.4,1-1,1H6.4C5.8,72.8,5.4,72.4,5.4,71.8z"
		/>
	<path fill="#B71C24" d="M20.2,76.5c0-0.6-0.4-1-1-1H8.8c-0.6,0-1,0.4-1,1c0,0.6,0.4,1,1,1h10.4C19.8,77.5,20.2,77,20.2,76.5z"/>
	<path fill="#FFFFFF" d="M19.2,75H8.8c-0.8,0-1.4,0.6-1.4,1.4s0.6,1.4,1.4,1.4h10.4c0.8,0,1.4-0.6,1.4-1.4C20.6,75.7,20,75,19.2,75z
		 M7.8,76.5c0-0.6,0.4-1,1-1h10.4c0.6,0,1,0.4,1,1c0,0.6-0.4,1-1,1H8.8C8.3,77.5,7.8,77,7.8,76.5z"/>
	<path fill="#B71C24" d="M20.2,81.1c0-0.6-0.4-1-1-1h-8c-0.6,0-1,0.4-1,1c0,0.6,0.4,1,1,1h8C19.8,82.1,20.2,81.7,20.2,81.1z"/>
	<path fill="#FFFFFF" d="M19.2,79.7h-8c-0.8,0-1.4,0.6-1.4,1.4c0,0.8,0.6,1.4,1.4,1.4h8c0.8,0,1.4-0.6,1.4-1.4
		C20.6,80.3,20,79.7,19.2,79.7z M10.2,81.1c0-0.6,0.4-1,1-1h8c0.6,0,1,0.4,1,1c0,0.6-0.4,1-1,1h-8C10.7,82.1,10.2,81.7,10.2,81.1z"
		/>
	<path fill="#0E8035" d="M86,91.2c0-1.6-1.3-3-3-3c-1.7,0-3,1.3-3,3c0,1.6,1.3,3,3,3C84.7,94.2,86,92.8,86,91.2z M83,92.2
		c-0.5,0-1-0.4-1-1c0-0.5,0.4-1,1-1c0.5,0,1,0.4,1,1C84,91.7,83.5,92.2,83,92.2z"/>
	<path fill="#FFFFFF" d="M83,87.8c-1.9,0-3.4,1.5-3.4,3.4s1.5,3.4,3.4,3.4c1.9,0,3.4-1.5,3.4-3.4S84.9,87.8,83,87.8z M80,91.2
		c0-1.6,1.3-3,3-3c1.7,0,3,1.3,3,3c0,1.6-1.3,3-3,3C81.3,94.2,80,92.8,80,91.2z"/>
	<path fill="#FFFFFF" d="M83,90.2c-0.5,0-1,0.4-1,1c0,0.5,0.4,1,1,1c0.5,0,1-0.4,1-1C84,90.7,83.5,90.2,83,90.2z M82.4,91.2
		c0-0.3,0.2-0.5,0.5-0.5s0.5,0.2,0.5,0.5s-0.2,0.5-0.5,0.5C82.7,91.7,82.4,91.5,82.4,91.2z"/>
	<path fill="#0E8035" d="M40,91.2c0-1.6-1.3-3-3-3c-1.7,0-3,1.3-3,3c0,1.6,1.3,3,3,3C38.7,94.2,40,92.8,40,91.2z M37.1,92.2
		c-0.5,0-1-0.4-1-1c0-0.5,0.4-1,1-1c0.5,0,1,0.4,1,1C38,91.7,37.6,92.2,37.1,92.2z"/>
	<path fill="#FFFFFF" d="M37.1,87.8c-1.9,0-3.4,1.5-3.4,3.4s1.5,3.4,3.4,3.4s3.4-1.5,3.4-3.4S38.9,87.8,37.1,87.8z M34.1,91.2
		c0-1.6,1.3-3,3-3s3,1.3,3,3c0,1.6-1.3,3-3,3S34.1,92.8,34.1,91.2z"/>
	<path fill="#FFFFFF" d="M37.1,90.2c-0.5,0-1,0.4-1,1c0,0.5,0.4,1,1,1c0.5,0,1-0.4,1-1C38,90.7,37.6,90.2,37.1,90.2z M36.5,91.2
		c0-0.3,0.2-0.5,0.5-0.5c0.3,0,0.5,0.2,0.5,0.5s-0.2,0.5-0.5,0.5C36.8,91.7,36.5,91.5,36.5,91.2z"/>
</g>
</svg>
