<?xml version="1.0" encoding="utf-8"?>
<!-- Generator: Adobe Illustrator 18.1.1, SVG Export Plug-In . SVG Version: 6.00 Build 0)  -->
<svg version="1.1" id="Слой_1" xmlns="http://www.w3.org/2000/svg" xmlns:xlink="http://www.w3.org/1999/xlink" x="0px" y="0px"
	 viewBox="0 0 100 100" enable-background="new 0 0 100 100" xml:space="preserve">
<g>
	<path fill="#666666" d="M0,0v100h100V0H0z M95.7,95.7H4.3V4.3h91.5V95.7z"/>
	<path fill="#666666" d="M47,69.2c-1.8,0-2.7,1.1-2.7,3.3c0,2.2,0.9,3.3,2.7,3.3c1.8,0,2.7-1.1,2.7-3.3C49.7,70.3,48.8,69.2,47,69.2
		z"/>
	<path fill="#666666" d="M43.8,29.2c1.5-0.4,3.2-0.6,4.9-0.6c3,0,5.4,0.8,7.3,2.5c1.8,1.7,2.8,3.9,2.8,6.7c0,1.7-0.3,3.3-1,4.6
		c-0.7,1.3-1.8,2.7-3.4,4l-3,2.6c-2.2,2-3.8,3.8-4.6,5.6s-1.2,4-1.2,6.7v1.2h2.7v-0.5c0-2.1,0.2-3.8,0.5-4.9
		c0.3-1.1,0.9-2.1,1.7-3.1c0.8-1,1.9-2.1,3.3-3.3c1.2-1,2.4-2,3.4-2.9c1-0.9,1.9-1.8,2.6-2.8c0.7-1,1.3-2,1.7-3.1
		c0.4-1.1,0.6-2.4,0.6-4c0-3.8-1.2-6.8-3.5-9c-2.3-2.2-5.5-3.3-9.6-3.3c-1.8,0-3.5,0.2-5.1,0.5c-1.7,0.4-3.7,1.1-6.1,2.1l1.2,2.7
		C40.6,30.2,42.2,29.6,43.8,29.2z"/>
</g>
</svg>
