<?xml version="1.0" encoding="utf-8"?>
<!-- Generator: Adobe Illustrator 18.1.1, SVG Export Plug-In . SVG Version: 6.00 Build 0)  -->
<svg version="1.1" id="Слой_1" xmlns="http://www.w3.org/2000/svg" xmlns:xlink="http://www.w3.org/1999/xlink" x="0px" y="0px"
	 viewBox="0 0 100 100" enable-background="new 0 0 100 100" xml:space="preserve">
<g>
	<g>
		<g opacity="0.5">
			<path fill="#0E8035" d="M4.8,83.6L9,96.3c0.7,2.2,2.8,3.7,5.2,3.7h71.6c2.4,0,4.5-1.5,5.2-3.7l4.2-12.7H4.8z"/>
		</g>
		<g opacity="0.5">
			<path fill="#0E8035" d="M95.4,83.6H4.6c-1.4,0-2.5-1.1-2.5-2.5v-6c0-1.4,1.1-2.5,2.5-2.5h90.9c1.4,0,2.5,1.1,2.5,2.5v6
				C97.9,82.4,96.8,83.6,95.4,83.6z"/>
		</g>
	</g>
	<g>
		<g opacity="0.5">
			<path fill="#B71C24" d="M84.2,60.3c0,3.8-3.1,6.8-6.8,6.8c-3.8,0-6.8-3.1-6.8-6.8c0-3.8,6.8-12.3,6.8-12.3S84.2,56.5,84.2,60.3z"
				/>
		</g>
		<g opacity="0.5">
			<path fill="#B71C24" d="M50,35.6c0,3.8-3.1,6.8-6.8,6.8s-6.8-3.1-6.8-6.8s6.8-12.3,6.8-12.3S50,31.8,50,35.6z"/>
		</g>
		<g opacity="0.5">
			<path fill="#B71C24" d="M36.3,35.6c0,3.8-3.1,6.8-6.8,6.8s-6.8-3.1-6.8-6.8s6.8-12.3,6.8-12.3S36.3,31.8,36.3,35.6z"/>
		</g>
		<g opacity="0.5">
			<path fill="#B71C24" d="M63.7,35.6c0,3.8-3.1,6.8-6.8,6.8S50,39.4,50,35.6s6.8-12.3,6.8-12.3S63.7,31.8,63.7,35.6z"/>
		</g>
		<g opacity="0.5">
			<path fill="#B71C24" d="M77.4,35.6c0,3.8-3.1,6.8-6.8,6.8c-3.8,0-6.8-3.1-6.8-6.8s6.8-12.3,6.8-12.3S77.4,31.8,77.4,35.6z"/>
		</g>
		<g opacity="0.5">
			<path fill="#B71C24" d="M56.8,60.3c0,3.8-3.1,6.8-6.8,6.8s-6.8-3.1-6.8-6.8c0-3.8,6.8-12.3,6.8-12.3S56.8,56.5,56.8,60.3z"/>
		</g>
		<g opacity="0.5">
			<path fill="#B71C24" d="M43.2,60.3c0,3.8-3.1,6.8-6.8,6.8s-6.8-3.1-6.8-6.8c0-3.8,6.8-12.3,6.8-12.3S43.2,56.5,43.2,60.3z"/>
		</g>
		<g opacity="0.5">
			<path fill="#B71C24" d="M29.5,60.3c0,3.8-3.1,6.8-6.8,6.8s-6.8-3.1-6.8-6.8c0-3.8,6.8-12.3,6.8-12.3S29.5,56.5,29.5,60.3z"/>
		</g>
		<g opacity="0.5">
			<path fill="#B71C24" d="M70.5,60.3c0,3.8-3.1,6.8-6.8,6.8c-3.8,0-6.8-3.1-6.8-6.8c0-3.8,6.8-12.3,6.8-12.3S70.5,56.5,70.5,60.3z"
				/>
		</g>
	</g>
</g>
<g>
	<g>
		<g>
			<path fill="#B71C24" d="M43.2,41.1c-4.5,0-8.2-3.7-8.2-8.2c0-4.1,6.4-12.3,7.2-13.2c0.5-0.6,1.6-0.6,2.1,0
				c0.7,0.9,7.2,9,7.2,13.2C51.4,37.4,47.7,41.1,43.2,41.1z M43.2,22.8c-2.5,3.3-5.5,8-5.5,10.1c0,3,2.5,5.5,5.5,5.5
				s5.5-2.5,5.5-5.5C48.6,30.8,45.6,26.1,43.2,22.8z"/>
		</g>
		<g>
			<path fill="#B71C24" d="M29.5,41.1c-4.5,0-8.2-3.7-8.2-8.2c0-4.1,6.4-12.3,7.2-13.2c0.5-0.6,1.6-0.6,2.1,0
				c0.7,0.9,7.2,9,7.2,13.2C37.7,37.4,34,41.1,29.5,41.1z M29.5,22.8c-2.5,3.3-5.5,8-5.5,10.1c0,3,2.5,5.5,5.5,5.5s5.5-2.5,5.5-5.5
				C34.9,30.8,31.9,26.1,29.5,22.8z"/>
		</g>
		<g>
			<path fill="#B71C24" d="M56.8,41.1c-4.5,0-8.2-3.7-8.2-8.2c0-4.1,6.4-12.3,7.2-13.2c0.5-0.6,1.6-0.6,2.1,0
				c0.7,0.9,7.2,9,7.2,13.2C65.1,37.4,61.4,41.1,56.8,41.1z M56.8,22.8c-2.5,3.3-5.5,8-5.5,10.1c0,3,2.5,5.5,5.5,5.5
				s5.5-2.5,5.5-5.5C62.3,30.8,59.3,26.1,56.8,22.8z"/>
		</g>
		<g>
			<path fill="#B71C24" d="M70.5,41.1c-4.5,0-8.2-3.7-8.2-8.2c0-4.1,6.4-12.3,7.2-13.2c0.5-0.6,1.6-0.6,2.1,0
				c0.7,0.9,7.2,9,7.2,13.2C78.8,37.4,75.1,41.1,70.5,41.1z M70.5,22.8c-2.5,3.3-5.5,8-5.5,10.1c0,3,2.5,5.5,5.5,5.5
				c3,0,5.5-2.5,5.5-5.5C76,30.8,73,26.1,70.5,22.8z"/>
		</g>
		<g>
			<path fill="#B71C24" d="M50,65.8c-4.5,0-8.2-3.7-8.2-8.2c0-4.1,6.4-12.3,7.2-13.2c0.5-0.6,1.6-0.6,2.1,0c0.7,0.9,7.2,9,7.2,13.2
				C58.2,62.1,54.5,65.8,50,65.8z M50,47.4c-2.5,3.3-5.5,8-5.5,10.1c0,3,2.5,5.5,5.5,5.5s5.5-2.5,5.5-5.5
				C55.5,55.4,52.5,50.7,50,47.4z"/>
		</g>
		<g>
			<path fill="#B71C24" d="M36.3,65.8c-4.5,0-8.2-3.7-8.2-8.2c0-4.1,6.4-12.3,7.2-13.2c0.5-0.6,1.6-0.6,2.1,0
				c0.7,0.9,7.2,9,7.2,13.2C44.5,62.1,40.8,65.8,36.3,65.8z M36.3,47.4c-2.5,3.3-5.5,8-5.5,10.1c0,3,2.5,5.5,5.5,5.5
				s5.5-2.5,5.5-5.5C41.8,55.4,38.8,50.7,36.3,47.4z"/>
		</g>
		<g>
			<path fill="#B71C24" d="M22.6,65.8c-4.5,0-8.2-3.7-8.2-8.2c0-4.1,6.4-12.3,7.2-13.2c0.5-0.6,1.6-0.6,2.1,0
				c0.7,0.9,7.2,9,7.2,13.2C30.8,62.1,27.1,65.8,22.6,65.8z M22.6,47.4c-2.5,3.3-5.5,8-5.5,10.1c0,3,2.5,5.5,5.5,5.5
				s5.5-2.5,5.5-5.5C28.1,55.4,25.1,50.7,22.6,47.4z"/>
		</g>
		<g>
			<path fill="#B71C24" d="M63.7,65.8c-4.5,0-8.2-3.7-8.2-8.2c0-4.1,6.4-12.3,7.2-13.2c0.5-0.6,1.6-0.6,2.1,0
				c0.7,0.9,7.2,9,7.2,13.2C71.9,62.1,68.2,65.8,63.7,65.8z M63.7,47.4c-2.5,3.3-5.5,8-5.5,10.1c0,3,2.5,5.5,5.5,5.5
				c3,0,5.5-2.5,5.5-5.5C69.2,55.4,66.2,50.7,63.7,47.4z"/>
		</g>
		<g>
			<path fill="#B71C24" d="M77.4,65.8c-4.5,0-8.2-3.7-8.2-8.2c0-4.1,6.4-12.3,7.2-13.2c0.5-0.6,1.6-0.6,2.1,0
				c0.7,0.9,7.2,9,7.2,13.2C85.6,62.1,81.9,65.8,77.4,65.8z M77.4,47.4c-2.5,3.3-5.5,8-5.5,10.1c0,3,2.5,5.5,5.5,5.5
				c3,0,5.5-2.5,5.5-5.5C82.9,55.4,79.9,50.7,77.4,47.4z"/>
		</g>
		<g>
			<rect x="21.2" y="64.4" fill="#B71C24" width="2.7" height="5.5"/>
		</g>
		<g>
			<rect x="34.9" y="64.4" fill="#B71C24" width="2.7" height="5.5"/>
		</g>
		<g>
			<rect x="48.6" y="64.4" fill="#B71C24" width="2.7" height="5.5"/>
		</g>
		<g>
			<rect x="62.3" y="64.4" fill="#B71C24" width="2.7" height="5.5"/>
		</g>
		<g>
			<rect x="76" y="64.4" fill="#B71C24" width="2.7" height="5.5"/>
		</g>
		<g>
			<rect x="69.2" y="39.7" fill="#B71C24" width="2.7" height="17.8"/>
		</g>
		<g>
			<rect x="55.5" y="39.7" fill="#B71C24" width="2.7" height="17.8"/>
		</g>
		<g>
			<rect x="41.8" y="39.7" fill="#B71C24" width="2.7" height="17.8"/>
		</g>
		<g>
			<rect x="28.1" y="39.7" fill="#B71C24" width="2.7" height="17.8"/>
		</g>
	</g>
	<g>
		<g>
			<path fill="#0E8035" d="M85.8,98.6H14.2c-3,0-5.6-1.9-6.5-4.7L2.9,79.5h94.2l-4.8,14.5C91.3,96.7,88.7,98.6,85.8,98.6z M6.7,82.2
				l3.6,10.9c0.6,1.7,2.1,2.8,3.9,2.8h71.6c1.8,0,3.3-1.1,3.9-2.8l3.6-10.9H6.7z"/>
		</g>
		<g>
			<path fill="#0E8035" d="M96.5,70.3l-2.6-0.9c1.8-5.3,2.7-10.8,2.7-16.4v-3.7c0-12.6-4.9-24.4-13.9-33.2
				c-9-8.8-20.9-13.6-33.5-13.4C24,3.2,3.4,24.4,3.4,50.1V53c0,5.6,0.9,11.1,2.7,16.4l-2.6,0.9C1.6,64.7,0.7,58.9,0.7,53v-2.9
				C0.7,22.9,22.4,0.5,49.2,0c13.4-0.2,25.9,4.8,35.4,14.1c9.5,9.3,14.7,21.8,14.7,35.2V53C99.3,58.9,98.4,64.7,96.5,70.3z"/>
		</g>
		<g>
			<path fill="#0E8035" d="M95.2,82.2H4.8c-2.3,0-4.1-1.8-4.1-4.1v-5.5c0-2.3,1.8-4.1,4.1-4.1h90.4c2.3,0,4.1,1.8,4.1,4.1v5.5
				C99.3,80.3,97.5,82.2,95.2,82.2z M4.8,71.2c-0.8,0-1.4,0.6-1.4,1.4v5.5c0,0.8,0.6,1.4,1.4,1.4h90.4c0.8,0,1.4-0.6,1.4-1.4v-5.5
				c0-0.8-0.6-1.4-1.4-1.4H4.8z"/>
		</g>
	</g>
</g>
</svg>
