<?xml version="1.0" encoding="utf-8"?>
<!-- Generator: Adobe Illustrator 18.1.1, SVG Export Plug-In . SVG Version: 6.00 Build 0)  -->
<svg version="1.1" id="Слой_1" xmlns="http://www.w3.org/2000/svg" xmlns:xlink="http://www.w3.org/1999/xlink" x="0px" y="0px"
	 viewBox="0 0 100 100" enable-background="new 0 0 100 100" xml:space="preserve">
<g>
	<path fill="none" d="M51.1,45c0.4,0.5,2.6,3.4,4.5,6.5v-9.9c-2.3-0.4-4.4-1.7-5.6-3.6c-1.2,1.8-3.2,3.2-5.5,3.6v9.8
		c1.9-3.1,4-5.8,4.4-6.4C49.4,44.3,50.5,44.3,51.1,45z"/>
	<path fill="none" d="M65,45c0.4,0.5,2.5,3.3,4.4,6.3v-9.8c-2.3-0.4-4.3-1.7-5.5-3.6c-1.2,1.8-3.2,3.2-5.5,3.6v9.8
		c1.9-3.1,4-5.8,4.4-6.4C63.3,44.3,64.4,44.3,65,45z"/>
	<path fill="none" d="M35,45c0.5-0.7,1.6-0.7,2.2,0c0.4,0.5,2.6,3.4,4.5,6.5v-9.9c-2.3-0.4-4.3-1.7-5.6-3.7
		c-1.2,1.9-3.2,3.2-5.5,3.6v9.8C32.5,48.3,34.6,45.6,35,45z"/>
	<path fill="none" d="M51.4,34.1c0.4,2.7,2.7,4.8,5.5,4.8c3.1,0,5.6-2.5,5.6-5.6c0-2.1-3.1-6.9-5.6-10.2c-2.3,3.1-5.2,7.4-5.6,9.7
		c0,0.2,0.1,0.4,0.1,0.6C51.4,33.6,51.4,33.9,51.4,34.1z"/>
	<path fill="none" d="M70.8,38.9c3.1,0,5.6-2.5,5.6-5.6c0-2.1-3.1-6.9-5.6-10.2c-2.5,3.3-5.6,8.1-5.6,10.2
		C65.2,36.4,67.7,38.9,70.8,38.9z"/>
	<path fill="none" d="M29.2,63c-1.2,1.9-3.2,3.2-5.6,3.6v2.7h11.1v-2.7C32.4,66.2,30.4,64.8,29.2,63z"/>
	<path fill="none" d="M43.1,38.9c2.8,0,5.1-2.1,5.5-4.8c0-0.2,0-0.5,0-0.7c0-0.2,0-0.3,0-0.5c-0.4-2.3-3.3-6.7-5.5-9.8
		c-2.5,3.3-5.6,8.1-5.6,10.2C37.5,36.4,40,38.9,43.1,38.9z"/>
	<path fill="none" d="M43,62.9c-1.2,1.9-3.2,3.2-5.5,3.6v2.7h11.1v-2.7C46.3,66.2,44.3,64.8,43,62.9z"/>
	<path fill="none" d="M56.9,62.9c-1.2,1.9-3.2,3.2-5.5,3.6v2.7h11.1v-2.7C60.2,66.2,58.2,64.8,56.9,62.9z"/>
	<path fill="none" d="M70.8,62.9c-1.2,1.9-3.2,3.2-5.5,3.6v2.7h11.1v-2.7C74.1,66.2,72.1,64.8,70.8,62.9z"/>
	<path fill="none" d="M95.9,72.2H4.2c-0.8,0-1.4,0.6-1.4,1.4v5.6c0,0.8,0.6,1.4,1.4,1.4h91.7c0.8,0,1.4-0.6,1.4-1.4v-5.6
		C97.3,72.8,96.7,72.2,95.9,72.2z"/>
	<path fill="none" d="M9.8,94.3c0.6,1.7,2.2,2.8,4,2.8h72.5c1.8,0,3.4-1.1,4-2.8l3.7-11H6.1L9.8,94.3z"/>
	<path fill="none" d="M83.4,58.3c-0.1-2.1-3.1-6.9-5.6-10.2c-2.5,3.3-5.6,8.1-5.6,10.2c0,3.1,2.5,5.6,5.6,5.6
		C80.9,63.9,83.4,61.4,83.4,58.3z"/>
	<path fill="none" d="M20.8,69.3v-2.7c-3.9-0.7-6.9-4.1-6.9-8.2c0-4.2,6.5-12.4,7.2-13.4c0.5-0.7,1.6-0.7,2.2,0
		c0.4,0.5,2.6,3.4,4.5,6.5v-9.9c-3.9-0.7-6.9-4.1-6.9-8.2c0-4.2,6.5-12.4,7.2-13.4c0.5-0.7,1.6-0.7,2.2,0c0.5,0.6,3.9,5,5.9,9
		c1.9-4,5.3-8.3,5.8-9c0.5-0.7,1.6-0.7,2.2,0c0.5,0.6,3.9,4.9,5.8,8.9c2-3.9,5.3-8.2,5.8-8.9c0.5-0.7,1.6-0.7,2.2,0
		c0.5,0.6,3.9,5,5.9,9c1.9-4,5.3-8.3,5.8-9c0.5-0.7,1.6-0.7,2.2,0c0.7,0.9,7.2,9.2,7.2,13.4c0.1,4-3,7.5-6.9,8.2v10
		c1.9-3.1,4.1-6,4.5-6.5c0.5-0.7,1.6-0.7,2.2,0c0.7,0.9,7.2,9.2,7.2,13.4c0,4-3,7.5-6.9,8.2v2.7h15.7c1.6-5.1,2.4-10.3,2.4-15.6V50
		c0-12.8-5-24.7-14.1-33.7C74,7.4,62,2.5,49.2,2.8c-25.6,0.4-46.4,22-46.4,48v2.9c0,5.3,0.8,10.5,2.4,15.6H20.8z"/>
	<path fill="none" d="M34.8,33.3c-0.1-2.1-3.1-6.9-5.6-10.2c-2.5,3.3-5.6,8.1-5.6,10.2c0,3.1,2.5,5.6,5.6,5.6
		C32.3,38.9,34.8,36.4,34.8,33.3z"/>
	<path fill="none" d="M36.1,48.1c-2.2,3-5,7.1-5.5,9.5v0.8h-0.1c0.1,3.1,2.5,5.5,5.6,5.5c3.1,0,5.6-2.5,5.6-5.6
		C41.7,56.2,38.6,51.4,36.1,48.1z"/>
	<path fill="none" d="M22.2,48.1c-2.5,3.3-5.6,8.1-5.6,10.2c0,3.1,2.5,5.6,5.6,5.6c3.1,0,5.6-2.5,5.6-5.6
		C27.8,56.2,24.7,51.4,22.2,48.1z"/>
	<path fill="none" d="M69.4,58.4v-0.7c-0.5-2.3-3.2-6.6-5.5-9.6c-2.2,3-5,7.1-5.5,9.5v0.8h-0.1c0.1,3.1,2.5,5.5,5.6,5.5
		C67,63.9,69.4,61.5,69.4,58.4L69.4,58.4z"/>
	<path fill="none" d="M50,48.1c-2.2,3-5,7.1-5.5,9.5v0.8h-0.1c0.1,3.1,2.5,5.5,5.6,5.5c3.1,0,5.6-2.5,5.6-5.6
		C55.6,56.2,52.5,51.4,50,48.1z"/>
	<path fill="#B71C24" d="M86.1,58.4c0-4.2-6.5-12.5-7.2-13.4c-0.6-0.7-1.7-0.7-2.2,0c-0.4,0.6-2.6,3.4-4.5,6.5v-10
		c3.9-0.7,7-4.1,6.9-8.2c0-4.2-6.5-12.5-7.2-13.4c-0.6-0.7-1.7-0.7-2.2,0c-0.5,0.7-3.9,5-5.8,9c-1.9-4-5.4-8.4-5.9-9
		c-0.6-0.7-1.7-0.7-2.2,0c-0.5,0.7-3.8,5-5.8,8.9c-2-4-5.3-8.3-5.8-8.9c-0.6-0.7-1.7-0.7-2.2,0c-0.5,0.7-3.9,5-5.8,9
		c-1.9-4-5.4-8.4-5.9-9c-0.6-0.7-1.7-0.7-2.2,0c-0.7,1-7.2,9.2-7.2,13.4c0,4.1,3,7.5,6.9,8.2v9.9c-1.9-3.1-4.1-6-4.5-6.5
		c-0.6-0.7-1.7-0.7-2.2,0c-0.7,1-7.2,9.2-7.2,13.4c0,4.1,3,7.5,6.9,8.2v2.7h2.8v-2.7c2.3-0.4,4.3-1.7,5.6-3.6
		c1.2,1.9,3.2,3.2,5.5,3.6v2.7h2.8v-2.7c2.3-0.4,4.3-1.8,5.5-3.6c1.2,1.9,3.2,3.3,5.6,3.7v2.7h2.8v-2.7c2.3-0.4,4.3-1.8,5.5-3.6
		c1.2,1.9,3.2,3.3,5.6,3.7v2.7h2.8v-2.7c2.3-0.4,4.3-1.8,5.5-3.6c1.2,1.9,3.2,3.3,5.6,3.7v2.7h2.8v-2.7
		C83.1,65.9,86.1,62.4,86.1,58.4z M36.1,37.9c1.2,1.9,3.2,3.3,5.6,3.7v9.9c-1.9-3.1-4.1-6-4.5-6.5c-0.6-0.7-1.7-0.7-2.2,0
		c-0.4,0.6-2.5,3.3-4.4,6.4v-9.8C32.9,41.2,34.9,39.8,36.1,37.9z M44.5,41.6c2.3-0.4,4.2-1.7,5.5-3.6c1.3,1.9,3.3,3.2,5.6,3.6v9.9
		c-1.9-3.1-4.1-6-4.5-6.5c-0.6-0.7-1.7-0.7-2.2,0c-0.4,0.6-2.5,3.3-4.4,6.4V41.6z M58.4,41.6c2.3-0.4,4.2-1.8,5.5-3.6
		c1.2,1.9,3.2,3.2,5.5,3.6v9.8c-1.9-3.1-4-5.8-4.4-6.3c-0.6-0.7-1.7-0.7-2.2,0c-0.4,0.6-2.5,3.3-4.4,6.4V41.6z M70.8,23.1
		c2.5,3.3,5.6,8.1,5.6,10.2c0,3.1-2.5,5.6-5.6,5.6c-3.1,0-5.6-2.5-5.6-5.6C65.2,31.2,68.3,26.4,70.8,23.1z M56.9,23.1
		c2.5,3.3,5.6,8.1,5.6,10.2c0,3.1-2.5,5.6-5.6,5.6c-2.8,0-5.1-2.1-5.5-4.8c0-0.2,0-0.5,0-0.7c0-0.2,0-0.4-0.1-0.6
		C51.7,30.5,54.6,26.2,56.9,23.1z M43.1,23.1c2.2,3.1,5.1,7.5,5.5,9.8c0,0.2,0,0.4,0,0.5c0,0.2,0,0.5,0,0.7
		c-0.4,2.7-2.7,4.8-5.5,4.8c-3.1,0-5.6-2.5-5.6-5.6C37.5,31.2,40.6,26.4,43.1,23.1z M23.6,33.3c0-2.1,3.1-6.9,5.6-10.2
		c2.5,3.3,5.5,8.1,5.6,10.2c0,3.1-2.5,5.6-5.6,5.6C26.1,38.9,23.6,36.4,23.6,33.3z M22.2,63.9c-3.1,0-5.6-2.5-5.6-5.6
		c0-2.1,3.1-6.9,5.6-10.2c2.5,3.3,5.6,8.1,5.6,10.2C27.8,61.4,25.3,63.9,22.2,63.9z M36.1,63.9c-3.1,0-5.5-2.4-5.6-5.5h0.1v-0.8
		c0.5-2.3,3.3-6.5,5.5-9.5c2.5,3.3,5.6,8.1,5.6,10.2C41.7,61.4,39.2,63.9,36.1,63.9z M50,63.9c-3.1,0-5.5-2.4-5.6-5.5h0.1v-0.8
		c0.5-2.3,3.3-6.5,5.5-9.5c2.5,3.3,5.6,8.1,5.6,10.2C55.6,61.4,53.1,63.9,50,63.9z M63.9,63.9c-3.1,0-5.5-2.4-5.6-5.5h0.1v-0.8
		c0.5-2.3,3.3-6.5,5.5-9.5c2.3,3,5,7.3,5.5,9.6v0.7h0.1C69.4,61.5,67,63.9,63.9,63.9z M72.2,58.3c0-2.1,3.1-6.9,5.6-10.2
		c2.5,3.3,5.5,8.1,5.6,10.2c0,3.1-2.5,5.6-5.6,5.6C74.7,63.9,72.2,61.4,72.2,58.3z"/>
	<path fill="#0E8035" d="M97.7,69.7c1.5-5.2,2.3-10.6,2.3-16V50c0-13.5-5.3-26.2-15-35.7C75.4,4.9,62.7-0.2,49.1,0
		C22,0.5,0,23.2,0,50.8v2.9c0,5.4,0.8,10.8,2.4,16C1,70.4,0,71.8,0,73.5v5.6c0,1.9,1.3,3.5,3,4l4.1,12.2c1,2.8,3.6,4.7,6.6,4.7h72.6
		c3,0,5.6-1.9,6.5-4.7l4-12.1c1.8-0.5,3.2-2,3.3-4.1v-5.6C100.1,71.8,99.1,70.4,97.7,69.7z M97.3,79.2c0,0.8-0.6,1.4-1.4,1.4H4.2
		c-0.8,0-1.4-0.6-1.4-1.4v-5.6c0-0.8,0.6-1.4,1.4-1.4h91.7c0.8,0,1.4,0.6,1.4,1.4V79.2z M2.8,50.8c0-26,20.8-47.6,46.4-48
		C62,2.5,74,7.4,83.2,16.3c9.1,9,14.1,20.9,14.1,33.7v3.7c0,5.3-0.8,10.5-2.4,15.6H79.2h-2.8H65.3h-2.8H51.4h-2.8H37.5h-2.8H23.6
		h-2.8H5.2C3.6,64.2,2.8,59,2.8,53.7V50.8z M90.3,94.3c-0.6,1.7-2.2,2.8-4,2.8H13.8c-1.8,0-3.4-1.1-4-2.8l-3.7-11H94L90.3,94.3z"/>
</g>
</svg>
