<?xml version="1.0" encoding="utf-8"?>
<!-- Generator: Adobe Illustrator 18.1.1, SVG Export Plug-In . SVG Version: 6.00 Build 0)  -->
<svg version="1.1" id="Слой_1" xmlns="http://www.w3.org/2000/svg" xmlns:xlink="http://www.w3.org/1999/xlink" x="0px" y="0px"
	 viewBox="0 0 100 66.9" enable-background="new 0 0 100 66.9" xml:space="preserve">
<g>
	<path fill="none" d="M92.6,20v-5.5c-1,0-1.7,0.3-2.3,0.7c-0.5,0.5-0.8,1.1-0.8,1.9s0.3,1.5,0.8,2C90.8,19.6,91.6,19.9,92.6,20z"/>
	<path fill="none" d="M65.8,12.7L42.4,46h28.6V27.1c0-9.1,0.2-16.7,0.6-22.9h-0.4C70.8,5.3,68.9,8.2,65.8,12.7z"/>
	<path fill="#0E8035" d="M0,14.1l2.6,3.2c8.8-6.9,13.5-10.6,14-11C17.1,5.9,17.5,5.4,18,5c-0.4,4.7-0.5,9.2-0.5,13.6v48.2h4.4V0.7
		H18L0,14.1z"/>
	<path fill="#0E8035" d="M75.4,0.3h-5.5L37,46.9v3h34v16.9h4.3V49.9h11.4V46H75.4V0.3L75.4,0.3z M71.1,27.1V46H42.4l23.3-33.3
		c3.1-4.6,5-7.4,5.6-8.5h0.4C71.3,10.4,71.1,18,71.1,27.1z"/>
	<path fill="#B71C24" d="M95.9,32.3c-1.5-0.3-3.5-0.6-6.1-0.8v-3.3h10v-2.6h-12v8.1c3.4,0.2,6,0.6,7.6,1c1.7,0.4,2.5,1,2.5,1.7
		c0,0.3-0.1,0.5-0.2,0.8h2c0.2-0.4,0.2-0.8,0.2-1.4c0-0.9-0.3-1.6-1-2.2C98.4,33.1,97.3,32.7,95.9,32.3z"/>
	<path fill="#B71C24" d="M93.9,22.7c1.9,0,3.4-0.5,4.5-1.6c1.1-1.1,1.6-2.5,1.6-4.4c0-0.8-0.1-1.5-0.2-2.2c-0.1-0.6-0.3-1.3-0.6-1.9
		h-2.1c0.3,0.7,0.5,1.4,0.7,2c0.1,0.6,0.2,1.3,0.2,2c0,1.1-0.3,1.9-0.9,2.5c-0.6,0.6-1.5,0.9-2.7,0.9v-8h-1.3c-1.7,0-3,0.5-4,1.4
		c-1,0.9-1.4,2.2-1.4,3.8c0,1.7,0.6,3.1,1.7,4C90.4,22.2,92,22.7,93.9,22.7z M90.3,15.2c0.5-0.5,1.3-0.7,2.3-0.7V20
		c-1-0.1-1.7-0.4-2.3-0.9c-0.5-0.5-0.8-1.1-0.8-2S89.8,15.7,90.3,15.2z"/>
	<polygon fill="#B71C24" points="89.8,6.5 99.9,6.5 99.9,4 89.8,4 89.8,0 87.8,0 87.8,10.5 89.8,10.5 	"/>
</g>
</svg>
