<?xml version="1.0" encoding="utf-8"?>
<!-- Generator: Adobe Illustrator 18.1.1, SVG Export Plug-In . SVG Version: 6.00 Build 0)  -->
<svg version="1.1" id="Слой_1" xmlns="http://www.w3.org/2000/svg" xmlns:xlink="http://www.w3.org/1999/xlink" x="0px" y="0px"
	 viewBox="0 0 100 100" enable-background="new 0 0 100 100" xml:space="preserve">
<g>
	<g>
		<g>
			<path fill="#0E8035" d="M54.8,49.3C43.9,49.3,35,40.5,35,29.6C35,13.9,53.2,0.8,54,0.3c0.5-0.3,1.1-0.3,1.6,0
				c0.8,0.6,19,13.7,19,29.3C74.5,40.5,65.7,49.3,54.8,49.3z M54.8,3.1c-3.5,2.7-17,14-17,26.5c0,9.4,7.6,17,17,17
				c9.4,0,17-7.6,17-17C71.8,17.1,58.3,5.8,54.8,3.1z"/>
		</g>
		<g>
			<path fill="#0E8035" d="M54.8,26c-0.4,0-0.7-0.1-1-0.4L47,18.8c-0.5-0.5-0.5-1.4,0-1.9c0.5-0.5,1.4-0.5,1.9,0l5.9,5.9l5.9-5.9
				c0.5-0.5,1.4-0.5,1.9,0c0.5,0.5,0.5,1.4,0,1.9l-6.8,6.8C55.5,25.9,55.1,26,54.8,26z"/>
		</g>
		<g>
			<path fill="#0E8035" d="M54.8,34.2c-0.4,0-0.7-0.1-1-0.4l-9.6-9.6c-0.5-0.5-0.5-1.4,0-1.9c0.5-0.5,1.4-0.5,1.9,0l8.6,8.6l8.6-8.6
				c0.5-0.5,1.4-0.5,1.9,0s0.5,1.4,0,1.9l-9.6,9.6C55.5,34.1,55.1,34.2,54.8,34.2z"/>
		</g>
		<g>
			<path fill="#0E8035" d="M54.8,42.5c-0.4,0-0.7-0.1-1-0.4L41.5,29.7c-0.5-0.5-0.5-1.4,0-1.9c0.5-0.5,1.4-0.5,1.9,0l11.4,11.4
				l11.4-11.4c0.5-0.5,1.4-0.5,1.9,0c0.5,0.5,0.5,1.4,0,1.9L55.8,42.1C55.5,42.3,55.1,42.5,54.8,42.5z"/>
		</g>
		<g>
			<path fill="#0E8035" d="M32.8,53.4C32.8,53.4,32.8,53.4,32.8,53.4c-2.2,0-4.4-0.5-6.7-1.4c-5-2.1-7.5-6-9.8-9.4
				c-2.1-3.1-3.8-5.9-7.1-6.8c-0.5-0.1-0.8-0.5-0.9-1s0.1-1,0.4-1.3c0.2-0.2,6-5.2,14.9-5.2c3.3,0,6.7,0.7,10,2.1
				c1.5,0.6,2.9,1.4,4.2,2.4c0.3,0.2,0.5,0.5,0.5,0.8c0.8,3.5,2.7,6.5,5.3,8.9c0.3,0.3,0.5,0.6,0.5,1c0,1.2-0.2,2.3-0.7,3.4
				C41.6,50.9,37.7,53.4,32.8,53.4z M12.4,34.2c2.8,1.6,4.6,4.3,6.3,6.9c2.1,3.2,4.3,6.6,8.5,8.4c1.9,0.8,3.8,1.2,5.6,1.2
				c3.8,0,6.8-1.9,8.1-5c0.2-0.5,0.4-1.1,0.4-1.8c-2.7-2.6-4.6-5.8-5.6-9.4c-1-0.7-2.1-1.3-3.2-1.8c-2.9-1.3-5.9-1.9-8.9-1.9
				C18.5,30.9,14.5,32.8,12.4,34.2z"/>
		</g>
		<g>
			<path fill="#0E8035" d="M74.7,51.7C74.7,51.7,74.7,51.7,74.7,51.7c-3.6,0-6.8-1.7-8.7-4.4c-0.6-0.9-1-1.8-1.3-2.9
				c-0.1-0.5,0-1.1,0.5-1.4c3.6-2.8,5.9-6.8,6.4-11.3c0.1-0.5,0.4-0.9,0.8-1.1c2.2-0.9,4.8-1.3,7.7-1.3c4.9,0,9.1,1.3,9.3,1.4
				c0.6,0.2,1,0.8,1,1.4c0,0.5-1.2,12.5-8.7,17.5C79.6,51,77.2,51.7,74.7,51.7z M67.7,44.5c0.2,0.4,0.4,0.8,0.7,1.2
				c1.4,2.1,3.7,3.2,6.4,3.2h0c1.9,0,3.8-0.6,5.4-1.7c5.2-3.5,6.9-11.4,7.4-14.4C86,32.6,83.2,32,80.2,32c-2.2,0-4.2,0.3-5.9,0.9
				C73.5,37.4,71.2,41.5,67.7,44.5z"/>
		</g>
		<g>
			<path fill="#0E8035" d="M54.1,60.3c-0.6,0-1.1-0.4-1.3-1C50.3,50.9,42.1,47.8,42,47.8c-0.7-0.3-1.1-1-0.8-1.8
				c0.3-0.7,1-1.1,1.8-0.8c0.4,0.1,9.6,3.6,12.5,13.3c0.2,0.7-0.2,1.5-0.9,1.7C54.4,60.3,54.2,60.3,54.1,60.3z"/>
		</g>
		<g>
			<path fill="#0E8035" d="M55.6,60.3c-0.1,0-0.3,0-0.4-0.1c-0.7-0.2-1.1-1-0.9-1.7c2.9-9.7,12.1-13.2,12.5-13.3
				c0.7-0.3,1.5,0.1,1.8,0.8c0.3,0.7-0.1,1.5-0.8,1.8c-0.1,0-8.3,3.1-10.8,11.5C56.7,59.9,56.2,60.3,55.6,60.3z"/>
		</g>
		<g>
			<path fill="#0E8035" d="M54.8,60.3c-0.8,0-1.4-0.6-1.4-1.4V12.3c0-0.8,0.6-1.4,1.4-1.4s1.4,0.6,1.4,1.4v46.6
				C56.2,59.7,55.6,60.3,54.8,60.3z"/>
		</g>
	</g>
	<g opacity="0.5">
		<g>
			<path fill="#0E8035" d="M75.9,32.3c0,10.2-8.2,18.4-18.4,18.4s-18.4-8.2-18.4-18.4c0-15.1,18.4-28.2,18.4-28.2
				S75.9,17.2,75.9,32.3z"/>
		</g>
		<g>
			<path fill="#0E8035" d="M39.7,36.5c-1.2-0.9-2.5-1.6-3.9-2.2c-13.6-5.8-23.4,2.9-23.4,2.9c7.7,2.3,7.9,12.4,17,16.3
				c7.2,3,13.3,0.6,15.5-4.5c0.4-0.9,0.6-1.9,0.6-2.9C42.6,43.6,40.5,40.3,39.7,36.5z"/>
		</g>
		<g>
			<path fill="#0E8035" d="M75.8,34.6c-0.6,4.9-3.2,9.3-6.9,12.2c0.2,0.9,0.6,1.7,1.1,2.5c2.8,4.2,9,5.1,13.8,1.9
				c7.1-4.7,8.1-16.5,8.1-16.5S82.7,31.8,75.8,34.6z"/>
		</g>
	</g>
</g>
<g>
	<path fill="#B71C24" d="M76,68.5C76,68.5,76,68.5,76,68.5H24c-0.4,0-0.9-0.2-1.1-0.6c-0.3-0.4-0.3-0.8-0.2-1.2l2.7-8.2
		c0.2-0.6,0.7-0.9,1.3-0.9h46.6c0.6,0,1.1,0.4,1.3,0.9l2.7,8c0.1,0.2,0.2,0.4,0.2,0.7C77.4,67.9,76.8,68.5,76,68.5z M25.9,65.8h48.3
		l-1.8-5.5H27.7L25.9,65.8z"/>
</g>
<g>
	<path fill="#B71C24" d="M67.8,98.6H32.2c-0.7,0-1.2-0.5-1.3-1.1l-5.5-30.1c-0.1-0.4,0-0.8,0.3-1.1c0.3-0.3,0.6-0.5,1.1-0.5h46.6
		c0.4,0,0.8,0.2,1.1,0.5c0.3,0.3,0.4,0.7,0.3,1.1l-5.5,30.1C69,98.2,68.5,98.6,67.8,98.6z M33.3,95.9h33.3l5-27.4H28.4L33.3,95.9z"
		/>
</g>
<g opacity="0.5">
	<g>
		<polygon fill="#B71C24" points="26.7,61.6 73.3,61.6 76,69.9 24,69.9 		"/>
	</g>
	<g>
		<polygon fill="#B71C24" points="26.7,69.9 32.2,100 67.8,100 73.3,69.9 		"/>
	</g>
</g>
</svg>
