<?xml version="1.0" encoding="utf-8"?>
<!-- Generator: Adobe Illustrator 18.1.1, SVG Export Plug-In . SVG Version: 6.00 Build 0)  -->
<svg version="1.1" id="Слой_1" xmlns="http://www.w3.org/2000/svg" xmlns:xlink="http://www.w3.org/1999/xlink" x="0px" y="0px"
	 viewBox="0 0 100 100" enable-background="new 0 0 100 100" xml:space="preserve">
<g>
	<path fill="none" d="M54.2,47.2v-4.9L42.1,30.1c-0.5-0.5-0.5-1.4,0-2c0.5-0.6,1.4-0.5,2,0l10.1,10.1v-4.3l-9.3-9.3
		c-0.5-0.5-0.5-1.4,0-2c0.5-0.5,1.4-0.5,2,0l7.3,7.3v-4.3L47.6,19c-0.5-0.5-0.5-1.4,0-2c0.5-0.5,1.4-0.5,2,0l4.6,4.6v-9.1
		c0-0.8,0.6-1.4,1.4-1.4c0.8,0,1.4,0.6,1.4,1.4v9.1l4.6-4.6c0.5-0.5,1.4-0.5,2,0c0.5,0.5,0.5,1.4,0,2L57,25.5v4.4l7.3-7.3
		c0.5-0.5,1.4-0.5,2,0c0.5,0.5,0.5,1.4,0,2L57,33.9v4.3l10.1-10.1c0.5-0.5,1.4-0.5,2,0c0.6,0.5,0.5,1.4,0,2L57,42.1v5.1
		c3.3-0.3,6.4-1.5,8.9-3.4c0.1-0.1,0.2-0.3,0.3-0.4c3-2.3,5.1-5.6,6-9.2c0.1-0.3,0.1-0.5,0.2-0.8c0-0.1,0-0.1,0-0.2
		c0.2-1.1,0.3-2.2,0.3-3.3c0-12.7-13.7-24.1-17.2-26.9C52,5.9,38.3,17.3,38.3,30C38.3,39,45.3,46.5,54.2,47.2z"/>
	<path fill="none" d="M74.9,35.3c-0.1,0.4-0.2,0.8-0.4,1.3c0,0.1-0.1,0.3-0.2,0.4c-0.2,0.4-0.3,0.8-0.5,1.2
		c-0.1,0.1-0.1,0.3-0.2,0.4c-0.2,0.4-0.4,0.8-0.6,1.1c-0.1,0.1-0.2,0.3-0.2,0.4c-1.1,1.9-2.5,3.6-4.2,5c0.1,0.3,0.3,0.6,0.5,0.9
		c0.2,0.1,0.3,0.3,0.4,0.5c0,0,0,0.1,0,0.1c1.4,1.9,3.7,3,6.3,3c1.9,0,3.8-0.6,5.5-1.7c5.3-3.5,7-11.6,7.5-14.6
		c-1.5-0.4-4.3-0.9-7.5-0.9c-2.2,0-4.3,0.3-6,0.9c0,0.1,0,0.1,0,0.2c-0.1,0.4-0.2,0.8-0.3,1.2C75,34.9,74.9,35.1,74.9,35.3z"/>
	<path fill="none" d="M55.4,61.1c-0.3,0-0.4,0-0.6,0H32.9l-1.8,5.6h0.8h47.2H80l-1.9-5.6H55.4z"/>
	<polygon fill="none" points="38.7,97.2 72.5,97.2 77.6,69.4 33.6,69.4 	"/>
	<path fill="none" d="M48.7,48.7c1.9,1.4,3.9,3.3,5.5,6v-4.8C52.3,49.8,50.4,49.4,48.7,48.7z"/>
	<path fill="none" d="M41,43.6c-0.1-0.1-0.3-0.3-0.4-0.4c-0.2-0.2-0.4-0.4-0.5-0.6c-1.8-2.2-3.1-4.7-3.9-7.6c-1-0.7-2.1-1.3-3.3-1.8
		c-3-1.3-6-1.9-9-1.9c-5.1,0.1-9.2,2-11.4,3.3c2.8,1.7,4.6,4.4,6.4,7c2.1,3.3,4.4,6.7,8.7,8.5c1.9,0.8,3.9,1.2,5.7,1.2
		c3.8,0,6.9-1.9,8.2-5c0.2-0.6,0.4-1.2,0.4-1.8C41.6,44.2,41.3,43.9,41,43.6z"/>
	<path fill="none" d="M57,49.9v4.8c1.6-2.7,3.7-4.6,5.6-6C60.8,49.4,58.9,49.8,57,49.9z"/>
	<path fill="#0E8035" d="M67.7,48.8c2,2.2,4.9,3.6,8.1,3.6c2.5,0,4.9-0.7,7.2-2.1c7.6-5.1,8.8-17.3,8.8-17.8c0-0.6-0.4-1.2-1-1.4
		c-0.2-0.1-4.4-1.4-9.4-1.4c-2.1,0-4.1,0.2-5.8,0.7c0-0.1,0-0.2,0-0.4c0-15.9-18.5-29.2-19.3-29.7c-0.5-0.3-1.1-0.3-1.6,0
		C54,0.8,35.5,14.1,35.6,30c0,0.5,0,1.1,0.1,1.6c-0.5-0.3-1.1-0.6-1.7-0.8c-3.3-1.4-6.7-2.1-10.1-2.1c-9,0-14.9,5.1-15.1,5.3
		c-0.3,0.3-0.5,0.8-0.4,1.3c0.2,0.5,0.5,0.9,1,1c3.3,1,5.1,3.7,7.2,6.9c2.3,3.4,4.8,7.4,9.9,9.5c2.2,1,4.5,1.5,6.7,1.5
		c4.5,0,8.1-2.1,10.1-5.4c1.8,0.8,7.1,3.7,9.6,9.5h5.6C60.8,52.7,65.7,49.8,67.7,48.8z M75.3,33.4c1.7-0.6,3.8-0.9,6-0.9
		c3.2,0,6,0.5,7.5,0.9c-0.5,3-2.2,11.1-7.5,14.6c-1.7,1.1-3.6,1.7-5.5,1.7c-2.6,0-4.8-1.1-6.3-3c0,0,0-0.1,0-0.1
		c-0.1-0.2-0.2-0.4-0.4-0.5c-0.2-0.3-0.3-0.6-0.5-0.9c1.6-1.4,3.1-3.1,4.2-5c0.1-0.1,0.2-0.3,0.2-0.4c0.2-0.4,0.4-0.8,0.6-1.1
		c0.1-0.1,0.1-0.3,0.2-0.4c0.2-0.4,0.3-0.8,0.5-1.2c0.1-0.1,0.1-0.3,0.2-0.4c0.1-0.4,0.3-0.8,0.4-1.3c0-0.2,0.1-0.3,0.1-0.5
		c0.1-0.4,0.2-0.8,0.3-1.2C75.3,33.5,75.3,33.5,75.3,33.4z M55.6,3.1C59.1,5.9,72.8,17.3,72.8,30c0,1.1-0.1,2.2-0.3,3.3
		c0,0.1,0,0.1,0,0.2c-0.1,0.3-0.1,0.5-0.2,0.8c-1,3.6-3,6.8-6,9.2c-0.1,0.1-0.2,0.2-0.3,0.4c-2.5,1.9-5.5,3.1-8.9,3.4v-5.1l12.1-12
		c0.5-0.6,0.6-1.5,0-2c-0.6-0.5-1.5-0.5-2,0L57,38.2v-4.3l9.3-9.3c0.5-0.6,0.5-1.5,0-2c-0.6-0.5-1.5-0.5-2,0L57,29.9v-4.4l6.6-6.5
		c0.5-0.6,0.5-1.5,0-2c-0.6-0.5-1.5-0.5-2,0L57,21.6v-9.1c0-0.8-0.6-1.4-1.4-1.4c-0.8,0-1.4,0.6-1.4,1.4v9.1L49.6,17
		c-0.6-0.5-1.5-0.5-2,0c-0.5,0.6-0.5,1.5,0,2l6.6,6.6v4.3l-7.3-7.3c-0.6-0.5-1.5-0.5-2,0c-0.5,0.6-0.5,1.5,0,2l9.3,9.3v4.3
		L44.1,28.1c-0.6-0.5-1.5-0.6-2,0c-0.5,0.6-0.5,1.5,0,2l12.1,12.2v4.9C45.3,46.5,38.3,39,38.3,30C38.3,17.3,52,5.9,55.6,3.1z
		 M41.5,46.3c-1.3,3.1-4.4,5-8.2,5c-1.8,0-3.8-0.4-5.7-1.2c-4.3-1.8-6.6-5.2-8.7-8.5c-1.8-2.6-3.6-5.3-6.4-7
		c2.2-1.3,6.3-3.2,11.4-3.3c3,0,6,0.6,9,1.9c1.2,0.5,2.3,1.1,3.3,1.8c0.8,2.8,2.1,5.4,3.9,7.6c0.2,0.2,0.4,0.4,0.5,0.6
		c0.1,0.1,0.3,0.3,0.4,0.4c0.3,0.3,0.6,0.6,0.9,0.9C41.9,45.1,41.7,45.7,41.5,46.3z M48.7,48.7c1.7,0.6,3.6,1.1,5.5,1.2v4.8
		C52.6,52.1,50.5,50.1,48.7,48.7z M57,54.8v-4.8c1.9-0.1,3.8-0.6,5.6-1.2C60.7,50.1,58.6,52.1,57,54.8z"/>
	<path fill="#B71C24" d="M52.8,58.3H32c-0.6,0-1.1,0.3-1.3,0.9l-2.8,8.3c-0.1,0.5-0.1,0.9,0.2,1.3c0.2,0.4,0.7,0.6,1.1,0.6h1.5
		l5.4,29.5c0.2,0.6,0.7,1.1,1.4,1.1h36.1c0.7,0,1.3-0.5,1.4-1.1l5.3-29.5H82c0.7,0,1.4-0.6,1.4-1.4c0-0.3-0.1-0.5-0.2-0.7l-2.7-8.1
		c-0.2-0.5-0.7-0.9-1.3-0.9H58.5H52.8z M72.5,97.2H38.7l-5.1-27.8h44L72.5,97.2z M80,66.7h-0.9H31.9h-0.8l1.8-5.6h21.9
		c0.2,0,0.3,0,0.6,0h22.7L80,66.7z"/>
</g>
</svg>
