<?xml version="1.0" encoding="utf-8"?>
<!-- Generator: Adobe Illustrator 18.1.1, SVG Export Plug-In . SVG Version: 6.00 Build 0)  -->
<svg version="1.1" id="Слой_1" xmlns="http://www.w3.org/2000/svg" xmlns:xlink="http://www.w3.org/1999/xlink" x="0px" y="0px"
	 viewBox="0 0 100 100" enable-background="new 0 0 100 100" xml:space="preserve">
<g>
	<path fill="#0E8035" d="M62.4,37.5c0.7-0.7,1.3-1.5,1.8-2.3c-0.9-0.2-1.9-0.3-2.9-0.3c-2.9,0-5.5,0.9-7.2,2.2c0,0-0.1,0.1-0.1,0.1
		c0,0,0.1-0.1,0.1-0.1c1.3-1.7,2.2-4.3,2.2-7.2c0-1-0.1-2-0.3-2.9c-0.8,0.5-1.6,1.1-2.3,1.8c-2,2-3.3,4.5-3.5,6.6c0,0.1,0,0.1,0,0.2
		c0-0.1,0-0.1,0-0.2c-0.3-2.2-1.5-4.6-3.5-6.6c-0.7-0.7-1.5-1.3-2.3-1.8c-0.2,0.9-0.3,1.9-0.3,2.9c0,2.9,0.9,5.5,2.2,7.2
		c0,0,0.1,0.1,0.1,0.1c0,0-0.1-0.1-0.1-0.1c-1.7-1.3-4.3-2.2-7.2-2.2c-1,0-2,0.1-2.9,0.3c0.5,0.8,1.1,1.6,1.8,2.3
		c2,2,4.5,3.3,6.6,3.5c0.1,0,0.1,0,0.2,0c-0.1,0-0.1,0-0.2,0c-2.2,0.3-4.6,1.5-6.6,3.5c-0.7,0.7-1.3,1.5-1.8,2.3
		c0.9,0.2,1.9,0.3,2.9,0.3c2.9,0,5.5-0.9,7.2-2.2c0,0,0.1-0.1,0.1-0.1c0,0-0.1,0.1-0.1,0.1c-1.3,1.7-2.2,4.3-2.2,7.2
		c0,1,0.1,2,0.3,2.9c0.8-0.5,1.6-1.1,2.3-1.8c2-2,3.3-4.5,3.5-6.6c0-0.1,0-0.1,0-0.2c0,0.1,0,0.1,0,0.2c0.3,2.2,1.5,4.6,3.5,6.6
		c0.7,0.7,1.5,1.3,2.3,1.8c0.2-0.9,0.3-1.9,0.3-2.9c0-2.9-0.9-5.5-2.2-7.2c0,0-0.1-0.1-0.1-0.1c0,0,0.1,0.1,0.1,0.1
		c1.7,1.3,4.3,2.2,7.2,2.2c1,0,2-0.1,2.9-0.3c-0.5-0.8-1.1-1.6-1.8-2.3c-2-2-4.5-3.3-6.6-3.5c-0.1,0-0.1,0-0.2,0c0.1,0,0.1,0,0.2,0
		C58,40.8,60.4,39.6,62.4,37.5z M50.2,43.5c-1.4,0-2.5-1.1-2.5-2.5c0-1.4,1.1-2.5,2.5-2.5c1.4,0,2.5,1.1,2.5,2.5
		C52.6,42.4,51.5,43.5,50.2,43.5z"/>
	<path fill="#0E8035" d="M44.9,35.8c-1.5-1.8-2.4-4.4-2.4-7.3c0-0.8,0.1-1.6,0.2-2.3c-2.7-1.2-5.5-1.2-7.1,0.4
		c-1.6,1.6-1.6,4.4-0.4,7.1c0.7-0.1,1.5-0.2,2.3-0.2C40.4,33.4,43,34.3,44.9,35.8z"/>
	<path fill="#0E8035" d="M50.2,33.6c0.3-2.3,1.5-4.8,3.5-6.8c0.6-0.6,1.2-1.1,1.8-1.5c-1.1-2.8-3-4.7-5.3-4.7
		c-2.3,0-4.3,1.9-5.3,4.7c0.6,0.4,1.2,0.9,1.8,1.5C48.7,28.8,49.9,31.3,50.2,33.6z"/>
	<path fill="#0E8035" d="M55.5,35.8c1.8-1.5,4.4-2.4,7.3-2.4c0.8,0,1.6,0.1,2.3,0.2c1.2-2.7,1.2-5.5-0.4-7.1
		c-1.6-1.6-4.4-1.6-7.1-0.4c0.1,0.7,0.2,1.5,0.2,2.3C57.8,31.3,56.9,33.9,55.5,35.8z"/>
	<path fill="#0E8035" d="M50.2,48.6c-0.3,2.3-1.5,4.8-3.5,6.8c-0.6,0.6-1.2,1.1-1.8,1.5c1.1,2.8,3,4.7,5.3,4.7
		c2.3,0,4.3-1.9,5.3-4.7c-0.6-0.4-1.2-0.9-1.8-1.5C51.7,53.4,50.5,50.9,50.2,48.6z"/>
	<path fill="#0E8035" d="M42.7,41.1c-2.3-0.3-4.8-1.5-6.8-3.5c-0.6-0.6-1.1-1.2-1.5-1.8c-2.8,1.1-4.7,3-4.7,5.3
		c0,2.3,1.9,4.3,4.7,5.3c0.4-0.6,0.9-1.2,1.5-1.8C37.9,42.6,40.4,41.4,42.7,41.1z"/>
	<path fill="#0E8035" d="M90.4,40.4C90.4,18.1,72.3,0,50,0S9.6,18.1,9.6,40.4c0,19.1,13.2,35.1,31,39.3L50.6,100L61,79.4
		C78,74.6,90.4,59,90.4,40.4z M67,48c1.6,3.3,1.5,6.9-0.7,9.1c-2.2,2.2-5.8,2.3-9.1,0.7c-1.2,3.5-3.9,6-7,6c-3.1,0-5.8-2.4-7-6
		c-3.3,1.6-6.9,1.5-9.1-0.7c-2.2-2.2-2.3-5.8-0.7-9.1c-3.5-1.2-6-3.9-6-7c0-3.1,2.4-5.8,6-7c-1.6-3.3-1.5-6.9,0.7-9.1
		c2.2-2.2,5.8-2.3,9.1-0.7c1.2-3.5,3.9-6,7-6c3.1,0,5.8,2.4,7,6c3.3-1.6,6.9-1.5,9.1,0.7c2.2,2.2,2.3,5.8,0.7,9.1c3.5,1.2,6,3.9,6,7
		C72.9,44.2,70.5,46.8,67,48z"/>
	<path fill="#0E8035" d="M55.5,46.4c1.5,1.8,2.4,4.4,2.4,7.3c0,0.8-0.1,1.6-0.2,2.3c2.7,1.2,5.5,1.2,7.1-0.4
		c1.6-1.6,1.6-4.4,0.4-7.1c-0.7,0.1-1.5,0.2-2.3,0.2C59.9,48.7,57.3,47.8,55.5,46.4z"/>
	<path fill="#0E8035" d="M66,35.7c-0.4,0.6-0.9,1.2-1.5,1.8c-2,2-4.5,3.2-6.8,3.5c2.3,0.3,4.8,1.5,6.8,3.5c0.6,0.6,1.1,1.2,1.5,1.8
		c2.8-1.1,4.7-3,4.7-5.3C70.7,38.8,68.8,36.8,66,35.7z"/>
	<path fill="#0E8035" d="M44.9,46.4c-1.8,1.5-4.4,2.4-7.3,2.4c-0.8,0-1.6-0.1-2.3-0.2C34,51.3,34,54,35.6,55.6
		c1.6,1.6,4.4,1.6,7.1,0.4c-0.1-0.7-0.2-1.5-0.2-2.3C42.5,50.8,43.4,48.2,44.9,46.4z"/>
	<path fill="#FFFFFF" d="M67,34.1c1.6-3.3,1.5-6.9-0.7-9.1c-2.2-2.2-5.8-2.3-9.1-0.7c-1.2-3.5-3.9-6-7-6c-3.1,0-5.8,2.4-7,6
		c-3.3-1.6-6.9-1.5-9.1,0.7c-2.2,2.2-2.3,5.8-0.7,9.1c-3.5,1.2-6,3.9-6,7c0,3.1,2.4,5.8,6,7c-1.6,3.3-1.5,6.9,0.7,9.1
		c2.2,2.2,5.8,2.3,9.1,0.7c1.2,3.5,3.9,6,7,6c3.1,0,5.8-2.4,7-6c3.3,1.6,6.9,1.5,9.1-0.7c2.2-2.2,2.3-5.8,0.7-9.1c3.5-1.2,6-3.9,6-7
		C72.9,38,70.5,35.3,67,34.1z M64.7,26.5c1.6,1.6,1.6,4.4,0.4,7.1c-0.7-0.1-1.5-0.2-2.3-0.2c-2.9,0-5.5,0.9-7.3,2.4
		c1.5-1.8,2.4-4.4,2.4-7.3c0-0.8-0.1-1.6-0.2-2.3C60.4,24.9,63.1,24.9,64.7,26.5z M55.8,41.1c2.2,0.3,4.6,1.5,6.6,3.5
		c0.7,0.7,1.3,1.5,1.8,2.3c-0.9,0.2-1.9,0.3-2.9,0.3c-2.9,0-5.5-0.9-7.2-2.2c0,0-0.1-0.1-0.1-0.1c0,0,0.1,0.1,0.1,0.1
		c1.3,1.7,2.2,4.3,2.2,7.2c0,1-0.1,2-0.3,2.9c-0.8-0.5-1.6-1.1-2.3-1.8c-2-2-3.3-4.5-3.5-6.6c0-0.1,0-0.1,0-0.2c0,0.1,0,0.1,0,0.2
		c-0.3,2.2-1.5,4.6-3.5,6.6c-0.7,0.7-1.5,1.3-2.3,1.8c-0.2-0.9-0.3-1.9-0.3-2.9c0-2.9,0.9-5.5,2.2-7.2c0,0,0.1-0.1,0.1-0.1
		c0,0-0.1,0.1-0.1,0.1c-1.7,1.3-4.3,2.2-7.2,2.2c-1,0-2-0.1-2.9-0.3c0.5-0.8,1.1-1.6,1.8-2.3c2-2,4.5-3.3,6.6-3.5c0.1,0,0.1,0,0.2,0
		c-0.1,0-0.1,0-0.2,0c-2.2-0.3-4.6-1.5-6.6-3.5c-0.7-0.7-1.3-1.5-1.8-2.3C37,35,38,34.9,39,34.9c2.9,0,5.5,0.9,7.2,2.2
		c0,0,0.1,0.1,0.1,0.1c0,0-0.1-0.1-0.1-0.1c-1.3-1.7-2.2-4.3-2.2-7.2c0-1,0.1-2,0.3-2.9c0.8,0.5,1.6,1.1,2.3,1.8
		c2,2,3.3,4.5,3.5,6.6c0,0.1,0,0.1,0,0.2c0-0.1,0-0.1,0-0.2c0.3-2.2,1.5-4.6,3.5-6.6c0.7-0.7,1.5-1.3,2.3-1.8
		c0.2,0.9,0.3,1.9,0.3,2.9c0,2.9-0.9,5.5-2.2,7.2c0,0-0.1,0.1-0.1,0.1c0,0,0.1-0.1,0.1-0.1c1.7-1.3,4.3-2.2,7.2-2.2
		c1,0,2,0.1,2.9,0.3c-0.5,0.8-1.1,1.6-1.8,2.3C60.4,39.6,58,40.8,55.8,41.1c-0.1,0-0.1,0-0.2,0C55.7,41.1,55.7,41.1,55.8,41.1z
		 M50.2,20.5c2.3,0,4.3,1.9,5.3,4.7c-0.6,0.4-1.2,0.9-1.8,1.5c-2,2-3.2,4.5-3.5,6.8c-0.3-2.3-1.5-4.8-3.5-6.8
		c-0.6-0.6-1.2-1.1-1.8-1.5C45.9,22.4,47.9,20.5,50.2,20.5z M35.6,26.5c1.6-1.6,4.4-1.6,7.1-0.4c-0.1,0.7-0.2,1.5-0.2,2.3
		c0,2.9,0.9,5.5,2.4,7.3c-1.8-1.5-4.4-2.4-7.3-2.4c-0.8,0-1.6,0.1-2.3,0.2C34,30.9,34,28.2,35.6,26.5z M29.6,41.1
		c0-2.3,1.9-4.3,4.7-5.3c0.4,0.6,0.9,1.2,1.5,1.8c2,2,4.5,3.2,6.8,3.5c-2.3,0.3-4.8,1.5-6.8,3.5c-0.6,0.6-1.1,1.2-1.5,1.8
		C31.5,45.3,29.6,43.4,29.6,41.1z M35.6,55.6C34,54,34,51.3,35.2,48.5c0.7,0.1,1.5,0.2,2.3,0.2c2.9,0,5.5-0.9,7.3-2.4
		c-1.5,1.8-2.4,4.4-2.4,7.3c0,0.8,0.1,1.6,0.2,2.3C40,57.3,37.3,57.2,35.6,55.6z M50.2,61.6c-2.3,0-4.3-1.9-5.3-4.7
		c0.6-0.4,1.2-0.9,1.8-1.5c2-2,3.2-4.5,3.5-6.8c0.3,2.3,1.5,4.8,3.5,6.8c0.6,0.6,1.2,1.1,1.8,1.5C54.5,59.7,52.5,61.6,50.2,61.6z
		 M64.7,55.6c-1.6,1.6-4.4,1.6-7.1,0.4c0.1-0.7,0.2-1.5,0.2-2.3c0-2.9-0.9-5.5-2.4-7.3c1.8,1.5,4.4,2.4,7.3,2.4
		c0.8,0,1.6-0.1,2.3-0.2C66.4,51.3,66.3,54,64.7,55.6z M66,46.4c-0.4-0.6-0.9-1.2-1.5-1.8c-2-2-4.5-3.2-6.8-3.5
		c2.3-0.3,4.8-1.5,6.8-3.5c0.6-0.6,1.1-1.2,1.5-1.8c2.8,1.1,4.7,3,4.7,5.3C70.7,43.4,68.8,45.3,66,46.4z"/>
	<circle fill="#FFFFFF" cx="50.2" cy="41.1" r="2.5"/>
</g>
</svg>
