<?xml version="1.0" encoding="utf-8"?>
<!-- Generator: Adobe Illustrator 18.1.1, SVG Export Plug-In . SVG Version: 6.00 Build 0)  -->
<svg version="1.1" id="Слой_1" xmlns="http://www.w3.org/2000/svg" xmlns:xlink="http://www.w3.org/1999/xlink" x="0px" y="0px"
	 viewBox="0 0 100 100" enable-background="new 0 0 100 100" xml:space="preserve">
<g>
	<path fill="none" d="M45.7,52.4c1.9,0.3,3.9,0.4,5.8,0.3c0.8,0,1.6-0.1,2.5-0.3c0.2-0.1,0.4,0,0.6,0c0.2,0,0.4-0.1,0.6-0.1v-2.5
		c0-5.6-1.8-10.9-5.2-15.4l0,0l-1.1-1.2C46.7,30.6,44,28.6,41,27c-4.8-2.4-8.6-6.5-10.6-11.6l-0.2-0.6l0,0c-0.5-1.3-0.8-2.6-1-4
		c-3.5,4.5-5.4,10.1-5.4,15.9c0,12.8,9.2,23.5,21.4,25.8C45.4,52.4,45.5,52.4,45.7,52.4z"/>
	<path fill="none" d="M69.6,15.4C69.6,15.4,69.6,15.5,69.6,15.4c-2,5.1-5.7,9.2-10.7,11.7c-1,0.5-2,1.1-2.9,1.7
		c-0.4,0.3-0.8,0.5-1.2,0.8c0,0-0.1,0-0.1,0.1c-1,0.8-1.9,1.6-2.7,2.5c3.9,5,6,11.1,6,17.4v0.1v1.8c10.3-3.3,17.7-12.9,18.1-23.9
		c0.2-6.2-1.7-12-5.3-16.8c-0.2,1.5-0.6,3-1.1,4.3L69.6,15.4z"/>
	<path fill="none" d="M42.3,24.5c2.4,1.2,4.6,2.7,6.5,4.5c0.4,0.4,0.8,0.8,1.2,1.2c2-2.1,4.3-3.9,6.9-5.2c0.3-0.2,0.5-0.3,0.8-0.5
		c4-2,7.2-5.4,9-9.5C63,7.6,56.5,2.8,50,2.8S37,7.6,33.3,15C35.1,19.1,38.3,22.5,42.3,24.5z"/>
	<path fill="none" d="M80.6,56.8c-16.1,0-29.2,13.1-29.2,29.2c0,0,0,0.2,0,0.2v5.2l29-19.7c0.6-0.4,1.5-0.3,1.9,0.4
		c0.4,0.6,0.3,1.5-0.4,1.9L53.3,93.4c4.4,2.3,9.9,3.8,14.8,3.8c16.1,0,29.2-13.1,29.2-29.2c0-2.1-0.2-4.3-0.7-6.4
		C91.9,58.5,86.3,56.8,80.6,56.8z"/>
	<path fill="none" d="M18,74c-0.6-0.4-0.8-1.3-0.4-1.9c0.4-0.6,1.3-0.8,1.9-0.4l29.2,19.8v-5.3c0-1.2-0.1-2.4-0.2-3.6
		c-0.1-0.1-0.1-0.3-0.2-0.5c-0.6-4.7-2.4-9.2-5.2-13c0-0.1-0.1-0.1-0.1-0.2C37.7,61.7,29.1,57,19.5,57c-5.8-0.1-11.3,1.6-16,4.7
		c-0.5,2.1-0.7,4.2-0.7,6.4c0,16.1,13.1,29.2,29.2,29.2c4.9,0,10.3-1.4,14.8-3.8L18,74z"/>
	<path fill="none" d="M47.2,70.5c1.1,2,2.1,4.2,2.8,6.4c1-3.1,2.4-6.1,4.3-8.9l-1.1-12.5c-0.4,0.1-0.9,0.1-1.3,0.1
		c-1.7,0.1-3.3,0.1-5-0.1L45.7,68c0.1,0.1,0.1,0.2,0.2,0.2c0.3,0.5,0.7,1,1,1.6C47,70,47.1,70.2,47.2,70.5z"/>
	<path fill="#0E8035" d="M99.2,60.6c-0.1-0.3-0.3-0.6-0.6-0.8c-5.3-3.6-11.6-5.5-18-5.5c-9.5,0-18.1,4.2-24,10.9L55.7,55
		c-1.3,0.3-2.6,0.5-3.9,0.5c-0.6,0.1-1.2,0.1-1.8,0.1c-2.1,0-4.1-0.2-6-0.6l-0.9,9.8c-5.8-6.4-14.3-10.5-23.6-10.5
		c-6.5,0-12.7,1.9-18,5.5C1.2,60,1,60.3,0.9,60.6C0.3,63,0,65.6,0,68.1C0,85.7,14.3,100,31.9,100c6.2,0,12.9-2,18.1-5.3
		c5.2,3.3,11.8,5.3,18.1,5.3c17.6,0,31.9-14.3,32-31.9C100.1,65.6,99.8,63.1,99.2,60.6z M45.7,68l1.2-12.5c1.7,0.2,3.3,0.2,5,0.1
		c0.4,0,0.9,0,1.3-0.1L54.3,68c-1.9,2.8-3.3,5.8-4.3,8.9c-0.7-2.3-1.6-4.4-2.8-6.4c-0.1-0.2-0.2-0.4-0.4-0.6c-0.3-0.5-0.7-1.1-1-1.6
		C45.8,68.2,45.8,68.1,45.7,68z M2.8,68.1c0-2.2,0.2-4.3,0.7-6.4c4.7-3.1,10.2-4.8,16-4.7c9.6,0,18.2,4.7,23.5,11.9
		c0,0.1,0.1,0.1,0.1,0.2c2.8,3.8,4.6,8.3,5.2,13c0,0.2,0.1,0.3,0.2,0.5c0.1,1.2,0.2,2.4,0.2,3.6v5.3L19.5,71.7
		c-0.6-0.4-1.5-0.2-1.9,0.4c-0.4,0.6-0.2,1.5,0.4,1.9l28.8,19.5c-4.5,2.4-9.9,3.8-14.8,3.8C15.9,97.3,2.8,84.2,2.8,68.1z M68.1,97.2
		c-4.9,0-10.3-1.4-14.8-3.8L81.9,74c0.7-0.4,0.8-1.3,0.4-1.9c-0.4-0.7-1.3-0.8-1.9-0.4l-29,19.7v-5.2c0,0,0-0.2,0-0.2
		c0-16.1,13.1-29.2,29.2-29.2c5.7,0,11.3,1.7,16,4.8c0.5,2.1,0.7,4.3,0.7,6.4C97.3,84.1,84.2,97.2,68.1,97.2z"/>
	<path fill="#0E8035" d="M54,52.4c-0.9,0.2-1.7,0.3-2.5,0.3c-1.9,0.1-3.9,0-5.8-0.3c-0.2,0-0.3,0-0.5,0.1c1.5,0.3,3.1,0.4,4.8,0.4
		c0.5,0,1.1,0,1.7-0.1c1-0.1,2-0.2,2.9-0.4C54.4,52.4,54.2,52.3,54,52.4z"/>
	<path fill="#B71C24" d="M51.8,55.5c1.3-0.1,2.6-0.3,3.9-0.5c0.3-0.1,0.5-0.1,0.8-0.2c0,0,0.1,0,0.1,0c0.1,0,0.1,0,0.2,0
		c0,0,0.1,0,0.1,0c0.1,0,0.1,0,0.2-0.1c12.5-3.1,21.5-14.2,22-27c0.2-8-2.7-15.6-8.3-21.3c-0.4-0.4-1-0.5-1.5-0.3
		c-0.6,0.2-0.9,0.7-0.9,1.3c0,1.4-0.2,2.8-0.4,4.1C63.6,4.4,56.8,0,50,0c-6.8,0-13.6,4.4-17.9,11.3c-0.3-1.3-0.4-2.6-0.4-3.9
		c0-0.6-0.4-1.1-0.9-1.3c-0.5-0.2-1.1-0.1-1.5,0.3C23.9,11.8,21,19,21,26.6c0,13.9,9.9,25.6,23,28.4c1.9,0.4,4,0.6,6,0.6
		C50.6,55.6,51.2,55.6,51.8,55.5z M76.1,27.7c-0.4,11-7.8,20.5-18.1,23.9v-1.8v-0.1c0-6.3-2.2-12.4-6-17.4c0.9-0.9,1.8-1.8,2.7-2.5
		c0,0,0.1,0,0.1-0.1c0.4-0.3,0.8-0.6,1.2-0.8c0.9-0.6,1.9-1.2,2.9-1.7c5-2.5,8.7-6.6,10.7-11.6c0,0,0-0.1,0-0.1l0.1-0.2
		c0.5-1.4,0.9-2.8,1.1-4.3C74.4,15.7,76.3,21.5,76.1,27.7z M50,2.8c6.5,0,13,4.8,16.7,12.2c-1.8,4.1-5,7.5-9,9.5
		c-0.3,0.1-0.5,0.3-0.8,0.5c-2.6,1.3-4.8,3.1-6.9,5.2c-0.4-0.4-0.8-0.8-1.2-1.2c-1.9-1.8-4.1-3.4-6.5-4.5c-4-2-7.2-5.4-9-9.5
		C37,7.6,43.5,2.8,50,2.8z M23.8,26.7c0-5.8,1.9-11.4,5.4-15.9c0.2,1.4,0.6,2.7,1,4l0,0l0.2,0.6c2,5.1,5.8,9.2,10.6,11.6
		c3,1.6,5.7,3.6,7.9,6.2l1.1,1.2l0,0c3.3,4.5,5.2,9.8,5.2,15.4v2.5c-0.2,0-0.4,0.1-0.6,0.1c-1,0.2-1.9,0.3-2.9,0.4
		c-0.6,0.1-1.2,0.1-1.7,0.1c-1.6,0-3.2-0.2-4.8-0.4C33,50.2,23.8,39.5,23.8,26.7z"/>
</g>
</svg>
