<?xml version="1.0" encoding="utf-8"?>
<!-- Generator: Adobe Illustrator 18.1.1, SVG Export Plug-In . SVG Version: 6.00 Build 0)  -->
<svg version="1.1" id="Слой_1" xmlns="http://www.w3.org/2000/svg" xmlns:xlink="http://www.w3.org/1999/xlink" x="0px" y="0px"
	 viewBox="0 0 100 100" enable-background="new 0 0 100 100" xml:space="preserve">
<g opacity="0.5">
	<g>
		<g>
			<path fill="#0E8035" d="M52.1,87.7c0-16.6-13.5-30.1-30.1-30.1c-6.3,0-12.1,1.9-17,5.2c-0.6,2.3-0.9,4.7-0.9,7.1
				c0,16.6,13.5,30.1,30.1,30.1c6.3,0,13-2.2,17.8-5.5V87.7z"/>
		</g>
		<g>
			<path fill="#0E8035" d="M52.1,87.7c0-16.6,13.5-30.1,30.1-30.1c6.3,0,12.1,1.9,17,5.2c0.6,2.3,0.9,4.7,0.9,7.1
				c0,16.6-13.5,30.1-30.1,30.1c-6.3,0-13-2.2-17.8-5.5V87.7z"/>
		</g>
		<g>
			<path fill="#0E8035" d="M52.3,83.6c0.7-5,2.6-9.5,5.3-13.4l-1.3-14.3c-0.9,0.1-1.7,0.2-2.6,0.3c-2.1,0.1-4.1,0-6.1-0.3l-1.3,14.3
				c2.8,3.9,4.7,8.5,5.3,13.4H52.3z"/>
		</g>
	</g>
	<g>
		<g>
			<path fill="#B71C24" d="M72.6,28.3c0,11.3-9.2,16.9-20.5,16.9s-20.5-5.6-20.5-16.9S40.7,4.1,52.1,4.1S72.6,16.9,72.6,28.3z"/>
		</g>
		<g>
			<path fill="#B71C24" d="M52.1,34.6c-2.3-2.6-5-4.8-8.2-6.4C37,24.7,32.6,17.7,32.6,10c-4.8,4.9-7.8,11.6-7.8,19
				c0,15.6,13.1,28.1,28.9,27.1c1.6-0.1,3.2-0.4,4.8-0.7v-3.5C58.5,45.4,56.2,39.3,52.1,34.6z"/>
		</g>
		<g>
			<path fill="#B71C24" d="M71.5,10c0,7.7-4.3,14.7-11.2,18.1c-3.2,1.6-6,3.8-8.2,6.4c4.1,4.7,6.5,10.9,6.5,17.4v3.5
				c11.5-2.8,20.2-13.2,20.7-25.4C79.5,22.2,76.5,15.2,71.5,10z"/>
		</g>
	</g>
</g>
<g>
	<g>
		<path fill="#0E8035" d="M31.5,98.6C14.1,98.6,0,84.5,0,67.1c0-2.5,0.3-5,0.9-7.4c0.1-0.3,0.3-0.6,0.6-0.8
			c5.2-3.6,11.4-5.5,17.7-5.5c17.4,0,31.5,14.1,31.5,31.5v6.8c0,0.5-0.2,0.9-0.6,1.1C44.8,96.5,37.9,98.6,31.5,98.6z M3.4,60.9
			C3,62.9,2.7,65,2.7,67.1c0,15.9,12.9,28.8,28.8,28.8c5.5,0,11.8-1.8,16.4-4.8v-6.1c0-15.9-12.9-28.8-28.8-28.8
			C13.5,56.2,8.1,57.8,3.4,60.9z"/>
	</g>
	<g>
		<path fill="#0E8035" d="M67.1,98.6c-6.4,0-13.3-2.1-18.6-5.7c-0.4-0.3-0.6-0.7-0.6-1.1v-6.8c0-17.4,14.1-31.5,31.5-31.5
			c6.4,0,12.5,1.9,17.7,5.5c0.3,0.2,0.5,0.5,0.6,0.8c0.6,2.4,0.9,4.9,0.9,7.4C98.6,84.5,84.5,98.6,67.1,98.6z M50.7,91
			c4.7,3,10.9,4.8,16.4,4.8C83,95.9,95.9,83,95.9,67.1c0-2.1-0.2-4.2-0.7-6.3c-4.7-3.1-10.1-4.7-15.7-4.7
			c-15.9,0-28.8,12.9-28.8,28.8V91z"/>
	</g>
	<g>
		<path fill="#0E8035" d="M49.6,82.2H49c-0.7,0-1.3-0.5-1.4-1.2c-0.6-4.6-2.4-9-5.1-12.8c-0.2-0.3-0.3-0.6-0.3-0.9L43.6,53
			c0-0.4,0.2-0.7,0.5-1c0.3-0.2,0.7-0.3,1.1-0.3c1.9,0.3,3.8,0.4,5.8,0.3c0.8,0,1.6-0.1,2.5-0.3c0.4-0.1,0.8,0,1.1,0.3
			c0.3,0.2,0.5,0.6,0.5,1l1.3,14.3c0,0.3-0.1,0.7-0.3,0.9C53.3,72,51.6,76.4,51,81C50.9,81.7,50.3,82.2,49.6,82.2z M45.1,67
			c1.8,2.7,3.3,5.6,4.2,8.7c0.9-3.1,2.4-6.1,4.2-8.7l-1.1-12.4c-0.4,0.1-0.9,0.1-1.3,0.1c-1.7,0.1-3.3,0.1-4.9-0.1L45.1,67z"/>
	</g>
</g>
<g>
	<g>
		<path fill="#B71C24" d="M55.8,54.1c-0.3,0-0.6-0.1-0.8-0.3c-0.3-0.3-0.5-0.7-0.5-1.1v-3.5c0-6-2.2-11.9-6.1-16.5
			c-0.4-0.5-0.4-1.3,0-1.8c2.4-2.8,5.3-5.1,8.6-6.7c6.4-3.2,10.5-9.7,10.5-16.9c0-0.6,0.3-1.1,0.9-1.3c0.5-0.2,1.1-0.1,1.5,0.3
			c5.5,5.7,8.4,13.1,8.1,21C77.4,40,68.4,51,56.1,54C56,54,55.9,54.1,55.8,54.1z M51.1,31.9c3.9,4.9,6,11,6,17.3v1.7
			c10.3-3.3,17.6-12.8,18-23.6c0.2-6.1-1.6-11.9-5.3-16.6c-1.1,6.9-5.3,12.8-11.7,16C55.5,28,53.2,29.7,51.1,31.9z"/>
	</g>
	<g>
		<path fill="#B71C24" d="M55.8,54.1c-0.8,0-1.4-0.6-1.4-1.4v-3.5c0-6-2.2-11.9-6.1-16.5c-0.5-0.6-0.4-1.4,0.1-1.9
			c0.6-0.5,1.4-0.4,1.9,0.1c4.4,5.1,6.8,11.6,6.8,18.2v3.5C57.2,53.4,56.5,54.1,55.8,54.1z"/>
	</g>
</g>
<g>
	<path fill="#B71C24" d="M49.3,54.8C49.3,54.8,49.3,54.8,49.3,54.8c-15.7,0-28.6-12.8-28.6-28.6c0-7.5,2.9-14.6,8.2-20
		c0.4-0.4,1-0.5,1.5-0.3c0.5,0.2,0.9,0.7,0.9,1.3c0,7.2,4,13.7,10.5,16.9c3.3,1.6,6.2,3.9,8.6,6.7c4.4,5.1,6.8,11.6,6.8,18.2v3.5
		c0,0.6-0.4,1.2-1,1.3c-1.7,0.4-3.3,0.7-5,0.8C50.5,54.8,49.9,54.8,49.3,54.8z M28.8,10.7c-3.4,4.5-5.3,9.9-5.3,15.6
		c0,14.2,11.6,25.8,25.8,25.8c0,0,0,0,0,0c0.5,0,1.1,0,1.6-0.1c1.2-0.1,2.3-0.2,3.5-0.5v-2.4c0-6-2.2-11.9-6.1-16.5
		c-2.2-2.5-4.8-4.6-7.8-6.1C34.1,23.5,29.9,17.5,28.8,10.7z"/>
</g>
<g>
	<path fill="#B71C24" d="M49.3,33.9l-1-1.2c-2.2-2.5-4.8-4.6-7.8-6.1c-4.8-2.4-8.5-6.4-10.4-11.4l-0.2-0.6l0.3-0.5
		C34.2,5.6,41.7,0,49.3,0s15.2,5.6,19.2,14.2l0.3,0.5l-0.2,0.6c-2,5-5.7,9-10.4,11.4c-3,1.5-5.6,3.5-7.8,6.1L49.3,33.9z M32.8,14.8
		c1.8,4.1,4.9,7.4,8.9,9.4c2.8,1.4,5.4,3.3,7.6,5.6c2.2-2.3,4.8-4.2,7.6-5.6c4-2,7.1-5.3,8.9-9.4c-3.7-7.3-10.1-12-16.5-12
		C42.9,2.7,36.5,7.4,32.8,14.8z"/>
</g>
<g>
	<g>
		<path fill="#0E8035" d="M50.7,92.6c-0.4,0-0.9-0.2-1.1-0.6c-0.4-0.6-0.3-1.5,0.4-1.9l29.4-20c0.6-0.4,1.5-0.3,1.9,0.4
			c0.4,0.6,0.3,1.5-0.4,1.9l-29.4,20C51.2,92.5,51,92.6,50.7,92.6z"/>
	</g>
</g>
<g>
	<g>
		<path fill="#0E8035" d="M47.9,92.6c-0.3,0-0.5-0.1-0.8-0.2l-29.4-20c-0.6-0.4-0.8-1.3-0.4-1.9c0.4-0.6,1.3-0.8,1.9-0.4l29.4,20
			c0.6,0.4,0.8,1.3,0.4,1.9C48.8,92.4,48.4,92.6,47.9,92.6z"/>
	</g>
</g>
</svg>
