<?xml version="1.0" encoding="utf-8"?>
<!-- Generator: Adobe Illustrator 18.1.1, SVG Export Plug-In . SVG Version: 6.00 Build 0)  -->
<svg version="1.1" id="Слой_1" xmlns="http://www.w3.org/2000/svg" xmlns:xlink="http://www.w3.org/1999/xlink" x="0px" y="0px"
	 viewBox="0 0 100 100" enable-background="new 0 0 100 100" xml:space="preserve">
<g>
	<path fill="none" d="M81.1,14.7c-1.1,0-2.2,0.4-3,1.2c-0.8,0.8-1.2,1.9-1.2,3c0,1.1,0.4,2.2,1.2,3c0.8,0.8,1.9,1.2,3,1.2
		s2.2-0.4,3-1.2c0.8-0.8,1.2-1.9,1.2-3c0-1.1-0.4-2.2-1.2-3C83.3,15.1,82.3,14.7,81.1,14.7z"/>
	<path fill="none" d="M46.5,63.1c-1.7,0-3,1.3-3,3c0,1.7,1.3,3.1,3,3.1c1.7,0,3-1.3,3-3.1C49.6,64.4,48.2,63.1,46.5,63.1z"/>
	<path fill="none" d="M46.5,41.5c1.7,0,3-1.3,3-3.1c0-1.7-1.3-3-3-3c-1.7,0-3,1.3-3,3C43.5,40.2,44.8,41.5,46.5,41.5z"/>
	<path fill="none" d="M91.5,3.1L54.6,3.9L3.3,55.2c-0.1,0.1-0.2,0.3-0.2,0.5c0,0.2,0.1,0.4,0.2,0.5l40.4,40.4c0.3,0.3,0.7,0.3,1,0
		L96,45.4L96.7,8c0-1.6-0.6-3-1.3-3.7C94.8,3.6,93.2,3.1,91.5,3.1z M46.5,32.3c3.4,0,6.2,2.8,6.2,6.2c0,3.4-2.8,6.2-6.2,6.2
		c-3.4,0-6.2-2.8-6.2-6.2C40.4,35.1,43.1,32.3,46.5,32.3z M46.5,72.3c-3.4,0-6.2-2.8-6.2-6.2c0-3.4,2.8-6.2,6.2-6.2
		c3.4,0,6.2,2.8,6.2,6.2C52.7,69.6,49.9,72.3,46.5,72.3z M66.2,54.1H26.9c0,0-0.1-0.1-0.1-0.1c-0.8,0-1.5-0.7-1.6-1.5
		c-0.1-0.9,0.6-1.6,1.4-1.7c0.1,0,0.2,0,0.3,0h39.2c0.5,0,0.8,0.2,1.1,0.5c0.3,0.3,0.4,0.7,0.4,1.1C67.7,53.3,67,54.1,66.2,54.1z
		 M86.3,24.1c-1.4,1.4-3.2,2.1-5.2,2.1c-2,0-3.8-0.8-5.2-2.1c-1.4-1.4-2.1-3.2-2.1-5.2c0-2,0.8-3.8,2.1-5.2c1.4-1.4,3.2-2.1,5.2-2.1
		c2,0,3.8,0.8,5.2,2.1C89.2,16.5,89.2,21.2,86.3,24.1z"/>
	<path fill="#B71C24" d="M46.5,44.6c3.4,0,6.2-2.8,6.2-6.2c0-3.4-2.8-6.2-6.2-6.2c-3.4,0-6.2,2.8-6.2,6.2
		C40.4,41.9,43.1,44.6,46.5,44.6z M46.5,35.4c1.7,0,3,1.3,3,3c0,1.7-1.3,3.1-3,3.1c-1.7,0-3-1.3-3-3.1
		C43.5,36.8,44.8,35.4,46.5,35.4z"/>
	<path fill="#0E8035" d="M81.1,11.5c-2,0-3.8,0.8-5.2,2.1c-1.4,1.4-2.1,3.2-2.1,5.2c0,2,0.8,3.8,2.1,5.2c1.4,1.4,3.2,2.1,5.2,2.1
		c2,0,3.8-0.8,5.2-2.1c2.9-2.9,2.9-7.5,0-10.4C84.9,12.3,83.1,11.5,81.1,11.5z M84.1,21.9c-0.8,0.8-1.9,1.2-3,1.2s-2.2-0.4-3-1.2
		c-0.8-0.8-1.2-1.9-1.2-3c0-1.1,0.4-2.2,1.2-3c0.8-0.8,1.8-1.2,3-1.2c1.1,0,2.2,0.4,3,1.2c0.8,0.8,1.2,1.9,1.2,3
		C85.4,20,84.9,21.1,84.1,21.9z"/>
	<path fill="#0E8035" d="M97.9,2.1c-1.7-1.7-4.2-2.1-6-2.1L54,0.8c-0.4,0-0.8,0.2-1.1,0.4L1.1,53C0.4,53.7,0,54.7,0,55.7
		c0,1,0.4,2,1.1,2.7l40.4,40.4c0.7,0.7,1.7,1.1,2.7,1.1c1,0,2-0.4,2.7-1.1l51.7-51.7c0.3-0.3,0.5-0.7,0.5-1.1L100,8
		C100,5.5,99.3,3.5,97.9,2.1z M96,45.4L44.7,96.6c-0.3,0.3-0.7,0.3-1,0L3.3,56.2c-0.1-0.1-0.2-0.3-0.2-0.5c0-0.2,0.1-0.4,0.2-0.5
		L54.6,3.9l36.9-0.8c1.6,0,3.2,0.5,3.9,1.2C96.2,5,96.7,6.4,96.7,8L96,45.4z"/>
	<path fill="#B71C24" d="M66.1,50.8H27c-0.1,0-0.2,0-0.3,0c-0.9,0.1-1.5,0.8-1.4,1.7c0.1,0.8,0.7,1.5,1.6,1.5c0,0,0.1,0.1,0.1,0.1
		h39.2c0.9,0,1.6-0.8,1.6-1.6c0-0.4-0.2-0.8-0.4-1.1C67,51,66.6,50.8,66.1,50.8z"/>
	<path fill="#B71C24" d="M46.5,60c-3.4,0-6.2,2.8-6.2,6.2c0,3.4,2.8,6.2,6.2,6.2c3.4,0,6.2-2.8,6.2-6.2C52.7,62.7,49.9,60,46.5,60z
		 M46.5,69.2c-1.7,0-3-1.3-3-3.1c0-1.7,1.3-3,3-3c1.7,0,3,1.3,3,3C49.6,67.9,48.2,69.2,46.5,69.2z"/>
</g>
</svg>
