<?xml version="1.0" encoding="utf-8"?>
<!-- Generator: Adobe Illustrator 18.1.1, SVG Export Plug-In . SVG Version: 6.00 Build 0)  -->
<svg version="1.1" id="Слой_1" xmlns="http://www.w3.org/2000/svg" xmlns:xlink="http://www.w3.org/1999/xlink" x="0px" y="0px"
	 viewBox="0 0 100 100" enable-background="new 0 0 100 100" xml:space="preserve">
<g opacity="0.5">
	<g>
		<path fill="#0F8036" d="M47.3,85.7c-1.1,1.1-2.8,1.1-3.9,0L25.2,67.6L20.5,79c-0.6,1.4,0.1,3,1.5,3.6l41.5,17.2
			c1.4,0.6,3-0.1,3.6-1.5l22.8-55.2L47.3,85.7z"/>
	</g>
	<g>
		<path fill="#B71C24" d="M93.3,6.8v32.9l-46,46c-1.1,1.1-2.8,1.1-3.9,0L11.6,54c-1.1-1.1-1.1-2.8,0-3.9l46-46h32.9
			C92,4.1,93.3,5.3,93.3,6.8z"/>
	</g>
</g>
<g>
	<path fill="#0F8036" d="M61.7,98.6c-0.5,0-1.1-0.1-1.6-0.3L18.7,81.1c-1-0.4-1.8-1.2-2.2-2.2c-0.4-1-0.4-2.1,0-3.1l4.8-11.5
		c0.2-0.4,0.5-0.7,1-0.8c0.4-0.1,0.9,0.1,1.2,0.4L41.6,82c0.5,0.5,1.4,0.5,1.9,0l42.6-42.6c0.5-0.5,1.2-0.5,1.7-0.2
		c0.5,0.4,0.8,1.1,0.5,1.7L65.5,96.1C64.9,97.6,63.4,98.6,61.7,98.6z M23,67.2l-4,9.6c-0.1,0.3-0.1,0.7,0,1c0.1,0.3,0.4,0.6,0.7,0.7
		l41.5,17.2c0.7,0.3,1.5-0.1,1.8-0.7l20.2-48.8L45.5,84c-1.6,1.6-4.3,1.6-5.8,0L23,67.2z"/>
</g>
<g>
	<path fill="#B71C24" d="M42.6,85.2c-1.1,0-2.1-0.4-2.9-1.2L7.9,52.2c-0.8-0.8-1.2-1.8-1.2-2.9s0.4-2.1,1.2-2.9l46-46
		c0.3-0.3,0.6-0.4,1-0.4h32.9c2.3,0,4.1,1.8,4.1,4.1V37c0,0.4-0.1,0.7-0.4,1l-46,46C44.7,84.7,43.7,85.2,42.6,85.2z M55.5,2.7
		L9.9,48.3c-0.5,0.5-0.5,1.4,0,1.9L41.6,82c0.5,0.5,1.4,0.5,1.9,0l45.6-45.6V4.1c0-0.8-0.6-1.4-1.4-1.4H55.5z"/>
</g>
<g>
	<circle fill="#FFFFFF" cx="74.1" cy="17.8" r="5.5"/>
	<path fill="#B71C24" d="M74.1,24.7c-3.8,0-6.8-3.1-6.8-6.8s3.1-6.8,6.8-6.8s6.8,3.1,6.8,6.8S77.9,24.7,74.1,24.7z M74.1,13.7
		c-2.3,0-4.1,1.8-4.1,4.1s1.8,4.1,4.1,4.1s4.1-1.8,4.1-4.1S76.4,13.7,74.1,13.7z"/>
</g>
<g>
	<path fill="#B71C24" d="M55.6,61c-0.4,0-0.7-0.1-1-0.4L31.3,37.3c-0.5-0.5-0.5-1.4,0-1.9s1.4-0.5,1.9,0l23.3,23.3
		c0.5,0.5,0.5,1.4,0,1.9C56.3,60.8,55.9,61,55.6,61z"/>
</g>
<g>
	<path fill="#B71C24" d="M48.1,68.5c-0.4,0-0.7-0.1-1-0.4L23.8,44.8c-0.5-0.5-0.5-1.4,0-1.9s1.4-0.5,1.9,0L49,66.2
		c0.5,0.5,0.5,1.4,0,1.9C48.8,68.4,48.4,68.5,48.1,68.5z"/>
</g>
</svg>
