<?xml version="1.0" encoding="utf-8"?>
<!-- Generated by IcoMoon.io -->
<!DOCTYPE svg PUBLIC "-//W3C//DTD SVG 1.1//EN" "http://www.w3.org/Graphics/SVG/1.1/DTD/svg11.dtd">
<svg version="1.1" xmlns="http://www.w3.org/2000/svg" xmlns:xlink="http://www.w3.org/1999/xlink" width="1024" height="1024" viewBox="0 0 1024 1024">
<g id="icomoon-ignore">
</g>
<path fill="#0f8036" d="M864.256 480.256l-209.92 506.88c-3.072 7.168-11.264 10.24-18.432 8.192l-431.104-179.2c-3.072-1.024-6.144-4.096-8.192-8.192-1.024-3.072-1.024-7.168 0-11.264l40.96-99.328-21.504-21.504-46.080 110.592c-4.096 10.24-4.096 22.528 0 32.768s12.288 18.432 23.552 23.552l430.080 178.176c5.12 2.048 10.24 3.072 16.384 3.072 17.408 0 32.768-10.24 39.936-26.624l236.544-570.368-444.416 444.416 392.192-391.168z"></path>
<path fill="#b71c24" d="M911.36 0h-340.992c-4.096 0-7.168 1.024-10.24 4.096l-478.208 478.208c-8.192 8.192-12.288 18.432-12.288 29.696s4.096 22.528 12.288 29.696l329.728 329.728c8.192 8.192 18.432 12.288 29.696 12.288s22.528-4.096 29.696-12.288l478.208-478.208c3.072-3.072 4.096-6.144 4.096-10.24v-339.968c1.024-23.552-18.432-43.008-41.984-43.008zM925.696 377.856l-473.088 474.112c-5.12 5.12-14.336 5.12-20.48 0l-329.728-329.728c-3.072-3.072-4.096-6.144-4.096-10.24s1.024-7.168 4.096-10.24l474.112-473.088h334.848c8.192 0 14.336 6.144 14.336 14.336v334.848z"></path>
<path fill="#b71c24" d="M769.024 113.664c-38.912 0-70.656 31.744-70.656 70.656s31.744 70.656 70.656 70.656c38.912 0 70.656-31.744 70.656-70.656 1.024-38.912-31.744-70.656-70.656-70.656zM769.024 227.328c-23.552 0-43.008-19.456-43.008-43.008s19.456-43.008 43.008-43.008c23.552 0 43.008 19.456 43.008 43.008 0 24.576-19.456 43.008-43.008 43.008z"></path>
<path fill="#b71c24" d="M345.088 359.424c-5.12-5.12-14.336-5.12-20.48 0-5.12 5.12-5.12 14.336 0 20.48l241.664 241.664c3.072 3.072 6.144 4.096 10.24 4.096s7.168-1.024 10.24-4.096c5.12-5.12 5.12-14.336 0-20.48l-241.664-241.664z"></path>
<path fill="#b71c24" d="M267.264 438.272c-5.12-5.12-14.336-5.12-20.48 0-5.12 5.12-5.12 14.336 0 20.48l241.664 241.664c3.072 3.072 6.144 4.096 10.24 4.096s7.168-1.024 10.24-4.096c5.12-5.12 5.12-14.336 0-20.48l-241.664-241.664z"></path>
</svg>
