<?xml version="1.0" encoding="utf-8"?>
<!-- Generator: Adobe Illustrator 18.1.1, SVG Export Plug-In . SVG Version: 6.00 Build 0)  -->
<svg version="1.1" xmlns="http://www.w3.org/2000/svg" xmlns:xlink="http://www.w3.org/1999/xlink" x="0px" y="0px"
	 viewBox="0 0 1920 1920" enable-background="new 0 0 1920 1920" xml:space="preserve">
<g id="Слой_1">
	<image overflow="visible" width="1920" height="1920" xlink:href="24-25-1.png" >
	</image>
</g>
<g id="Слой_2" opacity="0.5">
	<polygon fill="#FFFFFF" points="549.75,531 14,531 14,1393 432.75,1393 433,1245.5 682.917,1244.917 682.75,663 551,663 	"/>
</g>
<g id="Слой_3" opacity="0.5">
	<polygon fill="#FFFFFF" points="669,677.333 669,785 792,785 792,801.5 969,801.5 969,14 12,14 7.5,544.5 536,543.5 536.5,677 	"/>
</g>
<g id="Слой_4" opacity="0.5">
	<polygon fill="#FFFFFF" points="1387.833,597.833 1387.5,538.5 1909.5,538.5 1909.5,14 955.5,14 955.5,802 1131,802 1131,784.5 
		1255.5,784.5 1255.5,749 1295,749 1296.917,597.518 	"/>
</g>
<g id="Слой_5" opacity="0.5">
	<polygon fill="#FFFFFF" points="1281.833,582.833 1373.833,582.833 1373.833,523.333 1909,523.333 1909,1156 1240,1156 1240,738 
		1281,738 	"/>
</g>
<g id="Слой_6" opacity="0.5">
	<rect x="1240.333" y="1142.667" fill="#FFFFFF" width="668.667" height="767"/>
</g>
<g id="Слой_7" opacity="0.5">
	<polygon fill="#FFFFFF" points="14,1908.5 921.5,1908.5 921.5,1243 800.5,1243 800.5,1230.5 417,1230.5 417,1380.5 14,1380.5 	"/>
</g>
</svg>
