<?xml version="1.0" encoding="utf-8"?>
<!-- Generator: Adobe Illustrator 18.1.1, SVG Export Plug-In . SVG Version: 6.00 Build 0)  -->
<svg version="1.1" xmlns="http://www.w3.org/2000/svg" xmlns:xlink="http://www.w3.org/1999/xlink" x="0px" y="0px"
	 viewBox="0 0 1920 1922" enable-background="new 0 0 1920 1922" xml:space="preserve">
<g id="Слой_1">
	<image overflow="visible" width="1920" height="1922" xlink:href="24-25-2.png" >
	</image>
</g>
<g id="Слой_2" opacity="0.5">
	<polygon fill="#FFFFFF" points="668,544.5 668,783 791,783 791,800 968.5,800 968.5,14 15.5,14 15.5,545.5 	"/>
</g>
<g id="Слой_3" opacity="0.5">
	<polygon fill="#FFFFFF" points="1253.5,536.5 1908,536.5 1908,13.5 954.5,13.5 954.5,800.5 1131.5,800.5 1131.5,785 1253.333,785 	
		"/>
</g>
<g id="Слой_4" opacity="0.5">
	<path fill="#FFFFFF" d="M1240,522h668.333c0,0,1,632.333,0,632.333s-668.333,0-668.333,0V522z"/>
</g>
<g id="Слой_5" opacity="0.5">
	<rect x="1239.333" y="1140.333" fill="#FFFFFF" width="669.333" height="767.333"/>
</g>
<g id="Слой_6" opacity="0.5">
	<polygon fill="#FFFFFF" points="914,1228.333 914,1907.667 14.667,1907.667 14.667,1378.333 416.667,1378.333 416.667,1228.333 	
		"/>
</g>
<g id="Слой_7" opacity="0.5">
	<polygon fill="#FFFFFF" points="682.75,528.75 682.75,1242.5 432.5,1242.5 432.5,1391.5 15,1391.5 15,528.75 	"/>
</g>
</svg>
