<?xml version="1.0" encoding="utf-8"?>
<!-- Generator: Adobe Illustrator 18.1.1, SVG Export Plug-In . SVG Version: 6.00 Build 0)  -->
<svg version="1.1" id="Слой_1" xmlns="http://www.w3.org/2000/svg" xmlns:xlink="http://www.w3.org/1999/xlink" x="0px" y="0px"
	 viewBox="0 0 11.019 20.371" enable-background="new 0 0 11.019 20.371" xml:space="preserve">
<g>
	<g>
		<path fill="#1E0F00" d="M1,11.018c-0.256,0-0.512-0.098-0.707-0.293c-0.391-0.391-0.391-1.023,0-1.414l9.019-9.018
			c0.391-0.391,1.023-0.391,1.414,0s0.391,1.023,0,1.414l-9.019,9.018C1.512,10.92,1.256,11.018,1,11.018z"/>
	</g>
	<g>
		<path fill="#1E0F00" d="M10.019,20.371c-0.256,0-0.512-0.098-0.707-0.293L0.293,11.06c-0.391-0.391-0.391-1.023,0-1.414
			s1.023-0.391,1.414,0l9.019,9.019c0.391,0.391,0.391,1.023,0,1.414C10.53,20.273,10.274,20.371,10.019,20.371z"/>
	</g>
</g>
</svg>
