<?xml version="1.0" encoding="utf-8"?>
<!-- Generator: Adobe Illustrator 18.1.1, SVG Export Plug-In . SVG Version: 6.00 Build 0)  -->
<svg version="1.1" id="Слой_1" xmlns="http://www.w3.org/2000/svg" xmlns:xlink="http://www.w3.org/1999/xlink" x="0px" y="0px"
	 viewBox="0 0 33.944 49.872" enable-background="new 0 0 33.944 49.872" xml:space="preserve">
<g>
	<g>
		<path fill="#1E0F00" d="M16.973,49.872C7.614,49.872,0,42.258,0,32.9c0-5.547,4.86-15.468,6.95-19.476C13.949,0,16.146,0,16.973,0
			c0.804,0,2.686,0,9.813,13.411c2.674,5.031,7.159,14.253,7.159,19.489C33.944,42.258,26.331,49.872,16.973,49.872z M16.876,4.719
			C13.361,9.149,4,26.483,4,32.9c0,7.153,5.819,12.972,12.973,12.972c7.152,0,12.972-5.819,12.972-12.972
			C29.944,26.513,20.281,9.294,16.876,4.719z"/>
	</g>
</g>
</svg>
