<?xml version="1.0" encoding="utf-8"?>
<!-- Generator: Adobe Illustrator 18.1.1, SVG Export Plug-In . SVG Version: 6.00 Build 0)  -->
<svg version="1.1" id="Слой_1" xmlns="http://www.w3.org/2000/svg" xmlns:xlink="http://www.w3.org/1999/xlink" x="0px" y="0px"
	 viewBox="0 0 175.803 175.938" enable-background="new 0 0 175.803 175.938" xml:space="preserve">
<g>
	<g>
		<path fill="#1E0F00" d="M22.7,85.149c6.624,0,13.112,0,19.799,0c0-19.834,0-39.609,0-59.525c1.945,0,3.698,0,5.585,0
			c0-1.934,0-3.734,0-5.756c-0.566-0.022-1.19-0.035-1.813-0.071c-4.703-0.271-8.367-3.571-9.262-8.336
			c-0.797-4.24,1.642-8.741,5.743-10.572c1.482-0.661,3.047-0.873,4.665-0.873c18.159,0.01,36.318,0.005,54.477,0.006
			c3.49,0,6.981-0.063,10.469,0.022c5.538,0.134,9.899,4.928,9.585,10.426c-0.3,5.255-4.574,9.293-9.981,9.332
			c-6.033,0.044-12.066,0.012-18.1,0.013c-8.872,0.001-17.745,0.001-26.617,0.002c-0.635,0-1.27,0-1.987,0c0,1.985,0,3.783,0,5.72
			c1.839,0,3.591,0,5.517,0c0,5.132,0,10.13,0,15.211c9.504,4.32,18.895,8.589,28.511,12.96c0-5.158,0-10.095,0-15.271
			c11.446,4.578,22.662,9.063,34.01,13.602c0,10.995,0,21.971,0,33.06c6.689,0,13.219,0,19.868,0c0-4.775,0-9.531,0-14.379
			c-6.233-1.436-10.812-4.941-13.036-11.041c-2.237-6.133-0.894-11.739,2.993-16.77c-2.264-7.988-0.586-13.873,5-17.699
			c5.003-3.426,11.532-3.275,16.425,0.38c5.254,3.925,6.826,9.964,4.439,17.266c3.876,5.009,5.285,10.595,3.056,16.746
			c-2.215,6.111-6.743,9.661-13.076,11.098c0,4.809,0,9.568,0,14.467c5.626,0,11.163,0,16.689,0
			c1.359,20.369-6.703,51.757-34.863,73.122c-27.23,20.66-65.061,23.464-94.986,6.923c-31.896-17.631-46.89-50.246-45.75-79.965
			c5.567,0,11.146,0,16.824,0c0-4.963,0-9.722,0-14.465C3.516,67.804-1.38,53.001,6.902,42.802
			c-1.63-3.703-1.743-7.563-0.138-11.408c1.124-2.694,2.945-4.831,5.401-6.412c4.966-3.196,11.392-2.932,16.131,0.65
			c5.203,3.933,6.678,9.644,4.442,17.191c8.679,10.884,2.445,25.348-10.037,27.879C22.7,75.438,22.7,80.199,22.7,85.149z
			 M70.919,65.44c9.579,0,18.895,0,28.31,0c0.063,6.636-0.028,13.165,0.048,19.767c9.623-0.006,18.994,0.027,28.381-0.016
			c0-9.941,0-19.628,0-29.41c-7.521-3.007-15.011-6.002-22.746-9.095c0,4.412,0,8.582,0,12.881c-1.531,0-2.883-0.054-4.228,0.015
			c-1.337,0.068-2.535-0.235-3.751-0.795c-8.154-3.755-16.331-7.463-24.504-11.176c-0.445-0.202-0.927-0.324-1.626-0.563
			c0,4.305,0,8.356,0,12.419c-1.923,0-3.666,0-5.61,0c0-9.47,0-18.835,0-28.294c-5.787,0.018-11.371-0.04-16.925,0.031
			c0,2.044,0,3.843,0,5.775c3.777,0,7.421,0,11.161,0c0.088,1.93,0.101,3.716,0.024,5.635c-3.891,0-7.535,0-11.21,0
			c0,14.243,0,28.346,0,42.492c7.586,0,15.064,0,22.676,0C70.919,78.518,70.919,72.035,70.919,65.44z M49.953,126.633
			c-4.612-11.617-6.92-23.488-7.372-35.715c-12.446,0-24.652,0-37.043,0c0.984,20.309,8.241,37.84,21.866,52.954
			C33.452,136.137,41.069,130.676,49.953,126.633z M125.922,126.635c8.838,4.05,16.499,9.507,22.513,17.213
			c8.779-9.589,14.916-20.375,18.542-32.584c1.969-6.629,3.083-13.394,3.279-20.357c-12.427,0-24.641,0-37.004,0
			C132.852,103.246,130.453,115.102,125.922,126.635z M85.044,90.918c-4.235-0.363-35.48-0.2-36.867,0.206
			c0.43,11.498,2.708,22.605,7.081,33.384c9.748-3.486,19.651-4.827,29.786-5.214C85.044,109.765,85.044,100.396,85.044,90.918z
			 M120.631,124.483c4.33-10.922,6.692-22.008,7.027-33.547c-12.434,0-24.632,0-36.818,0c0,9.503,0,18.872,0,28.136
			c5.1,0.558,10.094,0.988,15.052,1.68C110.858,121.445,115.69,122.791,120.631,124.483z M144.337,147.99
			c-3.544-5.705-13.511-13.375-20.702-15.926c-6.624,14.271-15.8,26.749-27.113,37.742
			C114.94,167.862,130.831,160.545,144.337,147.99z M31.419,147.914c13.627,12.612,29.488,19.963,47.895,21.873
			c-11.32-10.993-20.477-23.483-27.171-37.897C43.965,135.69,36.936,140.668,31.419,147.914z M59.525,14.222
			c0.961,0,1.659,0,2.358,0c16.264,0,32.527,0,48.791-0.001c0.591,0,1.186,0.031,1.773-0.02c2.22-0.195,3.92-2.067,3.921-4.285
			c0-2.206-1.719-4.093-3.924-4.283c-0.47-0.041-0.946-0.017-1.419-0.017c-21.054-0.001-42.108,0-63.162,0
			c-0.473,0-0.949-0.022-1.419,0.016c-2.302,0.189-4.037,2.118-3.984,4.409c0.051,2.2,1.796,4.058,4.047,4.154
			c1.948,0.084,3.903,0.016,5.854,0.031c0.451,0.004,0.902,0.073,1.489,0.124c0,3.746,0,7.389,0,11.13c1.942,0,3.739,0,5.676,0
			C59.525,21.767,59.525,18.123,59.525,14.222z M57.742,129.843c2.11,8.167,19.807,32.192,27.267,36.948c0-13.96,0-27.857,0-41.742
			C78.886,124.438,61.882,127.449,57.742,129.843z M90.829,124.894c0,14.104,0,27.963,0,41.881
			c7.168-4.261,26.478-30.612,27.225-37.167C109.312,126.522,100.258,125.191,90.829,124.894z M158.867,64.985
			c4.441-1.467,7.224-4.121,8.272-8.379c1.051-4.274-0.201-7.925-3.309-10.975c-0.658-0.646-1.363-1.245-2.049-1.869
			c0.619-0.926,1.183-1.687,1.661-2.498c2.452-4.164,1.034-9.462-3.147-11.83c-3.352-1.899-7.565-1.317-10.287,1.421
			c-2.771,2.787-3.297,7.049-1.268,10.446c0.504,0.844,1.078,1.646,1.645,2.506c-0.719,0.633-1.349,1.166-1.956,1.724
			c-6.191,5.692-4.474,15.611,3.27,18.875c0.454,0.191,0.949,0.284,1.621,0.479c0-4.67,0-9.137,0-13.665c1.905,0,3.647,0,5.547,0
			C158.867,55.774,158.867,60.243,158.867,64.985z M13.963,43.921c-0.56,0.496-1.193,1.025-1.79,1.592
			c-3.327,3.158-4.592,6.985-3.367,11.429c1.132,4.105,3.904,6.677,8.188,8.02c0-4.717,0-9.184,0-13.697c1.943,0,3.727,0,5.663,0
			c0,4.598,0,9.061,0,13.654c4.213-1.297,6.954-3.884,8.088-7.934c1.221-4.358,0.037-8.164-3.193-11.323
			c-0.663-0.649-1.38-1.243-2.074-1.864c0.665-1.03,1.293-1.89,1.805-2.815c1.916-3.46,1.213-7.653-1.695-10.367
			c-2.771-2.585-6.934-3.033-10.178-1.094c-3.376,2.017-5.029,6.062-3.79,9.79C12.131,40.851,13.091,42.24,13.963,43.921z
			 M76.658,70.994c0,4.832,0,9.47,0,14.087c5.712,0,11.296,0,16.864,0c0-4.769,0-9.405,0-14.087
			C87.846,70.994,82.304,70.994,76.658,70.994z"/>
	</g>
	<g>
		<path fill="#1E0F00" d="M150.519,132.144c-1.524-1.073-2.96-2.084-4.531-3.19c6.19-8.883,10.215-18.561,11.994-29.106
			c0.324-0.027,0.503-0.077,0.669-0.05c1.565,0.261,3.127,0.534,4.828,0.828C161.528,112.12,157.239,122.535,150.519,132.144z"/>
	</g>
</g>
</svg>
