<?xml version="1.0" encoding="utf-8"?>
<!-- Generator: Adobe Illustrator 18.1.1, SVG Export Plug-In . SVG Version: 6.00 Build 0)  -->
<svg version="1.1" id="Слой_1" xmlns="http://www.w3.org/2000/svg" xmlns:xlink="http://www.w3.org/1999/xlink" x="0px" y="0px"
	 viewBox="0 0 175.803 175.938" enable-background="new 0 0 175.803 175.938" xml:space="preserve">
<g>
	<g>
		<path fill="#1E0F00" d="M39.977,6.125c-3.86,0-7.493,0-11.203,0c0-1.841,0-3.635,0-5.505c20.593,0,41.181,0,61.845,0
			c0,1.798,0,3.591,0,5.498c-3.682,0-7.358,0-11.118,0c0,20.821,0,41.53,0,62.412c0.572,0,1.211,0.092,1.813-0.016
			c2.598-0.467,5.166-0.267,7.783-0.043c3.764,0.321,7.338,1.242,10.844,2.543c1.498,0.556,2.964,1.2,4.572,1.856
			c2.791-4.215,5.361-8.564,8.135-12.892c-0.164-0.279-0.324-0.571-0.501-0.85c-1.004-1.581-1.764-3.255-1.683-5.172
			c0.161-3.825,2.792-7.026,6.486-8.018c3.969-1.066,8.503,1.364,9.939,5.499c0.389,1.12,0.402,2.37,0.626,3.806
			c4.439,2.225,9.069,4.545,13.724,6.878c1.941-1.668,4.178-2.56,6.883-2.352c4.24-9.326,8.465-18.618,12.689-27.908
			c-3.353-4.118-2.998-7.772-0.727-10.931c2.26-3.144,6.296-4.292,9.881-2.808c4.04,1.672,5.829,5.878,5.236,8.915
			c-0.845,4.321-3.78,7.304-9.441,7.371c-4.197,9.23-8.422,18.524-12.648,27.817c3.27,4.095,3.042,7.505,0.842,10.791
			c-1.848,2.761-5.351,4.519-9.344,3.217c-3.121-1.017-5.964-3.51-6.023-9.134c-4.561-2.286-9.192-4.606-13.857-6.944
			c-1.973,1.772-4.302,2.576-7.131,2.35c-2.731,4.387-5.492,8.821-8.31,13.348c4.038,2.984,7.533,6.355,10.348,10.423
			c2.739,3.959,4.742,8.242,6.09,12.876c1.469,0,2.912,0,4.465,0c0-1.862,0-3.659,0-5.513c1.905,0,3.698,0,5.605,0
			c0,1.847,0,3.645,0,5.581c0.621,0,1.135,0,1.649,0c8.751-0.001,17.503,0.012,26.254-0.01c3.161-0.008,5.906,1.108,8.166,3.208
			c1.571,1.46,2.538,3.385,3.071,5.512c1.005,4.012-0.272,7.434-2.847,10.387c-1.41,1.617-3.388,2.55-5.504,3.083
			c-1.075,0.271-2.158,0.358-3.268,0.355c-8.516-0.021-17.033-0.012-25.549-0.013c-0.585,0-1.17,0-1.862,0
			c-0.23,1.819-0.033,3.624-0.127,5.529c-1.771,0.272-3.573,0.001-5.466,0.147c-0.279-1.871-0.011-3.729-0.16-5.616
			c-1.529,0-2.972,0-4.449,0c-1.792,6.609-5.154,12.308-9.633,17.294c1.031,2.208,1.88,4.33,2.283,6.6
			c0.455,2.565,0.753,5.099,0.279,7.744c-0.335,1.868-0.656,3.727-1.246,5.524c-0.742,2.261-1.953,4.295-3.35,6.206
			c-2.517,3.443-5.755,6.039-9.606,7.847c-2.186,1.027-4.511,1.58-6.9,1.999c-2.217,0.389-4.418,0.277-6.625,0.279
			c-21.908,0.02-43.816,0.046-65.723-0.011c-5.566-0.015-10.584-1.798-15.036-5.237c-3.3-2.548-5.743-5.729-7.478-9.452
			c-0.991-2.125-1.529-4.41-1.881-6.759c-0.235-1.573-0.374-3.133-0.248-4.685c0.331-4.044,1.332-7.9,3.507-11.4
			c2.22-3.573,4.371-7.189,6.557-10.784c2.006-3.297,4.02-6.59,6.029-9.885c1.829-3.001,3.656-6.003,5.483-9.005
			c1.827-3.002,3.652-6.005,5.481-9.006c1.86-3.052,3.726-6.1,5.584-9.152c1.797-2.952,3.586-5.908,5.381-8.861
			c0.389-0.641,0.843-1.249,1.164-1.921c0.189-0.394,0.239-0.885,0.241-1.333c0.018-3.583,0.01-7.165,0.01-10.748
			c0-19.735,0-39.469,0-59.204C39.977,7.333,39.977,6.815,39.977,6.125z M30.612,104.858c-0.962,1.554-1.941,3.114-2.9,4.686
			c-1.799,2.951-3.586,5.91-5.38,8.864c-1.824,3.003-3.647,6.007-5.478,9.006c-1.861,3.049-3.76,6.076-5.587,9.146
			c-1.349,2.267-2.907,4.414-3.842,6.922c-0.749,2.01-1.335,4.033-1.31,6.198c0.019,1.626-0.076,3.256,0.363,4.853
			c0.516,1.879,1.062,3.763,2.106,5.414c1.265,2.002,2.646,3.889,4.57,5.401c3.426,2.692,7.205,4.329,11.564,4.334
			c23.43,0.031,46.861,0.01,70.291,0.017c2.711,0.001,5.251-0.785,7.592-1.984c2.409-1.235,4.576-2.853,6.319-5.051
			c2.316-2.919,3.775-6.182,4.285-9.809c0.38-2.708,0.015-5.438-0.765-8.08c-0.156-0.529-0.426-1.024-0.643-1.535
			c-0.545,0.373-0.994,0.643-1.401,0.965c-3.701,2.923-7.855,4.987-12.319,6.442c-2.011,0.656-4.061,1.134-6.166,1.475
			c-2.588,0.419-5.164,0.711-7.778,0.614c-1.034-0.038-2.063-0.204-3.094-0.308c-1.324-0.134-2.675-0.137-3.966-0.419
			c-3.411-0.745-6.76-1.739-9.911-3.268c-5.651-2.743-10.563-6.422-14.581-11.316c-3.41-4.153-5.966-8.74-7.663-13.809
			c-1.377-4.116-2.036-8.372-2.115-12.711c-0.021-1.166-0.075-2.361,0.144-3.492c0.169-0.873,0.17-1.681,0.143-2.556
			C38.863,104.858,34.76,104.858,30.612,104.858z M73.725,69.767c0-21.189,0-42.359,0-63.55c-9.395,0-18.706,0-28.14,0
			c0,0.577,0,1.093,0,1.608c0.001,15.558,0.002,31.115,0.002,46.673c0,8.16,0,16.321-0.004,24.481c0,0.689-0.061,1.294-0.478,1.961
			c-2.256,3.612-4.386,7.302-6.59,10.946c-1.458,2.41-2.968,4.788-4.503,7.258c3.492,0,6.933,0,10.343,0
			C49.06,84.211,58.854,74.43,73.725,69.767z M95.447,87.461c-9.902-4.901-24.379-2.646-32.039,9.767
			c-7.4,11.992-4.025,27.288,8.471,34.942c12.444,7.623,27.681,3.493,34.994-8.707c7.466-12.454,2.634-26.618-6.615-33.147
			c-2.998,4.779-5.991,9.55-8.953,14.272c3.483,5.169,2.34,8.519,0.196,11.227c-2.386,3.014-6.546,3.922-9.997,2.265
			c-3.653-1.754-5.276-5.649-4.826-8.669c0.31-2.083,1.287-3.929,2.97-5.333c1.966-1.64,4.267-2.171,6.717-2.059
			C89.407,97.144,92.391,92.36,95.447,87.461z M103.277,85.477c12.896,9.63,16.962,27.108,8.003,41.475
			c-8.692,13.938-27.122,19.097-42.353,9.946c-13.117-7.881-19.696-25.974-10.646-41.918c7.441-13.109,24.8-19.758,40.198-12.37
			c0.965-1.537,1.939-3.089,3.01-4.796c-4.766-2.522-9.714-3.798-14.944-3.987c-10.258-0.371-19.205,3-26.647,9.978
			c-5.868,5.502-9.592,12.31-10.96,20.326c-1.3,7.615-0.39,14.951,2.91,21.918c6.895,14.554,22.807,23.969,40.793,20.339
			c8.362-1.687,15.267-6.037,20.736-12.596c4.894-5.869,7.608-12.693,8.291-20.25c0.57-6.312-0.551-12.435-3.153-18.228
			c-2.301-5.123-5.847-9.33-10.02-13.035c-0.684-0.608-1.361-1.225-2.331-1.483C105.2,82.361,104.271,83.867,103.277,85.477z
			 M135.854,116.134c9.549,0,18.931,0.007,28.313-0.015c0.617-0.001,1.256-0.155,1.846-0.355c2.585-0.877,4.382-4.075,3.376-6.879
			c-0.946-2.637-2.772-4.053-5.557-4.055c-8.855-0.007-17.71-0.001-26.565,0c-0.453,0-0.907,0-1.412,0
			C135.854,108.639,135.854,112.311,135.854,116.134z M127.001,104.894c0.119,1.984,0.17,3.839,0.358,5.681
			c0.188,1.848-0.678,3.645-0.272,5.486c1.058,0,2.033,0,3.048,0c0-3.749,0-7.423,0-11.167
			C129.104,104.894,128.13,104.894,127.001,104.894z M169.661,26.025c0.042-1.663-1.108-2.917-2.712-2.957
			c-1.67-0.042-2.915,1.1-2.956,2.711c-0.042,1.666,1.105,2.917,2.712,2.957C168.369,28.779,169.62,27.632,169.661,26.025z
			 M118.929,51.262c-1.562-0.178-2.895,1.498-2.901,2.803c-0.007,1.561,1.536,2.894,2.843,2.903c1.56,0.011,2.893-1.539,2.903-2.844
			C121.784,52.579,120.257,51.092,118.929,51.262z M146.916,71.026c1.724,0.199,3.019-1.412,3.025-2.658
			c0.009-1.66-1.079-2.891-2.673-3.022c-1.748-0.144-2.974,1.448-3.037,2.668C144.144,69.73,145.655,71.095,146.916,71.026z
			 M87.903,110.6c0.042-1.659-1.112-2.913-2.714-2.951c-1.671-0.039-2.911,1.099-2.951,2.709c-0.042,1.672,1.099,2.916,2.709,2.956
			C86.604,113.355,87.863,112.2,87.903,110.6z"/>
	</g>
	<g>
		<path fill="#1E0F00" d="M138.543,14.576c-1.872,0-3.624,0-5.454,0c0-1.829,0-3.622,0-5.496c1.787,0,3.58,0,5.454,0
			C138.543,10.867,138.543,12.66,138.543,14.576z"/>
	</g>
	<g>
		<path fill="#1E0F00" d="M133.037,42.716c0-1.841,0-3.593,0-5.434c1.818,0,3.611,0,5.496,0c0,1.756,0,3.549,0,5.434
			C136.777,42.716,134.983,42.716,133.037,42.716z"/>
	</g>
	<g>
		<path fill="#1E0F00" d="M152.629,28.682c-1.842,0-3.593,0-5.434,0c0-1.818,0-3.611,0-5.496c1.756,0,3.55,0,5.434,0
			C152.629,24.942,152.629,26.736,152.629,28.682z"/>
	</g>
	<g>
		<path fill="#1E0F00" d="M124.498,23.186c0,1.841,0,3.592,0,5.433c-1.817,0-3.611,0-5.496,0c0-1.755,0-3.549,0-5.433
			C120.758,23.186,122.552,23.186,124.498,23.186z"/>
	</g>
	<g>
		<path fill="#1E0F00" d="M107.67,28.628c0-1.823,0-3.564,0-5.421c1.8-0.252,3.628-0.013,5.515-0.139c0,1.913,0,3.696,0,5.56
			C111.395,28.628,109.611,28.628,107.67,28.628z"/>
	</g>
	<g>
		<path fill="#1E0F00" d="M96.46,23.147c1.879,0,3.629,0,5.445,0c0,1.842,0,3.635,0,5.496c-1.826,0-3.619,0-5.546,0
			c0-0.953-0.019-1.879,0.005-2.803C96.389,24.927,96.258,23.999,96.46,23.147z"/>
	</g>
	<g>
		<path fill="#1E0F00" d="M90.667,23.184c0,1.844,0,3.595,0,5.436c-1.818,0-3.613,0-5.496,0c0-1.758,0-3.553,0-5.436
			C86.927,23.184,88.721,23.184,90.667,23.184z"/>
	</g>
	<g>
		<path fill="#1E0F00" d="M129.667,35.848c-1.248,1.238-2.492,2.472-3.86,3.829c-0.584-0.579-1.229-1.235-1.894-1.87
			c-0.636-0.608-1.292-1.194-1.998-1.844c1.195-1.561,2.615-2.696,3.839-4.04C127.105,33.278,128.429,34.606,129.667,35.848z"/>
	</g>
	<g>
		<path fill="#1E0F00" d="M145.905,32.331c1.07,1.062,2.312,2.295,3.454,3.427c-1.187,1.199-2.45,2.475-3.607,3.645
			c-1.106-1.119-2.334-2.36-3.445-3.484C143.368,34.86,144.673,33.559,145.905,32.331z"/>
	</g>
	<g>
		<path fill="#1E0F00" d="M145.643,19.631c-1.142-1.134-2.464-2.447-3.724-3.698c1.25-1.241,2.486-2.47,3.813-3.788
			c1.366,1.117,2.585,2.48,3.846,3.761C148.254,17.159,146.994,18.352,145.643,19.631z"/>
	</g>
	<g>
		<path fill="#1E0F00" d="M125.806,12.122c1.361,1.364,2.6,2.605,3.848,3.856c-1.219,1.216-2.547,2.541-3.793,3.783
			c-1.236-1.247-2.47-2.492-3.83-3.865C123.231,14.678,124.504,13.412,125.806,12.122z"/>
	</g>
</g>
</svg>
