<?xml version="1.0" encoding="utf-8"?>
<!-- Generator: Adobe Illustrator 18.1.1, SVG Export Plug-In . SVG Version: 6.00 Build 0)  -->
<svg version="1.1" id="Слой_1" xmlns="http://www.w3.org/2000/svg" xmlns:xlink="http://www.w3.org/1999/xlink" x="0px" y="0px"
	 viewBox="0 0 56.417 53.877" enable-background="new 0 0 56.417 53.877" xml:space="preserve">
<g>
	<g>
		<path fill="#1E0F00" d="M31.53,38.616c-5.2,0-9.432-4.232-9.432-9.433s4.231-9.433,9.432-9.433
			c5.204,0.001,9.437,4.233,9.437,9.433S36.734,38.616,31.53,38.616z M31.53,22.016c-3.951,0-7.165,3.215-7.165,7.166
			s3.214,7.166,7.165,7.166c3.953,0,7.169-3.215,7.169-7.166C38.7,25.232,35.483,22.017,31.53,22.016z"/>
		<path fill="#1E0F00" d="M31.53,39.617c-5.753,0-10.433-4.681-10.433-10.434S25.777,18.75,31.53,18.75
			c5.755,0.001,10.437,4.682,10.437,10.434C41.967,34.936,37.285,39.617,31.53,39.617z M31.53,20.75
			c-4.649,0-8.433,3.783-8.433,8.434s3.783,8.434,8.433,8.434c4.652,0,8.437-3.783,8.437-8.434
			C39.967,24.534,36.182,20.751,31.53,20.75z M31.53,37.348c-4.502,0-8.165-3.663-8.165-8.166s3.663-8.166,8.165-8.166l0,0
			c4.505,0.001,8.17,3.665,8.17,8.166C39.7,33.685,36.035,37.348,31.53,37.348z M31.53,23.016c-3.399,0-6.165,2.766-6.165,6.166
			s2.766,6.166,6.165,6.166c3.402,0,6.17-2.766,6.17-6.166C37.7,25.783,34.933,23.017,31.53,23.016L31.53,23.016z"/>
	</g>
	<g>
		<path fill="#1E0F00" d="M34.946,13.032c-3.316,0-6.014-2.699-6.014-6.016S31.63,1,34.946,1c3.318,0,6.019,2.698,6.019,6.015
			S38.264,13.032,34.946,13.032z M34.946,3.267c-2.066,0-3.747,1.681-3.747,3.748c0,2.068,1.68,3.749,3.747,3.749
			c2.068,0,3.751-1.681,3.751-3.749C38.697,4.948,37.015,3.267,34.946,3.267z"/>
		<path fill="#1E0F00" d="M34.946,14.032c-3.868,0-7.015-3.147-7.015-7.017C27.932,3.147,31.078,0,34.946,0
			c3.87,0,7.019,3.147,7.019,7.015C41.965,10.884,38.816,14.032,34.946,14.032z M34.946,2c-2.765,0-5.015,2.25-5.015,5.015
			c0,2.766,2.25,5.017,5.015,5.017c2.768,0,5.019-2.25,5.019-5.017C39.965,4.25,37.714,2,34.946,2z M34.946,11.764
			c-2.617,0-4.747-2.13-4.747-4.749c0-2.618,2.13-4.748,4.747-4.748c2.62,0,4.751,2.13,4.751,4.748
			C39.697,9.634,37.566,11.764,34.946,11.764z M34.946,4.267c-1.515,0-2.747,1.233-2.747,2.748c0,1.516,1.232,2.749,2.747,2.749
			c1.517,0,2.751-1.233,2.751-2.749C37.697,5.5,36.463,4.267,34.946,4.267z"/>
	</g>
	<g>
		<path fill="#1E0F00" d="M48.912,52.877c-3.587,0-6.505-2.918-6.505-6.505c0-3.587,2.918-6.505,6.505-6.505
			s6.505,2.918,6.505,6.505S52.499,52.877,48.912,52.877z M48.912,42.133c-2.338,0-4.238,1.901-4.238,4.238
			c0,2.337,1.901,4.238,4.238,4.238s4.238-1.9,4.238-4.237C53.15,44.035,51.248,42.133,48.912,42.133z"/>
		<path fill="#1E0F00" d="M48.912,53.877c-4.139,0-7.505-3.367-7.505-7.506s3.366-7.505,7.505-7.505s7.505,3.366,7.505,7.505
			S53.051,53.877,48.912,53.877z M48.912,40.867c-3.035,0-5.505,2.47-5.505,5.505c0,3.036,2.47,5.506,5.505,5.506
			s5.505-2.47,5.505-5.506C54.417,43.336,51.947,40.867,48.912,40.867z M48.912,51.609c-2.889,0-5.238-2.35-5.238-5.238
			c0-2.888,2.35-5.237,5.238-5.237c2.888,0,5.237,2.35,5.237,5.238C54.149,49.259,51.8,51.609,48.912,51.609z M48.912,43.133
			c-1.785,0-3.238,1.452-3.238,3.237s1.453,3.238,3.238,3.238s3.237-1.452,3.237-3.237S50.697,43.133,48.912,43.133z"/>
	</g>
	<g>
		<path fill="#1E0F00" d="M8.678,51.704C4.444,51.704,1,48.26,1,44.026s3.444-7.677,7.677-7.677s7.677,3.444,7.677,7.677
			S12.911,51.704,8.678,51.704z M8.678,38.616c-2.983,0-5.41,2.426-5.41,5.41c0,2.983,2.427,5.409,5.41,5.409s5.41-2.427,5.41-5.409
			C14.088,41.043,11.66,38.616,8.678,38.616z"/>
		<path fill="#1E0F00" d="M8.678,52.704C3.893,52.704,0,48.811,0,44.027c0-4.785,3.893-8.678,8.678-8.678
			c4.784,0,8.677,3.893,8.677,8.678C17.354,48.811,13.462,52.704,8.678,52.704z M8.678,37.349C4.996,37.349,2,40.345,2,44.027
			s2.996,6.677,6.678,6.677s6.677-2.995,6.677-6.677S12.359,37.349,8.678,37.349z M8.678,50.435c-3.534,0-6.41-2.875-6.41-6.408
			c0-3.534,2.876-6.41,6.41-6.41s6.41,2.876,6.41,6.41C15.088,47.56,12.212,50.435,8.678,50.435z M8.678,39.617
			c-2.432,0-4.41,1.979-4.41,4.41c0,2.431,1.979,4.408,4.41,4.408s4.41-1.978,4.41-4.408C13.088,41.595,11.109,39.617,8.678,39.617z
			"/>
	</g>
	<g>
		<path fill="#1E0F00" d="M31.531,21.039c-0.076,0-0.154-0.008-0.231-0.024c-0.613-0.127-1.008-0.728-0.88-1.34l1.663-8.008
			c0.128-0.614,0.728-1.01,1.341-0.88c0.613,0.127,1.008,0.728,0.88,1.34l-1.664,8.008C32.529,20.67,32.058,21.039,31.531,21.039z"
			/>
		<path fill="#1E0F00" d="M31.531,22.039c-0.142,0-0.286-0.014-0.43-0.043c-0.563-0.117-1.044-0.443-1.356-0.921
			c-0.313-0.477-0.42-1.047-0.303-1.605l1.662-8.005c0.236-1.132,1.402-1.897,2.528-1.655c0.555,0.115,1.034,0.442,1.347,0.919
			c0.313,0.477,0.421,1.046,0.304,1.604l-1.663,8.007C33.415,21.324,32.536,22.039,31.531,22.039z M33.21,11.766
			c-0.077,0-0.133,0.037-0.147,0.105L31.4,19.878l0.018,0.101c0.014,0.021,0.04,0.048,0.085,0.058l0.028,0.002
			c0.054,0,0.116-0.037,0.13-0.107l1.664-8.008c0.008-0.036,0.002-0.069-0.019-0.1c-0.014-0.021-0.04-0.049-0.085-0.058
			C33.218,11.766,33.214,11.766,33.21,11.766z"/>
	</g>
	<g>
		<path fill="#1E0F00" d="M45.038,43.787c-0.247,0-0.495-0.079-0.703-0.246l-8.58-6.802c-0.491-0.389-0.574-1.102-0.184-1.592
			c0.389-0.491,1.102-0.575,1.592-0.184l8.58,6.802c0.491,0.389,0.574,1.102,0.184,1.592C45.704,43.64,45.373,43.787,45.038,43.787z
			"/>
		<path fill="#1E0F00" d="M45.038,44.788c-0.48,0-0.951-0.165-1.327-0.465l-8.576-6.8c-0.448-0.355-0.73-0.863-0.795-1.43
			c-0.064-0.566,0.096-1.123,0.45-1.569c0.702-0.886,2.108-1.052,2.998-0.342l8.576,6.801c0.447,0.354,0.729,0.861,0.795,1.428
			s-0.095,1.124-0.45,1.57C46.306,44.493,45.695,44.788,45.038,44.788z M36.44,35.729c-0.039,0-0.063,0.013-0.084,0.04l-0.029,0.097
			c0.002,0.025,0.014,0.061,0.05,0.09l8.661,6.832c0.024,0,0.07-0.007,0.104-0.049l0.03-0.1c-0.002-0.025-0.014-0.061-0.049-0.089
			l-8.58-6.803C36.5,35.735,36.467,35.729,36.44,35.729z"/>
	</g>
	<g>
		<path fill="#1E0F00" d="M14.439,40.386c-0.366,0-0.726-0.177-0.944-0.503c-0.348-0.521-0.207-1.226,0.313-1.574l8.794-5.87
			c0.519-0.347,1.226-0.207,1.572,0.313c0.348,0.521,0.207,1.226-0.313,1.574l-8.794,5.87
			C14.874,40.325,14.655,40.386,14.439,40.386z"/>
		<path fill="#1E0F00" d="M14.438,41.386c-0.713,0-1.377-0.354-1.774-0.946c-0.654-0.981-0.39-2.309,0.588-2.962l8.794-5.871
			c0.949-0.633,2.33-0.356,2.96,0.59c0.652,0.978,0.389,2.306-0.589,2.959l-8.794,5.871C15.271,41.262,14.861,41.386,14.438,41.386z
			 M23.23,33.249l-8.867,5.892c-0.062,0.041-0.078,0.125-0.037,0.187c0.08,0.119,0.146,0.063,0.187,0.036l8.793-5.87
			c0.062-0.041,0.078-0.125,0.036-0.188C23.307,33.254,23.252,33.249,23.23,33.249z"/>
	</g>
</g>
</svg>
