<?xml version="1.0" encoding="utf-8"?>
<!-- Generator: Adobe Illustrator 18.1.1, SVG Export Plug-In . SVG Version: 6.00 Build 0)  -->
<svg version="1.1" id="Слой_1" xmlns="http://www.w3.org/2000/svg" xmlns:xlink="http://www.w3.org/1999/xlink" x="0px" y="0px"
	 viewBox="0 0 46.606 60.578" enable-background="new 0 0 46.606 60.578" xml:space="preserve">
<g>
	<g>
		<path fill="#1E0F00" d="M20.931,33.447L20.931,33.447c-0.342,0-0.665-0.135-0.903-0.372l-6.517-6.517
			c-0.497-0.497-0.497-1.311,0-1.803L35.238,3.028c0.497-0.497,1.305-0.497,1.803,0l6.522,6.517c0.24,0.242,0.372,0.566,0.372,0.903
			c0,0.337-0.135,0.663-0.372,0.903L21.836,33.078C21.594,33.312,21.27,33.447,20.931,33.447L20.931,33.447z M16.217,25.653
			l4.717,4.72l19.922-19.922l-4.717-4.72L16.217,25.653L16.217,25.653z"/>
		<path fill="#1E0F00" d="M20.932,33.948c-0.476,0-0.922-0.185-1.257-0.52l-6.517-6.517c-0.336-0.336-0.521-0.784-0.52-1.261
			c0.001-0.476,0.187-0.919,0.521-1.251L34.885,2.674c0.67-0.67,1.84-0.67,2.51,0l6.522,6.518c0.335,0.339,0.519,0.784,0.519,1.256
			c0,0.465-0.188,0.923-0.517,1.255L22.19,33.431C21.845,33.766,21.399,33.948,20.932,33.948z M36.14,3.155
			c-0.207,0-0.401,0.081-0.548,0.227L13.865,25.109c-0.146,0.145-0.226,0.337-0.227,0.544c0,0.209,0.08,0.405,0.227,0.552
			l6.517,6.517c0.292,0.293,0.8,0.294,1.107-0.003L43.21,10.998c0.143-0.145,0.226-0.346,0.226-0.55
			c0-0.207-0.081-0.402-0.228-0.551l-6.521-6.516C36.541,3.236,36.347,3.155,36.14,3.155z M20.934,30.873L20.934,30.873
			c-0.133,0-0.26-0.053-0.354-0.146l-4.717-4.72c-0.195-0.195-0.195-0.512,0-0.707L35.785,5.377
			c0.094-0.094,0.221-0.146,0.354-0.146l0,0c0.133,0,0.26,0.053,0.354,0.146l4.717,4.72c0.195,0.195,0.195,0.512,0,0.707
			L21.287,30.726C21.193,30.82,21.066,30.873,20.934,30.873z M16.924,25.653l4.01,4.013l19.215-19.215l-4.01-4.013L16.924,25.653z"
			/>
	</g>
	<g>
		<path fill="#1E0F00" d="M25.998,47.974c-4.993,0-9.687-1.948-13.218-5.477c-0.497-0.492-0.497-1.305,0-1.803
			c0.495-0.492,1.305-0.492,1.803,0c3.047,3.052,7.104,4.73,11.415,4.73s8.366-1.678,11.421-4.73
			c3.047-3.042,4.727-7.096,4.727-11.413c0-4.314-1.68-8.366-4.727-11.421c-0.497-0.495-0.497-1.308,0-1.803
			c0.495-0.495,1.305-0.495,1.803,0c3.531,3.534,5.474,8.228,5.474,13.221c0,4.995-1.946,9.687-5.472,13.218
			C35.682,46.028,30.99,47.974,25.998,47.974L25.998,47.974z"/>
		<path fill="#1E0F00" d="M25.998,48.473c-5.123,0-9.943-1.997-13.572-5.623c-0.333-0.33-0.519-0.773-0.52-1.249
			c-0.001-0.477,0.184-0.925,0.52-1.261c0.67-0.667,1.84-0.663,2.508-0.002c2.953,2.957,6.882,4.585,11.064,4.585
			c4.178,0,8.108-1.628,11.066-4.583c2.954-2.948,4.581-6.876,4.581-11.06c0-4.176-1.627-8.105-4.581-11.066
			c-0.335-0.333-0.52-0.78-0.52-1.256c0-0.477,0.186-0.922,0.521-1.255c0.666-0.666,1.84-0.666,2.508,0
			c3.626,3.627,5.622,8.447,5.622,13.575c0,5.124-1.995,9.943-5.618,13.571C35.939,46.476,31.117,48.473,25.998,48.473z
			 M13.68,40.825c-0.208,0-0.402,0.079-0.548,0.224c-0.146,0.146-0.226,0.342-0.226,0.551c0.001,0.207,0.08,0.399,0.225,0.542
			c3.442,3.439,8.011,5.332,12.867,5.332c4.853,0,9.425-1.894,12.873-5.331c3.433-3.438,5.324-8.007,5.324-12.863
			c0-4.86-1.893-9.431-5.328-12.867c-0.291-0.289-0.805-0.289-1.096,0c-0.146,0.146-0.227,0.339-0.227,0.547s0.08,0.403,0.226,0.548
			c3.145,3.151,4.875,7.332,4.875,11.774c0,4.451-1.731,8.63-4.874,11.767c-3.147,3.145-7.328,4.876-11.773,4.876
			c-4.45,0-8.631-1.731-11.77-4.876C14.084,40.905,13.889,40.825,13.68,40.825z"/>
	</g>
	<g>
		<path fill="#1E0F00" d="M40.488,7.373c-0.326,0-0.655-0.125-0.903-0.372c-0.497-0.492-0.497-1.305,0-1.803l4.345-4.342
			c0.497-0.497,1.305-0.497,1.803,0c0.497,0.495,0.497,1.305,0,1.803l-4.345,4.342C41.138,7.248,40.815,7.373,40.488,7.373z"/>
		<path fill="#1E0F00" d="M40.488,7.874c-0.47,0-0.928-0.189-1.257-0.521c-0.332-0.329-0.518-0.772-0.519-1.248
			c-0.001-0.477,0.184-0.925,0.52-1.261l4.345-4.342c0.67-0.67,1.84-0.67,2.51,0c0.334,0.332,0.519,0.776,0.52,1.251
			c0,0.477-0.184,0.923-0.52,1.259l-4.345,4.342C41.404,7.69,40.959,7.874,40.488,7.874z M44.832,0.983
			c-0.207,0-0.401,0.081-0.548,0.227l-4.345,4.342c-0.146,0.146-0.227,0.343-0.227,0.552c0.001,0.207,0.08,0.399,0.225,0.542
			c0.291,0.293,0.804,0.294,1.099,0.001l4.344-4.341c0.146-0.146,0.227-0.342,0.227-0.55c-0.001-0.207-0.081-0.4-0.226-0.545
			C45.233,1.064,45.039,0.983,44.832,0.983z"/>
	</g>
	<g>
		<path fill="#1E0F00" d="M24.723,42.229H1.775c-0.701,0-1.275-0.574-1.275-1.275s0.574-1.275,1.275-1.275h22.948
			c0.704,0,1.275,0.574,1.275,1.275S25.427,42.229,24.723,42.229z"/>
		<path fill="#1E0F00" d="M24.723,42.729H1.774C0.796,42.729,0,41.932,0,40.954s0.796-1.774,1.774-1.774h22.948
			c0.979,0,1.775,0.796,1.775,1.774S25.701,42.729,24.723,42.729z M1.774,40.179C1.348,40.179,1,40.527,1,40.954
			c0,0.428,0.348,0.775,0.774,0.775h22.948c0.428,0,0.775-0.348,0.775-0.775c0-0.427-0.348-0.774-0.775-0.774H1.774z"/>
	</g>
	<g>
		<path fill="#1E0F00" d="M40.022,60.077H16.966c-0.433,0-0.836-0.219-1.071-0.584c-0.235-0.37-0.265-0.821-0.089-1.221
			l5.207-11.474c0.291-0.637,1.045-0.926,1.688-0.632c0.64,0.288,0.926,1.045,0.635,1.688l-4.388,9.671h18.695l-6.329-9.493
			c-0.388-0.586-0.232-1.379,0.357-1.767c0.584-0.393,1.377-0.235,1.764,0.354l7.649,11.474c0.265,0.388,0.286,0.898,0.064,1.311
			C40.924,59.817,40.493,60.077,40.022,60.077z"/>
		<path fill="#1E0F00" d="M40.021,60.578H16.967c-0.606,0-1.164-0.304-1.492-0.813c-0.322-0.51-0.369-1.143-0.125-1.694
			l5.208-11.479c0.394-0.863,1.484-1.273,2.351-0.881c0.43,0.193,0.76,0.546,0.927,0.99s0.151,0.927-0.043,1.359l-4.068,8.965
			h16.984l-5.81-8.716c-0.264-0.398-0.356-0.875-0.261-1.341c0.095-0.464,0.364-0.861,0.758-1.121
			c0.779-0.521,1.937-0.293,2.458,0.497l7.647,11.472c0.362,0.528,0.398,1.247,0.088,1.825
			C41.274,60.22,40.674,60.578,40.021,60.578z M22.175,46.55c-0.304,0-0.581,0.179-0.707,0.456l-5.206,11.473
			c-0.108,0.245-0.088,0.519,0.057,0.747c0.141,0.219,0.384,0.352,0.648,0.352h23.055c0.286,0,0.55-0.158,0.688-0.412
			c0.135-0.25,0.12-0.561-0.036-0.79L33.02,46.897c-0.229-0.349-0.728-0.449-1.069-0.217c-0.175,0.115-0.292,0.287-0.333,0.488
			c-0.042,0.204-0.001,0.413,0.114,0.587l6.327,9.492c0.103,0.153,0.112,0.351,0.024,0.514c-0.087,0.162-0.256,0.264-0.44,0.264
			H18.947c-0.17,0-0.328-0.086-0.42-0.229c-0.093-0.143-0.105-0.322-0.035-0.478l4.389-9.671c0.085-0.188,0.092-0.399,0.019-0.594
			s-0.217-0.348-0.403-0.432C22.393,46.574,22.285,46.55,22.175,46.55z"/>
	</g>
</g>
</svg>
