<?xml version="1.0" encoding="utf-8"?>
<!-- Generator: Adobe Illustrator 18.1.1, SVG Export Plug-In . SVG Version: 6.00 Build 0)  -->
<svg version="1.1" id="Слой_1" xmlns="http://www.w3.org/2000/svg" xmlns:xlink="http://www.w3.org/1999/xlink" x="0px" y="0px"
	 viewBox="0 0 55.501 71.196" enable-background="new 0 0 55.501 71.196" xml:space="preserve">
<g>
	<g>
		<g>
			<path fill="#1E0F00" d="M46.065,71.196H4.842l-1.746-3.92l0.532-4.845l0.155-41.807L0,9.114V0l24.654,0.106L49.227,0l0.022,9.24
				l-2.952,11.477l0.757,41.98l0.642,4.564L46.065,71.196z M5.487,70.196h39.916l1.27-3.069l-0.604-4.312l-0.754-42.197
				l-0.135-0.076L48,9.051V1.004L24.502,1.106L1,1.004v8.033l4,11.416v0.08L4.657,62.45l-0.522,4.661L5.487,70.196z"/>
		</g>
		<g>
			
				<rect x="1.119" y="24.169" transform="matrix(0.4229 0.9062 -0.9062 0.4229 26.1843 8.2223)" fill="#1E0F00" width="11.035" height="1"/>
		</g>
		<g>
			
				<rect x="43.886" y="19.151" transform="matrix(0.9397 0.3419 -0.3419 0.9397 11.1091 -13.689)" fill="#1E0F00" width="1" height="11.035"/>
		</g>
	</g>
	<g>
		<g>
			<path fill="#1E0F00" d="M21.97,56.504"/>
		</g>
		<g>
			<path fill="#1E0F00" d="M55.501,56.568"/>
		</g>
	</g>
</g>
</svg>
