<?xml version="1.0" encoding="utf-8"?>
<!-- Generator: Adobe Illustrator 18.1.1, SVG Export Plug-In . SVG Version: 6.00 Build 0)  -->
<svg version="1.1" id="Слой_1" xmlns="http://www.w3.org/2000/svg" xmlns:xlink="http://www.w3.org/1999/xlink" x="0px" y="0px"
	 viewBox="0 0 53.518 55" enable-background="new 0 0 53.518 55" xml:space="preserve">
<g>
	<g>
		<path fill="#1E0F00" d="M43.738,31H28.177c-0.715,0-1.376-0.187-1.732-0.806l-7.78-13.403c-0.356-0.618-0.356-1.331,0-1.949
			l7.78-13.671C26.801,0.552,27.462,0,28.177,0h15.562c0.715,0,1.376,0.577,1.732,1.196l7.78,13.597
			c0.356,0.618,0.356,1.429,0,2.047l-7.78,13.329C45.114,30.789,44.453,31,43.738,31z M29.332,27h13.251l6.627-11.5L42.583,4H29.332
			l-6.627,11.5L29.332,27z"/>
	</g>
	<g>
		<path fill="#1E0F00" d="M37.014,55h-9.996c-0.709,0-1.365-0.18-1.724-0.791l-4.998-8.403c-0.368-0.626-0.368-1.353,0-1.979
			l4.998-8.671C25.652,34.546,26.309,34,27.018,34h9.996c0.709,0,1.365,0.57,1.725,1.181l4.997,8.597
			c0.367,0.626,0.367,1.45,0,2.076l-4.997,8.329C38.379,54.796,37.723,55,37.014,55z M28.162,51h7.707l3.821-6.5L35.869,38h-7.707
			l-3.822,6.5L28.162,51z"/>
	</g>
	<g>
		<path fill="#1E0F00" d="M16.993,42H6.997c-0.709,0-1.365-0.18-1.725-0.791l-4.997-8.403c-0.367-0.626-0.367-1.353,0-1.979
			l4.997-8.671C5.632,21.546,6.288,21,6.997,21h9.996c0.709,0,1.364,0.57,1.724,1.181l4.998,8.597c0.368,0.626,0.368,1.45,0,2.076
			l-4.998,8.329C18.357,41.796,17.702,42,16.993,42z M8.142,38h7.707l3.822-6.5L15.849,25H8.142L4.32,31.5L8.142,38z"/>
	</g>
</g>
</svg>
