<?xml version="1.0" encoding="utf-8"?>
<!-- Generator: Adobe Illustrator 18.1.1, SVG Export Plug-In . SVG Version: 6.00 Build 0)  -->
<svg version="1.1" id="Слой_1" xmlns="http://www.w3.org/2000/svg" xmlns:xlink="http://www.w3.org/1999/xlink" x="0px" y="0px"
	 viewBox="0 0 54.203 51.585" enable-background="new 0 0 54.203 51.585" xml:space="preserve">
<g>
	<g>
		<path fill="#1E0F00" d="M34.333,51.085H4.062c-1.494,0-2.669-0.581-3.226-1.594s-0.416-2.316,0.384-3.576l11.688-18.405V14.132
			c-1.85-0.06-3.336-1.517-3.336-3.301c0-1.821,1.55-3.302,3.455-3.302h12.338c1.907,0,3.458,1.481,3.458,3.302
			c0,1.783-1.486,3.241-3.339,3.301v13.38l11.688,18.405c0.801,1.259,0.942,2.563,0.387,3.576
			C37.004,50.504,35.828,51.085,34.333,51.085z M13.027,9.747c-0.671,0-1.238,0.497-1.238,1.085c0,0.589,0.568,1.086,1.238,1.086
			h0.99c0.612,0,1.108,0.497,1.108,1.108v14.808c0,0.209-0.06,0.417-0.173,0.594L3.091,47.106c-0.344,0.54-0.462,1.045-0.313,1.319
			s0.642,0.443,1.282,0.443h30.271c0.641,0,1.133-0.17,1.284-0.443c0.15-0.274,0.029-0.778-0.314-1.318L23.44,28.43
			c-0.113-0.177-0.173-0.385-0.173-0.594V13.027c0-0.612,0.497-1.108,1.108-1.108h0.989c0.673,0,1.241-0.498,1.241-1.086
			c0-0.589-0.569-1.085-1.241-1.085H13.027z"/>
		<path fill="#1E0F00" d="M34.333,51.585H4.062c-1.681,0-3.017-0.675-3.664-1.853c-0.646-1.177-0.501-2.666,0.4-4.085l11.61-18.282
			V14.588c-1.906-0.284-3.337-1.853-3.337-3.757c0-2.097,1.774-3.802,3.955-3.802h12.338c2.183,0,3.959,1.706,3.959,3.802
			c0,1.904-1.432,3.473-3.339,3.757v12.778l11.61,18.282c0.902,1.417,1.05,2.906,0.403,4.084
			C37.351,50.91,36.014,51.585,34.333,51.585z M13.027,8.029c-1.63,0-2.955,1.257-2.955,2.802c0,1.519,1.253,2.749,2.854,2.801
			c0.27,0.008,0.483,0.229,0.483,0.5v13.379c0,0.095-0.027,0.188-0.078,0.268L1.642,46.183c-0.699,1.102-0.833,2.22-0.367,3.067
			c0.466,0.848,1.481,1.334,2.787,1.334h30.271c1.307,0,2.323-0.486,2.789-1.334c0.466-0.848,0.331-1.966-0.37-3.066L25.063,27.78
			c-0.051-0.08-0.078-0.173-0.078-0.268v-13.38c0-0.27,0.214-0.491,0.483-0.5c1.602-0.052,2.855-1.283,2.855-2.801
			c0-1.545-1.327-2.802-2.959-2.802H13.027z M34.333,49.368H4.061c-0.85,0-1.477-0.256-1.721-0.704
			c-0.245-0.447-0.126-1.113,0.329-1.828L14.531,28.16c0.062-0.098,0.095-0.21,0.095-0.326V13.027c0-0.335-0.272-0.608-0.608-0.608
			h-0.99c-0.942,0-1.738-0.727-1.738-1.586c0-0.859,0.796-1.585,1.738-1.585h12.337c0.943,0,1.741,0.726,1.741,1.585
			c0,0.86-0.798,1.586-1.741,1.586h-0.988c-0.336,0-0.608,0.273-0.608,0.608v14.809c0,0.116,0.032,0.229,0.094,0.325l11.863,18.678
			c0.453,0.714,0.574,1.379,0.33,1.825C35.808,49.112,35.181,49.368,34.333,49.368z M13.027,10.247
			c-0.394,0-0.738,0.273-0.738,0.585c0,0.313,0.345,0.586,0.738,0.586h0.99c0.887,0,1.608,0.722,1.608,1.608v14.808
			c0,0.305-0.087,0.603-0.251,0.861L3.514,47.374c-0.279,0.439-0.318,0.745-0.293,0.817c0.041,0.047,0.321,0.177,0.841,0.177h30.271
			c0.521,0,0.802-0.131,0.85-0.191c0.017-0.057-0.022-0.363-0.302-0.802L23.018,28.698c-0.164-0.256-0.251-0.555-0.251-0.862V13.027
			c0-0.887,0.722-1.608,1.608-1.608h0.988c0.395,0,0.741-0.274,0.741-0.586c0-0.312-0.347-0.585-0.741-0.585H13.027z"/>
	</g>
	<g>
		<g>
			<path fill="#1E0F00" d="M35.897,46.966v-2.217c8.595,0,15.589-6.995,15.589-15.592c0-7.031-4.736-13.219-11.519-15.05
				l-0.819-0.222V2.717h-6.505v11.17l-0.819,0.221c-2.434,0.657-4.703,1.919-6.56,3.65l-1.511-1.622
				c1.911-1.78,4.203-3.127,6.674-3.926V0.5h10.939v11.708c7.306,2.354,12.337,9.204,12.337,16.948
				C53.703,38.977,45.715,46.966,35.897,46.966z"/>
			<path fill="#1E0F00" d="M35.896,47.466c-0.276,0-0.5-0.224-0.5-0.5v-2.217c0-0.276,0.224-0.5,0.5-0.5
				c8.32,0,15.09-6.771,15.09-15.092c0-6.805-4.585-12.795-11.149-14.567l-0.82-0.222c-0.218-0.059-0.369-0.256-0.369-0.482V3.217
				h-5.505v10.669c0,0.226-0.151,0.424-0.37,0.483l-0.819,0.221c-2.357,0.637-4.554,1.858-6.349,3.533
				c-0.097,0.09-0.227,0.146-0.358,0.134c-0.133-0.004-0.258-0.062-0.349-0.159l-1.511-1.622c-0.09-0.097-0.138-0.226-0.134-0.358
				c0.005-0.133,0.063-0.258,0.159-0.348c1.865-1.738,4.111-3.088,6.515-3.92V0.5c0-0.276,0.224-0.5,0.5-0.5h10.939
				c0.276,0,0.5,0.224,0.5,0.5v11.348c7.395,2.544,12.337,9.454,12.337,17.309C54.203,39.252,45.991,47.466,35.896,47.466z
				 M36.396,45.241v1.217c9.313-0.265,16.807-7.925,16.807-17.302c0-7.542-4.818-14.161-11.99-16.472
				c-0.207-0.067-0.347-0.259-0.347-0.476V1h-9.939v11.21c0,0.217-0.14,0.409-0.346,0.476c-2.237,0.724-4.342,1.922-6.116,3.48
				l0.829,0.89c1.842-1.613,4.044-2.795,6.399-3.432l0.449-0.121V2.717c0-0.276,0.224-0.5,0.5-0.5h6.505c0.276,0,0.5,0.224,0.5,0.5
				v10.785l0.45,0.122c7,1.889,11.889,8.277,11.889,15.533C51.986,37.863,45.038,44.976,36.396,45.241z"/>
		</g>
		<g>
			<path fill="#1E0F00" d="M43.467,2.717H28.324c-0.613,0-1.108-0.497-1.108-1.108S27.711,0.5,28.324,0.5h15.143
				c0.613,0,1.108,0.497,1.108,1.108S44.079,2.717,43.467,2.717z"/>
			<path fill="#1E0F00" d="M43.468,3.217H28.324c-0.887,0-1.608-0.722-1.608-1.608C26.716,0.722,27.437,0,28.324,0h15.144
				c0.887,0,1.608,0.722,1.608,1.609C45.076,2.496,44.354,3.217,43.468,3.217z M28.324,1c-0.336,0-0.608,0.273-0.608,0.609
				c0,0.335,0.272,0.608,0.608,0.608h15.144c0.336,0,0.608-0.273,0.608-0.608C44.076,1.273,43.804,1,43.468,1H28.324z"/>
		</g>
	</g>
</g>
</svg>
