<?xml version="1.0" encoding="utf-8"?>
<!-- Generator: Adobe Illustrator 18.1.1, SVG Export Plug-In . SVG Version: 6.00 Build 0)  -->
<svg version="1.1" id="Слой_1" xmlns="http://www.w3.org/2000/svg" xmlns:xlink="http://www.w3.org/1999/xlink" x="0px" y="0px"
	 viewBox="0 0 30 30" style="enable-background:new 0 0 30 30;" xml:space="preserve">
<style type="text/css">
	.st0{fill:none;}
</style>
<g>
	<path class="st0" d="M16.491,11.771c-2.767,0-5.018,2.251-5.018,5.018c0,2.768,2.251,5.019,5.018,5.019
		c2.768,0,5.019-2.251,5.019-5.019C21.51,14.022,19.259,11.771,16.491,11.771z"/>
	<path class="st0" d="M16.491,10.032c-3.727,0-6.758,3.032-6.758,6.758c0,3.727,3.031,6.759,6.758,6.759s6.759-3.032,6.759-6.759
		C23.25,13.063,20.218,10.032,16.491,10.032z M16.491,22.808c-3.318,0-6.018-2.7-6.018-6.019s2.699-6.018,6.018-6.018
		s6.019,2.7,6.019,6.018S19.81,22.808,16.491,22.808z"/>
	<path class="st0" d="M26.036,8.789h-4.474c-1.953,0-3.483-1.006-3.483-2.29c0-0.61-1.02-1.29-2.482-1.29h-1.193
		c-1.463,0-2.482,0.68-2.482,1.29c0,1.284-1.53,2.29-3.483,2.29H3.964c-1.369,0-2.483,1.114-2.483,2.483v11.037
		c0,1.369,1.114,2.482,2.483,2.482h22.072c1.369,0,2.483-1.113,2.483-2.482V11.271C28.52,9.902,27.405,8.789,26.036,8.789z
		 M6.899,22.755h-1V11.023h1V22.755z M16.491,24.548c-4.277,0-7.758-3.48-7.758-7.759c0-4.278,3.48-7.758,7.758-7.758
		c4.278,0,7.759,3.48,7.759,7.758C24.25,21.068,20.77,24.548,16.491,24.548z"/>
	<path d="M26.036,7.789h-4.474c-1.464,0-2.483-0.68-2.483-1.29c0-1.284-1.529-2.29-3.482-2.29h-1.193
		c-1.953,0-3.482,1.006-3.482,2.29c0,0.61-1.02,1.29-2.483,1.29H3.964c-1.921,0-3.483,1.563-3.483,3.483v11.037
		c0,1.92,1.563,3.482,3.483,3.482h22.072c1.921,0,3.483-1.563,3.483-3.482V11.271C29.52,9.351,27.957,7.789,26.036,7.789z
		 M28.52,22.308c0,1.369-1.114,2.482-2.483,2.482H3.964c-1.369,0-2.483-1.113-2.483-2.482V11.271c0-1.369,1.114-2.483,2.483-2.483
		h4.474c1.953,0,3.483-1.006,3.483-2.29c0-0.61,1.02-1.29,2.482-1.29h1.193c1.463,0,2.482,0.68,2.482,1.29
		c0,1.284,1.53,2.29,3.483,2.29h4.474c1.369,0,2.483,1.114,2.483,2.483V22.308z"/>
	<path d="M16.491,10.771c-3.318,0-6.018,2.7-6.018,6.018s2.699,6.019,6.018,6.019s6.019-2.7,6.019-6.019S19.81,10.771,16.491,10.771
		z M16.491,21.808c-2.767,0-5.018-2.251-5.018-5.019c0-2.767,2.251-5.018,5.018-5.018c2.768,0,5.019,2.251,5.019,5.018
		C21.51,19.557,19.259,21.808,16.491,21.808z"/>
	<rect x="5.899" y="11.023" width="1" height="11.732"/>
	<path d="M16.491,9.032c-4.277,0-7.758,3.48-7.758,7.758c0,4.278,3.48,7.759,7.758,7.759c4.278,0,7.759-3.48,7.759-7.759
		C24.25,12.512,20.77,9.032,16.491,9.032z M16.491,23.548c-3.727,0-6.758-3.032-6.758-6.759c0-3.726,3.031-6.758,6.758-6.758
		s6.759,3.032,6.759,6.758C23.25,20.516,20.218,23.548,16.491,23.548z"/>
</g>
</svg>
