<?xml version="1.0" encoding="utf-8"?>
<!-- Generator: Adobe Illustrator 18.1.1, SVG Export Plug-In . SVG Version: 6.00 Build 0)  -->
<svg version="1.1" id="Слой_1" xmlns="http://www.w3.org/2000/svg" xmlns:xlink="http://www.w3.org/1999/xlink" x="0px" y="0px"
	 viewBox="0 0 100 100" style="enable-background:new 0 0 100 100;" xml:space="preserve">
<style type="text/css">
	.st0{fill:#778F9B;}
</style>
<g>
	<path class="st0" d="M83.733,38.853L61.147,16.267c-2.593-2.593-6.837-2.593-9.427,0c-2.593,2.593-2.593,6.837,0,9.427
		L74.307,48.28c2.593,2.593,6.837,2.593,9.427,0C86.327,45.69,86.327,41.447,83.733,38.853z"/>
	<path class="st0" d="M23.227,34.117L14.32,83.323l25.4-25.4c-2.037-3.123-1.69-7.347,1.053-10.09c3.147-3.147,8.247-3.147,11.393,0
		c3.147,3.143,3.147,8.247,0,11.39c-2.743,2.74-6.963,3.09-10.087,1.053l-25.4,25.4l49.203-8.907l5.807-26.543L49.81,28.3
		L23.227,34.117z"/>
</g>
</svg>
