<?xml version="1.0" encoding="utf-8"?>
<!-- Generator: Adobe Illustrator 18.1.1, SVG Export Plug-In . SVG Version: 6.00 Build 0)  -->
<svg version="1.1" id="Слой_1" xmlns="http://www.w3.org/2000/svg" xmlns:xlink="http://www.w3.org/1999/xlink" x="0px" y="0px"
	 viewBox="0 0 100 100" style="enable-background:new 0 0 100 100;" xml:space="preserve">
<style type="text/css">
	.st0{fill:#778F9B;}
</style>
<g>
	<polygon class="st0" points="44.503,22.163 44.503,41.17 58.83,41.17 58.83,55.497 77.837,55.497 77.837,22.163 	"/>
	<polygon class="st0" points="52.163,74.503 45.497,74.503 45.497,77.837 52.163,77.837 55.497,77.837 55.497,71.17 52.163,71.17 	
		"/>
	<rect x="35.497" y="74.503" class="st0" width="6.667" height="3.333"/>
	<rect x="52.163" y="61.17" class="st0" width="3.333" height="6.667"/>
	<rect x="52.163" y="51.17" class="st0" width="3.333" height="6.667"/>
	<rect x="48.83" y="44.503" class="st0" width="6.667" height="3.333"/>
	<rect x="22.163" y="51.17" class="st0" width="3.333" height="6.667"/>
	<rect x="28.83" y="44.503" class="st0" width="6.667" height="3.333"/>
	<rect x="22.163" y="44.503" class="st0" width="3.333" height="3.333"/>
	<polygon class="st0" points="25.497,71.17 22.163,71.17 22.163,77.837 25.497,77.837 32.163,77.837 32.163,74.503 25.497,74.503 	
		"/>
	<rect x="22.163" y="61.17" class="st0" width="3.333" height="6.667"/>
	<polygon class="st0" points="45.497,47.837 45.497,44.503 41.17,44.503 38.83,44.503 38.83,47.837 41.17,47.837 	"/>
</g>
</svg>
