<?xml version="1.0" encoding="utf-8"?>
<!-- Generator: Adobe Illustrator 18.1.1, SVG Export Plug-In . SVG Version: 6.00 Build 0)  -->
<svg version="1.1" id="Слой_1" xmlns="http://www.w3.org/2000/svg" xmlns:xlink="http://www.w3.org/1999/xlink" x="0px" y="0px"
	 viewBox="0 0 371.284 297.028" style="enable-background:new 0 0 371.284 297.028;" xml:space="preserve">
<style type="text/css">
	.st0{fill:#CA4E45;}
</style>
<path class="st0" d="M304.526,3.109c-4.146-4.146-10.858-4.146-15,0L148.512,144.12L81.757,77.366c-4.146-4.146-10.858-4.146-15,0
	L3.109,141.014c-4.146,4.141-4.146,10.858,0,15l137.905,137.905c2.071,2.075,4.782,3.11,7.498,3.11c2.716,0,5.427-1.035,7.502-3.106
	L368.174,81.762c4.146-4.141,4.146-10.858,0-15L304.526,3.109z M148.512,271.416L25.607,148.516l48.649-48.644l66.754,66.754
	c4.146,4.146,10.858,4.146,15,0L297.024,25.615l48.648,48.644L148.512,271.416z"/>
</svg>
