<?xml version="1.0" encoding="utf-8"?>
<!-- Generator: Adobe Illustrator 18.1.1, SVG Export Plug-In . SVG Version: 6.00 Build 0)  -->
<svg version="1.1" id="Слой_1" xmlns="http://www.w3.org/2000/svg" xmlns:xlink="http://www.w3.org/1999/xlink" x="0px" y="0px"
	 viewBox="0 0 345.032 345.035" style="enable-background:new 0 0 345.032 345.035;" xml:space="preserve">
<style type="text/css">
	.st0{fill:#CA4E45;}
</style>
<path class="st0" d="M3.157,277.182l64.693,64.693c4.214,4.214,11.037,4.214,15.246,0l89.418-89.414l89.414,89.414
	c2.109,2.105,4.865,3.157,7.625,3.157s5.516-1.052,7.625-3.157l64.693-64.693c4.214-4.209,4.214-11.037,0-15.246l-89.418-89.418
	l89.414-89.414c4.214-4.209,4.214-11.037,0-15.246L277.174,3.165c-4.214-4.214-11.037-4.214-15.246,0l-89.414,89.41L83.1,3.16
	c-4.214-4.214-11.037-4.214-15.246,0L3.161,67.853c-4.214,4.209-4.214,11.037,0,15.246l89.414,89.418L3.157,261.932
	C-1.052,266.141-1.052,272.973,3.157,277.182z M115.447,180.143c4.214-4.209,4.214-11.037,0-15.246L26.028,75.478l49.447-49.443
	l89.414,89.414c4.214,4.214,11.037,4.214,15.246,0l89.418-89.414L319,75.478l-89.418,89.414c-4.214,4.209-4.214,11.037,0,15.246
	L319,269.557l-49.447,49.443l-89.414-89.414c-2.109-2.105-4.865-3.157-7.625-3.157s-5.516,1.052-7.625,3.157l-89.414,89.414
	l-49.447-49.443L115.447,180.143z"/>
</svg>
