<?xml version="1.0" encoding="utf-8"?>
<!-- Generator: Adobe Illustrator 18.1.1, SVG Export Plug-In . SVG Version: 6.00 Build 0)  -->
<svg version="1.1" id="Слой_1" xmlns="http://www.w3.org/2000/svg" xmlns:xlink="http://www.w3.org/1999/xlink" x="0px" y="0px"
	 viewBox="0 0 104.155 100.203" style="enable-background:new 0 0 104.155 100.203;" xml:space="preserve">
<style type="text/css">
	.st0{fill:none;stroke:#FFFFFF;stroke-width:2;stroke-miterlimit:10;}
</style>
<g>
	<path class="st0" d="M30.924,83.087l0.979,0.53c2.509,1.359,4.847,2.319,7.357,3.021l1.097,0.306v11.392
		c0,0.282,0,0.868,1.236,0.868h17.166c1.087,0,1.087-0.441,1.087-0.868V86.943l1.097-0.306c2.571-0.719,5.002-1.707,7.433-3.023
		l0.979-0.53l8.108,8.032c0.525,0.525,1.449,0.521,1.963,0.005l12.156-12.138c0.258-0.259,0.401-0.602,0.402-0.966
		c0.001-0.362-0.139-0.702-0.395-0.957l-8.039-7.934l0.536-0.991c1.091-2.013,2.213-4.277,3.027-7.192l0.306-1.097h11.393
		c0.104,0,0.146-0.016,0.15-0.018c-0.005,0,0.241-0.271,0.241-1.546V41.117c0-0.397-0.024-0.62-0.046-0.741
		c-0.073-0.01-0.184-0.02-0.344-0.02H87.421l-0.306-1.097c-0.771-2.758-1.787-5.313-3.022-7.596l-0.526-0.973l8.022-8.19
		C91.858,22.232,92,21.877,92,21.49c0-0.388-0.142-0.742-0.399-0.999L79.46,8.313c-0.515-0.515-1.41-0.528-1.921-0.017l-8.19,8.024
		l-0.973-0.526c-2.454-1.329-4.886-2.321-7.434-3.033l-1.097-0.306V1.063c0-0.013,0-0.024,0-0.035C59.575,1,59.147,1,58.863,1
		H41.492c-0.333,0-0.844,0-1.135,0.042c0,0.007,0,0.015,0,0.021v11.392l-1.097,0.306c-2.501,0.699-4.839,1.659-7.356,3.023
		l-0.981,0.531L22.851,8.28c-0.52-0.521-1.428-0.519-1.941-0.004L8.762,20.415c-0.258,0.258-0.4,0.6-0.4,0.964
		c0,0.362,0.14,0.703,0.396,0.959l8.027,8.363l-0.521,0.963c-1.237,2.285-2.254,4.84-3.024,7.596l-0.306,1.097H1.541
		c-0.255,0-0.401,0.024-0.473,0.043C1.041,40.49,1,40.699,1,41.117v17.166c0,0.47,0.053,1.563,0.541,1.563h11.392l0.307,1.097
		c0.661,2.365,1.537,4.449,3.022,7.193l0.535,0.987l-8.045,7.99c-0.253,0.254-0.396,0.591-0.396,0.946
		c0,0.354,0.142,0.691,0.399,0.949l12.137,12.123c0.515,0.517,1.41,0.512,1.924-0.005L30.924,83.087z"/>
	<path class="st0" d="M50.102,28.713c-11.793,0-21.388,9.595-21.388,21.389c0,11.793,9.594,21.388,21.388,21.388
		c11.793,0,21.388-9.595,21.388-21.388C71.49,38.308,61.895,28.713,50.102,28.713z"/>
</g>
</svg>
