<?xml version="1.0" encoding="utf-8"?>
<!-- Generator: Adobe Illustrator 18.1.1, SVG Export Plug-In . SVG Version: 6.00 Build 0)  -->
<svg version="1.1" id="Слой_1" xmlns="http://www.w3.org/2000/svg" xmlns:xlink="http://www.w3.org/1999/xlink" x="0px" y="0px"
	 viewBox="0 0 143.5 18.291" style="enable-background:new 0 0 143.5 18.291;" xml:space="preserve">
<style type="text/css">
	.st0{fill-rule:evenodd;clip-rule:evenodd;fill:#FF6600;}
	.st1{fill:#FF6600;}
</style>
<g>
	<polygon class="st0" points="6.563,11.368 3.618,6.266 17.143,6.266 10.381,17.979 7.435,12.876 8.952,12 10.38,14.473 
		14.122,7.991 6.643,7.991 8.085,10.489 6.563,11.368 	"/>
	<polygon class="st0" points="2.024,0 0,0 2.616,4.531 18.169,4.531 20.779,0.011 18.736,0 17.121,2.796 3.639,2.796 2.024,0 	"/>
	<path class="st1" d="M27.913,7.991h-5.276v2.735h5.304c0.581,0,1.018-0.116,1.316-0.349c0.293-0.228,0.442-0.572,0.442-1.028
		c0-0.451-0.149-0.791-0.442-1.018C28.959,8.102,28.513,7.991,27.913,7.991L27.913,7.991z M28.527,12.429h-5.89v3.824h5.89
		c0.638,0,1.131-0.167,1.484-0.507c0.349-0.335,0.526-0.81,0.526-1.419c0-0.6-0.176-1.065-0.526-1.4
		C29.657,12.596,29.164,12.429,28.527,12.429L28.527,12.429z M20.822,17.928V6.315h7.146c1.182,0,2.08,0.242,2.689,0.73
		c0.609,0.484,0.912,1.201,0.912,2.14c0,0.475-0.093,0.893-0.284,1.261c-0.191,0.367-0.47,0.665-0.833,0.893
		c0.647,0.363,1.135,0.805,1.461,1.331c0.33,0.521,0.493,1.112,0.493,1.764c0,1.084-0.363,1.935-1.084,2.559
		c-0.726,0.623-1.726,0.935-3.001,0.935H20.822L20.822,17.928z M35.98,17.928V6.288h10.914l-0.99,1.703h-8.111v2.903h5.974
		l-0.976,1.675h-4.998v3.685h9.168l-0.967,1.675H35.98L35.98,17.928z M63.173,17.928V6.288h10.914l-0.99,1.703h-8.11v2.903h5.973
		l-0.976,1.675h-4.997v3.685h9.167l-0.967,1.675H63.173L63.173,17.928z M89.5,15.08c-0.66,1.042-1.53,1.838-2.61,2.387
		c-1.075,0.549-2.303,0.823-3.676,0.823c-2.042,0-3.726-0.577-5.052-1.735c-1.321-1.159-1.982-2.629-1.982-4.406
		c0-1.781,0.661-3.252,1.982-4.419c1.326-1.168,3.01-1.75,5.052-1.75c1.275,0,2.428,0.237,3.466,0.717
		c1.038,0.474,1.87,1.149,2.508,2.019l-1.447,1.005C87.262,9.06,86.63,8.549,85.843,8.19c-0.786-0.358-1.661-0.535-2.624-0.535
		c-1.493,0-2.726,0.423-3.703,1.274c-0.977,0.847-1.465,1.912-1.465,3.192c0,1.279,0.489,2.345,1.47,3.192
		c0.982,0.851,2.215,1.274,3.699,1.274c1.033,0,1.949-0.205,2.74-0.609c0.791-0.409,1.484-1.042,2.084-1.903L89.5,15.08L89.5,15.08z
		 M92.589,17.928V6.315h1.815v5.164l6.169-5.164h2.401l-4.885,4.131l5.611,7.481h-2.043l-4.852-6.42l-2.401,2.033v4.387H92.589
		L92.589,17.928z M107.668,11.145h6.643c0.619,0,1.099-0.135,1.429-0.409c0.33-0.274,0.498-0.665,0.498-1.177
		c0-0.498-0.158-0.884-0.479-1.158c-0.316-0.275-0.772-0.409-1.363-0.409h-6.727V11.145L107.668,11.145z M107.668,12.847v5.08
		h-1.815V6.288h8.458c1.2,0,2.131,0.284,2.796,0.851c0.666,0.567,1,1.368,1,2.396c0,0.972-0.33,1.768-0.991,2.387
		c-0.665,0.619-1.535,0.926-2.61,0.926H107.668L107.668,12.847z M121.141,13.433h4.55l-2.261-4.461L121.141,13.433L121.141,13.433z
		 M116.921,17.928l5.922-11.64h1.145l5.969,11.64h-1.949l-1.512-2.959h-6.146l-1.503,2.959H116.921L116.921,17.928z M133.507,12.513
		v5.415h-1.815V6.288h1.815v4.522h8.179V6.288h1.814v11.64h-1.814v-5.415H133.507L133.507,12.513z"/>
	<polygon class="st0" points="50.225,17.928 48.29,17.928 54.133,6.288 55.073,6.288 60.907,17.928 58.907,17.928 54.598,9.219 
		50.225,17.928 	"/>
</g>
</svg>
