<?xml version="1.0" encoding="utf-8"?>
<!-- Generator: Adobe Illustrator 18.1.1, SVG Export Plug-In . SVG Version: 6.00 Build 0)  -->
<svg version="1.1" id="Слой_1" xmlns="http://www.w3.org/2000/svg" xmlns:xlink="http://www.w3.org/1999/xlink" x="0px" y="0px"
	 viewBox="0 0 273.252 214.566" style="enable-background:new 0 0 273.252 214.566;" xml:space="preserve">
<style type="text/css">
	.st0{fill:#EFEBE9;}
</style>
<g>
	<path class="st0" d="M3.362,192.865c23.229-11.204,41.311-24.194,54.253-38.971c12.938-14.771,20.426-32.857,22.465-54.253H62.964
		c-12.432,0-22.671-1.476-30.718-4.432c-8.052-2.951-14.471-6.824-19.256-11.615C8.2,78.81,4.838,73.408,2.904,67.396
		C0.965,61.388,0,55.223,0,48.904c0-6.52,1.423-12.732,4.279-18.646c2.851-5.907,6.724-11.104,11.615-15.588
		c4.891-4.479,10.545-8.047,16.963-10.697C39.276,1.327,45.948,0,52.878,0c22.618,0,39.887,7.388,51.808,22.159
		c11.92,14.776,17.881,35.408,17.881,61.895c0,12.226-2.856,24.71-8.559,37.442c-5.707,12.737-13.348,24.963-22.924,36.678
		c-9.58,11.72-20.784,22.466-33.622,32.246c-12.837,9.781-26.391,17.833-40.651,24.146L3.362,192.865z M154.048,192.865
		c23.229-11.204,41.311-24.194,54.253-38.971c12.938-14.771,20.426-32.857,22.465-54.253H213.65c-12.431,0-22.67-1.476-30.718-4.432
		c-8.052-2.951-14.471-6.824-19.256-11.615c-4.79-4.785-8.152-10.187-10.086-16.199c-1.939-6.008-2.904-12.173-2.904-18.491
		c0-6.52,1.423-12.732,4.279-18.646c2.851-5.907,6.724-11.104,11.615-15.588c4.89-4.479,10.545-8.047,16.963-10.697
		C189.962,1.327,196.634,0,203.563,0c22.618,0,39.888,7.388,51.808,22.159c11.92,14.776,17.88,35.408,17.88,61.895
		c0,12.226-2.856,24.71-8.558,37.442c-5.707,12.737-13.348,24.963-22.924,36.678c-9.58,11.72-20.784,22.466-33.622,32.246
		c-12.837,9.781-26.391,17.833-40.651,24.146L154.048,192.865z"/>
</g>
</svg>
