<?xml version="1.0" encoding="utf-8"?>
<!-- Generator: Adobe Illustrator 18.1.1, SVG Export Plug-In . SVG Version: 6.00 Build 0)  -->
<svg version="1.1" id="Слой_1" xmlns="http://www.w3.org/2000/svg" xmlns:xlink="http://www.w3.org/1999/xlink" x="0px" y="0px"
	 viewBox="0 0 100 100" enable-background="new 0 0 100 100" xml:space="preserve">
<title>Yoco-Icons Copy</title>
<desc>Created with Sketch.</desc>
<g>
	<g transform="translate(-69.000000, -228.000000)">
		<g transform="translate(69.000000, 230.000000)">
			<path fill="#FFFFFF" d="M0,14.7c0-3.1,2.5-5.6,5.5-5.6h89c3,0,5.5,2.5,5.5,5.6c0,3.1-2.5,5.6-5.5,5.6h-89C2.5,20.2,0,17.8,0,14.7
				z M0,48c0-3.1,2.5-5.6,5.5-5.6h89c3,0,5.5,2.5,5.5,5.6c0,3.1-2.5,5.6-5.5,5.6h-89C2.5,53.6,0,51.1,0,48z M0,81.3
				c0-3.1,2.5-5.6,5.5-5.6h89c3,0,5.5,2.5,5.5,5.6c0,3.1-2.5,5.6-5.5,5.6h-89C2.5,86.9,0,84.4,0,81.3z"/>
		</g>
	</g>
</g>
</svg>
