<?xml version="1.0" encoding="utf-8"?>
<!-- Generator: Adobe Illustrator 18.1.1, SVG Export Plug-In . SVG Version: 6.00 Build 0)  -->
<svg version="1.1" id="Слой_1" xmlns="http://www.w3.org/2000/svg" xmlns:xlink="http://www.w3.org/1999/xlink" x="0px" y="0px"
	 viewBox="-231.399 -2.269 144.162 40.741" enable-background="new -231.399 -2.269 144.162 40.741" xml:space="preserve">
<g>
	<path fill="#FFFFFF" d="M-225.38,32.546c2.685,2.685,7.685,1.944,11.296-1.574c1.852-1.852,2.87-4.074,3.148-6.111
		c0.278,2.13,1.296,4.352,3.148,6.111c3.519,3.519,8.611,4.259,11.296,1.574c2.685-2.685,1.944-7.685-1.574-11.296
		c-1.852-1.852-4.074-2.87-6.111-3.148c2.13-0.278,4.352-1.296,6.111-3.148c3.519-3.519,4.259-8.611,1.574-11.296
		s-7.685-1.944-11.296,1.574c-1.852,1.852-2.87,4.074-3.148,6.111c-0.278-2.13-1.296-4.352-3.148-6.111
		c-3.519-3.519-8.611-4.259-11.296-1.574c-2.685,2.685-1.944,7.685,1.574,11.296c1.852,1.852,4.074,2.87,6.111,3.148
		c-2.13,0.278-4.352,1.296-6.111,3.148C-227.417,24.769-228.065,29.861-225.38,32.546L-225.38,32.546z M-211.028,13.102
		c0,0.093,0,0.093,0,0.185C-211.028,13.194-211.028,13.102-211.028,13.102c0.278-1.944,1.389-4.074,3.241-5.926
		c3.241-3.333,7.685-4.259,9.815-2.037c2.13,2.13,1.204,6.574-2.037,9.815c-1.852,1.852-3.981,2.963-5.926,3.148
		c-0.093,0-0.093,0-0.185,0c0.093,0,0.093,0,0.185,0c1.944,0.278,4.074,1.296,5.926,3.148c3.241,3.241,4.167,7.685,2.037,9.815
		c-2.13,2.13-6.574,1.204-9.815-2.037c-1.852-1.852-2.963-3.981-3.148-5.926c0-0.093,0-0.093,0-0.185c0,0.093,0,0.093,0,0.185
		c-0.278,1.944-1.296,4.074-3.148,5.926c-3.241,3.241-7.685,4.167-9.815,2.037c-2.13-2.13-1.204-6.574,2.037-9.815
		c1.852-1.852,3.981-2.963,5.926-3.148c0.093,0,0.093,0,0.185,0c-0.093,0-0.093,0-0.185,0c-1.944-0.278-4.074-1.296-5.926-3.148
		c-3.426-3.333-4.259-7.685-2.13-9.815c2.13-2.13,6.574-1.204,9.815,2.037C-212.324,8.935-211.306,11.157-211.028,13.102
		L-211.028,13.102z"/>
	<path fill="#FFFFFF" d="M-211.028,38.472c3.796,0,6.852-4.074,6.852-9.074c0-2.593-0.833-4.907-2.13-6.574
		c1.667,1.296,3.981,2.13,6.574,2.13c5,0,9.074-3.056,9.074-6.852s-4.074-6.852-9.074-6.852c-2.593,0-4.907,0.833-6.574,2.13
		c1.296-1.667,2.13-3.981,2.13-6.574c0-5-3.056-9.074-6.852-9.074s-6.852,4.074-6.852,9.074c0,2.593,0.833,4.907,2.13,6.574
		c-1.667-1.296-3.981-2.13-6.574-2.13c-5,0-9.074,3.056-9.074,6.852s4.074,6.852,9.074,6.852c2.593,0,4.907-0.833,6.574-2.13
		c-1.296,1.667-2.13,3.981-2.13,6.574C-217.88,34.398-214.824,38.472-211.028,38.472L-211.028,38.472z M-214.547,14.583l0.093,0.093
		C-214.454,14.583-214.547,14.583-214.547,14.583c-1.204-1.574-1.944-3.889-1.944-6.481c0-4.63,2.5-8.426,5.463-8.426
		c3.056,0,5.463,3.796,5.463,8.426c0,2.593-0.741,4.907-1.944,6.389l-0.093,0.093l0.093-0.093c1.574-1.204,3.889-1.944,6.389-1.944
		c4.63,0,8.426,2.5,8.426,5.463c0,3.056-3.796,5.463-8.426,5.463c-2.593,0-4.907-0.741-6.389-1.944l-0.093-0.093l0.093,0.093
		c1.204,1.574,1.944,3.889,1.944,6.389c0,4.63-2.5,8.426-5.463,8.426c-3.056,0-5.463-3.796-5.463-8.426
		c0-2.593,0.741-4.907,1.944-6.389l0.093-0.093l-0.093,0.093c-1.574,1.204-3.889,1.944-6.389,1.944c-4.63,0-8.426-2.5-8.426-5.463
		c0-3.056,3.796-5.463,8.426-5.463C-218.436,12.639-216.121,13.38-214.547,14.583L-214.547,14.583z"/>
	<path fill="#FFFFFF" d="M-211.028,15.88c1.204,0,2.222,1.019,2.222,2.222s-1.019,2.222-2.222,2.222
		c-1.204,0-2.222-1.019-2.222-2.222S-212.232,15.88-211.028,15.88L-211.028,15.88z"/>
	<path fill="#FFFFFF" d="M-186.866,20.597v-0.185c0.093-0.093,0.278-0.093,0.463-0.093c0.185,0,0.37-0.093,0.463-0.093
		s0.185-0.093,0.185-0.185c0-0.185,0.093-0.556,0.093-1.019v-5.093v-0.833c0-0.185,0-0.278-0.093-0.37
		c-0.093-0.093-0.278-0.093-0.556-0.185c-0.278-0.093-0.463-0.093-0.556-0.093c0-0.093,0-0.093,0-0.185v-0.093
		c0.093,0,0.093-0.093,0.185-0.093s0.185,0,0.37,0h0.185c0.093,0,0.278,0,0.556,0h0.926h1.852l2.037-0.093h0.185h0.278
		c0.093,0,0.185,0,0.185,0.093s0,0.093,0.093,0.185v0.278l0.093,1.204c0,0.093,0,0.093,0,0.185c-0.093,0-0.093,0-0.185,0h-0.093
		c0-0.093-0.093-0.093-0.093-0.278c0-0.185-0.093-0.463-0.185-0.741c-0.093-0.185-0.185-0.278-0.278-0.278
		c-0.278-0.093-0.741-0.185-1.296-0.185c-0.278,0-0.556,0-0.833,0c-0.278,0-0.37,0-0.463,0h-0.556c-0.185,0-0.37,0-0.556,0.093
		c-0.093,0-0.093,0.093-0.093,0.278v0.093c0,0.185,0,0.463,0,0.741v1.759c0,0.185,0,0.37,0,0.463h0.185h0.37h1.204
		c0.463,0,0.833,0,1.019-0.093c0.093-0.093,0.185-0.093,0.278-0.185c0,0,0.093-0.185,0.185-0.556l0.093-0.556
		c0.093,0,0.093,0,0.093,0h0.093c0,0.093,0,0.278,0,0.463l0.093,2.407c-0.093,0-0.093,0-0.185,0h-0.093
		c-0.093-0.463-0.185-0.741-0.37-1.019c-0.093-0.093-0.093-0.093-0.185-0.185c-0.093,0-0.648,0-1.574,0c-0.278,0-0.463,0-0.556,0
		c-0.278,0-0.463,0-0.463,0h0.093c-0.093,0-0.185,0-0.278,0.093c0,0.093,0,0.093,0,0.093v0.463c0,0.093,0,0.278,0,0.648v2.13
		c0,0.093,0,0.093,0.093,0.185c0.093,0.093,0.278,0.093,0.463,0.185c0.278,0,0.463,0.093,0.648,0.185
		c0.093,0.185,0.185,0.278,0.185,0.37v0.093c0,0-0.093,0-0.093,0.093c-0.37-0.093-0.833-0.093-1.481-0.093
		c-0.37,0-0.648,0-1.111,0.093c-0.278,0-0.556,0.093-0.926,0.093L-186.866,20.597L-186.866,20.597z M-179.644,20.505
		c0-0.093,0-0.093,0.093-0.185c0.37-0.093,0.648-0.185,1.019-0.185c0.185,0,0.37-0.093,0.37-0.185c0-0.093,0.093-0.278,0.093-0.648
		v-1.759v-1.204v-1.574v-0.37c0-0.926,0-1.481,0-1.759c0,0,0-0.093-0.093-0.185c-0.093-0.093-0.185-0.093-0.278-0.093
		s-0.463-0.093-1.019-0.185c0-0.093,0-0.093,0-0.093v-0.093c0.093,0,0.185,0,0.37,0h1.019h0.556h0.185c0,0,0.093,0,0.185,0
		c0.278,0,0.37,0,0.463,0h0.556c0.37,0,0.648,0,0.741,0c0,0.093,0,0.185-0.093,0.278c-0.093,0-0.278,0-0.648,0
		c-0.37,0-0.648,0-0.741,0.093c-0.093,0.093-0.185,0.278-0.185,0.556c0,0.093,0,0.185,0,0.463v0.37v1.204v0.37v2.13v1.852v0.37
		c0,0.093,0,0.185,0.093,0.278c0.093,0,0.463,0,0.926,0h0.463h1.111c0.278,0,0.556,0,0.648-0.093
		c0.093-0.093,0.37-0.185,0.648-0.463c0.185-0.185,0.278-0.278,0.463-0.463c0,0,0.093-0.093,0.093-0.185
		c0.093-0.093,0.185-0.37,0.37-0.648h0.185c0,0.185-0.093,0.278-0.093,0.463c-0.093,0.648-0.185,1.111-0.278,1.574
		c0,0.093,0,0.185,0,0.278l-2.407,0.093c-2.13,0-3.333,0-3.704,0c-0.093,0-0.278,0-0.37,0H-179.644L-179.644,20.505z
		 M-171.403,16.338c0-0.463,0.093-0.833,0.185-1.204c0.093-0.37,0.278-0.741,0.556-1.111c0.278-0.37,0.556-0.741,0.926-1.019
		c0.37-0.278,0.833-0.556,1.481-0.741c0.463-0.185,1.019-0.185,1.667-0.185c0.463,0,0.926,0.093,1.389,0.185
		c0.463,0.093,0.833,0.278,1.204,0.556c0.37,0.185,0.741,0.556,1.111,1.019c0.278,0.278,0.463,0.648,0.556,1.019
		c0.185,0.463,0.278,0.926,0.278,1.481c0,0.556-0.093,1.019-0.185,1.481c-0.093,0.37-0.278,0.741-0.556,1.111
		c-0.185,0.278-0.556,0.648-1.019,1.019c-0.37,0.278-0.741,0.463-1.204,0.648c-0.463,0.185-1.019,0.278-1.574,0.278
		s-1.111-0.093-1.574-0.185c-0.463-0.093-0.833-0.278-1.111-0.463c-0.278-0.185-0.648-0.463-0.926-0.833
		c-0.278-0.37-0.556-0.833-0.741-1.296C-171.311,17.356-171.403,16.894-171.403,16.338L-171.403,16.338z M-166.866,20.412
		c0.37,0,0.741-0.093,1.111-0.185c0.37-0.093,0.741-0.278,1.019-0.556c0.278-0.278,0.556-0.463,0.741-0.833
		c0.185-0.278,0.278-0.648,0.37-1.204c0.093-0.463,0.185-0.926,0.185-1.389c0-0.556-0.093-1.204-0.278-1.759
		c-0.093-0.463-0.37-0.833-0.648-1.204c-0.278-0.37-0.648-0.648-1.111-0.833c-0.463-0.185-0.926-0.278-1.389-0.278
		c-0.37,0-0.833,0.093-1.204,0.185c-0.37,0.093-0.648,0.278-0.926,0.463c-0.278,0.185-0.463,0.463-0.648,0.833
		s-0.37,0.833-0.463,1.204c-0.093,0.648-0.093,1.111-0.093,1.389c0,0.37,0.093,0.741,0.185,1.204
		c0.093,0.463,0.278,0.833,0.463,1.204c0.185,0.37,0.463,0.648,0.741,0.926c0.278,0.278,0.556,0.463,0.926,0.556
		C-167.607,20.319-167.237,20.412-166.866,20.412L-166.866,20.412z M-161.125,20.319c0.648-0.093,1.019-0.093,1.111-0.185
		c0.093,0,0.093-0.093,0.185-0.185v-0.093c0-0.093,0-0.463,0.093-1.204c0-0.185,0-0.37,0-0.556v-0.741v-0.926v-1.667V13.56
		c0-0.463,0-0.833-0.093-0.926s-0.278-0.185-0.648-0.278c-0.37-0.093-0.556-0.093-0.556-0.093l-0.093-0.093v-0.093
		c0,0,0.185-0.093,0.278-0.093c0,0,0.093,0,0.185,0c0.093,0,0.185,0,0.278,0h0.556h1.759c1.019,0,1.667,0.093,2.037,0.185
		c0.37,0.185,0.741,0.37,0.926,0.741c0.185,0.37,0.37,0.741,0.37,1.111c0,0.833-0.463,1.389-1.296,1.852
		c-0.185,0.093-0.278,0.185-0.37,0.185c0.185,0.278,0.37,0.648,0.648,1.111l0.833,1.389c0.37,0.556,0.556,0.833,0.648,1.019
		c0.093,0.093,0.278,0.278,0.463,0.37c0.185,0.093,0.463,0.185,0.926,0.278v0.093v0.093c-0.556,0-1.296,0-2.13,0
		c-0.093,0-0.093,0-0.278,0c-0.278-0.556-0.648-1.204-1.111-1.944l-0.926-1.759c-0.093-0.185-0.278-0.278-0.37-0.37
		c-0.093-0.093-0.185-0.093-0.37-0.093h-0.556h-0.185c0,0.185,0,0.463,0,0.833v2.222c0,0.093,0,0.185,0.093,0.37
		c0,0.093,0.093,0.185,0.185,0.185c0.093,0.093,0.37,0.093,0.741,0.185l0.278,0.093c0,0,0.093,0.093,0.093,0.185
		c-0.093,0-0.185,0-0.278,0c-0.37,0-0.648,0-0.833,0c-0.093,0-0.185,0-0.185,0h-0.926h-0.833c0,0-0.278,0-0.556,0L-161.125,20.319
		v-0.093C-161.218,20.412-161.218,20.319-161.125,20.319L-161.125,20.319z M-158.718,16.06c0.093,0,0.185,0,0.278,0
		c0.278,0,0.648,0,1.111-0.093c0.278-0.093,0.556-0.185,0.741-0.278s0.37-0.278,0.463-0.556c0.093-0.278,0.185-0.556,0.185-0.741
		c0-0.278-0.093-0.648-0.278-0.926c-0.185-0.278-0.37-0.463-0.741-0.648c-0.37-0.185-0.741-0.278-1.204-0.278
		c-0.093,0-0.278,0-0.463,0c0,0.185,0,0.37,0,0.556v1.204v0.463C-158.811,15.042-158.718,15.505-158.718,16.06L-158.718,16.06z
		 M-153.255,20.319c0.093,0,0.093-0.093,0.185-0.093h0.185c0,0,0.093,0,0.185,0c0.37,0,0.556-0.093,0.556-0.093
		c0.185-0.093,0.278-0.185,0.37-0.463c0.185-0.463,0.463-1.111,0.741-1.852c0.093-0.37,0.185-0.648,0.278-0.741
		c0.093-0.278,0.185-0.556,0.278-0.833l0.648-1.759c0.093-0.278,0.37-0.926,0.648-1.852c0.093-0.278,0.185-0.556,0.37-1.019h0.185
		h0.185c0.185,0.37,0.37,0.741,0.463,1.204c0.093,0.185,0.185,0.556,0.37,1.019l1.019,2.685l0.556,1.481
		c0.278,0.833,0.463,1.389,0.556,1.574c0.093,0.185,0.185,0.278,0.278,0.37c0,0,0.093,0,0.278,0.093
		c0.185,0,0.278,0.093,0.278,0.093c0.185,0.093,0.37,0.093,0.463,0.093c0,0.093,0,0.093,0,0.093v0.093c-0.093,0-0.278,0-0.278,0
		c-0.185,0-0.648,0-1.204,0h-0.648h-0.833c-0.093,0-0.093,0-0.185,0s-0.093,0-0.185,0h-0.185c-0.093,0-0.093,0-0.093,0
		c0-0.093,0-0.093,0-0.185c0.093,0,0.093,0,0.185-0.093l0.648-0.093c0.185,0,0.278,0,0.37-0.093c0-0.093,0-0.093,0-0.185
		c0-0.093-0.093-0.278-0.185-0.648c-0.093-0.185-0.185-0.463-0.185-0.648c-0.093-0.185-0.278-0.833-0.741-1.944
		c-0.185,0-0.37-0.093-0.463-0.093h-1.389h-0.37c-0.185,0-0.278,0-0.463,0c-0.093,0.093-0.093,0.185-0.093,0.278l-0.556,1.852
		c-0.278,0.648-0.37,1.111-0.37,1.111s0,0.093,0.093,0.185c0.093,0,0.185,0.093,0.37,0.093l0.926,0.093
		c0.093,0,0.093,0.093,0.093,0.093v0.093c-0.185,0-0.37,0-0.463,0c-0.37,0-0.741,0-1.204-0.093c-0.185,0-0.37,0-0.463,0
		s-0.278,0-0.463,0c-0.185,0-0.278,0-0.278,0c-0.093,0-0.278,0-0.37,0l0,0C-153.255,20.412-153.255,20.319-153.255,20.319
		L-153.255,20.319z M-150.107,16.338c0.463,0,1.019,0,1.574,0c0.37,0,0.648,0,0.926,0c0-0.185-0.093-0.37-0.185-0.463
		c-0.278-0.741-0.463-1.204-0.463-1.204l-0.556-1.481l-0.093-0.185c0,0.093-0.093,0.278-0.278,0.648
		c-0.278,0.648-0.463,1.204-0.556,1.574c-0.093,0.185-0.093,0.37-0.185,0.463c-0.093,0.185-0.093,0.278-0.093,0.37
		C-150.107,16.245-150.107,16.245-150.107,16.338L-150.107,16.338L-150.107,16.338z M-135.477,12.449
		c0,0.278,0.093,0.463,0.093,0.463v0.556c0,0.278,0,0.37,0,0.463h-0.093h-0.093c-0.093-0.648-0.37-1.111-0.741-1.389
		c-0.37-0.278-0.741-0.463-1.204-0.463c-0.463,0-0.926,0.185-1.204,0.463c-0.278,0.278-0.463,0.648-0.463,1.019
		c0,0.278,0.093,0.556,0.37,0.741c0.185,0.278,0.833,0.556,1.667,1.111c0.741,0.37,1.204,0.648,1.481,0.926
		c0.278,0.185,0.556,0.463,0.648,0.833c0.185,0.278,0.185,0.648,0.185,1.019c0,0.463-0.093,0.926-0.37,1.296
		c-0.278,0.37-0.556,0.741-1.019,0.926c-0.37,0.185-0.926,0.278-1.667,0.278c-0.556,0-1.111-0.093-1.667-0.278
		c-0.278-0.093-0.556-0.185-0.556-0.278c-0.093-0.093-0.093-0.185-0.093-0.185c0-0.093,0-0.093,0-0.185
		c0.093-0.556,0.093-0.926,0.093-1.296c0-0.185,0-0.37,0-0.37l0.093-0.093h0.093c0,0,0,0.093,0.093,0.185
		c0.093,0.556,0.278,1.019,0.741,1.481s0.926,0.648,1.481,0.648c0.37,0,0.648-0.093,0.926-0.185c0.278-0.185,0.556-0.37,0.648-0.648
		c0.185-0.278,0.278-0.556,0.278-0.833c0-0.37-0.093-0.648-0.37-0.926c-0.278-0.278-0.741-0.648-1.481-1.019
		c-0.741-0.37-1.204-0.648-1.481-0.833c-0.37-0.278-0.648-0.648-0.833-0.926c-0.093-0.278-0.185-0.556-0.185-0.926
		c0-0.648,0.278-1.111,0.741-1.574c0.463-0.463,1.111-0.648,1.944-0.648c0.463,0,0.833,0.093,1.111,0.185
		C-136.033,12.079-135.755,12.264-135.477,12.449L-135.477,12.449z M-133.996,20.412l0.093-0.093c0.093,0,0.185,0,0.37-0.093
		c0.463,0,0.648-0.093,0.833-0.093c0.093-0.093,0.093-0.185,0.093-0.37v-0.463v-1.667v-0.741v-1.667v-1.852
		c0-0.463,0-0.741-0.093-0.741c-0.093-0.093-0.278-0.093-0.741-0.185c-0.185,0-0.278,0-0.463,0c-0.093,0-0.093-0.093-0.093-0.093
		v-0.093h0.093c0.093,0,0.093,0,0.185,0c0.278,0,0.556,0,0.833,0h0.463h1.111c0.556,0,1.019,0,1.389,0s0.556,0,0.648,0
		s0.37,0,0.741,0.093h0.926h0.093h0.556h0.093c0,0,0,0.093,0.093,0.093c0,0.093,0,0.185,0,0.278c0,0.093,0,0.185,0,0.278
		c0,0.463,0,0.833,0,1.111c0,0,0,0,0,0.093c-0.093,0-0.093,0-0.093,0c-0.093-0.093-0.093-0.185-0.185-0.463
		c-0.093-0.185-0.185-0.463-0.37-0.741c-0.093-0.185-0.185-0.278-0.278-0.37c-0.093,0-0.185-0.093-0.37-0.093c0,0-0.278,0-0.556,0
		c-0.093,0-0.185,0-0.278,0h-1.852h-0.185c-0.278,0-0.37,0-0.463,0.093s-0.093,0.37-0.093,0.926c0,0.093,0,0.556,0,1.574v0.926
		c0.093,0,0.093,0,0.185,0h0.093c0.093,0,0.185,0,0.278,0c0.185,0,0.37,0,0.463,0s0.093,0,0.093,0c0.463,0,1.111,0,1.759,0
		c0.185,0,0.37-0.093,0.37-0.093c0.093-0.093,0.093-0.278,0.185-0.648c0-0.37,0.093-0.556,0.185-0.556c0.093,0,0.093,0,0.185,0
		v0.093c0,0,0,0.093,0,0.185c0,0.185,0,0.648,0,1.481c0,0.185,0,0.463,0,0.741c0,0.278,0,0.463,0,0.463s0,0.093,0,0.185h-0.093l0,0
		c-0.093-0.093-0.093-0.278-0.185-0.556c-0.093-0.463-0.278-0.741-0.37-0.833c-0.093-0.093-0.37-0.185-0.648-0.185
		c-0.093,0-0.185,0-0.37,0c-0.185,0-0.37,0-0.741,0h-0.463c-0.648,0-1.019,0-1.204,0v0.185v1.204v0.741v0.741
		c0,0.463,0,0.741,0.093,0.741c0.093,0.093,0.278,0.185,0.463,0.185h0.37c0,0,0.185,0,0.37,0c0.278,0,0.556,0,0.926,0
		c0.833,0,1.389,0,1.667-0.093c0.278-0.093,0.556-0.185,0.648-0.37c0.185-0.185,0.37-0.556,0.648-1.204
		c0.093-0.185,0.185-0.278,0.278-0.278c0,0,0.093,0,0.093,0.093c-0.093,0.463-0.185,0.741-0.185,0.833
		c-0.093,0.278-0.093,0.648-0.093,0.926c0,0.185,0,0.278-0.093,0.37h-0.185h-1.852h-0.833h-1.944h-0.833c-0.093,0-0.185,0-0.278,0
		c-0.833,0-1.389,0.093-1.759,0.093c-0.093,0-0.093,0-0.093,0C-133.996,20.505-133.996,20.505-133.996,20.412L-133.996,20.412
		L-133.996,20.412z M-125.107,20.319c0.648-0.093,1.019-0.093,1.111-0.185c0.093,0,0.093-0.093,0.185-0.185v-0.093
		c0-0.093,0-0.463,0.093-1.204c0-0.185,0-0.37,0-0.556v-0.741v-0.926v-1.667V13.56c0-0.463,0-0.833-0.093-0.926
		s-0.278-0.185-0.648-0.278c-0.37-0.093-0.556-0.093-0.556-0.093l-0.093-0.093v-0.093c0,0,0.185-0.093,0.278-0.093
		c0,0,0.093,0,0.185,0s0.185,0,0.278,0h0.556h1.759c1.019,0,1.667,0.093,2.037,0.185c0.37,0.185,0.741,0.37,0.926,0.741
		c0.185,0.37,0.37,0.741,0.37,1.111c0,0.833-0.463,1.389-1.296,1.852c-0.185,0.093-0.278,0.185-0.37,0.185
		c0.185,0.278,0.37,0.648,0.648,1.111l0.833,1.389c0.37,0.556,0.556,0.833,0.648,1.019c0.093,0.093,0.278,0.278,0.463,0.37
		c0.185,0.093,0.463,0.185,0.926,0.278v0.093v0.093c-0.556,0-1.296,0-2.13,0c-0.093,0-0.093,0-0.278,0
		c-0.278-0.556-0.648-1.204-1.111-1.944l-0.926-1.759c-0.093-0.185-0.278-0.278-0.37-0.37c-0.093-0.093-0.185-0.093-0.37-0.093
		h-0.556h-0.185c0,0.185,0,0.463,0,0.833v2.222c0,0.093,0,0.185,0.093,0.37c0,0.093,0.093,0.185,0.185,0.185
		c0.093,0.093,0.37,0.093,0.741,0.185l0.278,0.093c0,0,0.093,0.093,0.093,0.185c-0.093,0-0.185,0-0.278,0c-0.37,0-0.648,0-0.833,0
		c-0.093,0-0.185,0-0.185,0h-0.926h-0.833c0,0-0.278,0-0.556,0L-125.107,20.319l0-0.093
		C-125.199,20.412-125.199,20.319-125.107,20.319L-125.107,20.319z M-122.699,16.06c0.093,0,0.185,0,0.278,0
		c0.278,0,0.648,0,1.111-0.093c0.278-0.093,0.556-0.185,0.741-0.278c0.185-0.093,0.37-0.278,0.463-0.556
		c0.093-0.278,0.185-0.556,0.185-0.741c0-0.278-0.093-0.648-0.278-0.926c-0.185-0.278-0.37-0.463-0.741-0.648
		c-0.37-0.185-0.741-0.278-1.204-0.278c-0.093,0-0.278,0-0.463,0c0,0.185,0,0.37,0,0.556v1.204v0.463
		C-122.699,15.042-122.699,15.505-122.699,16.06L-122.699,16.06z M-117.792,12.171l0.093-0.093c0.37,0,0.741,0,1.019,0h0.185
		c0.093,0,0.093,0,0.185,0c0.278,0,0.833,0,1.574,0c0.185,0,0.278,0,0.463,0c0.093,0,0.278,0,0.37,0c0,0,0,0,0.093,0.093v0.093
		c0,0.093-0.093,0.093-0.185,0.093h-0.093c-0.093,0-0.278,0-0.648,0c-0.278,0-0.463,0.093-0.556,0.093
		c-0.093,0.093-0.093,0.093-0.093,0.185c0,0.185,0.093,0.463,0.185,0.741l1.019,2.315l0.37,0.741c0.37,0.833,0.648,1.667,1.019,2.5
		c0,0.093,0.093,0.185,0.093,0.278l0.463-1.111c0.185-0.556,0.463-1.111,0.648-1.759l0.463-1.204c0,0,0-0.093,0.093-0.278
		c0.463-1.111,0.648-1.852,0.648-2.222c0-0.093,0-0.093-0.093-0.185c-0.093-0.093-0.185-0.093-0.278-0.185
		c-0.093,0-0.185,0-0.556-0.093l-0.463-0.093c0-0.093-0.093-0.093-0.093-0.093v-0.093h2.13h0.741c0.278,0,0.37,0,0.463,0v0.093
		v0.093c-0.093,0-0.185,0.093-0.278,0.093c-0.37,0.093-0.556,0.093-0.648,0.185c-0.093,0.093-0.185,0.185-0.278,0.37l-1.667,4.259
		c-0.556,1.296-0.926,2.222-1.111,2.963l-0.278,0.741c-0.093,0-0.093,0.093-0.185,0.093s-0.093,0-0.185,0
		c-0.556-1.296-0.926-2.407-1.296-3.148l-2.037-4.537c-0.185-0.278-0.278-0.463-0.37-0.463c-0.093-0.093-0.278-0.093-0.741-0.278
		c-0.185,0-0.278-0.093-0.278-0.093C-117.792,12.264-117.792,12.264-117.792,12.171L-117.792,12.171z M-108.348,20.319
		c0.093,0,0.185-0.093,0.278-0.093c0.648,0,1.019-0.093,1.111-0.278c0.093-0.093,0.185-0.648,0.185-1.667v-0.648v-0.741V16.06
		v-0.463v-0.556v-0.648v-0.278v-0.37c0-0.093,0-0.185,0-0.278c0-0.278,0-0.556,0-0.833c0-0.093,0-0.093-0.093-0.185
		c-0.185-0.093-0.463-0.185-0.741-0.185c-0.37,0-0.556-0.093-0.648-0.093c0,0-0.093-0.093-0.093-0.185h0.556l1.759,0.093
		c0.463,0,1.019,0,1.759-0.093c0,0.093,0,0.093,0,0.185c-0.093,0.185-0.185,0.185-0.37,0.185c-0.463,0.093-0.648,0.093-0.741,0.093
		c-0.093,0-0.093,0.093-0.093,0.093c0,0.093-0.093,0.185-0.093,0.463v0.833v2.963v1.111c0,0.37,0,0.648,0,0.741
		c0,0.463,0,0.833,0,0.926c0,0.093,0.093,0.278,0.093,0.278c0.093,0.093,0.185,0.093,0.278,0.185
		c0.185,0.093,0.37,0.093,0.463,0.093c0.278,0,0.37,0,0.463,0.093c0,0.093,0,0.093,0,0.185v0.093c-0.37,0-0.741,0-0.926,0
		c-0.093,0-0.278,0-0.556,0h-0.926h-1.574h-0.093L-108.348,20.319L-108.348,20.319z M-96.125,12.542
		c0.093,0.37,0.093,0.648,0.093,1.019c0,0.093,0,0.185,0,0.278c-0.093,0-0.093,0-0.093,0h-0.093
		c-0.185-0.463-0.463-0.926-0.926-1.204c-0.37-0.278-0.926-0.37-1.574-0.37c-0.278,0-0.556,0-0.833,0.093
		c-0.37,0.093-0.741,0.278-1.019,0.556c-0.278,0.278-0.556,0.556-0.741,0.833c-0.185,0.37-0.37,0.741-0.463,1.204
		c-0.093,0.463-0.185,0.926-0.185,1.481c0,0.926,0.185,1.667,0.463,2.315c0.278,0.648,0.648,1.019,1.204,1.296
		c0.463,0.278,1.019,0.37,1.481,0.37h0.278c0.37,0,0.556-0.093,0.741-0.093c0.278-0.093,0.556-0.185,0.833-0.278
		c0.185-0.093,0.37-0.278,0.648-0.556c0.185-0.185,0.37-0.463,0.463-0.833h0.093h0.093c0,0.093,0,0.185,0,0.185
		c-0.185,0.741-0.278,1.204-0.37,1.481c-0.093,0-0.185,0-0.278,0.093c-0.556,0.185-1.204,0.278-2.037,0.278
		c-0.648,0-1.204-0.093-1.574-0.185c-0.37-0.093-0.741-0.278-1.111-0.463c-0.37-0.185-0.741-0.463-1.019-0.741
		c-0.278-0.37-0.556-0.741-0.741-1.204c-0.185-0.463-0.278-1.019-0.278-1.667c0-0.556,0.093-1.019,0.185-1.481
		c0.185-0.37,0.37-0.833,0.648-1.296c0.278-0.463,0.648-0.741,1.111-1.019c0.463-0.278,0.926-0.463,1.389-0.556
		c0.37-0.093,0.833-0.093,1.574-0.093c0.463,0,0.926,0.093,1.389,0.185C-96.496,12.264-96.218,12.356-96.125,12.542L-96.125,12.542z
		"/>
	<path fill="#FFFFFF" d="M-95.014,20.412l0.093-0.093c0.093,0,0.185,0,0.37-0.093c0.463,0,0.648-0.093,0.833-0.093
		c0.093-0.093,0.093-0.185,0.093-0.37v-0.463v-1.667v-0.741v-1.667v-1.852c0-0.463,0-0.741-0.093-0.741
		c-0.093-0.093-0.278-0.093-0.741-0.185c-0.185,0-0.278,0-0.463,0c-0.093,0-0.093-0.093-0.093-0.093v-0.093h0.093
		c0.093,0,0.093,0,0.185,0c0.278,0,0.556,0,0.833,0h0.463h1.111c0.556,0,1.019,0,1.389,0c0.37,0,0.556,0,0.648,0
		c0.093,0,0.37,0,0.741,0.093h0.926h0.093h0.556h0.093c0,0,0,0.093,0.093,0.093c0,0.093,0,0.185,0,0.278c0,0.093,0,0.185,0,0.278
		c0,0.463,0,0.833,0,1.111c0,0,0,0,0,0.093h-0.093c-0.093-0.093-0.093-0.185-0.185-0.463c-0.093-0.185-0.185-0.463-0.37-0.741
		c-0.093-0.185-0.185-0.278-0.278-0.37c-0.093,0-0.185-0.093-0.37-0.093c0,0-0.278,0-0.556,0c-0.093,0-0.185,0-0.278,0h-1.852
		h-0.185c-0.278,0-0.37,0-0.463,0.093s-0.093,0.37-0.093,0.926c0,0.093,0,0.556,0,1.574v0.926c0,0,0.093,0,0.185,0h0.093
		c0.093,0,0.185,0,0.278,0c0.185,0,0.37,0,0.463,0s0.093,0,0.093,0c0.463,0,1.111,0,1.759,0c0.185,0,0.37-0.093,0.37-0.093
		c0.093-0.093,0.093-0.278,0.185-0.648c0-0.37,0.093-0.556,0.185-0.556s0.093,0,0.185,0v0.093c0,0,0,0.093,0,0.185
		c0,0.185,0,0.648,0,1.481c0,0.185,0,0.463,0,0.741c0,0.278,0,0.463,0,0.463s0,0.093,0,0.185h-0.093l0,0
		c-0.093-0.093-0.093-0.278-0.185-0.556c-0.093-0.463-0.278-0.741-0.37-0.833c-0.093-0.093-0.37-0.185-0.648-0.185
		c-0.093,0-0.185,0-0.37,0c-0.185,0-0.37,0-0.741,0h-0.463c-0.648,0-1.019,0-1.204,0v0.185v1.204v0.741v0.741
		c0,0.463,0,0.741,0.093,0.741c0.093,0.093,0.278,0.185,0.463,0.185h0.37c0,0,0.185,0,0.37,0c0.278,0,0.556,0,0.926,0
		c0.833,0,1.389,0,1.667-0.093c0.278-0.093,0.556-0.185,0.648-0.37c0.185-0.185,0.37-0.556,0.648-1.204
		c0.093-0.185,0.185-0.278,0.278-0.278c0,0,0.093,0,0.093,0.093c-0.093,0.463-0.185,0.741-0.185,0.833
		c-0.093,0.278-0.093,0.648-0.093,0.926c0,0.185,0,0.278-0.093,0.37h-0.185h-1.852h-0.833h-1.944h-0.833c-0.093,0-0.185,0-0.278,0
		c-0.833,0-1.389,0.093-1.759,0.093c-0.093,0-0.093,0-0.093,0C-95.014,20.505-95.014,20.505-95.014,20.412L-95.014,20.412
		L-95.014,20.412z"/>
	<path fill="#FFFFFF" d="M-147.237,28.838C-147.237,28.745-147.237,28.745-147.237,28.838c0.093,0,0.093-0.093,0.185-0.093
		c0.185,0,0.278,0,0.37-0.093c0,0,0-0.093,0-0.185v-0.185v-0.741v-0.37v-0.741v-0.833c0-0.185,0-0.278,0-0.37
		c0,0-0.093-0.093-0.278-0.093c-0.093,0-0.093,0-0.185,0c0,0,0,0,0-0.093c0,0,0,0,0-0.093l0,0h0.093c0.093,0,0.185,0,0.37,0h0.185
		h0.463c0.278,0,0.463,0,0.556,0c0.185,0,0.278,0,0.278,0s0.185,0,0.278,0h0.37h0.093h0.278l0,0c0,0,0,0,0,0.093v0.093
		c0,0.093,0,0.093,0,0.093c0,0.185,0,0.37,0,0.463l0,0c0,0,0,0-0.093,0c0,0-0.093-0.093-0.093-0.185
		c0-0.093-0.093-0.185-0.185-0.278c-0.093-0.093-0.093-0.093-0.093-0.185c0,0-0.093,0-0.185,0c0,0-0.093,0-0.278,0h-0.093h-0.833
		h-0.093c-0.093,0-0.185,0-0.185,0s-0.093,0.185-0.093,0.37c0,0,0,0.278,0,0.648v0.37c0,0,0,0,0.093,0h0.185c0,0,0.093,0,0.185,0
		s0.185,0,0.185,0s0,0,0.093,0c0.185,0,0.463,0,0.741,0c0.093,0,0.185,0,0.185-0.093c0,0,0.093-0.093,0.093-0.278
		s0-0.185,0.093-0.278h0.093l0,0c0,0,0,0,0,0.093c0,0.093,0,0.278,0,0.648c0,0.093,0,0.185,0,0.37c0,0.093,0,0.185,0,0.185
		s0,0,0,0.093l0,0l0,0c0-0.093-0.093-0.093-0.093-0.278c-0.093-0.185-0.093-0.278-0.185-0.37c-0.093-0.093-0.185-0.093-0.278-0.093
		c0,0-0.093,0-0.185,0s-0.185,0-0.278,0h-0.185c-0.278,0-0.463,0-0.556,0v0.093v0.556v0.37v0.278c0,0.185,0,0.278,0,0.37
		c0,0,0.093,0.093,0.185,0.093h0.185c0,0,0.093,0,0.185,0c0.093,0,0.185,0,0.37,0c0.37,0,0.648,0,0.741-0.093
		c0.093,0,0.185-0.093,0.278-0.185c0.093-0.093,0.185-0.278,0.278-0.556c0-0.093,0.093-0.093,0.093-0.093s0,0,0.093,0
		c-0.093,0.185-0.093,0.278-0.093,0.37c0,0.093,0,0.278,0,0.37s0,0.093,0,0.185h-0.093h-0.833h-0.37h-0.833h-0.37h-0.093
		C-146.774,28.838-147.051,28.931-147.237,28.838C-147.237,28.931-147.237,28.931-147.237,28.838L-147.237,28.838L-147.237,28.838
		L-147.237,28.838z M-143.255,28.19c0.093,0.185,0.093,0.278,0.185,0.37c0.093,0.093,0.185,0.185,0.278,0.278
		c0.093,0.093,0.185,0.093,0.37,0.093c0.093,0,0.185,0,0.278-0.185c0.093-0.093,0.093-0.185,0.093-0.278c0-0.093,0-0.278-0.093-0.37
		c-0.093-0.093-0.278-0.185-0.463-0.278c-0.278-0.093-0.37-0.185-0.463-0.278c-0.093-0.093-0.093-0.185-0.093-0.37
		c0-0.093,0-0.278,0.093-0.37c0.093-0.093,0.185-0.185,0.278-0.185c0.093-0.093,0.278-0.093,0.37-0.093c0.093,0,0.278,0,0.37,0
		s0.185,0.093,0.278,0.093c0,0.093,0,0.278,0,0.463v0.093c0,0,0,0-0.093,0l0,0c-0.093-0.185-0.185-0.278-0.278-0.37
		c-0.093-0.093-0.185-0.093-0.37-0.093c-0.093,0-0.185,0-0.278,0.093c-0.093,0.093-0.093,0.185-0.093,0.278
		c0,0.093,0,0.185,0.093,0.185c0.093,0.093,0.185,0.185,0.37,0.185c0.185,0.093,0.37,0.185,0.463,0.278
		c0.093,0.093,0.185,0.185,0.185,0.278c0,0.093,0.093,0.185,0.093,0.278c0,0.093,0,0.278-0.093,0.37
		c-0.093,0.093-0.185,0.185-0.278,0.278c-0.093,0-0.278,0.093-0.37,0.093c-0.278,0-0.463,0-0.648-0.093c0,0,0,0,0-0.093
		c0,0,0,0,0-0.093C-143.255,28.375-143.255,28.282-143.255,28.19L-143.255,28.19L-143.255,28.19L-143.255,28.19z M-140.662,26.06
		L-140.662,26.06l0.093,0.278v0.37h0.093c0.093,0,0.185,0,0.278,0s0.185,0,0.278,0c0,0,0.093,0,0.185,0v0.093v0.093h-0.093h-0.463
		h-0.185h-0.093c0,0.093,0,0.093,0,0.185v0.463v0.741c0,0.185,0,0.37,0.093,0.37c0.093,0.093,0.093,0.093,0.185,0.093
		s0.185,0,0.278,0c0,0,0.093,0,0.185-0.093l0,0l0,0l0,0l0,0c-0.093,0.093-0.185,0.185-0.278,0.185s-0.278,0.093-0.463,0.093
		c-0.093,0-0.185,0-0.278-0.093s-0.093-0.093-0.185-0.185c0-0.093,0-0.278,0-0.463v-0.648v-0.278v-0.093c0-0.093,0-0.093,0-0.185
		h-0.093h-0.278l0,0c0,0,0,0-0.093,0l0,0c0,0,0,0,0-0.093c0,0,0.093,0,0.093-0.093c0.093,0,0.093-0.093,0.185-0.093
		c0.093-0.093,0.093-0.093,0.185-0.185c0,0,0.093-0.093,0.093-0.185C-140.755,26.153-140.755,26.06-140.662,26.06L-140.662,26.06z
		 M-139.459,28.653c0-0.093,0-0.185,0.093-0.185c0.093-0.093,0.093-0.093,0.185-0.093s0.185,0,0.185,0.093
		c0.093,0.093,0.093,0.093,0.093,0.185c0,0.093,0,0.185-0.093,0.185c-0.093,0.093-0.093,0.093-0.185,0.093s-0.185,0-0.185-0.093
		C-139.459,28.745-139.459,28.745-139.459,28.653L-139.459,28.653z M-134.644,28.838c-0.278,0-0.648,0-1.111,0h-0.648h-0.278h-0.185
		h-0.093c0-0.093,0.093-0.185,0.093-0.185c0.185-0.185,0.37-0.463,0.648-0.741c0.463-0.463,0.741-0.741,0.833-1.019
		c0.093-0.278,0.185-0.463,0.185-0.648c0-0.185-0.093-0.37-0.185-0.463c-0.093-0.093-0.278-0.185-0.463-0.185
		c-0.093,0-0.278,0-0.37,0.093c-0.093,0.093-0.185,0.093-0.278,0.185c0,0.093-0.093,0.185-0.185,0.37
		c0,0.093-0.093,0.185-0.093,0.185l0,0l0,0c0,0,0,0,0-0.093c0-0.093,0-0.185,0.093-0.37c0.093-0.185,0.185-0.37,0.37-0.463
		c0.185-0.093,0.37-0.185,0.556-0.185c0.278,0,0.556,0.093,0.741,0.278c0.185,0.185,0.278,0.37,0.278,0.648
		c0,0.185-0.093,0.37-0.185,0.648c-0.093,0.185-0.463,0.556-0.926,1.019c-0.185,0.185-0.278,0.278-0.37,0.278
		c-0.093,0.093-0.185,0.185-0.37,0.463c0.278,0,0.556,0,0.741,0c0.093,0,0.093,0,0.185,0s0.185,0,0.185,0h0.37
		c0,0,0.093,0,0.093-0.093c0,0,0.093-0.185,0.185-0.37h0.093l0,0l0,0l0,0c0,0.093,0,0.185,0,0.278
		C-134.644,28.56-134.644,28.653-134.644,28.838L-134.644,28.838z M-131.866,27.079c0,0.185,0,0.37,0,0.556
		c-0.093,0.278-0.093,0.463-0.185,0.648c-0.093,0.185-0.185,0.278-0.278,0.463c-0.093,0.093-0.185,0.185-0.278,0.185
		c-0.093,0-0.185,0.093-0.278,0.093c-0.185,0-0.37-0.093-0.556-0.185s-0.278-0.37-0.463-0.648c-0.093-0.278-0.185-0.648-0.185-1.019
		c0-0.278,0-0.556,0.093-0.833c0.093-0.278,0.185-0.463,0.278-0.648s0.278-0.278,0.37-0.37c0.093-0.093,0.278-0.093,0.37-0.093
		c0.185,0,0.37,0.093,0.556,0.278s0.37,0.37,0.463,0.741C-131.866,26.338-131.866,26.708-131.866,27.079L-131.866,27.079z
		 M-132.329,26.986c0-0.463,0-0.741-0.093-0.926c-0.093-0.278-0.093-0.463-0.278-0.556c0-0.185-0.185-0.185-0.278-0.185
		s-0.278,0-0.37,0.093c-0.093,0.093-0.185,0.185-0.278,0.37c-0.093,0.278-0.093,0.741-0.093,1.389s0.093,1.019,0.185,1.296
		s0.278,0.37,0.556,0.37c0.185,0,0.278-0.093,0.463-0.185c0.093-0.093,0.185-0.278,0.278-0.556c0.093-0.278,0.093-0.556,0.093-0.926
		L-132.329,26.986L-132.329,26.986z M-129.181,27.079c0,0.185,0,0.37,0,0.556c-0.093,0.278-0.093,0.463-0.185,0.648
		c-0.093,0.185-0.185,0.278-0.278,0.463c-0.093,0.093-0.185,0.185-0.278,0.185s-0.185,0.093-0.278,0.093
		c-0.185,0-0.37-0.093-0.556-0.185c-0.185-0.093-0.278-0.37-0.463-0.648c-0.093-0.278-0.185-0.648-0.185-1.019
		c0-0.278,0-0.556,0.093-0.833c0.093-0.278,0.185-0.463,0.278-0.648s0.278-0.278,0.37-0.37c0.093-0.093,0.278-0.093,0.37-0.093
		c0.185,0,0.37,0.093,0.556,0.278s0.37,0.37,0.463,0.741C-129.181,26.338-129.181,26.708-129.181,27.079L-129.181,27.079z
		 M-129.551,26.986c0-0.463,0-0.741-0.093-0.926c-0.093-0.278-0.093-0.463-0.278-0.556c-0.093-0.185-0.185-0.185-0.37-0.185
		c-0.093,0-0.278,0-0.37,0.093c-0.093,0.093-0.185,0.185-0.278,0.37c-0.093,0.278-0.093,0.741-0.093,1.389s0.093,1.019,0.185,1.296
		s0.278,0.37,0.556,0.37c0.185,0,0.278-0.093,0.463-0.185c0.093-0.093,0.185-0.278,0.278-0.556c0.093-0.278,0.093-0.556,0.093-0.926
		L-129.551,26.986L-129.551,26.986z M-126.496,28.838c-0.278,0-0.648,0-1.111,0h-0.648h-0.278h-0.185h-0.093
		c0-0.093,0.093-0.185,0.093-0.185c0.185-0.185,0.37-0.463,0.648-0.741c0.463-0.463,0.741-0.741,0.833-1.019
		c0.093-0.278,0.185-0.463,0.185-0.648c0-0.185-0.093-0.37-0.185-0.463c-0.093-0.093-0.278-0.185-0.463-0.185
		c-0.093,0-0.278,0-0.37,0.093c-0.093,0.093-0.185,0.093-0.278,0.185c0,0.093-0.093,0.185-0.185,0.37c0-0.093,0,0,0,0l0,0l0,0
		c0,0,0,0,0-0.093c0-0.093,0-0.185,0.093-0.37s0.185-0.37,0.37-0.463c0.185-0.093,0.37-0.185,0.556-0.185
		c0.278,0,0.556,0.093,0.741,0.278c0.185,0.185,0.278,0.37,0.278,0.648c0,0.185-0.093,0.37-0.185,0.648
		c-0.093,0.185-0.463,0.556-0.926,1.019c-0.185,0.185-0.278,0.278-0.37,0.278c-0.093,0.093-0.185,0.185-0.37,0.463
		c0.278,0,0.556,0,0.741,0c0.093,0,0.093,0,0.185,0s0.185,0,0.185,0h0.37c0,0,0.093,0,0.093-0.093c0,0,0.093-0.185,0.185-0.37h0.093
		l0,0l0,0l0,0c0,0.093,0,0.185,0,0.278C-126.496,28.56-126.496,28.653-126.496,28.838L-126.496,28.838z"/>
</g>
</svg>
