<?xml version="1.0" encoding="utf-8"?>
<!-- Generator: Adobe Illustrator 18.1.1, SVG Export Plug-In . SVG Version: 6.00 Build 0)  -->
<svg version="1.1" id="Слой_1" xmlns="http://www.w3.org/2000/svg" xmlns:xlink="http://www.w3.org/1999/xlink" x="0px" y="0px"
	 viewBox="0 0 108 66.9" enable-background="new 0 0 108 66.9" xml:space="preserve">
<g>
	<path fill-rule="evenodd" clip-rule="evenodd" fill="#FFFFFF" d="M38.5,37.6c2.9,2.9,8.3,2.1,12.2-1.7c2-2,3.1-4.4,3.4-6.6
		c0.3,2.3,1.4,4.7,3.4,6.6c3.8,3.8,9.3,4.6,12.2,1.7c2.9-2.9,2.1-8.3-1.7-12.2c-2-2-4.4-3.1-6.6-3.4c2.3-0.3,4.7-1.4,6.6-3.4
		c3.8-3.8,4.6-9.3,1.7-12.2c-2.9-2.9-8.3-2.1-12.2,1.7c-2,2-3.1,4.4-3.4,6.6c-0.3-2.3-1.4-4.7-3.4-6.6c-3.8-3.8-9.3-4.6-12.2-1.7
		c-2.9,2.9-2.1,8.3,1.7,12.2c2,2,4.4,3.1,6.6,3.4c-2.3,0.3-4.7,1.4-6.6,3.4C36.3,29.2,35.6,34.7,38.5,37.6L38.5,37.6z M54,16.6
		c0,0.1,0,0.1,0,0.2C54,16.7,54,16.6,54,16.6c0.3-2.1,1.5-4.4,3.5-6.4C61,6.6,65.8,5.6,68.1,8c2.3,2.3,1.3,7.1-2.2,10.6
		c-2,2-4.3,3.2-6.4,3.4c-0.1,0-0.1,0-0.2,0c0.1,0,0.1,0,0.2,0c2.1,0.3,4.4,1.4,6.4,3.4c3.5,3.5,4.5,8.3,2.2,10.6
		c-2.3,2.3-7.1,1.3-10.6-2.2c-2-2-3.2-4.3-3.4-6.4c0-0.1,0-0.1,0-0.2c0,0.1,0,0.1,0,0.2c-0.3,2.1-1.4,4.4-3.4,6.4
		c-3.5,3.5-8.3,4.5-10.6,2.2c-2.3-2.3-1.3-7.1,2.2-10.6c2-2,4.3-3.2,6.4-3.4c0.1,0,0.1,0,0.2,0c-0.1,0-0.1,0-0.2,0
		c-2.1-0.3-4.4-1.4-6.4-3.4C38.6,15,37.7,10.3,40,8c2.3-2.3,7.1-1.3,10.6,2.2C52.6,12.1,53.7,14.5,54,16.6L54,16.6z"/>
	<path fill-rule="evenodd" clip-rule="evenodd" fill="#FFFFFF" d="M54,44c4.1,0,7.4-4.4,7.4-9.8c0-2.8-0.9-5.3-2.3-7.1
		c1.8,1.4,4.3,2.3,7.1,2.3c5.4,0,9.8-3.3,9.8-7.4c0-4.1-4.4-7.4-9.8-7.4c-2.8,0-5.3,0.9-7.1,2.3c1.4-1.8,2.3-4.3,2.3-7.1
		C61.4,4.4,58.1,0,54,0c-4.1,0-7.4,4.4-7.4,9.8c0,2.8,0.9,5.3,2.3,7.1c-1.8-1.4-4.3-2.3-7.1-2.3c-5.4,0-9.8,3.3-9.8,7.4
		c0,4.1,4.4,7.4,9.8,7.4c2.8,0,5.3-0.9,7.1-2.3c-1.4,1.8-2.3,4.3-2.3,7.1C46.6,39.6,49.9,44,54,44L54,44z M50.2,18.2
		c0,0,0.1,0.1,0.1,0.1C50.3,18.2,50.2,18.2,50.2,18.2c-1.3-1.7-2.1-4.2-2.1-7c0-5,2.7-9.1,5.9-9.1c3.3,0,5.9,4.1,5.9,9.1
		c0,2.8-0.8,5.3-2.1,6.9c0,0-0.1,0.1-0.1,0.1c0,0,0.1-0.1,0.1-0.1c1.7-1.3,4.2-2.1,6.9-2.1c5,0,9.1,2.7,9.1,5.9
		c0,3.3-4.1,5.9-9.1,5.9c-2.8,0-5.3-0.8-6.9-2.1c0,0-0.1-0.1-0.1-0.1c0,0,0.1,0.1,0.1,0.1c1.3,1.7,2.1,4.2,2.1,6.9
		c0,5-2.7,9.1-5.9,9.1c-3.3,0-5.9-4.1-5.9-9.1c0-2.8,0.8-5.3,2.1-6.9c0,0,0.1-0.1,0.1-0.1c0,0-0.1,0.1-0.1,0.1
		c-1.7,1.3-4.2,2.1-6.9,2.1c-5,0-9.1-2.7-9.1-5.9c0-3.3,4.1-5.9,9.1-5.9C46,16.1,48.5,16.9,50.2,18.2L50.2,18.2z"/>
	<path fill-rule="evenodd" clip-rule="evenodd" fill="#FFFFFF" d="M54,19.6c1.3,0,2.4,1.1,2.4,2.4c0,1.3-1.1,2.4-2.4,2.4
		c-1.3,0-2.4-1.1-2.4-2.4C51.6,20.7,52.7,19.6,54,19.6L54,19.6z"/>
	<path fill="#FFFFFF" d="M0,57.9l0-0.2c0.1-0.1,0.3-0.1,0.5-0.1c0.2,0,0.4-0.1,0.5-0.1c0.1,0,0.2-0.1,0.2-0.2c0-0.2,0.1-0.6,0.1-1.1
		v-5.5l0-0.9c0-0.2,0-0.3-0.1-0.4c-0.1-0.1-0.3-0.1-0.6-0.2c-0.3-0.1-0.5-0.1-0.6-0.1C0,49,0,49,0,48.9c0,0,0-0.1,0-0.1
		c0.1,0,0.1-0.1,0.2-0.1c0.1,0,0.2,0,0.4,0h0.2c0.1,0,0.3,0,0.6,0h1l2,0l2.2-0.1h0.2l0.3,0c0.1,0,0.2,0,0.2,0.1c0,0.1,0,0.1,0.1,0.2
		l0,0.3l0.1,1.3c0,0.1,0,0.1,0,0.2c-0.1,0-0.1,0-0.2,0c0,0-0.1,0-0.1,0c0-0.1-0.1-0.1-0.1-0.3c0-0.2-0.1-0.5-0.2-0.8
		c-0.1-0.2-0.2-0.3-0.3-0.3c-0.3-0.1-0.8-0.2-1.4-0.2c-0.3,0-0.6,0-0.9,0c-0.3,0-0.4,0-0.5,0l-0.6,0c-0.2,0-0.4,0-0.6,0.1
		c-0.1,0-0.1,0.1-0.1,0.3v0.1c0,0.2,0,0.5,0,0.8l0,1.9c0,0.2,0,0.4,0,0.5l0.2,0l0.4,0h1.3c0.5,0,0.9,0,1.1-0.1
		c0.1-0.1,0.2-0.1,0.3-0.2c0,0,0.1-0.2,0.2-0.6l0.1-0.6c0.1,0,0.1,0,0.1,0c0,0,0.1,0,0.1,0c0,0.1,0,0.3,0,0.5l0.1,2.6
		c-0.1,0-0.1,0-0.2,0l-0.1,0c-0.1-0.5-0.2-0.8-0.4-1.1c-0.1-0.1-0.1-0.1-0.2-0.2c-0.1,0-0.7,0-1.7,0c-0.3,0-0.5,0-0.6,0
		c-0.3,0-0.5,0-0.5,0H2.8c-0.1,0-0.2,0-0.3,0.1c0,0.1,0,0.1,0,0.1v0.5c0,0.1,0,0.3,0,0.7l0,2.3c0,0.1,0,0.1,0.1,0.2
		c0.1,0.1,0.3,0.1,0.5,0.2c0.3,0,0.5,0.1,0.7,0.2C3.9,57.6,4,57.7,4,57.8c0,0,0,0.1,0,0.1c0,0-0.1,0-0.1,0.1
		c-0.4-0.1-0.9-0.1-1.6-0.1c-0.4,0-0.7,0-1.2,0.1c-0.3,0-0.6,0.1-1,0.1L0,57.9L0,57.9z M7.8,57.8c0-0.1,0-0.1,0.1-0.2
		c0.4-0.1,0.7-0.2,1.1-0.2c0.2,0,0.4-0.1,0.4-0.2c0-0.1,0.1-0.3,0.1-0.7l0-1.9l0-1.3l0-1.7v-0.4c0-1,0-1.6,0-1.9c0,0,0-0.1-0.1-0.2
		c-0.1-0.1-0.2-0.1-0.3-0.1c-0.1,0-0.5-0.1-1.1-0.2c0-0.1,0-0.1,0-0.1c0,0,0-0.1,0-0.1c0.1,0,0.2,0,0.4,0l1.1,0l0.6,0l0.2,0
		c0,0,0.1,0,0.2,0c0.3,0,0.4,0,0.5,0l0.6,0c0.4,0,0.7,0,0.8,0c0,0.1,0,0.2-0.1,0.3c-0.1,0-0.3,0-0.7,0c-0.4,0-0.7,0-0.8,0.1
		c-0.1,0.1-0.2,0.3-0.2,0.6c0,0.1,0,0.2,0,0.5v0.4l0,1.3v0.4l0,2.3l0,2l0,0.4c0,0.1,0,0.2,0.1,0.3c0.1,0,0.5,0,1,0h0.5l1.2,0
		c0.3,0,0.6,0,0.7-0.1c0.1-0.1,0.4-0.2,0.7-0.5c0.2-0.2,0.3-0.3,0.5-0.5c0,0,0.1-0.1,0.1-0.2c0.1-0.1,0.2-0.4,0.4-0.7h0.2
		c0,0.2-0.1,0.3-0.1,0.5c-0.1,0.7-0.2,1.2-0.3,1.7c0,0.1,0,0.2,0,0.3L13,57.8c-2.3,0-3.6,0-4,0c-0.1,0-0.3,0-0.4,0H7.8L7.8,57.8z
		 M16.7,53.3c0-0.5,0.1-0.9,0.2-1.3c0.1-0.4,0.3-0.8,0.6-1.2c0.3-0.4,0.6-0.8,1-1.1c0.4-0.3,0.9-0.6,1.6-0.8
		c0.5-0.2,1.1-0.2,1.8-0.2c0.5,0,1,0.1,1.5,0.2c0.5,0.1,0.9,0.3,1.3,0.6c0.4,0.2,0.8,0.6,1.2,1.1c0.3,0.3,0.5,0.7,0.6,1.1
		c0.2,0.5,0.3,1,0.3,1.6c0,0.6-0.1,1.1-0.2,1.6c-0.1,0.4-0.3,0.8-0.6,1.2c-0.2,0.3-0.6,0.7-1.1,1.1c-0.4,0.3-0.8,0.5-1.3,0.7
		c-0.5,0.2-1.1,0.3-1.7,0.3c-0.6,0-1.2-0.1-1.7-0.2c-0.5-0.1-0.9-0.3-1.2-0.5c-0.3-0.2-0.7-0.5-1-0.9c-0.3-0.4-0.6-0.9-0.8-1.4
		C16.8,54.4,16.7,53.9,16.7,53.3L16.7,53.3z M21.6,57.7c0.4,0,0.8-0.1,1.2-0.2c0.4-0.1,0.8-0.3,1.1-0.6c0.3-0.3,0.6-0.5,0.8-0.9
		c0.2-0.3,0.3-0.7,0.4-1.3c0.1-0.5,0.2-1,0.2-1.5c0-0.6-0.1-1.3-0.3-1.9c-0.1-0.5-0.4-0.9-0.7-1.3c-0.3-0.4-0.7-0.7-1.2-0.9
		c-0.5-0.2-1-0.3-1.5-0.3c-0.4,0-0.9,0.1-1.3,0.2c-0.4,0.1-0.7,0.3-1,0.5c-0.3,0.2-0.5,0.5-0.7,0.9c-0.2,0.4-0.4,0.9-0.5,1.3
		C18,52.4,18,52.9,18,53.2c0,0.4,0.1,0.8,0.2,1.3c0.1,0.5,0.3,0.9,0.5,1.3c0.2,0.4,0.5,0.7,0.8,1c0.3,0.3,0.6,0.5,1,0.6
		C20.8,57.6,21.2,57.7,21.6,57.7L21.6,57.7z M27.8,57.6c0.7-0.1,1.1-0.1,1.2-0.2c0.1,0,0.1-0.1,0.2-0.2v-0.1c0-0.1,0-0.5,0.1-1.3
		c0-0.2,0-0.4,0-0.6l0-0.8l0-1l0-1.8l0-1.3c0-0.5,0-0.9-0.1-1c-0.1-0.1-0.3-0.2-0.7-0.3c-0.4-0.1-0.6-0.1-0.6-0.1
		c0,0-0.1-0.1-0.1-0.1c0,0,0-0.1,0-0.1c0,0,0.2-0.1,0.3-0.1c0,0,0.1,0,0.2,0c0.1,0,0.2,0,0.3,0h0.6l1.9,0c1.1,0,1.8,0.1,2.2,0.2
		c0.4,0.2,0.8,0.4,1,0.8c0.2,0.4,0.4,0.8,0.4,1.2c0,0.9-0.5,1.5-1.4,2c-0.2,0.1-0.3,0.2-0.4,0.2c0.2,0.3,0.4,0.7,0.7,1.2l0.9,1.5
		c0.4,0.6,0.6,0.9,0.7,1.1c0.1,0.1,0.3,0.3,0.5,0.4c0.2,0.1,0.5,0.2,1,0.3c0,0,0,0.1,0,0.1c0,0,0,0.1,0,0.1c-0.6,0-1.4,0-2.3,0
		c-0.1,0-0.1,0-0.3,0c-0.3-0.6-0.7-1.3-1.2-2.1l-1-1.9c-0.1-0.2-0.3-0.3-0.4-0.4c-0.1-0.1-0.2-0.1-0.4-0.1l-0.6,0l-0.2,0
		c0,0.2,0,0.5,0,0.9v2.4c0,0.1,0,0.2,0.1,0.4c0,0.1,0.1,0.2,0.2,0.2c0.1,0.1,0.4,0.1,0.8,0.2l0.3,0.1c0,0,0.1,0.1,0.1,0.2
		c-0.1,0-0.2,0-0.3,0c-0.4,0-0.7,0-0.9,0c-0.1,0-0.2,0-0.2,0l-1,0l-0.9,0c0,0-0.3,0-0.6,0l-0.1,0l0-0.1
		C27.7,57.7,27.7,57.6,27.8,57.6L27.8,57.6z M30.4,53c0.1,0,0.2,0,0.3,0c0.3,0,0.7,0,1.2-0.1c0.3-0.1,0.6-0.2,0.8-0.3
		c0.2-0.1,0.4-0.3,0.5-0.6c0.1-0.3,0.2-0.6,0.2-0.8c0-0.3-0.1-0.7-0.3-1c-0.2-0.3-0.4-0.5-0.8-0.7c-0.4-0.2-0.8-0.3-1.3-0.3
		c-0.1,0-0.3,0-0.5,0c0,0.2,0,0.4,0,0.6l0,1.3l0,0.5C30.3,51.9,30.4,52.4,30.4,53L30.4,53z M36.3,57.6c0.1,0,0.1-0.1,0.2-0.1h0.2
		c0,0,0.1,0,0.2,0c0.4,0,0.6-0.1,0.6-0.1c0.2-0.1,0.3-0.2,0.4-0.5c0.2-0.5,0.5-1.2,0.8-2c0.1-0.4,0.2-0.7,0.3-0.8
		c0.1-0.3,0.2-0.6,0.3-0.9l0.7-1.9c0.1-0.3,0.4-1,0.7-2c0.1-0.3,0.2-0.6,0.4-1.1l0.2,0l0.2,0c0.2,0.4,0.4,0.8,0.5,1.3
		c0.1,0.2,0.2,0.6,0.4,1.1l1.1,2.9l0.6,1.6c0.3,0.9,0.5,1.5,0.6,1.7c0.1,0.2,0.2,0.3,0.3,0.4c0,0,0.1,0,0.3,0.1
		c0.2,0,0.3,0.1,0.3,0.1c0.2,0.1,0.4,0.1,0.5,0.1c0,0.1,0,0.1,0,0.1c0,0,0,0.1,0,0.1c-0.1,0-0.3,0-0.3,0c-0.2,0-0.7,0-1.3,0l-0.7,0
		l-0.9,0c-0.1,0-0.1,0-0.2,0c-0.1,0-0.1,0-0.2,0h-0.2c-0.1,0-0.1,0-0.1,0c0-0.1,0-0.1,0-0.2c0.1,0,0.1,0,0.2-0.1l0.7-0.1
		c0.2,0,0.3,0,0.4-0.1c0-0.1,0-0.1,0-0.2c0-0.1-0.1-0.3-0.2-0.7c-0.1-0.2-0.2-0.5-0.2-0.7c-0.1-0.2-0.3-0.9-0.8-2.1
		c-0.2,0-0.4-0.1-0.5-0.1l-1.5,0l-0.4,0c-0.2,0-0.3,0-0.5,0c-0.1,0.1-0.1,0.2-0.1,0.3l-0.6,2c-0.3,0.7-0.4,1.2-0.4,1.2
		c0,0,0,0.1,0.1,0.2c0.1,0,0.2,0.1,0.4,0.1l1,0.1c0.1,0,0.1,0.1,0.1,0.1c0,0,0,0.1,0,0.1c-0.2,0-0.4,0-0.5,0c-0.4,0-0.8,0-1.3-0.1
		c-0.2,0-0.4,0-0.5,0c-0.1,0-0.3,0-0.5,0c-0.2,0-0.3,0-0.3,0c-0.1,0-0.3,0-0.4,0v0C36.3,57.7,36.3,57.6,36.3,57.6L36.3,57.6z
		 M39.7,53.3c0.5,0,1.1,0,1.7,0c0.4,0,0.7,0,1,0c0-0.2-0.1-0.4-0.2-0.5c-0.3-0.8-0.5-1.3-0.5-1.3l-0.6-1.6L41,49.7
		c0,0.1-0.1,0.3-0.3,0.7c-0.3,0.7-0.5,1.3-0.6,1.7c-0.1,0.2-0.1,0.4-0.2,0.5c-0.1,0.2-0.1,0.3-0.1,0.4
		C39.7,53.2,39.7,53.2,39.7,53.3L39.7,53.3L39.7,53.3z M55.5,49.1c0,0.3,0.1,0.5,0.1,0.5l0,0.6c0,0.3,0,0.4,0,0.5c0,0-0.1,0-0.1,0
		l-0.1,0c-0.1-0.7-0.4-1.2-0.8-1.5c-0.4-0.3-0.8-0.5-1.3-0.5c-0.5,0-1,0.2-1.3,0.5c-0.3,0.3-0.5,0.7-0.5,1.1c0,0.3,0.1,0.6,0.4,0.8
		c0.2,0.3,0.9,0.6,1.8,1.2c0.8,0.4,1.3,0.7,1.6,1c0.3,0.2,0.6,0.5,0.7,0.9c0.2,0.3,0.2,0.7,0.2,1.1c0,0.5-0.1,1-0.4,1.4
		c-0.3,0.4-0.6,0.8-1.1,1c-0.4,0.2-1,0.3-1.8,0.3c-0.6,0-1.2-0.1-1.8-0.3c-0.3-0.1-0.6-0.2-0.6-0.3c-0.1-0.1-0.1-0.2-0.1-0.2
		c0-0.1,0-0.1,0-0.2c0.1-0.6,0.1-1,0.1-1.4c0-0.2,0-0.4,0-0.4c0,0,0.1-0.1,0.1-0.1c0,0,0.1,0,0.1,0c0,0,0,0.1,0.1,0.2
		c0.1,0.6,0.3,1.1,0.8,1.6c0.5,0.5,1,0.7,1.6,0.7c0.4,0,0.7-0.1,1-0.2c0.3-0.2,0.6-0.4,0.7-0.7c0.2-0.3,0.3-0.6,0.3-0.9
		c0-0.4-0.1-0.7-0.4-1c-0.3-0.3-0.8-0.7-1.6-1.1c-0.8-0.4-1.3-0.7-1.6-0.9c-0.4-0.3-0.7-0.7-0.9-1c-0.1-0.3-0.2-0.6-0.2-1
		c0-0.7,0.3-1.2,0.8-1.7c0.5-0.5,1.2-0.7,2.1-0.7c0.5,0,0.9,0.1,1.2,0.2C54.9,48.7,55.2,48.9,55.5,49.1L55.5,49.1z M57.1,57.7
		c0,0,0.1-0.1,0.1-0.1c0.1,0,0.2,0,0.4-0.1c0.5,0,0.7-0.1,0.9-0.1c0.1-0.1,0.1-0.2,0.1-0.4l0-0.5l0-1.8l0-0.8l0-1.8l0-2
		c0-0.5,0-0.8-0.1-0.8c-0.1-0.1-0.3-0.1-0.8-0.2c-0.2,0-0.3,0-0.5,0c-0.1,0-0.1-0.1-0.1-0.1c0,0,0-0.1,0-0.1c0,0,0.1,0,0.1,0
		c0.1,0,0.1,0,0.2,0c0.3,0,0.6,0,0.9,0l0.5,0l1.2,0c0.6,0,1.1,0,1.5,0c0.4,0,0.6,0,0.7,0c0.1,0,0.4,0,0.8,0.1l1,0l0.1,0l0.6,0l0.1,0
		c0,0,0,0.1,0.1,0.1c0,0.1,0,0.2,0,0.3c0,0.1,0,0.2,0,0.3c0,0.5,0,0.9,0,1.2c0,0,0,0,0,0.1c-0.1,0-0.1,0-0.1,0
		c-0.1-0.1-0.1-0.2-0.2-0.5c-0.1-0.2-0.2-0.5-0.4-0.8c-0.1-0.2-0.2-0.3-0.3-0.4c-0.1,0-0.2-0.1-0.4-0.1c0,0-0.3,0-0.6,0
		c-0.1,0-0.2,0-0.3,0l-2,0h-0.2c-0.3,0-0.4,0-0.5,0.1c-0.1,0.1-0.1,0.4-0.1,1c0,0.1,0,0.6,0,1.7v1c0.1,0,0.1,0,0.2,0h0.1
		c0.1,0,0.2,0,0.3,0c0.2,0,0.4,0,0.5,0c0.1,0,0.1,0,0.1,0c0.5,0,1.2,0,1.9,0c0.2,0,0.4-0.1,0.4-0.1c0.1-0.1,0.1-0.3,0.2-0.7
		c0-0.4,0.1-0.6,0.2-0.6c0.1,0,0.1,0,0.2,0c0,0,0,0.1,0,0.1c0,0,0,0.1,0,0.2c0,0.2,0,0.7,0,1.6c0,0.2,0,0.5,0,0.8c0,0.3,0,0.5,0,0.5
		c0,0,0,0.1,0,0.2c0,0-0.1,0-0.1,0h0c-0.1-0.1-0.1-0.3-0.2-0.6c-0.1-0.5-0.3-0.8-0.4-0.9c-0.1-0.1-0.4-0.2-0.7-0.2
		c-0.1,0-0.2,0-0.4,0c-0.2,0-0.4,0-0.8,0h-0.5c-0.7,0-1.1,0-1.3,0l0,0.2l0,1.3l0,0.8l0,0.8c0,0.5,0,0.8,0.1,0.8
		c0.1,0.1,0.3,0.2,0.5,0.2l0.4,0c0,0,0.2,0,0.4,0c0.3,0,0.6,0,1,0c0.9,0,1.5,0,1.8-0.1c0.3-0.1,0.6-0.2,0.7-0.4
		c0.2-0.2,0.4-0.6,0.7-1.3c0.1-0.2,0.2-0.3,0.3-0.3c0,0,0.1,0,0.1,0.1c-0.1,0.5-0.2,0.8-0.2,0.9c-0.1,0.3-0.1,0.7-0.1,1
		c0,0.2,0,0.3-0.1,0.4h-0.2l-2,0l-0.9,0l-2.1,0h-0.9c-0.1,0-0.2,0-0.3,0c-0.9,0-1.5,0.1-1.9,0.1c-0.1,0-0.1,0-0.1,0
		C57.1,57.8,57.1,57.8,57.1,57.7L57.1,57.7L57.1,57.7z M66.7,57.6c0.7-0.1,1.1-0.1,1.2-0.2c0.1,0,0.1-0.1,0.2-0.2v-0.1
		c0-0.1,0-0.5,0.1-1.3c0-0.2,0-0.4,0-0.6l0-0.8l0-1l0-1.8l0-1.3c0-0.5,0-0.9-0.1-1c-0.1-0.1-0.3-0.2-0.7-0.3
		c-0.4-0.1-0.6-0.1-0.6-0.1c0,0-0.1-0.1-0.1-0.1c0,0,0-0.1,0-0.1c0,0,0.2-0.1,0.3-0.1c0,0,0.1,0,0.2,0c0.1,0,0.2,0,0.3,0h0.6l1.9,0
		c1.1,0,1.8,0.1,2.2,0.2c0.4,0.2,0.8,0.4,1,0.8c0.2,0.4,0.4,0.8,0.4,1.2c0,0.9-0.5,1.5-1.4,2c-0.2,0.1-0.3,0.2-0.4,0.2
		c0.2,0.3,0.4,0.7,0.7,1.2l0.9,1.5c0.4,0.6,0.6,0.9,0.7,1.1c0.1,0.1,0.3,0.3,0.5,0.4c0.2,0.1,0.5,0.2,1,0.3c0,0,0,0.1,0,0.1
		c0,0,0,0.1,0,0.1c-0.6,0-1.4,0-2.3,0c-0.1,0-0.1,0-0.3,0c-0.3-0.6-0.7-1.3-1.2-2.1l-1-1.9c-0.1-0.2-0.3-0.3-0.4-0.4
		c-0.1-0.1-0.2-0.1-0.4-0.1l-0.6,0l-0.2,0c0,0.2,0,0.5,0,0.9v2.4c0,0.1,0,0.2,0.1,0.4c0,0.1,0.1,0.2,0.2,0.2
		c0.1,0.1,0.4,0.1,0.8,0.2l0.3,0.1c0,0,0.1,0.1,0.1,0.2c-0.1,0-0.2,0-0.3,0c-0.4,0-0.7,0-0.9,0c-0.1,0-0.2,0-0.2,0l-1,0l-0.9,0
		c0,0-0.3,0-0.6,0l-0.1,0l0-0.1C66.6,57.7,66.6,57.6,66.7,57.6L66.7,57.6z M69.3,53c0.1,0,0.2,0,0.3,0c0.3,0,0.7,0,1.2-0.1
		c0.3-0.1,0.6-0.2,0.8-0.3c0.2-0.1,0.4-0.3,0.5-0.6c0.1-0.3,0.2-0.6,0.2-0.8c0-0.3-0.1-0.7-0.3-1c-0.2-0.3-0.4-0.5-0.8-0.7
		c-0.4-0.2-0.8-0.3-1.3-0.3c-0.1,0-0.3,0-0.5,0c0,0.2,0,0.4,0,0.6l0,1.3l0,0.5C69.3,51.9,69.3,52.4,69.3,53L69.3,53z M74.6,48.8
		l0.1-0.1c0.4,0,0.8,0,1.1,0H76c0.1,0,0.1,0,0.2,0c0.3,0,0.9,0,1.7,0c0.2,0,0.3,0,0.5,0c0.1,0,0.3,0,0.4,0c0,0,0,0,0.1,0.1l0,0.1
		c0,0.1-0.1,0.1-0.2,0.1h-0.1c-0.1,0-0.3,0-0.7,0c-0.3,0-0.5,0.1-0.6,0.1c-0.1,0.1-0.1,0.1-0.1,0.2c0,0.2,0.1,0.5,0.2,0.8l1.1,2.5
		l0.4,0.8c0.4,0.9,0.7,1.8,1.1,2.7c0,0.1,0.1,0.2,0.1,0.3l0.5-1.2c0.2-0.6,0.5-1.2,0.7-1.9l0.5-1.3c0,0,0-0.1,0.1-0.3
		c0.5-1.2,0.7-2,0.7-2.4c0-0.1,0-0.1-0.1-0.2c-0.1-0.1-0.2-0.1-0.3-0.2c-0.1,0-0.2,0-0.6-0.1l-0.5-0.1c0-0.1-0.1-0.1-0.1-0.1l0-0.1
		l2.3,0h0.8c0.3,0,0.4,0,0.5,0l0,0.1c0,0,0,0.1,0,0.1c-0.1,0-0.2,0.1-0.3,0.1c-0.4,0.1-0.6,0.1-0.7,0.2c-0.1,0.1-0.2,0.2-0.3,0.4
		l-1.8,4.6c-0.6,1.4-1,2.4-1.2,3.2L80,58c-0.1,0-0.1,0.1-0.2,0.1c-0.1,0-0.1,0-0.2,0c-0.6-1.4-1-2.6-1.4-3.4l-2.2-4.9
		c-0.2-0.3-0.3-0.5-0.4-0.5c-0.1-0.1-0.3-0.1-0.8-0.3c-0.2,0-0.3-0.1-0.3-0.1C74.6,48.9,74.6,48.9,74.6,48.8L74.6,48.8z M84.8,57.6
		c0.1,0,0.2-0.1,0.3-0.1c0.7,0,1.1-0.1,1.2-0.3c0.1-0.1,0.2-0.7,0.2-1.8l0-0.7v-0.8l0-0.9l0-0.5l0-0.6v-0.7l0-0.3l0-0.4
		c0-0.1,0-0.2,0-0.3c0-0.3,0-0.6,0-0.9c0-0.1,0-0.1-0.1-0.2c-0.2-0.1-0.5-0.2-0.8-0.2c-0.4,0-0.6-0.1-0.7-0.1c0,0-0.1-0.1-0.1-0.2
		h0.6l1.9,0.1c0.5,0,1.1,0,1.9-0.1c0,0.1,0,0.1,0,0.2C89.1,49,89,49,88.8,49c-0.5,0.1-0.7,0.1-0.8,0.1c-0.1,0-0.1,0.1-0.1,0.1
		c0,0.1-0.1,0.2-0.1,0.5l0,0.9l0,3.2v1.2c0,0.4,0,0.7,0,0.8c0,0.5,0,0.9,0,1c0,0.1,0.1,0.3,0.1,0.3c0.1,0.1,0.2,0.1,0.3,0.2
		c0.2,0.1,0.4,0.1,0.5,0.1c0.3,0,0.4,0,0.5,0.1c0,0.1,0,0.1,0,0.2v0.1c-0.4,0-0.8,0-1,0c-0.1,0-0.3,0-0.6,0l-1,0l-1.7,0h-0.1
		L84.8,57.6L84.8,57.6z M98,49.2c0.1,0.4,0.1,0.7,0.1,1.1c0,0.1,0,0.2,0,0.3c-0.1,0-0.1,0-0.1,0c0,0-0.1,0-0.1,0
		c-0.2-0.5-0.5-1-1-1.3c-0.4-0.3-1-0.4-1.7-0.4c-0.3,0-0.6,0-0.9,0.1c-0.4,0.1-0.8,0.3-1.1,0.6c-0.3,0.3-0.6,0.6-0.8,0.9
		c-0.2,0.4-0.4,0.8-0.5,1.3c-0.1,0.5-0.2,1-0.2,1.6c0,1,0.2,1.8,0.5,2.5c0.3,0.7,0.7,1.1,1.3,1.4c0.5,0.3,1.1,0.4,1.6,0.4l0.3,0
		c0.4,0,0.6-0.1,0.8-0.1c0.3-0.1,0.6-0.2,0.9-0.3c0.2-0.1,0.4-0.3,0.7-0.6c0.2-0.2,0.4-0.5,0.5-0.9l0.1,0c0,0,0.1,0,0.1,0
		c0,0.1,0,0.2,0,0.2c-0.2,0.8-0.3,1.3-0.4,1.6c-0.1,0-0.2,0-0.3,0.1c-0.6,0.2-1.3,0.3-2.2,0.3c-0.7,0-1.3-0.1-1.7-0.2
		c-0.4-0.1-0.8-0.3-1.2-0.5c-0.4-0.2-0.8-0.5-1.1-0.8c-0.3-0.4-0.6-0.8-0.8-1.3c-0.2-0.5-0.3-1.1-0.3-1.8c0-0.6,0.1-1.1,0.2-1.6
		c0.2-0.4,0.4-0.9,0.7-1.4c0.3-0.5,0.7-0.8,1.2-1.1c0.5-0.3,1-0.5,1.5-0.6c0.4-0.1,0.9-0.1,1.7-0.1c0.5,0,1,0.1,1.5,0.2
		C97.6,48.9,97.9,49,98,49.2L98,49.2z"/>
	<path fill="#FFFFFF" d="M99.2,57.7c0,0,0.1-0.1,0.1-0.1c0.1,0,0.2,0,0.4-0.1c0.5,0,0.7-0.1,0.9-0.1c0.1-0.1,0.1-0.2,0.1-0.4l0-0.5
		l0-1.8l0-0.8l0-1.8l0-2c0-0.5,0-0.8-0.1-0.8c-0.1-0.1-0.3-0.1-0.8-0.2c-0.2,0-0.3,0-0.5,0c-0.1,0-0.1-0.1-0.1-0.1c0,0,0-0.1,0-0.1
		c0,0,0.1,0,0.1,0c0.1,0,0.1,0,0.2,0c0.3,0,0.6,0,0.9,0l0.5,0l1.2,0c0.6,0,1.1,0,1.5,0c0.4,0,0.6,0,0.7,0c0.1,0,0.4,0,0.8,0.1l1,0
		l0.1,0l0.6,0l0.1,0c0,0,0,0.1,0.1,0.1c0,0.1,0,0.2,0,0.3c0,0.1,0,0.2,0,0.3c0,0.5,0,0.9,0,1.2c0,0,0,0,0,0.1c0,0-0.1,0-0.1,0
		c-0.1-0.1-0.1-0.2-0.2-0.5c-0.1-0.2-0.2-0.5-0.4-0.8c-0.1-0.2-0.2-0.3-0.3-0.4c-0.1,0-0.2-0.1-0.4-0.1c0,0-0.3,0-0.6,0
		c-0.1,0-0.2,0-0.3,0l-2,0h-0.2c-0.3,0-0.4,0-0.5,0.1c-0.1,0.1-0.1,0.4-0.1,1c0,0.1,0,0.6,0,1.7v1c0,0,0.1,0,0.2,0h0.1
		c0.1,0,0.2,0,0.3,0c0.2,0,0.4,0,0.5,0c0.1,0,0.1,0,0.1,0c0.5,0,1.2,0,1.9,0c0.2,0,0.4-0.1,0.4-0.1c0.1-0.1,0.1-0.3,0.2-0.7
		c0-0.4,0.1-0.6,0.2-0.6c0.1,0,0.1,0,0.2,0c0,0,0,0.1,0,0.1c0,0,0,0.1,0,0.2c0,0.2,0,0.7,0,1.6c0,0.2,0,0.5,0,0.8c0,0.3,0,0.5,0,0.5
		c0,0,0,0.1,0,0.2c0,0-0.1,0-0.1,0h0c-0.1-0.1-0.1-0.3-0.2-0.6c-0.1-0.5-0.3-0.8-0.4-0.9c-0.1-0.1-0.4-0.2-0.7-0.2
		c-0.1,0-0.2,0-0.4,0c-0.2,0-0.4,0-0.8,0h-0.5c-0.7,0-1.1,0-1.3,0l0,0.2l0,1.3l0,0.8l0,0.8c0,0.5,0,0.8,0.1,0.8
		c0.1,0.1,0.3,0.2,0.5,0.2l0.4,0c0,0,0.2,0,0.4,0c0.3,0,0.6,0,1,0c0.9,0,1.5,0,1.8-0.1c0.3-0.1,0.6-0.2,0.7-0.4
		c0.2-0.2,0.4-0.6,0.7-1.3c0.1-0.2,0.2-0.3,0.3-0.3c0,0,0.1,0,0.1,0.1c-0.1,0.5-0.2,0.8-0.2,0.9c-0.1,0.3-0.1,0.7-0.1,1
		c0,0.2,0,0.3-0.1,0.4h-0.2l-2,0l-0.9,0l-2.1,0h-0.9c-0.1,0-0.2,0-0.3,0c-0.9,0-1.5,0.1-1.9,0.1c-0.1,0-0.1,0-0.1,0
		C99.2,57.8,99.2,57.8,99.2,57.7L99.2,57.7L99.2,57.7z"/>
	<path fill="#FFFFFF" d="M42.8,66.8C42.8,66.7,42.8,66.7,42.8,66.8c0.1,0,0.1-0.1,0.2-0.1c0.2,0,0.3,0,0.4-0.1c0,0,0-0.1,0-0.2
		l0-0.2l0-0.8l0-0.4l0-0.8l0-0.9c0-0.2,0-0.3,0-0.4c0,0-0.1-0.1-0.3-0.1c-0.1,0-0.1,0-0.2,0c0,0,0,0,0-0.1c0,0,0,0,0-0.1
		c0,0,0,0,0,0c0,0,0.1,0,0.1,0c0.1,0,0.2,0,0.4,0l0.2,0l0.5,0c0.3,0,0.5,0,0.6,0c0.2,0,0.3,0,0.3,0c0,0,0.2,0,0.3,0l0.4,0l0.1,0
		l0.3,0l0,0c0,0,0,0,0,0.1c0,0,0,0.1,0,0.1c0,0.1,0,0.1,0,0.1c0,0.2,0,0.4,0,0.5c0,0,0,0,0,0c0,0,0,0-0.1,0c0,0-0.1-0.1-0.1-0.2
		c0-0.1-0.1-0.2-0.2-0.3c-0.1-0.1-0.1-0.1-0.1-0.2c0,0-0.1,0-0.2,0c0,0-0.1,0-0.3,0c0,0-0.1,0-0.1,0l-0.9,0h-0.1c-0.1,0-0.2,0-0.2,0
		c0,0-0.1,0.2-0.1,0.4c0,0,0,0.3,0,0.7v0.4c0,0,0,0,0.1,0H44c0,0,0.1,0,0.2,0c0.1,0,0.2,0,0.2,0c0,0,0,0,0.1,0c0.2,0,0.5,0,0.8,0
		c0.1,0,0.2,0,0.2-0.1c0,0,0.1-0.1,0.1-0.3c0-0.2,0-0.2,0.1-0.3c0,0,0.1,0,0.1,0c0,0,0,0,0,0c0,0,0,0,0,0.1c0,0.1,0,0.3,0,0.7
		c0,0.1,0,0.2,0,0.4c0,0.1,0,0.2,0,0.2c0,0,0,0,0,0.1c0,0,0,0,0,0h0c0-0.1-0.1-0.1-0.1-0.3c-0.1-0.2-0.1-0.3-0.2-0.4
		c-0.1-0.1-0.2-0.1-0.3-0.1c0,0-0.1,0-0.2,0c-0.1,0-0.2,0-0.3,0h-0.2c-0.3,0-0.5,0-0.6,0l0,0.1l0,0.6l0,0.4l0,0.3c0,0.2,0,0.3,0,0.4
		c0,0,0.1,0.1,0.2,0.1l0.2,0c0,0,0.1,0,0.2,0c0.1,0,0.2,0,0.4,0c0.4,0,0.7,0,0.8-0.1c0.1,0,0.2-0.1,0.3-0.2c0.1-0.1,0.2-0.3,0.3-0.6
		c0-0.1,0.1-0.1,0.1-0.1c0,0,0,0,0.1,0c-0.1,0.2-0.1,0.3-0.1,0.4c0,0.1,0,0.3,0,0.4c0,0.1,0,0.1,0,0.2h-0.1l-0.9,0l-0.4,0l-0.9,0
		h-0.4c0,0-0.1,0-0.1,0C43.3,66.8,43,66.9,42.8,66.8C42.8,66.9,42.8,66.9,42.8,66.8C42.8,66.8,42.8,66.8,42.8,66.8L42.8,66.8
		L42.8,66.8z M47.1,66.1c0.1,0.2,0.1,0.3,0.2,0.4c0.1,0.1,0.2,0.2,0.3,0.3c0.1,0.1,0.2,0.1,0.4,0.1c0.1,0,0.2,0,0.3-0.2
		c0.1-0.1,0.1-0.2,0.1-0.3c0-0.1,0-0.3-0.1-0.4c-0.1-0.1-0.3-0.2-0.5-0.3c-0.3-0.1-0.4-0.2-0.5-0.3c-0.1-0.1-0.1-0.2-0.1-0.4
		c0-0.1,0-0.3,0.1-0.4c0.1-0.1,0.2-0.2,0.3-0.2c0.1-0.1,0.3-0.1,0.4-0.1c0.1,0,0.3,0,0.4,0c0.1,0,0.2,0.1,0.3,0.1c0,0.1,0,0.3,0,0.5
		l0,0.1c0,0,0,0-0.1,0h0c-0.1-0.2-0.2-0.3-0.3-0.4c-0.1-0.1-0.2-0.1-0.4-0.1c-0.1,0-0.2,0-0.3,0.1c-0.1,0.1-0.1,0.2-0.1,0.3
		c0,0.1,0,0.2,0.1,0.2c0.1,0.1,0.2,0.2,0.4,0.2c0.2,0.1,0.4,0.2,0.5,0.3c0.1,0.1,0.2,0.2,0.2,0.3c0,0.1,0.1,0.2,0.1,0.3
		c0,0.1,0,0.3-0.1,0.4c-0.1,0.1-0.2,0.2-0.3,0.3c-0.1,0-0.3,0.1-0.4,0.1c-0.3,0-0.5,0-0.7-0.1c0,0,0,0,0-0.1c0,0,0,0,0-0.1
		C47.1,66.3,47.1,66.2,47.1,66.1C47.1,66.1,47.1,66.1,47.1,66.1C47.1,66.1,47.1,66.1,47.1,66.1L47.1,66.1z M49.9,63.8L49.9,63.8
		l0.1,0.3l0,0.4c0,0,0.1,0,0.1,0c0.1,0,0.2,0,0.3,0c0.1,0,0.2,0,0.3,0c0,0,0.1,0,0.2,0c0,0,0,0.1,0,0.1c0,0,0,0.1,0,0.1h-0.1l-0.5,0
		l-0.2,0l-0.1,0c0,0.1,0,0.1,0,0.2l0,0.5l0,0.8c0,0.2,0,0.4,0.1,0.4c0.1,0.1,0.1,0.1,0.2,0.1c0.1,0,0.2,0,0.3,0c0,0,0.1,0,0.2-0.1h0
		c0,0,0,0,0,0c0,0,0,0,0,0l0,0c-0.1,0.1-0.2,0.2-0.3,0.2c-0.1,0-0.3,0.1-0.5,0.1c-0.1,0-0.2,0-0.3-0.1c-0.1-0.1-0.1-0.1-0.2-0.2
		c0-0.1,0-0.3,0-0.5l0-0.7l0-0.3v-0.1c0-0.1,0-0.1,0-0.2l-0.1,0l-0.3,0l0,0c0,0,0,0-0.1,0c0,0,0,0,0,0c0,0,0,0,0-0.1
		c0,0,0.1,0,0.1-0.1c0.1,0,0.1-0.1,0.2-0.1c0.1-0.1,0.1-0.1,0.2-0.2c0,0,0.1-0.1,0.1-0.2C49.8,63.9,49.8,63.8,49.9,63.8L49.9,63.8z
		 M51.2,66.6c0-0.1,0-0.2,0.1-0.2c0.1-0.1,0.1-0.1,0.2-0.1c0.1,0,0.2,0,0.2,0.1c0.1,0.1,0.1,0.1,0.1,0.2c0,0.1,0,0.2-0.1,0.2
		c-0.1,0.1-0.1,0.1-0.2,0.1c-0.1,0-0.2,0-0.2-0.1C51.2,66.7,51.2,66.7,51.2,66.6L51.2,66.6z M56.4,66.8c-0.3,0-0.7,0-1.2,0l-0.7,0
		l-0.3,0l-0.2,0c0,0-0.1,0-0.1,0c0-0.1,0.1-0.2,0.1-0.2c0.2-0.2,0.4-0.5,0.7-0.8c0.5-0.5,0.8-0.8,0.9-1.1c0.1-0.3,0.2-0.5,0.2-0.7
		c0-0.2-0.1-0.4-0.2-0.5c-0.1-0.1-0.3-0.2-0.5-0.2c-0.1,0-0.3,0-0.4,0.1c-0.1,0.1-0.2,0.1-0.3,0.2c0,0.1-0.1,0.2-0.2,0.4
		c0,0.1-0.1,0.2-0.1,0.2c0,0,0,0,0,0c0,0,0,0,0,0c0,0,0,0,0-0.1c0-0.1,0-0.2,0.1-0.4c0.1-0.2,0.2-0.4,0.4-0.5
		c0.2-0.1,0.4-0.2,0.6-0.2c0.3,0,0.6,0.1,0.8,0.3c0.2,0.2,0.3,0.4,0.3,0.7c0,0.2-0.1,0.4-0.2,0.7c-0.1,0.2-0.5,0.6-1,1.1
		c-0.2,0.2-0.3,0.3-0.4,0.3c-0.1,0.1-0.2,0.2-0.4,0.5c0.3,0,0.6,0,0.8,0c0.1,0,0.1,0,0.2,0c0.1,0,0.2,0,0.2,0l0.4,0
		c0,0,0.1,0,0.1-0.1c0,0,0.1-0.2,0.2-0.4l0.1,0c0,0,0,0,0,0c0,0,0,0,0,0l0,0c0,0.1,0,0.2,0,0.3C56.4,66.5,56.4,66.6,56.4,66.8
		L56.4,66.8z M59.4,64.9c0,0.2,0,0.4,0,0.6c-0.1,0.3-0.1,0.5-0.2,0.7c-0.1,0.2-0.2,0.3-0.3,0.5c-0.1,0.1-0.2,0.2-0.3,0.2
		c-0.1,0-0.2,0.1-0.3,0.1c-0.2,0-0.4-0.1-0.6-0.2c-0.2-0.1-0.3-0.4-0.5-0.7c-0.1-0.3-0.2-0.7-0.2-1.1c0-0.3,0-0.6,0.1-0.9
		c0.1-0.3,0.2-0.5,0.3-0.7c0.1-0.2,0.3-0.3,0.4-0.4c0.1-0.1,0.3-0.1,0.4-0.1c0.2,0,0.4,0.1,0.6,0.3c0.2,0.2,0.4,0.4,0.5,0.8
		C59.4,64.1,59.4,64.5,59.4,64.9L59.4,64.9z M58.9,64.8c0-0.5,0-0.8-0.1-1c-0.1-0.3-0.1-0.5-0.3-0.6C58.5,63,58.3,63,58.2,63
		c-0.1,0-0.3,0-0.4,0.1c-0.1,0.1-0.2,0.2-0.3,0.4c-0.1,0.3-0.1,0.8-0.1,1.5c0,0.7,0.1,1.1,0.2,1.4c0.1,0.3,0.3,0.4,0.6,0.4
		c0.2,0,0.3-0.1,0.5-0.2c0.1-0.1,0.2-0.3,0.3-0.6c0.1-0.3,0.1-0.6,0.1-1L58.9,64.8L58.9,64.8z M62.3,64.9c0,0.2,0,0.4,0,0.6
		c-0.1,0.3-0.1,0.5-0.2,0.7c-0.1,0.2-0.2,0.3-0.3,0.5c-0.1,0.1-0.2,0.2-0.3,0.2c-0.1,0-0.2,0.1-0.3,0.1c-0.2,0-0.4-0.1-0.6-0.2
		c-0.2-0.1-0.3-0.4-0.5-0.7c-0.1-0.3-0.2-0.7-0.2-1.1c0-0.3,0-0.6,0.1-0.9c0.1-0.3,0.2-0.5,0.3-0.7c0.1-0.2,0.3-0.3,0.4-0.4
		c0.1-0.1,0.3-0.1,0.4-0.1c0.2,0,0.4,0.1,0.6,0.3c0.2,0.2,0.4,0.4,0.5,0.8C62.3,64.1,62.3,64.5,62.3,64.9L62.3,64.9z M61.9,64.8
		c0-0.5,0-0.8-0.1-1c-0.1-0.3-0.1-0.5-0.3-0.6C61.4,63,61.3,63,61.1,63c-0.1,0-0.3,0-0.4,0.1c-0.1,0.1-0.2,0.2-0.3,0.4
		c-0.1,0.3-0.1,0.8-0.1,1.5c0,0.7,0.1,1.1,0.2,1.4c0.1,0.3,0.3,0.4,0.6,0.4c0.2,0,0.3-0.1,0.5-0.2c0.1-0.1,0.2-0.3,0.3-0.6
		c0.1-0.3,0.1-0.6,0.1-1L61.9,64.8L61.9,64.8z M65.2,66.8c-0.3,0-0.7,0-1.2,0l-0.7,0l-0.3,0l-0.2,0c0,0-0.1,0-0.1,0
		c0-0.1,0.1-0.2,0.1-0.2c0.2-0.2,0.4-0.5,0.7-0.8c0.5-0.5,0.8-0.8,0.9-1.1c0.1-0.3,0.2-0.5,0.2-0.7c0-0.2-0.1-0.4-0.2-0.5
		c-0.1-0.1-0.3-0.2-0.5-0.2c-0.1,0-0.3,0-0.4,0.1c-0.1,0.1-0.2,0.1-0.3,0.2c0,0.1-0.1,0.2-0.2,0.4C63,63.9,63,64,63,64c0,0,0,0,0,0
		c0,0,0,0,0,0c0,0,0,0,0-0.1c0-0.1,0-0.2,0.1-0.4c0.1-0.2,0.2-0.4,0.4-0.5c0.2-0.1,0.4-0.2,0.6-0.2c0.3,0,0.6,0.1,0.8,0.3
		c0.2,0.2,0.3,0.4,0.3,0.7c0,0.2-0.1,0.4-0.2,0.7c-0.1,0.2-0.5,0.6-1,1.1c-0.2,0.2-0.3,0.3-0.4,0.3c-0.1,0.1-0.2,0.2-0.4,0.5
		c0.3,0,0.6,0,0.8,0c0.1,0,0.1,0,0.2,0c0.1,0,0.2,0,0.2,0l0.4,0c0,0,0.1,0,0.1-0.1c0,0,0.1-0.2,0.2-0.4l0.1,0c0,0,0,0,0,0
		c0,0,0,0,0,0l0,0c0,0.1,0,0.2,0,0.3C65.2,66.5,65.2,66.6,65.2,66.8L65.2,66.8z"/>
</g>
</svg>
