<?xml version="1.0" encoding="utf-8"?>
<!-- Generator: Adobe Illustrator 18.1.1, SVG Export Plug-In . SVG Version: 6.00 Build 0)  -->
<svg version="1.1" id="Слой_1" xmlns="http://www.w3.org/2000/svg" xmlns:xlink="http://www.w3.org/1999/xlink" x="0px" y="0px"
	 viewBox="0 0 54.563 62.752" enable-background="new 0 0 54.563 62.752" xml:space="preserve">
<g>
	<path fill="none" d="M28.766,16.532v30.903c1.311-0.767,2.827-1.216,4.453-1.216h16.328V12.079H33.219
		C30.763,12.079,28.766,14.077,28.766,16.532z M45.094,38.798H33.219v-2.969h11.875V38.798z M45.094,32.86H33.219v-2.969h11.875
		V32.86z M45.094,26.923H33.219v-2.969h11.875V26.923z M45.094,20.985H33.219v-2.969h11.875V20.985z"/>
	<path fill="none" d="M25.797,16.532c0-2.456-1.998-4.453-4.453-4.453H5.016V46.22h16.328c1.626,0,3.143,0.449,4.453,1.216V16.532z
		 M21.344,38.798H9.469v-2.969h11.875V38.798z M21.344,32.86H9.469v-2.969h11.875V32.86z M21.344,26.923H9.469v-2.969h11.875V26.923
		z M21.344,20.985H9.469v-2.969h11.875V20.985z"/>
	<path d="M33.219,7.626c-2.282,0-4.36,0.87-5.938,2.287c-1.578-1.417-3.655-2.287-5.938-2.287H0.563v43.047h20.781
		c2.456,0,4.453,1.998,4.453,4.453h1.484h1.484c0-2.456,1.998-4.453,4.453-4.453H54V7.626H33.219z M21.344,46.22H5.016V12.079
		h16.328c2.456,0,4.453,1.998,4.453,4.453v30.903C24.487,46.668,22.97,46.22,21.344,46.22z M49.547,46.22H33.219
		c-1.626,0-3.143,0.449-4.453,1.216V16.532c0-2.456,1.998-4.453,4.453-4.453h16.328V46.22z"/>
	<rect x="9.469" y="18.017" width="11.875" height="2.969"/>
	<rect x="9.469" y="23.954" width="11.875" height="2.969"/>
	<rect x="9.469" y="29.892" width="11.875" height="2.969"/>
	<rect x="9.469" y="35.829" width="11.875" height="2.969"/>
	<rect x="33.219" y="35.829" width="11.875" height="2.969"/>
	<rect x="33.219" y="29.892" width="11.875" height="2.969"/>
	<rect x="33.219" y="23.954" width="11.875" height="2.969"/>
	<rect x="33.219" y="18.017" width="11.875" height="2.969"/>
</g>
</svg>
