<?xml version="1.0" encoding="utf-8"?>
<!-- Generator: Adobe Illustrator 18.1.1, SVG Export Plug-In . SVG Version: 6.00 Build 0)  -->
<svg version="1.1" id="Слой_1" xmlns="http://www.w3.org/2000/svg" xmlns:xlink="http://www.w3.org/1999/xlink" x="0px" y="0px"
	 viewBox="0 0 47.063 62.752" enable-background="new 0 0 47.063 62.752" xml:space="preserve">
<g>
	<path fill="none" d="M39.078,20.772c-0.75,2.178-1.847,4.238-3.258,6.077l-4.857,6.331l-1.946-7.738
		c-0.634-2.52-1.576-4.939-2.798-7.207c-0.985,2.852-2.575,5.486-4.702,7.732l-4.247,4.484l-2.167-5.783
		c-0.5-1.334-1.083-2.622-1.746-3.858c-1.049,3.033-2.785,5.821-5.127,8.175c-2.573,2.586-3.99,6.019-3.99,9.666
		c0,6.625,5.39,12.015,12.015,12.015h11.536c8.287,0,15.029-6.742,15.029-15.029C42.821,30.361,41.524,25.285,39.078,20.772z
		 M36.9,39.48c0.516-1.218,0.777-2.51,0.777-3.842c0-0.867-0.042-1.733-0.127-2.593l-2.315,3.018
		c-1.247,1.625-3.266,2.378-5.274,1.962c-2.006-0.415-3.563-1.907-4.062-3.894l-1.055-4.196l-3.69,3.897
		c-1.26,1.33-3.084,1.907-4.88,1.543c-1.786-0.362-3.236-1.592-3.884-3.293c-0.169,0.179-0.34,0.356-0.513,0.53
		c-1.607,1.615-2.492,3.759-2.492,6.038H6.813c0-2.964,1.151-5.752,3.241-7.852c0.627-0.629,1.225-1.299,1.78-1.991l1.414-1.764
		l1.54,4.11c0.334,0.893,1.062,1.513,1.997,1.702c0.934,0.189,1.846-0.099,2.502-0.791l4.099-4.329
		c0.386-0.407,0.763-0.835,1.124-1.272l1.618-1.967l2.266,9.008c0.261,1.037,1.042,1.786,2.089,2.002
		c1.048,0.218,2.061-0.161,2.712-1.009l5.843-7.617l0.58,2.728c0.419,1.968,0.631,3.996,0.631,6.029c0,1.679-0.33,3.309-0.981,4.846
		L36.9,39.48z"/>
	<path d="M36.391,10.8v3.013c0,3.886-1.292,7.637-3.632,10.687c-1.536-6.108-4.7-11.745-9.228-16.273v3.013
		c0,4.498-1.73,8.815-4.814,12.072c-1.744-4.653-4.464-8.932-8.046-12.514v3.013c0,4.673-1.879,9.137-5.175,12.45
		c-3.274,3.291-5.113,7.744-5.113,12.388c0,8.767,7.107,15.873,15.873,15.873h11.536c10.431,0,18.887-8.456,18.887-18.887
		C46.679,26.322,42.979,17.387,36.391,10.8z M27.793,50.666H16.256c-6.625,0-12.015-5.39-12.015-12.015
		c0-3.648,1.417-7.081,3.99-9.666c2.343-2.354,4.078-5.142,5.127-8.175c0.663,1.236,1.246,2.524,1.746,3.858l2.167,5.783
		l4.247-4.484c2.127-2.246,3.716-4.879,4.702-7.732c1.222,2.268,2.164,4.687,2.798,7.207l1.946,7.738l4.857-6.331
		c1.411-1.839,2.509-3.899,3.258-6.077c2.445,4.513,3.743,9.589,3.743,14.866C42.821,43.924,36.079,50.666,27.793,50.666z"/>
	<path d="M39.618,29.609l-0.58-2.728l-5.843,7.617c-0.651,0.848-1.664,1.227-2.712,1.009c-1.047-0.216-1.828-0.965-2.089-2.002
		l-2.266-9.008l-1.618,1.967c-0.36,0.437-0.738,0.865-1.124,1.272l-4.099,4.329c-0.656,0.692-1.568,0.98-2.502,0.791
		c-0.934-0.189-1.662-0.81-1.997-1.702l-1.54-4.11l-1.414,1.764c-0.554,0.692-1.153,1.362-1.78,1.991
		c-2.09,2.1-3.241,4.889-3.241,7.852h2.572c0-2.279,0.885-4.423,2.492-6.038c0.173-0.174,0.344-0.351,0.513-0.53
		c0.648,1.701,2.098,2.931,3.884,3.293c1.796,0.363,3.62-0.214,4.88-1.543l3.69-3.897l1.055,4.196
		c0.5,1.987,2.056,3.479,4.062,3.894c2.008,0.416,4.027-0.337,5.274-1.962l2.315-3.018c0.084,0.86,0.127,1.726,0.127,2.593
		c0,1.332-0.261,2.625-0.777,3.842l2.369,1.003c0.651-1.537,0.981-3.167,0.981-4.846C40.249,33.605,40.037,31.577,39.618,29.609z"/>
</g>
</svg>
