<?xml version="1.0" encoding="utf-8"?>
<!-- Generator: Adobe Illustrator 18.1.1, SVG Export Plug-In . SVG Version: 6.00 Build 0)  -->
<svg version="1.1" id="Слой_1" xmlns="http://www.w3.org/2000/svg" xmlns:xlink="http://www.w3.org/1999/xlink" x="0px" y="0px"
	 viewBox="0 0 68.167 62.752" enable-background="new 0 0 68.167 62.752" xml:space="preserve">
<g>
	<path fill="none" d="M32.394,40.422c0-0.601-0.225-1.126-0.601-1.501c-0.45-0.375-0.976-0.601-1.501-0.601
		c-0.525,0-1.126,0.225-1.501,0.601l-5.63,5.63c-0.375,0.375-0.601,0.976-0.601,1.501c0,0.601,0.225,1.126,0.601,1.501
		c0.826,0.826,2.177,0.826,3.003,0l5.63-5.63C32.169,41.549,32.394,40.948,32.394,40.422z"/>
	<path fill="none" d="M26.764,34.792c0-0.601-0.225-1.126-0.601-1.501c-0.45-0.375-0.976-0.601-1.501-0.601
		c-0.526,0-1.126,0.225-1.501,0.601l-3.754,3.754l-1.877,1.877l-1.877,1.877c-0.375,0.375-0.601,0.976-0.601,1.501
		c0,0.601,0.225,1.126,0.601,1.501c0.826,0.826,2.177,0.826,3.003,0l7.508-7.507C26.538,35.918,26.764,35.317,26.764,34.792z"/>
	<path fill="none" d="M16.779,34.417c0.375-0.375,0.601-0.976,0.601-1.501c0-0.601-0.225-1.126-0.601-1.501
		s-0.901-0.601-1.501-0.601s-1.126,0.225-1.501,0.601l-1.877,1.877c-0.375,0.375-0.601,0.976-0.601,1.501
		c0,0.601,0.225,1.126,0.601,1.501c0.826,0.751,2.177,0.751,3.003,0l0.601-0.601L16.779,34.417z"/>
	<path fill="none" d="M34.046,44.927l-3.003,3.003l1.727,1.652c0.676,0.751,1.877,0.751,2.627,0c0.901-0.901,0.901-2.402,0-3.303
		L34.046,44.927z"/>
	<path d="M66.027,33.29h-5.706c-0.3-0.976-0.751-1.877-1.501-2.628l-4.354-4.279l-9.76-9.534c-0.375-0.375-0.826-0.526-1.276-0.526
		h-9.384c-0.525,0-0.976,0.225-1.351,0.526c-1.877,1.877-4.805,2.252-7.057,1.126l5.405-5.405h15.39l6.982,6.982
		c0.375,0.375,0.826,0.526,1.351,0.526h8.558h2.628c1.051,0,1.877-0.826,1.877-1.877s-0.826-1.877-1.877-1.877h-10.51L48.46,9.342
		c-0.375-0.375-0.826-0.526-1.351-0.526H30.292h-9.384c-0.526,0-0.976,0.225-1.351,0.526l-5.706,5.706l-1.201,1.276H9.197H2.139
		c-1.051,0-1.877,0.826-1.877,1.877s0.826,1.877,1.877,1.877h11.261c0.525,0,0.976-0.225,1.351-0.526l6.381-6.381l0.601-0.601h1.577
		h2.477l-4.279,4.279c-0.751,0.751-0.751,1.952,0,2.628c3.678,3.679,9.459,3.829,13.288,0.526h7.883l8.633,8.558l4.88,4.73
		c0.375,0.375,0.601,0.901,0.601,1.501c0,0.526-0.225,1.126-0.601,1.501c-0.826,0.826-2.177,0.826-3.003,0l-5.33-5.33l-3.153-3.153
		c-0.751-0.751-1.952-0.751-2.627,0c-0.375,0.375-0.526,0.826-0.526,1.351s0.15,0.976,0.526,1.351l2.703,2.703l5.781,5.781
		c0.375,0.375,0.601,0.901,0.601,1.501c0,0.526-0.225,1.126-0.601,1.501c-0.826,0.826-2.177,0.826-3.003,0l-6.306-6.306
		l-2.177-2.177c-0.751-0.751-1.952-0.751-2.628,0c-0.375,0.375-0.525,0.826-0.525,1.351s0.15,0.976,0.525,1.351l1.727,1.727
		l4.88,4.88c0.375,0.375,0.601,0.901,0.601,1.501c0,0.526-0.225,1.126-0.601,1.501c-0.826,0.826-2.177,0.826-3.003,0l-2.027-2.027
		c0,0,0,0-0.075-0.075l-2.027-2.027c0.075-0.375,0.15-0.826,0.15-1.201s0-0.751-0.075-1.051c-0.225-1.126-0.751-2.177-1.576-3.078
		c-1.051-1.051-2.478-1.652-3.904-1.727c-0.075-1.501-0.676-2.853-1.727-3.904c-1.126-1.126-2.552-1.727-4.129-1.727
		c-1.501,0-2.928,0.601-4.054,1.577c-0.3-0.676-0.676-1.276-1.201-1.802c-2.252-2.252-6.006-2.252-8.258,0l-1.877,1.877
		c-0.751,0.751-1.201,1.652-1.501,2.552H2.139c-1.051,0-1.877,0.826-1.877,1.877s0.826,1.877,1.877,1.877h5.856
		c0.3,0.751,0.75,1.351,1.276,1.952c0.676,0.676,1.501,1.126,2.402,1.426c-0.225,0.601-0.3,1.276-0.3,1.952
		c0,1.577,0.601,3.003,1.727,4.129c1.126,1.126,2.627,1.727,4.129,1.727c0.676,0,1.276-0.15,1.952-0.3
		c0.3,0.901,0.751,1.727,1.427,2.402c1.126,1.126,2.627,1.727,4.129,1.727c1.351,0,2.628-0.45,3.754-1.351l1.652,1.652
		c1.126,1.126,2.552,1.652,3.979,1.652c1.426,0,2.853-0.526,3.979-1.652c0.751-0.751,1.276-1.577,1.501-2.552
		c2.102,0.751,4.504,0.3,6.156-1.351c0.676-0.676,1.126-1.501,1.427-2.327c2.027,0.676,4.429,0.225,6.081-1.426
		c1.051-1.051,1.652-2.477,1.727-3.904c1.426-0.075,2.853-0.601,3.904-1.727c0.601-0.601,0.976-1.201,1.276-1.952h5.856
		c1.051,0,1.877-0.826,1.877-1.877S67.078,33.29,66.027,33.29z M11.899,36.293c-0.375-0.375-0.601-0.901-0.601-1.501
		c0-0.526,0.225-1.126,0.601-1.501l1.877-1.877c0.375-0.375,0.901-0.601,1.501-0.601s1.126,0.225,1.501,0.601
		s0.601,0.901,0.601,1.501c0,0.526-0.225,1.126-0.601,1.501l-1.276,1.276l-0.601,0.601C14.076,37.044,12.725,37.044,11.899,36.293z
		 M18.656,43.801c-0.826,0.826-2.177,0.826-3.003,0c-0.375-0.375-0.601-0.901-0.601-1.501c0-0.526,0.225-1.126,0.601-1.501
		l1.877-1.877l1.877-1.877l3.754-3.754c0.375-0.375,0.976-0.601,1.501-0.601c0.525,0,1.051,0.225,1.501,0.601
		c0.375,0.375,0.601,0.901,0.601,1.501c0,0.526-0.225,1.126-0.601,1.501L18.656,43.801z M26.163,47.554
		c-0.826,0.826-2.177,0.826-3.003,0c-0.375-0.375-0.601-0.901-0.601-1.501c0-0.526,0.225-1.126,0.601-1.501l5.63-5.63
		c0.375-0.375,0.976-0.601,1.501-0.601c0.526,0,1.051,0.225,1.501,0.601c0.375,0.375,0.601,0.901,0.601,1.501
		c0,0.526-0.225,1.126-0.601,1.501L26.163,47.554z M35.397,49.581c-0.751,0.751-1.952,0.751-2.627,0l-1.727-1.652l3.003-3.003
		l1.351,1.351C36.298,47.179,36.298,48.68,35.397,49.581z"/>
</g>
</svg>
