<?xml version="1.0" encoding="utf-8"?>
<!-- Generator: Adobe Illustrator 18.1.1, SVG Export Plug-In . SVG Version: 6.00 Build 0)  -->
<svg version="1.1" id="Слой_1" xmlns="http://www.w3.org/2000/svg" xmlns:xlink="http://www.w3.org/1999/xlink" x="0px" y="0px"
	 viewBox="0 0 50.813 62.752" enable-background="new 0 0 50.813 62.752" xml:space="preserve">
<g>
	<path d="M50.4,32.847c0-3.243-2.638-5.881-5.881-5.881H33.262c0.174-0.559,0.393-1.103,0.656-1.626
		c1.165-2.33,1.781-4.938,1.781-7.542v-5.534c0-3.243-2.638-5.881-5.881-5.881s-5.882,2.638-5.882,5.881
		c0,3.314-0.901,6.569-2.606,9.41l-4.284,7.139c-0.404,0.675-1.145,1.094-1.931,1.094H6.293c-3.243,0-5.881,2.638-5.881,5.881
		v14.702c0,3.243,2.638,5.881,5.881,5.881h32.345c3.243,0,5.881-2.638,5.881-5.881c0-0.258-0.017-0.512-0.049-0.761
		c1.784-1.011,2.989-2.927,2.989-5.12c0-0.258-0.017-0.512-0.049-0.761c1.783-1.011,2.989-2.927,2.989-5.12
		c0-1.07-0.288-2.075-0.789-2.941C50.112,34.921,50.4,33.916,50.4,32.847z M10.703,51.96h-4.41c-0.811,0-1.47-0.66-1.47-1.47V35.787
		c0-0.81,0.66-1.47,1.47-1.47h4.411V51.96H10.703z M13.644,34.317h1.47c2.327,0,4.517-1.239,5.713-3.236l4.284-7.138
		c2.117-3.527,3.235-7.566,3.235-11.68c0-0.81,0.659-1.47,1.47-1.47c0.811,0,1.47,0.66,1.47,1.47v5.534
		c0,1.923-0.455,3.849-1.316,5.571c-1.063,2.126-1.625,4.507-1.625,6.886v2.593c0,0.581,0.119,1.132,0.324,1.64
		c-1.874,0.508-3.265,2.207-3.265,4.24c0,1.134,0.442,2.159,1.147,2.941c-0.706,0.782-1.147,1.807-1.147,2.941
		s0.442,2.159,1.147,2.941c-0.706,0.782-1.147,1.807-1.147,2.941c0,0.518,0.106,1.008,0.271,1.47H13.642V34.317H13.644z
		 M44.519,34.317H32.758c-0.811,0-1.47-0.66-1.47-1.47s0.659-1.47,1.47-1.47h11.762c0.811,0,1.47,0.66,1.47,1.47
		S45.33,34.317,44.519,34.317z M43.049,44.608c0,0.81-0.659,1.47-1.47,1.47h-2.941h-8.822c-0.811,0-1.47-0.66-1.47-1.47
		s0.659-1.47,1.47-1.47h11.762C42.389,43.138,43.049,43.798,43.049,44.608z M28.347,50.489c0-0.81,0.659-1.47,1.47-1.47h8.822
		c0.811,0,1.47,0.66,1.47,1.47c0,0.81-0.659,1.47-1.47,1.47h-2.941h-5.881C29.005,51.96,28.347,51.3,28.347,50.489z M45.989,38.727
		c0,0.81-0.659,1.47-1.47,1.47h-2.941H29.817c-0.811,0-1.47-0.66-1.47-1.47s0.659-1.47,1.47-1.47h2.941h11.762
		C45.33,37.257,45.989,37.917,45.989,38.727z"/>
</g>
</svg>
