<?xml version="1.0" encoding="utf-8"?>
<!-- Generator: Adobe Illustrator 18.1.1, SVG Export Plug-In . SVG Version: 6.00 Build 0)  -->
<svg version="1.1" id="Слой_1" xmlns="http://www.w3.org/2000/svg" xmlns:xlink="http://www.w3.org/1999/xlink" x="0px" y="0px"
	 viewBox="0 0 45.688 62.752" enable-background="new 0 0 45.688 62.752" xml:space="preserve">
<g>
	<polygon fill="none" points="22.844,35.721 4.727,44.779 4.727,49.696 20.974,41.572 22.844,40.638 24.713,41.572 40.96,49.696 
		40.96,44.779 	"/>
	<path fill="none" d="M22.844,32.605l18.116,9.058V10.473H4.727v31.191L22.844,32.605z M27.158,17.626h2.09v10.869H26.79v-8.612
		h-0.033l-2.073,0.987l-0.418-1.906L27.158,17.626z M17.877,17.626h2.09v10.869h-2.458v-8.612h-0.033l-2.073,0.987l-0.418-1.906
		L17.877,17.626z"/>
	<path d="M0.547,6.292V56.46l22.297-11.148L45.141,56.46V6.292H0.547z M40.96,10.473v31.191l-18.116-9.058L4.727,41.663V10.473
		H40.96z M24.713,41.572l-1.87-0.935l-1.87,0.935L4.727,49.696v-4.916l18.116-9.058l18.116,9.058v4.916L24.713,41.572z"/>
	<polygon points="17.476,19.883 17.509,19.883 17.509,28.495 19.967,28.495 19.967,17.626 17.877,17.626 14.984,18.964 
		15.402,20.87 	"/>
	<polygon points="26.757,19.883 26.79,19.883 26.79,28.495 29.249,28.495 29.249,17.626 27.158,17.626 24.265,18.964 24.683,20.87 	
		"/>
</g>
</svg>
