<?xml version="1.0" encoding="utf-8"?>
<!-- Generator: Adobe Illustrator 18.1.1, SVG Export Plug-In . SVG Version: 6.00 Build 0)  -->
<svg version="1.1" id="Слой_1" xmlns="http://www.w3.org/2000/svg" xmlns:xlink="http://www.w3.org/1999/xlink" x="0px" y="0px"
	 viewBox="0 0 49.75 62.752" enable-background="new 0 0 49.75 62.752" xml:space="preserve">
<g>
	<path fill="none" d="M24.178,36.95V25.802c0-2.309,1.872-4.181,4.181-4.181h12.542v-9.755H4.668v39.02h36.233v-9.755H28.359
		C26.05,41.131,24.178,39.259,24.178,36.95z M32.54,14.653h5.574v2.787H32.54V14.653z M24.178,14.653h5.574v2.787h-5.574V14.653z
		 M13.03,48.099H7.455v-2.787h5.574V48.099z M13.03,17.441H7.455v-2.787h5.574V17.441z M21.391,48.099h-5.574v-2.787h5.574V48.099z
		 M21.391,17.441h-5.574v-2.787h5.574V17.441z M32.54,45.312h5.574v2.787H32.54V45.312z M29.753,48.099h-5.574v-2.787h5.574V48.099z
		"/>
	<path fill="none" d="M28.359,36.95h16.723V25.802H28.359V36.95z M33.933,28.589c1.539,0,2.787,1.248,2.787,2.787
		c0,1.539-1.248,2.787-2.787,2.787c-1.539,0-2.787-1.248-2.787-2.787C31.146,29.837,32.394,28.589,33.933,28.589z"/>
	<path d="M45.082,21.621v-9.755c0-2.309-1.872-4.181-4.181-4.181H4.668c-2.309,0-4.181,1.872-4.181,4.181v39.02
		c0,2.309,1.872,4.181,4.181,4.181h36.233c2.309,0,4.181-1.872,4.181-4.181v-9.755c2.309,0,4.181-1.872,4.181-4.181V25.802
		C49.262,23.493,47.391,21.621,45.082,21.621z M40.901,50.886H4.668v-39.02h36.233v9.755H28.359c-2.309,0-4.181,1.872-4.181,4.181
		V36.95c0,2.309,1.872,4.181,4.181,4.181h12.542V50.886z M45.082,36.95H28.359V25.802h16.723V36.95z"/>
	<circle cx="33.933" cy="31.376" r="2.787"/>
	<rect x="32.54" y="14.653" width="5.574" height="2.787"/>
	<rect x="24.178" y="14.653" width="5.574" height="2.787"/>
	<rect x="15.817" y="14.653" width="5.574" height="2.787"/>
	<rect x="7.455" y="14.653" width="5.574" height="2.787"/>
	<rect x="32.54" y="45.312" width="5.574" height="2.787"/>
	<rect x="24.178" y="45.312" width="5.574" height="2.787"/>
	<rect x="15.817" y="45.312" width="5.574" height="2.787"/>
	<rect x="7.455" y="45.312" width="5.574" height="2.787"/>
</g>
</svg>
