<?xml version="1.0" encoding="utf-8"?>
<!-- Generator: Adobe Illustrator 18.1.1, SVG Export Plug-In . SVG Version: 6.00 Build 0)  -->
<svg version="1.1" id="Слой_1" xmlns="http://www.w3.org/2000/svg" xmlns:xlink="http://www.w3.org/1999/xlink" x="0px" y="0px"
	 viewBox="0 0 53.438 62.752" enable-background="new 0 0 53.438 62.752" xml:space="preserve">
<g>
	<polygon fill="none" points="37.139,27.991 31.463,27.166 29.939,26.944 29.257,25.563 26.719,20.42 24.18,25.563 23.499,26.944 
		21.975,27.166 16.299,27.991 20.406,31.994 21.509,33.069 21.248,34.587 20.279,40.24 25.356,37.571 26.719,36.854 28.082,37.571 
		33.159,40.24 32.189,34.587 31.929,33.069 33.031,31.994 	"/>
	<path fill="none" d="M26.719,9.408c-12.113,0-21.968,9.855-21.968,21.968c0,12.113,9.855,21.968,21.968,21.968
		s21.968-9.855,21.968-21.968C48.687,19.263,38.832,9.408,26.719,9.408z M37.049,45.594l-10.33-5.431l-10.33,5.431l1.973-11.503
		l-8.357-8.146l11.549-1.678l5.165-10.465l5.165,10.465l11.549,1.678l-8.357,8.146L37.049,45.594z"/>
	<path d="M26.719,5.014c-14.559,0-26.362,11.803-26.362,26.362c0,14.559,11.802,26.362,26.362,26.362
		c14.559,0,26.362-11.803,26.362-26.362C53.08,16.817,41.278,5.014,26.719,5.014z M26.719,53.344
		c-12.113,0-21.968-9.855-21.968-21.968c0-12.113,9.855-21.968,21.968-21.968s21.968,9.855,21.968,21.968
		C48.687,43.489,38.832,53.344,26.719,53.344z"/>
	<path d="M31.884,24.267l-5.165-10.465l-5.165,10.465l-11.549,1.678l8.357,8.146l-1.973,11.503l10.33-5.431l10.33,5.431
		l-1.973-11.503l8.357-8.146L31.884,24.267z M32.189,34.587l0.97,5.653l-5.077-2.669l-1.363-0.717l-1.363,0.717l-5.077,2.669
		l0.969-5.653l0.26-1.518l-1.103-1.075l-4.107-4.004l5.676-0.825l1.524-0.221l0.681-1.381l2.538-5.143l2.539,5.143l0.681,1.381
		l1.524,0.221l5.676,0.825l-4.107,4.004l-1.103,1.075L32.189,34.587z"/>
</g>
</svg>
