<?xml version="1.0" encoding="utf-8"?>
<!-- Generator: Adobe Illustrator 18.1.1, SVG Export Plug-In . SVG Version: 6.00 Build 0)  -->
<svg version="1.1" id="Слой_1" xmlns="http://www.w3.org/2000/svg" xmlns:xlink="http://www.w3.org/1999/xlink" x="0px" y="0px"
	 viewBox="0 0 53.458 62.752" enable-background="new 0 0 53.458 62.752" xml:space="preserve">
<g>
	<path fill="none" d="M23.188,28.432l11.546-8.269c-2.323-1.39-5.038-2.192-7.937-2.192c-8.55,0-15.506,6.956-15.506,15.506
		s6.956,15.506,15.506,15.506c8.55,0,15.506-6.956,15.506-15.506c0-2.9-0.802-5.615-2.193-7.938l-8.269,11.546
		c-1.163,1.625-3.049,2.595-5.045,2.595c-3.42,0-6.203-2.782-6.203-6.203C20.594,31.481,21.564,29.595,23.188,28.432z"/>
	<path fill="none" d="M5.088,33.477c0,11.97,9.739,21.709,21.709,21.709c11.97,0,21.709-9.739,21.709-21.709
		c0-5.004-1.707-9.615-4.563-13.29l-1.896,2.648c2.113,3.018,3.358,6.687,3.358,10.642c0,10.26-8.347,18.608-18.608,18.608
		S8.189,43.738,8.189,33.477c0-10.26,8.347-18.608,18.608-18.608c3.955,0,7.624,1.244,10.642,3.357l2.648-1.896
		c-3.676-2.856-8.286-4.562-13.29-4.562C14.827,11.768,5.088,21.507,5.088,33.477z"/>
	<path fill="none" d="M23.696,33.477c0,1.71,1.391,3.101,3.101,3.101c0.998,0,1.941-0.486,2.524-1.299l10.915-15.242L24.995,30.953
		C24.181,31.536,23.696,32.479,23.696,33.477z"/>
	<path fill="none" d="M28.348,7.27V5.566h-3.101V7.26c0.491-0.027,0.985-0.044,1.483-0.044C27.273,7.216,27.812,7.238,28.348,7.27z"
		/>
	<path d="M46.712,16.322l1.504-2.1c0.442-0.617,0.373-1.463-0.164-1.999c-0.535-0.537-1.382-0.606-2-0.164l-2.117,1.516
		c-3.498-2.987-7.777-5.081-12.486-5.93V5.566h1.551c0.857,0,1.551-0.694,1.551-1.551c0-0.857-0.694-1.551-1.551-1.551H20.594
		c-0.856,0-1.551,0.694-1.551,1.551c0,0.857,0.694,1.551,1.551,1.551h1.551v2.055C9.692,9.8,0.194,20.685,0.194,33.753
		c0,14.632,11.903,26.535,26.535,26.535s26.535-11.903,26.535-26.535C53.264,27.085,50.787,20.989,46.712,16.322z M26.797,39.68
		c1.996,0,3.882-0.969,5.045-2.595l8.269-11.546c1.391,2.323,2.193,5.038,2.193,7.938c0,8.55-6.956,15.506-15.506,15.506
		c-8.55,0-15.506-6.956-15.506-15.506s6.956-15.506,15.506-15.506c2.899,0,5.614,0.802,7.937,2.192l-11.546,8.269
		c-1.624,1.163-2.594,3.049-2.594,5.045C20.594,36.897,23.377,39.68,26.797,39.68z M29.321,35.28
		c-0.582,0.813-1.526,1.299-2.524,1.299c-1.71,0-3.101-1.391-3.101-3.101c0-0.998,0.485-1.941,1.299-2.524l15.241-10.916
		L29.321,35.28z M37.439,18.226c-3.019-2.113-6.687-3.357-10.642-3.357c-10.26,0-18.608,8.347-18.608,18.608
		c0,10.26,8.347,18.608,18.608,18.608s18.608-8.347,18.608-18.608c0-3.955-1.244-7.624-3.358-10.642l1.896-2.648
		c2.856,3.676,4.563,8.286,4.563,13.29c0,11.97-9.739,21.709-21.709,21.709c-11.97,0-21.709-9.739-21.709-21.709
		c0-11.97,9.739-21.709,21.709-21.709c5.004,0,9.614,1.706,13.29,4.562L37.439,18.226z M25.246,5.566h3.101V7.27
		c-0.536-0.032-1.074-0.054-1.618-0.054c-0.498,0-0.992,0.016-1.483,0.044V5.566z"/>
</g>
</svg>
