<?xml version="1.0" encoding="utf-8"?>
<!-- Generator: Adobe Illustrator 18.1.1, SVG Export Plug-In . SVG Version: 6.00 Build 0)  -->
<svg version="1.1" id="Слой_1" xmlns="http://www.w3.org/2000/svg" xmlns:xlink="http://www.w3.org/1999/xlink" x="0px" y="0px"
	 viewBox="0 0 223.929 224.817" enable-background="new 0 0 223.929 224.817" xml:space="preserve">
<g>
	<path fill="#53A711" d="M89.747,0v111.962c0,30.213-8.15,55.094-24.435,74.644C49.011,206.156,27.242,218.902,0,224.817v-47.986
		c16.578-5.915,27.395-14.065,32.433-24.435c5.026-10.358,7.555-23.84,7.555-40.434V100.41H0V0H89.747z M223.929,0v111.962
		c0,30.213-8.15,55.094-24.439,74.644c-16.301,19.55-38.07,32.296-65.312,38.211v-47.986c16.578-5.915,27.242-14.065,31.99-24.435
		c4.733-10.358,7.109-23.84,7.109-40.434V100.41h-39.099V0H223.929z"/>
</g>
</svg>
