<?xml version="1.0" encoding="utf-8"?>
<!-- Generator: Adobe Illustrator 18.1.1, SVG Export Plug-In . SVG Version: 6.00 Build 0)  -->
<svg version="1.1" id="Слой_1" xmlns="http://www.w3.org/2000/svg" xmlns:xlink="http://www.w3.org/1999/xlink" x="0px" y="0px"
	 viewBox="0 0 800 800" enable-background="new 0 0 800 800" xml:space="preserve">
<g>
	<path fill="#FFFFFF" d="M320.94,0v398.411c0,107.511-29.001,196.049-86.951,265.617C175.983,733.596,98.519,778.952,1.58,800
		V629.244c58.992-21.048,97.484-50.05,115.411-86.951c17.885-36.858,26.884-84.833,26.884-143.882v-41.107H1.58V0H320.94z M798.42,0
		v398.411c0,107.511-29.001,196.049-86.965,265.617C653.449,733.596,575.985,778.952,479.046,800V629.244
		c58.992-21.048,96.939-50.05,113.835-86.951c16.842-36.858,25.297-84.833,25.297-143.882v-41.107H479.046V0H798.42z"/>
</g>
</svg>
