<?xml version="1.0" encoding="utf-8"?>
<!-- Generator: Adobe Illustrator 18.1.1, SVG Export Plug-In . SVG Version: 6.00 Build 0)  -->
<svg version="1.1" id="Слой_1" xmlns="http://www.w3.org/2000/svg" xmlns:xlink="http://www.w3.org/1999/xlink" x="0px" y="0px"
	 viewBox="0 0 79.833 80.105" enable-background="new 0 0 79.833 80.105" xml:space="preserve">
<g>
	<g>
		<path fill="#293A48" d="M79.833,61.061c-0.296,0.242-0.677,0.418-1.139,0.525c-0.464,0.107-0.958,0.17-1.485,0.188
			c-0.639,0.021-1.24-0.066-1.805-0.266s-1.063-0.516-1.493-0.947s-0.78-0.99-1.046-1.676c-0.268-0.686-0.417-1.506-0.449-2.457
			c-0.033-0.994,0.071-1.842,0.316-2.545s0.58-1.283,1.006-1.74c0.426-0.455,0.91-0.793,1.449-1.016
			c0.541-0.221,1.096-0.34,1.662-0.359c0.608-0.021,1.105-0.006,1.494,0.047c0.387,0.055,0.719,0.131,0.996,0.232l-0.266,1.135
			c-0.494-0.227-1.193-0.324-2.095-0.293c-0.415,0.014-0.823,0.104-1.224,0.27s-0.754,0.426-1.061,0.783
			c-0.309,0.355-0.549,0.814-0.723,1.377c-0.174,0.564-0.246,1.252-0.219,2.063c0.025,0.729,0.137,1.365,0.338,1.906
			s0.468,0.988,0.799,1.344c0.332,0.354,0.717,0.613,1.153,0.781s0.909,0.242,1.416,0.227c0.456-0.016,0.852-0.074,1.188-0.178
			c0.336-0.104,0.619-0.23,0.847-0.379L79.833,61.061z"/>
	</g>
	<g>
		<path fill="#293A48" d="M1.301,19.207l1.886-0.016c0.068-1.552,0.448-2.746,1.141-3.583c0.693-0.838,1.688-1.262,2.986-1.272
			c0.74-0.006,1.375,0.121,1.905,0.38c0.529,0.26,0.958,0.628,1.287,1.106c0.329,0.48,0.572,1.056,0.729,1.729
			c0.158,0.674,0.24,1.425,0.247,2.257c0.015,1.774-0.314,3.139-0.986,4.093c-0.671,0.954-1.702,1.437-3.091,1.447
			c-0.7,0.006-1.309-0.108-1.828-0.342c-0.519-0.234-0.95-0.57-1.293-1.009s-0.604-0.968-0.781-1.591
			c-0.178-0.622-0.285-1.318-0.321-2.089L1.31,20.332l0.04,4.883l-1.262,0.011L0,14.579l1.262-0.011L1.301,19.207z M4.53,19.865
			c0.005,0.588,0.06,1.146,0.166,1.672c0.105,0.526,0.271,0.989,0.497,1.388c0.226,0.398,0.519,0.715,0.88,0.95
			s0.804,0.352,1.33,0.347c0.94-0.008,1.635-0.368,2.084-1.082c0.449-0.713,0.668-1.819,0.655-3.32
			c-0.004-0.578-0.055-1.134-0.15-1.665c-0.095-0.531-0.253-0.996-0.474-1.396c-0.22-0.398-0.509-0.716-0.865-0.951
			s-0.797-0.351-1.323-0.347c-0.94,0.008-1.645,0.371-2.115,1.09C4.747,17.269,4.518,18.374,4.53,19.865z"/>
	</g>
	<g>
		<path fill="#293A48" d="M61.026,5.798l-0.001-1.065l0.243-0.001c0.092,0,0.203,0,0.335,0s0.267-0.006,0.403-0.016
			s0.268-0.018,0.395-0.023s0.23-0.019,0.313-0.038c0.264-0.041,0.512-0.11,0.744-0.207c0.233-0.096,0.436-0.221,0.608-0.373
			s0.309-0.33,0.41-0.532c0.101-0.203,0.151-0.428,0.151-0.671c-0.001-0.334-0.057-0.612-0.169-0.835
			c-0.112-0.224-0.267-0.403-0.464-0.54c-0.199-0.136-0.428-0.232-0.686-0.288c-0.259-0.055-0.535-0.083-0.829-0.082
			c-0.548,0-1.015,0.039-1.399,0.116c-0.385,0.076-0.693,0.171-0.928,0.282l-0.336-1.004c0.203-0.111,0.568-0.226,1.096-0.343
			C61.439,0.06,62.032,0.001,62.691,0c0.406,0,0.804,0.042,1.194,0.128c0.391,0.085,0.74,0.227,1.051,0.424
			c0.309,0.198,0.558,0.466,0.746,0.806c0.188,0.34,0.283,0.758,0.283,1.255c0.001,0.507-0.166,0.991-0.5,1.452
			c-0.334,0.463-0.836,0.794-1.504,0.998v0.061c0.72,0.101,1.287,0.37,1.705,0.805c0.416,0.435,0.625,1.018,0.625,1.748
			c0.001,0.578-0.112,1.077-0.34,1.499c-0.228,0.421-0.526,0.769-0.896,1.043c-0.369,0.273-0.795,0.476-1.276,0.603
			s-0.971,0.191-1.468,0.192c-0.669,0.001-1.219-0.036-1.65-0.112c-0.431-0.075-0.789-0.169-1.072-0.279l0.318-1.127
			c0.232,0.107,0.56,0.2,0.98,0.277s0.931,0.116,1.529,0.115c0.314-0.001,0.623-0.044,0.928-0.131
			c0.304-0.086,0.574-0.219,0.813-0.396s0.431-0.397,0.578-0.662c0.146-0.264,0.219-0.578,0.219-0.943
			c-0.001-0.639-0.225-1.107-0.672-1.406c-0.446-0.298-1.029-0.473-1.75-0.522c-0.121-0.009-0.235-0.017-0.342-0.022
			c-0.106-0.005-0.216-0.007-0.327-0.007L61.026,5.798z"/>
	</g>
	<g>
		<path fill="#293A48" d="M29.496,71.627c0.009,0.252-0.023,0.512-0.095,0.777c-0.073,0.268-0.186,0.518-0.341,0.75
			c-0.154,0.234-0.355,0.441-0.603,0.621c-0.248,0.182-0.542,0.322-0.884,0.426l0.002,0.061c0.306,0.041,0.6,0.117,0.883,0.229
			c0.283,0.113,0.535,0.271,0.754,0.477c0.22,0.207,0.401,0.459,0.543,0.76c0.142,0.299,0.22,0.656,0.233,1.072
			c0.019,0.547-0.079,1.025-0.294,1.434c-0.214,0.406-0.503,0.744-0.864,1.008c-0.362,0.268-0.778,0.469-1.251,0.607
			c-0.472,0.137-0.957,0.215-1.453,0.23c-0.172,0.006-0.375,0.014-0.608,0.021c-0.233,0.008-0.477,0.008-0.73,0
			c-0.254-0.006-0.508-0.018-0.763-0.033c-0.254-0.018-0.478-0.049-0.672-0.092L23.002,69.5c0.373-0.072,0.807-0.139,1.303-0.195
			c0.495-0.057,1.036-0.096,1.624-0.115c0.395-0.014,0.799,0.006,1.211,0.057c0.413,0.053,0.79,0.168,1.13,0.344
			s0.625,0.428,0.854,0.756C29.355,70.67,29.479,71.1,29.496,71.627z M25.209,74.023c0.172-0.006,0.38-0.02,0.623-0.037
			c0.243-0.018,0.445-0.041,0.606-0.066c0.241-0.09,0.466-0.195,0.675-0.318c0.208-0.125,0.394-0.268,0.556-0.432
			c0.162-0.162,0.288-0.35,0.377-0.561c0.088-0.211,0.129-0.438,0.121-0.68c-0.011-0.334-0.084-0.609-0.218-0.824
			c-0.134-0.213-0.31-0.381-0.527-0.506s-0.464-0.209-0.739-0.256s-0.555-0.066-0.839-0.057c-0.334,0.012-0.641,0.029-0.919,0.055
			c-0.278,0.023-0.487,0.055-0.628,0.09l0.122,3.617L25.209,74.023z M26.213,78.98c0.324-0.012,0.637-0.061,0.939-0.146
			c0.301-0.086,0.565-0.217,0.793-0.391c0.228-0.176,0.405-0.387,0.534-0.635c0.129-0.248,0.188-0.539,0.176-0.873
			c-0.014-0.416-0.108-0.748-0.285-0.996c-0.176-0.246-0.4-0.438-0.673-0.57c-0.274-0.133-0.579-0.219-0.915-0.258
			c-0.336-0.039-0.671-0.055-1.006-0.043l-1.322,0.045l0.128,3.814c0.072,0.02,0.174,0.031,0.305,0.037
			c0.132,0.004,0.275,0.01,0.427,0.016c0.153,0.006,0.311,0.006,0.472,0.006C25.949,78.986,26.091,78.984,26.213,78.98z"/>
	</g>
	<g>
		<g>
			<g>
				
					<rect x="13.674" y="38.738" transform="matrix(0.8826 0.4702 -0.4702 0.8826 23.2956 -15.2763)" fill="#293A48" width="57.116" height="0.525"/>
			</g>
			<g>
				<g>
					<polygon fill="#293A48" points="18.979,28.504 19.369,28.153 17.072,25.598 20.474,26.079 20.547,25.56 15.719,24.877 					"/>
				</g>
			</g>
			<g>
				<g>
					<polygon fill="#293A48" points="63.916,52.442 63.99,51.923 67.391,52.403 65.094,49.849 65.484,49.498 68.745,53.124 					"/>
				</g>
			</g>
		</g>
		<g>
			<g>
				
					<rect x="41.97" y="10.442" transform="matrix(0.883 0.4694 -0.4694 0.883 23.2501 -15.2606)" fill="#293A48" width="0.524" height="57.116"/>
			</g>
			<g>
				<g>
					<polygon fill="#293A48" points="52.729,15.748 53.08,16.138 55.635,13.841 55.154,17.243 55.673,17.316 56.355,12.488 					"/>
				</g>
			</g>
			<g>
				<g>
					<polygon fill="#293A48" points="28.79,60.685 29.31,60.758 28.829,64.16 31.384,61.863 31.735,62.253 28.108,65.513 					"/>
				</g>
			</g>
		</g>
	</g>
</g>
</svg>
