<?xml version="1.0" encoding="utf-8"?>
<!-- Generator: Adobe Illustrator 18.1.1, SVG Export Plug-In . SVG Version: 6.00 Build 0)  -->
<svg version="1.1" id="Слой_1" xmlns="http://www.w3.org/2000/svg" xmlns:xlink="http://www.w3.org/1999/xlink" x="0px" y="0px"
	 viewBox="219.529 154.81 361.124 269.53" enable-background="new 219.529 154.81 361.124 269.53" xml:space="preserve">
<g>
	<polygon fill="#2E774C" points="404.606,215.421 504.145,215.421 404.606,154.81 	"/>
	<polygon fill="#2E774C" points="396.776,215.421 297.242,215.421 396.776,154.81 	"/>
	<polygon fill="#2E774C" points="404.606,220.019 504.145,220.019 404.606,280.63 	"/>
	<polygon fill="#2E774C" points="396.776,220.019 297.242,220.019 396.776,280.63 	"/>
	<polygon fill="#50A674" points="396.776,424.34 297.242,224.991 396.776,287.678 	"/>
	<polygon fill="#CAE4BF" points="390.439,299.676 390.439,291.18 313.039,242.429 319.437,255.253 	"/>
	<polygon fill="#CAE4BF" points="390.439,318.132 390.439,310.688 327.014,270.422 332.839,282.095 	"/>
	<polygon fill="#CAE4BF" points="390.439,336.396 390.439,328.506 340.036,296.504 346.103,308.651 	"/>
	<polygon fill="#CAE4BF" points="390.439,353.338 390.439,345.911 352.76,321.987 358.41,333.302 	"/>
	<polygon fill="#CAE4BF" points="390.439,367.335 390.439,361.62 364.246,344.991 368.568,353.658 	"/>
	<polygon fill="#CAE4BF" points="390.439,380.429 390.439,374.565 373.706,363.938 378.077,372.692 	"/>
	<polygon fill="#164F34" points="281.027,215.421 219.529,215.421 319.068,154.81 380.561,154.81 	"/>
	<polygon fill="#164F34" points="281.027,220.019 219.529,220.019 383.281,420.188 	"/>
	<polygon fill="#164F34" points="518.979,220.019 580.471,220.019 419.445,416.791 	"/>
	<polygon fill="#50A674" points="404.606,424.34 504.145,224.991 404.606,287.678 	"/>
	<polygon fill="#CAE4BF" points="410.949,299.676 410.949,291.18 488.348,242.429 481.945,255.253 	"/>
	<polygon fill="#CAE4BF" points="410.949,318.132 410.949,310.688 474.368,270.422 468.543,282.095 	"/>
	<polygon fill="#CAE4BF" points="410.949,336.396 410.949,328.506 461.346,296.504 455.284,308.651 	"/>
	<polygon fill="#CAE4BF" points="410.949,353.338 410.949,345.911 448.627,321.987 442.978,333.302 	"/>
	<polygon fill="#CAE4BF" points="410.949,367.335 410.949,361.62 437.142,344.991 432.814,353.658 	"/>
	<polygon fill="#CAE4BF" points="410.949,380.429 410.949,374.565 427.676,363.938 423.305,372.692 	"/>
	<polygon fill="#164F34" points="519.155,215.421 580.653,215.421 481.113,154.81 419.621,154.81 	"/>
</g>
</svg>
