<?xml version="1.0" encoding="utf-8"?>
<!-- Generator: Adobe Illustrator 18.1.1, SVG Export Plug-In . SVG Version: 6.00 Build 0)  -->
<svg version="1.1" id="Слой_1" xmlns="http://www.w3.org/2000/svg" xmlns:xlink="http://www.w3.org/1999/xlink" x="0px" y="0px"
	 viewBox="0 0 145.293 89.061" enable-background="new 0 0 145.293 89.061" xml:space="preserve">
<g>
	<polygon fill-rule="evenodd" clip-rule="evenodd" fill="#2E774C" points="73.483,11.008 91.561,11.008 73.483,0 	"/>
	<polygon fill-rule="evenodd" clip-rule="evenodd" fill="#2E774C" points="72.061,11.008 53.984,11.008 72.061,0 	"/>
	<polygon fill-rule="evenodd" clip-rule="evenodd" fill="#2E774C" points="73.483,11.843 91.561,11.843 73.483,22.851 	"/>
	<polygon fill-rule="evenodd" clip-rule="evenodd" fill="#2E774C" points="72.061,11.843 53.984,11.843 72.061,22.851 	"/>
	<polygon fill-rule="evenodd" clip-rule="evenodd" fill="#50A674" points="72.061,48.951 53.984,12.746 72.061,24.131 	"/>
	<polygon fill-rule="evenodd" clip-rule="evenodd" fill="#CAE4BF" points="70.91,26.31 70.91,24.767 56.853,15.913 58.015,18.242 	
		"/>
	<polygon fill-rule="evenodd" clip-rule="evenodd" fill="#CAE4BF" points="70.91,29.662 70.91,28.31 59.391,20.997 60.449,23.117 	
		"/>
	<polygon fill-rule="evenodd" clip-rule="evenodd" fill="#CAE4BF" points="70.91,32.979 70.91,31.546 61.756,25.734 62.858,27.94 	
		"/>
	<polygon fill-rule="evenodd" clip-rule="evenodd" fill="#CAE4BF" points="70.91,36.056 70.91,34.707 64.067,30.362 65.093,32.417 	
		"/>
	<polygon fill-rule="evenodd" clip-rule="evenodd" fill="#CAE4BF" points="70.91,38.598 70.91,37.56 66.153,34.54 66.938,36.114 	
		"/>
	<polygon fill-rule="evenodd" clip-rule="evenodd" fill="#CAE4BF" points="70.91,40.976 70.91,39.911 67.871,37.981 68.665,39.571 	
		"/>
	<polygon fill-rule="evenodd" clip-rule="evenodd" fill="#164F34" points="51.039,11.008 39.87,11.008 57.948,0 69.116,0 	"/>
	<polygon fill-rule="evenodd" clip-rule="evenodd" fill="#164F34" points="51.039,11.843 39.87,11.843 69.61,48.197 	"/>
	<polygon fill-rule="evenodd" clip-rule="evenodd" fill="#164F34" points="94.255,11.843 105.423,11.843 76.178,47.58 	"/>
	<polygon fill-rule="evenodd" clip-rule="evenodd" fill="#50A674" points="73.483,48.951 91.561,12.746 73.483,24.131 	"/>
	<polygon fill-rule="evenodd" clip-rule="evenodd" fill="#CAE4BF" points="74.635,26.31 74.635,24.767 88.692,15.913 87.529,18.242 
			"/>
	<polygon fill-rule="evenodd" clip-rule="evenodd" fill="#CAE4BF" points="74.635,29.662 74.635,28.31 86.153,20.997 85.095,23.117 
			"/>
	<polygon fill-rule="evenodd" clip-rule="evenodd" fill="#CAE4BF" points="74.635,32.979 74.635,31.546 83.788,25.734 82.687,27.94 
			"/>
	<polygon fill-rule="evenodd" clip-rule="evenodd" fill="#CAE4BF" points="74.635,36.056 74.635,34.707 81.478,30.362 
		80.452,32.417 	"/>
	<polygon fill-rule="evenodd" clip-rule="evenodd" fill="#CAE4BF" points="74.635,38.598 74.635,37.56 79.392,34.54 78.606,36.114 	
		"/>
	<polygon fill-rule="evenodd" clip-rule="evenodd" fill="#CAE4BF" points="74.635,40.976 74.635,39.911 77.673,37.981 
		76.879,39.571 	"/>
	<path fill="#164F34" d="M141.036,60.33c0,0.207-0.062,0.558-0.269,0.785c-0.31,0.351-0.847,0.372-1.157,0.372
		c-0.31,0-0.847-0.021-1.157-0.372c-0.207-0.227-0.269-0.579-0.269-0.785h-1.55c-0.021,0.599,0.145,1.322,0.537,1.777
		c0.599,0.703,1.633,0.806,2.438,0.806c0.806,0,1.839-0.103,2.438-0.806c0.393-0.455,0.558-1.178,0.537-1.777H141.036z
		 M133.948,64.318v8.741h1.694l7.543-6.365v6.365h2.108v-8.741h-1.694l-7.543,6.365v-6.365H133.948z M127.955,73.059h2.108v-8.741
		h-2.108V73.059z M122.706,68.926c0.207,0,0.537,0,0.744,0.186c0.186,0.165,0.207,0.372,0.207,0.537v1.116
		c0,0.186-0.021,0.393-0.207,0.558c-0.186,0.165-0.517,0.186-0.806,0.186h-4.443v-2.583H122.706z M118.201,64.318h-2.108v8.741h6.84
		c0.868,0,1.385-0.124,1.736-0.269c0.847-0.372,0.971-0.971,0.971-1.447v-2.19c0-0.579-0.227-0.93-0.455-1.157
		c-0.579-0.579-1.343-0.517-2.005-0.517h-4.98V64.318z M103.364,64.318h-2.108v8.741h2.108v-3.678h6.716v3.678h2.108v-8.741h-2.108
		v3.327h-6.716V64.318z M95.842,71.509h-5.724l2.79-5.311L95.842,71.509z M91.999,64.318l-3.864,7.191h-1.033v3.492h1.942v-1.943
		h8.1v1.943h1.943v-3.492h-1.033l-4.009-7.191H91.999z M76.273,70.311l-2.108,0.351v0.475c0,0.826,0.248,1.281,0.496,1.508
		c0.207,0.186,0.641,0.413,1.798,0.413h5.889c0.723,0,1.405-0.083,1.798-0.434c0.455-0.413,0.475-1.095,0.475-1.633v-6.675h-2.108
		v3.616h-6.241v-3.616h-2.108v3.286c0,0.641,0.186,1.199,0.496,1.467c0.207,0.186,0.641,0.413,1.798,0.413h6.055v1.922h-6.241
		V70.311z M63.523,65.868h4.856c0.248,0,0.579,0,0.785,0.186c0.165,0.145,0.186,0.351,0.186,0.517v0.847
		c0,0.207-0.021,0.393-0.207,0.537c-0.186,0.145-0.475,0.165-0.641,0.165h-4.98V65.868z M61.415,64.318v8.741h2.108V69.67h5.765
		c0.434,0,1.116-0.041,1.55-0.393c0.434-0.351,0.496-0.889,0.496-1.302v-1.963c0-0.744-0.124-1.695-2.046-1.695H61.415z
		 M47.281,64.318h-1.715v8.741h1.715V67.19l3.947,4.815h0.413l3.906-4.959v6.013h1.984v-8.741h-1.715l-4.257,5.187L47.281,64.318z
		 M33.311,70.311l-2.108,0.351v0.475c0,0.826,0.248,1.281,0.496,1.508c0.207,0.186,0.641,0.413,1.798,0.413h5.889
		c0.723,0,1.405-0.083,1.798-0.434c0.455-0.413,0.475-1.095,0.475-1.633v-6.675h-2.108v3.616h-6.241v-3.616h-2.108v3.286
		c0,0.641,0.186,1.199,0.496,1.467c0.207,0.186,0.641,0.413,1.798,0.413h6.055v1.922h-6.241V70.311z M19.921,65.764h4.815
		c0.434,0,0.62,0.062,0.744,0.145c0.165,0.124,0.186,0.31,0.186,0.475v0.827c0,0.103-0.021,0.331-0.186,0.475
		c-0.021,0.021-0.186,0.145-0.62,0.145h-3.368v1.447h3.286c0.248,0,0.558,0.021,0.744,0.186c0.186,0.165,0.207,0.372,0.207,0.537
		v0.765c0,0.186-0.021,0.393-0.207,0.558c-0.186,0.165-0.517,0.186-0.806,0.186h-4.897v-1.467l-2.108,0.434v0.661
		c0,0.455,0.103,1.075,0.393,1.405c0.475,0.517,1.508,0.517,1.901,0.517h5.125c0.868,0,1.385-0.124,1.736-0.269
		c0.847-0.372,0.971-0.971,0.971-1.447v-1.116c0-0.579-0.227-0.93-0.455-1.157c-0.269-0.269-0.682-0.455-1.095-0.517
		c0.372-0.062,0.827-0.227,1.075-0.475c0.186-0.165,0.413-0.517,0.413-1.013v-1.054c0-0.455-0.062-0.951-0.496-1.302
		c-0.31-0.269-0.827-0.393-1.385-0.393h-5.951c-0.579,0-1.281,0.103-1.633,0.413c-0.248,0.227-0.496,0.682-0.496,1.508v0.517
		l2.108,0.31V65.764z M2.48,62.396H0v10.663h2.067l8.886-7.873v7.873h2.48V62.396h-2.066L2.48,70.269V62.396z"/>
	<path fill="#164F34" d="M104.628,83.037l-2.256,3.198l-2.454-3.198H99.15v4.931h0.768v-3.326l-0.023-0.686
		c0.081,0.267,0.209,0.512,0.36,0.709l1.965,2.524h0.244l1.896-2.547c0.174-0.233,0.279-0.535,0.326-0.686
		c-0.07,0.442-0.058,0.535-0.058,0.686v3.326h0.861v-4.931H104.628z M91.94,87.235v-3.466h4.117v3.466H91.94z M91.01,86.863
		c0,0.233,0.023,0.651,0.256,0.872c0.198,0.186,0.558,0.233,0.954,0.233h3.559c0.302,0,0.721-0.023,0.954-0.244
		c0.233-0.233,0.256-0.628,0.256-0.919v-2.593c0-0.291-0.023-0.686-0.244-0.919c-0.233-0.233-0.64-0.256-0.965-0.256h-3.617
		c-0.233,0-0.663,0.023-0.895,0.244c-0.233,0.233-0.256,0.651-0.256,0.93V86.863z M87.998,87.235h-3.314l1.64-3.361L87.998,87.235z
		 M89.603,89.061v-1.826h-0.651l-2.186-4.198h-0.791l-2.117,4.198h-0.651v1.826h0.826l0.046-1.093h4.652l0.047,1.093H89.603z
		 M76.95,80.885c-0.012,0.198-0.105,0.395-0.233,0.523c-0.174,0.163-0.477,0.233-0.721,0.233c-0.244,0-0.547-0.07-0.721-0.233
		c-0.128-0.128-0.221-0.326-0.233-0.523H74.31c0.023,0.302,0.14,0.744,0.384,1.012c0.395,0.43,0.977,0.442,1.302,0.442
		c0.326,0,0.907-0.012,1.303-0.442c0.244-0.267,0.36-0.709,0.384-1.012H76.95z M78.973,83.037h-0.744l-3.756,3.338
		c-0.186,0.163-0.302,0.291-0.547,0.558c0.023-0.326,0.035-0.605,0.035-0.791v-3.105h-0.93v4.931h0.744l3.78-3.361
		c0.07-0.058,0.361-0.337,0.523-0.547c-0.012,0.163-0.035,0.57-0.035,0.767v3.14h0.93V83.037z M65.82,87.235v-3.466h4.117v3.466
		H65.82z M64.89,86.863c0,0.233,0.023,0.651,0.256,0.872c0.198,0.186,0.558,0.233,0.954,0.233h3.559
		c0.302,0,0.721-0.023,0.954-0.244c0.233-0.233,0.256-0.628,0.256-0.919v-2.593c0-0.291-0.023-0.686-0.244-0.919
		c-0.233-0.233-0.64-0.256-0.965-0.256h-3.617c-0.233,0-0.663,0.023-0.895,0.244c-0.233,0.233-0.256,0.651-0.256,0.93V86.863z
		 M59.924,83.037l-2.733,4.931h1.012l2.128-4.094l2.175,4.094h1.07l-2.803-4.931H59.924z M55.761,83.037h-0.744l-3.756,3.338
		c-0.186,0.163-0.302,0.291-0.547,0.558c0.023-0.326,0.035-0.605,0.035-0.791v-3.105h-0.93v4.931h0.744l3.779-3.361
		c0.07-0.058,0.361-0.337,0.523-0.547c-0.012,0.163-0.035,0.57-0.035,0.767v3.14h0.93V83.037z M44.62,83.037h-0.93v2.233
		l-2.454-2.233h-1.151l2.768,2.372l-3.047,2.559h1.291l2.593-2.326v2.326h0.93v-2.326l2.593,2.326h1.291l-3.047-2.559l2.768-2.372
		h-1.151L44.62,85.27V83.037z"/>
	<polygon fill-rule="evenodd" clip-rule="evenodd" fill="#164F34" points="94.287,11.008 105.456,11.008 87.378,0 76.21,0 	"/>
</g>
</svg>
