<?xml version="1.0" encoding="utf-8"?>
<!-- Generator: Adobe Illustrator 18.1.1, SVG Export Plug-In . SVG Version: 6.00 Build 0)  -->
<svg version="1.1" id="Слой_1" xmlns="http://www.w3.org/2000/svg" xmlns:xlink="http://www.w3.org/1999/xlink" x="0px" y="0px"
	 viewBox="0 0 136.726 136.726" enable-background="new 0 0 136.726 136.726" xml:space="preserve">
<g opacity="0.82">
	<g>
		<polygon fill="#2E774C" points="40.667,135.226 1.5,96.059 1.5,40.667 40.667,1.5 96.058,1.5 135.226,40.667 135.226,96.059 
			96.058,135.226 		"/>
		<path fill="#1C603E" d="M96.68,136.726H40.046L0,96.68V40.046L40.046,0H96.68l40.046,40.046V96.68L96.68,136.726z M41.288,133.726
			h54.149l38.288-38.288V41.289L95.438,3H41.288L3,41.289v54.149L41.288,133.726z"/>
	</g>
	<g>
		<polygon fill="#459263" points="47.892,117.782 18.943,88.833 18.943,47.893 47.892,18.944 88.833,18.944 117.782,47.893 
			117.782,88.833 88.833,117.782 		"/>
		<path fill="#1C603E" d="M89.454,119.282H47.271L17.443,89.454V47.271l29.828-29.828h42.183l29.828,29.828v42.183L89.454,119.282z
			 M48.514,116.282h39.698l28.07-28.07V48.514l-28.07-28.07H48.514l-28.07,28.07v39.698L48.514,116.282z"/>
	</g>
	<g>
		<line fill="#2E774C" x1="40.667" y1="1.5" x2="47.892" y2="18.944"/>
		
			<rect x="34.839" y="8.722" transform="matrix(0.3827 0.9239 -0.9239 0.3827 36.7776 -34.5991)" fill="#1C603E" width="18.881" height="3"/>
	</g>
	<g>
		<line fill="#2E774C" x1="96.058" y1="1.5" x2="88.833" y2="18.944"/>
		
			<rect x="90.946" y="0.781" transform="matrix(0.9238 0.3828 -0.3828 0.9238 10.9549 -34.6107)" fill="#1C603E" width="3" height="18.881"/>
	</g>
	<g>
		<line fill="#2E774C" x1="135.226" y1="40.667" x2="117.782" y2="47.893"/>
		
			<rect x="125.004" y="34.84" transform="matrix(0.3828 0.9238 -0.9238 0.3828 118.9838 -89.5385)" fill="#1C603E" width="3" height="18.88"/>
	</g>
	<g>
		<line fill="#2E774C" x1="135.226" y1="96.059" x2="117.782" y2="88.833"/>
		
			<rect x="117.064" y="90.946" transform="matrix(0.9239 0.3827 -0.3827 0.9239 45.009 -41.3752)" fill="#1C603E" width="18.881" height="3"/>
	</g>
	<g>
		<line fill="#2E774C" x1="96.058" y1="135.226" x2="88.833" y2="117.782"/>
		
			<rect x="83.005" y="125.004" transform="matrix(0.3827 0.9239 -0.9239 0.3827 173.9407 -7.3171)" fill="#1C603E" width="18.881" height="3"/>
	</g>
	<g>
		<line fill="#2E774C" x1="40.667" y1="135.226" x2="47.892" y2="117.782"/>
		
			<rect x="42.78" y="117.064" transform="matrix(0.9238 0.3828 -0.3828 0.9238 51.8001 -7.3146)" fill="#1C603E" width="3" height="18.881"/>
	</g>
	<g>
		<line fill="#2E774C" x1="1.5" y1="96.059" x2="18.943" y2="88.833"/>
		
			<rect x="8.722" y="83.005" transform="matrix(0.3828 0.9238 -0.9238 0.3828 91.7126 47.6134)" fill="#1C603E" width="3" height="18.881"/>
	</g>
	<g>
		<line fill="#2E774C" x1="1.5" y1="40.667" x2="18.943" y2="47.893"/>
		
			<rect x="0.781" y="42.78" transform="matrix(0.9239 0.3827 -0.3827 0.9239 17.7229 -0.5411)" fill="#1C603E" width="18.88" height="3"/>
	</g>
	<g>
		<path fill="#FFFFFF" d="M36.45,57.836h-3.43v8.092h-1.918v-9.8h7.266v9.8H36.45V57.836z"/>
		<path fill="#FFFFFF" d="M39.74,61.028c0-1.633,0.359-2.891,1.078-3.773c0.719-0.882,1.745-1.323,3.08-1.323
			c0.7,0,1.311,0.122,1.834,0.364c0.522,0.243,0.957,0.588,1.302,1.036c0.345,0.448,0.602,0.985,0.77,1.61s0.252,1.321,0.252,2.086
			c0,1.633-0.362,2.891-1.085,3.773c-0.724,0.882-1.748,1.323-3.073,1.323c-0.709,0-1.325-0.121-1.848-0.364
			c-0.522-0.243-0.954-0.588-1.295-1.036c-0.341-0.448-0.595-0.984-0.763-1.61C39.824,62.489,39.74,61.793,39.74,61.028z
			 M41.756,61.028c0,0.495,0.042,0.95,0.126,1.365c0.084,0.416,0.212,0.772,0.385,1.071c0.172,0.299,0.394,0.532,0.665,0.7
			c0.271,0.168,0.592,0.252,0.966,0.252c0.681,0,1.208-0.266,1.582-0.798c0.373-0.532,0.56-1.395,0.56-2.59
			c0-0.476-0.04-0.919-0.119-1.33s-0.203-0.77-0.371-1.078s-0.387-0.548-0.658-0.721c-0.271-0.173-0.602-0.259-0.994-0.259
			c-0.681,0-1.209,0.273-1.582,0.819C41.942,59.005,41.756,59.862,41.756,61.028z"/>
		<path fill="#FFFFFF" d="M57.758,67.678H56.4l-0.21-1.75h-6.3l-0.21,1.75h-1.358V64.22h1.036c0.065-0.103,0.172-0.331,0.322-0.686
			c0.149-0.354,0.299-0.856,0.448-1.505c0.149-0.648,0.275-1.46,0.378-2.436c0.103-0.975,0.149-2.13,0.14-3.465h5.866v8.092h1.246
			V67.678z M54.594,64.22v-6.384h-2.17c-0.056,1.661-0.189,3.021-0.399,4.081c-0.21,1.06-0.422,1.827-0.637,2.303H54.594z"/>
		<path fill="#FFFFFF" d="M58.234,61.028c0-1.633,0.359-2.891,1.078-3.773c0.719-0.882,1.745-1.323,3.08-1.323
			c0.7,0,1.311,0.122,1.834,0.364c0.522,0.243,0.957,0.588,1.302,1.036c0.345,0.448,0.602,0.985,0.77,1.61s0.252,1.321,0.252,2.086
			c0,1.633-0.362,2.891-1.085,3.773c-0.724,0.882-1.748,1.323-3.073,1.323c-0.709,0-1.325-0.121-1.848-0.364
			c-0.522-0.243-0.954-0.588-1.295-1.036c-0.341-0.448-0.595-0.984-0.763-1.61C58.318,62.489,58.234,61.793,58.234,61.028z
			 M60.25,61.028c0,0.495,0.042,0.95,0.126,1.365c0.084,0.416,0.212,0.772,0.385,1.071c0.172,0.299,0.394,0.532,0.665,0.7
			c0.271,0.168,0.592,0.252,0.966,0.252c0.681,0,1.208-0.266,1.582-0.798c0.373-0.532,0.56-1.395,0.56-2.59
			c0-0.476-0.04-0.919-0.119-1.33s-0.203-0.77-0.371-1.078s-0.387-0.548-0.658-0.721c-0.271-0.173-0.602-0.259-0.994-0.259
			c-0.681,0-1.209,0.273-1.582,0.819C60.437,59.005,60.25,59.862,60.25,61.028z"/>
		<path fill="#FFFFFF" d="M67.922,56.128h6.034v1.708H69.84v2.044c0.159-0.028,0.353-0.056,0.581-0.084
			c0.229-0.028,0.455-0.042,0.68-0.042c0.521,0,1.002,0.051,1.441,0.154c0.438,0.103,0.814,0.273,1.127,0.511
			c0.313,0.238,0.558,0.551,0.734,0.938c0.178,0.387,0.267,0.861,0.267,1.421c0,0.551-0.091,1.031-0.272,1.442
			c-0.183,0.411-0.443,0.751-0.785,1.022c-0.34,0.271-0.75,0.476-1.231,0.616c-0.48,0.14-1.02,0.21-1.616,0.21
			c-0.16,0-0.357-0.005-0.596-0.014s-0.49-0.023-0.756-0.042s-0.529-0.042-0.791-0.07c-0.262-0.028-0.495-0.065-0.7-0.112V56.128z
			 M70.903,64.458c0.243,0,0.47-0.029,0.68-0.089s0.395-0.151,0.553-0.275c0.158-0.124,0.285-0.282,0.379-0.475
			c0.093-0.192,0.139-0.426,0.139-0.702c0-0.33-0.051-0.596-0.153-0.797s-0.243-0.36-0.42-0.475c-0.177-0.114-0.38-0.19-0.608-0.227
			c-0.229-0.037-0.475-0.055-0.736-0.055c-0.131,0-0.293,0.012-0.489,0.034c-0.196,0.023-0.331,0.043-0.406,0.062v2.929
			c0.103,0.027,0.259,0.045,0.47,0.055C70.519,64.454,70.718,64.458,70.903,64.458z"/>
		<path fill="#FFFFFF" d="M75.901,56.226c0.393-0.074,0.824-0.133,1.295-0.175c0.472-0.042,0.941-0.063,1.408-0.063
			c0.484,0,0.973,0.04,1.463,0.119c0.49,0.079,0.931,0.238,1.322,0.476c0.393,0.238,0.712,0.57,0.959,0.994
			c0.248,0.425,0.371,0.978,0.371,1.659c0,0.616-0.107,1.136-0.322,1.561s-0.499,0.772-0.854,1.043
			c-0.355,0.271-0.758,0.467-1.211,0.588c-0.453,0.122-0.922,0.182-1.407,0.182c-0.046,0-0.121,0-0.224,0
			c-0.104,0-0.21-0.002-0.322-0.007c-0.111-0.004-0.222-0.011-0.329-0.021c-0.106-0.009-0.185-0.019-0.231-0.028v3.374h-1.918
			V56.226z M78.758,57.64c-0.187,0-0.364,0.007-0.532,0.021c-0.168,0.014-0.303,0.03-0.406,0.049v3.178
			c0.038,0.009,0.094,0.019,0.168,0.028c0.075,0.01,0.154,0.017,0.238,0.021c0.084,0.005,0.166,0.007,0.246,0.007
			c0.078,0,0.137,0,0.174,0c0.252,0,0.502-0.023,0.75-0.07c0.246-0.046,0.469-0.133,0.664-0.259
			c0.196-0.126,0.353-0.301,0.469-0.525c0.117-0.224,0.176-0.518,0.176-0.882c0-0.308-0.057-0.562-0.168-0.763
			c-0.112-0.201-0.26-0.362-0.441-0.483c-0.182-0.122-0.39-0.206-0.623-0.252C79.239,57.664,79.001,57.64,78.758,57.64z"/>
		<path fill="#FFFFFF" d="M87.661,63.758h-3.01l-0.742,2.17h-1.918l3.528-9.87h1.414l3.528,9.87h-2.016L87.661,63.758z
			 M85.142,62.218h2.1l-0.728-2.184l-0.294-1.54h-0.07l-0.294,1.554L85.142,62.218z"/>
		<path fill="#FFFFFF" d="M97.168,57.836h-2.856v8.092h-1.918v-8.092h-2.869v-1.708h7.644V57.836z"/>
		<path fill="#FFFFFF" d="M98.161,56.128h1.918v3.514c0.047-0.009,0.125-0.021,0.231-0.035c0.107-0.014,0.224-0.026,0.351-0.035
			c0.125-0.009,0.254-0.019,0.385-0.028s0.252-0.014,0.363-0.014c0.458,0,0.901,0.047,1.33,0.14c0.43,0.093,0.811,0.259,1.142,0.497
			c0.331,0.238,0.595,0.56,0.791,0.966c0.196,0.406,0.294,0.922,0.294,1.547c0,1.12-0.348,1.965-1.043,2.534
			s-1.691,0.854-2.989,0.854c-0.131,0-0.306-0.002-0.524-0.007c-0.22-0.004-0.461-0.016-0.721-0.035
			c-0.262-0.019-0.525-0.042-0.791-0.07c-0.267-0.028-0.512-0.07-0.736-0.126V56.128z M101.032,64.36
			c0.261,0,0.508-0.026,0.742-0.077c0.232-0.051,0.438-0.14,0.615-0.266s0.314-0.292,0.413-0.497
			c0.099-0.205,0.147-0.457,0.147-0.756c0-0.317-0.055-0.576-0.162-0.777s-0.246-0.357-0.42-0.469
			c-0.172-0.112-0.375-0.187-0.608-0.224c-0.233-0.038-0.476-0.056-0.728-0.056c-0.066,0-0.145,0.005-0.238,0.014
			s-0.188,0.019-0.28,0.028s-0.18,0.021-0.259,0.035c-0.08,0.014-0.138,0.025-0.176,0.035v2.926c0.104,0.028,0.24,0.049,0.414,0.063
			C100.665,64.353,100.845,64.36,101.032,64.36z"/>
		<path fill="#FFFFFF" d="M39.671,78.542h-0.504v4.187h-1.918v-9.8h1.918v4.34l0.448-0.196l2.702-4.144H44.5l-2.856,4.115
			l-0.756,0.532l0.784,0.546l3.262,4.606h-2.366L39.671,78.542z"/>
		<path fill="#FFFFFF" d="M52.523,75.21c0,0.243-0.03,0.485-0.091,0.729c-0.061,0.242-0.161,0.464-0.301,0.665
			c-0.14,0.2-0.322,0.378-0.546,0.532c-0.224,0.153-0.495,0.268-0.812,0.343v0.084c0.28,0.047,0.546,0.126,0.798,0.237
			c0.252,0.112,0.471,0.267,0.658,0.463c0.187,0.195,0.333,0.434,0.441,0.714c0.107,0.279,0.161,0.611,0.161,0.994
			c0,0.504-0.107,0.94-0.322,1.309c-0.215,0.369-0.502,0.67-0.861,0.903c-0.359,0.233-0.768,0.405-1.225,0.518
			c-0.458,0.112-0.929,0.168-1.414,0.168c-0.159,0-0.362,0-0.609,0c-0.248,0-0.514-0.007-0.798-0.021
			c-0.285-0.015-0.574-0.035-0.868-0.063s-0.563-0.07-0.805-0.126v-9.66c0.177-0.027,0.38-0.056,0.609-0.084
			c0.229-0.027,0.473-0.051,0.735-0.069c0.261-0.02,0.529-0.033,0.805-0.042c0.275-0.01,0.548-0.015,0.819-0.015
			c0.457,0,0.903,0.035,1.337,0.105c0.434,0.069,0.821,0.193,1.162,0.371c0.34,0.177,0.613,0.425,0.819,0.741
			C52.42,74.323,52.523,74.725,52.523,75.21z M48.393,77.044c0.13,0,0.282-0.004,0.455-0.014c0.173-0.009,0.315-0.023,0.427-0.041
			c0.354-0.111,0.66-0.277,0.917-0.499c0.256-0.222,0.385-0.513,0.385-0.873c0-0.24-0.046-0.438-0.14-0.596
			c-0.094-0.157-0.217-0.281-0.371-0.374c-0.154-0.092-0.329-0.156-0.525-0.193c-0.196-0.037-0.401-0.056-0.616-0.056
			c-0.243,0-0.467,0.005-0.672,0.014c-0.206,0.01-0.364,0.023-0.476,0.042v2.59H48.393z M49.023,81.258
			c0.233,0,0.459-0.027,0.679-0.083c0.219-0.055,0.413-0.141,0.581-0.256s0.303-0.261,0.406-0.437
			c0.103-0.176,0.154-0.384,0.154-0.624c0-0.305-0.061-0.545-0.182-0.721c-0.121-0.175-0.28-0.312-0.476-0.408
			c-0.196-0.098-0.416-0.16-0.658-0.188S49.042,78.5,48.799,78.5h-1.022v2.675c0.046,0.019,0.121,0.033,0.224,0.042
			c0.103,0.009,0.212,0.016,0.329,0.021c0.116,0.005,0.238,0.01,0.364,0.015C48.82,81.256,48.93,81.258,49.023,81.258z"/>
		<path fill="#FFFFFF" d="M59.032,80.559h-3.01l-0.742,2.17h-1.918l3.528-9.87h1.414l3.528,9.87h-2.016L59.032,80.559z
			 M56.512,79.019h2.1l-0.728-2.185l-0.294-1.54h-0.07l-0.294,1.555L56.512,79.019z"/>
		<path fill="#FFFFFF" d="M62.672,73.026c0.392-0.074,0.824-0.133,1.295-0.175s0.94-0.063,1.407-0.063
			c0.485,0,0.973,0.04,1.463,0.119c0.49,0.079,0.931,0.238,1.323,0.476c0.392,0.238,0.711,0.57,0.959,0.994
			c0.246,0.425,0.371,0.979,0.371,1.659c0,0.616-0.107,1.137-0.322,1.562s-0.5,0.772-0.854,1.043
			c-0.355,0.271-0.758,0.467-1.211,0.588s-0.922,0.182-1.407,0.182c-0.046,0-0.121,0-0.224,0c-0.103,0-0.21-0.002-0.322-0.007
			c-0.112-0.005-0.222-0.012-0.329-0.021c-0.107-0.009-0.184-0.019-0.231-0.027v3.374h-1.918V73.026z M65.528,74.44
			c-0.187,0-0.364,0.007-0.532,0.021c-0.168,0.015-0.304,0.03-0.406,0.05v3.178c0.038,0.009,0.093,0.019,0.168,0.027
			c0.075,0.01,0.154,0.017,0.238,0.021s0.166,0.007,0.245,0.007c0.079,0,0.137,0,0.175,0c0.252,0,0.501-0.023,0.749-0.07
			c0.247-0.046,0.469-0.133,0.665-0.259c0.196-0.126,0.352-0.301,0.469-0.524c0.117-0.225,0.175-0.519,0.175-0.883
			c0-0.308-0.056-0.562-0.168-0.763c-0.112-0.2-0.259-0.361-0.441-0.482c-0.182-0.122-0.39-0.206-0.623-0.252
			C66.009,74.464,65.771,74.44,65.528,74.44z"/>
		<path fill="#FFFFFF" d="M77.526,74.637h-2.855v8.092h-1.918v-8.092h-2.871v-1.708h7.645V74.637z"/>
		<path fill="#FFFFFF" d="M84.231,77.296l0.113-1.273h-0.07l-0.658,1.315l-3.654,5.391h-1.441v-9.8h1.918v5.334l-0.141,1.315h0.084
			l0.687-1.357l3.653-5.292h1.429v9.8h-1.919V77.296z"/>
		<path fill="#FFFFFF" d="M87.844,73.026c0.392-0.074,0.823-0.133,1.295-0.175s0.94-0.063,1.407-0.063
			c0.485,0,0.973,0.04,1.463,0.119s0.932,0.238,1.323,0.476c0.392,0.238,0.712,0.57,0.959,0.994
			c0.247,0.425,0.371,0.979,0.371,1.659c0,0.616-0.107,1.137-0.322,1.562s-0.499,0.772-0.854,1.043
			c-0.354,0.271-0.758,0.467-1.211,0.588c-0.452,0.121-0.922,0.182-1.406,0.182c-0.047,0-0.121,0-0.225,0
			c-0.103,0-0.209-0.002-0.322-0.007c-0.111-0.005-0.221-0.012-0.328-0.021c-0.107-0.009-0.185-0.019-0.231-0.027v3.374h-1.918
			V73.026z M90.7,74.44c-0.188,0-0.364,0.007-0.532,0.021c-0.168,0.015-0.304,0.03-0.406,0.05v3.178
			c0.038,0.009,0.093,0.019,0.168,0.027c0.075,0.01,0.154,0.017,0.238,0.021s0.165,0.007,0.245,0.007c0.079,0,0.137,0,0.175,0
			c0.252,0,0.501-0.023,0.749-0.07c0.247-0.046,0.469-0.133,0.665-0.259s0.353-0.301,0.469-0.524
			c0.116-0.225,0.175-0.519,0.175-0.883c0-0.308-0.056-0.562-0.168-0.763c-0.111-0.2-0.259-0.361-0.44-0.482
			c-0.183-0.122-0.39-0.206-0.623-0.252C91.181,74.464,90.942,74.44,90.7,74.44z"/>
		<path fill="#FFFFFF" d="M98.834,77.254l0.28,1.274h0.084l0.224-1.316l1.47-4.283h1.975l-2.604,6.775
			c-0.206,0.532-0.403,0.994-0.595,1.386c-0.191,0.393-0.396,0.717-0.616,0.974s-0.464,0.448-0.735,0.574
			c-0.271,0.126-0.588,0.188-0.951,0.188c-0.309,0-0.559-0.021-0.75-0.063s-0.398-0.134-0.623-0.273l0.49-1.554
			c0.158,0.084,0.304,0.135,0.435,0.153c0.13,0.02,0.271,0.028,0.42,0.028c0.438,0,0.747-0.345,0.924-1.036l-3.668-7.153h2.254
			L98.834,77.254z"/>
	</g>
</g>
</svg>
