<?xml version="1.0" encoding="utf-8"?>
<!-- Generator: Adobe Illustrator 18.1.1, SVG Export Plug-In . SVG Version: 6.00 Build 0)  -->
<svg version="1.1" id="Слой_1" xmlns="http://www.w3.org/2000/svg" xmlns:xlink="http://www.w3.org/1999/xlink" x="0px" y="0px"
	 viewBox="370.961 369.724 57.281 59.282" enable-background="new 370.961 369.724 57.281 59.282" xml:space="preserve">
<g>
	<g>
		<path fill="#FFFFFF" d="M393.46,414.722c-12.406,0-22.499-10.093-22.499-22.499c0-12.406,10.093-22.499,22.499-22.499
			c12.406,0,22.499,10.093,22.499,22.499C415.959,404.629,405.866,414.722,393.46,414.722z M393.46,372.724
			c-10.752,0-19.499,8.747-19.499,19.499s8.747,19.499,19.499,19.499s19.499-8.747,19.499-19.499S404.212,372.724,393.46,372.724z"
			/>
	</g>
	<g>
		<path fill="#FFFFFF" d="M425.242,429.006c-0.768,0-1.535-0.293-2.121-0.879l-16.95-16.95c-1.172-1.171-1.172-3.071,0-4.242
			c1.172-1.172,3.07-1.172,4.242,0l16.95,16.95c1.172,1.171,1.172,3.071,0,4.242C426.777,428.713,426.01,429.006,425.242,429.006z"
			/>
	</g>
	<g>
		<g>
			<path fill="#FFFFFF" d="M401.576,395.64h-15.667c-1.657,0-3-1.343-3-3s1.343-3,3-3h15.667c1.657,0,3,1.343,3,3
				S403.233,395.64,401.576,395.64z"/>
		</g>
		<g>
			<path fill="#FFFFFF" d="M393.742,403.473c-1.657,0-3-1.343-3-3v-15.667c0-1.657,1.343-3,3-3s3,1.343,3,3v15.667
				C396.742,402.13,395.399,403.473,393.742,403.473z"/>
		</g>
	</g>
</g>
</svg>
