<?xml version="1.0" encoding="utf-8"?>
<!-- Generator: Adobe Illustrator 18.1.1, SVG Export Plug-In . SVG Version: 6.00 Build 0)  -->
<svg version="1.1" id="Слой_1" xmlns="http://www.w3.org/2000/svg" xmlns:xlink="http://www.w3.org/1999/xlink" x="0px" y="0px"
	 viewBox="0 0 1793 1793" enable-background="new 0 0 1793 1793" xml:space="preserve">
<image overflow="visible" width="1793" height="1793" xlink:href="11-17.png" >
</image>
<polygon opacity="0.55" fill="#B53939" points="0.469,0.292 684.5,0.292 684.5,423.042 623.75,423.042 623.75,626.042 
	494.25,626.042 494.25,495.792 0.469,495.792 "/>
<polygon opacity="0.55" fill="#B53939" points="900.667,0.458 900.667,744.292 735.5,744.292 735.5,541.292 610.167,541.292 
	610.167,409.958 671.5,409.958 671.5,0.458 "/>
<polygon opacity="0.55" fill="#B53939" points="892.167,0.292 1316.167,0.292 1316.167,415.625 1196.5,415.625 1196.5,566.292 
	1058.167,566.292 1058.167,744.958 892.167,744.958 "/>
<polygon opacity="0.55" fill="#B53939" points="1792.5,0.042 1792.5,675.292 1161.5,675.292 1161.5,554.042 1183.5,554.042 
	1183.5,402.292 1303.5,402.292 1303.25,0.042 "/>
<polygon opacity="0.55" fill="#B53939" points="1161,661.792 1792.75,661.792 1792.75,1305.542 1298.75,1305.542 1298.75,1130.292 
	1161,1130.292 "/>
<polygon opacity="0.55" fill="#B53939" points="1792.833,1792.792 1161.167,1792.792 1161.167,1118.625 1312.167,1118.625 
	1312.167,1293.292 1792.833,1293.042 "/>
<polygon opacity="0.55" fill="#B53939" points="0.333,1792.958 858.5,1792.958 858.5,1162.292 493.5,1162.292 493.5,1293.625 
	0.333,1293.625 "/>
<polygon opacity="0.55" fill="#B53939" points="0.5,1305.292 506.5,1305.292 506.5,1175.792 632,1175.792 632,888.292 0.5,888.292 
	"/>
<polygon opacity="0.55" fill="#B53939" points="632,902.292 632,612.625 506.5,612.625 506.5,487.292 0.167,487.292 0.167,902.292 
	"/>
</svg>
