<?xml version="1.0" encoding="utf-8"?>
<!-- Generator: Adobe Illustrator 18.1.1, SVG Export Plug-In . SVG Version: 6.00 Build 0)  -->
<svg version="1.1" id="Слой_1" xmlns="http://www.w3.org/2000/svg" xmlns:xlink="http://www.w3.org/1999/xlink" x="0px" y="0px"
	 viewBox="0 0 185.406 72.99" enable-background="new 0 0 185.406 72.99" xml:space="preserve">
<g>
	<path fill-rule="evenodd" clip-rule="evenodd" fill="#008FDB" d="M92.42,10.075L92.42,10.075c-0.668-0.463-1.182-1.028-1.645-1.748
		c-0.514-0.925-0.72-1.748-0.72-2.776c0-1.028,0.206-1.902,0.72-2.776c0.051-0.154,0.154-0.257,0.257-0.411l0,0
		c0.463-0.668,1.028-1.182,1.748-1.645C93.705,0.205,94.579,0,95.607,0c0.977,0,1.85,0.206,2.724,0.72
		c0.874,0.514,1.542,1.182,2.056,2.056c0.514,0.874,0.72,1.748,0.72,2.776c0,1.028-0.206,1.85-0.72,2.776
		c-0.514,0.874-1.182,1.491-2.056,2.005c-0.874,0.514-1.748,0.72-2.724,0.72c-1.028,0-1.902-0.206-2.827-0.72
		C92.677,10.28,92.574,10.177,92.42,10.075z"/>
	<path fill-rule="evenodd" clip-rule="evenodd" fill="#FFFFFF" d="M101.364,5.757h-0.051C101.364,5.757,101.364,5.757,101.364,5.757
		c0.411,0.257,0.72,0.566,0.977,0.977c0.206,0.411,0.308,0.822,0.308,1.336c0,0.514-0.103,0.925-0.308,1.336l0,0l0,0
		c-0.257,0.411-0.565,0.72-0.977,0.977c-0.463,0.257-0.874,0.36-1.336,0.36c-0.514,0-0.925-0.103-1.336-0.36
		c-0.463-0.257-0.72-0.565-0.977-0.977c-0.257-0.411-0.36-0.822-0.36-1.336c0-0.514,0.103-0.925,0.36-1.336
		c0.257-0.411,0.514-0.72,0.977-0.977c0.411-0.257,0.822-0.36,1.336-0.36c0.463,0,0.874,0.103,1.285,0.36H101.364z"/>
	<path fill-rule="evenodd" clip-rule="evenodd" fill="#008FDB" d="M99.617,10.589L99.617,10.589
		c0.103-0.874,0.308-1.593,0.771-2.313c0.514-0.925,1.131-1.542,2.005-2.056c0.874-0.514,1.748-0.72,2.776-0.72
		c0.154,0,0.308,0,0.463,0l0,0c0.822,0.103,1.542,0.308,2.313,0.72c0.874,0.514,1.491,1.131,2.005,2.056
		c0.514,0.874,0.771,1.748,0.771,2.776c0,0.977-0.257,1.85-0.771,2.776c-0.514,0.874-1.131,1.491-2.005,2.005
		c-0.874,0.514-1.748,0.771-2.776,0.771c-1.028,0-1.902-0.257-2.776-0.771c-0.874-0.514-1.491-1.131-2.005-2.005
		c-0.514-0.925-0.771-1.799-0.771-2.776C99.617,10.846,99.617,10.743,99.617,10.589z"/>
	<path fill-rule="evenodd" clip-rule="evenodd" fill="#FFFFFF" d="M107.841,16.14L107.841,16.14c0,0.514-0.103,0.925-0.36,1.336
		c-0.257,0.411-0.565,0.72-0.977,0.977c-0.411,0.257-0.822,0.36-1.336,0.36l0,0c-0.463,0-0.874-0.103-1.337-0.36
		c-0.411-0.257-0.72-0.565-0.977-0.977c-0.206-0.411-0.36-0.822-0.36-1.336c0-0.514,0.154-0.925,0.36-1.336
		c0.257-0.411,0.565-0.72,0.977-0.977c0.463-0.257,0.874-0.36,1.337-0.36c0.514,0,0.925,0.103,1.336,0.36
		c0.411,0.257,0.72,0.565,0.977,0.977C107.738,15.215,107.841,15.626,107.841,16.14z"/>
	<path fill-rule="evenodd" clip-rule="evenodd" fill="#008FDB" d="M102.855,17.065L102.855,17.065
		c0.771-0.36,1.491-0.514,2.364-0.514c1.028,0,1.902,0.257,2.776,0.72c0.874,0.565,1.491,1.182,2.005,2.056
		c0.103,0.154,0.154,0.257,0.206,0.411l0,0c0.36,0.771,0.514,1.491,0.514,2.364c0,1.028-0.206,1.902-0.72,2.776
		c-0.514,0.874-1.131,1.542-2.005,2.056c-0.874,0.463-1.748,0.719-2.776,0.719c-1.028,0-1.902-0.257-2.776-0.719
		c-0.874-0.514-1.542-1.182-2.056-2.056c-0.514-0.874-0.72-1.748-0.72-2.776c0-1.028,0.206-1.902,0.72-2.776
		c0.514-0.874,1.182-1.491,2.056-2.056C102.546,17.22,102.701,17.168,102.855,17.065z"/>
	<path fill-rule="evenodd" clip-rule="evenodd" fill="#FFFFFF" d="M102.135,26.986h-0.051l0,0c-0.411,0.206-0.823,0.308-1.285,0.308
		c-0.514,0-0.925-0.103-1.388-0.308c-0.411-0.257-0.719-0.565-0.976-0.977v-0.051l0,0c-0.206-0.411-0.308-0.822-0.308-1.285
		c0-0.514,0.103-0.925,0.308-1.336c0.257-0.411,0.565-0.72,0.976-0.977c0.463-0.257,0.874-0.36,1.388-0.36
		c0.463,0,0.874,0.103,1.285,0.36c0.463,0.257,0.771,0.565,0.977,0.977c0.257,0.411,0.36,0.823,0.36,1.336
		c0,0.463-0.103,0.874-0.36,1.336c-0.206,0.411-0.514,0.72-0.977,0.977H102.135z"/>
	<path fill-rule="evenodd" clip-rule="evenodd" fill="#008FDB" d="M98.794,23.079L98.794,23.079c0.668,0.514,1.182,1.08,1.645,1.799
		c0.514,0.874,0.72,1.748,0.72,2.776c0,1.028-0.206,1.902-0.72,2.776c-0.103,0.154-0.154,0.257-0.257,0.411l0,0
		c-0.514,0.668-1.028,1.182-1.799,1.593c-0.874,0.514-1.748,0.771-2.776,0.771c-1.028,0-1.85-0.257-2.776-0.771
		c-0.874-0.514-1.491-1.131-2.005-2.005c-0.514-0.874-0.771-1.748-0.771-2.776c0-1.028,0.257-1.902,0.771-2.776
		c0.514-0.874,1.131-1.542,2.005-2.056c0.925-0.463,1.748-0.72,2.776-0.72c1.028,0,1.902,0.257,2.776,0.72
		C98.537,22.925,98.64,23.028,98.794,23.079z"/>
	<path fill-rule="evenodd" clip-rule="evenodd" fill="#FFFFFF" d="M89.901,27.397H89.85l0,0c-0.411-0.206-0.72-0.514-0.977-0.977
		c-0.257-0.411-0.36-0.822-0.36-1.336c0-0.463,0.103-0.874,0.36-1.285l0,0l0,0c0.257-0.463,0.565-0.771,0.977-0.977
		c0.411-0.257,0.874-0.36,1.336-0.36c0.514,0,0.925,0.103,1.336,0.36c0.411,0.206,0.72,0.514,0.977,0.977
		c0.257,0.411,0.36,0.823,0.36,1.285c0,0.514-0.103,0.925-0.36,1.336c-0.257,0.463-0.566,0.771-0.977,0.977
		c-0.411,0.257-0.822,0.36-1.336,0.36C90.724,27.757,90.313,27.654,89.901,27.397z"/>
	<path fill-rule="evenodd" clip-rule="evenodd" fill="#008FDB" d="M91.546,22.565L91.546,22.565
		c-0.051,0.874-0.308,1.594-0.72,2.365c-0.514,0.874-1.131,1.491-2.005,2.005c-0.925,0.514-1.748,0.771-2.776,0.771
		c-0.154,0-0.308,0-0.463-0.051l0,0c-0.874-0.051-1.593-0.257-2.313-0.719c-0.874-0.514-1.542-1.131-2.056-2.005
		c-0.514-0.925-0.72-1.748-0.72-2.776c0-1.028,0.206-1.902,0.72-2.776c0.514-0.874,1.182-1.542,2.056-2.056
		c0.874-0.514,1.748-0.72,2.776-0.72c1.028,0,1.85,0.206,2.776,0.72c0.874,0.514,1.491,1.182,2.005,2.056
		c0.514,0.874,0.72,1.748,0.72,2.776C91.546,22.308,91.546,22.411,91.546,22.565z"/>
	<path fill-rule="evenodd" clip-rule="evenodd" fill="#FFFFFF" d="M83.374,17.065L83.374,17.065c0-0.514,0.103-0.925,0.36-1.336
		c0.206-0.463,0.514-0.771,0.977-0.977c0.411-0.257,0.822-0.36,1.336-0.36l0,0c0.463,0,0.874,0.103,1.285,0.36
		c0.463,0.206,0.771,0.514,0.976,0.977c0.257,0.411,0.411,0.822,0.411,1.336c0,0.463-0.154,0.874-0.411,1.336
		c-0.206,0.411-0.514,0.72-0.925,0.925c-0.463,0.257-0.874,0.411-1.336,0.411c-0.514,0-0.925-0.154-1.336-0.411
		c-0.463-0.206-0.771-0.514-0.977-0.925C83.476,17.939,83.374,17.528,83.374,17.065z"/>
	<path fill-rule="evenodd" clip-rule="evenodd" fill="#008FDB" d="M88.411,16.089L88.411,16.089
		c-0.771,0.36-1.542,0.514-2.416,0.514c-0.976,0-1.85-0.206-2.724-0.72c-0.925-0.514-1.542-1.182-2.056-2.056
		c-0.103-0.154-0.154-0.257-0.206-0.36l0,0c-0.36-0.822-0.566-1.542-0.566-2.416c0-0.977,0.257-1.85,0.771-2.776
		c0.514-0.874,1.131-1.491,2.056-2.005C84.144,5.757,85.018,5.5,85.995,5.5c1.028,0,1.902,0.257,2.776,0.771
		c0.925,0.514,1.542,1.131,2.056,2.005c0.514,0.925,0.72,1.799,0.72,2.776c0,1.028-0.206,1.902-0.72,2.776
		c-0.514,0.874-1.131,1.542-2.056,2.056C88.668,15.934,88.514,15.986,88.411,16.089z"/>
	<path fill-rule="evenodd" clip-rule="evenodd" fill="#FFFFFF" d="M89.079,6.219c0.308-0.206,0.668-0.308,0.977-0.36
		c0.103,1.645,0.925,3.238,2.416,4.215l0.051,0.051c-0.206,0.308-0.463,0.514-0.771,0.72c-1.285,0.72-2.93,0.308-3.65-0.977
		C87.383,8.584,87.845,6.939,89.079,6.219z"/>
	<path fill-rule="evenodd" clip-rule="evenodd" fill="#008FDB" d="M70.215,67.233c-1.285-0.874-1.953-2.159-1.953-3.855v-6.374l0,0
		l0,0c0-1.748,0.771-3.033,2.262-3.958c1.439-0.823,3.598-1.234,6.477-1.234l0,0l0,0h11.565l0,0l0,0
		c1.028,0,1.593,0.565,1.593,1.593l0,0l0,0v0.36l0,0l0,0c0,0.977-0.565,1.593-1.593,1.593l0,0l0,0H76.28
		c-1.439,0-2.467,0.154-3.135,0.463c-0.257,0.154-0.514,0.36-0.668,0.617l0,0h12.182c0.925,0,1.85,0.051,2.673,0.257
		c1.593,0.308,3.392,1.028,4.318,2.416c0.463,0.668,0.72,1.491,0.72,2.365l0,0v2.056c0,1.645-0.874,2.93-2.673,3.804
		c-0.308,0.154-0.668,0.308-1.079,0.463c-0.565,0.154-1.182,0.36-1.799,0.463c-0.771,0.154-1.542,0.257-2.313,0.257l0,0l0,0h-8.687
		C73.35,68.518,71.448,68.107,70.215,67.233z M70.215,67.233L70.215,67.233L70.215,67.233z M72.374,59.986v3.547l0,0
		c0,0.463,0.257,0.771,0.771,1.028c0.514,0.257,1.234,0.36,2.21,0.411c0.411,0,0.874,0,1.285,0h7.967
		c0.617-0.103,1.234-0.154,1.85-0.257c0.463-0.103,0.977-0.257,1.388-0.514c0.36-0.257,0.411-0.514,0.411-0.976v-1.748
		c0-0.257-0.154-0.463-0.411-0.668c-0.514-0.36-1.491-0.617-2.107-0.72c-0.36-0.051-0.719-0.103-1.028-0.103H72.374z"/>
	<path fill-rule="evenodd" clip-rule="evenodd" fill="#008FDB" d="M18.35,65.434L18.35,65.434L18.35,65.434
		c0.103,0.051,0.206,0.103,0.257,0.154c0.103,0.051,0.154,0.103,0.257,0.206l0,0c0.411,0.308,0.565,0.719,0.565,1.182
		c0,0.514-0.154,0.874-0.463,1.131c-0.308,0.257-0.771,0.411-1.336,0.411h-1.079c-0.154,0-0.257-0.051-0.411-0.051
		c-0.103-0.051-0.206-0.051-0.36-0.154l0,0l-11.72-5.86v4.421c0,0.514-0.154,0.925-0.411,1.234
		c-0.257,0.257-0.668,0.411-1.182,0.411H1.542c-0.463,0-0.874-0.154-1.182-0.411C0.103,67.799,0,67.388,0,66.874l0,0V53.201l0,0l0,0
		l0,0c0-0.514,0.103-0.874,0.36-1.182c0.308-0.257,0.719-0.411,1.182-0.411l0,0l0,0h0.925l0,0l0,0c0.514,0,0.925,0.154,1.182,0.411
		c0.257,0.308,0.411,0.668,0.411,1.182l0,0l0,0v4.678l11.257-5.603c0.257-0.154,0.463-0.206,0.72-0.308
		c0.154,0,0.257-0.051,0.308-0.051h1.028c0.566,0,1.028,0.154,1.285,0.36c0.617,0.514,0.668,1.439,0.206,2.056
		c-0.154,0.257-0.411,0.463-0.771,0.617l0,0L7.71,60.14L18.35,65.434z"/>
	<path fill-rule="evenodd" clip-rule="evenodd" fill="#008FDB" d="M42.972,63.378c0,1.696-0.617,2.981-1.953,3.855
		c-1.234,0.874-3.136,1.285-5.603,1.285h-8.687l0,0l0,0c-0.463,0-0.874-0.051-1.337-0.103c-0.103,0-0.206,0-0.257-0.051
		c-1.234-0.154-2.467-0.463-3.598-1.028c-1.799-0.874-2.673-2.159-2.673-3.804v-2.056l0,0c0-0.874,0.257-1.696,0.719-2.365
		c0.771-1.079,2.056-1.799,3.29-2.159c1.08-0.36,2.313-0.514,3.701-0.514h12.182l0,0c-0.051-0.103-0.154-0.206-0.257-0.308l0,0
		c-0.565-0.514-1.748-0.771-3.547-0.771H22.668l0,0l0,0c-0.514,0-0.925-0.154-1.182-0.411c-0.257-0.257-0.411-0.668-0.411-1.182l0,0
		l0,0v-0.36l0,0l0,0c0-0.514,0.154-0.925,0.411-1.182c0.257-0.308,0.668-0.411,1.182-0.411l0,0l0,0h11.617l0,0l0,0
		c2.827,0,4.986,0.411,6.425,1.234c1.542,0.925,2.262,2.21,2.262,3.958l0,0l0,0V63.378z M42.972,63.378L42.972,63.378L42.972,63.378
		z M38.86,63.532v-3.547H26.523c-0.308,0-0.668,0.051-1.028,0.103c-0.308,0.051-0.668,0.154-1.079,0.257l0,0l0,0
		c-0.514,0.154-1.439,0.514-1.439,1.131l0,0v2.056l0,0l0,0l0,0c0,0.103,0.051,0.206,0.103,0.308
		c0.051,0.103,0.103,0.206,0.206,0.257c0.257,0.206,0.617,0.36,1.08,0.514c0.771,0.154,1.542,0.257,2.313,0.36h8.79
		c1.182,0,2.056-0.154,2.621-0.411C38.603,64.303,38.86,63.995,38.86,63.532z"/>
	<path fill-rule="evenodd" clip-rule="evenodd" fill="#008FDB" d="M67.079,63.07L67.079,63.07c0,1.799-0.668,3.136-2.056,4.009
		c-1.336,0.874-3.29,1.285-5.911,1.285l0,0l0,0H48.318v2.981c0,1.028-0.565,1.645-1.593,1.645h-0.925
		c-1.028,0-1.593-0.617-1.593-1.645l0,0V56.85c0-3.238,2.519-4.523,5.243-4.883c0.925-0.103,1.953-0.154,3.136-0.154h5.654
		c2.93,0,5.089,0.36,6.528,1.182c1.336,0.771,2.107,1.799,2.262,3.238c0.051,0.257,0.051,0.565,0.051,0.822V63.07z M67.079,63.07
		L67.079,63.07L67.079,63.07z M62.916,56.85L62.916,56.85L62.916,56.85c0-0.103-0.051-0.257-0.103-0.36
		c0-0.051-0.051-0.154-0.103-0.206c-0.36-0.566-1.182-0.72-1.799-0.823c-0.874-0.103-1.748-0.103-2.622-0.103h-5.551
		c-1.542,0-2.673,0.103-3.444,0.411c-0.668,0.308-0.977,0.668-0.977,1.182v7.916h10.794l0,0l0,0c1.336,0,2.313-0.154,2.93-0.514
		c0.565-0.257,0.874-0.668,0.874-1.234l0,0l0,0V56.85z"/>
	<path fill-rule="evenodd" clip-rule="evenodd" fill="#008FDB" d="M116.116,63.224L116.116,63.224L116.116,63.224
		c0,1.439-0.617,2.673-1.696,3.547c-1.028,0.822-2.365,1.285-3.598,1.491c-0.874,0.154-1.85,0.257-2.878,0.257h-5.911
		c-3.906,0-6.528-0.977-7.813-2.981c-0.463-0.668-0.72-1.491-0.72-2.313v-5.963l0,0c0-0.719,0.154-1.388,0.463-2.005
		c0.874-1.542,2.622-2.57,4.318-3.033c1.08-0.257,2.313-0.411,3.752-0.411l0,0h5.911l0,0c1.902,0,3.495,0.206,4.729,0.668
		c1.079,0.36,2.056,1.028,2.673,2.005c0.514,0.72,0.771,1.645,0.771,2.724V63.224z M116.116,63.224L116.116,63.224L116.116,63.224z
		 M111.901,63.224v-6.22c0-0.514-0.308-0.925-0.874-1.182c-0.72-0.308-1.799-0.463-3.187-0.463h-5.808l0,0l0,0
		c-0.463,0-0.977,0-1.439,0.103c-0.874,0.103-1.953,0.308-2.621,0.925c-0.206,0.257-0.36,0.514-0.36,0.874v5.963l0,0l0,0
		c0,0.463,0.308,0.771,0.668,1.028c0.565,0.308,1.182,0.411,1.748,0.514c0.617,0.154,1.336,0.206,2.056,0.206h5.757
		c0.463,0,0.874-0.051,1.285-0.103C110,64.715,111.901,64.355,111.901,63.224z"/>
	<path fill-rule="evenodd" clip-rule="evenodd" fill="#008FDB" d="M135.752,65.434L135.752,65.434L135.752,65.434
		c0.257,0.154,0.463,0.308,0.668,0.566c0.257,0.257,0.411,0.617,0.411,0.976c0,1.131-0.823,1.542-1.85,1.542h-1.08
		c-0.154,0-0.257-0.051-0.411-0.051c-0.206-0.051-0.36-0.154-0.565-0.257l-11.514-5.757v4.421c0,0.514-0.103,0.925-0.411,1.234
		c-0.257,0.257-0.668,0.411-1.182,0.411h-0.874c-0.514,0-0.925-0.154-1.182-0.411c-0.308-0.308-0.411-0.72-0.411-1.234l0,0V53.201
		l0,0l0,0c0-0.977,0.565-1.593,1.593-1.593l0,0l0,0h0.874l0,0l0,0c1.028,0,1.593,0.617,1.593,1.593l0,0l0,0v4.678l11.617-5.808
		c0.103,0,0.257-0.051,0.411-0.103c0.103,0,0.206-0.051,0.257-0.051h1.08c0.411,0,0.719,0.051,0.977,0.206
		c0.206,0.103,0.411,0.206,0.565,0.411c0.257,0.463,0.308,1.079,0.103,1.542c-0.103,0.206-0.206,0.36-0.36,0.514
		c-0.36,0.308-0.874,0.514-1.285,0.72l-9.664,4.832L135.752,65.434z"/>
	<path fill-rule="evenodd" clip-rule="evenodd" fill="#008FDB" d="M185.406,67.131L185.406,67.131L185.406,67.131
		c0,0.72-0.36,1.336-1.182,1.336l0,0l0,0h-1.234c-0.822,0-1.182-0.617-1.182-1.336v-8.944l-6.374,8.636
		c-0.411,0.514-0.771,1.131-1.388,1.491c-0.617,0.308-1.439,0.308-2.056,0c-0.617-0.36-0.977-0.977-1.388-1.542l-5.808-8.276v8.636
		c0,0.771-0.36,1.336-1.182,1.336h-1.388h-0.051l0,0c-0.771,0-1.131-0.617-1.131-1.336l0,0l0,0V53.612
		c0-0.257,0.051-0.463,0.103-0.668c0.308-0.72,0.925-1.182,1.645-1.182c0.668,0,1.337,0.103,1.902,0.411
		c0.36,0.257,0.617,0.617,0.874,0.977l7.505,10.435l8.43-10.897l0,0c0.463-0.617,1.182-0.874,2.21-0.874l0,0l0,0
		c0.565,0,0.977,0.154,1.234,0.514c0.308,0.308,0.463,0.771,0.463,1.388l0,0l0,0V67.131z"/>
	<path fill-rule="evenodd" clip-rule="evenodd" fill="#008FDB" d="M160.116,63.378c0,1.696-0.668,2.981-1.953,3.855
		c-1.285,0.874-3.135,1.285-5.654,1.285h-8.687l0,0l0,0c-0.514,0-1.079-0.051-1.542-0.103c-1.285-0.206-2.519-0.514-3.649-1.079
		c-1.799-0.874-2.673-2.159-2.673-3.804v-2.056l0,0c0-0.874,0.257-1.696,0.72-2.365c0.463-0.668,1.131-1.234,2.056-1.696
		c0.72-0.308,1.439-0.565,2.262-0.72c0.874-0.154,1.748-0.257,2.673-0.257h12.182c-0.206-0.36-0.565-0.566-0.925-0.72
		c-0.617-0.257-1.593-0.36-2.827-0.36h-12.336l0,0l0,0c-0.822,0-1.388-0.463-1.542-1.182c-0.051-0.257-0.051-0.514-0.051-0.771l0,0
		l0,0c0-0.771,0.308-1.285,0.874-1.491c0.411-0.154,1.028-0.154,1.491-0.154h10.846l0,0l0,0l0,0c2.827,0,4.986,0.463,6.477,1.285
		c1.439,0.874,2.21,2.159,2.21,3.855c0,0.103,0.051,0.206,0.051,0.308V63.378z M160.116,63.378L160.116,63.378L160.116,63.378z
		 M155.953,59.986h-12.336c-0.308,0-0.668,0.051-0.977,0.103c-0.36,0.051-0.72,0.154-1.131,0.257l0,0l0,0
		c-0.463,0.154-1.182,0.411-1.388,0.874c-0.051,0.154-0.051,0.257-0.051,0.36v1.953l0,0l0,0l0,0c0,0.103,0.051,0.206,0.103,0.257
		c0,0.051,0.051,0.103,0.103,0.154c0.206,0.257,0.617,0.514,1.234,0.668c0.72,0.206,1.491,0.257,2.21,0.36h8.841l0,0
		c1.182,0,2.056-0.154,2.673-0.411c0.463-0.206,0.72-0.565,0.72-1.028V59.986z"/>
</g>
</svg>
