<?xml version="1.0" encoding="utf-8"?>
<!-- Generator: Adobe Illustrator 18.1.1, SVG Export Plug-In . SVG Version: 6.00 Build 0)  -->
<svg version="1.1" id="Слой_1" xmlns="http://www.w3.org/2000/svg" xmlns:xlink="http://www.w3.org/1999/xlink" x="0px" y="0px"
	 viewBox="0 0 30.276 33.205" enable-background="new 0 0 30.276 33.205" xml:space="preserve">
<g>
	<g>
		<g>
			<path fill-rule="evenodd" clip-rule="evenodd" fill="#008FDB" d="M17.271,9.406c-0.257-0.411-0.36-0.822-0.36-1.336
				s0.103-0.925,0.36-1.336c0.257-0.411,0.514-0.72,0.977-0.977c0.411-0.257,0.822-0.36,1.336-0.36c0.384,0,0.732,0.077,1.074,0.247
				c0-0.032,0.005-0.061,0.005-0.093c0-1.028-0.206-1.902-0.72-2.776c-0.514-0.874-1.182-1.542-2.056-2.056
				C17.014,0.206,16.14,0,15.164,0c-1.028,0-1.902,0.206-2.827,0.72c-0.719,0.463-1.285,0.977-1.748,1.645
				c-0.103,0.154-0.206,0.257-0.257,0.411c-0.514,0.874-0.72,1.747-0.72,2.776s0.206,1.85,0.72,2.776
				c0.463,0.72,0.977,1.285,1.645,1.748c0.154,0.103,0.257,0.206,0.36,0.257c0.925,0.514,1.799,0.72,2.827,0.72
				c0.977,0,1.851-0.206,2.724-0.72c0.049-0.029,0.092-0.062,0.14-0.092C17.701,10.012,17.483,9.745,17.271,9.406z"/>
		</g>
		<g>
			<path fill-rule="evenodd" clip-rule="evenodd" fill="#008FDB" d="M29.505,8.276C28.991,7.35,28.374,6.549,27.5,6.035
				c-0.771-0.411-1.491-0.904-2.313-0.904c-0.154,0-0.308,0-0.463,0c-1.028,0-1.902,0.39-2.776,0.904
				c-0.874,0.514-1.358,1.223-1.872,2.148c-0.463,0.72-0.638,1.532-0.638,2.405c0,0.154,0,0.257,0,0.463
				c0,0.977,0.124,1.85,0.638,2.776c0.514,0.874,1.064,1.491,1.938,2.005c0.04,0.024,0.048,0.039,0.088,0.062
				c0.041-0.402,0.154-0.748,0.325-1.09c0.257-0.411,0.557-0.72,0.968-0.977c0.463-0.257,0.87-0.36,1.332-0.36
				c0.514,0,0.923,0.103,1.334,0.36c0.411,0.257,0.719,0.565,0.976,0.977c0.214,0.342,0.316,0.687,0.346,1.088
				c0.039-0.022,0.077-0.037,0.116-0.06c0.874-0.514,1.49-1.131,2.004-2.005c0.514-0.925,0.771-1.799,0.771-2.776
				C30.276,10.023,30.019,9.149,29.505,8.276z"/>
		</g>
		<g>
			<path fill-rule="evenodd" clip-rule="evenodd" fill="#008FDB" d="M29.762,19.738c-0.051-0.154-0.103-0.257-0.206-0.411
				c-0.514-0.874-1.131-1.491-2.005-2.056c-0.874-0.463-1.748-0.72-2.776-0.72c-0.874,0-1.593,0.154-2.364,0.514
				c-0.154,0.103-0.308,0.154-0.411,0.206c-0.874,0.565-1.542,1.182-2.056,2.056c-0.514,0.874-0.72,1.748-0.72,2.776
				c0,0.045,0.006,0.085,0.007,0.129c0.361-0.16,0.71-0.232,1.124-0.232c0.463,0,0.874,0.103,1.285,0.36
				c0.463,0.257,0.771,0.565,0.977,0.977c0.257,0.411,0.36,0.823,0.36,1.336c0,0.463-0.103,0.874-0.36,1.336
				c-0.169,0.339-0.415,0.606-0.753,0.834c0.047,0.029,0.088,0.063,0.136,0.091c0.874,0.463,1.748,0.719,2.776,0.719
				c1.028,0,1.902-0.257,2.776-0.719c0.874-0.514,1.491-1.182,2.005-2.056c0.514-0.874,0.72-1.748,0.72-2.776
				C30.276,21.229,30.122,20.509,29.762,19.738z"/>
		</g>
		<g>
			<path fill-rule="evenodd" clip-rule="evenodd" fill="#008FDB" d="M19.995,24.878c-0.463-0.719-0.977-1.285-1.645-1.799
				c-0.154-0.051-0.257-0.154-0.411-0.257c-0.874-0.463-1.748-0.72-2.776-0.72s-1.85,0.257-2.776,0.72
				c-0.052,0.03-0.094,0.067-0.145,0.099c0.329,0.202,0.592,0.481,0.813,0.878c0.257,0.411,0.36,0.823,0.36,1.285
				c0,0.514-0.103,0.925-0.36,1.336c-0.257,0.463-0.565,0.771-0.977,0.977c-0.411,0.257-0.822,0.36-1.336,0.36
				c-0.401,0-0.763-0.084-1.12-0.272c-0.002,0.057-0.011,0.111-0.011,0.169c0,1.028,0.257,1.902,0.771,2.776
				c0.514,0.874,1.131,1.491,2.005,2.005c0.925,0.514,1.748,0.771,2.776,0.771s1.902-0.257,2.776-0.771
				c0.771-0.411,1.285-0.925,1.799-1.593c0.103-0.154,0.154-0.257,0.257-0.411c0.514-0.874,0.72-1.748,0.72-2.776
				C20.715,26.626,20.509,25.752,19.995,24.878z"/>
		</g>
		<g>
			<path fill-rule="evenodd" clip-rule="evenodd" fill="#008FDB" d="M10.551,19.378c-0.514-0.874-1.215-1.542-2.089-2.056
				c-0.041-0.023-0.121-0.036-0.161-0.058c-0.038,0.384-0.197,0.743-0.416,1.137c-0.206,0.411-0.524,0.72-0.936,0.925
				c-0.463,0.257-0.879,0.411-1.342,0.411c-0.514,0-0.928-0.154-1.339-0.411c-0.463-0.206-0.772-0.514-0.978-0.925
				c-0.219-0.394-0.322-0.753-0.349-1.137c-0.038,0.021-0.077,0.035-0.115,0.057c-0.874,0.514-1.542,1.182-2.056,2.056
				s-0.72,1.748-0.72,2.776c0,1.028,0.206,1.85,0.72,2.776c0.514,0.874,1.182,1.491,2.056,2.005c0.72,0.463,1.439,0.668,2.313,0.719
				c0.154,0.051,0.308,0.051,0.463,0.051c1.028,0,1.85-0.257,2.776-0.771c0.874-0.514,1.659-1.131,2.173-2.005
				c0.411-0.771,0.888-1.491,0.888-2.365c0-0.154,0-0.257,0-0.411C11.439,21.126,11.065,20.252,10.551,19.378z"/>
		</g>
		<g>
			<path fill-rule="evenodd" clip-rule="evenodd" fill="#008FDB" d="M10.383,8.276c-0.063-0.108-0.134-0.2-0.201-0.3
				c0.102,0.206,0.215,0.405,0.344,0.597C10.477,8.474,10.439,8.376,10.383,8.276z"/>
			<path fill-rule="evenodd" clip-rule="evenodd" fill="#008FDB" d="M7.659,9.869C6.978,8.652,7.365,7.123,8.454,6.352
				C8.41,6.326,8.373,6.297,8.327,6.271C7.453,5.757,6.58,5.5,5.552,5.5c-0.977,0-1.851,0.257-2.724,0.771
				C1.902,6.785,1.285,7.402,0.771,8.276C0.257,9.201,0,10.075,0,11.051c0,0.874,0.206,1.593,0.566,2.416
				c0.051,0.103,0.103,0.206,0.206,0.36c0.514,0.874,1.131,1.542,2.056,2.056c0.874,0.514,1.748,0.72,2.724,0.72
				c0.874,0,1.645-0.154,2.416-0.514c0.103-0.103,0.257-0.154,0.36-0.206c0.925-0.514,1.542-1.182,2.056-2.056
				c0.514-0.874,0.72-1.748,0.72-2.776c0-0.038-0.006-0.075-0.006-0.113C9.847,11.506,8.34,11.086,7.659,9.869z"/>
		</g>
	</g>
</g>
</svg>
