<?xml version="1.0" encoding="utf-8"?>
<!-- Generator: Adobe Illustrator 18.1.1, SVG Export Plug-In . SVG Version: 6.00 Build 0)  -->
<svg version="1.1" id="Слой_1" xmlns="http://www.w3.org/2000/svg" xmlns:xlink="http://www.w3.org/1999/xlink" x="0px" y="0px"
	 viewBox="0 0 1207.147 807.461" enable-background="new 0 0 1207.147 807.461" xml:space="preserve">
<g>
	<g>
		<path fill="#008FDB" d="M406.446,138.213l4.061,4.067l8.13,8.13h16.258h8.13l-16.261-16.261v-12.197
			c2.711-8.13,6.1-15.583,10.161-22.361c4.064-6.778,6.1-12.875,6.1-18.294L467.41,60.97c2.711-5.419,8.13-9.486,16.261-12.194
			c8.127-2.711,13.547-6.778,16.258-12.197l8.127-8.13l-8.127-8.13l-8.13,4.064l-12.191,8.13l-16.258,4.067L438.961,52.84
			l-8.13,12.194v8.13L418.64,93.492l-8.13,20.327l-4.061,8.13v4.064l-4.064,12.197h4.061V138.213z"/>
	</g>
	<g>
		<g>
			<path fill="#008FDB" d="M466.346,884.701l-8.13-4.064v-4.064l-4.061,4.064l4.061,4.064l-8.127,4.064h-4.064l-4.064,8.133h-4.064
				v4.061h-8.127h4.064l-4.064,4.067v4.061l-4.064,8.133l8.13,4.064h-4.064l4.064,4.064l-4.064,4.064l4.064,4.067h-8.13l4.064,8.13
				v4.064l4.064,8.13l-4.064,4.064c5.416,0,8.127,0.678,8.127,2.033c0,1.356,1.356,2.033,4.064,2.033l4.064-4.067l8.13-8.13
				c-2.711-5.419-2.033-11.519,2.03-18.294c4.064-6.778,4.742-12.875,2.03-18.294l4.064-4.067l4.064-4.061l-8.13-4.067h8.13
				l-4.064,4.067l4.064-4.067l-4.064-4.061L466.346,884.701z"/>
		</g>
		<g>
			<path fill="#008FDB" d="M1059.759,966.007l4.064-4.061l-4.064-4.067v-8.13c-5.419,0-7.453-0.675-6.097-2.033
				c1.355-1.353-0.678-2.03-6.097-2.03l4.061-8.133h-4.061h-4.064v-4.061l-8.13-4.067l4.064-4.064c-2.711,0-4.741-0.678-6.097-2.03
				c-1.355-1.358-3.389-2.033-6.097-2.033v-4.064l-8.13-4.064l4.064-4.067l-4.064-4.061c-2.711-2.711-4.064-4.744-4.064-6.1
				s-1.356-2.03-4.064-2.03l4.064-4.067l-8.128-4.064v4.064l-4.064-12.194l4.064-4.064h-4.064l-4.064-4.067l4.064-4.061l-8.13,4.061
				h4.064l-8.13,8.133l4.064,4.064h-4.064l4.064,12.197l-8.127,4.061l4.061,4.067l-4.061,4.061v4.067h-8.125l-4.064-4.067h-4.064
				l-4.061-8.13l-4.064-4.061v-4.067h-4.064l8.13-4.064l-4.064-4.064h8.127h-4.061l8.127-4.064l-12.191-4.064h4.064h-8.13h-8.13
				v-4.067h-4.061v-4.061h-8.13l8.13,4.061h-4.064v4.067h-4.064l-8.13,4.064l4.064,4.064h-8.128l4.061,4.064l-4.061,4.064h-4.064
				l-8.13-4.064h-4.064h-4.061l4.061,4.064h-8.127h4.064h-8.13v4.067l-4.064,4.061v-4.061l-4.064,4.061h4.064l-4.064,4.067v-8.13
				l-8.127,4.061c2.711,2.711,3.386,4.067,2.03,4.067c-1.356,0-0.675,1.353,2.033,4.061h-8.13l4.064,4.067l-8.13,4.064h-4.061h-8.13
				l4.064,4.064h-8.13h-8.127v4.064h-8.13l-4.064,12.194l-4.064-4.061l4.064,4.061l-4.064,8.133v4.064l-4.061,4.064l8.128,4.064
				h-4.064l4.064,4.067l-4.064,4.061v-4.061v8.13v-4.067l-4.061,4.067l8.127,4.064l-4.064,4.064h8.13l-4.064,4.064l4.064,4.064
				l-4.064,8.13l8.13,4.067l-4.064,12.194l-4.064,4.064l12.194,4.064v4.064h6.097h6.097v-4.064h8.13v-4.064h12.191h12.191h-4.064
				l8.13-4.064v-4.064l8.13-4.064h4.061c5.419,0,8.808-0.678,10.164-2.033c1.353-1.356,3.386-2.03,6.097-2.03h8.127l12.194,4.064
				l12.191,4.064l-8.13,4.064l12.194,4.064l-4.064,4.064l8.13,4.064l-4.064-8.13h8.127v-8.13l4.064,4.064l-4.064,4.064l4.064,4.064
				l-8.128,4.064h8.128v-4.064l4.064,4.064l-4.064,4.067h8.13v4.064l4.064,4.064l-4.064,4.064l8.128,4.064l4.064,4.064h8.13
				c-2.711,0-2.033,0,2.03,0c4.064,0,4.742,1.356,2.033,4.064l8.127-8.13l4.064,4.064l8.13,4.064l4.061-4.064l8.13-4.064h4.064
				h8.127l-4.061-8.13l4.061-8.13v-4.067l4.064-4.064v-4.064l4.064-8.13v-4.064l8.13-4.064l-4.064-4.067l4.064-4.061
				c-2.711-2.711-2.711-4.744,0-6.103c2.708-1.353,2.708-2.03,0-2.03l4.061-8.13l-8.127-4.064v-4.067h-4.079V966.007z"/>
		</g>
		<g>
			<path fill="#008FDB" d="M897.181,856.243h4.064l-12.194,4.064l4.064,4.064l-4.064,4.067l8.13-4.067v-4.064
				c5.419,0,8.13-0.678,8.13-2.03c0-1.358,1.356-2.033,4.061-2.033v-4.064h-4.061L897.181,856.243z"/>
		</g>
		<g>
			<polygon fill="#008FDB" points="860.599,852.179 856.536,852.179 848.408,852.179 852.469,856.243 856.533,856.243 
				864.663,856.243 860.599,852.179 			"/>
		</g>
		<g>
			<polygon fill="#008FDB" points="876.857,852.179 868.729,852.179 872.79,856.243 876.854,856.243 889.045,852.179 
				884.984,848.116 884.984,852.179 			"/>
		</g>
		<g>
			<polygon fill="#008FDB" points="840.278,856.243 844.341,852.179 840.278,848.116 828.086,848.116 828.086,844.049 
				815.892,839.988 815.892,844.049 803.701,844.049 807.765,839.988 799.635,839.988 791.504,839.988 791.504,844.049 
				795.568,848.116 803.698,848.116 811.826,848.116 819.956,852.179 836.214,852.179 836.214,856.243 			"/>
		</g>
		<g>
			<path fill="#008FDB" d="M1031.307,839.982l-12.191-4.067l4.064-4.064h-8.13v-4.064l-24.388-8.13h-4.061
				c-2.711-2.711-4.064-4.067-4.064-4.067h-8.13l-12.191,4.067v4.064l-8.13-4.064v-8.13l-4.064-4.067h-4.061h-4.064l-8.13,4.067
				l8.13,4.061l-4.064,4.067h12.191h-4.061l-8.13,4.064h8.13l-4.064,4.064h4.064h4.061l4.064,4.064h8.13l8.128,4.064l4.064,4.067
				v8.13l-8.127,4.064h12.188h8.13v4.072h16.258l4.064-4.064l4.061-4.064h12.194v4.064l12.191,8.13c-2.711,0-2.711,0.678,0,2.03
				c2.711,1.358,4.064,2.033,4.064,2.033l8.13,4.067l4.061-4.067l-12.191-4.064h8.13h-8.13l4.064-4.064h-8.13v-4.064l-8.127-4.064
				l4.061-4.067v-4.07H1031.307z"/>
		</g>
		<g>
			<path fill="#008FDB" d="M864.666,811.525l4.064,4.061l-8.13,4.067l8.13,4.064h-4.064l4.064,8.13l-4.064,4.064l4.064,4.067
				c2.708-2.711,3.386-5.419,2.03-8.133c-1.356-2.711-0.675-5.419,2.03-8.13l4.064,4.064v4.064l4.064,4.064h8.128h-8.128h4.064
				l4.061-4.064l-12.191-8.13h8.13l-12.194-8.133l8.13-4.061v-4.067h4.064h-4.064v4.067h-8.13v-4.067l-4.061-4.061h16.258
				l4.061,4.061l8.13-4.061v-4.067l4.064-4.064l-12.194,4.064h-8.128h-8.13l-4.061,4.067L864.666,811.525z"/>
		</g>
		<g>
			<path fill="#008FDB" d="M791.504,827.786l-4.061-4.064l4.061-4.064h-8.127v-4.067l-4.064-4.061l-8.127-4.067l8.127-4.061h-8.127
				l-4.064-8.133h-12.194l-4.061-8.13h-8.13v-4.064l-8.13-8.13c2.711,0,2.033-0.678-2.03-2.033s-6.097-2.033-6.097-2.033
				l-4.064,4.067l16.258,12.194l-4.064,4.064l12.194,4.064v8.133l8.127,4.061l4.064,12.197l8.13,4.064l-4.064,4.064l12.191,4.064
				v4.064h12.194v-8.13h4.058V827.786z"/>
		</g>
		<g>
			<path fill="#008FDB" d="M852.472,762.737l-4.061,4.064l-8.13,12.194l-8.13,4.067v4.064l-8.127,4.064h-4.064l-4.064,4.064h-8.127
				v4.064l-4.064,8.13l8.128,4.067l-4.061,4.061l4.061,8.133h4.064h8.13h8.127l4.064,4.064h4.064h4.064v-8.13l4.064-4.067v-4.061
				l4.061-8.13v-4.067h8.13l-8.13-4.064l4.064-4.064l-8.127-4.064l8.127-8.133v-4.061h4.064l4.064-4.067h-8.13
				c0,0-1.356-1.356-4.064-4.064h4.064l-8.127-4.064L852.472,762.737L852.472,762.737z"/>
		</g>
		<g>
			<path fill="#008FDB" d="M893.115,754.609l-12.191,4.064l4.064,4.064v-4.064h4.061h8.13l-8.13,4.064l8.13,4.064v4.064l8.13-4.064
				l-8.13-4.064h8.13l-4.064,4.064l8.127-4.064c-2.708-2.711-4.061-4.744-4.061-6.1s-1.356-3.389-4.064-6.1v-4.061l-4.064,4.061
				L893.115,754.609h-4.064H893.115z"/>
		</g>
		<g>
			<polygon fill="#008FDB" points="889.051,742.41 884.99,746.476 884.99,750.537 893.118,750.537 889.054,746.476 897.184,742.41 
				893.121,738.346 893.121,742.41 889.057,738.346 889.057,742.41 			"/>
		</g>
		<g>
			<polygon fill="#008FDB" points="860.599,742.41 864.663,746.476 856.533,750.537 856.533,754.604 860.596,750.537 
				868.726,746.476 868.726,742.41 872.787,738.346 			"/>
		</g>
		<g>
			<polygon fill="#008FDB" points="837.281,670.784 829.151,666.72 829.151,670.784 833.215,674.848 825.084,674.848 
				829.148,678.912 825.084,678.912 829.148,682.978 829.148,678.912 829.148,674.848 825.084,674.848 833.215,674.848 
				833.215,670.784 			"/>
		</g>
		<g>
			<polygon fill="#008FDB" points="816.957,634.196 812.893,634.196 808.83,634.196 800.702,638.26 804.763,650.454 800.702,646.39 
				804.763,654.523 800.702,658.584 804.763,658.584 804.763,662.651 800.702,662.651 808.83,666.715 816.96,670.778 
				816.96,666.715 821.021,670.778 821.021,674.842 825.084,658.578 816.957,654.518 808.827,650.451 812.89,646.387 
				821.018,642.324 812.89,638.26 			"/>
		</g>
		<g>
			<polygon fill="#008FDB" points="914.504,504.102 902.309,512.232 902.309,508.169 890.118,520.363 890.118,516.299 
				873.861,520.363 873.861,524.426 861.667,528.49 861.667,532.557 853.539,532.557 857.603,536.617 857.603,540.684 
				861.663,548.815 857.603,548.815 869.794,548.815 869.794,532.554 865.73,528.487 869.794,528.487 877.924,524.423 
				886.052,524.423 890.115,528.487 890.115,532.554 902.306,524.421 906.37,524.421 918.564,520.357 918.564,516.293 
				922.625,512.229 918.564,504.099 922.625,495.969 926.688,487.835 930.752,483.772 922.622,475.641 922.622,479.705 
				914.494,483.769 918.558,491.899 910.44,504.102 			"/>
		</g>
		<g>
			<polygon fill="#008FDB" points="922.631,463.447 914.504,467.514 918.567,475.644 922.628,475.644 930.758,467.514 
				934.822,475.644 942.949,467.514 947.013,463.447 947.013,455.317 938.886,455.317 938.886,451.253 926.691,443.123 
				930.755,451.253 922.631,463.447 			"/>
		</g>
		<g>
			<path fill="#008FDB" d="M930.761,386.205v8.13l4.064,12.197l-8.13,8.13l4.064,16.261v8.13l8.13-8.13v4.067l4.061-4.067
				l-12.191-8.13l8.13-12.197h4.061l-4.061-12.197l-4.064-12.194l4.064-8.13c-2.711-2.711-4.064-5.419-4.064-8.13
				c0-2.711-1.356-5.419-4.064-8.13v4.064l-4.064,8.13v12.197H930.761z"/>
		</g>
		<g>
			<path fill="#008FDB" d="M1194.956,211.392h-12.194v8.13v-4.067l-4.064-8.13l-12.191-16.261l-12.191-8.13l-4.064-4.064
				l-8.13-4.064l-12.191-8.13h-20.322l-12.191-4.064l-8.13,8.13l8.13,8.13l-8.13,4.064l-8.13-12.194h-12.191l-8.13-4.067h-12.191
				l-4.064,4.067l-12.191-4.067l4.064-12.197l-8.13-4.064l-8.13-4.064l-28.449,4.064l-8.13-12.197l-8.127-12.197l-48.776-12.194
				l-12.191,8.13l8.127,16.261h-16.258v4.067l-12.191-8.13l-8.13,4.064l-12.191-8.13v20.327l-20.322-8.13l-4.064-12.197v-8.13
				l4.064-16.261l-16.258-8.13h-4.064L816.976,93.5l4.061,12.197h-28.449l4.064-12.197l-24.388-4.064l-4.064,4.064l-8.127,8.13
				l4.061-12.197l-12.191,4.064l-4.064-8.13h-8.127l8.127-8.13l8.13-12.197l12.191-4.064l-4.064-12.194v-8.13l-16.258-12.197
				h-12.191l-8.13,4.064V16.258l-16.258-4.064L723.49,8.13L711.299,0l-12.191,8.13l-8.13,12.197v12.194h-16.258l-8.13,12.197
				l-8.128-4.064h-8.13l-8.128,8.13l-8.13,4.064l-16.258,8.13L605.622,77.24l8.13,8.13l-16.258,4.064h-12.194l-12.191,4.064
				l4.064,20.327v16.261l-8.13-8.13h-16.258l-4.064,8.13l-4.064,12.197v-4.067l-4.061-16.261l4.061-12.194h-8.127l8.127,16.261
				L528.4,138.219l12.194,12.197l-8.13,16.261l8.13,8.13v4.064l4.061,8.13v12.197v4.067l-8.127,8.13v4.064l-8.13,8.13v-4.064
				l4.064-20.327l8.13-12.197l-12.194-8.13l8.13-24.394l-8.13-12.194l-4.064-4.067l4.064-12.197v-12.194l-20.322-8.13v8.13
				l-8.127,16.261l-4.064,16.261l-4.064,4.064l4.064,12.197l-4.064,8.13l8.13,4.064l-4.064,4.064l12.191,8.13l-8.127,8.13
				l-16.258-20.327l-12.194-4.064l-12.191-4.067l-8.13,8.13l12.194,8.13l-12.194,12.197v-12.197l-12.191,8.13h-8.13l-8.127,8.13
				l-4.064-4.064l4.064-12.197c-8.13,5.422-14.227,9.486-18.291,12.197c-4.064,2.711-10.161,6.778-18.288,12.197v8.13l-12.194,4.067
				v-4.067l-4.064-8.13h12.194l-8.13-8.13l-12.191-8.13v12.197v4.064v8.13v8.13l-12.194-4.064l-16.258,12.194l8.13,12.197
				l-8.13,4.064l-12.191-8.13l-8.13,4.064l8.13,4.064l-4.095,8.139l-8.13-8.13l-4.061-20.327l-4.064-12.197l28.449,8.13l4.064-4.064
				l12.194-8.13l-4.064-8.13v-8.13l-28.452-20.327l-12.191-4.064l-12.194-8.13l-4.061,4.064l-8.13-8.13l12.191-4.067l-20.321-12.194
				l-8.127,4.064h-16.258l-4.064,16.261h-12.191l-8.13,8.13c-8.13,5.419-13.547,10.841-16.258,16.261
				c-2.711,5.422-6.775,10.841-12.194,16.264c-2.708,8.13-6.772,16.261-12.191,24.391s-9.486,16.261-12.191,24.394l-16.261,12.197
				l-8.127,12.194l-12.194,8.13l8.13,28.458l-4.064,12.197l12.194,4.064h4.061l16.261-12.197l4.061,4.064l8.13,16.261v12.197
				l4.064,8.13h4.064l8.127-8.13l8.13-8.13v-20.327h8.127l4.064-12.197l-4.064-8.13l-8.127-8.13l8.127-16.261l8.13-12.194
				l12.191-8.13l-4.061-8.13l8.127-12.194l8.13-4.067l12.191,8.13l-4.064,4.064v4.064l-16.258,12.197l-4.064,8.13l-4.061,8.13
				l4.061,12.197l-4.061,12.197l8.127,4.064v8.13l16.258-4.067l8.13-4.064h12.191l4.064,8.13l-8.13-4.067h-8.127h-4.064h-12.191
				l-4.064,4.067l-4.064,8.13l8.13,4.067v-4.067c2.711,2.711,2.711,5.422,0,8.13s-2.711,5.419,0,8.13h-8.13v-8.13l-8.127,4.064
				l4.061,4.064l-4.061,8.13l4.061,8.13l-12.191,4.067l4.064,4.064h-12.194h4.064l-8.127-4.064c0,2.711-2.033,4.742-6.1,6.097
				c-4.061,1.356-6.097,2.033-6.097,2.033l-8.127,4.064v-4.064l-8.13-4.064l-12.191,4.064l4.061-4.064h-12.191l4.064-4.064
				l-4.064-8.13l8.13-8.13l-4.064,4.064l8.127-4.064l-8.127-4.067h4.064l-4.064-4.064l4.064-8.13l-8.13,8.13l-8.13,4.064
				l4.064,12.197v4.064l4.064,8.13l-4.064,4.064v8.13l-8.127-4.067l-4.064,4.067l-12.194,4.064v12.197l-8.127,4.064h-4.064
				c-2.711,0-2.711,1.356,0,4.064l-8.13,8.13l-8.127,4.064l-8.13-4.064l4.064,12.197l-12.191-4.067h-8.13l-4.064,8.13l16.261,4.064
				v4.064l8.127,8.13l-4.078,16.281l4.064,4.064H77.22h-4.064H60.965v-4.064l-12.191,8.13l4.061,4.067l-4.061,8.13h8.127
				l-4.064,4.064v4.064l-4.061,4.064h4.061l-4.061,4.064l4.061,4.067l4.064,8.13h4.064h4.064l4.064,4.064v4.064h4.061v-4.064h8.13
				h4.064h4.064l8.127-8.133l8.13-4.061v-4.067v-4.064l8.127-4.064l-4.064-4.064h12.194v-4.064l4.064-8.13l4.061-4.067l16.261,4.067
				l4.061-4.067h4.064l4.064-8.13l8.13,4.064h-4.064l8.127,8.133v4.061l12.194,4.067v4.064h8.127h-4.061l8.127,4.064v4.064h4.064
				c3.386,3.389,2.711,5.419,0,8.133l-4.064,4.061l4.064,4.067h-4.064l8.13-8.13h-4.064l4.064-4.067h-8.13l8.13-4.064l8.127,4.064
				h-4.061l4.061-4.064l-8.127-4.064c0,0-1.356-0.675-4.064-2.033c-2.711-1.353-4.064-2.03-4.064-2.03l4.064-4.064h-8.13
				l-4.061-4.067l-4.064-8.13l-4.061-8.127l-4.064-4.064l4.064-8.13h8.13H182.9h-4.064l4.064,4.067l4.064-4.067v4.067h4.061v4.064
				v8.13l12.194,4.064c2.711,0,4.064,0.678,4.064,2.033c0,1.356,2.708,2.033,8.127,2.033l-4.064,4.061h8.13l-4.064,12.197
				l8.13,4.064l-4.064,4.064c2.711,0,4.064,0.678,4.064,2.033c0,1.356,1.356,3.386,4.064,6.097l-4.064,4.067l8.127,4.064v4.064h8.13
				l-8.13-4.064h8.13l-4.064-4.064h8.13l-4.064-4.067v-4.061l-4.064-4.067v-8.13l4.064,4.064l8.127-4.064l-8.127-4.064h8.127h4.064
				h4.064v4.064c2.711,0,4.064-0.675,4.064-2.033c0-1.353,2.711-2.03,8.127-2.03l8.13-4.064h-8.13l4.064-4.067l-8.127-4.061
				l8.127-4.067l-4.064-4.064l8.13-12.194h-4.064l8.13-4.067h-4.064l8.13-8.13l-4.064-4.067h12.191l-4.064,4.067h12.194
				l-4.064,4.064v4.064h-4.064l8.13,4.067l-4.064,4.064h8.13l4.061-4.064h8.124v-4.067h-4.064h-4.064l4.064-4.064v-4.064h8.13
				v-4.067h8.127h4.064h4.064l-16.258,4.067l8.127,4.064l-8.127,4.064v4.067v4.064h8.127l4.064,8.13l8.13,4.064h8.127v8.13
				l4.064,4.067l-12.191,4.064h-12.194l-8.127-4.064l-16.258-4.067h-4.064l-8.13,4.067l-4.064,4.064h-12.191v4.064h-12.191
				l-4.064,8.13v4.067l4.064,4.061v4.067l8.127,8.13l12.194,4.064l4.061-4.064h4.064l8.13,4.064h4.064l8.127-4.064v4.064h8.13h-8.13
				h4.066l-8.13,4.064l4.064,4.064l-4.064,4.064v8.13h-4.061v12.197l-8.13,4.064l-8.13-4.064l4.064,4.064l-8.127-4.064h-4.064
				l-8.13,4.064c0,0-2.03-0.678-6.097-2.03c-4.064-1.358-6.097-2.033-6.097-2.033h-12.194h-8.127v-4.064h-4.064l-8.127-8.133
				l-8.13,8.133v4.064v4.064v4.064l-12.191-4.064h-4.064l-8.13-4.064v-4.064l-12.191-4.064v-4.067h-4.064h-4.064h-8.127l4.061-4.061
				h-8.127l4.064-4.067v-4.064l4.061-8.13h-8.127l4.064-4.064v-4.064h4.061h-8.127l4.064-4.064h-8.13l-4.064,4.064h-8.127h4.061
				h-12.191v4.064l-8.13-4.064h-6.097c-4.064,0-6.097,1.356-6.097,4.064h-12.191v4.064l-8.13,4.064l-4.064,4.064h-4.061
				l-4.064-4.064H73.159l4.064-4.064h-8.127l-4.064,12.194l-8.13,4.067v4.061l-8.127,4.067l4.061,4.064l-8.127,8.13l8.127,8.133
				l-12.191,4.061v4.067H28.452l4.061,4.064l-8.127,8.13l-8.13,4.064l4.064,4.067l-4.064,4.061l-8.127,4.067l4.064,4.064
				l-4.064,4.064v4.064H4.064c2.708,2.711,3.386,4.742,2.03,6.1c-1.353,1.356,2.033,6.097,2.033,6.097l4.064,24.394l-8.127,4.064
				l4.064,4.067H0l8.127,4.061l-4.064,4.067l4.064,8.13v4.064h8.127h-4.064h8.128l-4.064,4.064l4.064,4.067h4.064v4.061l4.064,8.133
				l-4.064,4.064h8.127l12.194,8.13v4.067l12.191,4.061c5.419,0,8.13-0.675,8.13-2.03c0-1.356,1.356-2.03,4.064-2.03h8.127h8.13
				l8.127,4.061v-4.061l20.321-8.133h8.13h8.127v4.064l8.13,12.197l4.064-4.067l8.127-4.061l-4.061,4.061h8.127l-4.064,4.067h8.13
				l-4.064,4.064l4.064,4.064l-4.064,4.064h4.064c-2.711,0-3.386,1.356-2.03,4.064c1.356,2.708,0.675,4.067-2.033,4.067l4.064,8.13
				v8.13l16.258,8.13v8.13l4.064,4.067l-4.064,4.061l8.13,4.067c-2.711,2.711-3.389,4.744-2.033,6.097
				c1.356,1.358,2.033,6.1,2.033,6.1h-4.064c2.711,2.711,3.386,4.744,2.03,6.1c-1.356,1.355,2.033,6.097,2.033,6.097l4.064,8.133
				l-12.194,8.13v4.064l-4.064,4.067l4.064,4.061l-4.064,8.13c0.678,3.392,1.356,5.422,4.064,8.133v4.064l4.064,4.064v8.133
				l4.064,4.061v4.067l4.064,12.194l-4.064,12.194l8.127,4.067l-4.061,4.064l8.127,4.064v4.064c2.711,2.711,4.064,6.1,4.064,10.164
				s2.711,7.453,8.13,10.164l-4.064,8.13h4.064l-4.064,4.064l4.064,8.13v4.067h4.061h4.064l4.064-4.067h12.191h12.194h-4.064h8.127
				l-4.061-4.064h8.127h4.064l8.13-4.064c-2.711-2.711-2.711-4.742,0-6.1c2.711-1.356,4.061-3.386,4.061-6.097l8.13-4.064v-8.13
				h6.097c-1.356,0-0.675-1.359,2.033-4.067l8.127-8.13l4.064-8.13l-4.064-4.067l4.064-4.061h-4.064h4.064l-4.064-4.067
				c5.419,0,8.805-0.675,10.161-2.03c1.356-1.356,3.389-3.389,6.097-6.1l4.064-4.064h-8.127l4.061-12.194l-8.127-8.133l4.064-4.064
				l12.191-12.197c5.419-2.711,8.13-4.061,8.13-4.061s2.708-1.359,8.127-4.067v-4.061l8.13-8.133l-4.064-24.394v-4.064l-8.13-8.13
				l4.064-4.064v-4.067h4.064l-8.13-4.061l4.064-4.067l-4.064-4.064h8.13l-4.064-4.064l8.13-4.064l-4.064-4.064h4.064l8.127-4.067
				l8.13-8.13l8.13-4.061l4.061-8.133l12.194-4.064c-2.711-2.711-2.033-5.419,2.03-8.13c4.064-2.711,6.097-5.419,6.097-8.13
				l8.13-8.133c-2.711,0-2.711-1.356,0-4.064c2.711-2.708,2.711-5.419,0-8.13l8.13-8.13h-4.064l4.064-8.133h-16.261h-4.061
				l-8.13,4.064h-12.191h4.061l-8.127-4.064c-3.389,0,0-4.064,0-4.064h4.064l-12.194-4.064h4.064c-5.419-2.711-8.13-4.744-8.13-6.1
				s-1.356-2.033-4.061-2.033l-8.13-8.13h-8.13l4.064-8.13l-8.127-4.064c2.708-2.711,2.708-4.064,0-4.064h-4.064l-4.05-12.171
				l4.064-4.061l-4.064-4.07l4.064-4.064l-4.064-4.067l-4.064-4.064l-4.064-4.064l8.13-4.067l-12.191-4.061v-8.133l-8.13-12.194
				v-4.067l-8.13-4.061l8.13,8.13c0,2.711,0.675,4.064,2.03,4.064h6.1v-8.133l4.061-4.061l-4.061,8.13h8.127
				c-2.711,2.711-2.711,4.744,0,6.097c2.711,1.359,2.711,3.389,0,6.1l8.13,4.064h-4.069l8.13,4.067l-4.064,4.061l4.064,4.067
				l8.127,4.064v4.064l4.064,8.13v8.13h4.064l4.064,4.067l8.127,8.13l-4.064,4.064h4.064v4.064l4.064,8.13h-8.13h8.13l-4.064,4.067
				l4.064,8.13v4.064h12.191l-4.061-4.064h4.061h8.13l4.064-4.067h8.127v-4.061l12.194-4.067h4.064l4.061-4.064h-4.061l8.127-4.064
				h8.13l4.061-4.064h-4.061l8.127-4.064h8.13l-4.064-4.067l8.13-4.061h-4.064l4.064-8.13h4.061v-4.067l4.064-4.064
				c2.711-3.389,2.711-4.064,0-4.064l4.064-4.064h-8.13c-2.708-3.389-2.708-4.064,0-4.064l-8.127-4.067h-8.13l4.064-4.061
				l-4.064-8.133c-5.419,2.711-8.127,5.419-8.127,8.133c0,2.711-2.711,4.061-8.13,4.061h-4.064h-8.127h4.064l-8.13-4.061l8.13-4.067
				l-4.064-4.064h-4.064v4.064l-4.064-4.064v-4.064h-4.064l4.064-4.064c-5.419-2.711-7.453-4.744-6.097-6.1
				c1.356-1.355,2.03-6.097,2.03-6.097h-8.127h8.127l-4.061-4.067l8.127,4.067v-4.067l8.13,8.13v8.133h12.191v4.064l12.191,4.064
				l4.064-4.064l8.13-4.064l-4.064,4.064l8.13,8.13h10.161c1.356,0,4.741,1.356,10.161,4.067h16.258l12.191-4.067v4.067l8.13,4.061
				v4.067l12.191,8.13h-8.127l16.258,8.13l12.191-4.064l-4.064,8.133l4.064,8.13c-2.711,2.711-2.711,5.419,0,8.13
				c2.711,2.711,2.711,6.775,0,12.194l12.191,8.133l-4.061,4.061l4.061,8.133v4.064l4.064,4.064c0,2.711,0.678,5.422,2.033,8.133
				c1.356,2.711,0.675,4.061-2.033,4.061l12.194,8.133l-4.064-4.064l8.128-4.067l4.064-4.061l-4.064-4.067h8.13l-4.064-8.13
				l4.064-8.13l-4.064-4.067l4.064-8.13l-4.064-4.064h8.13l8.127-4.064h-4.061l8.127-4.064l8.13-12.194l12.191-4.067v-4.061
				l4.064-4.067v-4.064h8.13h-4.064h8.127l-4.061-4.064l8.127,4.064l-4.064-4.064l4.064-4.064h4.064l4.064,4.064v4.064l4.064,4.064
				l-4.064,4.067l8.127,4.061h4.064v8.13l8.13,8.133l-8.13,8.13h8.13l12.191-4.064l4.064,4.064v8.133l4.064,4.061v4.067l4.064,4.064
				l-4.064,4.064l4.064,4.064l-4.064,4.064v8.13l-4.064,4.067l8.13,4.064l-4.064-4.064c2.711,0,4.064,0.675,4.064,2.03
				c0,1.356,1.353,2.033,4.061,2.033l-4.061,4.064l12.191,4.064l-4.064,4.064l4.064,4.067l-4.064,4.061l8.13,4.067l-4.064,4.064
				l16.258,8.13l4.064-4.064h-8.13l-4.061-16.261l4.061-4.067l-8.127-4.064h-4.064l-12.191-8.13l4.061-8.133h-8.127l4.064-4.061
				c-2.711,0-2.711-1.358,0-4.067c2.708-2.711,2.708-5.419,0-8.13l4.061-8.13l4.064,4.064l12.194,4.064l-4.064,4.064l8.128,4.064
				l8.13,4.067l-8.13,4.061l8.13,4.067l4.064-12.197l12.191-4.064v-4.064l4.064-8.13l-8.13-12.197v-4.064v-4.064
				c0-2.711-1.356-5.419-4.064-8.13c-2.708-2.711-4.061-5.419-4.061-8.13v-4.067l8.127-4.061l4.064-8.133h4.064l4.064,4.064h4.061
				l-4.061,4.067h8.128v-4.067h8.13l8.127-8.13l8.13,4.064v-4.064h12.191c0,0,1.356-1.356,4.064-4.064
				c2.711-2.714,5.419-4.064,8.13-4.064l8.127-8.13c0-2.714,1.356-5.422,4.064-8.133c2.708-2.711,2.711-5.419,0-8.13h8.13v-4.064
				l4.061-8.13h-8.127v-4.067v-4.064l4.064-4.064l-12.194-12.197l4.064-8.13l-12.191-4.064l8.127-4.064v-4.064l8.13-4.064h4.064
				l4.061-4.064h-8.128v-4.064l-12.191,8.13V508.2l-4.064-4.064l-12.194-8.13l8.13-4.067l16.258-8.13v-4.064l4.064,4.064
				l-8.13,4.064l8.13,4.064l-8.13,4.067l12.194-4.067v-4.064h12.191h-4.064h8.13l-4.064,12.194h4.064l-8.13,4.067h8.13h-4.064
				l4.064,4.064l4.064-4.064l-4.064,4.064l8.128,4.064l-8.128,4.064l8.128,8.13l-8.128,4.064l4.064,4.067h4.061h8.13v-4.067
				l8.13-4.064l-4.064-16.261V496l-12.194-4.067l4.064-4.064v-4.064h8.13l-4.064-4.064h4.064v-4.064l4.064-4.067v-4.061h4.061
				l-4.061-4.067l16.258-4.064v4.064h8.127l4.064-4.064c5.419-5.419,8.805-10.164,10.161-14.23
				c1.356-4.064,4.744-7.453,10.161-10.164v-8.13l12.194-12.197l-4.064-12.197l4.064-12.194v-8.13l4.061-8.13l-8.127-8.13
				l-8.13,4.064l-4.064-4.064l-4.061-4.064l-4.064-4.064c2.711-5.422,8.127-12.197,16.258-20.327
				c8.13-8.13,14.902-16.261,20.322-24.391l24.388-4.067l12.191,4.067l12.194-8.13l4.061,4.064l4.064,8.13l4.064-4.064h16.258
				l-8.127-8.13l16.258-20.327l12.191-4.064l8.13,16.261l12.191-16.261l8.13-12.197v20.327l-12.194,12.197
				c-2.711,2.711-6.097,6.097-10.161,10.164c-4.064,4.064-7.453,8.808-10.161,14.23h-12.191l4.064,4.064l-8.13,8.13l4.064,12.197
				c-2.711,8.13-2.711,14.908,0,20.327c2.711,5.422,2.711,10.841,0,16.264l8.127,8.13l4.064-8.13l4.064-12.197h8.13l4.061-12.197
				v-4.064h12.194l-8.13-4.067l8.13-8.13l4.064-16.261h-8.13l4.064-4.064v-12.197l8.127-8.13l4.064,4.064l8.13-4.064v4.064
				l16.258-8.13l4.064,8.13l8.127-8.13c0-2.711,2.033-5.419,6.1-8.13c4.061-2.711,6.097-5.419,6.097-8.13L1138,272.423l8.13,4.064
				l4.064-4.064l-4.064-8.13l4.064-4.067l-8.13-8.13l-4.064-8.13h4.064l12.194-8.13v-4.067v-4.064l4.061-4.064v4.064v4.064h12.194
				l8.127,8.13l4.064,4.064l8.13,4.064l8.128-4.064l-4.061-12.197h12.246v-4.064l-8.13-16.261h-4.061V211.392z"/>
		</g>
	</g>
</g>
<g>
	<path fill="#008FDB" d="M982.064,987.137l-3.581,1.791c-2.391,1.196-2.391,1.793,0,1.793l-10.755-3.584l-3.584,3.584l7.171,7.171
		l-3.584,3.584l7.171,3.584h3.584l7.168-3.584h-3.584l3.584-3.584v-3.584l3.584-7.171H982.064z"/>
</g>
<g>
	<polygon fill="#008FDB" points="881.988,536.623 877.927,532.562 886.055,536.623 886.055,532.562 890.118,528.496 
		881.988,528.496 873.861,528.496 873.861,532.562 869.797,536.623 877.927,540.69 877.927,536.623 	"/>
</g>
<g>
	<path fill="#008FDB" d="M124.929,453.766l4.064-8.13l8.13-8.13l-4.064-8.13l8.127-4.064l-12.191-8.13
		c-2.711,2.711-4.742,5.422-6.097,8.13c-1.356,2.708-4.744,4.064-10.161,4.064l8.127,12.197l-8.127,12.197h12.191V453.766z"/>
</g>
<g>
	<polygon fill="#008FDB" points="137.126,417.175 145.254,413.112 145.254,417.175 145.254,421.242 157.448,421.242 
		157.448,429.372 161.508,437.503 145.251,437.503 149.314,441.566 149.314,445.63 145.251,449.697 145.251,453.76 157.445,453.76 
		145.251,457.824 141.187,465.954 137.126,470.021 145.254,465.954 149.317,465.954 157.448,461.891 169.639,461.891 
		173.703,461.891 185.894,457.827 177.763,453.763 185.894,449.7 181.83,445.633 177.766,441.569 173.706,437.505 173.706,425.309 
		165.575,425.309 161.512,413.112 153.384,413.112 161.512,400.915 161.512,392.784 149.32,392.784 153.384,380.587 
		145.254,380.587 137.126,388.718 141.187,400.912 137.126,404.978 141.187,417.172 137.126,417.172 	"/>
</g>
<g>
	<polygon fill="#008FDB" points="990.661,132.596 1006.922,132.596 1015.05,116.335 990.662,104.138 982.534,104.138 
		970.34,108.202 970.34,124.462 978.47,136.659 	"/>
</g>
<g>
	<path fill="#008FDB" d="M414.573,483.775v-4.064l-8.127,8.13h8.127l-4.064,4.064h8.13l-4.064,8.13l4.064,4.067l-4.064,4.064h-4.064
		h-12.191v-4.064l-8.13-4.067v-4.061l-4.061-4.067l8.127-4.064l-4.064-8.13h8.13h-8.13h4.064l-8.127-8.133
		c2.708-2.711,2.03-4.741-2.033-6.097c-4.064-1.355-4.742-3.389-2.03-6.1l-4.064-8.13l4.064-8.13l8.127-4.064v-4.064h8.13
		l4.064-4.067h8.127l4.064,8.13l-4.064,8.13v-4.067l-8.127,4.067l4.064,4.064h-12.194l4.064,4.064v4.064l8.13,4.064v4.067h8.127
		l-8.127,4.061l4.061,4.067v4.064l4.064-8.133l4.064,4.067v4.064v4.064h-4.067V483.775z"/>
</g>
<g>
	<path fill="#FFFFFF" d="M253.253,368.165v2.439h3.7c1.561,0,2.77,0.391,3.63,1.17c0.86,0.78,1.29,1.837,1.29,3.17
		c0,1.414-0.46,2.507-1.38,3.28s-2.2,1.16-3.84,1.16h-6.479v-14h10.739v2.78H253.253z M256.633,373.165h-3.38v3.439h3.4
		c1.427,0,2.14-0.593,2.14-1.779C258.793,373.717,258.073,373.165,256.633,373.165z"/>
	<path fill="#FFFFFF" d="M269.173,379.624c-1.627,0-2.967-0.517-4.021-1.55c-1.053-1.033-1.58-2.377-1.58-4.03
		c0-1.561,0.5-2.88,1.5-3.96s2.268-1.62,3.801-1.62c1.693,0,2.986,0.56,3.88,1.68s1.34,2.5,1.34,4.141c0,0.159-0.013,0.427-0.04,0.8
		h-7.46c0.146,0.68,0.446,1.2,0.899,1.56c0.453,0.36,1.027,0.54,1.721,0.54c0.947,0,1.813-0.366,2.6-1.1l1.74,1.54
		C272.473,378.957,271.013,379.624,269.173,379.624z M266.553,373.184h4.58c-0.094-0.693-0.337-1.246-0.73-1.66
		c-0.393-0.413-0.902-0.62-1.529-0.62c-0.613,0-1.123,0.204-1.53,0.61C266.936,371.921,266.673,372.478,266.553,373.184z"/>
	<path fill="#FFFFFF" d="M277.633,368.665h8.619v10.72h-3.039v-8.12h-2.721c0,1.413-0.053,2.607-0.16,3.58
		c-0.106,0.974-0.253,1.767-0.439,2.38c-0.188,0.613-0.447,1.087-0.779,1.42c-0.334,0.334-0.693,0.561-1.08,0.681
		c-0.387,0.119-0.867,0.18-1.44,0.18c-0.547,0-1.06-0.061-1.54-0.18l0.199-2.46c0.24,0.039,0.453,0.06,0.641,0.06
		c0.32,0,0.573-0.076,0.76-0.23c0.188-0.152,0.363-0.5,0.53-1.04c0.167-0.539,0.283-1.373,0.351-2.5
		C277.6,372.028,277.633,370.531,277.633,368.665z"/>
	<path fill="#FFFFFF" d="M292.013,379.584c-1.054,0-1.93-0.293-2.63-0.88s-1.05-1.4-1.05-2.44c0-1.133,0.39-1.986,1.17-2.56
		s1.83-0.86,3.149-0.86c0.894,0,1.768,0.146,2.621,0.44v-0.181c0-1.307-0.768-1.96-2.301-1.96c-0.92,0-1.906,0.193-2.96,0.58
		l-0.76-2.32c1.307-0.572,2.692-0.859,4.159-0.859c1.613,0,2.82,0.399,3.621,1.2c0.773,0.773,1.16,1.913,1.16,3.42v6.22h-2.94v-1.16
		C294.44,379.131,293.36,379.584,292.013,379.584z M292.933,377.484c0.706,0,1.28-0.176,1.72-0.529
		c0.44-0.354,0.66-0.804,0.66-1.351v-0.54c-0.573-0.267-1.22-0.399-1.939-0.399c-0.667,0-1.184,0.13-1.551,0.39
		c-0.366,0.26-0.549,0.637-0.549,1.13c0,0.4,0.152,0.717,0.459,0.95S292.44,377.484,292.933,377.484z"/>
	<path fill="#FFFFFF" d="M300.813,382.584v-13.92h3.04v1.54c0.853-1.16,1.967-1.74,3.341-1.74c1.332,0,2.479,0.5,3.439,1.5
		s1.439,2.36,1.439,4.08c0,1.707-0.477,3.057-1.43,4.05s-2.104,1.49-3.449,1.49c-1.334,0-2.447-0.533-3.341-1.601v4.601H300.813z
		 M304.563,376.174c0.5,0.554,1.117,0.83,1.85,0.83c0.734,0,1.354-0.276,1.86-0.83c0.507-0.553,0.761-1.276,0.761-2.17
		c0-0.866-0.254-1.577-0.761-2.13c-0.507-0.554-1.126-0.83-1.86-0.83c-0.732,0-1.35,0.276-1.85,0.83
		c-0.5,0.553-0.75,1.276-0.75,2.17C303.813,374.912,304.063,375.622,304.563,376.174z"/>
	<path fill="#FFFFFF" d="M316.872,382.644c-0.96,0-1.86-0.247-2.7-0.74l1.021-2.199c0.466,0.279,0.899,0.42,1.3,0.42
		c0.48,0,0.833-0.233,1.061-0.7l-4.201-10.76h3.221l2.439,7.3l2.34-7.3h3.16l-4.119,10.979c-0.414,1.106-0.881,1.884-1.4,2.33
		S317.766,382.644,316.872,382.644z"/>
	<path fill="#FFFFFF" d="M331.372,379.624c-1.601,0-2.93-0.54-3.989-1.62c-1.061-1.08-1.591-2.4-1.591-3.96
		c0-1.547,0.533-2.863,1.601-3.95c1.066-1.087,2.406-1.63,4.02-1.63c1.721,0,3.141,0.627,4.26,1.88l-1.779,1.8
		c-0.747-0.706-1.58-1.06-2.5-1.06c-0.747,0-1.367,0.287-1.86,0.859c-0.493,0.574-0.74,1.273-0.74,2.101
		c0,0.84,0.25,1.543,0.75,2.109c0.5,0.567,1.157,0.851,1.97,0.851c0.84,0,1.66-0.38,2.461-1.14l1.779,1.8
		c-0.587,0.64-1.213,1.127-1.88,1.46S332.372,379.624,331.372,379.624z"/>
	<path fill="#FFFFFF" d="M337.733,379.384v-10.72h3.039v3.54h2.201c1.293,0,2.33,0.3,3.109,0.899c0.78,0.601,1.17,1.48,1.17,2.641
		c0,1.133-0.363,2.023-1.09,2.67s-1.736,0.97-3.03,0.97H337.733z M342.672,374.504h-1.9v2.479h1.92c1,0,1.5-0.426,1.5-1.279
		c0-0.373-0.129-0.667-0.389-0.88C343.542,374.611,343.165,374.504,342.672,374.504z"/>
</g>
<g opacity="0.25">
	<circle fill="#FFFFFF" cx="227.645" cy="314.156" r="30.675"/>
</g>
<g opacity="0.25">
	<circle fill="#FFFFFF" cx="493.104" cy="444.973" r="30.675"/>
</g>
<g opacity="0.25">
	<circle fill="#FFFFFF" cx="723.451" cy="665.346" r="30.675"/>
</g>
<g>
	<path fill="#FFFFFF" d="M221.487,306.747h10v14h-3.08v-11.22h-4.04v1.06c0,2.733-0.163,4.854-0.489,6.36
		c-0.328,1.507-0.805,2.547-1.431,3.12c-0.627,0.573-1.5,0.859-2.62,0.859c-0.627,0-1.167-0.06-1.62-0.18l0.2-2.54
		c0.187,0.027,0.347,0.04,0.48,0.04c0.453,0,0.822-0.097,1.109-0.29s0.553-0.583,0.801-1.17c0.246-0.587,0.422-1.463,0.529-2.63
		c0.106-1.167,0.16-2.67,0.16-4.51V306.747z"/>
	<path fill="#FFFFFF" d="M237.567,320.947c-1.054,0-1.93-0.293-2.631-0.88c-0.699-0.587-1.049-1.4-1.049-2.44
		c0-1.133,0.389-1.986,1.17-2.56c0.779-0.573,1.83-0.86,3.149-0.86c0.894,0,1.767,0.146,2.62,0.44v-0.181
		c0-1.307-0.768-1.96-2.301-1.96c-0.92,0-1.906,0.193-2.959,0.58l-0.76-2.32c1.307-0.572,2.692-0.859,4.159-0.859
		c1.613,0,2.82,0.399,3.62,1.2c0.773,0.773,1.16,1.913,1.16,3.42v6.22h-2.939v-1.16
		C239.992,320.494,238.912,320.947,237.567,320.947z M238.487,318.846c0.706,0,1.279-0.176,1.72-0.529s0.66-0.804,0.66-1.351v-0.54
		c-0.573-0.267-1.22-0.399-1.94-0.399c-0.666,0-1.184,0.13-1.55,0.39s-0.55,0.637-0.55,1.13c0,0.4,0.152,0.717,0.46,0.95
		C237.593,318.73,237.992,318.846,238.487,318.846z"/>
	<path fill="#FFFFFF" d="M254.746,310.027v2.6h-3.18v8.12h-3.08v-8.12h-3.181v-2.6H254.746z"/>
	<path fill="#FFFFFF" d="M256.406,310.027h5.88c1.093,0,1.963,0.239,2.61,0.72c0.646,0.48,0.969,1.134,0.969,1.96
		c0,1.12-0.566,1.927-1.699,2.42c1.4,0.427,2.1,1.327,2.1,2.7c0,0.907-0.356,1.62-1.07,2.14c-0.713,0.521-1.689,0.78-2.93,0.78
		h-5.859V310.027z M259.406,314.327h2.14c0.413,0,0.729-0.1,0.95-0.3c0.22-0.2,0.33-0.46,0.33-0.78c0-0.28-0.104-0.513-0.311-0.7
		c-0.207-0.187-0.517-0.28-0.93-0.28h-2.18V314.327z M259.406,318.367h2.399c0.921,0,1.38-0.36,1.38-1.08
		c0-0.693-0.486-1.04-1.459-1.04h-2.32V318.367z"/>
	<path fill="#FFFFFF" d="M278.386,310.027v10.72h-2.94v-6.24l-4.18,6.24h-2.859v-10.72h2.939v6.26l4.18-6.26H278.386z"/>
	<path fill="#FFFFFF" d="M290.606,310.027v10.72h-3.04v-3.44h-1.64l-2.26,3.44h-3.521l2.74-3.94c-1.493-0.572-2.24-1.64-2.24-3.199
		c0-1.094,0.38-1.964,1.14-2.61s1.827-0.97,3.201-0.97H290.606z M285.506,315.107h2.06v-2.7h-2.079c-0.561,0-0.994,0.117-1.301,0.35
		c-0.307,0.233-0.46,0.57-0.46,1.01c0,0.428,0.157,0.758,0.47,0.99C284.509,314.99,284.946,315.107,285.506,315.107z"/>
</g>
<g>
	<path fill="#FFFFFF" d="M266.813,293.915c-1.41,0-2.581-0.487-3.514-1.463c-0.934-0.976-1.4-2.177-1.4-3.605
		c0-1.409,0.471-2.605,1.414-3.591c0.942-0.984,2.123-1.477,3.542-1.477c0.821,0,1.521,0.133,2.1,0.398
		c0.579,0.267,1.144,0.661,1.694,1.184l-0.729,0.784c-0.942-0.896-1.969-1.345-3.08-1.345c-1.082,0-1.985,0.388-2.709,1.162
		c-0.723,0.775-1.084,1.736-1.084,2.884c0,1.14,0.363,2.099,1.092,2.877c0.728,0.78,1.629,1.17,2.701,1.17
		c0.635,0,1.195-0.117,1.681-0.351s0.979-0.588,1.483-1.063l0.729,0.77c-0.551,0.551-1.129,0.966-1.736,1.246
		C268.39,293.775,267.662,293.915,266.813,293.915z"/>
	<path fill="#FFFFFF" d="M274.639,293.901c-0.738,0-1.373-0.201-1.904-0.603c-0.532-0.401-0.798-0.961-0.798-1.68
		c0-0.756,0.28-1.339,0.84-1.75s1.312-0.616,2.254-0.616c0.747,0,1.483,0.103,2.212,0.309v-0.225c0-0.635-0.187-1.12-0.561-1.456
		c-0.373-0.336-0.9-0.504-1.582-0.504c-0.709,0-1.441,0.173-2.197,0.519l-0.322-0.883c0.896-0.41,1.773-0.615,2.633-0.615
		c1.025,0,1.806,0.266,2.338,0.798c0.504,0.504,0.756,1.213,0.756,2.128v4.424h-1.064v-1.078
		C276.598,293.49,275.731,293.901,274.639,293.901z M274.848,293.033c0.673,0,1.242-0.183,1.709-0.546
		c0.467-0.364,0.699-0.831,0.699-1.4v-0.672c-0.709-0.205-1.414-0.308-2.113-0.308c-0.663,0-1.182,0.133-1.555,0.398
		c-0.373,0.267-0.56,0.628-0.56,1.085c0,0.439,0.175,0.789,0.524,1.05C273.904,292.902,274.335,293.033,274.848,293.033z"/>
	<path fill="#FFFFFF" d="M280.588,293.747v-7.238h1.078v3.122h4.172v-3.122h1.078v7.238h-1.078v-3.164h-4.172v3.164H280.588z"/>
	<path fill="#FFFFFF" d="M289.324,293.747v-7.238h1.078v4.172l3.962-4.172h1.33l-3.024,3.137l3.108,4.102h-1.274l-2.576-3.318
		l-1.525,1.568v1.75H289.324z"/>
	<path fill="#FFFFFF" d="M299.012,293.747v-6.286h-2.59v-0.952h6.271v0.952h-2.59v6.286H299.012z"/>
	<path fill="#FFFFFF" d="M303.968,290.107v-1.135h3.892v1.135H303.968z"/>
	<path fill="#FFFFFF" d="M310.156,293.747v-9.8h7.727v9.8h-1.105v-8.792h-5.516v8.792H310.156z"/>
	<path fill="#FFFFFF" d="M323.638,293.915c-1.018,0-1.874-0.353-2.569-1.057c-0.695-0.705-1.043-1.612-1.043-2.724
		c0-1.055,0.332-1.948,0.994-2.681s1.488-1.099,2.479-1.099c1.035,0,1.856,0.363,2.463,1.092c0.607,0.728,0.91,1.643,0.91,2.744
		c0,0.14-0.004,0.266-0.014,0.378h-5.74c0.074,0.737,0.353,1.322,0.834,1.757c0.48,0.434,1.052,0.651,1.715,0.651
		c0.867,0,1.628-0.341,2.281-1.022l0.672,0.602C325.808,293.462,324.814,293.915,323.638,293.915z M321.117,289.701h4.662
		c-0.064-0.7-0.297-1.281-0.693-1.743s-0.936-0.693-1.616-0.693c-0.616,0-1.144,0.229-1.582,0.687S321.192,288.992,321.117,289.701z
		"/>
	<path fill="#FFFFFF" d="M330.512,293.747v-6.286h-2.59v-0.952h6.271v0.952h-2.59v6.286H330.512z"/>
	<path fill="#FFFFFF" d="M338.926,293.915c-1.018,0-1.874-0.353-2.569-1.057c-0.695-0.705-1.043-1.612-1.043-2.724
		c0-1.055,0.331-1.948,0.994-2.681s1.489-1.099,2.478-1.099c1.037,0,1.857,0.363,2.465,1.092c0.606,0.728,0.91,1.643,0.91,2.744
		c0,0.14-0.006,0.266-0.015,0.378h-5.739c0.074,0.737,0.352,1.322,0.832,1.757c0.48,0.434,1.053,0.651,1.715,0.651
		c0.869,0,1.629-0.341,2.283-1.022l0.672,0.602C341.096,293.462,340.102,293.915,338.926,293.915z M336.406,289.701h4.661
		c-0.065-0.7-0.296-1.281-0.692-1.743s-0.936-0.693-1.617-0.693c-0.616,0-1.144,0.229-1.582,0.687
		C336.737,288.408,336.481,288.992,336.406,289.701z"/>
	<path fill="#FFFFFF" d="M344.05,295.987v-9.479h1.078v1.456c0.728-1.073,1.651-1.609,2.772-1.609c0.924,0,1.73,0.343,2.422,1.028
		c0.689,0.687,1.035,1.604,1.035,2.751c0,1.13-0.346,2.04-1.035,2.73c-0.691,0.69-1.498,1.036-2.422,1.036
		c-1.14,0-2.063-0.514-2.772-1.54v3.626H344.05z M347.703,292.935c0.729,0,1.335-0.255,1.82-0.764s0.729-1.192,0.729-2.051
		c0-0.831-0.248-1.505-0.742-2.023c-0.495-0.518-1.097-0.776-1.807-0.776c-0.699,0-1.311,0.266-1.834,0.798
		c-0.522,0.532-0.783,1.204-0.783,2.016c0,0.813,0.261,1.482,0.783,2.01C346.393,292.671,347.004,292.935,347.703,292.935z"/>
	<path fill="#FFFFFF" d="M356.747,293.915c-1.11,0-2-0.366-2.667-1.099c-0.668-0.733-1.001-1.725-1.001-2.976
		c0-0.457,0.009-0.847,0.028-1.169c0.018-0.322,0.056-0.679,0.111-1.071c0.057-0.392,0.145-0.728,0.267-1.008
		c0.121-0.279,0.277-0.555,0.469-0.826c0.191-0.271,0.44-0.499,0.749-0.686s0.667-0.326,1.078-0.42l4.031-0.952l0.211,0.91
		l-3.92,0.966c-0.729,0.187-1.249,0.483-1.562,0.889c-0.313,0.406-0.497,0.969-0.553,1.688c0.616-1.045,1.614-1.568,2.996-1.568
		c0.952,0,1.769,0.353,2.45,1.058c0.681,0.704,1.021,1.552,1.021,2.541c0,1.026-0.354,1.903-1.064,2.632
		C358.684,293.55,357.802,293.915,356.747,293.915z M356.776,292.949c0.736,0,1.348-0.264,1.834-0.791
		c0.484-0.527,0.728-1.174,0.728-1.939c0-0.756-0.249-1.399-0.749-1.932c-0.499-0.532-1.113-0.798-1.841-0.798
		c-0.737,0-1.349,0.264-1.834,0.791s-0.728,1.174-0.728,1.938c0,0.756,0.249,1.4,0.748,1.933
		C355.434,292.682,356.047,292.949,356.776,292.949z"/>
	<path fill="#FFFFFF" d="M363.524,296.029c-0.523,0-1.036-0.122-1.54-0.364l0.364-0.854c0.345,0.177,0.723,0.266,1.134,0.266
		c0.326,0,0.602-0.101,0.825-0.301c0.225-0.201,0.443-0.554,0.658-1.058l-3.289-7.21h1.189l2.632,6.034l2.324-6.034h1.147
		l-3.037,7.477c-0.309,0.737-0.649,1.262-1.022,1.575C364.535,295.873,364.074,296.029,363.524,296.029z"/>
	<path fill="#FFFFFF" d="M370.678,295.987v-9.479h1.078v1.456c0.727-1.073,1.651-1.609,2.771-1.609c0.924,0,1.73,0.343,2.422,1.028
		c0.69,0.687,1.036,1.604,1.036,2.751c0,1.13-0.346,2.04-1.036,2.73c-0.691,0.69-1.498,1.036-2.422,1.036
		c-1.139,0-2.063-0.514-2.771-1.54v3.626H370.678z M374.331,292.935c0.728,0,1.335-0.255,1.82-0.764s0.728-1.192,0.728-2.051
		c0-0.831-0.247-1.505-0.742-2.023c-0.494-0.518-1.096-0.776-1.806-0.776c-0.7,0-1.312,0.266-1.834,0.798s-0.784,1.204-0.784,2.016
		c0,0.813,0.262,1.482,0.784,2.01S373.631,292.935,374.331,292.935z"/>
	<path fill="#FFFFFF" d="M379.973,293.747v-7.238h4.914v0.952h-3.836v6.286H379.973z"/>
</g>
<g opacity="0.25">
	<circle fill="#FFFFFF" cx="303.175" cy="426.886" r="30.675"/>
</g>
<g opacity="0.25">
	<circle fill="#FFFFFF" cx="254.175" cy="373.886" r="30.675"/>
</g>
<g>
	<path fill="#FFFFFF" d="M303.742,426.54l3.379-7.4h3.34l-5.379,10.82c-0.601,1.199-1.264,2.066-1.99,2.6s-1.59,0.8-2.59,0.8
		c-1.054,0-2.061-0.272-3.021-0.819l1.2-2.261c0.506,0.308,1.061,0.46,1.66,0.46c0.693,0,1.279-0.373,1.76-1.119l-5.6-10.48h3.439
		L303.742,426.54z"/>
	<path fill="#FFFFFF" d="M312.182,433.14v-10.72h3.039v4.399l3.841-4.399h3.5l-3.94,4.399l4.44,6.32h-3.601l-2.859-4.08l-1.381,1.5
		v2.58H312.182z"/>
	<path fill="#FFFFFF" d="M324.402,436.34v-13.92h3.04v1.54c0.854-1.16,1.967-1.74,3.34-1.74c1.334,0,2.48,0.5,3.44,1.5
		s1.44,2.36,1.44,4.08c0,1.707-0.478,3.057-1.431,4.05c-0.954,0.993-2.104,1.49-3.45,1.49c-1.333,0-2.447-0.533-3.34-1.601v4.601
		H324.402z M328.152,429.93c0.5,0.554,1.116,0.83,1.851,0.83c0.732,0,1.353-0.276,1.859-0.83c0.507-0.553,0.76-1.276,0.76-2.17
		c0-0.866-0.253-1.577-0.76-2.13c-0.507-0.554-1.127-0.83-1.859-0.83c-0.734,0-1.351,0.276-1.851,0.83
		c-0.5,0.553-0.75,1.276-0.75,2.17C327.402,428.667,327.652,429.377,328.152,429.93z"/>
	<path fill="#FFFFFF" d="M340.942,433.34c-1.054,0-1.93-0.293-2.631-0.88c-0.699-0.587-1.049-1.4-1.049-2.44
		c0-1.133,0.389-1.986,1.17-2.56c0.779-0.573,1.83-0.86,3.149-0.86c0.894,0,1.767,0.146,2.62,0.44v-0.181
		c0-1.307-0.768-1.96-2.301-1.96c-0.92,0-1.906,0.193-2.959,0.58l-0.76-2.32c1.307-0.572,2.692-0.859,4.159-0.859
		c1.613,0,2.82,0.399,3.62,1.2c0.773,0.773,1.16,1.913,1.16,3.42v6.22h-2.939v-1.16C343.367,432.887,342.287,433.34,340.942,433.34z
		 M341.862,431.24c0.706,0,1.279-0.176,1.72-0.529s0.66-0.804,0.66-1.351v-0.54c-0.573-0.267-1.22-0.399-1.94-0.399
		c-0.666,0-1.184,0.13-1.55,0.39s-0.55,0.637-0.55,1.13c0,0.4,0.152,0.717,0.46,0.95C340.968,431.124,341.367,431.24,341.862,431.24
		z"/>
	<path fill="#FFFFFF" d="M359.721,422.42v10.72h-2.939v-6.24l-4.18,6.24h-2.861v-10.72h2.94v6.26l4.181-6.26H359.721z"/>
	<path fill="#FFFFFF" d="M372.262,422.42v10.72h-3.041v-4.1h-3.74v4.1h-3.039v-10.72h3.039v4.12h3.74v-4.12H372.262z"/>
	<path fill="#FFFFFF" d="M378.022,433.34c-1.054,0-1.93-0.293-2.631-0.88c-0.699-0.587-1.049-1.4-1.049-2.44
		c0-1.133,0.389-1.986,1.17-2.56c0.779-0.573,1.83-0.86,3.149-0.86c0.894,0,1.767,0.146,2.62,0.44v-0.181
		c0-1.307-0.768-1.96-2.301-1.96c-0.92,0-1.906,0.193-2.959,0.58l-0.76-2.32c1.307-0.572,2.692-0.859,4.159-0.859
		c1.613,0,2.82,0.399,3.62,1.2c0.773,0.773,1.16,1.913,1.16,3.42v6.22h-2.939v-1.16C380.447,432.887,379.367,433.34,378.022,433.34z
		 M378.942,431.24c0.706,0,1.279-0.176,1.72-0.529s0.66-0.804,0.66-1.351v-0.54c-0.573-0.267-1.22-0.399-1.94-0.399
		c-0.666,0-1.184,0.13-1.55,0.39s-0.55,0.637-0.55,1.13c0,0.4,0.152,0.717,0.46,0.95C378.048,431.124,378.447,431.24,378.942,431.24
		z"/>
</g>
<g>
	<path fill="#FFFFFF" d="M716.876,672.601v-14h6.5c1.613,0,2.833,0.413,3.66,1.24c0.641,0.64,0.96,1.446,0.96,2.42
		c0,1.32-0.613,2.327-1.84,3.02c0.866,0.334,1.521,0.771,1.96,1.311c0.44,0.54,0.66,1.264,0.66,2.17c0,1.253-0.467,2.207-1.4,2.859
		c-0.934,0.654-2.213,0.98-3.84,0.98H716.876z M719.876,664.261h2.84c1.48,0,2.221-0.507,2.221-1.521
		c0-0.466-0.174-0.823-0.521-1.069c-0.347-0.247-0.847-0.37-1.5-0.37h-3.04V664.261z M719.876,669.901h3.66
		c1.453,0,2.18-0.52,2.18-1.56c0-1.014-0.76-1.521-2.279-1.521h-3.561V669.901z"/>
	<path fill="#FFFFFF" d="M730.996,672.601v-10.72h3.04v3.54h2.199c1.294,0,2.33,0.3,3.11,0.899c0.78,0.601,1.17,1.48,1.17,2.641
		c0,1.133-0.363,2.023-1.09,2.67s-1.737,0.97-3.03,0.97H730.996z M735.936,667.721h-1.899v2.479h1.92c1,0,1.5-0.426,1.5-1.279
		c0-0.373-0.13-0.667-0.391-0.88C736.806,667.828,736.429,667.721,735.936,667.721z"/>
	<path fill="#FFFFFF" d="M747.336,672.841c-1.627,0-2.968-0.517-4.021-1.55c-1.054-1.033-1.58-2.377-1.58-4.03
		c0-1.561,0.5-2.88,1.5-3.96s2.267-1.62,3.8-1.62c1.693,0,2.987,0.56,3.88,1.68c0.894,1.12,1.341,2.5,1.341,4.141
		c0,0.159-0.014,0.427-0.04,0.8h-7.46c0.146,0.68,0.446,1.2,0.899,1.56c0.453,0.36,1.026,0.54,1.721,0.54
		c0.946,0,1.813-0.366,2.6-1.1l1.74,1.54C750.636,672.174,749.176,672.841,747.336,672.841z M744.716,666.401h4.58
		c-0.094-0.693-0.337-1.246-0.73-1.66c-0.394-0.413-0.903-0.62-1.53-0.62c-0.613,0-1.123,0.204-1.529,0.61
		C745.099,665.138,744.836,665.695,744.716,666.401z"/>
	<path fill="#FFFFFF" d="M762.896,661.881v2.6h-3.181v8.12h-3.079v-8.12h-3.181v-2.6H762.896z"/>
	<path fill="#FFFFFF" d="M774.375,661.881v10.72h-3.04v-4.1h-3.739v4.1h-3.04v-10.72h3.04v4.12h3.739v-4.12H774.375z"/>
	<path fill="#FFFFFF" d="M780.136,672.801c-1.054,0-1.931-0.293-2.631-0.88c-0.699-0.587-1.05-1.4-1.05-2.44
		c0-1.133,0.391-1.986,1.17-2.56c0.78-0.573,1.83-0.86,3.15-0.86c0.894,0,1.767,0.146,2.62,0.44v-0.181c0-1.307-0.767-1.96-2.3-1.96
		c-0.92,0-1.907,0.193-2.96,0.58l-0.761-2.32c1.307-0.572,2.693-0.859,4.16-0.859c1.613,0,2.82,0.399,3.62,1.2
		c0.773,0.773,1.16,1.913,1.16,3.42v6.22h-2.94v-1.16C782.562,672.348,781.482,672.801,780.136,672.801z M781.056,670.701
		c0.706,0,1.279-0.176,1.72-0.529s0.66-0.804,0.66-1.351v-0.54c-0.573-0.267-1.22-0.399-1.94-0.399c-0.667,0-1.184,0.13-1.55,0.39
		c-0.367,0.26-0.55,0.637-0.55,1.13c0,0.4,0.153,0.717,0.46,0.95S780.562,670.701,781.056,670.701z"/>
	<path fill="#FFFFFF" d="M788.936,672.601v-10.72h3.08l2.899,4.5l2.94-4.5h3.08v10.72h-3.08v-6.44l-2.98,4.4l-2.939-4.34v6.38
		H788.936z"/>
</g>
<g>
	<path fill="#FFFFFF" d="M885.234,387.615l4.466-9.87h1.036l4.466,9.87h-1.189l-1.148-2.59h-5.334l-1.162,2.59H885.234z
		 M887.964,384.031h4.466l-2.227-4.998L887.964,384.031z"/>
	<path fill="#FFFFFF" d="M896.951,387.615v-7.238h1.021l2.702,3.809l2.702-3.809h1.036v7.238h-1.092V382.1l-2.674,3.668
		l-2.646-3.668v5.516H896.951z"/>
	<path fill="#FFFFFF" d="M907.942,389.897c-0.523,0-1.036-0.122-1.54-0.364l0.364-0.854c0.345,0.177,0.723,0.266,1.134,0.266
		c0.326,0,0.602-0.101,0.826-0.301c0.224-0.201,0.442-0.554,0.657-1.058l-3.29-7.21h1.19l2.632,6.034l2.324-6.034h1.147
		l-3.037,7.477c-0.309,0.737-0.649,1.262-1.022,1.575C908.954,389.741,908.492,389.897,907.942,389.897z"/>
	<path fill="#FFFFFF" d="M915.095,389.855v-9.479h1.078v1.456c0.728-1.073,1.651-1.609,2.771-1.609c0.924,0,1.731,0.343,2.422,1.028
		c0.691,0.687,1.036,1.604,1.036,2.751c0,1.13-0.345,2.04-1.036,2.73c-0.69,0.69-1.498,1.036-2.422,1.036
		c-1.139,0-2.063-0.514-2.771-1.54v3.626H915.095z M918.749,386.804c0.728,0,1.334-0.255,1.819-0.764s0.729-1.192,0.729-2.051
		c0-0.831-0.248-1.505-0.742-2.023c-0.495-0.518-1.097-0.776-1.806-0.776c-0.7,0-1.312,0.266-1.834,0.798
		c-0.523,0.532-0.784,1.204-0.784,2.016c0,0.813,0.261,1.482,0.784,2.01C917.438,386.54,918.049,386.804,918.749,386.804z"/>
	<path fill="#FFFFFF" d="M927.653,387.783c-1.045,0-1.925-0.371-2.639-1.113c-0.714-0.741-1.071-1.631-1.071-2.667
		s0.357-1.925,1.071-2.667s1.594-1.112,2.639-1.112c1.12,0,2.086,0.429,2.898,1.288l-0.687,0.728
		c-0.672-0.709-1.414-1.064-2.226-1.064c-0.729,0-1.342,0.273-1.841,0.819c-0.5,0.546-0.749,1.216-0.749,2.009
		c0,0.784,0.254,1.449,0.763,1.995s1.141,0.819,1.897,0.819c0.774,0,1.502-0.364,2.184-1.092l0.714,0.657
		C929.767,387.316,928.781,387.783,927.653,387.783z"/>
	<path fill="#FFFFFF" d="M932.385,387.615v-7.238h1.078v4.172l3.962-4.172h1.33l-3.024,3.137l3.108,4.102h-1.274l-2.576-3.318
		l-1.525,1.568v1.75H932.385z"/>
</g>
<g>
	<path fill="#FFFFFF" d="M854.74,471.615v-9.8h4.172c1.148,0,2.002,0.289,2.563,0.868c0.42,0.438,0.63,0.971,0.63,1.596
		c0,1.063-0.518,1.82-1.554,2.268c1.399,0.42,2.1,1.219,2.1,2.395c0,0.831-0.322,1.483-0.966,1.96
		c-0.645,0.476-1.508,0.714-2.59,0.714H854.74z M855.832,466.184h2.898c0.682,0,1.228-0.154,1.638-0.462
		c0.411-0.309,0.616-0.747,0.616-1.316c0-0.495-0.188-0.884-0.566-1.169c-0.379-0.285-0.913-0.427-1.604-0.427h-2.982V466.184z
		 M855.832,470.621h3.29c0.747,0,1.335-0.156,1.765-0.469c0.429-0.313,0.644-0.749,0.644-1.31c0-0.541-0.222-0.956-0.665-1.245
		c-0.443-0.29-1.09-0.435-1.938-0.435h-3.095V470.621z"/>
	<path fill="#FFFFFF" d="M864.316,471.728c-0.279,0-0.569-0.038-0.867-0.112l0.126-0.924c0.214,0.065,0.387,0.098,0.518,0.098
		c0.205,0,0.373-0.025,0.504-0.077c0.131-0.051,0.273-0.187,0.427-0.405c0.154-0.22,0.273-0.53,0.357-0.932s0.156-0.971,0.217-1.708
		s0.091-1.633,0.091-2.688v-0.603h5.124v7.238h-1.077v-6.286h-3.024v0.168c0,1.102-0.042,2.04-0.126,2.814s-0.189,1.381-0.315,1.819
		c-0.126,0.439-0.301,0.779-0.524,1.022c-0.225,0.243-0.441,0.398-0.651,0.469S864.624,471.728,864.316,471.728z"/>
	<path fill="#FFFFFF" d="M875.377,471.77c-0.737,0-1.372-0.201-1.904-0.603s-0.798-0.961-0.798-1.68c0-0.756,0.28-1.339,0.84-1.75
		s1.312-0.616,2.254-0.616c0.747,0,1.484,0.103,2.212,0.309v-0.225c0-0.635-0.187-1.12-0.56-1.456
		c-0.374-0.336-0.901-0.504-1.582-0.504c-0.71,0-1.442,0.173-2.198,0.519l-0.322-0.883c0.896-0.41,1.773-0.615,2.632-0.615
		c1.027,0,1.807,0.266,2.339,0.798c0.504,0.504,0.756,1.213,0.756,2.128v4.424h-1.064v-1.078
		C877.337,471.358,876.469,471.77,875.377,471.77z M875.587,470.901c0.672,0,1.241-0.183,1.708-0.546
		c0.466-0.364,0.699-0.831,0.699-1.4v-0.672c-0.709-0.205-1.413-0.308-2.113-0.308c-0.663,0-1.181,0.133-1.555,0.398
		c-0.373,0.267-0.56,0.628-0.56,1.085c0,0.439,0.175,0.789,0.525,1.05C874.642,470.77,875.073,470.901,875.587,470.901z"/>
	<path fill="#FFFFFF" d="M880.262,473.421v-2.758h0.784c0.645-1.176,0.966-2.851,0.966-5.025v-1.261h5.152v6.286h1.092l-0.168,2.758
		h-0.896v-1.806h-5.853l-0.195,1.806H880.262z M882.195,470.663h3.892v-5.334h-3.038v1.008
		C883.048,468.157,882.764,469.6,882.195,470.663z"/>
	<path fill="#FFFFFF" d="M889.74,471.615v-7.238h1.078v5.727l4.298-5.727h1.05v7.238h-1.078v-5.726l-4.312,5.726H889.74z"/>
	<path fill="#FFFFFF" d="M898.574,471.615v-7.238h3.5c0.719,0,1.293,0.164,1.722,0.49c0.43,0.327,0.645,0.766,0.645,1.316
		c0,0.774-0.401,1.33-1.204,1.666c1.063,0.289,1.596,0.887,1.596,1.792c0,0.606-0.238,1.087-0.714,1.441
		c-0.476,0.355-1.115,0.532-1.918,0.532H898.574z M899.653,467.485h2.226c0.448,0,0.806-0.101,1.071-0.301
		c0.266-0.201,0.398-0.488,0.398-0.861c0-0.308-0.126-0.556-0.378-0.742s-0.606-0.28-1.063-0.28h-2.254V467.485z M899.653,470.691
		h2.408c0.513,0,0.919-0.107,1.218-0.322s0.448-0.513,0.448-0.896c0-0.355-0.157-0.631-0.47-0.826
		c-0.313-0.196-0.758-0.294-1.337-0.294h-2.268V470.691z"/>
	<path fill="#FFFFFF" d="M912.784,470.67c-0.728,0.742-1.629,1.113-2.702,1.113s-1.967-0.368-2.681-1.106
		c-0.714-0.736-1.071-1.628-1.071-2.674c0-1.036,0.361-1.925,1.085-2.667s1.622-1.112,2.695-1.112s1.969,0.368,2.688,1.105
		s1.078,1.629,1.078,2.674C913.876,469.039,913.513,469.929,912.784,470.67z M910.111,470.817c0.774,0,1.411-0.271,1.911-0.813
		c0.499-0.541,0.749-1.208,0.749-2.002c0-0.784-0.26-1.451-0.777-2.002s-1.155-0.826-1.911-0.826c-0.774,0-1.409,0.273-1.904,0.819
		c-0.494,0.546-0.741,1.216-0.741,2.009c0,0.784,0.256,1.449,0.77,1.995S909.355,470.817,910.111,470.817z"/>
	<path fill="#FFFFFF" d="M919.084,471.783c-1.045,0-1.925-0.371-2.639-1.113c-0.714-0.741-1.071-1.631-1.071-2.667
		s0.357-1.925,1.071-2.667s1.594-1.112,2.639-1.112c1.12,0,2.086,0.429,2.898,1.288l-0.687,0.728
		c-0.672-0.709-1.414-1.064-2.226-1.064c-0.729,0-1.342,0.273-1.841,0.819c-0.5,0.546-0.749,1.216-0.749,2.009
		c0,0.784,0.254,1.449,0.763,1.995s1.141,0.819,1.897,0.819c0.774,0,1.502-0.364,2.184-1.092l0.714,0.657
		C921.198,471.316,920.213,471.783,919.084,471.783z"/>
	<path fill="#FFFFFF" d="M925.567,471.615v-6.286h-2.59v-0.952h6.271v0.952h-2.59v6.286H925.567z"/>
	<path fill="#FFFFFF" d="M936.823,470.67c-0.728,0.742-1.629,1.113-2.702,1.113s-1.967-0.368-2.681-1.106
		c-0.714-0.736-1.071-1.628-1.071-2.674c0-1.036,0.361-1.925,1.085-2.667s1.622-1.112,2.695-1.112s1.969,0.368,2.688,1.105
		s1.078,1.629,1.078,2.674C937.914,469.039,937.551,469.929,936.823,470.67z M934.149,470.817c0.774,0,1.411-0.271,1.911-0.813
		c0.499-0.541,0.749-1.208,0.749-2.002c0-0.784-0.26-1.451-0.777-2.002s-1.155-0.826-1.911-0.826c-0.774,0-1.409,0.273-1.904,0.819
		c-0.494,0.546-0.741,1.216-0.741,2.009c0,0.784,0.256,1.449,0.77,1.995S933.393,470.817,934.149,470.817z"/>
	<path fill="#FFFFFF" d="M939.861,471.615v-7.238h1.078v4.172l3.962-4.172h1.33l-3.024,3.137l3.108,4.102h-1.274l-2.576-3.318
		l-1.525,1.568v1.75H939.861z"/>
</g>
<g>
	<path fill="#FFFFFF" d="M487.53,452.784v-14h3.08v6.12l5.68-6.12h3.721l-5.7,5.94l5.96,8.06h-3.699l-4.341-5.96l-1.62,1.68v4.28
		H487.53z"/>
	<path fill="#FFFFFF" d="M504.85,452.984c-1.053,0-1.93-0.293-2.63-0.88s-1.05-1.4-1.05-2.44c0-1.133,0.39-1.986,1.17-2.56
		c0.779-0.573,1.83-0.86,3.15-0.86c0.893,0,1.766,0.146,2.619,0.44v-0.181c0-1.307-0.767-1.96-2.3-1.96
		c-0.92,0-1.907,0.193-2.96,0.58l-0.76-2.32c1.307-0.572,2.693-0.859,4.16-0.859c1.613,0,2.82,0.399,3.619,1.2
		c0.773,0.773,1.16,1.913,1.16,3.42v6.22h-2.939v-1.16C507.277,452.531,506.197,452.984,504.85,452.984z M505.77,450.883
		c0.707,0,1.28-0.176,1.721-0.529c0.439-0.354,0.66-0.804,0.66-1.351v-0.54c-0.574-0.267-1.221-0.399-1.941-0.399
		c-0.666,0-1.183,0.13-1.549,0.39c-0.367,0.26-0.551,0.637-0.551,1.13c0,0.4,0.153,0.717,0.461,0.95
		C504.877,450.767,505.277,450.883,505.77,450.883z"/>
	<path fill="#FFFFFF" d="M514.289,445.463l-1.299-1.859c1.213-1.12,2.719-1.681,4.52-1.681c1.16,0,2.13,0.277,2.91,0.83
		c0.779,0.554,1.17,1.244,1.17,2.07c0,1.12-0.547,1.927-1.641,2.42c1.268,0.453,1.9,1.287,1.9,2.5c0,0.934-0.406,1.714-1.221,2.34
		c-0.813,0.627-1.846,0.94-3.1,0.94c-1.973,0-3.6-0.566-4.88-1.7l1.399-1.94c0.947,0.813,2.021,1.221,3.221,1.221
		c0.453,0,0.83-0.11,1.13-0.33c0.3-0.221,0.45-0.49,0.45-0.811c0-0.319-0.156-0.583-0.471-0.79c-0.313-0.206-0.75-0.31-1.31-0.31
		h-1.26v-1.9h1.239c0.467,0,0.841-0.106,1.121-0.319c0.279-0.214,0.42-0.474,0.42-0.78c0-0.28-0.134-0.521-0.4-0.72
		c-0.267-0.2-0.6-0.301-1-0.301C516.043,444.343,515.076,444.717,514.289,445.463z"/>
	<path fill="#FFFFFF" d="M527.15,452.984c-1.054,0-1.93-0.293-2.63-0.88s-1.05-1.4-1.05-2.44c0-1.133,0.39-1.986,1.17-2.56
		s1.83-0.86,3.149-0.86c0.894,0,1.768,0.146,2.621,0.44v-0.181c0-1.307-0.768-1.96-2.301-1.96c-0.92,0-1.906,0.193-2.96,0.58
		l-0.76-2.32c1.307-0.572,2.692-0.859,4.159-0.859c1.613,0,2.82,0.399,3.621,1.2c0.773,0.773,1.16,1.913,1.16,3.42v6.22h-2.94v-1.16
		C529.576,452.531,528.496,452.984,527.15,452.984z M528.07,450.883c0.706,0,1.28-0.176,1.72-0.529
		c0.44-0.354,0.66-0.804,0.66-1.351v-0.54c-0.573-0.267-1.22-0.399-1.939-0.399c-0.667,0-1.184,0.13-1.551,0.39
		c-0.366,0.26-0.549,0.637-0.549,1.13c0,0.4,0.152,0.717,0.459,0.95S527.576,450.883,528.07,450.883z"/>
	<path fill="#FFFFFF" d="M535.049,452.784l3.761-5.44l-3.62-5.279h3.26l2,3.12l2.02-3.12h3.181l-3.62,5.22l3.78,5.5h-3.261
		l-2.16-3.34l-2.159,3.34H535.049z"/>
	<path fill="#FFFFFF" d="M552.69,453.024c-1.601,0-2.93-0.54-3.99-1.62s-1.59-2.4-1.59-3.96c0-1.547,0.533-2.863,1.6-3.95
		s2.406-1.63,4.02-1.63c1.721,0,3.141,0.627,4.261,1.88l-1.78,1.8c-0.746-0.706-1.58-1.06-2.5-1.06
		c-0.746,0-1.367,0.287-1.859,0.859c-0.494,0.574-0.74,1.273-0.74,2.101c0,0.84,0.25,1.543,0.75,2.109
		c0.5,0.567,1.156,0.851,1.97,0.851c0.84,0,1.66-0.38,2.46-1.14l1.779,1.8c-0.586,0.64-1.213,1.127-1.879,1.46
		C554.522,452.857,553.69,453.024,552.69,453.024z"/>
	<path fill="#FFFFFF" d="M567.43,442.064v2.6h-3.18v8.12h-3.08v-8.12h-3.181v-2.6H567.43z"/>
	<path fill="#FFFFFF" d="M572.129,452.984c-1.053,0-1.93-0.293-2.63-0.88s-1.05-1.4-1.05-2.44c0-1.133,0.39-1.986,1.17-2.56
		c0.779-0.573,1.83-0.86,3.15-0.86c0.893,0,1.766,0.146,2.619,0.44v-0.181c0-1.307-0.767-1.96-2.3-1.96
		c-0.92,0-1.907,0.193-2.96,0.58l-0.76-2.32c1.307-0.572,2.693-0.859,4.16-0.859c1.613,0,2.82,0.399,3.619,1.2
		c0.773,0.773,1.16,1.913,1.16,3.42v6.22h-2.939v-1.16C574.556,452.531,573.476,452.984,572.129,452.984z M573.049,450.883
		c0.707,0,1.28-0.176,1.721-0.529c0.439-0.354,0.66-0.804,0.66-1.351v-0.54c-0.574-0.267-1.221-0.399-1.941-0.399
		c-0.666,0-1.183,0.13-1.549,0.39c-0.367,0.26-0.551,0.637-0.551,1.13c0,0.4,0.153,0.717,0.461,0.95
		C572.156,450.767,572.556,450.883,573.049,450.883z"/>
	<path fill="#FFFFFF" d="M590.75,442.064v10.72h-3.041v-4.1h-3.74v4.1h-3.039v-10.72h3.039v4.12h3.74v-4.12H590.75z"/>
</g>
<g opacity="0.25">
	<circle fill="#FFFFFF" cx="450.452" cy="494.66" r="30.675"/>
</g>
<g>
	<path fill="#FFFFFF" d="M450.797,497.092l3.381-7.4h3.34l-5.381,10.82c-0.6,1.199-1.263,2.066-1.989,2.6
		c-0.728,0.533-1.591,0.8-2.591,0.8c-1.053,0-2.06-0.272-3.02-0.819l1.2-2.261c0.507,0.308,1.06,0.46,1.66,0.46
		c0.692,0,1.28-0.373,1.76-1.119l-5.601-10.48h3.44L450.797,497.092z"/>
	<path fill="#FFFFFF" d="M459.877,496.372l-1.3-1.859c1.213-1.12,2.72-1.681,4.521-1.681c1.159,0,2.129,0.277,2.909,0.83
		c0.78,0.554,1.17,1.244,1.17,2.07c0,1.12-0.547,1.927-1.64,2.42c1.267,0.453,1.9,1.287,1.9,2.5c0,0.934-0.407,1.714-1.221,2.34
		c-0.813,0.627-1.847,0.94-3.1,0.94c-1.974,0-3.6-0.566-4.881-1.7l1.4-1.94c0.947,0.813,2.02,1.221,3.221,1.221
		c0.453,0,0.83-0.11,1.129-0.33c0.301-0.221,0.451-0.49,0.451-0.811c0-0.319-0.157-0.583-0.471-0.79
		c-0.313-0.206-0.75-0.31-1.311-0.31h-1.26v-1.9h1.24c0.467,0,0.84-0.106,1.12-0.319c0.28-0.214,0.42-0.474,0.42-0.78
		c0-0.28-0.134-0.521-0.399-0.72c-0.268-0.2-0.601-0.301-1-0.301C461.63,495.251,460.664,495.625,459.877,496.372z"/>
	<path fill="#FFFFFF" d="M474.997,503.932c-1.813,0-3.2-0.55-4.16-1.65c-0.96-1.1-1.44-2.683-1.44-4.75
		c0-0.733,0.027-1.383,0.08-1.95c0.054-0.566,0.17-1.17,0.351-1.81c0.18-0.64,0.427-1.187,0.739-1.64
		c0.313-0.453,0.754-0.86,1.32-1.221c0.566-0.359,1.236-0.613,2.01-0.76l5.74-1.06l0.48,2.399l-5.881,1.16
		c-1.627,0.333-2.492,1.174-2.6,2.521c0.254-0.44,0.721-0.851,1.4-1.23s1.513-0.57,2.5-0.57c1.387,0,2.58,0.494,3.58,1.48
		s1.5,2.207,1.5,3.66c0,1.507-0.533,2.786-1.6,3.84C477.95,503.406,476.61,503.932,474.997,503.932z M475.037,501.312
		c0.76,0,1.38-0.264,1.859-0.79c0.48-0.526,0.721-1.184,0.721-1.97c0-0.773-0.25-1.434-0.75-1.98s-1.123-0.82-1.87-0.82
		c-0.761,0-1.38,0.271-1.86,0.811s-0.72,1.203-0.72,1.99c0,0.773,0.25,1.427,0.75,1.96S474.29,501.312,475.037,501.312z"/>
	<path fill="#FFFFFF" d="M487.858,503.932c-1.627,0-2.967-0.517-4.021-1.55s-1.58-2.377-1.58-4.03c0-1.561,0.5-2.88,1.5-3.96
		s2.267-1.62,3.8-1.62c1.693,0,2.986,0.56,3.881,1.68c0.893,1.12,1.34,2.5,1.34,4.141c0,0.159-0.014,0.427-0.041,0.8h-7.459
		c0.146,0.68,0.446,1.2,0.899,1.56c0.453,0.36,1.026,0.54,1.72,0.54c0.947,0,1.813-0.366,2.601-1.1l1.739,1.54
		C491.157,503.265,489.697,503.932,487.858,503.932z M485.237,497.492h4.58c-0.093-0.693-0.336-1.246-0.729-1.66
		c-0.394-0.413-0.903-0.62-1.53-0.62c-0.613,0-1.123,0.204-1.529,0.61C485.62,496.229,485.358,496.786,485.237,497.492z"/>
	<path fill="#FFFFFF" d="M495.037,503.692v-10.72h3.039v4.399l3.841-4.399h3.5l-3.94,4.399l4.44,6.32h-3.601l-2.859-4.08l-1.381,1.5
		v2.58H495.037z"/>
	<path fill="#FFFFFF" d="M517.237,492.972v10.72h-2.939v-6.24l-4.18,6.24h-2.861v-10.72h2.94v6.26l4.181-6.26H517.237z"/>
	<path fill="#FFFFFF" d="M525.017,503.932c-1.601,0-2.93-0.54-3.989-1.62c-1.061-1.08-1.591-2.4-1.591-3.96
		c0-1.547,0.533-2.863,1.601-3.95c1.066-1.087,2.406-1.63,4.02-1.63c1.721,0,3.141,0.627,4.26,1.88l-1.779,1.8
		c-0.747-0.706-1.58-1.06-2.5-1.06c-0.747,0-1.367,0.287-1.86,0.859c-0.493,0.574-0.74,1.273-0.74,2.101
		c0,0.84,0.25,1.543,0.75,2.109c0.5,0.567,1.157,0.851,1.97,0.851c0.84,0,1.66-0.38,2.461-1.14l1.779,1.8
		c-0.587,0.64-1.213,1.127-1.88,1.46S526.017,503.932,525.017,503.932z"/>
	<path fill="#FFFFFF" d="M539.757,492.972v2.6h-3.181v8.12h-3.08v-8.12h-3.18v-2.6H539.757z"/>
	<path fill="#FFFFFF" d="M544.457,503.892c-1.054,0-1.93-0.293-2.631-0.88c-0.699-0.587-1.049-1.4-1.049-2.44
		c0-1.133,0.389-1.986,1.17-2.56c0.779-0.573,1.83-0.86,3.149-0.86c0.894,0,1.767,0.146,2.62,0.44v-0.181
		c0-1.307-0.768-1.96-2.301-1.96c-0.92,0-1.906,0.193-2.959,0.58l-0.76-2.32c1.307-0.572,2.692-0.859,4.159-0.859
		c1.613,0,2.82,0.399,3.62,1.2c0.773,0.773,1.16,1.913,1.16,3.42v6.22h-2.939v-1.16
		C546.883,503.439,545.803,503.892,544.457,503.892z M545.377,501.791c0.706,0,1.279-0.176,1.72-0.529s0.66-0.804,0.66-1.351v-0.54
		c-0.573-0.267-1.22-0.399-1.94-0.399c-0.666,0-1.184,0.13-1.55,0.39s-0.55,0.637-0.55,1.13c0,0.4,0.152,0.717,0.46,0.95
		C544.484,501.675,544.883,501.791,545.377,501.791z"/>
	<path fill="#FFFFFF" d="M563.076,492.972v10.72h-3.039v-4.1h-3.74v4.1h-3.041v-10.72h3.041v4.12h3.74v-4.12H563.076z"/>
</g>
<g opacity="0.25">
	<circle fill="#FFFFFF" cx="507.966" cy="311.472" r="54.053"/>
</g>
<g opacity="0.25">
	<circle fill="#FFFFFF" cx="645.217" cy="278.222" r="47.303"/>
</g>
<g opacity="0.25">
	<circle fill="#FFFFFF" cx="495.717" cy="348.722" r="39.803"/>
</g>
<g opacity="0.25">
	<circle fill="#FFFFFF" cx="412.967" cy="406.471" r="33.054"/>
</g>
<g opacity="0.25">
	<circle fill="#FFFFFF" cx="387.717" cy="355.721" r="30.804"/>
</g>
<g opacity="0.25">
	<circle fill="#FFFFFF" cx="635.968" cy="381.471" r="30.054"/>
</g>
<g opacity="0.25">
	<circle fill="#FFFFFF" cx="266.455" cy="287.983" r="25.542"/>
</g>
<g opacity="0.25">
	<circle fill="#FFFFFF" cx="582.706" cy="413.733" r="21.792"/>
</g>
<g opacity="0.25">
	<circle fill="#FFFFFF" cx="482.456" cy="275.983" r="19.542"/>
</g>
<g opacity="0.25">
	<circle fill="#FFFFFF" cx="230.762" cy="350.676" r="16.849"/>
</g>
<g opacity="0.25">
	<circle fill="#FFFFFF" cx="442.262" cy="383.176" r="15.349"/>
</g>
<g opacity="0.25">
	<circle fill="#FFFFFF" cx="890.698" cy="383.743" r="12.275"/>
</g>
<g opacity="0.25">
	<circle fill="#FFFFFF" cx="371.318" cy="461.123" r="14.895"/>
</g>
<g opacity="0.25">
	<circle fill="#FFFFFF" cx="858.968" cy="465.474" r="10"/>
</g>
<g>
	<path fill="#FFFFFF" d="M628.234,387.615l4.466-9.87h1.036l4.466,9.87h-1.189l-1.148-2.59h-5.334l-1.162,2.59H628.234z
		 M630.964,384.031h4.466l-2.227-4.998L630.964,384.031z"/>
	<path fill="#FFFFFF" d="M639.951,387.615v-7.238h1.078v3.122h4.172v-3.122h1.078v7.238h-1.078v-3.164h-4.172v3.164H639.951z"/>
	<path fill="#FFFFFF" d="M648.688,387.615v-7.238h4.914v0.952h-3.836v6.286H648.688z"/>
	<path fill="#FFFFFF" d="M657.325,387.77c-0.737,0-1.372-0.201-1.904-0.603s-0.798-0.961-0.798-1.68c0-0.756,0.28-1.339,0.84-1.75
		s1.312-0.616,2.254-0.616c0.747,0,1.484,0.103,2.212,0.309v-0.225c0-0.635-0.187-1.12-0.56-1.456
		c-0.374-0.336-0.901-0.504-1.582-0.504c-0.71,0-1.442,0.173-2.198,0.519l-0.322-0.883c0.896-0.41,1.773-0.615,2.632-0.615
		c1.027,0,1.807,0.266,2.339,0.798c0.504,0.504,0.756,1.213,0.756,2.128v4.424h-1.064v-1.078
		C659.285,387.358,658.417,387.77,657.325,387.77z M657.535,386.901c0.672,0,1.241-0.183,1.708-0.546
		c0.466-0.364,0.699-0.831,0.699-1.4v-0.672c-0.709-0.205-1.413-0.308-2.113-0.308c-0.663,0-1.181,0.133-1.555,0.398
		c-0.373,0.267-0.56,0.628-0.56,1.085c0,0.439,0.175,0.789,0.525,1.05C656.59,386.77,657.022,386.901,657.535,386.901z"/>
	<path fill="#FFFFFF" d="M663.276,389.855v-9.479h1.078v1.456c0.728-1.073,1.651-1.609,2.771-1.609c0.924,0,1.731,0.343,2.422,1.028
		c0.691,0.687,1.036,1.604,1.036,2.751c0,1.13-0.345,2.04-1.036,2.73c-0.69,0.69-1.498,1.036-2.422,1.036
		c-1.139,0-2.063-0.514-2.771-1.54v3.626H663.276z M666.93,386.804c0.728,0,1.334-0.255,1.819-0.764s0.729-1.192,0.729-2.051
		c0-0.831-0.248-1.505-0.742-2.023c-0.495-0.518-1.097-0.776-1.806-0.776c-0.7,0-1.312,0.266-1.834,0.798
		c-0.523,0.532-0.784,1.204-0.784,2.016c0,0.813,0.261,1.482,0.784,2.01C665.618,386.54,666.23,386.804,666.93,386.804z"/>
	<path fill="#FFFFFF" d="M675.833,387.783c-1.045,0-1.925-0.371-2.639-1.113c-0.714-0.741-1.071-1.631-1.071-2.667
		s0.357-1.925,1.071-2.667s1.594-1.112,2.639-1.112c1.12,0,2.086,0.429,2.898,1.288l-0.687,0.728
		c-0.672-0.709-1.414-1.064-2.226-1.064c-0.729,0-1.342,0.273-1.841,0.819c-0.5,0.546-0.749,1.216-0.749,2.009
		c0,0.784,0.254,1.449,0.763,1.995s1.141,0.819,1.897,0.819c0.774,0,1.502-0.364,2.184-1.092l0.714,0.657
		C677.948,387.316,676.962,387.783,675.833,387.783z"/>
	<path fill="#FFFFFF" d="M680.566,387.615v-7.238h1.078v4.172l3.962-4.172h1.33l-3.024,3.137l3.108,4.102h-1.274l-2.576-3.318
		l-1.525,1.568v1.75H680.566z"/>
</g>
<g>
	<path fill="#FFFFFF" d="M579.073,418.615v-9.8h1.106v4.354h5.656v-4.354h1.105v9.8h-1.105v-4.41h-5.656v4.41H579.073z"/>
	<path fill="#FFFFFF" d="M595.537,417.67c-0.728,0.742-1.629,1.113-2.702,1.113s-1.967-0.368-2.681-1.106
		c-0.714-0.736-1.071-1.628-1.071-2.674c0-1.036,0.361-1.925,1.085-2.667s1.622-1.112,2.695-1.112s1.969,0.368,2.688,1.105
		s1.078,1.629,1.078,2.674C596.629,416.039,596.266,416.929,595.537,417.67z M592.864,417.817c0.774,0,1.411-0.271,1.911-0.813
		c0.499-0.541,0.749-1.208,0.749-2.002c0-0.784-0.26-1.451-0.777-2.002s-1.155-0.826-1.911-0.826c-0.774,0-1.409,0.273-1.904,0.819
		c-0.494,0.546-0.741,1.216-0.741,2.009c0,0.784,0.256,1.449,0.77,1.995S592.108,417.817,592.864,417.817z"/>
	<path fill="#FFFFFF" d="M598.575,418.615v-7.238h3.5c0.719,0,1.293,0.164,1.722,0.49c0.43,0.327,0.645,0.766,0.645,1.316
		c0,0.774-0.401,1.33-1.204,1.666c1.063,0.289,1.596,0.887,1.596,1.792c0,0.606-0.238,1.087-0.714,1.441
		c-0.476,0.355-1.115,0.532-1.918,0.532H598.575z M599.654,414.485h2.226c0.448,0,0.806-0.101,1.071-0.301
		c0.266-0.201,0.398-0.488,0.398-0.861c0-0.308-0.126-0.556-0.378-0.742s-0.606-0.28-1.063-0.28h-2.254V414.485z M599.654,417.691
		h2.408c0.513,0,0.919-0.107,1.218-0.322s0.448-0.513,0.448-0.896c0-0.355-0.157-0.631-0.47-0.826
		c-0.313-0.196-0.758-0.294-1.337-0.294h-2.268V417.691z"/>
	<path fill="#FFFFFF" d="M612.785,417.67c-0.728,0.742-1.629,1.113-2.702,1.113s-1.967-0.368-2.681-1.106
		c-0.714-0.736-1.071-1.628-1.071-2.674c0-1.036,0.361-1.925,1.085-2.667s1.622-1.112,2.695-1.112s1.969,0.368,2.688,1.105
		s1.078,1.629,1.078,2.674C613.877,416.039,613.514,416.929,612.785,417.67z M610.112,417.817c0.774,0,1.411-0.271,1.911-0.813
		c0.499-0.541,0.749-1.208,0.749-2.002c0-0.784-0.26-1.451-0.777-2.002s-1.155-0.826-1.911-0.826c-0.774,0-1.409,0.273-1.904,0.819
		c-0.494,0.546-0.741,1.216-0.741,2.009c0,0.784,0.256,1.449,0.77,1.995S609.356,417.817,610.112,417.817z"/>
	<path fill="#FFFFFF" d="M619.085,418.783c-1.045,0-1.925-0.371-2.639-1.113c-0.714-0.741-1.071-1.631-1.071-2.667
		s0.357-1.925,1.071-2.667s1.594-1.112,2.639-1.112c1.12,0,2.086,0.429,2.898,1.288l-0.687,0.728
		c-0.672-0.709-1.414-1.064-2.226-1.064c-0.729,0-1.342,0.273-1.841,0.819c-0.5,0.546-0.749,1.216-0.749,2.009
		c0,0.784,0.254,1.449,0.763,1.995s1.141,0.819,1.897,0.819c0.774,0,1.502-0.364,2.184-1.092l0.714,0.657
		C621.199,418.316,620.214,418.783,619.085,418.783z"/>
	<path fill="#FFFFFF" d="M623.818,418.615v-7.238h1.078v5.727l4.298-5.727h1.05v7.238h-1.078v-5.726l-4.312,5.726H623.818z"/>
	<path fill="#FFFFFF" d="M636.054,418.783c-1.111,0-2-0.366-2.667-1.099c-0.668-0.733-1.001-1.725-1.001-2.976
		c0-0.457,0.009-0.847,0.027-1.169s0.057-0.679,0.112-1.071c0.056-0.392,0.145-0.728,0.266-1.008
		c0.121-0.279,0.278-0.555,0.47-0.826c0.19-0.271,0.44-0.499,0.748-0.686c0.309-0.187,0.668-0.326,1.078-0.42l4.032-0.952l0.21,0.91
		l-3.92,0.966c-0.728,0.187-1.248,0.483-1.561,0.889c-0.313,0.406-0.497,0.969-0.554,1.688c0.616-1.045,1.615-1.568,2.996-1.568
		c0.952,0,1.769,0.353,2.45,1.058c0.682,0.704,1.022,1.552,1.022,2.541c0,1.026-0.355,1.903-1.064,2.632
		C637.99,418.419,637.108,418.783,636.054,418.783z M636.081,417.817c0.737,0,1.349-0.264,1.834-0.791s0.729-1.174,0.729-1.939
		c0-0.756-0.25-1.399-0.749-1.932c-0.5-0.532-1.113-0.798-1.841-0.798c-0.738,0-1.35,0.264-1.834,0.791
		c-0.486,0.527-0.729,1.174-0.729,1.938c0,0.756,0.25,1.4,0.749,1.933C634.74,417.551,635.354,417.817,636.081,417.817z"/>
	<path fill="#FFFFFF" d="M641.709,418.615v-7.238h1.078v5.727l4.298-5.727h1.05v7.238h-1.078v-5.726l-4.312,5.726H641.709z"/>
	<path fill="#FFFFFF" d="M650.543,420.855v-9.479h1.078v1.456c0.728-1.073,1.651-1.609,2.771-1.609c0.924,0,1.731,0.343,2.422,1.028
		c0.691,0.687,1.036,1.604,1.036,2.751c0,1.13-0.345,2.04-1.036,2.73c-0.69,0.69-1.498,1.036-2.422,1.036
		c-1.139,0-2.063-0.514-2.771-1.54v3.626H650.543z M654.198,417.804c0.728,0,1.334-0.255,1.819-0.764s0.729-1.192,0.729-2.051
		c0-0.831-0.248-1.505-0.742-2.023c-0.495-0.518-1.097-0.776-1.806-0.776c-0.7,0-1.312,0.266-1.834,0.798
		c-0.523,0.532-0.784,1.204-0.784,2.016c0,0.813,0.261,1.482,0.784,2.01C652.886,417.54,653.497,417.804,654.198,417.804z"/>
	<path fill="#FFFFFF" d="M663.101,418.783c-1.045,0-1.925-0.371-2.639-1.113c-0.714-0.741-1.071-1.631-1.071-2.667
		s0.357-1.925,1.071-2.667s1.594-1.112,2.639-1.112c1.12,0,2.086,0.429,2.898,1.288l-0.687,0.728
		c-0.672-0.709-1.414-1.064-2.226-1.064c-0.729,0-1.342,0.273-1.841,0.819c-0.5,0.546-0.749,1.216-0.749,2.009
		c0,0.784,0.254,1.449,0.763,1.995s1.141,0.819,1.897,0.819c0.774,0,1.502-0.364,2.184-1.092l0.714,0.657
		C665.215,418.316,664.23,418.783,663.101,418.783z"/>
	<path fill="#FFFFFF" d="M667.833,418.615v-7.238h1.078v4.172l3.962-4.172h1.33l-3.024,3.137l3.108,4.102h-1.274l-2.576-3.318
		l-1.525,1.568v1.75H667.833z"/>
</g>
<g>
	<path fill="#FFFFFF" d="M408.74,411.949v-9.8h4.172c1.148,0,2.002,0.289,2.563,0.868c0.42,0.438,0.63,0.971,0.63,1.596
		c0,1.063-0.518,1.82-1.554,2.268c1.399,0.42,2.1,1.219,2.1,2.395c0,0.831-0.322,1.483-0.966,1.96
		c-0.645,0.476-1.508,0.714-2.59,0.714H408.74z M409.832,406.517h2.898c0.682,0,1.228-0.154,1.638-0.462
		c0.411-0.309,0.616-0.747,0.616-1.316c0-0.495-0.188-0.884-0.566-1.169c-0.379-0.285-0.913-0.427-1.604-0.427h-2.982V406.517z
		 M409.832,410.955h3.29c0.747,0,1.335-0.156,1.765-0.469c0.429-0.313,0.644-0.749,0.644-1.31c0-0.541-0.222-0.956-0.665-1.245
		c-0.443-0.29-1.09-0.435-1.938-0.435h-3.095V410.955z"/>
	<path fill="#FFFFFF" d="M424.672,411.003c-0.728,0.742-1.629,1.113-2.702,1.113s-1.967-0.368-2.681-1.106
		c-0.714-0.736-1.071-1.628-1.071-2.674c0-1.036,0.361-1.925,1.085-2.667s1.622-1.112,2.695-1.112s1.969,0.368,2.688,1.105
		s1.078,1.629,1.078,2.674C425.764,409.373,425.401,410.262,424.672,411.003z M421.998,411.151c0.774,0,1.411-0.271,1.911-0.813
		c0.499-0.541,0.749-1.208,0.749-2.002c0-0.784-0.26-1.451-0.777-2.002s-1.155-0.826-1.911-0.826c-0.774,0-1.409,0.273-1.904,0.819
		c-0.494,0.546-0.741,1.216-0.741,2.009c0,0.784,0.256,1.449,0.77,1.995S421.242,411.151,421.998,411.151z"/>
	<path fill="#FFFFFF" d="M427.36,412.061c-0.279,0-0.569-0.038-0.867-0.112l0.126-0.924c0.214,0.065,0.387,0.098,0.518,0.098
		c0.205,0,0.373-0.025,0.504-0.077c0.131-0.051,0.273-0.187,0.427-0.405c0.154-0.22,0.273-0.53,0.357-0.932s0.156-0.971,0.217-1.708
		s0.091-1.633,0.091-2.688v-0.603h5.124v7.238h-1.077v-6.286h-3.024v0.168c0,1.102-0.042,2.04-0.126,2.814s-0.189,1.381-0.315,1.819
		c-0.126,0.439-0.301,0.779-0.524,1.022c-0.225,0.243-0.441,0.398-0.651,0.469S427.668,412.061,427.36,412.061z"/>
	<path fill="#FFFFFF" d="M436.265,411.949v-7.238h4.914v0.952h-3.836v6.286H436.265z"/>
	<path fill="#FFFFFF" d="M448.752,411.003c-0.728,0.742-1.629,1.113-2.702,1.113s-1.967-0.368-2.681-1.106
		c-0.714-0.736-1.071-1.628-1.071-2.674c0-1.036,0.361-1.925,1.085-2.667s1.622-1.112,2.695-1.112s1.969,0.368,2.688,1.105
		s1.078,1.629,1.078,2.674C449.844,409.373,449.481,410.262,448.752,411.003z M446.078,411.151c0.774,0,1.411-0.271,1.911-0.813
		c0.499-0.541,0.749-1.208,0.749-2.002c0-0.784-0.26-1.451-0.777-2.002s-1.155-0.826-1.911-0.826c-0.774,0-1.409,0.273-1.904,0.819
		c-0.494,0.546-0.741,1.216-0.741,2.009c0,0.784,0.256,1.449,0.77,1.995S445.322,411.151,446.078,411.151z"/>
	<path fill="#FFFFFF" d="M451.79,411.949v-7.238h4.914v0.952h-3.836v6.286H451.79z"/>
	<path fill="#FFFFFF" d="M458.273,414.189v-9.479h1.078v1.456c0.728-1.073,1.651-1.609,2.771-1.609c0.924,0,1.731,0.343,2.422,1.028
		c0.691,0.687,1.036,1.604,1.036,2.751c0,1.13-0.345,2.04-1.036,2.73c-0.69,0.69-1.498,1.036-2.422,1.036
		c-1.139,0-2.063-0.514-2.771-1.54v3.626H458.273z M461.927,411.137c0.728,0,1.334-0.255,1.819-0.764s0.729-1.192,0.729-2.051
		c0-0.831-0.248-1.505-0.742-2.023c-0.495-0.518-1.097-0.776-1.806-0.776c-0.7,0-1.312,0.266-1.834,0.798
		c-0.523,0.532-0.784,1.204-0.784,2.016c0,0.813,0.261,1.482,0.784,2.01C460.615,410.874,461.227,411.137,461.927,411.137z"/>
	<path fill="#FFFFFF" d="M469.725,412.103c-0.737,0-1.372-0.201-1.904-0.603s-0.798-0.961-0.798-1.68c0-0.756,0.28-1.339,0.84-1.75
		s1.312-0.616,2.254-0.616c0.747,0,1.484,0.103,2.212,0.309v-0.225c0-0.635-0.187-1.12-0.56-1.456
		c-0.374-0.336-0.901-0.504-1.582-0.504c-0.71,0-1.442,0.173-2.198,0.519l-0.322-0.883c0.896-0.41,1.773-0.615,2.632-0.615
		c1.027,0,1.807,0.266,2.339,0.798c0.504,0.504,0.756,1.213,0.756,2.128v4.424h-1.064v-1.078
		C471.685,411.692,470.817,412.103,469.725,412.103z M469.935,411.235c0.672,0,1.241-0.183,1.708-0.546
		c0.466-0.364,0.699-0.831,0.699-1.4v-0.672c-0.709-0.205-1.413-0.308-2.113-0.308c-0.663,0-1.181,0.133-1.555,0.398
		c-0.373,0.267-0.56,0.628-0.56,1.085c0,0.439,0.175,0.789,0.525,1.05C468.989,411.104,469.421,411.235,469.935,411.235z"/>
	<path fill="#FFFFFF" d="M474.61,413.754v-2.758h0.784c0.645-1.176,0.966-2.851,0.966-5.025v-1.261h5.152v6.286h1.092l-0.168,2.758
		h-0.896v-1.806h-5.853l-0.195,1.806H474.61z M476.542,410.997h3.892v-5.334h-3.038v1.008
		C477.396,408.491,477.112,409.933,476.542,410.997z"/>
</g>
<g>
	<path fill="#FFFFFF" d="M439.74,388.949v-9.8h7.729v9.8h-1.106v-8.792h-5.516v8.792H439.74z"/>
	<path fill="#FFFFFF" d="M453.223,389.117c-1.018,0-1.874-0.353-2.569-1.057c-0.695-0.705-1.043-1.612-1.043-2.724
		c0-1.055,0.331-1.948,0.994-2.681c0.662-0.732,1.488-1.099,2.478-1.099c1.036,0,1.857,0.363,2.465,1.092
		c0.606,0.728,0.909,1.643,0.909,2.744c0,0.14-0.004,0.266-0.014,0.378h-5.74c0.075,0.737,0.353,1.322,0.833,1.757
		c0.48,0.434,1.053,0.651,1.716,0.651c0.867,0,1.628-0.341,2.281-1.022l0.672,0.602
		C455.393,388.665,454.399,389.117,453.223,389.117z M450.702,384.903h4.662c-0.065-0.7-0.296-1.281-0.692-1.743
		c-0.397-0.462-0.937-0.693-1.617-0.693c-0.616,0-1.144,0.229-1.582,0.687C451.033,383.61,450.778,384.194,450.702,384.903z"/>
	<path fill="#FFFFFF" d="M458.347,388.949v-7.238h1.078v3.122h4.172v-3.122h1.078v7.238h-1.078v-3.164h-4.172v3.164H458.347z"/>
	<path fill="#FFFFFF" d="M469.378,389.117c-1.11,0-2.109-0.359-2.996-1.078l0.546-0.798c0.737,0.625,1.545,0.938,2.422,0.938
		c0.495,0,0.917-0.114,1.268-0.344c0.35-0.229,0.524-0.543,0.524-0.944c0-0.374-0.158-0.665-0.476-0.875s-0.766-0.315-1.344-0.315
		h-0.967v-0.882h0.98c0.476,0,0.863-0.114,1.162-0.343s0.448-0.53,0.448-0.903c0-0.326-0.147-0.588-0.441-0.784
		s-0.67-0.294-1.127-0.294c-0.858,0-1.592,0.243-2.198,0.729l-0.532-0.757c0.784-0.606,1.718-0.909,2.801-0.909
		c0.803,0,1.439,0.18,1.911,0.539c0.471,0.359,0.707,0.823,0.707,1.393c0,0.793-0.388,1.349-1.162,1.666
		c0.896,0.317,1.344,0.91,1.344,1.778c0,0.606-0.262,1.122-0.784,1.547S470.246,389.117,469.378,389.117z"/>
	<path fill="#FFFFFF" d="M476.406,389.103c-0.737,0-1.372-0.201-1.904-0.603s-0.798-0.961-0.798-1.68c0-0.756,0.28-1.339,0.84-1.75
		s1.312-0.616,2.254-0.616c0.747,0,1.484,0.103,2.212,0.309v-0.225c0-0.635-0.187-1.12-0.56-1.456
		c-0.374-0.336-0.901-0.504-1.582-0.504c-0.71,0-1.442,0.173-2.198,0.519l-0.322-0.883c0.896-0.41,1.773-0.615,2.632-0.615
		c1.027,0,1.807,0.266,2.339,0.798c0.504,0.504,0.756,1.213,0.756,2.128v4.424h-1.064v-1.078
		C478.366,388.692,477.498,389.103,476.406,389.103z M476.616,388.235c0.672,0,1.241-0.183,1.708-0.546
		c0.466-0.364,0.699-0.831,0.699-1.4v-0.672c-0.709-0.205-1.413-0.308-2.113-0.308c-0.663,0-1.181,0.133-1.555,0.398
		c-0.373,0.267-0.56,0.628-0.56,1.085c0,0.439,0.175,0.789,0.525,1.05C475.671,388.104,476.103,388.235,476.616,388.235z"/>
</g>
<g>
	<path fill="#FFFFFF" d="M227.74,355.949v-9.8h1.106V352l5.628-5.852h1.428l-4.2,4.284l4.383,5.516h-1.387l-3.766-4.746
		l-2.086,2.114v2.632H227.74z"/>
	<path fill="#FFFFFF" d="M239.781,356.103c-0.737,0-1.372-0.201-1.904-0.603s-0.798-0.961-0.798-1.68c0-0.756,0.28-1.339,0.84-1.75
		s1.312-0.616,2.254-0.616c0.747,0,1.484,0.103,2.212,0.309v-0.225c0-0.635-0.187-1.12-0.56-1.456
		c-0.374-0.336-0.901-0.504-1.582-0.504c-0.71,0-1.442,0.173-2.198,0.519l-0.322-0.883c0.896-0.41,1.773-0.615,2.632-0.615
		c1.027,0,1.807,0.266,2.339,0.798c0.504,0.504,0.756,1.213,0.756,2.128v4.424h-1.064v-1.078
		C241.74,355.692,240.872,356.103,239.781,356.103z M239.99,355.235c0.672,0,1.241-0.183,1.708-0.546
		c0.466-0.364,0.699-0.831,0.699-1.4v-0.672c-0.709-0.205-1.413-0.308-2.113-0.308c-0.663,0-1.181,0.133-1.555,0.398
		c-0.373,0.267-0.56,0.628-0.56,1.085c0,0.439,0.175,0.789,0.525,1.05C239.045,355.104,239.477,355.235,239.99,355.235z"/>
	<path fill="#FFFFFF" d="M245.38,356.061c-0.279,0-0.569-0.038-0.867-0.112l0.126-0.924c0.214,0.065,0.387,0.098,0.518,0.098
		c0.205,0,0.373-0.025,0.504-0.077c0.131-0.051,0.273-0.187,0.427-0.405c0.154-0.22,0.273-0.53,0.357-0.932s0.156-0.971,0.217-1.708
		s0.091-1.633,0.091-2.688v-0.603h5.124v7.238h-1.077v-6.286h-3.024v0.168c0,1.102-0.042,2.04-0.126,2.814s-0.189,1.381-0.315,1.819
		c-0.126,0.439-0.301,0.779-0.524,1.022c-0.225,0.243-0.441,0.398-0.651,0.469S245.689,356.061,245.38,356.061z"/>
	<path fill="#FFFFFF" d="M254.284,355.949v-7.238h1.078v5.727l4.298-5.727h1.05v7.238h-1.078v-5.726l-4.312,5.726H254.284z"/>
	<path fill="#FFFFFF" d="M263.118,355.949v-7.238h1.078v3.122h4.172v-3.122h1.078v7.238h-1.078v-3.164h-4.172v3.164H263.118z"/>
	<path fill="#FFFFFF" d="M271.855,355.949v-7.238h1.078v5.727l4.298-5.727h1.05v7.238h-1.078v-5.726l-4.312,5.726H271.855z"/>
	<path fill="#FFFFFF" d="M280.689,355.949v-7.238h1.078v3.122h4.172v-3.122h1.078v7.238h-1.078v-3.164h-4.172v3.164H280.689z"/>
	<path fill="#FFFFFF" d="M289.424,355.949v-7.238h4.914v0.952h-3.836v6.286H289.424z"/>
	<path fill="#FFFFFF" d="M295.906,358.189v-9.479h1.078v1.456c0.728-1.073,1.651-1.609,2.771-1.609c0.924,0,1.731,0.343,2.422,1.028
		c0.691,0.687,1.036,1.604,1.036,2.751c0,1.13-0.345,2.04-1.036,2.73c-0.69,0.69-1.498,1.036-2.422,1.036
		c-1.139,0-2.063-0.514-2.771-1.54v3.626H295.906z M299.561,355.137c0.728,0,1.334-0.255,1.819-0.764s0.729-1.192,0.729-2.051
		c0-0.831-0.248-1.505-0.742-2.023c-0.495-0.518-1.097-0.776-1.806-0.776c-0.7,0-1.312,0.266-1.834,0.798
		c-0.523,0.532-0.784,1.204-0.784,2.016c0,0.813,0.261,1.482,0.784,2.01C298.249,354.874,298.861,355.137,299.561,355.137z"/>
	<path fill="#FFFFFF" d="M307.359,356.103c-0.737,0-1.372-0.201-1.904-0.603s-0.798-0.961-0.798-1.68c0-0.756,0.28-1.339,0.84-1.75
		s1.312-0.616,2.254-0.616c0.747,0,1.484,0.103,2.212,0.309v-0.225c0-0.635-0.187-1.12-0.56-1.456
		c-0.374-0.336-0.901-0.504-1.582-0.504c-0.71,0-1.442,0.173-2.198,0.519l-0.322-0.883c0.896-0.41,1.773-0.615,2.632-0.615
		c1.027,0,1.807,0.266,2.339,0.798c0.504,0.504,0.756,1.213,0.756,2.128v4.424h-1.064v-1.078
		C309.319,355.692,308.45,356.103,307.359,356.103z M307.569,355.235c0.672,0,1.241-0.183,1.708-0.546
		c0.466-0.364,0.699-0.831,0.699-1.4v-0.672c-0.709-0.205-1.413-0.308-2.113-0.308c-0.663,0-1.181,0.133-1.555,0.398
		c-0.373,0.267-0.56,0.628-0.56,1.085c0,0.439,0.175,0.789,0.525,1.05C306.623,355.104,307.055,355.235,307.569,355.235z"/>
	<path fill="#FFFFFF" d="M312.243,357.754v-2.758h0.784c0.645-1.176,0.966-2.851,0.966-5.025v-1.261h5.152v6.286h1.092l-0.168,2.758
		h-0.896v-1.806h-5.853l-0.195,1.806H312.243z M314.176,354.997h3.892v-5.334h-3.038v1.008
		C315.03,352.491,314.745,353.933,314.176,354.997z"/>
</g>
<g>
	<path fill="#FFFFFF" d="M365.827,467.799v-3.191h1.009c0.988-1.577,1.483-3.938,1.483-7.084v-1.708h6.412v8.792h1.274l-0.168,3.191
		h-0.925v-2.184h-7.951l-0.196,2.184H365.827z M368.081,464.607h5.545v-7.784h-4.242v1.274c0,1.287-0.117,2.529-0.351,3.724
		S368.483,463.944,368.081,464.607z"/>
	<path fill="#FFFFFF" d="M379.604,465.77c-0.737,0-1.372-0.201-1.904-0.603s-0.798-0.961-0.798-1.68c0-0.756,0.28-1.339,0.84-1.75
		s1.312-0.616,2.254-0.616c0.747,0,1.484,0.103,2.212,0.309v-0.225c0-0.635-0.187-1.12-0.56-1.456
		c-0.374-0.336-0.901-0.504-1.582-0.504c-0.71,0-1.442,0.173-2.198,0.519l-0.322-0.883c0.896-0.41,1.773-0.615,2.632-0.615
		c1.027,0,1.807,0.266,2.339,0.798c0.504,0.504,0.756,1.213,0.756,2.128v4.424h-1.064v-1.078
		C381.564,465.358,380.696,465.77,379.604,465.77z M379.814,464.901c0.672,0,1.241-0.183,1.708-0.546
		c0.466-0.364,0.699-0.831,0.699-1.4v-0.672c-0.709-0.205-1.413-0.308-2.113-0.308c-0.663,0-1.181,0.133-1.555,0.398
		c-0.373,0.267-0.56,0.628-0.56,1.085c0,0.439,0.175,0.789,0.525,1.05C378.868,464.77,379.3,464.901,379.814,464.901z"/>
	<path fill="#FFFFFF" d="M385.554,465.615v-7.238h4.914v0.952h-3.836v6.286H385.554z"/>
	<path fill="#FFFFFF" d="M395.199,465.783c-1.018,0-1.874-0.353-2.569-1.057c-0.695-0.705-1.043-1.612-1.043-2.724
		c0-1.055,0.331-1.948,0.994-2.681c0.662-0.732,1.488-1.099,2.478-1.099c1.036,0,1.857,0.363,2.465,1.092
		c0.606,0.728,0.909,1.643,0.909,2.744c0,0.14-0.004,0.266-0.014,0.378h-5.74c0.075,0.737,0.353,1.322,0.833,1.757
		c0.48,0.434,1.053,0.651,1.716,0.651c0.867,0,1.628-0.341,2.281-1.022l0.672,0.602
		C397.369,465.331,396.375,465.783,395.199,465.783z M392.679,461.569h4.662c-0.065-0.7-0.296-1.281-0.692-1.743
		c-0.397-0.462-0.937-0.693-1.617-0.693c-0.616,0-1.144,0.229-1.582,0.687C393.01,460.276,392.754,460.86,392.679,461.569z"/>
	<path fill="#FFFFFF" d="M403.585,465.783c-1.045,0-1.925-0.371-2.639-1.113c-0.714-0.741-1.071-1.631-1.071-2.667
		s0.357-1.925,1.071-2.667s1.594-1.112,2.639-1.112c1.12,0,2.086,0.429,2.898,1.288l-0.687,0.728
		c-0.672-0.709-1.414-1.064-2.226-1.064c-0.729,0-1.342,0.273-1.841,0.819c-0.5,0.546-0.749,1.216-0.749,2.009
		c0,0.784,0.254,1.449,0.763,1.995s1.141,0.819,1.897,0.819c0.774,0,1.502-0.364,2.184-1.092l0.714,0.657
		C405.699,465.316,404.714,465.783,403.585,465.783z"/>
	<path fill="#FFFFFF" d="M410.068,465.615v-6.286h-2.59v-0.952h6.271v0.952h-2.59v6.286H410.068z"/>
	<path fill="#FFFFFF" d="M417.474,465.77c-0.737,0-1.372-0.201-1.904-0.603s-0.798-0.961-0.798-1.68c0-0.756,0.28-1.339,0.84-1.75
		s1.312-0.616,2.254-0.616c0.747,0,1.484,0.103,2.212,0.309v-0.225c0-0.635-0.187-1.12-0.56-1.456
		c-0.374-0.336-0.901-0.504-1.582-0.504c-0.71,0-1.442,0.173-2.198,0.519l-0.322-0.883c0.896-0.41,1.773-0.615,2.632-0.615
		c1.027,0,1.807,0.266,2.339,0.798c0.504,0.504,0.756,1.213,0.756,2.128v4.424h-1.064v-1.078
		C419.434,465.358,418.566,465.77,417.474,465.77z M417.684,464.901c0.672,0,1.241-0.183,1.708-0.546
		c0.466-0.364,0.699-0.831,0.699-1.4v-0.672c-0.709-0.205-1.413-0.308-2.113-0.308c-0.663,0-1.181,0.133-1.555,0.398
		c-0.373,0.267-0.56,0.628-0.56,1.085c0,0.439,0.175,0.789,0.525,1.05C416.738,464.77,417.17,464.901,417.684,464.901z"/>
	<path fill="#FFFFFF" d="M423.423,465.615v-7.238h1.078v3.122h4.172v-3.122h1.078v7.238h-1.078v-3.164h-4.172v3.164H423.423z"/>
</g>
<g>
	<path fill="#FFFFFF" d="M382.74,361.949v-9.8h1.12l3.57,5.348l3.57-5.348h1.119v9.8h-1.105v-7.938l-3.57,5.25h-0.056l-3.57-5.235
		v7.924H382.74z"/>
	<path fill="#FFFFFF" d="M400.717,361.003c-0.728,0.742-1.629,1.113-2.702,1.113s-1.967-0.368-2.681-1.106
		c-0.714-0.736-1.071-1.628-1.071-2.674c0-1.036,0.361-1.925,1.085-2.667s1.622-1.112,2.695-1.112s1.969,0.368,2.688,1.105
		s1.078,1.629,1.078,2.674C401.809,359.373,401.446,360.262,400.717,361.003z M398.043,361.151c0.774,0,1.411-0.271,1.911-0.813
		c0.499-0.541,0.749-1.208,0.749-2.002c0-0.784-0.26-1.451-0.777-2.002s-1.155-0.826-1.911-0.826c-0.774,0-1.409,0.273-1.904,0.819
		c-0.494,0.546-0.741,1.216-0.741,2.009c0,0.784,0.256,1.449,0.77,1.995S397.287,361.151,398.043,361.151z"/>
	<path fill="#FFFFFF" d="M407.017,362.117c-1.045,0-1.925-0.371-2.639-1.113c-0.714-0.741-1.071-1.631-1.071-2.667
		s0.357-1.925,1.071-2.667s1.594-1.112,2.639-1.112c1.12,0,2.086,0.429,2.898,1.288l-0.687,0.728
		c-0.672-0.709-1.414-1.064-2.226-1.064c-0.729,0-1.342,0.273-1.841,0.819c-0.5,0.546-0.749,1.216-0.749,2.009
		c0,0.784,0.254,1.449,0.763,1.995s1.141,0.819,1.897,0.819c0.774,0,1.502-0.364,2.184-1.092l0.714,0.657
		C409.131,361.65,408.146,362.117,407.017,362.117z"/>
	<path fill="#FFFFFF" d="M411.748,361.949v-7.238h1.078v4.172l3.962-4.172h1.33l-3.024,3.137l3.108,4.102h-1.274l-2.576-3.318
		l-1.525,1.568v1.75H411.748z"/>
	<path fill="#FFFFFF" d="M419.687,361.949v-7.238h3.5c0.719,0,1.293,0.164,1.722,0.49c0.43,0.327,0.645,0.766,0.645,1.316
		c0,0.774-0.401,1.33-1.204,1.666c1.063,0.289,1.596,0.887,1.596,1.792c0,0.606-0.238,1.087-0.714,1.441
		c-0.476,0.355-1.115,0.532-1.918,0.532H419.687z M420.765,357.819h2.226c0.448,0,0.806-0.101,1.071-0.301
		c0.266-0.201,0.398-0.488,0.398-0.861c0-0.308-0.126-0.556-0.378-0.742s-0.606-0.28-1.063-0.28h-2.254V357.819z M420.765,361.025
		h2.408c0.513,0,0.919-0.107,1.218-0.322s0.448-0.513,0.448-0.896c0-0.355-0.157-0.631-0.47-0.826
		c-0.313-0.196-0.758-0.294-1.337-0.294h-2.268V361.025z"/>
	<path fill="#FFFFFF" d="M430.047,362.103c-0.737,0-1.372-0.201-1.904-0.603s-0.798-0.961-0.798-1.68c0-0.756,0.28-1.339,0.84-1.75
		s1.312-0.616,2.254-0.616c0.747,0,1.484,0.103,2.212,0.309v-0.225c0-0.635-0.187-1.12-0.56-1.456
		c-0.374-0.336-0.901-0.504-1.582-0.504c-0.71,0-1.442,0.173-2.198,0.519l-0.322-0.883c0.896-0.41,1.773-0.615,2.632-0.615
		c1.027,0,1.807,0.266,2.339,0.798c0.504,0.504,0.756,1.213,0.756,2.128v4.424h-1.064v-1.078
		C432.007,361.692,431.139,362.103,430.047,362.103z M430.257,361.235c0.672,0,1.241-0.183,1.708-0.546
		c0.466-0.364,0.699-0.831,0.699-1.4v-0.672c-0.709-0.205-1.413-0.308-2.113-0.308c-0.663,0-1.181,0.133-1.555,0.398
		c-0.373,0.267-0.56,0.628-0.56,1.085c0,0.439,0.175,0.789,0.525,1.05C429.312,361.104,429.743,361.235,430.257,361.235z"/>
</g>
<g>
	<path fill="#FFFFFF" d="M501.74,315.949v-9.8h7.729v9.8h-1.106v-8.792h-5.516v8.792H501.74z"/>
	<path fill="#FFFFFF" d="M515.223,316.117c-1.018,0-1.874-0.353-2.569-1.057c-0.695-0.705-1.043-1.612-1.043-2.724
		c0-1.055,0.331-1.948,0.994-2.681c0.662-0.732,1.488-1.099,2.478-1.099c1.036,0,1.857,0.363,2.465,1.092
		c0.606,0.728,0.909,1.643,0.909,2.744c0,0.14-0.004,0.266-0.014,0.378h-5.74c0.075,0.737,0.353,1.322,0.833,1.757
		c0.48,0.434,1.053,0.651,1.716,0.651c0.867,0,1.628-0.341,2.281-1.022l0.672,0.602
		C517.393,315.665,516.399,316.117,515.223,316.117z M512.702,311.903h4.662c-0.065-0.7-0.296-1.281-0.692-1.743
		c-0.397-0.462-0.937-0.693-1.617-0.693c-0.616,0-1.144,0.229-1.582,0.687C513.033,310.61,512.778,311.194,512.702,311.903z"/>
	<path fill="#FFFFFF" d="M520.347,318.189v-9.479h1.078v1.456c0.728-1.073,1.651-1.609,2.771-1.609c0.924,0,1.731,0.343,2.422,1.028
		c0.691,0.687,1.036,1.604,1.036,2.751c0,1.13-0.345,2.04-1.036,2.73c-0.69,0.69-1.498,1.036-2.422,1.036
		c-1.139,0-2.063-0.514-2.771-1.54v3.626H520.347z M524.001,315.137c0.728,0,1.334-0.255,1.819-0.764s0.729-1.192,0.729-2.051
		c0-0.831-0.248-1.505-0.742-2.023c-0.495-0.518-1.097-0.776-1.806-0.776c-0.7,0-1.312,0.266-1.834,0.798
		c-0.523,0.532-0.784,1.204-0.784,2.016c0,0.813,0.261,1.482,0.784,2.01C522.69,314.874,523.301,315.137,524.001,315.137z"/>
	<path fill="#FFFFFF" d="M529.643,315.949v-7.238h1.021l2.702,3.809l2.702-3.809h1.036v7.238h-1.092v-5.516l-2.674,3.668
		l-2.646-3.668v5.516H529.643z"/>
	<path fill="#FFFFFF" d="M542.774,316.117c-1.045,0-1.925-0.371-2.639-1.113c-0.714-0.741-1.071-1.631-1.071-2.667
		s0.357-1.925,1.071-2.667s1.594-1.112,2.639-1.112c1.12,0,2.086,0.429,2.898,1.288l-0.687,0.728
		c-0.672-0.709-1.414-1.064-2.226-1.064c-0.729,0-1.342,0.273-1.841,0.819c-0.5,0.546-0.749,1.216-0.749,2.009
		c0,0.784,0.254,1.449,0.763,1.995s1.141,0.819,1.897,0.819c0.774,0,1.502-0.364,2.184-1.092l0.714,0.657
		C544.888,315.65,543.903,316.117,542.774,316.117z"/>
	<path fill="#FFFFFF" d="M547.506,315.949v-7.238h1.078v4.172l3.962-4.172h1.33l-3.024,3.137l3.108,4.102h-1.274l-2.576-3.318
		l-1.525,1.568v1.75H547.506z"/>
	<path fill="#FFFFFF" d="M555.445,315.949v-7.238h1.078v5.727l4.298-5.727h1.05v7.238h-1.078v-5.726l-4.312,5.726H555.445z"/>
	<path fill="#FFFFFF" d="M564.279,315.949v-7.238h1.078v5.727l4.298-5.727h1.05v7.238h-1.078v-5.726l-4.312,5.726H564.279z
		 M568.766,307.199c-0.359,0.317-0.796,0.476-1.31,0.476s-0.949-0.158-1.309-0.476s-0.581-0.728-0.665-1.232l0.742-0.153
		c0.187,0.653,0.597,0.979,1.231,0.979s1.045-0.326,1.232-0.979l0.742,0.153C569.347,306.471,569.124,306.881,568.766,307.199z"/>
	<path fill="#FFFFFF" d="M577.312,315.949v-7.238h1.078v4.172l3.962-4.172h1.33l-3.024,3.137l3.108,4.102h-1.274l-2.576-3.318
		l-1.525,1.568v1.75H577.312z"/>
	<path fill="#FFFFFF" d="M585.249,318.189v-9.479h1.078v1.456c0.728-1.073,1.651-1.609,2.771-1.609c0.924,0,1.731,0.343,2.422,1.028
		c0.691,0.687,1.036,1.604,1.036,2.751c0,1.13-0.345,2.04-1.036,2.73c-0.69,0.69-1.498,1.036-2.422,1.036
		c-1.139,0-2.063-0.514-2.771-1.54v3.626H585.249z M588.904,315.137c0.728,0,1.334-0.255,1.819-0.764s0.729-1.192,0.729-2.051
		c0-0.831-0.248-1.505-0.742-2.023c-0.495-0.518-1.097-0.776-1.806-0.776c-0.7,0-1.312,0.266-1.834,0.798
		c-0.523,0.532-0.784,1.204-0.784,2.016c0,0.813,0.261,1.482,0.784,2.01C587.592,314.874,588.203,315.137,588.904,315.137z"/>
	<path fill="#FFFFFF" d="M596.701,316.103c-0.737,0-1.372-0.201-1.904-0.603s-0.798-0.961-0.798-1.68c0-0.756,0.28-1.339,0.84-1.75
		s1.312-0.616,2.254-0.616c0.747,0,1.484,0.103,2.212,0.309v-0.225c0-0.635-0.187-1.12-0.56-1.456
		c-0.374-0.336-0.901-0.504-1.582-0.504c-0.71,0-1.442,0.173-2.198,0.519l-0.322-0.883c0.896-0.41,1.773-0.615,2.632-0.615
		c1.027,0,1.807,0.266,2.339,0.798c0.504,0.504,0.756,1.213,0.756,2.128v4.424h-1.064v-1.078
		C598.661,315.692,597.793,316.103,596.701,316.103z M596.911,315.235c0.672,0,1.241-0.183,1.708-0.546
		c0.466-0.364,0.699-0.831,0.699-1.4v-0.672c-0.709-0.205-1.413-0.308-2.113-0.308c-0.663,0-1.181,0.133-1.555,0.398
		c-0.373,0.267-0.56,0.628-0.56,1.085c0,0.439,0.175,0.789,0.525,1.05C595.966,315.104,596.398,315.235,596.911,315.235z"/>
	<path fill="#FFFFFF" d="M602.652,315.949v-7.238h1.078v5.727l4.298-5.727h1.05v7.238h-1.078v-5.726l-4.312,5.726H602.652z
		 M607.139,307.199c-0.359,0.317-0.796,0.476-1.31,0.476s-0.949-0.158-1.309-0.476s-0.581-0.728-0.665-1.232l0.742-0.153
		c0.187,0.653,0.597,0.979,1.231,0.979s1.045-0.326,1.232-0.979l0.742,0.153C607.72,306.471,607.497,306.881,607.139,307.199z"/>
</g>
<g>
	<path fill="#FFFFFF" d="M495.161,350.824v-8.792h-3.29v-1.008h7.7v1.008h-3.29v8.792H495.161z"/>
	<path fill="#FFFFFF" d="M503.618,350.978c-0.737,0-1.372-0.201-1.904-0.603s-0.798-0.961-0.798-1.68c0-0.756,0.28-1.339,0.84-1.75
		s1.312-0.616,2.254-0.616c0.747,0,1.484,0.103,2.212,0.309v-0.225c0-0.635-0.187-1.12-0.56-1.456
		c-0.374-0.336-0.901-0.504-1.582-0.504c-0.71,0-1.442,0.173-2.198,0.519l-0.322-0.883c0.896-0.41,1.773-0.615,2.632-0.615
		c1.027,0,1.807,0.266,2.339,0.798c0.504,0.504,0.756,1.213,0.756,2.128v4.424h-1.064v-1.078
		C505.578,350.567,504.71,350.978,503.618,350.978z M503.828,350.11c0.672,0,1.241-0.183,1.708-0.546
		c0.466-0.364,0.699-0.831,0.699-1.4v-0.672c-0.709-0.205-1.413-0.308-2.113-0.308c-0.663,0-1.181,0.133-1.555,0.398
		c-0.373,0.267-0.56,0.628-0.56,1.085c0,0.439,0.175,0.789,0.525,1.05C502.883,349.979,503.315,350.11,503.828,350.11z"/>
	<path fill="#FFFFFF" d="M511.318,350.824v-6.286h-2.59v-0.952h6.272v0.952h-2.59v6.286H511.318z"/>
	<path fill="#FFFFFF" d="M518.724,350.978c-0.737,0-1.372-0.201-1.904-0.603s-0.798-0.961-0.798-1.68c0-0.756,0.28-1.339,0.84-1.75
		s1.312-0.616,2.254-0.616c0.747,0,1.484,0.103,2.212,0.309v-0.225c0-0.635-0.187-1.12-0.56-1.456
		c-0.374-0.336-0.901-0.504-1.582-0.504c-0.71,0-1.442,0.173-2.198,0.519l-0.322-0.883c0.896-0.41,1.773-0.615,2.632-0.615
		c1.027,0,1.807,0.266,2.339,0.798c0.504,0.504,0.756,1.213,0.756,2.128v4.424h-1.064v-1.078
		C520.684,350.567,519.816,350.978,518.724,350.978z M518.934,350.11c0.672,0,1.241-0.183,1.708-0.546
		c0.466-0.364,0.699-0.831,0.699-1.4v-0.672c-0.709-0.205-1.413-0.308-2.113-0.308c-0.663,0-1.181,0.133-1.555,0.398
		c-0.373,0.267-0.56,0.628-0.56,1.085c0,0.439,0.175,0.789,0.525,1.05C517.989,349.979,518.42,350.11,518.934,350.11z"/>
	<path fill="#FFFFFF" d="M524.674,353.064v-9.479h1.078v1.456c0.728-1.073,1.651-1.609,2.771-1.609c0.924,0,1.731,0.343,2.422,1.028
		c0.691,0.687,1.036,1.604,1.036,2.751c0,1.13-0.345,2.04-1.036,2.73c-0.69,0.69-1.498,1.036-2.422,1.036
		c-1.139,0-2.063-0.514-2.771-1.54v3.626H524.674z M528.328,350.012c0.728,0,1.334-0.255,1.819-0.764s0.729-1.192,0.729-2.051
		c0-0.831-0.248-1.505-0.742-2.023c-0.495-0.518-1.097-0.776-1.806-0.776c-0.7,0-1.312,0.266-1.834,0.798
		c-0.523,0.532-0.784,1.204-0.784,2.016c0,0.813,0.261,1.482,0.784,2.01C527.017,349.749,527.628,350.012,528.328,350.012z"/>
	<path fill="#FFFFFF" d="M537.231,350.992c-1.045,0-1.925-0.371-2.639-1.113c-0.714-0.741-1.071-1.631-1.071-2.667
		s0.357-1.925,1.071-2.667s1.594-1.112,2.639-1.112c1.12,0,2.086,0.429,2.898,1.288l-0.687,0.728
		c-0.672-0.709-1.414-1.064-2.226-1.064c-0.729,0-1.342,0.273-1.841,0.819c-0.5,0.546-0.749,1.216-0.749,2.009
		c0,0.784,0.254,1.449,0.763,1.995s1.141,0.819,1.897,0.819c0.774,0,1.502-0.364,2.184-1.092l0.714,0.657
		C539.345,350.525,538.36,350.992,537.231,350.992z"/>
	<path fill="#FFFFFF" d="M543.713,350.824v-6.286h-2.59v-0.952h6.271v0.952h-2.59v6.286H543.713z"/>
	<path fill="#FFFFFF" d="M551.119,350.978c-0.737,0-1.372-0.201-1.904-0.603s-0.798-0.961-0.798-1.68c0-0.756,0.28-1.339,0.84-1.75
		s1.312-0.616,2.254-0.616c0.747,0,1.484,0.103,2.212,0.309v-0.225c0-0.635-0.187-1.12-0.56-1.456
		c-0.374-0.336-0.901-0.504-1.582-0.504c-0.71,0-1.442,0.173-2.198,0.519l-0.322-0.883c0.896-0.41,1.773-0.615,2.632-0.615
		c1.027,0,1.807,0.266,2.339,0.798c0.504,0.504,0.756,1.213,0.756,2.128v4.424h-1.064v-1.078
		C553.079,350.567,552.211,350.978,551.119,350.978z M551.329,350.11c0.672,0,1.241-0.183,1.708-0.546
		c0.466-0.364,0.699-0.831,0.699-1.4v-0.672c-0.709-0.205-1.413-0.308-2.113-0.308c-0.663,0-1.181,0.133-1.555,0.398
		c-0.373,0.267-0.56,0.628-0.56,1.085c0,0.439,0.175,0.789,0.525,1.05C550.384,349.979,550.816,350.11,551.329,350.11z"/>
	<path fill="#FFFFFF" d="M557.07,350.824v-7.238h1.078v3.122h4.172v-3.122h1.078v7.238h-1.078v-3.164h-4.172v3.164H557.07z"/>
</g>
<g>
	<path fill="#FFFFFF" d="M644.221,283.117c-1.409,0-2.581-0.487-3.515-1.463c-0.933-0.976-1.399-2.177-1.399-3.605
		c0-1.409,0.471-2.605,1.414-3.591c0.942-0.984,2.123-1.477,3.542-1.477c0.821,0,1.521,0.133,2.1,0.398
		c0.579,0.267,1.144,0.661,1.694,1.184l-0.729,0.784c-0.942-0.896-1.969-1.345-3.08-1.345c-1.082,0-1.985,0.388-2.709,1.162
		c-0.723,0.775-1.085,1.736-1.085,2.884c0,1.14,0.364,2.099,1.093,2.877c0.728,0.78,1.628,1.17,2.701,1.17
		c0.635,0,1.195-0.117,1.681-0.351s0.979-0.588,1.483-1.063l0.729,0.77c-0.551,0.551-1.13,0.966-1.736,1.246
		S645.07,283.117,644.221,283.117z"/>
	<path fill="#FFFFFF" d="M651.011,285.231c-0.523,0-1.036-0.122-1.54-0.364l0.364-0.854c0.345,0.177,0.723,0.266,1.134,0.266
		c0.326,0,0.602-0.101,0.826-0.301c0.224-0.201,0.442-0.554,0.657-1.058l-3.29-7.21h1.19l2.632,6.034l2.324-6.034h1.147
		l-3.037,7.477c-0.309,0.737-0.649,1.262-1.022,1.575C652.024,285.075,651.562,285.231,651.011,285.231z"/>
	<path fill="#FFFFFF" d="M658.164,285.189v-9.479h1.078v1.456c0.728-1.073,1.651-1.609,2.771-1.609c0.924,0,1.731,0.343,2.422,1.028
		c0.691,0.687,1.036,1.604,1.036,2.751c0,1.13-0.345,2.04-1.036,2.73c-0.69,0.69-1.498,1.036-2.422,1.036
		c-1.139,0-2.063-0.514-2.771-1.54v3.626H658.164z M661.819,282.137c0.728,0,1.334-0.255,1.819-0.764s0.729-1.192,0.729-2.051
		c0-0.831-0.248-1.505-0.742-2.023c-0.495-0.518-1.097-0.776-1.806-0.776c-0.7,0-1.312,0.266-1.834,0.798
		c-0.523,0.532-0.784,1.204-0.784,2.016c0,0.813,0.261,1.482,0.784,2.01C660.507,281.874,661.118,282.137,661.819,282.137z"/>
	<path fill="#FFFFFF" d="M667.46,282.949v-7.238h4.914v0.952h-3.836v6.286H667.46z"/>
	<path fill="#FFFFFF" d="M675.063,285.231c-0.523,0-1.036-0.122-1.54-0.364l0.364-0.854c0.345,0.177,0.723,0.266,1.134,0.266
		c0.326,0,0.602-0.101,0.826-0.301c0.224-0.201,0.442-0.554,0.657-1.058l-3.29-7.21h1.19l2.632,6.034l2.324-6.034h1.147
		l-3.037,7.477c-0.309,0.737-0.649,1.262-1.022,1.575C676.075,285.075,675.614,285.231,675.063,285.231z"/>
	<path fill="#FFFFFF" d="M683.966,282.949v-6.286h-2.59v-0.952h6.271v0.952h-2.59v6.286H683.966z"/>
</g>
<g>
	<path fill="#FFFFFF" d="M481.221,281.117c-1.409,0-2.581-0.487-3.515-1.463c-0.933-0.976-1.399-2.177-1.399-3.605
		c0-1.409,0.471-2.605,1.414-3.591c0.942-0.984,2.123-1.477,3.542-1.477c0.821,0,1.521,0.133,2.1,0.398
		c0.579,0.267,1.144,0.661,1.694,1.184l-0.729,0.784c-0.942-0.896-1.969-1.345-3.08-1.345c-1.082,0-1.985,0.388-2.709,1.162
		c-0.723,0.775-1.085,1.736-1.085,2.884c0,1.14,0.364,2.099,1.093,2.877c0.728,0.78,1.628,1.17,2.701,1.17
		c0.635,0,1.195-0.117,1.681-0.351s0.979-0.588,1.483-1.063l0.729,0.77c-0.551,0.551-1.13,0.966-1.736,1.246
		S482.07,281.117,481.221,281.117z"/>
	<path fill="#FFFFFF" d="M486.891,280.949v-7.238h1.078v2.716h1.932c0.84,0,1.526,0.181,2.059,0.539
		c0.531,0.359,0.798,0.903,0.798,1.632c0,0.719-0.248,1.29-0.742,1.715c-0.495,0.425-1.157,0.637-1.988,0.637H486.891z
		 M487.969,279.997h1.96c0.551,0,0.978-0.116,1.281-0.35c0.303-0.233,0.454-0.574,0.454-1.022c0-0.41-0.156-0.726-0.469-0.944
		c-0.313-0.22-0.749-0.329-1.309-0.329h-1.918V279.997z M494.059,280.949v-7.238h1.078v7.238H494.059z"/>
	<path fill="#FFFFFF" d="M497.544,280.949v-7.238h1.078v4.172l3.962-4.172h1.33l-3.024,3.137l3.108,4.102h-1.274l-2.576-3.318
		l-1.525,1.568v1.75H497.544z"/>
	<path fill="#FFFFFF" d="M507.233,280.949v-6.286h-2.59v-0.952h6.271v0.952h-2.59v6.286H507.233z"/>
	<path fill="#FFFFFF" d="M512.483,280.949v-7.238h1.078v2.716h1.932c0.84,0,1.526,0.181,2.059,0.539
		c0.531,0.359,0.798,0.903,0.798,1.632c0,0.719-0.248,1.29-0.742,1.715c-0.495,0.425-1.157,0.637-1.988,0.637H512.483z
		 M513.561,279.997h1.96c0.551,0,0.978-0.116,1.281-0.35c0.303-0.233,0.454-0.574,0.454-1.022c0-0.41-0.156-0.726-0.469-0.944
		c-0.313-0.22-0.749-0.329-1.309-0.329h-1.918V279.997z M519.651,280.949v-7.238h1.078v7.238H519.651z"/>
	<path fill="#FFFFFF" d="M523.136,280.949v-7.238h3.5c0.719,0,1.293,0.164,1.722,0.49c0.43,0.327,0.645,0.766,0.645,1.316
		c0,0.774-0.401,1.33-1.204,1.666c1.063,0.289,1.596,0.887,1.596,1.792c0,0.606-0.238,1.087-0.714,1.441
		c-0.476,0.355-1.115,0.532-1.918,0.532H523.136z M524.214,276.819h2.226c0.448,0,0.806-0.101,1.071-0.301
		c0.266-0.201,0.398-0.488,0.398-0.861c0-0.308-0.126-0.556-0.378-0.742s-0.606-0.28-1.063-0.28h-2.254V276.819z M524.214,280.025
		h2.408c0.513,0,0.919-0.107,1.218-0.322s0.448-0.513,0.448-0.896c0-0.355-0.157-0.631-0.47-0.826
		c-0.313-0.196-0.758-0.294-1.337-0.294h-2.268V280.025z"/>
	<path fill="#FFFFFF" d="M531.34,280.949v-7.238h1.078v4.172l3.962-4.172h1.33l-3.024,3.137l3.108,4.102h-1.274l-2.576-3.318
		l-1.525,1.568v1.75H531.34z"/>
	<path fill="#FFFFFF" d="M541.434,281.103c-0.737,0-1.372-0.201-1.904-0.603s-0.798-0.961-0.798-1.68c0-0.756,0.28-1.339,0.84-1.75
		s1.312-0.616,2.254-0.616c0.747,0,1.484,0.103,2.212,0.309v-0.225c0-0.635-0.187-1.12-0.56-1.456
		c-0.374-0.336-0.901-0.504-1.582-0.504c-0.71,0-1.442,0.173-2.198,0.519l-0.322-0.883c0.896-0.41,1.773-0.615,2.632-0.615
		c1.027,0,1.807,0.266,2.339,0.798c0.504,0.504,0.756,1.213,0.756,2.128v4.424h-1.064v-1.078
		C543.394,280.692,542.526,281.103,541.434,281.103z M541.644,280.235c0.672,0,1.241-0.183,1.708-0.546
		c0.466-0.364,0.699-0.831,0.699-1.4v-0.672c-0.709-0.205-1.413-0.308-2.113-0.308c-0.663,0-1.181,0.133-1.555,0.398
		c-0.373,0.267-0.56,0.628-0.56,1.085c0,0.439,0.175,0.789,0.525,1.05C540.698,280.104,541.13,280.235,541.644,280.235z"/>
	<path fill="#FFFFFF" d="M547.384,283.189v-9.479h1.078v1.456c0.728-1.073,1.651-1.609,2.771-1.609c0.924,0,1.731,0.343,2.422,1.028
		c0.691,0.687,1.036,1.604,1.036,2.751c0,1.13-0.345,2.04-1.036,2.73c-0.69,0.69-1.498,1.036-2.422,1.036
		c-1.139,0-2.063-0.514-2.771-1.54v3.626H547.384z M551.038,280.137c0.728,0,1.334-0.255,1.819-0.764s0.729-1.192,0.729-2.051
		c0-0.831-0.248-1.505-0.742-2.023c-0.495-0.518-1.097-0.776-1.806-0.776c-0.7,0-1.312,0.266-1.834,0.798
		c-0.523,0.532-0.784,1.204-0.784,2.016c0,0.813,0.261,1.482,0.784,2.01C549.727,279.874,550.338,280.137,551.038,280.137z"/>
</g>
</svg>
