<?xml version="1.0" encoding="utf-8"?>
<!-- Generator: Adobe Illustrator 18.1.1, SVG Export Plug-In . SVG Version: 6.00 Build 0)  -->
<svg version="1.1" id="Слой_1" xmlns="http://www.w3.org/2000/svg" xmlns:xlink="http://www.w3.org/1999/xlink" x="0px" y="0px"
	 viewBox="0 0 1404.991 935.907" enable-background="new 0 0 1404.991 935.907" xml:space="preserve">
<g>
</g>
<g>
</g>
<g>
</g>
<text transform="matrix(1 0 0 1 -2181.6414 -4610.3599)"><tspan x="0" y="0" fill="#666666" font-family="'GothamPro'" font-size="14">Применяется в СМС в качестве ресорбента грязи</tspan><tspan x="0" y="39.2" fill="#666666" font-family="'GothamPro'" font-size="14">Применяется в качестве проклеивающей добавки в массу </tspan><tspan x="0" y="58.8" fill="#666666" font-family="'GothamPro'" font-size="14">или при поверхностной проклейке для улучшения свойств бумаги</tspan></text>
<g>
</g>
<g>
</g>
<g>
</g>
<g>
</g>
<g>
</g>
<g>
</g>
<polygon fill="#008FDB" points="148.132,1018.657 145.324,1013.04 145.324,1010.233 139.708,1010.233 139.708,1013.04 
	134.094,1015.848 136.901,1018.655 128.477,1015.848 125.67,1013.04 120.056,1010.233 128.479,1018.657 128.479,1021.466 
	136.903,1027.082 139.71,1027.082 145.326,1029.89 150.941,1027.082 150.941,1024.275 153.748,1027.082 156.555,1027.082 
	159.362,1024.275 150.939,1024.275 "/>
<path fill="#008FDB" d="M1139.277,1107.179l-3.581,1.791c-2.391,1.196-2.391,1.793,0,1.793l-10.755-3.584l-3.584,3.584l7.171,7.171
	l-3.584,3.584l7.171,3.584h3.584l7.168-3.584h-3.584l3.584-3.584v-3.584l3.584-7.171H1139.277z"/>
<path fill="#008FDB" d="M1275.496,1110.766l-7.168,3.584c2.391-2.391,2.391-3.584,0-3.584s-2.391-1.196,0-3.584l-7.171,3.584
	l3.584,3.584h-3.584v7.171l-7.168,3.584c2.391,0,2.391,0.598,0,1.793c-2.391,1.196-3.584,1.793-3.584,1.793l-7.171,3.584
	l-3.581,7.171l-3.584,3.584l3.584,3.584h7.168h3.584c2.391,0,3.584-0.595,3.584-1.791s2.391-1.793,7.168-1.793v-7.171l3.584-7.171
	h7.171l-3.584-3.587l3.584-3.584c0-2.391,1.195-4.182,3.581-5.377C1277.884,1114.95,1277.884,1113.154,1275.496,1110.766
	l3.584-3.584l-7.168,3.584H1275.496z"/>
<path fill="#008FDB" d="M1293.418,1089.251h-7.168l-3.584-7.171v-3.584l-3.584,3.584v-7.171l-7.168-3.587l-3.584-3.584h-3.584
	l3.584,3.584v3.587l7.168,3.584h-3.582l3.582,3.584l-3.582,10.755v3.584h-3.584l10.752,3.587l-3.584,3.584v3.584v3.584h3.584
	c2.391-2.391,3.584-4.78,3.584-7.171s2.391-3.584,7.171-3.584l-3.584-3.587h3.584l7.168-3.584l-3.584-7.171h3.584l-7.168,3.584
	h3.579V1089.251z"/>
<g>
	<path fill="#008FDB" d="M641.004,949.415l-7.171-3.584v-3.584l-3.581,3.584l3.581,3.584l-7.168,3.584h-3.584l-3.584,7.173h-3.584
		v3.581h-7.168h3.584l-3.584,3.587v3.581l-3.584,7.173l7.171,3.584h-3.584l3.584,3.584l-3.584,3.584l3.584,3.587h-7.171l3.584,7.171
		v3.584l3.584,7.171l-3.584,3.584c4.777,0,7.168,0.598,7.168,1.793s1.196,1.793,3.584,1.793l3.584-3.587l7.171-7.171
		c-2.391-4.78-1.793-10.159,1.791-16.135c3.584-5.978,4.182-11.355,1.791-16.135l3.584-3.587l3.584-3.581l-7.171-3.587h7.171
		l-3.584,3.587l3.584-3.587l-3.584-3.581L641.004,949.415z"/>
</g>
<g>
	<path fill="#008FDB" d="M1164.37,1021.124l3.584-3.581l-3.584-3.587v-7.171c-4.78,0-6.573-0.595-5.377-1.793
		c1.196-1.193-0.598-1.791-5.377-1.791l3.582-7.173h-3.582h-3.584v-3.581l-7.171-3.587l3.584-3.584
		c-2.391,0-4.182-0.598-5.377-1.791c-1.196-1.198-2.989-1.793-5.377-1.793v-3.584l-7.171-3.584l3.584-3.587l-3.584-3.581
		c-2.391-2.391-3.584-4.184-3.584-5.38c0-1.195-1.196-1.791-3.584-1.791l3.584-3.587l-7.168-3.584v3.584l-3.584-10.755l3.584-3.584
		h-3.584l-3.584-3.587l3.584-3.581l-7.171,3.581h3.584l-7.171,7.173l3.584,3.584h-3.584l3.584,10.757l-7.168,3.581l3.581,3.587
		l-3.581,3.581v3.587h-7.166l-3.584-3.587h-3.584l-3.581-7.171l-3.584-3.581v-3.587h-3.584l7.171-3.584l-3.584-3.584h7.168h-3.582
		l7.168-3.584l-10.752-3.584h3.584h-7.171h-7.171v-3.587h-3.581v-3.581h-7.171l7.171,3.581h-3.584v3.587h-3.584l-7.171,3.584
		l3.584,3.584h-7.168l3.581,3.584l-3.581,3.584h-3.584l-7.171-3.584h-3.584h-3.582l3.582,3.584h-7.168h3.584h-7.171v3.587
		l-3.584,3.581v-3.581l-3.584,3.581h3.584l-3.584,3.587v-7.171l-7.168,3.581c2.391,2.391,2.986,3.587,1.791,3.587
		s-0.595,1.193,1.793,3.581h-7.171l3.584,3.587l-7.171,3.584h-3.581h-7.171l3.584,3.584h-7.171h-7.168v3.584h-7.171l-3.584,10.755
		l-3.584-3.581l3.584,3.581l-3.584,7.173v3.584l-3.581,3.584l7.168,3.584h-3.584l3.584,3.587l-3.584,3.581v-3.581v7.171v-3.587
		l-3.581,3.587l7.168,3.584l-3.584,3.584h7.171l-3.584,3.584l3.584,3.584l-3.584,7.171l7.171,3.587l-3.584,10.755l-3.584,3.584
		l10.755,3.584v3.584h5.377h5.377v-3.584h7.171v-3.584h10.752h10.752h-3.584l7.171-3.584v-3.584l7.171-3.584h3.581
		c4.78,0,7.768-0.598,8.964-1.793c1.193-1.196,2.986-1.791,5.377-1.791h7.168l10.755,3.584l10.752,3.584l-7.171,3.584l10.755,3.584
		l-3.584,3.584l7.171,3.584l-3.584-7.171h7.168v-7.171l3.584,3.584l-3.584,3.584l3.584,3.584l-7.168,3.584h7.168v-3.584l3.584,3.584
		l-3.584,3.587h7.171v3.584l3.584,3.584l-3.584,3.584l7.168,3.584l3.584,3.584h7.171c-2.391,0-1.793,0,1.791,0
		s4.182,1.196,1.793,3.584l7.168-7.171l3.584,3.584l7.171,3.584l3.582-3.584l7.171-3.584h3.584h7.168l-3.581-7.171l3.581-7.171
		v-3.587l3.584-3.584v-3.584l3.584-7.171v-3.584l7.171-3.584l-3.584-3.587l3.584-3.582c-2.391-2.391-2.391-4.184,0-5.382
		c2.389-1.193,2.389-1.791,0-1.791l3.581-7.171l-7.168-3.584v-3.587h-3.598V1021.124z"/>
</g>
<g>
	<path fill="#008FDB" d="M1020.983,924.317h3.584l-10.755,3.584l3.584,3.584l-3.584,3.587l7.171-3.587v-3.584
		c4.78,0,7.171-0.598,7.171-1.791c0-1.198,1.196-1.793,3.582-1.793v-3.584h-3.582L1020.983,924.317z"/>
</g>
<g>
	<polygon fill="#008FDB" points="988.719,920.733 985.135,920.733 977.967,920.733 981.548,924.317 985.132,924.317 
		992.303,924.317 988.719,920.733 	"/>
</g>
<g>
	<polygon fill="#008FDB" points="1003.058,920.733 995.89,920.733 999.471,924.317 1003.055,924.317 1013.807,920.733 
		1010.226,917.149 1010.226,920.733 	"/>
</g>
<g>
	<polygon fill="#008FDB" points="970.796,924.317 974.38,920.733 970.796,917.149 960.044,917.149 960.044,913.562 949.289,909.98 
		949.289,913.562 938.537,913.562 942.121,909.98 934.951,909.98 927.78,909.98 927.78,913.562 931.364,917.149 938.535,917.149 
		945.703,917.149 952.873,920.733 967.212,920.733 967.212,924.317 	"/>
</g>
<g>
	<path fill="#008FDB" d="M1139.277,909.975l-10.752-3.587l3.584-3.584h-7.171v-3.584l-21.509-7.171h-3.582
		c-2.391-2.391-3.584-3.587-3.584-3.587h-7.171l-10.752,3.587v3.584l-7.171-3.584v-7.171l-3.584-3.587h-3.581h-3.584l-7.171,3.587
		l7.171,3.581l-3.584,3.587h10.752h-3.582l-7.171,3.584h7.171l-3.584,3.584h3.584h3.582l3.584,3.584h7.171l7.168,3.584l3.584,3.587
		v7.171l-7.168,3.584h10.749h7.171v3.592h14.339l3.584-3.584l3.582-3.584h10.755v3.584l10.752,7.171c-2.391,0-2.391,0.598,0,1.791
		c2.391,1.198,3.584,1.793,3.584,1.793l7.171,3.587l3.582-3.587l-10.752-3.584h7.171h-7.171l3.584-3.584h-7.171v-3.584l-7.168-3.584
		l3.582-3.587v-3.589H1139.277z"/>
</g>
<g>
	<path fill="#008FDB" d="M992.306,884.877l3.584,3.581l-7.171,3.587l7.171,3.584h-3.584l3.584,7.171l-3.584,3.584l3.584,3.587
		c2.389-2.391,2.986-4.78,1.791-7.173c-1.196-2.391-0.595-4.78,1.791-7.171l3.584,3.584v3.584l3.584,3.584h7.168h-7.168h3.584
		l3.581-3.584l-10.752-7.171h7.171l-10.755-7.173l7.171-3.581v-3.587h3.584h-3.584v3.587h-7.171v-3.587l-3.581-3.581h14.339
		l3.581,3.581l7.171-3.581v-3.587l3.584-3.584l-10.755,3.584h-7.168h-7.171l-3.581,3.587L992.306,884.877z"/>
</g>
<g>
	<path fill="#008FDB" d="M927.78,899.218l-3.581-3.584l3.581-3.584h-7.168v-3.587l-3.584-3.581l-7.168-3.587l7.168-3.581h-7.168
		l-3.584-7.173h-10.755l-3.581-7.171h-7.171v-3.584l-7.171-7.171c2.391,0,1.793-0.598-1.791-1.793
		c-3.584-1.195-5.377-1.793-5.377-1.793l-3.584,3.587l14.339,10.755l-3.584,3.584l10.755,3.584v7.173l7.168,3.581l3.584,10.757
		l7.171,3.584l-3.584,3.584l10.752,3.584v3.584h10.755v-7.171h3.579V899.218z"/>
</g>
<g>
	<path fill="#008FDB" d="M981.551,841.848l-3.581,3.584l-7.171,10.755l-7.171,3.587v3.584l-7.168,3.584h-3.584l-3.584,3.584h-7.168
		v3.584l-3.584,7.171l7.168,3.587l-3.581,3.581l3.581,7.173h3.584h7.171h7.168l3.584,3.584h3.584h3.584v-7.171l3.584-3.587v-3.581
		l3.581-7.171v-3.587h7.171l-7.171-3.584l3.584-3.584l-7.168-3.584l7.168-7.173v-3.581h3.584l3.584-3.587h-7.171
		c0,0-1.196-1.196-3.584-3.584h3.584l-7.168-3.584L981.551,841.848L981.551,841.848z"/>
</g>
<g>
	<path fill="#008FDB" d="M1017.396,834.68l-10.752,3.584l3.584,3.584v-3.584h3.581h7.171l-7.171,3.584l7.171,3.584v3.584
		l7.171-3.584l-7.171-3.584h7.171l-3.584,3.584l7.168-3.584c-2.389-2.391-3.581-4.184-3.581-5.38c0-1.195-1.196-2.989-3.584-5.38
		v-3.581l-3.584,3.581L1017.396,834.68h-3.584H1017.396z"/>
</g>
<g>
	<polygon fill="#008FDB" points="1013.812,823.92 1010.231,827.507 1010.231,831.088 1017.399,831.088 1013.815,827.507 
		1020.986,823.92 1017.402,820.336 1017.402,823.92 1013.818,820.336 1013.818,823.92 	"/>
</g>
<g>
	<polygon fill="#008FDB" points="988.719,823.92 992.303,827.507 985.132,831.088 985.132,834.675 988.716,831.088 995.887,827.507 
		995.887,823.92 999.468,820.336 	"/>
</g>
<g>
	<polygon fill="#008FDB" points="1028.154,816.749 1020.983,813.165 1020.983,816.749 1024.567,820.333 1017.396,820.333 
		1020.98,823.917 1017.396,823.917 1020.98,827.504 1020.98,823.917 1020.98,820.333 1017.396,820.333 1024.567,820.333 
		1024.567,816.749 	"/>
</g>
<g>
	<polygon fill="#008FDB" points="1010.228,784.48 1006.644,784.48 1003.06,784.48 995.892,788.064 999.474,798.819 995.892,795.235 
		999.474,802.408 995.892,805.99 999.474,805.99 999.474,809.576 995.892,809.576 1003.06,813.16 1010.231,816.744 1010.231,813.16 
		1013.812,816.744 1013.812,820.328 1017.396,805.984 1010.228,802.403 1003.058,798.816 1006.642,795.232 1013.81,791.648 
		1006.642,788.064 	"/>
</g>
<g>
	<polygon fill="#008FDB" points="1067.583,698.425 1064.002,694.844 1071.17,698.425 1071.17,694.844 1074.754,691.257 
		1067.583,691.257 1060.415,691.257 1060.415,694.844 1056.831,698.425 1064.002,702.012 1064.002,698.425 	"/>
</g>
<g>
	<polygon fill="#008FDB" points="1096.26,669.742 1085.506,676.913 1085.506,673.329 1074.754,684.084 1074.754,680.5 
		1060.415,684.084 1060.415,687.668 1049.66,691.252 1049.66,694.838 1042.492,694.838 1046.076,698.42 1046.076,702.007 
		1049.658,709.177 1046.076,709.177 1056.828,709.177 1056.828,694.836 1053.244,691.249 1056.828,691.249 1063.999,687.665 
		1071.167,687.665 1074.751,691.249 1074.751,694.836 1085.503,687.663 1089.087,687.663 1099.842,684.079 1099.842,680.495 
		1103.423,676.911 1099.842,669.74 1103.423,662.569 1107.007,655.396 1110.591,651.812 1103.42,644.641 1103.42,648.226 
		1096.252,651.81 1099.836,658.98 1092.677,669.742 	"/>
</g>
<g>
	<polygon fill="#008FDB" points="1103.428,633.887 1096.26,637.473 1099.844,644.644 1103.426,644.644 1110.596,637.473 
		1114.18,644.644 1121.349,637.473 1124.932,633.887 1124.932,626.716 1117.764,626.716 1117.764,623.132 1107.01,615.961 
		1110.594,623.132 1103.428,633.887 	"/>
</g>
<g opacity="0.48">
	<g>
		<path fill="#008FDB" d="M96.13,572.932l3.584-3.584H96.13l-3.584,3.584l-7.168,3.584v14.341l-7.171,3.587l3.584,3.584h-7.168
			l3.584,3.584h10.755h10.755l-7.168,3.584h7.168v-7.171l7.168,3.584l-7.168,3.584l10.755,3.587h-3.584l7.168-7.171l-7.168-7.171
			l3.584-3.587l-7.171,3.587l7.171-7.171H99.717h3.584h-7.168l3.584-3.584l-7.168-3.587v3.587c0-2.391,0.598-4.782,1.791-7.171
			C95.533,574.128,96.13,572.932,96.13,572.932L96.13,572.932z"/>
	</g>
</g>
<g>
	<path fill="#008FDB" d="M1110.599,565.762v7.171l3.584,10.757l-7.171,7.171l3.584,14.341v7.171l7.171-7.171v3.587l3.581-3.587
		l-10.752-7.171l7.171-10.757h3.581l-3.581-10.757l-3.584-10.755l3.584-7.171c-2.391-2.391-3.584-4.78-3.584-7.171
		s-1.196-4.78-3.584-7.171v3.584l-3.584,7.171v10.757H1110.599z"/>
</g>
<g>
	<path fill="#008FDB" d="M339.888,569.349l3.584-7.171l7.171-7.171l-3.584-7.171l7.168-3.584l-10.752-7.171
		c-2.391,2.391-4.182,4.782-5.377,7.171c-1.196,2.388-4.184,3.584-8.961,3.584l7.168,10.757l-7.168,10.757h10.752V569.349z"/>
</g>
<g>
	<polygon fill="#008FDB" points="350.646,537.077 357.814,533.493 357.814,537.077 357.814,540.663 368.568,540.663 
		368.568,547.834 372.15,555.005 357.811,555.005 361.395,558.589 361.395,562.173 357.811,565.759 357.811,569.343 
		368.566,569.343 357.811,572.927 354.227,580.098 350.646,583.685 357.814,580.098 361.398,580.098 368.568,576.514 
		379.32,576.514 382.904,576.514 393.657,572.93 386.486,569.346 393.657,565.762 390.073,562.175 386.488,558.591 382.907,555.007 
		382.907,544.25 375.736,544.25 372.152,533.493 364.984,533.493 372.152,522.736 372.152,515.565 361.4,515.565 364.984,504.808 
		357.814,504.808 350.646,511.978 354.227,522.733 350.646,526.32 354.227,537.074 350.646,537.074 	"/>
</g>
<g opacity="0.48">
	<g>
		<path fill="#008FDB" d="M311.211,436.683l-3.584-10.757v-7.171h-7.168l-10.755,7.171l-3.584-3.584l-10.752,7.171l-3.584-10.755
			l-10.755,3.584v7.171l7.168,3.587l3.584,3.584h-14.339l14.339,7.171l-7.168,3.587c4.78,2.391,8.364,3.584,10.755,3.584
			c2.388,0,7.168,1.196,14.339,3.584c0-2.391,1.793-4.182,5.377-5.377c3.584-1.196,6.573-2.989,8.961-5.38l10.755-7.171h-3.589
			V436.683z"/>
	</g>
</g>
<g>
	<polygon fill="#008FDB" points="1103.428,286.089 1117.77,286.089 1124.938,271.748 1103.429,260.991 1096.261,260.991 
		1085.506,264.575 1085.506,278.916 1092.677,289.673 	"/>
</g>
<g>
	<path fill="#008FDB" d="M648.174,347.043l3.581,3.587l7.171,7.171h14.339h7.171l-14.341-14.341v-10.757
		c2.391-7.171,5.38-13.743,8.961-19.721c3.584-5.978,5.38-11.355,5.38-16.135l21.507-17.928c2.391-4.78,7.171-8.366,14.341-10.755
		c7.168-2.391,11.948-5.978,14.339-10.757l7.168-7.171l-7.168-7.171l-7.171,3.584L712.7,253.82l-14.339,3.587l-21.509,14.341
		l-7.171,10.755v7.171l-10.752,17.928l-7.171,17.928l-3.581,7.171v3.584l-3.584,10.757h3.582V347.043z"/>
</g>
<g opacity="0.48">
	<g>
		<path fill="#008FDB" d="M257.44,364.971h-7.168v-7.171l3.584-10.757c0,2.391,1.196,4.782,3.584,7.171
			c2.388,2.389,3.584,4.78,3.584,7.171l10.755-3.584l-3.584-10.757l-3.584-10.757l-10.755-3.584l3.584-3.584l7.168,7.171
			l3.587-7.173l-10.752-14.341h10.752l3.584-3.584l7.168-7.171l-10.755-7.171h14.339l-10.755-17.928h10.755l-7.168-17.928
			l-3.584-10.757l3.584-10.757h14.339l-10.755-14.341l3.584-28.685c0-4.78,1.196-10.757,3.584-17.928
			c2.391-7.171,3.584-14.341,3.584-21.514h-7.168l14.339-7.171l7.168-7.171l14.339-21.512v-14.341l-17.923-7.171l-21.509,14.341
			l-17.923,10.757l10.755-17.928l-10.755-10.757l-3.584,10.757l-17.923-14.344l-14.339,3.587l-7.168-7.171
			c9.559,0,17.325-0.598,23.303-1.793c5.975-1.196,14.936-1.793,26.884-1.793l3.584-14.341l-25.093-35.856l-46.6-3.589
			l-14.339,3.584L174.992,49.44h-14.339l-17.923,25.099l3.584,14.341l7.171,21.514l-7.171-10.757l-10.752-3.584l-10.755-14.341
			l-14.339,21.512l-3.584-14.341H88.962l-14.339,7.171l-14.339,10.757l3.584,14.341l-10.755,3.584l-14.339,21.512l-7.168,14.344
			l17.923,10.755l-7.171,10.757c-2.389,4.782-7.766,8.964-16.132,12.551s-13.741,7.768-16.132,12.551l-3.584,10.757l14.339,7.171
			l17.923,7.171h-7.168l-17.923,7.171l14.339,17.928v7.171c7.168-2.391,12.548-3.584,16.132-3.584h16.132l7.171,3.584l14.339,10.757
			l-3.584,10.757l10.755,7.171c0,4.782,1.793,10.159,5.377,16.137c3.584,5.975,4.182,11.352,1.793,16.135l7.168,7.171l-7.168,14.341
			l7.168,3.587c4.78,2.391,7.768,4.78,8.961,7.171c1.196,2.391,4.182,4.78,8.961,7.171l-14.339-7.171h-3.584l-3.584,7.171
			l3.584,10.757v3.584h10.755c0-2.391,1.196-4.184,3.584-5.38c2.388-1.196,2.391-1.793,0-1.793l3.584,10.757l-3.584,3.584
			l-3.584,7.171l-10.755,17.928l7.171,3.584l-3.584,10.757l10.755,10.757l-3.584,10.757l3.584,7.171l7.168,14.341l7.168,10.757
			l3.584,7.171h14.339l3.584,7.171h10.752c-2.389-2.391-2.389-5.377,0-8.964c2.391-3.584,2.391-6.573,0-8.964v-14.341l7.171-7.171
			l3.584-7.171l-3.584-10.757l7.168-7.171c0,0,1.793-0.598,5.377-1.793c3.584-1.196,5.377-1.793,5.377-1.793h7.168l7.168-10.757
			l14.339-14.341v-7.171h10.755l10.755-3.587l17.923-10.755l7.168-14.341h-3.584h-3.584V364.971z"/>
	</g>
</g>
<g>
	<path fill="#008FDB" d="M1343.608,411.584h-10.755v7.171v-3.587l-3.584-7.171l-10.752-14.341l-10.752-7.171l-3.584-3.584
		l-7.171-3.584l-10.752-7.171h-17.923l-10.752-3.584l-7.171,7.171l7.171,7.171l-7.171,3.584l-7.171-10.755h-10.752l-7.171-3.587
		h-10.752l-3.584,3.587l-10.752-3.587l3.584-10.757l-7.171-3.584l-7.171-3.584l-25.091,3.584l-7.171-10.757l-7.168-10.757
		l-43.019-10.755l-10.752,7.171l7.168,14.341h-14.339v3.587l-10.752-7.171l-7.171,3.584l-10.752-7.171v17.928l-17.923-7.171
		l-3.584-10.757v-7.171l3.584-14.341l-14.339-7.171h-3.584l-14.339-3.587l3.581,10.757h-25.091l3.584-10.757l-21.509-3.584
		l-3.584,3.584l-7.168,7.171l3.581-10.757l-10.752,3.584l-3.584-7.171h-7.168l7.168-7.171l7.171-10.757l10.752-3.584l-3.584-10.755
		v-7.171l-14.339-10.757h-10.752l-7.171,3.584v-14.341l-14.339-3.584l10.752-3.584l-10.752-7.171l-10.752,7.171l-7.171,10.757
		v10.755h-14.339l-7.171,10.757l-7.168-3.584h-7.171l-7.168,7.171l-7.171,3.584l-14.339,7.171l-10.755,14.341l7.171,7.171
		l-14.339,3.584h-10.755l-10.752,3.584l3.584,17.928v14.341l-7.171-7.171h-14.339l-3.584,7.171l-3.584,10.757v-3.587l-3.581-14.341
		l3.581-10.755h-7.168l7.168,14.341l-14.339,10.757l10.755,10.757l-7.171,14.341l7.171,7.171v3.584l3.581,7.171v10.757v3.587
		l-7.168,7.171v3.584l-7.171,7.171v-3.584l3.584-17.928l7.171-10.757l-10.755-7.171l7.171-21.514l-7.171-10.755l-3.584-3.587
		l3.584-10.757v-10.755l-17.923-7.171v7.171l-7.168,14.341l-3.584,14.341l-3.584,3.584l3.584,10.757l-3.584,7.171l7.171,3.584
		l-3.584,3.584l10.752,7.171l-7.168,7.171l-14.339-17.928l-10.755-3.584l-10.752-3.587l-7.171,7.171l10.755,7.171l-10.755,10.757
		v-10.757l-10.752,7.171h-7.171l-7.168,7.171l-3.584-3.584l3.584-10.757c-7.171,4.782-12.548,8.366-16.132,10.757
		s-8.961,5.978-16.129,10.757v7.171l-10.755,3.587v-3.587l-3.584-7.171h10.755l-7.171-7.171l-10.752-7.171v10.757v3.584v7.171v7.171
		l-10.755-3.584l-14.339,10.755l7.171,10.757l-7.171,3.584l-10.752-7.171l-7.171,3.584l7.171,3.584l-3.611,7.178l-7.171-7.171
		l-3.581-17.928l-3.584-10.757l25.091,7.171l3.584-3.584l10.755-7.171l-3.584-7.171v-7.171l-25.093-17.928l-10.752-3.584
		l-10.755-7.171l-3.581,3.584l-7.171-7.171l10.752-3.587l-17.923-10.755l-7.168,3.584H504.79l-3.584,14.341h-10.752l-7.171,7.171
		c-7.171,4.78-11.948,9.562-14.339,14.341c-2.391,4.782-5.975,9.562-10.755,14.344c-2.388,7.171-5.973,14.341-10.752,21.512
		c-4.78,7.171-8.366,14.341-10.752,21.514l-14.341,10.757l-7.168,10.755l-10.755,7.171l7.171,25.099l-3.584,10.757l10.755,3.584
		h3.581l14.341-10.757l3.581,3.584l7.171,14.341v10.757l3.584,7.171h3.584l7.168-7.171l7.171-7.171v-17.928h7.168l3.584-10.757
		l-3.584-7.171l-7.168-7.171l7.168-14.341l7.171-10.755l10.752-7.171l-3.581-7.171l7.168-10.755l7.171-3.587l10.752,7.171
		l-3.584,3.584v3.584l-14.339,10.757l-3.584,7.171l-3.581,7.171l3.581,10.757l-3.581,10.757l7.168,3.584v7.171l14.339-3.587
		l7.171-3.584h10.752l3.584,7.171l-7.171-3.587h-7.168h-3.584h-10.752l-3.584,3.587l-3.584,7.171l7.171,3.587v-3.587
		c2.391,2.391,2.391,4.782,0,7.171c-2.391,2.388-2.391,4.78,0,7.171h-7.171v-7.171l-7.168,3.584l3.581,3.584l-3.581,7.171
		l3.581,7.171l-10.752,3.587l3.584,3.584h-10.755h3.584l-7.168-3.584c0,2.391-1.793,4.182-5.38,5.377
		c-3.581,1.196-5.377,1.793-5.377,1.793l-7.168,3.584v-3.584l-7.171-3.584l-10.752,3.584l3.581-3.584h-10.752l3.584-3.584
		l-3.584-7.171l7.171-7.171l-3.584,3.584l7.168-3.584l-7.168-3.587h3.584l-3.584-3.584l3.584-7.171l-7.171,7.171l-7.171,3.584
		l3.584,10.757v3.584l3.584,7.171l-3.584,3.584v7.171l-7.168-3.587l-3.584,3.587l-10.755,3.584v10.757l-7.168,3.584h-3.584
		c-2.391,0-2.391,1.196,0,3.584l-7.171,7.171l-7.168,3.584l-7.171-3.584l3.584,10.757l-10.752-3.587h-7.171l-3.584,7.171
		l14.341,3.584v3.584l7.168,7.171l-3.597,14.359l3.584,3.584h-17.923h-3.584h-10.752v-3.584l-10.752,7.171l3.581,3.587l-3.581,7.171
		h7.168l-3.584,3.584v3.584l-3.581,3.584h3.581l-3.581,3.584l3.581,3.587l3.584,7.171h3.584h3.584l3.584,3.584v3.584h3.581v-3.584
		h7.171h3.584h3.584l7.168-7.173l7.171-3.581v-3.587v-3.584l7.168-3.584l-3.584-3.584h10.755v-3.584l3.584-7.171l3.581-3.587
		l14.341,3.587l3.581-3.587h3.584l3.584-7.171l7.171,3.584h-3.584l7.168,7.173v3.581l10.755,3.587v3.584h7.168h-3.581l7.168,3.584
		v3.584h3.584c2.986,2.989,2.391,4.78,0,7.173l-3.584,3.581l3.584,3.587h-3.584l7.171-7.171h-3.584l3.584-3.587h-7.171l7.171-3.584
		l7.168,3.584h-3.581l3.581-3.584l-7.168-3.584c0,0-1.196-0.595-3.584-1.793c-2.391-1.193-3.584-1.791-3.584-1.791l3.584-3.584
		h-7.171l-3.581-3.587l-3.584-7.171l-3.582-7.168l-3.584-3.584l3.584-7.171h7.171h-3.584h-3.584l3.584,3.587l3.584-3.587v3.587
		h3.581v3.584v7.171l10.755,3.584c2.391,0,3.584,0.598,3.584,1.793s2.388,1.793,7.168,1.793l-3.584,3.581h7.171l-3.584,10.757
		l7.171,3.584l-3.584,3.584c2.391,0,3.584,0.598,3.584,1.793s1.196,2.986,3.584,5.377l-3.584,3.587l7.168,3.584v3.584h7.171
		l-7.171-3.584h7.171l-3.584-3.584h7.171l-3.584-3.587v-3.581l-3.584-3.587v-7.171l3.584,3.584l7.168-3.584l-7.168-3.584h7.168
		h3.584h3.584v3.584c2.391,0,3.584-0.595,3.584-1.793c0-1.193,2.391-1.791,7.168-1.791l7.171-3.584h-7.171l3.584-3.587l-7.168-3.581
		l7.168-3.587l-3.584-3.584l7.171-10.755h-3.584l7.171-3.587h-3.584l7.171-7.171l-3.584-3.587h10.752l-3.584,3.587h10.755
		l-3.584,3.584v3.584h-3.584l7.171,3.587l-3.584,3.584h7.171l3.581-3.584h7.165v-3.587h-3.584h-3.584l3.584-3.584v-3.584h7.171
		v-3.587h7.168h3.584h3.584l-14.339,3.587l7.168,3.584l-7.168,3.584v3.587v3.584h7.168l3.584,7.171l7.171,3.584h7.168v7.171
		l3.584,3.587l-10.752,3.584h-10.755l-7.168-3.584l-14.339-3.587h-3.584l-7.171,3.587l-3.584,3.584h-10.752v3.584h-10.752
		l-3.584,7.171v3.587l3.584,3.581v3.587l7.168,7.171l10.755,3.584l3.581-3.584h3.584l7.171,3.584h3.584l7.168-3.584v3.584h7.171
		h-7.171h3.586l-7.171,3.584l3.584,3.584l-3.584,3.584v7.171h-3.581v10.757l-7.171,3.584l-7.171-3.584l3.584,3.584l-7.168-3.584
		h-3.584l-7.171,3.584c0,0-1.791-0.598-5.377-1.791c-3.584-1.198-5.377-1.793-5.377-1.793h-10.755H501.2v-3.584h-3.584l-7.168-7.173
		l-7.171,7.173v3.584v3.584v3.584l-10.752-3.584h-3.584l-7.171-3.584v-3.584l-10.752-3.584v-3.587h-3.584h-3.584h-7.168l3.581-3.581
		h-7.168l3.584-3.587v-3.584l3.581-7.171h-7.168l3.584-3.584v-3.584h3.581h-7.168l3.584-3.584h-7.171l-3.584,3.584h-7.168h3.581
		h-10.752v3.584l-7.171-3.584h-5.377c-3.584,0-5.377,1.196-5.377,3.584h-10.752v3.584l-7.171,3.584l-3.584,3.584h-3.581
		l-3.584-3.584h-10.755l3.584-3.584h-7.168l-3.584,10.755l-7.171,3.587v3.581l-7.168,3.587l3.581,3.584l-7.168,7.171l7.168,7.173
		l-10.752,3.581v3.587h-10.752l3.581,3.584l-7.168,7.171l-7.171,3.584l3.584,3.587l-3.584,3.581l-7.168,3.587l3.584,3.584
		l-3.584,3.584v3.584h-3.584c2.388,2.391,2.986,4.182,1.791,5.38c-1.193,1.195,1.793,5.377,1.793,5.377l3.584,21.514l-7.168,3.584
		l3.584,3.587h-7.168l7.168,3.581l-3.584,3.587l3.584,7.171v3.584h7.168h-3.584h7.169l-3.584,3.584l3.584,3.587h3.584v3.581
		l3.584,7.173l-3.584,3.584h7.168l10.755,7.171v3.587l10.752,3.581c4.78,0,7.171-0.595,7.171-1.791c0-1.196,1.196-1.791,3.584-1.791
		h7.168h7.171l7.168,3.581v-3.581l17.923-7.173h7.171h7.168v3.584l7.171,10.757l3.584-3.587l7.168-3.581l-3.581,3.581h7.168
		l-3.584,3.587h7.171l-3.584,3.584l3.584,3.584l-3.584,3.584h3.584c-2.391,0-2.986,1.196-1.791,3.584
		c1.196,2.388,0.595,3.587-1.793,3.587l3.584,7.171v7.171l14.339,7.171v7.171l3.584,3.587l-3.584,3.581l7.171,3.587
		c-2.391,2.391-2.989,4.184-1.793,5.377c1.196,1.198,1.793,5.38,1.793,5.38h-3.584c2.391,2.391,2.986,4.184,1.791,5.38
		c-1.196,1.195,1.793,5.377,1.793,5.377l3.584,7.173l-10.755,7.171v3.584l-3.584,3.587l3.584,3.581l-3.584,7.171
		c0.598,2.991,1.196,4.782,3.584,7.173v3.584l3.584,3.584v7.173l3.584,3.581v3.587l3.584,10.755l-3.584,10.755l7.168,3.587
		l-3.581,3.584l7.168,3.584v3.584c2.391,2.391,3.584,5.38,3.584,8.964s2.391,6.573,7.171,8.964l-3.584,7.171h3.584l-3.584,3.584
		l3.584,7.171v3.587h3.581h3.584l3.584-3.587h10.752h10.755h-3.584h7.168l-3.581-3.584h7.168h3.584l7.171-3.584
		c-2.391-2.391-2.391-4.182,0-5.38c2.391-1.196,3.581-2.986,3.581-5.377l7.171-3.584v-7.171h5.377c-1.195,0-0.595-1.198,1.793-3.587
		l7.168-7.171l3.584-7.171l-3.584-3.587l3.584-3.581h-3.584h3.584l-3.584-3.587c4.78,0,7.766-0.595,8.961-1.791
		c1.196-1.196,2.989-2.989,5.377-5.38l3.584-3.584h-7.168l3.581-10.755l-7.168-7.173l3.584-3.584l10.752-10.757
		c4.78-2.391,7.171-3.581,7.171-3.581s2.388-1.198,7.168-3.587v-3.581l7.171-7.173l-3.584-21.514v-3.584l-7.171-7.171l3.584-3.584
		v-3.587h3.584l-7.171-3.581l3.584-3.587l-3.584-3.584h7.171l-3.584-3.584l7.171-3.584l-3.584-3.584h3.584l7.168-3.587l7.171-7.171
		l7.171-3.581l3.581-7.173l10.755-3.584c-2.391-2.391-1.793-4.78,1.791-7.171c3.584-2.391,5.377-4.78,5.377-7.171l7.171-7.173
		c-2.391,0-2.391-1.195,0-3.584c2.391-2.388,2.391-4.78,0-7.171l7.171-7.171h-3.584l3.584-7.173h-14.341h-3.581l-7.171,3.584
		h-10.752h3.581l-7.168-3.584c-2.989,0,0-3.584,0-3.584h3.584l-10.755-3.584h3.584c-4.78-2.391-7.171-4.184-7.171-5.38
		c0-1.195-1.196-1.793-3.581-1.793l-7.171-7.171h-7.171l3.584-7.171l-7.168-3.584c2.388-2.391,2.388-3.584,0-3.584h-3.584
		l-3.572-10.734l3.584-3.581l-3.584-3.589l3.584-3.584l-3.584-3.587l-3.584-3.584l-3.584-3.584l7.171-3.587l-10.752-3.581v-7.173
		l-7.171-10.755v-3.587l-7.171-3.581l7.171,7.171c0,2.391,0.595,3.584,1.791,3.584h5.38v-7.173l3.581-3.581l-3.581,7.171h7.168
		c-2.391,2.391-2.391,4.184,0,5.377c2.391,1.198,2.391,2.989,0,5.38l7.171,3.584h-3.589l7.171,3.587l-3.584,3.581l3.584,3.587
		l7.168,3.584v3.584l3.584,7.171v7.171h3.584l3.584,3.587l7.168,7.171l-3.584,3.584h3.584v3.584l3.584,7.171h-7.171h7.171
		l-3.584,3.587l3.584,7.171v3.584h10.752l-3.581-3.584h3.581h7.171l3.584-3.587h7.168v-3.581l10.755-3.587h3.584l3.581-3.584h-3.581
		l7.168-3.584h7.171l3.581-3.584h-3.581l7.168-3.584h7.171l-3.584-3.587l7.171-3.581h-3.584l3.584-7.171h3.581v-3.587l3.584-3.584
		c2.391-2.989,2.391-3.584,0-3.584l3.584-3.584h-7.171c-2.388-2.989-2.388-3.584,0-3.584l-7.168-3.587h-7.171l3.584-3.581
		l-3.584-7.173c-4.78,2.391-7.168,4.78-7.168,7.173c0,2.391-2.391,3.581-7.171,3.581h-3.584h-7.168h3.584l-7.171-3.581l7.171-3.587
		l-3.584-3.584h-3.584v3.584l-3.584-3.584v-3.584h-3.584l3.584-3.584c-4.78-2.391-6.573-4.184-5.377-5.38
		c1.196-1.195,1.791-5.377,1.791-5.377h-7.168h7.168l-3.581-3.587l7.168,3.587v-3.587l7.171,7.171v7.173h10.752v3.584l10.752,3.584
		l3.584-3.584l7.171-3.584l-3.584,3.584l7.171,7.171h8.961c1.196,0,4.182,1.196,8.961,3.587h14.339l10.752-3.587v3.587l7.171,3.581
		v3.587l10.752,7.171h-7.168l14.339,7.171l10.752-3.584l-3.584,7.173l3.584,7.171c-2.391,2.391-2.391,4.78,0,7.171
		c2.391,2.391,2.391,5.975,0,10.755l10.752,7.173l-3.581,3.581l3.581,7.173v3.584l3.584,3.584c0,2.391,0.598,4.782,1.793,7.173
		c1.196,2.391,0.595,3.581-1.793,3.581l10.755,7.173l-3.584-3.584l7.168-3.587l3.584-3.581l-3.584-3.587h7.171l-3.584-7.171
		l3.584-7.171l-3.584-3.587l3.584-7.171l-3.584-3.584h7.171l7.168-3.584h-3.581l7.168-3.584l7.171-10.755l10.752-3.587v-3.581
		l3.584-3.587v-3.584h7.171h-3.584h7.168l-3.581-3.584l7.168,3.584l-3.584-3.584l3.584-3.584h3.584l3.584,3.584v3.584l3.584,3.584
		l-3.584,3.587l7.168,3.581h3.584v7.171l7.171,7.173l-7.171,7.171h7.171l10.752-3.584l3.584,3.584v7.173l3.584,3.581v3.587
		l3.584,3.584l-3.584,3.584l3.584,3.584l-3.584,3.584v7.171l-3.584,3.587l7.171,3.584l-3.584-3.584c2.391,0,3.584,0.595,3.584,1.791
		s1.193,1.793,3.581,1.793l-3.581,3.584l10.752,3.584l-3.584,3.584l3.584,3.587l-3.584,3.581l7.171,3.587l-3.584,3.584l14.339,7.171
		l3.584-3.584h-7.171l-3.581-14.341l3.581-3.587l-7.168-3.584h-3.584l-10.752-7.171l3.581-7.173h-7.168l3.584-3.581
		c-2.391,0-2.391-1.198,0-3.587c2.389-2.391,2.389-4.78,0-7.171l3.581-7.171l3.584,3.584l10.755,3.584l-3.584,3.584l7.168,3.584
		l7.171,3.587l-7.171,3.581l7.171,3.587l3.584-10.757l10.752-3.584v-3.584l3.584-7.171l-7.171-10.757v-3.584v-3.584
		c0-2.391-1.196-4.78-3.584-7.171c-2.389-2.391-3.581-4.78-3.581-7.171v-3.587l7.168-3.581l3.584-7.173h3.584l3.584,3.584h3.581
		l-3.581,3.587h7.168v-3.587h7.171l7.168-7.171l7.171,3.584v-3.584h10.752c0,0,1.196-1.196,3.584-3.584
		c2.391-2.394,4.78-3.584,7.171-3.584l7.168-7.171c0-2.394,1.196-4.782,3.584-7.173s2.391-4.78,0-7.171h7.171v-3.584l3.581-7.171
		h-7.168v-3.587v-3.584l3.584-3.584l-10.755-10.757l3.584-7.171l-10.752-3.584l7.168-3.584v-3.584l7.171-3.584h3.584l3.581-3.584
		h-7.168v-3.584l-10.752,7.171v-3.584l-3.584-3.584l-10.755-7.171l7.171-3.587l14.339-7.171v-3.584l3.584,3.584l-7.171,3.584
		l7.171,3.584l-7.171,3.587l10.755-3.587v-3.584h10.752h-3.584h7.171l-3.584,10.755h3.584l-7.171,3.587h7.171h-3.584l3.584,3.584
		l3.584-3.584l-3.584,3.584l7.168,3.584l-7.168,3.584l7.168,7.171l-7.168,3.584l3.584,3.587h3.582h7.171v-3.587l7.171-3.584
		l-3.584-14.341v-10.755l-10.755-3.587l3.584-3.584v-3.584h7.171l-3.584-3.584h3.584v-3.584l3.584-3.587v-3.581h3.582l-3.582-3.587
		l14.339-3.584v3.584h7.168l3.584-3.584c4.779-4.78,7.766-8.964,8.961-12.551c1.196-3.584,4.184-6.573,8.961-8.964v-7.171
		l10.755-10.757l-3.584-10.757l3.584-10.755v-7.171l3.582-7.171l-7.168-7.171l-7.171,3.584l-3.584-3.584l-3.581-3.584l-3.584-3.584
		c2.391-4.782,7.168-10.757,14.339-17.928c7.171-7.171,13.143-14.341,17.923-21.512l21.509-3.587l10.752,3.587l10.755-7.171
		l3.581,3.584l3.584,7.171l3.584-3.584h14.339l-7.168-7.171l14.339-17.928l10.752-3.584l7.171,14.341l10.752-14.341l7.171-10.757
		v17.928l-10.755,10.757c-2.391,2.391-5.377,5.377-8.961,8.964c-3.584,3.584-6.573,7.768-8.961,12.551h-10.752l3.584,3.584
		l-7.171,7.171l3.584,10.757c-2.391,7.171-2.391,13.148,0,17.928c2.391,4.782,2.391,9.562,0,14.344l7.168,7.171l3.584-7.171
		l3.584-10.757h7.171l3.581-10.757v-3.584h10.755l-7.171-3.587l7.171-7.171l3.584-14.341h-7.171l3.584-3.584v-10.757l7.168-7.171
		l3.584,3.584l7.171-3.584v3.584l14.339-7.171l3.584,7.171l7.168-7.171c0-2.391,1.793-4.78,5.38-7.171
		c3.581-2.391,5.377-4.78,5.377-7.171l21.507-10.757l7.171,3.584l3.584-3.584l-3.584-7.171l3.584-3.587l-7.171-7.171l-3.584-7.171
		h3.584l10.755-7.171v-3.587v-3.584l3.581-3.584v3.584v3.584h10.755l7.168,7.171l3.584,3.584l7.171,3.584l7.168-3.584l-3.581-10.757
		h10.8v-3.584l-7.171-14.341h-3.581V411.584z"/>
</g>
<g>
	<path fill="#008FDB" d="M655.342,651.815v-3.584l-7.168,7.171h7.168l-3.584,3.584h7.171l-3.584,7.171l3.584,3.587l-3.584,3.584
		h-3.584h-10.752v-3.584l-7.171-3.587v-3.581l-3.581-3.587l7.168-3.584l-3.584-7.171h7.171h-7.171h3.584l-7.168-7.173
		c2.388-2.391,1.791-4.182-1.793-5.377s-4.182-2.989-1.791-5.38l-3.584-7.171l3.584-7.171l7.168-3.584v-3.584h7.171l3.584-3.587
		h7.168l3.584,7.171l-3.584,7.171v-3.587l-7.168,3.587l3.584,3.584h-10.755l3.584,3.584v3.584l7.171,3.584v3.587h7.168l-7.168,3.581
		l3.581,3.587v3.584l3.584-7.173l3.584,3.587v3.584v3.584h-3.587V651.815z"/>
</g>
<g opacity="0.25">
	<circle fill="#FFFFFF" cx="850.959" cy="449.852" r="149.25"/>
</g>
<g opacity="0.25">
	<circle fill="#FFFFFF" cx="516.764" cy="553.515" r="50.102"/>
</g>
<g>
	<path fill="#FFFFFF" d="M795.684,461.759V440.64h8.629c2.494,0,4.465,0.674,5.913,2.021s2.173,3.128,2.173,5.34
		c0,2.354-0.805,4.179-2.414,5.476c-1.609,1.298-3.65,1.946-6.124,1.946h-3.53v6.336H795.684z M800.33,451.29h3.681
		c1.146,0,2.047-0.302,2.7-0.905s0.98-1.388,0.98-2.354c0-1.025-0.332-1.815-0.995-2.368c-0.664-0.554-1.59-0.83-2.776-0.83h-3.59
		V451.29z"/>
	<path fill="#FFFFFF" d="M829.551,459.677c-1.68,1.63-3.767,2.444-6.261,2.444s-4.57-0.81-6.23-2.429
		c-1.659-1.619-2.488-3.615-2.488-5.989c0-2.354,0.839-4.345,2.519-5.974s3.767-2.443,6.261-2.443s4.57,0.81,6.23,2.429
		c1.659,1.619,2.488,3.615,2.488,5.988C832.07,456.057,831.23,458.048,829.551,459.677z M823.351,458.169
		c1.267,0,2.282-0.428,3.047-1.282c0.765-0.855,1.146-1.916,1.146-3.184c0-1.227-0.397-2.277-1.191-3.152
		c-0.795-0.875-1.815-1.313-3.063-1.313c-1.267,0-2.283,0.428-3.047,1.282c-0.765,0.854-1.146,1.916-1.146,3.183
		c0,1.228,0.396,2.278,1.191,3.153S822.104,458.169,823.351,458.169z"/>
	<path fill="#FFFFFF" d="M843.021,462.121c-2.413,0-4.42-0.814-6.019-2.444c-1.6-1.629-2.398-3.62-2.398-5.974
		c0-2.333,0.804-4.319,2.413-5.959c1.609-1.639,3.631-2.458,6.064-2.458c2.595,0,4.736,0.945,6.427,2.836l-2.686,2.715
		c-1.127-1.065-2.384-1.599-3.771-1.599c-1.127,0-2.062,0.433-2.806,1.297c-0.744,0.865-1.116,1.921-1.116,3.168
		c0,1.268,0.377,2.328,1.131,3.184c0.755,0.854,1.745,1.282,2.972,1.282c1.268,0,2.505-0.573,3.711-1.72l2.686,2.715
		c-0.885,0.966-1.83,1.7-2.836,2.202C845.786,461.869,844.53,462.121,843.021,462.121z"/>
	<path fill="#FFFFFF" d="M860.248,462.121c-2.413,0-4.42-0.814-6.019-2.444c-1.6-1.629-2.398-3.62-2.398-5.974
		c0-2.333,0.804-4.319,2.413-5.959c1.609-1.639,3.631-2.458,6.064-2.458c2.595,0,4.736,0.945,6.427,2.836l-2.686,2.715
		c-1.127-1.065-2.384-1.599-3.771-1.599c-1.127,0-2.062,0.433-2.806,1.297c-0.744,0.865-1.116,1.921-1.116,3.168
		c0,1.268,0.377,2.328,1.131,3.184c0.755,0.854,1.745,1.282,2.972,1.282c1.268,0,2.505-0.573,3.711-1.72l2.686,2.715
		c-0.885,0.966-1.83,1.7-2.836,2.202C863.014,461.869,861.757,462.121,860.248,462.121z"/>
	<path fill="#FFFFFF" d="M884.898,445.587v16.172h-4.435v-9.413l-6.306,9.413h-4.314v-16.172h4.435v9.443l6.306-9.443H884.898z"/>
	<path fill="#FFFFFF" d="M903.332,445.587v16.172h-4.586v-5.189h-2.475l-3.409,5.189h-5.31l4.133-5.943
		c-2.253-0.865-3.379-2.475-3.379-4.827c0-1.649,0.573-2.962,1.72-3.938s2.756-1.464,4.827-1.464H903.332z M895.639,453.251h3.107
		v-4.073h-3.138c-0.845,0-1.499,0.176-1.961,0.528c-0.463,0.352-0.694,0.859-0.694,1.523c0,0.644,0.236,1.142,0.709,1.493
		C894.135,453.075,894.794,453.251,895.639,453.251z"/>
</g>
<g>
	<path fill="#FFFFFF" d="M513.995,547.656v2.629h3.987c1.681,0,2.985,0.421,3.912,1.261c0.927,0.841,1.39,1.979,1.39,3.416
		c0,1.523-0.496,2.701-1.487,3.534s-2.371,1.25-4.138,1.25h-6.982v-15.085h11.573v2.995H513.995z M517.638,553.044h-3.642v3.707
		h3.664c1.537,0,2.306-0.64,2.306-1.918C519.965,553.641,519.189,553.044,517.638,553.044z"/>
	<path fill="#FFFFFF" d="M531.15,560.005c-1.753,0-3.197-0.557-4.332-1.67s-1.702-2.562-1.702-4.343
		c0-1.681,0.539-3.104,1.616-4.267c1.078-1.164,2.442-1.746,4.095-1.746c1.824,0,3.218,0.604,4.181,1.811
		c0.962,1.207,1.444,2.693,1.444,4.461c0,0.172-0.015,0.46-0.043,0.861h-8.039c0.158,0.733,0.481,1.294,0.97,1.682
		s1.106,0.582,1.854,0.582c1.02,0,1.954-0.396,2.801-1.186l1.875,1.659C534.705,559.286,533.132,560.005,531.15,560.005z
		 M528.326,553.066h4.935c-0.101-0.747-0.363-1.343-0.787-1.789c-0.424-0.444-0.974-0.668-1.648-0.668
		c-0.661,0-1.211,0.22-1.649,0.657C528.739,551.704,528.456,552.304,528.326,553.066z"/>
	<path fill="#FFFFFF" d="M540.265,548.195h9.288v11.551h-3.275v-8.749h-2.931c0,1.522-0.058,2.809-0.172,3.857
		c-0.115,1.049-0.273,1.903-0.474,2.564s-0.481,1.171-0.84,1.529c-0.359,0.359-0.747,0.604-1.164,0.733
		c-0.417,0.129-0.934,0.193-1.552,0.193c-0.589,0-1.142-0.064-1.66-0.193l0.216-2.651c0.258,0.044,0.488,0.065,0.689,0.065
		c0.345,0,0.618-0.083,0.819-0.248s0.392-0.539,0.571-1.121c0.179-0.581,0.305-1.479,0.377-2.693S540.265,550.207,540.265,548.195z"
		/>
	<path fill="#FFFFFF" d="M555.76,559.962c-1.135,0-2.08-0.316-2.834-0.948s-1.131-1.509-1.131-2.63c0-1.221,0.42-2.14,1.261-2.758
		s1.972-0.927,3.394-0.927c0.962,0,1.903,0.158,2.823,0.474v-0.193c0-1.408-0.827-2.112-2.479-2.112
		c-0.991,0-2.055,0.209-3.189,0.625l-0.819-2.5c1.408-0.617,2.902-0.927,4.482-0.927c1.738,0,3.039,0.432,3.901,1.293
		c0.833,0.834,1.25,2.063,1.25,3.686v6.702h-3.168v-1.25C558.374,559.474,557.21,559.962,555.76,559.962z M556.751,557.699
		c0.761,0,1.379-0.19,1.854-0.571s0.711-0.865,0.711-1.455v-0.582c-0.618-0.287-1.314-0.431-2.09-0.431
		c-0.719,0-1.275,0.14-1.67,0.42s-0.592,0.687-0.592,1.218c0,0.432,0.165,0.772,0.496,1.023
		C555.788,557.573,556.219,557.699,556.751,557.699z"/>
	<path fill="#FFFFFF" d="M565.242,563.195v-14.999h3.276v1.659c0.919-1.25,2.119-1.875,3.599-1.875c1.437,0,2.672,0.539,3.707,1.616
		c1.034,1.078,1.551,2.543,1.551,4.396c0,1.839-0.514,3.294-1.541,4.364c-1.027,1.07-2.267,1.605-3.718,1.605
		c-1.437,0-2.636-0.575-3.599-1.725v4.957H565.242z M569.283,556.287c0.539,0.597,1.203,0.895,1.993,0.895s1.458-0.298,2.004-0.895
		c0.545-0.596,0.819-1.375,0.819-2.338c0-0.934-0.273-1.699-0.819-2.295c-0.546-0.597-1.214-0.895-2.004-0.895
		s-1.455,0.298-1.993,0.895c-0.539,0.596-0.809,1.375-0.809,2.338C568.474,554.926,568.743,555.692,569.283,556.287z"/>
	<path fill="#FFFFFF" d="M582.546,563.259c-1.034,0-2.004-0.266-2.909-0.797l1.099-2.371c0.503,0.302,0.97,0.453,1.401,0.453
		c0.517,0,0.897-0.252,1.142-0.755l-4.525-11.594h3.469l2.629,7.865l2.521-7.865h3.405l-4.439,11.831
		c-0.445,1.192-0.948,2.029-1.508,2.511C584.27,563.018,583.509,563.259,582.546,563.259z"/>
	<path fill="#FFFFFF" d="M598.17,560.005c-1.724,0-3.157-0.582-4.299-1.746c-1.142-1.163-1.713-2.586-1.713-4.267
		c0-1.666,0.574-3.085,1.724-4.256s2.593-1.757,4.332-1.757c1.853,0,3.383,0.676,4.59,2.025l-1.918,1.94
		c-0.805-0.762-1.702-1.143-2.693-1.143c-0.805,0-1.473,0.309-2.004,0.927c-0.532,0.618-0.797,1.372-0.797,2.263
		c0,0.905,0.27,1.663,0.808,2.273c0.539,0.611,1.246,0.916,2.123,0.916c0.905,0,1.789-0.409,2.651-1.229l1.918,1.939
		c-0.632,0.689-1.308,1.215-2.026,1.573C600.146,559.825,599.248,560.005,598.17,560.005z"/>
	<path fill="#FFFFFF" d="M605.023,559.746v-11.551h3.276v3.814h2.371c1.393,0,2.51,0.323,3.351,0.97
		c0.84,0.646,1.261,1.595,1.261,2.845c0,1.221-0.392,2.18-1.175,2.877c-0.783,0.696-1.872,1.045-3.265,1.045H605.023z
		 M610.346,554.488h-2.047v2.672h2.069c1.077,0,1.616-0.46,1.616-1.379c0-0.402-0.14-0.719-0.42-0.948
		C611.284,554.603,610.878,554.488,610.346,554.488z"/>
</g>
<g opacity="0.25">
	<circle fill="#FFFFFF" cx="500.181" cy="492.516" r="27.054"/>
</g>
<g opacity="0.25">
	<circle fill="#FFFFFF" cx="711.374" cy="651.989" r="27.054"/>
</g>
<g opacity="0.25">
	<circle fill="#FFFFFF" cx="926.878" cy="809.307" r="27.054"/>
</g>
<g>
	<path fill="#FFFFFF" d="M495.442,483.244h10.775v15.085h-3.319v-12.09h-4.354v1.143c0,2.945-0.176,5.229-0.528,6.853
		c-0.352,1.624-0.866,2.744-1.541,3.362c-0.675,0.617-1.616,0.927-2.823,0.927c-0.676,0-1.257-0.065-1.746-0.194l0.215-2.737
		c0.201,0.029,0.374,0.044,0.517,0.044c0.488,0,0.887-0.104,1.196-0.313c0.309-0.209,0.596-0.629,0.862-1.261
		c0.266-0.633,0.456-1.577,0.571-2.834c0.115-1.257,0.172-2.877,0.172-4.86V483.244z"/>
	<path fill="#FFFFFF" d="M512.768,498.545c-1.135,0-2.08-0.316-2.834-0.948s-1.131-1.509-1.131-2.63c0-1.221,0.42-2.14,1.261-2.758
		s1.972-0.927,3.394-0.927c0.962,0,1.903,0.158,2.823,0.474v-0.193c0-1.408-0.827-2.112-2.479-2.112
		c-0.991,0-2.055,0.209-3.189,0.625l-0.819-2.5c1.408-0.617,2.902-0.927,4.482-0.927c1.738,0,3.039,0.432,3.901,1.293
		c0.833,0.834,1.25,2.063,1.25,3.686v6.702h-3.168v-1.25C515.383,498.057,514.219,498.545,512.768,498.545z M513.759,496.282
		c0.761,0,1.379-0.19,1.854-0.571s0.711-0.865,0.711-1.455v-0.582c-0.618-0.287-1.314-0.431-2.09-0.431
		c-0.719,0-1.275,0.14-1.67,0.42s-0.592,0.687-0.592,1.218c0,0.432,0.165,0.772,0.496,1.023
		C512.796,496.156,513.227,496.282,513.759,496.282z"/>
	<path fill="#FFFFFF" d="M531.28,486.779v2.802h-3.427v8.749h-3.318v-8.749h-3.427v-2.802H531.28z"/>
	<path fill="#FFFFFF" d="M533.068,486.779h6.336c1.178,0,2.115,0.259,2.813,0.775c0.696,0.518,1.045,1.222,1.045,2.112
		c0,1.207-0.611,2.076-1.832,2.607c1.508,0.46,2.263,1.43,2.263,2.909c0,0.978-0.385,1.746-1.153,2.306
		c-0.769,0.561-1.821,0.841-3.157,0.841h-6.314V486.779z M536.301,491.411h2.306c0.445,0,0.787-0.107,1.023-0.323
		c0.237-0.215,0.356-0.495,0.356-0.84c0-0.302-0.112-0.554-0.334-0.755s-0.557-0.302-1.002-0.302h-2.349V491.411z M536.301,495.765
		h2.586c0.991,0,1.487-0.388,1.487-1.164c0-0.746-0.524-1.12-1.573-1.12h-2.5V495.765z"/>
	<path fill="#FFFFFF" d="M556.752,486.779v11.551h-3.168v-6.724l-4.504,6.724h-3.082v-11.551h3.168v6.745l4.504-6.745H556.752z"/>
	<path fill="#FFFFFF" d="M569.919,486.779v11.551h-3.275v-3.707h-1.767l-2.436,3.707h-3.792l2.952-4.245
		c-1.609-0.618-2.414-1.768-2.414-3.448c0-1.178,0.41-2.115,1.229-2.813c0.819-0.696,1.968-1.045,3.448-1.045H569.919z
		 M564.424,492.252h2.22v-2.909h-2.241c-0.604,0-1.07,0.126-1.401,0.377c-0.331,0.252-0.496,0.614-0.496,1.088
		c0,0.46,0.168,0.816,0.506,1.067C563.349,492.126,563.82,492.252,564.424,492.252z"/>
</g>
<g opacity="0.25">
	<circle fill="#FFFFFF" cx="556.211" cy="598.113" r="27.054"/>
</g>
<g>
	<path fill="#FFFFFF" d="M559.08,600.046l3.642-7.974h3.599l-5.797,11.658c-0.646,1.293-1.361,2.228-2.144,2.802
		c-0.783,0.575-1.713,0.862-2.791,0.862c-1.135,0-2.219-0.295-3.254-0.884l1.293-2.436c0.546,0.331,1.142,0.496,1.789,0.496
		c0.747,0,1.379-0.402,1.896-1.207l-6.034-11.292h3.707L559.08,600.046z"/>
	<path fill="#FFFFFF" d="M568.174,607.157v-11.551h3.276v4.741l4.138-4.741h3.771l-4.245,4.741l4.784,6.81h-3.879l-3.082-4.396
		l-1.487,1.616v2.78H568.174z"/>
	<path fill="#FFFFFF" d="M581.341,610.606v-14.999h3.276v1.659c0.919-1.25,2.119-1.875,3.599-1.875c1.437,0,2.672,0.539,3.707,1.616
		c1.034,1.078,1.551,2.543,1.551,4.396c0,1.839-0.514,3.294-1.541,4.364c-1.027,1.07-2.267,1.605-3.718,1.605
		c-1.437,0-2.636-0.575-3.599-1.725v4.957H581.341z M585.382,603.698c0.539,0.597,1.203,0.895,1.993,0.895s1.458-0.298,2.004-0.895
		c0.545-0.596,0.819-1.375,0.819-2.338c0-0.934-0.273-1.699-0.819-2.295c-0.546-0.597-1.214-0.895-2.004-0.895
		s-1.455,0.298-1.993,0.895c-0.539,0.596-0.809,1.375-0.809,2.338C584.574,602.337,584.843,603.103,585.382,603.698z"/>
	<path fill="#FFFFFF" d="M599.163,607.373c-1.135,0-2.08-0.316-2.834-0.948s-1.131-1.509-1.131-2.63c0-1.221,0.42-2.14,1.261-2.758
		s1.972-0.927,3.394-0.927c0.962,0,1.903,0.158,2.823,0.474v-0.193c0-1.408-0.827-2.112-2.479-2.112
		c-0.991,0-2.055,0.209-3.189,0.625l-0.819-2.5c1.408-0.617,2.902-0.927,4.482-0.927c1.738,0,3.039,0.432,3.901,1.293
		c0.833,0.834,1.25,2.063,1.25,3.686v6.702h-3.168v-1.25C601.778,606.885,600.614,607.373,599.163,607.373z M600.155,605.111
		c0.761,0,1.379-0.19,1.854-0.571s0.711-0.865,0.711-1.455v-0.582c-0.618-0.287-1.314-0.431-2.09-0.431
		c-0.719,0-1.275,0.14-1.67,0.42s-0.592,0.687-0.592,1.218c0,0.432,0.165,0.772,0.496,1.023
		C599.192,604.985,599.623,605.111,600.155,605.111z"/>
	<path fill="#FFFFFF" d="M619.399,595.607v11.551h-3.168v-6.724l-4.504,6.724h-3.082v-11.551h3.168v6.745l4.504-6.745H619.399z"/>
	<path fill="#FFFFFF" d="M632.911,595.607v11.551h-3.276v-4.418h-4.03v4.418h-3.276v-11.551h3.276v4.439h4.03v-4.439H632.911z"/>
	<path fill="#FFFFFF" d="M639.117,607.373c-1.135,0-2.08-0.316-2.834-0.948s-1.131-1.509-1.131-2.63c0-1.221,0.42-2.14,1.261-2.758
		s1.972-0.927,3.394-0.927c0.962,0,1.903,0.158,2.823,0.474v-0.193c0-1.408-0.827-2.112-2.479-2.112
		c-0.991,0-2.055,0.209-3.189,0.625l-0.819-2.5c1.408-0.617,2.902-0.927,4.482-0.927c1.738,0,3.039,0.432,3.901,1.293
		c0.833,0.834,1.25,2.063,1.25,3.686v6.702h-3.168v-1.25C641.732,606.885,640.568,607.373,639.117,607.373z M640.109,605.111
		c0.761,0,1.379-0.19,1.854-0.571s0.711-0.865,0.711-1.455v-0.582c-0.618-0.287-1.314-0.431-2.09-0.431
		c-0.719,0-1.275,0.14-1.67,0.42s-0.592,0.687-0.592,1.218c0,0.432,0.165,0.772,0.496,1.023
		C639.146,604.985,639.577,605.111,640.109,605.111z"/>
</g>
<g>
	<path fill="#FFFFFF" d="M922.29,818.352v-15.085h7.004c1.738,0,3.053,0.445,3.943,1.336c0.689,0.689,1.034,1.559,1.034,2.607
		c0,1.423-0.661,2.507-1.982,3.254c0.934,0.359,1.638,0.83,2.112,1.412c0.474,0.582,0.711,1.361,0.711,2.338
		c0,1.351-0.503,2.378-1.509,3.082s-2.385,1.056-4.138,1.056H922.29z M925.523,809.365h3.06c1.595,0,2.393-0.546,2.393-1.638
		c0-0.503-0.187-0.888-0.561-1.153s-0.912-0.398-1.616-0.398h-3.275V809.365z M925.523,815.443h3.943c1.566,0,2.35-0.561,2.35-1.681
		c0-1.092-0.819-1.639-2.457-1.639h-3.836V815.443z"/>
	<path fill="#FFFFFF" d="M937.504,818.352v-11.551h3.275v3.814h2.37c1.394,0,2.511,0.323,3.352,0.97
		c0.84,0.646,1.261,1.595,1.261,2.845c0,1.221-0.392,2.18-1.175,2.877c-0.783,0.696-1.871,1.045-3.265,1.045H937.504z
		 M942.826,813.094h-2.047v2.672h2.068c1.078,0,1.616-0.46,1.616-1.379c0-0.402-0.14-0.719-0.42-0.948
		C943.764,813.208,943.358,813.094,942.826,813.094z"/>
	<path fill="#FFFFFF" d="M955.111,818.611c-1.753,0-3.197-0.557-4.332-1.67s-1.702-2.562-1.702-4.343
		c0-1.681,0.539-3.104,1.616-4.267c1.077-1.164,2.442-1.746,4.095-1.746c1.824,0,3.218,0.604,4.181,1.811
		c0.962,1.207,1.443,2.693,1.443,4.461c0,0.172-0.014,0.46-0.043,0.861h-8.038c0.158,0.733,0.481,1.294,0.97,1.682
		s1.106,0.582,1.854,0.582c1.02,0,1.953-0.396,2.802-1.186l1.875,1.659C958.666,817.892,957.093,818.611,955.111,818.611z
		 M952.287,811.671h4.935c-0.101-0.747-0.362-1.343-0.786-1.789c-0.424-0.444-0.974-0.668-1.648-0.668
		c-0.661,0-1.211,0.22-1.648,0.657C952.701,810.31,952.416,810.909,952.287,811.671z"/>
	<path fill="#FFFFFF" d="M971.876,806.801v2.802h-3.427v8.749h-3.318v-8.749h-3.427v-2.802H971.876z"/>
	<path fill="#FFFFFF" d="M984.246,806.801v11.551h-3.275v-4.418h-4.03v4.418h-3.275v-11.551h3.275v4.439h4.03v-4.439H984.246z"/>
	<path fill="#FFFFFF" d="M990.453,818.568c-1.135,0-2.08-0.316-2.834-0.948s-1.132-1.509-1.132-2.63c0-1.221,0.421-2.14,1.261-2.758
		c0.841-0.618,1.973-0.927,3.395-0.927c0.962,0,1.903,0.158,2.823,0.474v-0.193c0-1.408-0.826-2.112-2.479-2.112
		c-0.991,0-2.055,0.209-3.189,0.625l-0.818-2.5c1.407-0.617,2.901-0.927,4.482-0.927c1.737,0,3.038,0.432,3.9,1.293
		c0.833,0.834,1.25,2.063,1.25,3.686v6.702h-3.168v-1.25C993.068,818.079,991.905,818.568,990.453,818.568z M991.445,816.305
		c0.762,0,1.379-0.19,1.854-0.571c0.474-0.381,0.711-0.865,0.711-1.455v-0.582c-0.618-0.287-1.314-0.431-2.091-0.431
		c-0.718,0-1.274,0.14-1.67,0.42s-0.593,0.687-0.593,1.218c0,0.432,0.165,0.772,0.496,1.023
		C990.482,816.179,990.913,816.305,991.445,816.305z"/>
	<path fill="#FFFFFF" d="M999.936,818.352v-11.551h3.318l3.125,4.849l3.168-4.849h3.318v11.551h-3.318v-6.939l-3.211,4.741
		l-3.168-4.677v6.875H999.936z"/>
</g>
<g>
	<path fill="#FFFFFF" d="M706.786,658.878v-15.085h3.318v6.594l6.12-6.594h4.009l-6.142,6.4l6.422,8.685h-3.987l-4.676-6.422
		l-1.746,1.811v4.611H706.786z"/>
	<path fill="#FFFFFF" d="M725.449,659.094c-1.135,0-2.08-0.316-2.834-0.948s-1.132-1.509-1.132-2.63c0-1.221,0.421-2.14,1.261-2.758
		c0.841-0.618,1.973-0.927,3.395-0.927c0.962,0,1.903,0.158,2.823,0.474v-0.193c0-1.408-0.826-2.112-2.479-2.112
		c-0.991,0-2.055,0.209-3.189,0.625l-0.818-2.5c1.407-0.617,2.901-0.927,4.482-0.927c1.737,0,3.038,0.432,3.9,1.293
		c0.833,0.834,1.25,2.063,1.25,3.686v6.702h-3.168v-1.25C728.063,658.606,726.9,659.094,725.449,659.094z M726.44,656.831
		c0.762,0,1.379-0.19,1.854-0.571c0.474-0.381,0.711-0.865,0.711-1.455v-0.582c-0.618-0.287-1.314-0.431-2.091-0.431
		c-0.718,0-1.274,0.14-1.67,0.42s-0.593,0.687-0.593,1.218c0,0.432,0.165,0.772,0.496,1.023
		C725.477,656.705,725.909,656.831,726.44,656.831z"/>
	<path fill="#FFFFFF" d="M735.62,650.99l-1.401-2.004c1.308-1.207,2.932-1.811,4.871-1.811c1.25,0,2.295,0.299,3.135,0.895
		c0.841,0.597,1.261,1.34,1.261,2.23c0,1.207-0.589,2.076-1.767,2.607c1.364,0.489,2.047,1.387,2.047,2.694
		c0,1.006-0.438,1.846-1.314,2.521c-0.876,0.675-1.99,1.013-3.34,1.013c-2.127,0-3.879-0.61-5.259-1.832l1.509-2.09
		c1.02,0.876,2.177,1.314,3.47,1.314c0.488,0,0.895-0.119,1.218-0.355c0.323-0.237,0.484-0.528,0.484-0.873
		s-0.169-0.629-0.506-0.852c-0.338-0.223-0.809-0.334-1.412-0.334h-1.357v-2.047h1.336c0.503,0,0.905-0.115,1.207-0.345
		c0.302-0.23,0.452-0.51,0.452-0.841c0-0.302-0.144-0.561-0.431-0.776c-0.288-0.215-0.646-0.323-1.077-0.323
		C737.509,649.783,736.468,650.187,735.62,650.99z"/>
	<path fill="#FFFFFF" d="M749.477,659.094c-1.135,0-2.08-0.316-2.834-0.948s-1.132-1.509-1.132-2.63c0-1.221,0.421-2.14,1.261-2.758
		c0.841-0.618,1.973-0.927,3.395-0.927c0.962,0,1.903,0.158,2.823,0.474v-0.193c0-1.408-0.826-2.112-2.479-2.112
		c-0.991,0-2.055,0.209-3.189,0.625l-0.818-2.5c1.407-0.617,2.901-0.927,4.482-0.927c1.737,0,3.038,0.432,3.9,1.293
		c0.833,0.834,1.25,2.063,1.25,3.686v6.702h-3.168v-1.25C752.091,658.606,750.928,659.094,749.477,659.094z M750.468,656.831
		c0.762,0,1.379-0.19,1.854-0.571c0.474-0.381,0.711-0.865,0.711-1.455v-0.582c-0.618-0.287-1.314-0.431-2.091-0.431
		c-0.718,0-1.274,0.14-1.67,0.42s-0.593,0.687-0.593,1.218c0,0.432,0.165,0.772,0.496,1.023
		C749.505,656.705,749.937,656.831,750.468,656.831z"/>
	<path fill="#FFFFFF" d="M757.99,658.878l4.051-5.861l-3.9-5.689h3.513l2.155,3.361l2.177-3.361h3.426l-3.9,5.624l4.073,5.927
		h-3.513l-2.327-3.599l-2.328,3.599H757.99z"/>
	<path fill="#FFFFFF" d="M776.997,659.137c-1.725,0-3.157-0.582-4.3-1.746c-1.142-1.163-1.713-2.586-1.713-4.267
		c0-1.666,0.574-3.085,1.724-4.256s2.594-1.757,4.332-1.757c1.854,0,3.383,0.676,4.59,2.025l-1.918,1.94
		c-0.805-0.762-1.702-1.143-2.693-1.143c-0.805,0-1.473,0.309-2.005,0.927c-0.531,0.618-0.797,1.372-0.797,2.263
		c0,0.905,0.27,1.663,0.809,2.273c0.538,0.611,1.246,0.916,2.122,0.916c0.905,0,1.789-0.409,2.65-1.229l1.919,1.939
		c-0.633,0.689-1.308,1.215-2.026,1.573C778.972,658.957,778.075,659.137,776.997,659.137z"/>
	<path fill="#FFFFFF" d="M792.879,647.327v2.802h-3.427v8.749h-3.318v-8.749h-3.427v-2.802H792.879z"/>
	<path fill="#FFFFFF" d="M797.944,659.094c-1.135,0-2.08-0.316-2.834-0.948s-1.132-1.509-1.132-2.63c0-1.221,0.421-2.14,1.261-2.758
		c0.841-0.618,1.973-0.927,3.395-0.927c0.962,0,1.903,0.158,2.823,0.474v-0.193c0-1.408-0.826-2.112-2.479-2.112
		c-0.991,0-2.055,0.209-3.189,0.625l-0.818-2.5c1.407-0.617,2.901-0.927,4.482-0.927c1.737,0,3.038,0.432,3.9,1.293
		c0.833,0.834,1.25,2.063,1.25,3.686v6.702h-3.168v-1.25C800.558,658.606,799.395,659.094,797.944,659.094z M798.935,656.831
		c0.762,0,1.379-0.19,1.854-0.571c0.474-0.381,0.711-0.865,0.711-1.455v-0.582c-0.618-0.287-1.314-0.431-2.091-0.431
		c-0.718,0-1.274,0.14-1.67,0.42s-0.593,0.687-0.593,1.218c0,0.432,0.165,0.772,0.496,1.023
		C797.972,656.705,798.404,656.831,798.935,656.831z"/>
	<path fill="#FFFFFF" d="M818.007,647.327v11.551h-3.275v-4.418h-4.03v4.418h-3.275v-11.551h3.275v4.439h4.03v-4.439H818.007z"/>
</g>
<g opacity="0.25">
	<circle fill="#FFFFFF" cx="679.049" cy="606.734" r="27.054"/>
</g>
<g>
	<path fill="#FFFFFF" d="M680.839,607.588l3.642-7.974h3.599l-5.797,11.658c-0.646,1.293-1.361,2.228-2.144,2.802
		c-0.783,0.575-1.713,0.862-2.791,0.862c-1.135,0-2.219-0.295-3.254-0.884l1.293-2.436c0.546,0.331,1.142,0.496,1.789,0.496
		c0.747,0,1.379-0.402,1.896-1.207l-6.034-11.292h3.707L680.839,607.588z"/>
	<path fill="#FFFFFF" d="M690.623,606.812l-1.401-2.004c1.307-1.207,2.931-1.811,4.87-1.811c1.25,0,2.295,0.299,3.136,0.895
		c0.84,0.597,1.261,1.34,1.261,2.23c0,1.207-0.589,2.076-1.767,2.607c1.365,0.489,2.047,1.387,2.047,2.694
		c0,1.006-0.438,1.846-1.315,2.521c-0.876,0.675-1.99,1.013-3.34,1.013c-2.126,0-3.879-0.61-5.258-1.832l1.509-2.09
		c1.02,0.876,2.177,1.314,3.47,1.314c0.488,0,0.894-0.119,1.217-0.355c0.323-0.237,0.485-0.528,0.485-0.873
		s-0.169-0.629-0.506-0.852c-0.338-0.223-0.808-0.334-1.412-0.334h-1.357v-2.047h1.336c0.503,0,0.905-0.115,1.207-0.345
		c0.302-0.23,0.453-0.51,0.453-0.841c0-0.302-0.144-0.561-0.431-0.776c-0.288-0.215-0.646-0.323-1.078-0.323
		C692.512,605.605,691.47,606.008,690.623,606.812z"/>
	<path fill="#FFFFFF" d="M706.914,614.958c-1.953,0-3.448-0.593-4.482-1.778c-1.035-1.185-1.552-2.891-1.552-5.118
		c0-0.79,0.029-1.49,0.086-2.101c0.057-0.611,0.183-1.261,0.377-1.951c0.194-0.689,0.459-1.278,0.797-1.767
		c0.337-0.488,0.812-0.927,1.422-1.314c0.611-0.388,1.332-0.661,2.166-0.819l6.186-1.142l0.518,2.586l-6.336,1.25
		c-1.754,0.359-2.688,1.264-2.802,2.715c0.273-0.474,0.777-0.916,1.509-1.325s1.629-0.614,2.693-0.614
		c1.494,0,2.779,0.532,3.857,1.595c1.078,1.063,1.617,2.378,1.617,3.943c0,1.624-0.576,3.003-1.725,4.138
		C710.096,614.391,708.653,614.958,706.914,614.958z M706.957,612.135c0.818,0,1.486-0.283,2.004-0.852
		c0.518-0.567,0.775-1.274,0.775-2.122c0-0.833-0.268-1.545-0.807-2.134s-1.211-0.884-2.016-0.884c-0.818,0-1.486,0.291-2.004,0.873
		s-0.775,1.297-0.775,2.145c0,0.833,0.27,1.537,0.807,2.111C705.481,611.848,706.153,612.135,706.957,612.135z"/>
	<path fill="#FFFFFF" d="M720.772,614.958c-1.753,0-3.197-0.557-4.332-1.67s-1.702-2.562-1.702-4.343
		c0-1.681,0.539-3.104,1.616-4.267c1.077-1.164,2.442-1.746,4.095-1.746c1.824,0,3.218,0.604,4.181,1.811
		c0.962,1.207,1.443,2.693,1.443,4.461c0,0.172-0.014,0.46-0.043,0.861h-8.038c0.158,0.733,0.481,1.294,0.97,1.682
		s1.106,0.582,1.854,0.582c1.02,0,1.953-0.396,2.802-1.186l1.875,1.659C724.327,614.239,722.754,614.958,720.772,614.958z
		 M717.949,608.019h4.935c-0.101-0.747-0.362-1.343-0.786-1.789c-0.424-0.444-0.974-0.668-1.648-0.668
		c-0.661,0-1.211,0.22-1.648,0.657C718.362,606.657,718.077,607.257,717.949,608.019z"/>
	<path fill="#FFFFFF" d="M728.508,614.699v-11.551h3.275v4.741l4.138-4.741h3.771l-4.246,4.741l4.784,6.81h-3.879l-3.081-4.396
		l-1.487,1.616v2.78H728.508z"/>
	<path fill="#FFFFFF" d="M752.428,603.149v11.551h-3.168v-6.724l-4.504,6.724h-3.081v-11.551h3.168v6.745l4.504-6.745H752.428z"/>
	<path fill="#FFFFFF" d="M760.812,614.958c-1.725,0-3.157-0.582-4.3-1.746c-1.142-1.163-1.713-2.586-1.713-4.267
		c0-1.666,0.574-3.085,1.724-4.256s2.594-1.757,4.332-1.757c1.854,0,3.383,0.676,4.59,2.025l-1.918,1.94
		c-0.805-0.762-1.702-1.143-2.693-1.143c-0.805,0-1.473,0.309-2.005,0.927c-0.531,0.618-0.797,1.372-0.797,2.263
		c0,0.905,0.27,1.663,0.809,2.273c0.538,0.611,1.246,0.916,2.122,0.916c0.905,0,1.789-0.409,2.65-1.229l1.919,1.939
		c-0.633,0.689-1.308,1.215-2.026,1.573C762.786,614.779,761.889,614.958,760.812,614.958z"/>
	<path fill="#FFFFFF" d="M776.694,603.149v2.802h-3.427v8.749h-3.318v-8.749h-3.427v-2.802H776.694z"/>
	<path fill="#FFFFFF" d="M781.758,614.915c-1.135,0-2.08-0.316-2.834-0.948s-1.132-1.509-1.132-2.63c0-1.221,0.421-2.14,1.261-2.758
		c0.841-0.618,1.973-0.927,3.395-0.927c0.962,0,1.903,0.158,2.823,0.474v-0.193c0-1.408-0.826-2.112-2.479-2.112
		c-0.991,0-2.055,0.209-3.189,0.625l-0.818-2.5c1.407-0.617,2.901-0.927,4.482-0.927c1.737,0,3.038,0.432,3.9,1.293
		c0.833,0.834,1.25,2.063,1.25,3.686v6.702h-3.168v-1.25C784.372,614.427,783.209,614.915,781.758,614.915z M782.749,612.653
		c0.762,0,1.379-0.19,1.854-0.571c0.474-0.381,0.711-0.865,0.711-1.455v-0.582c-0.618-0.287-1.314-0.431-2.091-0.431
		c-0.718,0-1.274,0.14-1.67,0.42s-0.593,0.687-0.593,1.218c0,0.432,0.165,0.772,0.496,1.023
		C781.786,612.527,782.218,612.653,782.749,612.653z"/>
	<path fill="#FFFFFF" d="M801.822,603.149v11.551h-3.275v-4.418h-4.03v4.418h-3.275v-11.551h3.275v4.439h4.03v-4.439H801.822z"/>
</g>
<rect x="1781.371" y="433.48" fill="#008FDB" width="358" height="175.891"/>
<g>
	<polyline fill="#FFFFFF" points="116.994,1157.896 116.994,935.907 1505.925,935.907 1505.925,1157.896 	"/>
</g>
<g>
	<g opacity="0.35">
		<path d="M1387.371,1104.645"/>
	</g>
	<g>
		<path fill="#FFFFFF" d="M1387.371,1104.645"/>
	</g>
</g>
<line fill="#008FDB" x1="1387.371" y1="1103.397" x2="1312.841" y2="1103.397"/>
<line fill="none" x1="142.373" y1="1107.145" x2="714.373" y2="1107.145"/>
</svg>
